<svg width="135" height="137" viewBox="0 0 135 137" fill="none" xmlns="http://www.w3.org/2000/svg">
<g clip-path="url(#clip0_10604_16931)">
<path d="M43.4525 29.0715C43.4052 29.0931 43.3506 29.0989 43.2925 29.0968C43.1302 29.0752 43.0149 28.927 43.036 28.7644L43.5755 24.6649C43.5966 24.5023 43.7441 24.3871 43.9064 24.4087C44.0687 24.4302 44.184 24.5784 44.1629 24.741L43.6234 28.8406C43.6043 28.9449 43.5392 29.032 43.4525 29.0715Z" fill="#0A1723"/>
<path d="M42.0053 29.512C41.9816 29.5228 41.958 29.5336 41.9307 29.5365C41.7707 29.5617 41.6232 29.4473 41.5976 29.2869L40.9097 24.648C40.8841 24.4875 40.9978 24.34 41.1578 24.3148C41.3178 24.2896 41.4653 24.404 41.4908 24.5644L42.1788 29.2033C42.1899 29.3321 42.1235 29.458 42.0053 29.512Z" fill="#0A1723"/>
<path d="M39.9272 30.0109C39.7853 30.0757 39.6165 30.0189 39.5436 29.88L37.7406 26.4098C37.6641 26.263 37.7167 26.086 37.8666 26.0176C38.0049 25.9449 38.1895 25.9945 38.2581 26.1449L40.0611 29.6152C40.1376 29.7619 40.085 29.9389 39.9351 30.0073C39.9351 30.0073 39.9351 30.0073 39.9272 30.0109Z" fill="#0A1723"/>
<path d="M48.04 32.3802L50.4466 32.6013L48.1806 34.6299L48.04 32.3802Z" fill="#0A1723"/>
<path d="M40.6372 56.6602C40.6372 56.6602 30.3015 52.7815 26.4236 54.3888C22.5457 55.9961 18.8873 59.8171 18.5314 67.4088C18.2895 72.6825 19.476 79.2069 21.3854 86.2716C23.2948 93.3362 28.4813 104.346 32.5046 102.347C36.5278 100.348 30.5975 85.5381 30.5975 85.5381C30.5975 85.5381 35.1095 96.865 38.1786 95.3018C41.2477 93.7385 39.998 89.1839 39.0165 86.3236C38.0429 83.4596 35.3859 74.7569 35.3859 74.7569C35.3859 74.7569 39.185 85.2523 42.1969 83.543C45.201 81.8373 39.3703 67.976 39.3703 67.976C39.3703 67.976 41.4826 72.9593 43.4022 71.7581C45.3181 70.5491 42.6533 60.3679 42.6533 60.3679L40.6372 56.6602Z" fill="#EBF2FF"/>
<path d="M38.8466 50.2105C38.8466 50.2105 38.2493 53.954 41.297 60.9867C44.3447 68.0195 50.3047 75.1287 53.9223 76.3748C59.3929 78.2573 65.0701 78.0662 69.1547 76.2021C73.2393 74.3379 80.0333 71.8969 84.1799 74.135C88.3265 76.3732 90.5383 80.4887 92.4203 84.2576C94.3023 88.0264 96.2087 99.0509 97.8415 102.274C99.4744 105.497 101.64 108.801 105.974 107.818C110.3 106.838 107.348 97.1127 107.348 97.1127C107.348 97.1127 109.844 106.549 115.489 104.135C121.141 101.718 111.619 87.7245 111.619 87.7245C111.619 87.7245 117.753 98.6367 122.569 95.1191C127.385 91.6014 116.247 78.011 116.247 78.011C116.247 78.011 121.096 85.3787 125.548 82.5245C130.008 79.6667 121.564 67.6577 117.655 64.1447C113.75 60.6396 106.223 57.133 100.874 56.6009C95.5238 56.0688 90.7876 57.236 85.8671 56.1829C80.935 55.1256 77.156 51.8974 73.4998 48.9383C69.8435 45.9792 50.2957 42.8339 50.2957 42.8339L38.8466 50.2105Z" fill="#E92438"/>
<path d="M53.6432 43.0082C54.8708 49.5809 64.8661 57.4109 69.0182 54.8179C73.174 52.2328 63.5663 45.8992 63.5663 45.8992C63.5663 45.8992 75.2965 53.5015 77.5092 50.4168C79.7141 47.3357 70.8449 42.2235 70.8449 42.2235C70.8449 42.2235 83.7925 51.3451 87.6554 46.9909C91.5183 42.6368 79.3157 38.5296 79.3157 38.5296C79.3157 38.5296 97.5358 46.0098 100.043 40.0847C100.82 38.2384 96.0711 34.3248 90.1009 32.1827C86.1325 30.7525 66.3452 27.6879 57.2932 31.4653C53.6627 32.9884 52.6992 37.9125 53.6432 43.0082Z" fill="#EBF2FF"/>
<path d="M38.0972 36.6692C38.0972 36.6692 36.7606 42.4042 37.0986 46.3805C37.4365 50.3569 38.4103 55.0374 40.8325 54.9168C43.2504 54.8077 43.338 50.3025 43.338 50.3025C43.338 50.3025 45.3352 54.6785 48.4043 53.1153C51.4733 51.552 48.7173 45.8682 48.7173 45.8682C48.7173 45.8682 51.5422 49.5318 53.2739 47.9192C55.0056 46.3065 53.8712 44.1757 52.2577 42.4357C50.6441 40.6957 45.3935 37.1447 45.3935 37.1447L38.0972 36.6692Z" fill="#EBF2FF"/>
<path d="M44.3686 40.2228C40.9813 41.4437 38.0482 39.3593 36.9836 36.5464C35.9154 33.7256 37.874 28.8733 41.3725 28.3762C44.8789 27.8755 47.4216 29.2297 48.3948 32.2181C50.0219 37.2029 46.636 39.408 44.3686 40.2228Z" fill="#E92438"/>
<path d="M40.755 52.1793C41.4126 51.8792 41.6805 51.0549 41.3534 50.3381C41.0263 49.6214 40.228 49.2837 39.5705 49.5838C38.9129 49.8839 38.6449 50.7082 38.9721 51.425C39.2992 52.1417 40.0974 52.4795 40.755 52.1793Z" fill="#E92438"/>
<path d="M47.2945 52.0824C47.9521 51.7823 48.22 50.958 47.8929 50.2412C47.5657 49.5245 46.7675 49.1867 46.1099 49.4869C45.4523 49.787 45.1844 50.6113 45.5115 51.3281C45.8386 52.0448 46.6369 52.3825 47.2945 52.0824Z" fill="#E92438"/>
<path d="M51.1542 46.1139C51.8118 45.8138 52.0797 44.9895 51.7526 44.2727C51.4255 43.556 50.6272 43.2182 49.9696 43.5183C49.312 43.8185 49.0441 44.6428 49.3712 45.3595C49.6983 46.0763 50.4966 46.414 51.1542 46.1139Z" fill="#E92438"/>
<path d="M94.5479 37.3337C94.2641 40.9915 79.7688 39.3554 79.91 34.5293C80.0591 29.6996 94.8271 33.812 94.5479 37.3337Z" fill="#E92438"/>
<path d="M30.459 97.1134C27.3824 98.7853 21.0934 86.2997 25.0214 83.9046C28.9573 81.5059 33.4132 95.507 30.459 97.1134Z" fill="#E92438"/>
<path d="M72.2062 38.6095C70.6704 42.2171 82.8884 47.6941 84.0579 44.2441C85.2194 40.7977 73.6329 35.2429 72.2062 38.6095Z" fill="#E92438"/>
<path d="M31.3416 75.895C27.9069 77.367 32.7614 89.2355 35.8397 87.6298C38.9259 86.0205 34.5555 74.5238 31.3416 75.895Z" fill="#E92438"/>
<path d="M65.2148 42.0584C63.4312 44.8517 72.873 51.1559 74.3317 48.444C75.7868 45.7241 66.8834 39.4515 65.2148 42.0584Z" fill="#E92438"/>
<path d="M35.7805 67.3959C33.0144 68.7253 37.2979 78.445 39.7766 77.0078C42.2438 75.5662 38.3653 66.1494 35.7805 67.3959Z" fill="#E92438"/>
<path d="M59.1515 46.5181C57.6265 48.8969 65.6681 54.2625 66.9076 51.947C68.1507 49.6395 60.57 44.3026 59.1515 46.5181Z" fill="#E92438"/>
<path d="M38.5259 60.0715C36.0591 61.1591 39.6537 69.6824 41.8676 68.5C44.0778 67.3096 40.835 59.0559 38.5259 60.0715Z" fill="#E92438"/>
<path d="M84.1989 35.3256C83.8883 37.1502 90.2743 38.5958 90.6358 36.7575C90.9974 34.9192 84.5421 33.3427 84.1989 35.3256Z" fill="#EBF2FF"/>
<path d="M26.6055 87.6467C24.9969 88.3809 27.3248 94.2123 28.9672 93.5105C30.6018 92.8123 28.3481 86.8514 26.6055 87.6467Z" fill="#EBF2FF"/>
<path d="M74.7659 40.147C74.4853 41.6615 80.5672 44.967 81.3581 43.1718C82.1605 41.3809 75.14 38.1692 74.7659 40.147Z" fill="#EBF2FF"/>
<path d="M32.3413 79.1296C31.3832 79.9111 33.2503 85.2549 34.651 84.587C36.0595 83.9154 33.5831 78.1135 32.3413 79.1296Z" fill="#EBF2FF"/>
<path d="M66.8662 43.4848C66.0645 45.0267 71.648 48.7222 72.6076 47.4428C73.5665 46.1829 67.6678 41.9429 66.8662 43.4848Z" fill="#EBF2FF"/>
<path d="M36.8823 69.6852C35.5678 70.333 37.5568 75.6306 38.847 75.2426C40.1372 74.8546 38.1969 69.0374 36.8823 69.6852Z" fill="#EBF2FF"/>
<path d="M60.6903 47.4889C60.0908 48.6805 63.8461 52.1489 64.832 50.7811C65.8179 49.4132 61.2977 46.2938 60.6903 47.4889Z" fill="#EBF2FF"/>
<path d="M39.4871 62.3866C38.4045 63.0623 39.7853 67.7579 41.2621 67.1317C42.7433 66.494 40.5698 61.7108 39.4871 62.3866Z" fill="#EBF2FF"/>
<path d="M40.0091 50.378C39.3231 50.6911 39.8107 51.7594 40.4967 51.4463C41.1827 51.1332 40.6952 50.0649 40.0091 50.378Z" fill="#EBF2FF"/>
<path d="M46.3166 50.253C45.6306 50.5661 46.1182 51.6344 46.8042 51.3213C47.4902 51.0082 47.0027 49.9399 46.3166 50.253Z" fill="#EBF2FF"/>
<path d="M50.4199 44.0872C49.7338 44.4003 50.2214 45.4686 50.9074 45.1555C51.5934 44.8424 51.1059 43.7741 50.4199 44.0872Z" fill="#EBF2FF"/>
<path d="M27.6482 89.848C27.6052 89.8581 27.5622 89.8682 27.5227 89.8862C27.436 89.9258 27.3722 89.974 27.3157 90.038C27.2671 90.0985 27.2299 90.1632 27.2122 90.2287C27.2115 90.2481 27.1994 90.2632 27.1987 90.2827C27.1846 90.3561 27.1898 90.4302 27.2029 90.5007C27.2292 90.6417 27.3021 90.7805 27.4114 90.874C27.4416 90.8985 27.4683 90.915 27.4985 90.9395C27.5136 90.9517 27.5251 90.956 27.5481 90.9647C27.6473 91.015 27.7593 91.0308 27.8884 91.0006C27.9314 90.9905 27.9745 90.9804 28.0139 90.9624C28.1874 90.8832 28.2847 90.7623 28.3244 90.6199C28.3373 90.5853 28.3386 90.5465 28.3435 90.5156C28.3491 90.4652 28.3432 90.4105 28.3373 90.3558C28.2783 90.0386 28.004 89.7717 27.6482 89.848Z" fill="#E92438"/>
<path d="M33.4138 81.1453C32.7277 81.4584 33.2153 82.5267 33.9013 82.2136C34.5873 81.9005 34.0998 80.8322 33.4138 81.1453Z" fill="#E92438"/>
<path d="M37.6084 72.0691C36.9224 72.3822 37.4099 73.4505 38.0959 73.1374C38.782 72.8243 38.2944 71.756 37.6084 72.0691Z" fill="#E92438"/>
<path d="M40.1554 64.4146C39.4694 64.7277 39.957 65.796 40.643 65.4829C41.329 65.1698 40.8415 64.1015 40.1554 64.4146Z" fill="#E92438"/>
<path d="M62.8059 48.8469C62.0884 49.1744 62.5976 50.2902 63.3152 49.9627C64.0327 49.6352 63.5235 48.5194 62.8059 48.8469Z" fill="#E92438"/>
<path d="M69.6574 45.1748C68.9399 45.5023 69.4491 46.6181 70.1667 46.2906C70.8842 45.9631 70.375 44.8473 69.6574 45.1748Z" fill="#E92438"/>
<path d="M77.9877 41.2774C77.3322 41.7199 78.027 42.7414 78.6789 42.2909C79.3345 41.8483 78.6432 40.8348 77.9877 41.2774Z" fill="#E92438"/>
<path d="M87.0668 35.4511C86.497 35.998 87.3516 36.8893 87.9178 36.3344C88.4912 35.7955 87.6366 34.9042 87.0668 35.4511Z" fill="#E92438"/>
<path d="M67.3551 29.9424C66.6375 30.2699 67.1467 31.3856 67.8643 31.0581C68.5855 30.7386 68.0726 29.6149 67.3551 29.9424Z" fill="#E92438"/>
<path d="M66.7531 32.5693C66.0356 32.8968 66.5448 34.0126 67.2624 33.6851C67.9835 33.3655 67.4786 32.2382 66.7531 32.5693Z" fill="#E92438"/>
<path d="M64.7506 36.0935C64.033 36.421 64.5422 37.5368 65.2598 37.2093C65.981 36.8897 65.4681 35.766 64.7506 36.0935Z" fill="#E92438"/>
<path d="M61.9852 39.4495C61.2676 39.7769 61.7769 40.8927 62.4944 40.5652C63.2156 40.2456 62.7028 39.122 61.9852 39.4495Z" fill="#E92438"/>
<path d="M58.1588 41.2532C57.4413 41.5807 57.9505 42.6964 58.6681 42.3689C59.3856 42.0414 58.8764 40.9257 58.1588 41.2532Z" fill="#E92438"/>
<path d="M54.4204 41.9556C53.7029 42.283 54.2121 43.3988 54.9297 43.0713C55.6508 42.7517 55.1459 41.6245 54.4204 41.9556Z" fill="#E92438"/>
<path d="M20.2922 69.9517C19.6062 70.2648 20.0938 71.3331 20.7798 71.02C21.4658 70.7069 20.9783 69.6386 20.2922 69.9517Z" fill="#E92438"/>
<path d="M23.4432 69.1734C22.7572 69.4865 23.2448 70.5548 23.9308 70.2417C24.6168 69.9286 24.1371 68.8567 23.4432 69.1734Z" fill="#E92438"/>
<path d="M26.1984 67.2561C25.5123 67.5692 25.9999 68.6375 26.6859 68.3244C27.3719 68.0113 26.8844 66.9431 26.1984 67.2561Z" fill="#E92438"/>
<path d="M28.4754 64.5628C27.7894 64.8759 28.2769 65.9442 28.963 65.6311C29.649 65.318 29.1614 64.2497 28.4754 64.5628Z" fill="#E92438"/>
<path d="M29.7344 61.7891C29.0483 62.1022 29.5359 63.1705 30.2219 62.8574C30.908 62.5443 30.4204 61.476 29.7344 61.7891Z" fill="#E92438"/>
<path d="M30.4608 58.8089C29.7748 59.122 30.2623 60.1903 30.9484 59.8772C31.6344 59.5641 31.1468 58.4958 30.4608 58.8089Z" fill="#E92438"/>
<path d="M30.6621 55.6382C29.9761 55.9513 30.4636 57.0196 31.1497 56.7065C31.8357 56.3934 31.3481 55.3251 30.6621 55.6382Z" fill="#E92438"/>
<path d="M25.5531 65.0073C27.0338 64.3315 27.6844 62.5791 27.0062 61.0932C26.3281 59.6073 24.578 58.9505 23.0973 59.6263C21.6166 60.302 20.966 62.0544 21.6442 63.5404C22.3223 65.0263 24.0724 65.6831 25.5531 65.0073Z" fill="#E92438"/>
<path d="M24.9857 63.8893C25.8393 63.4998 26.2143 62.4895 25.8234 61.633C25.4325 60.7764 24.4236 60.3978 23.57 60.7873C22.7164 61.1769 22.3414 62.1871 22.7323 63.0437C23.1233 63.9003 24.1322 64.2789 24.9857 63.8893Z" fill="#EBF2FF"/>
<path d="M60.318 38.2598C61.864 37.5542 62.5432 35.7245 61.8352 34.173C61.1271 32.6215 59.2998 31.9358 57.7538 32.6414C56.2078 33.347 55.5285 35.1767 56.2366 36.7282C56.9446 38.2796 58.7719 38.9654 60.318 38.2598Z" fill="#E92438"/>
<path d="M59.6856 36.9996C60.5784 36.5922 60.9706 35.5356 60.5617 34.6396C60.1528 33.7437 59.0976 33.3477 58.2049 33.7552C57.3121 34.1626 56.9199 35.2192 57.3287 36.1151C57.7376 37.0111 58.7928 37.4071 59.6856 36.9996Z" fill="#EBF2FF"/>
<path d="M58.6461 34.9307C57.9285 35.2581 58.4377 36.3739 59.1553 36.0464C59.8729 35.7189 59.3637 34.6032 58.6461 34.9307Z" fill="#E92438"/>
<path d="M24.0303 61.8584C23.3442 62.1715 23.8318 63.2398 24.5178 62.9267C25.2038 62.6136 24.7163 61.5453 24.0303 61.8584Z" fill="#E92438"/>
<path d="M45.0324 57.9816C45.0324 57.9816 48.5651 70.9411 52.1165 67.8669C55.6643 64.7848 45.0324 57.9816 45.0324 57.9816Z" fill="#EBF2FF"/>
<path d="M52.7751 50.7092C52.7751 50.7092 58.0704 62.0612 60.903 58.8943C64.1593 55.2568 52.7751 50.7092 52.7751 50.7092Z" fill="#EBF2FF"/>
<path d="M58.92 63.2129C58.92 63.2129 67.166 74.5376 69.8947 70.4333C72.6357 66.3139 58.92 63.2129 58.92 63.2129Z" fill="#EBF2FF"/>
<path d="M73.3203 57.9602C73.3203 57.9602 82.0028 68.3208 85.2683 64.1819C88.5454 60.0473 73.3203 57.9602 73.3203 57.9602Z" fill="#EBF2FF"/>
<path d="M52.6118 59.5997C53.2912 59.2896 53.5897 58.4856 53.2785 57.8038C52.9674 57.122 52.1644 56.8207 51.485 57.1307C50.8056 57.4408 50.5071 58.2448 50.8183 58.9266C51.1294 59.6084 51.9324 59.9097 52.6118 59.5997Z" fill="#EBF2FF"/>
<path d="M66.8098 60.1668C67.4892 59.8567 67.7877 59.0527 67.4765 58.3709C67.1654 57.6891 66.3624 57.3878 65.683 57.6979C65.0036 58.0079 64.7051 58.812 65.0163 59.4937C65.3274 60.1755 66.1304 60.4769 66.8098 60.1668Z" fill="#EBF2FF"/>
<path d="M76.8998 69.7701C77.5792 69.46 77.8777 68.656 77.5665 67.9742C77.2554 67.2924 76.4524 66.9911 75.773 67.3011C75.0936 67.6112 74.7952 68.4152 75.1063 69.097C75.4175 69.7788 76.2204 70.0801 76.8998 69.7701Z" fill="#EBF2FF"/>
<path d="M92.3393 62.7237C93.0187 62.4136 93.3172 61.6096 93.0061 60.9278C92.6949 60.246 91.8919 59.9447 91.2125 60.2547C90.5332 60.5648 90.2347 61.3689 90.5458 62.0506C90.857 62.7324 91.66 63.0338 92.3393 62.7237Z" fill="#EBF2FF"/>
<path d="M57.5023 72.2359C58.1817 71.9258 58.4802 71.1218 58.169 70.44C57.8579 69.7582 57.0549 69.4569 56.3755 69.767C55.6961 70.077 55.3976 70.8811 55.7088 71.5628C56.0199 72.2446 56.8229 72.546 57.5023 72.2359Z" fill="#EBF2FF"/>
<path d="M104.285 104.639C105.792 103.952 106.454 102.168 105.764 100.656C105.074 99.1442 103.293 98.4758 101.786 99.1635C100.279 99.8512 99.6173 101.635 100.307 103.147C100.998 104.659 102.779 105.327 104.285 104.639Z" fill="#EBF2FF"/>
<path d="M113.492 100.763C114.999 100.075 115.661 98.2918 114.971 96.7796C114.281 95.2675 112.5 94.5991 110.993 95.2868C109.486 95.9745 108.824 97.7578 109.514 99.27C110.204 100.782 111.985 101.45 113.492 100.763Z" fill="#EBF2FF"/>
<path d="M119.272 91.2979C120.779 90.6102 121.441 88.8269 120.751 87.3148C120.061 85.8026 118.28 85.1343 116.773 85.822C115.266 86.5097 114.604 88.293 115.294 89.8051C115.984 91.3173 117.765 91.9856 119.272 91.2979Z" fill="#EBF2FF"/>
<path d="M122.955 80.1414C124.462 79.4537 125.124 77.6704 124.434 76.1583C123.744 74.6461 121.963 73.9778 120.456 74.6655C118.949 75.3532 118.287 77.1365 118.977 78.6486C119.668 80.1608 121.448 80.8291 122.955 80.1414Z" fill="#EBF2FF"/>
<path d="M92.4606 76.0162C90.2828 77.5073 98.7908 88.0909 98.7908 88.0909C98.7908 88.0909 96.2002 73.4585 92.4606 76.0162Z" fill="#EBF2FF"/>
<path d="M95.4905 68.7722C92.3604 71.0995 105.011 83.3687 105.011 83.3687C105.011 83.3687 98.9314 66.2074 95.4905 68.7722Z" fill="#EBF2FF"/>
<path d="M99.7612 63.9547C97.0027 65.9689 108.201 76.1852 108.201 76.1852C108.201 76.1852 103.387 61.315 99.7612 63.9547Z" fill="#EBF2FF"/>
<path d="M101.52 59.8536C99.8527 63.0907 112.827 67.8021 112.827 67.8021C112.827 67.8021 103.141 56.6848 101.52 59.8536Z" fill="#EBF2FF"/>
<path d="M102.604 99.995C102.588 100.002 102.572 100.009 102.565 100.013C102.412 100.054 102.248 99.9663 102.203 99.8052C102.179 99.7109 99.6512 90.519 98.5263 88.2213C97.4123 85.9473 96.8596 85.1956 96.8481 85.1913C96.7515 85.0632 96.7812 84.8776 96.9087 84.7812C97.0361 84.6847 97.2178 84.707 97.318 84.843C97.3403 84.871 97.9045 85.6271 99.051 87.9722C100.198 90.3174 102.659 99.2813 102.767 99.6626C102.805 99.7885 102.73 99.9375 102.604 99.995Z" fill="#EBF2FF"/>
<path d="M111.255 96.8215C111.247 96.8251 111.239 96.8287 111.231 96.8323C111.074 96.8848 110.914 96.805 110.853 96.651C110.836 96.5921 108.843 91.057 107.861 88.9046C106.882 86.7601 104.779 83.5704 104.756 83.5424L101.86 79.3665C101.771 79.2349 101.8 79.0492 101.932 78.9607C102.063 78.8722 102.248 78.9024 102.337 79.034L105.237 83.2178C105.329 83.3574 107.392 86.4794 108.389 88.6634C109.382 90.8396 111.378 96.402 111.395 96.461C111.457 96.5955 111.389 96.7603 111.255 96.8215Z" fill="#EBF2FF"/>
<path d="M117.41 87.95C117.292 88.004 117.146 87.9752 117.056 87.863C116.982 87.763 109.551 78.1605 107.977 76.383C106.374 74.5617 105.503 72.4445 105.464 72.3574C105.403 72.2035 105.478 72.0351 105.624 71.9783C105.777 71.9178 105.946 71.994 106.003 72.1401C106.014 72.1638 106.874 74.2572 108.413 76.0023C109.994 77.7956 117.21 87.114 117.515 87.5104C117.611 87.6384 117.59 87.8204 117.466 87.9248C117.45 87.932 117.434 87.9392 117.41 87.95Z" fill="#EBF2FF"/>
<path d="M121.102 76.7899C120.991 76.8403 120.856 76.8159 120.766 76.7231L112.641 68.0207L108.34 65.279C108.204 65.1884 108.159 65.0078 108.249 64.8711C108.34 64.7344 108.52 64.6904 108.656 64.7811L113.021 67.5602L113.043 67.5882L121.199 76.3151C121.312 76.4359 121.302 76.6222 121.189 76.7309C121.157 76.7647 121.125 76.7791 121.102 76.7899Z" fill="#EBF2FF"/>
<path d="M48.8532 63.5141C47.6069 64.2072 50.3215 67.6917 51.3266 67.0131C52.336 66.3229 49.9927 62.8794 48.8532 63.5141Z" fill="#E92438"/>
<path d="M57.6941 55.2243C56.4925 56.203 59.3581 58.7867 60.1431 57.9599C60.9318 57.141 58.7956 54.3392 57.6941 55.2243Z" fill="#E92438"/>
<path d="M63.9516 66.7014C63.5118 67.5332 67.2042 70.5714 67.8517 69.3389C68.4913 68.1099 64.7062 65.2861 63.9516 66.7014Z" fill="#E92438"/>
<path d="M78.5918 61.014C78.0898 62.1897 82.7964 64.7363 83.242 63.3952C83.6796 62.0576 79.2584 59.4476 78.5918 61.014Z" fill="#E92438"/>
<path d="M93.6665 77.5312C92.6808 78.2106 96.8534 83.7834 96.8534 83.7834C96.8534 83.7834 95.59 76.2135 93.6665 77.5312Z" fill="#E92438"/>
<path d="M96.6008 70.2448C94.7129 71.202 101.569 77.9981 101.569 77.9981C101.569 77.9981 98.7374 69.1645 96.6008 70.2448Z" fill="#E92438"/>
<path d="M101.006 65.7005C99.1819 66.7146 105.005 71.582 105.005 71.582C105.005 71.582 103.194 64.482 101.006 65.7005Z" fill="#E92438"/>
<path d="M102.79 60.4878C101.385 62.4198 108.326 64.6833 108.326 64.6833C108.326 64.6833 103.874 58.999 102.79 60.4878Z" fill="#E92438"/>
<path d="M103.7 103.358C104.401 103.038 104.7 102.187 104.367 101.457C104.034 100.727 103.195 100.395 102.494 100.715C101.793 101.035 101.495 101.886 101.828 102.615C102.161 103.345 102.999 103.678 103.7 103.358Z" fill="#E92438"/>
<path d="M112.828 99.3068C113.529 98.9868 113.827 98.1357 113.494 97.4059C113.161 96.676 112.322 96.3438 111.621 96.6638C110.92 96.9838 110.622 97.8348 110.955 98.5647C111.288 99.2945 112.126 99.6268 112.828 99.3068Z" fill="#E92438"/>
<path d="M122.291 78.6855C122.992 78.3655 123.29 77.5144 122.957 76.7845C122.624 76.0547 121.786 75.7224 121.085 76.0424C120.383 76.3624 120.085 77.2135 120.418 77.9433C120.751 78.6732 121.59 79.0055 122.291 78.6855Z" fill="#E92438"/>
<path d="M118.647 89.9291C119.348 89.6091 119.647 88.758 119.314 88.0282C118.98 87.2983 118.142 86.9661 117.441 87.2861C116.74 87.6061 116.441 88.4571 116.774 89.187C117.108 89.9168 117.946 90.2491 118.647 89.9291Z" fill="#E92438"/>
<path d="M45.1074 34.4929C46.0873 34.0457 46.5178 32.8861 46.069 31.9027C45.6202 30.9194 44.4621 30.4848 43.4822 30.932C42.5023 31.3792 42.0718 32.5389 42.5206 33.5222C42.9694 34.5055 44.1275 34.9401 45.1074 34.4929Z" fill="white"/>
<path d="M44.7101 33.6224C45.2371 33.3819 45.4783 32.7795 45.2489 32.2769C45.0196 31.7743 44.4064 31.5618 43.8795 31.8023C43.3525 32.0428 43.1113 32.6452 43.3407 33.1478C43.5701 33.6504 44.1832 33.8629 44.7101 33.6224Z" fill="#0A1723"/>
<path d="M38.2507 26.8178C38.7515 26.5892 38.9716 25.9965 38.7422 25.4939C38.5128 24.9913 37.9209 24.7692 37.4201 24.9978C36.9192 25.2263 36.6992 25.8191 36.9286 26.3216C37.1579 26.8242 37.7499 27.0464 38.2507 26.8178Z" fill="#E92438"/>
<path d="M41.357 24.9601C41.8578 24.7316 42.0778 24.1389 41.8485 23.6363C41.6191 23.1337 41.0271 22.9115 40.5263 23.1401C40.0255 23.3687 39.8055 23.9614 40.0348 24.464C40.2642 24.9666 40.8562 25.1887 41.357 24.9601Z" fill="#E92438"/>
<path d="M44.2962 25.1581C44.797 24.9296 45.0171 24.3369 44.7877 23.8343C44.5583 23.3317 43.9664 23.1095 43.4655 23.3381C42.9647 23.5667 42.7447 24.1594 42.974 24.662C43.2034 25.1646 43.7954 25.3867 44.2962 25.1581Z" fill="#E92438"/>
<path d="M42.7435 47.4759C42.0575 47.789 42.5451 48.8573 43.2311 48.5442C43.9171 48.2311 43.4295 47.1628 42.7435 47.4759Z" fill="#0A1723"/>
<path d="M47.2646 44.6475C46.5786 44.9606 47.0662 46.0289 47.7522 45.7158C48.4382 45.4027 47.9586 44.3308 47.2646 44.6475Z" fill="#0A1723"/>
<path d="M43.6855 43.2979C42.9995 43.611 43.487 44.6793 44.173 44.3662C44.8627 44.061 44.3715 42.9848 43.6855 43.2979Z" fill="#0A1723"/>
<path d="M49.9274 64.9075C49.2413 65.2206 49.7289 66.2889 50.4149 65.9758C51.1009 65.6627 50.6134 64.5944 49.9274 64.9075Z" fill="#0A1723"/>
<path d="M58.7258 56.0445C58.0397 56.3576 58.5273 57.4259 59.2133 57.1128C59.8993 56.7997 59.4118 55.7314 58.7258 56.0445Z" fill="#0A1723"/>
<path d="M66.0289 67.4744C65.3428 67.7875 65.8304 68.8558 66.5164 68.5427C67.2024 68.2296 66.7149 67.1613 66.0289 67.4744Z" fill="#0A1723"/>
<path d="M81.06 61.9339C80.374 62.247 80.8615 63.3153 81.5475 63.0022C82.2336 62.6891 81.746 61.6208 81.06 61.9339Z" fill="#0A1723"/>
<path d="M97.6353 71.5511C96.9493 71.8642 97.4368 72.9325 98.1228 72.6194C98.8089 72.3063 98.3213 71.238 97.6353 71.5511Z" fill="#0A1723"/>
<path d="M94.4481 78.5132C93.7621 78.8263 94.2496 79.8946 94.9357 79.5815C95.6217 79.2684 95.1341 78.2001 94.4481 78.5132Z" fill="#0A1723"/>
<path d="M102.004 66.6983C101.318 67.0114 101.806 68.0797 102.492 67.7666C103.178 67.4535 102.69 66.3852 102.004 66.6983Z" fill="#0A1723"/>
<path d="M103.682 60.7503C102.996 61.0634 103.483 62.1317 104.169 61.8186C104.855 61.5055 104.368 60.4372 103.682 60.7503Z" fill="#0A1723"/>
<path d="M121.515 76.7351C120.829 77.0482 121.317 78.1165 122.003 77.8034C122.689 77.4903 122.201 76.4221 121.515 76.7351Z" fill="#0A1723"/>
<path d="M117.863 87.9822C117.177 88.2953 117.665 89.3636 118.351 89.0505C119.041 88.7453 118.55 87.6691 117.863 87.9822Z" fill="#0A1723"/>
<path d="M112.001 97.4947C111.315 97.8078 111.802 98.8761 112.488 98.563C113.174 98.2499 112.687 97.1816 112.001 97.4947Z" fill="#0A1723"/>
<path d="M102.834 101.459C102.147 101.772 102.635 102.84 103.321 102.527C104.007 102.214 103.52 101.145 102.834 101.459Z" fill="#0A1723"/>
<path d="M55.5562 61.1243C54.8702 61.4374 55.3577 62.5057 56.0438 62.1926C56.7298 61.8795 56.2422 60.8112 55.5562 61.1243Z" fill="#0A1723"/>
<path d="M63.1085 73.1004C62.4225 73.4135 62.91 74.4818 63.5961 74.1687C64.2821 73.8556 63.7945 72.7873 63.1085 73.1004Z" fill="#0A1723"/>
<path d="M72.2745 71.7854C71.5884 72.0985 72.076 73.1668 72.762 72.8537C73.4481 72.5406 72.9605 71.4723 72.2745 71.7854Z" fill="#0A1723"/>
<path d="M71.6766 63.0227C70.9906 63.3358 71.4782 64.4041 72.1642 64.091C72.8502 63.7779 72.3627 62.7097 71.6766 63.0227Z" fill="#0A1723"/>
<path d="M77.0047 54.9688C76.3187 55.2819 76.8062 56.3502 77.4923 56.0371C78.1819 55.7319 77.6907 54.6557 77.0047 54.9688Z" fill="#0A1723"/>
<path d="M82.52 68.9742C81.834 69.2873 82.3215 70.3556 83.0076 70.0425C83.6972 69.7373 83.206 68.6611 82.52 68.9742Z" fill="#0A1723"/>
<path d="M43.5403 54.274C42.8543 54.5871 43.3418 55.6554 44.0278 55.3423C44.7139 55.0292 44.2263 53.9609 43.5403 54.274Z" fill="#0A1723"/>
<path d="M50.5415 70.5745C49.8555 70.8876 50.343 71.9559 51.0291 71.6428C51.7151 71.3297 51.2275 70.2614 50.5415 70.5745Z" fill="#0A1723"/>
<path d="M84.2656 57.1624C83.5796 57.4755 84.0671 58.5438 84.7532 58.2307C85.4428 57.9255 84.9516 56.8493 84.2656 57.1624Z" fill="#0A1723"/>
<path d="M55.0087 48.3799C54.3227 48.693 54.8103 49.7613 55.4963 49.4482C56.1823 49.1351 55.6947 48.0668 55.0087 48.3799Z" fill="#0A1723"/>
<path d="M43.7625 62.2137C43.0765 62.5268 43.564 63.5951 44.2501 63.282C44.9361 62.9689 44.4485 61.9006 43.7625 62.2137Z" fill="#0A1723"/>
<path d="M89.4477 66.3667C88.7617 66.6798 89.2493 67.7481 89.9353 67.435C90.6213 67.1219 90.1338 66.0536 89.4477 66.3667Z" fill="#0A1723"/>
<path d="M62.933 61.1712C62.247 61.4843 62.7346 62.5526 63.4206 62.2395C64.1102 61.9343 63.6191 60.8581 62.933 61.1712Z" fill="#0A1723"/>
<path d="M57.9138 66.7701C57.2277 67.0832 57.7153 68.1514 58.4013 67.8384C59.0873 67.5253 58.5998 66.457 57.9138 66.7701Z" fill="#0A1723"/>
<path d="M50.2747 54.8338C49.5887 55.1469 50.0762 56.2152 50.7623 55.9021C51.4483 55.589 50.9607 54.5207 50.2747 54.8338Z" fill="#0A1723"/>
<path d="M69.1834 56.1194C68.4974 56.4325 68.9849 57.5008 69.671 57.1877C70.357 56.8746 69.8773 55.8027 69.1834 56.1194Z" fill="#0A1723"/>
<path d="M22.1128 71.5398C21.4268 71.8529 21.9143 72.9212 22.6003 72.6081C23.29 72.3029 22.7988 71.2267 22.1128 71.5398Z" fill="#0A1723"/>
<path d="M26.1937 69.8973C25.5077 70.2104 25.9953 71.2786 26.6813 70.9656C27.3709 70.6604 26.8797 69.5842 26.1937 69.8973Z" fill="#0A1723"/>
<path d="M29.1094 67.1419C28.4233 67.455 28.9109 68.5233 29.5969 68.2102C30.283 67.8971 29.7954 66.8288 29.1094 67.1419Z" fill="#0A1723"/>
<path d="M31.1335 64.1241C30.4475 64.4372 30.9351 65.5055 31.6211 65.1924C32.3071 64.8793 31.8196 63.811 31.1335 64.1241Z" fill="#0A1723"/>
<path d="M32.3058 61.1604C31.6198 61.4735 32.1073 62.5418 32.7933 62.2287C33.483 61.9236 32.9918 60.8473 32.3058 61.1604Z" fill="#0A1723"/>
<path d="M32.9095 57.9114C32.2235 58.2245 32.711 59.2928 33.397 58.9797C34.0831 58.6666 33.5955 57.5983 32.9095 57.9114Z" fill="#0A1723"/>
<path d="M33.4864 55.334C32.8004 55.6471 33.288 56.7154 33.974 56.4023C34.6636 56.0971 34.1725 55.0209 33.4864 55.334Z" fill="#0A1723"/>
<path d="M19.2732 72.2908C18.5872 72.6039 19.0747 73.6722 19.7607 73.3591C20.4468 73.046 19.9592 71.9777 19.2732 72.2908Z" fill="#0A1723"/>
<path d="M56.7136 43.9111C55.996 44.2386 56.5052 45.3544 57.2228 45.0269C57.9404 44.6994 57.4312 43.5836 56.7136 43.9111Z" fill="#0A1723"/>
<path d="M61.2029 42.2449C60.4853 42.5724 60.9946 43.6881 61.7121 43.3606C62.4333 43.0411 61.9205 41.9174 61.2029 42.2449Z" fill="#0A1723"/>
<path d="M65.6687 38.8777C64.9511 39.2052 65.4603 40.3209 66.1779 39.9934C66.8991 39.6739 66.3862 38.5502 65.6687 38.8777Z" fill="#0A1723"/>
<path d="M68.1453 35.4526C67.4277 35.7801 67.937 36.8959 68.6545 36.5684C69.3721 36.2409 68.8629 35.1251 68.1453 35.4526Z" fill="#0A1723"/>
<path d="M69.9987 30.9541C69.2811 31.2816 69.7903 32.3974 70.5079 32.0699C71.2255 31.7424 70.7163 30.6266 69.9987 30.9541Z" fill="#0A1723"/>
</g>
<defs>
<clipPath id="clip0_10604_16931">
<rect width="100" height="104.808" fill="white" transform="translate(0.255859 41.5193) rotate(-24.5315)"/>
</clipPath>
</defs>
</svg>
