<svg width="213" height="302" viewBox="0 0 213 302" fill="none" xmlns="http://www.w3.org/2000/svg">
<g clip-path="url(#clip0_10604_14231)">
<path d="M151.485 281.523C151.647 281.098 151.083 280.787 150.778 281.206C146.393 289.809 140.45 297.772 132.308 303.197C124.908 308.076 116.159 310.74 107.349 311.386C89.1489 312.798 71.7224 305.89 57.48 295.081C41.8356 283.351 29.9502 267.744 20.2743 250.931C11.1319 235.149 2.34204 217.797 -13.966 208.2C-29.7108 198.913 -48.6733 197.846 -66.4543 199.562C-54.1669 184.373 -36.6063 174.008 -17.569 169.751C-7.97546 167.553 1.98429 166.955 11.7353 167.932C22.4866 169.094 32.7121 172.538 42.4532 177.258C52.7515 182.433 62.4276 188.734 72.277 194.322C81.9886 199.761 92.0172 204.493 102.698 207.38C123.921 213.004 147.331 210.942 165.429 198.008C181.606 186.29 191.081 165.945 186.71 146.183C186.236 143.716 185.468 141.38 184.55 139.183C184.424 138.746 183.694 139.004 183.82 139.441C191.796 159.063 184.089 181.928 168.141 195.095C150.104 210.049 125.232 212.626 103.147 206.966C92.3165 204.217 82.2879 199.485 72.5822 193.903C62.7329 188.315 53.2005 182.019 43.04 176.994C33.8679 172.441 24.2174 169.021 14.0529 167.595C4.88871 166.354 -4.62797 166.683 -13.7666 168.323C-32.3373 171.735 -49.9884 180.801 -63.0792 194.518C-64.432 195.902 -65.641 197.292 -66.856 198.826C-63.1401 181.988 -58.9575 164.306 -47.8792 150.506C-41.6547 142.699 -33.4829 136.555 -25.1909 130.993C-17.0486 125.568 -8.78025 120.58 0.819158 118.239C18.8562 113.797 37.4425 117.009 55.7454 116.609C72.6048 116.295 90.8939 112.727 102.11 99.0771C112.56 86.5478 115.467 68.3809 109.026 53.4294C108.9 52.9923 108.17 53.2502 108.296 53.6874C114.484 67.7646 112.05 84.943 102.762 97.2321C91.4985 112.032 72.1972 115.702 54.4812 115.838C36.7593 116.117 18.7361 113.216 1.28583 117.395C-7.87644 119.61 -15.9774 124.028 -23.8204 129.177C-31.6634 134.326 -39.3804 139.913 -45.7131 146.852C-58.983 161.425 -63.5359 181.108 -67.7598 199.797C-67.7657 199.94 -67.7657 199.941 -67.7716 200.084C-67.7775 200.228 -67.6338 200.234 -67.6338 200.234C-67.4901 200.24 -67.49 200.24 -67.3463 200.246C-50.4277 198.493 -32.4597 199.232 -17.0929 207.207C0.670283 216.433 10.0056 234.527 19.5437 251.189C37.1511 281.719 66.7857 313.894 105.014 312.154C114.393 311.676 123.711 309.179 131.686 304.323C140.547 298.928 146.789 290.689 151.485 281.523Z" fill="#B1C0D9"/>
<path d="M-40.6886 199.758C-34.8285 193.807 -27.7219 189.06 -20.4952 184.893C-12.8314 180.601 -3.48406 177.385 4.56756 181.172C5.55604 181.644 6.53861 182.261 7.22779 183.009C8.4624 184.5 8.52342 186.518 8.15911 188.375C7.28085 192.226 3.98847 195.259 0.323951 196.836C-3.34057 198.413 -7.38905 198.823 -11.2879 199.094C-21.1098 199.843 -30.9139 200.159 -40.6886 199.758Z" fill="#B1C0D9"/>
<path d="M-40.1077 199.638C-32.4675 195.92 -24.9652 192.053 -17.1931 188.629C-9.86405 185.474 -2.12151 182.769 5.96364 182.237C6.10739 182.243 6.1192 181.956 5.97546 181.95C-1.8222 182.493 -9.40919 184.917 -16.5945 188.077C-24.6541 191.49 -32.4498 195.489 -40.2396 199.344C-40.2455 199.488 -40.2574 199.775 -40.1077 199.638Z" fill="white"/>
<path d="M-39.9639 199.643C-27.214 197.72 -14.7338 195.353 -2.59614 190.812C1.05656 189.523 4.57735 187.94 8.09221 186.5C8.23596 186.506 8.10402 186.213 7.95437 186.351C-0.254868 189.901 -8.59012 193.014 -17.1715 195.109C-24.7349 196.958 -32.4183 198.226 -40.1018 199.494C-40.1018 199.494 -40.1077 199.638 -39.9639 199.643Z" fill="white"/>
<path d="M3.07051 224.594C10.9568 221.895 19.4968 220.806 27.8636 220.43C36.6615 220.072 46.5385 221.486 51.8728 228.329C52.556 229.221 53.0956 230.107 53.3358 231.268C53.6902 233.155 52.8946 234.994 51.6797 236.528C49.106 239.59 44.8843 240.712 40.8594 240.547C36.8346 240.381 33.1504 238.934 29.4721 237.343C20.5639 233.377 11.6617 229.267 3.07051 224.594Z" fill="#B1C0D9"/>
<path d="M3.50177 224.612C9.19644 222.686 15.2751 221.928 21.336 221.602C27.6844 221.287 34.6983 222.295 38.6719 227.21C39.2233 227.808 39.6249 228.545 39.7391 229.27C39.9735 230.575 39.4831 231.995 38.5793 232.966C36.7598 235.195 33.6998 236.077 30.8308 235.815C27.9559 235.697 25.2662 234.578 22.5764 233.46C16.0528 231.032 9.55279 228.029 3.50177 224.612Z" fill="#627692"/>
<path d="M3.63961 224.762C12.1324 224.823 20.6251 224.884 29.106 225.233C37.1498 225.707 45.164 226.901 52.6702 229.945C52.814 229.951 52.9636 229.813 52.8199 229.807C45.6012 226.775 37.7307 225.587 29.8307 225.119C21.0681 224.614 12.4258 224.691 3.64552 224.618C3.50177 224.612 3.49586 224.756 3.63961 224.762Z" fill="white"/>
<path d="M3.78333 224.768C16.0035 228.726 28.2415 232.253 41.1371 233.791C45.0064 234.238 48.8816 234.541 52.619 234.695C52.7627 234.701 52.7745 234.413 52.6308 234.407C43.7245 233.897 34.9798 232.962 26.2763 231.02C18.717 229.269 11.1812 226.944 3.78924 224.624C3.6514 224.474 3.63959 224.762 3.78333 224.768Z" fill="white"/>
<path d="M-24.5746 130.01C-16.8143 126.874 -8.39436 125.204 -0.147741 124.247C8.53011 123.308 18.4367 124.003 24.3577 130.582C25.0469 131.33 25.7242 132.366 26.1141 133.39C26.6182 135.138 25.9605 137.127 24.8892 138.667C22.4534 141.879 18.3636 143.294 14.3269 143.416C10.2961 143.395 6.45642 142.229 2.76633 140.925C-6.60262 137.66 -15.816 134.114 -24.5746 130.01Z" fill="#B1C0D9"/>
<path d="M-24.2871 130.022C-18.7243 127.803 -12.628 126.614 -6.69308 125.85C-0.470701 125.098 6.7047 125.681 10.9776 130.32C11.5289 130.918 11.9365 131.511 12.1886 132.385C12.5666 133.697 12.0763 135.117 11.3103 136.237C9.63456 138.472 6.56276 139.642 3.8257 139.673C0.944904 139.699 -1.7567 138.868 -4.45239 137.893C-11.2694 135.597 -17.9309 133.019 -24.2871 130.022Z" fill="#627692"/>
<path d="M-24.0055 130.178C-15.495 129.808 -7.11647 129.144 1.38218 129.061C9.4496 128.961 17.6312 129.585 25.2989 132.204C25.4426 132.21 25.5923 132.072 25.4485 132.067C17.9246 129.453 10.0305 128.841 2.25645 128.809C-6.52969 128.88 -15.1957 129.532 -23.8499 129.896C-24.2812 129.878 -24.1492 130.172 -24.0055 130.178Z" fill="white"/>
<path d="M-23.8617 130.184C-11.4682 133.429 1.09264 136.105 14.0296 136.637C17.9108 136.796 21.7978 136.812 25.541 136.822C25.6848 136.828 25.6966 136.541 25.5528 136.535C16.623 136.599 7.85454 136.239 -1.01626 134.866C-8.74301 133.685 -16.2965 131.791 -23.8499 129.896C-23.9937 129.89 -24.0055 130.178 -23.8617 130.184Z" fill="white"/>
<path d="M3.55955 167.164C11.6821 169.225 19.4521 172.856 26.6236 177.039C34.2203 181.383 41.7284 187.883 42.6676 196.561C42.7641 197.717 42.7227 198.723 42.3879 199.861C41.742 201.562 39.9639 202.785 38.2154 203.289C34.4248 204.429 30.1538 203.246 26.9364 200.954C23.7189 198.662 21.2615 195.393 19.0915 192.136C13.5171 184.132 8.09823 175.845 3.55955 167.164Z" fill="#B1C0D9"/>
<path d="M3.83524 167.463C9.68149 168.855 15.1871 171.529 20.3933 174.479C25.8812 177.584 31.304 182.271 31.9065 188.631C32.0207 189.356 31.9853 190.218 31.6682 190.925C31.1838 192.201 29.9984 193.016 28.687 193.394C25.9145 194.288 22.9313 193.302 20.5526 191.62C18.174 189.938 16.5436 187.568 14.9132 185.197C10.9632 179.707 7.03693 173.642 3.83524 167.463Z" fill="#627692"/>
<path d="M3.82342 167.75C10.8334 172.358 18.1308 176.978 24.9852 181.867C31.558 186.601 37.676 191.892 42.2974 198.561C42.4352 198.711 42.5849 198.573 42.447 198.424C37.9634 191.904 31.9833 186.762 25.6921 182.184C18.7058 177.001 11.2646 172.376 3.97305 167.613C3.83522 167.463 3.68558 167.601 3.82342 167.75Z" fill="white"/>
<path d="M3.96715 167.756C12.1959 177.742 20.5862 187.302 30.6226 195.346C33.6904 197.776 36.7642 200.062 39.8379 202.348C39.9757 202.498 40.1313 202.216 39.9876 202.21C32.7138 197.016 25.8889 191.407 19.6686 185.104C14.1374 179.549 9.19898 173.587 4.26054 167.624C3.97896 167.469 3.82932 167.607 3.96715 167.756Z" fill="white"/>
<path d="M3.358 224.606C8.11724 231.425 11.3918 239.335 14.0913 247.222C16.9169 255.545 18.24 265.391 13.0513 272.521C12.4409 273.359 11.6867 274.192 10.6569 274.726C9.03431 275.667 6.88998 275.291 5.19459 274.501C1.51632 272.91 -0.773699 269.073 -1.62628 265.294C-2.47294 261.371 -2.16376 257.352 -1.71673 253.483C-0.452444 243.744 1.09932 234.017 3.358 224.606Z" fill="#B1C0D9"/>
<path d="M3.34617 224.894C6.74478 229.785 9.24548 235.503 11.0275 241.192C13.0851 247.18 13.9455 254.271 10.277 259.448C9.81622 260.149 9.21762 260.7 8.62492 261.108C7.44542 261.779 5.87012 261.57 4.7438 260.948C2.19776 259.836 0.441365 257.028 -0.165085 254.267C-0.771536 251.506 -0.509615 248.637 -0.247689 245.768C0.616831 238.748 1.62509 231.734 3.34617 224.894Z" fill="#627692"/>
<path d="M3.19062 225.175C5.44711 233.331 7.84735 241.493 9.6667 249.776C11.5038 257.626 12.4666 265.729 11.5607 273.755C11.5548 273.899 11.6985 273.905 11.8482 273.767C12.7482 265.885 11.7735 258.069 10.0743 250.368C8.26677 241.799 5.72869 233.487 3.48401 225.043C3.34618 224.894 3.19653 225.032 3.19062 225.175Z" fill="white"/>
<path d="M3.18473 225.319C2.65882 238.112 2.70789 250.929 4.7753 263.685C5.34039 267.452 6.19296 271.231 7.04553 275.01C7.03962 275.153 7.33303 275.021 7.19519 274.872C5.24982 266.153 3.7357 257.451 3.38333 248.509C2.9837 240.718 3.15903 232.949 3.47812 225.187C3.48403 225.044 3.19064 225.175 3.18473 225.319Z" fill="white"/>
<path d="M34.7468 116.034C41.6643 115.887 48.6664 117.182 55.2196 118.892C62.1981 120.762 69.6865 124.238 72.2896 130.968C72.5416 131.843 72.7937 132.717 72.7582 133.579C72.5495 135.155 71.4901 136.407 70.1609 137.216C67.353 138.973 63.7594 138.825 60.6383 137.689C57.5173 136.553 55.0127 134.434 52.508 132.315C46.3782 127.311 40.2662 121.877 34.7468 116.034Z" fill="#B1C0D9"/>
<path d="M35.0284 116.19C39.9276 116.103 45.0728 117.035 49.775 118.236C54.7588 119.593 60.1266 122.117 62.0877 126.949C62.3516 127.536 62.4658 128.261 62.4421 128.836C62.3949 129.986 61.491 130.956 60.6049 131.496C58.6831 132.713 55.946 132.744 53.8194 131.937C51.549 131.124 49.7394 129.609 47.9299 128.095C43.334 124.307 39.0316 120.386 35.0284 116.19Z" fill="#627692"/>
<path d="M35.0225 116.334C41.7017 118.48 48.3868 120.483 54.9045 123.054C61.1465 125.327 67.2153 128.312 72.3684 132.555C72.5121 132.561 72.6559 132.567 72.518 132.418C67.5087 128.18 61.5778 125.344 55.6232 123.084C48.9618 120.506 41.9892 118.492 35.1722 116.196C35.0343 116.046 35.0225 116.334 35.0225 116.334Z" fill="white"/>
<path d="M35.1663 116.339C43.8421 122.456 52.6734 128.29 62.4323 132.579C65.4036 133.853 68.3809 134.983 71.3582 136.114C71.5019 136.12 71.5078 135.976 71.3641 135.97C64.5589 133.386 57.7655 130.515 51.4388 126.8C45.8131 123.545 40.6364 119.876 35.3159 116.202C35.1722 116.196 35.0225 116.334 35.1663 116.339Z" fill="white"/>
<path d="M55.4118 184.27C61.6302 187.117 67.5079 191.247 72.7988 195.64C78.3654 200.332 83.5736 206.738 82.9907 213.913C82.9552 214.776 82.7701 215.776 82.3094 216.477C81.5374 217.741 79.9208 218.539 78.4715 218.767C75.1418 219.206 71.9007 217.489 69.6894 215.238C67.3403 212.838 65.8773 209.898 64.558 206.964C61.122 199.479 57.9735 192.007 55.4118 184.27Z" fill="#B1C0D9"/>
<path d="M55.5437 184.563C60.0667 186.621 64.2668 189.529 68.0238 192.708C72.0624 196.041 75.7603 200.657 75.4038 205.826C75.3743 206.545 75.2069 207.114 74.8958 207.677C74.2794 208.659 73.2496 209.193 72.0937 209.289C69.7761 209.626 67.3797 208.376 65.7198 206.724C64.0598 205.072 62.9985 202.868 62.0809 200.671C59.7003 195.533 57.3316 190.108 55.5437 184.563Z" fill="#627692"/>
<path d="M55.6815 184.713C60.811 189.531 65.9464 194.206 70.7765 199.3C75.331 204.095 79.5803 209.309 82.5004 215.333C82.4945 215.477 82.7878 215.345 82.6441 215.339C79.8618 209.465 75.9001 204.262 71.3397 199.611C66.3658 194.511 60.9547 189.537 55.6815 184.713C55.5378 184.707 55.6874 184.569 55.6815 184.713Z" fill="white"/>
<path d="M55.6756 184.857C60.9094 194.143 66.2987 203.148 73.3106 211.211C75.3722 213.6 77.5776 215.994 79.7889 218.245C79.9267 218.395 79.9326 218.251 79.9385 218.107C74.8268 212.858 70.0144 207.332 65.9443 201.261C62.2759 195.927 59.0506 190.323 55.969 184.725C55.8312 184.575 55.6815 184.713 55.6756 184.857Z" fill="white"/>
<path d="M32.0178 269.989C36.7042 275.077 40.343 281.13 43.401 287.303C46.5908 293.77 48.8591 301.638 45.4249 308.121C44.9583 308.965 44.4975 309.666 43.7551 310.212C42.5638 311.171 40.8389 311.1 39.2695 310.747C36.1426 309.755 33.8053 307.067 32.6357 303.995C31.4661 300.923 31.3145 297.605 31.3066 294.293C31.2063 286.226 31.2556 278.021 32.0178 269.989Z" fill="#B1C0D9"/>
<path d="M32.1438 270.426C35.4459 274.161 38.1495 278.448 40.2721 282.855C42.5267 287.555 44.1649 293.238 41.8196 297.749C41.5085 298.312 41.1974 298.876 40.6047 299.283C39.7127 299.966 38.419 299.913 37.4246 299.584C35.1483 298.915 33.5061 296.832 32.5885 294.634C31.6709 292.436 31.6277 289.987 31.5785 287.681C31.5214 282.063 31.6199 276.164 32.1438 270.426Z" fill="#627692"/>
<path d="M32.1379 270.57C34.8965 277.018 37.7989 283.473 40.27 289.91C42.6034 296.198 44.3558 302.605 44.5152 309.235C44.5093 309.379 44.653 309.385 44.6589 309.241C44.4936 302.755 42.7353 296.491 40.5398 290.353C38.0805 283.629 35.0403 277.024 32.2875 270.432C32.1497 270.282 32 270.42 32.1379 270.57Z" fill="white"/>
<path d="M32.1379 270.57C33.144 281.122 34.5872 291.548 37.7672 301.758C38.6493 304.818 39.8248 307.746 40.8507 310.812C40.8448 310.956 40.9944 310.818 41.0003 310.674C38.4032 303.8 36.2432 296.8 34.8137 289.542C33.6362 283.158 32.89 276.792 32.1438 270.426C32.2875 270.432 32.1379 270.57 32.1379 270.57Z" fill="white"/>
<path d="M91.8254 107.582C96.5611 104.465 101.986 102.096 107.244 100.296C112.938 98.3704 119.598 97.4922 124.493 101.005C125.05 101.46 125.607 101.915 126.009 102.651C126.537 103.825 126.478 105.262 125.855 106.389C124.749 108.791 122.09 110.41 119.474 111.022C116.857 111.634 114.131 111.378 111.412 110.979C104.823 110.132 98.2407 109.141 91.8254 107.582Z" fill="#B1C0D9"/>
<path d="M92.1128 107.593C95.5194 105.286 99.3277 103.714 103.268 102.436C107.358 101.021 112.131 100.497 115.63 102.945C116.049 103.25 116.463 103.699 116.733 104.142C117.128 105.022 117.087 106.028 116.62 106.873C115.825 108.712 113.909 109.785 112.022 110.14C110.136 110.494 108.124 110.411 106.261 110.191C101.541 109.421 96.6772 108.645 92.1128 107.593Z" fill="#627692"/>
<path d="M92.1128 107.593C97.6461 106.093 103.323 104.599 108.85 103.242C114.228 102.023 119.726 101.385 125.17 102.041C125.314 102.047 125.32 101.903 125.176 101.897C119.875 101.247 114.521 101.891 109.293 102.972C103.622 104.323 97.9394 105.961 92.1128 107.593Z" fill="white"/>
<path d="M92.2566 107.599C101.025 107.96 109.662 108.027 118.357 106.656C120.968 106.188 123.579 105.719 126.046 105.245C126.19 105.251 126.052 105.101 126.052 105.101C120.094 106.44 114.153 107.347 108.092 107.674C102.756 107.887 97.4314 107.812 92.1129 107.593C92.1188 107.45 92.1129 107.593 92.2566 107.599Z" fill="white"/>
<path d="M104.411 207.738C110.011 208.112 115.713 209.499 121.105 211.448C126.784 213.41 132.547 216.814 134.329 222.503C134.587 223.234 134.701 223.958 134.528 224.671C134.331 225.959 133.283 226.924 132.104 227.595C129.751 228.794 126.738 228.526 124.336 227.42C121.934 226.313 119.854 224.356 117.913 222.548C113.214 217.747 108.522 212.803 104.411 207.738Z" fill="#B1C0D9"/>
<path d="M104.549 207.888C108.567 208.197 112.701 209.231 116.534 210.541C120.65 212.006 124.874 214.339 125.996 218.561C126.116 219.142 126.242 219.579 126.218 220.154C126.039 221.01 125.285 221.843 124.549 222.245C122.782 223.18 120.632 222.948 118.937 222.158C117.241 221.369 115.713 220.01 114.329 218.657C110.877 215.06 107.563 211.612 104.549 207.888Z" fill="#627692"/>
<path d="M104.692 207.894C110.072 210.131 115.457 212.224 120.681 214.743C125.624 217.106 130.405 219.894 134.426 223.659C134.426 223.659 134.569 223.665 134.575 223.521C130.698 219.762 126.061 216.98 121.256 214.766C115.889 212.242 110.365 209.999 104.842 207.756C104.698 207.75 104.549 207.888 104.692 207.894Z" fill="white"/>
<path d="M104.686 208.038C111.367 213.64 118.204 218.96 125.951 223.167C128.203 224.411 130.605 225.518 133.002 226.768C133.146 226.774 133.151 226.63 133.008 226.624C127.496 224.094 122.146 221.138 117.245 217.769C113.051 214.717 108.875 211.234 104.686 208.038C104.692 207.894 104.698 207.75 104.686 208.038Z" fill="white"/>
<path d="M148.221 206.803C153.233 203.986 158.634 202.192 164.161 200.835C169.982 199.347 176.762 199.049 181.208 202.976C181.765 203.431 182.316 204.029 182.574 204.76C183.102 205.934 182.755 207.359 182.133 208.485C180.883 210.882 178.093 212.207 175.487 212.532C172.739 212.851 170.019 212.451 167.45 211.914C161.034 210.354 154.475 208.788 148.221 206.803Z" fill="#B1C0D9"/>
<path d="M148.509 206.815C152.047 204.801 155.993 203.379 160.06 202.538C164.275 201.56 169.186 201.186 172.38 204.053C172.8 204.358 173.213 204.807 173.339 205.244C173.735 206.124 173.55 207.125 173.083 207.969C172.15 209.659 170.234 210.732 168.21 210.937C166.329 211.147 164.323 210.921 162.472 210.413C157.764 209.355 153.055 208.298 148.509 206.815Z" fill="#627692"/>
<path d="M148.653 206.821C154.312 205.758 159.971 204.695 165.768 203.781C171.272 202.999 176.752 202.793 182.179 203.88C182.322 203.886 182.328 203.742 182.184 203.736C176.901 202.655 171.565 202.867 166.205 203.655C160.27 204.419 154.461 205.62 148.658 206.677C148.515 206.671 148.509 206.815 148.653 206.821Z" fill="white"/>
<path d="M148.653 206.821C157.391 207.9 166.004 208.542 174.814 207.897C177.413 207.716 180.018 207.391 182.624 207.066C182.767 207.072 182.629 206.922 182.629 206.922C176.695 207.686 170.622 208.3 164.585 208.052C159.266 207.833 153.959 207.327 148.658 206.677C148.515 206.672 148.509 206.815 148.653 206.821Z" fill="white"/>
<path d="M111.143 79.0023C112.033 74.8632 113.779 70.9034 115.802 67.2428C117.98 63.3007 121.158 59.5437 125.5 59.0022C126.08 58.8821 126.655 58.9058 127.081 59.0672C127.931 59.3902 128.615 60.2822 128.867 61.1565C129.509 63.0547 128.845 65.1872 127.768 66.8708C126.691 68.5544 125.056 69.7831 123.428 70.868C119.567 73.733 115.418 76.5862 111.143 79.0023Z" fill="#B1C0D9"/>
<path d="M111.292 78.8644C111.991 75.8694 113.259 73.0418 114.665 70.3638C116.221 67.548 118.495 64.7618 121.676 64.4605C122.107 64.4783 122.544 64.3522 122.825 64.5078C123.538 64.6811 123.94 65.4175 124.06 65.9984C124.582 67.3158 124.086 68.8792 123.314 70.1434C122.548 71.2638 121.356 72.2227 120.171 73.0379C117.351 75.0818 114.388 77.1198 111.292 78.8644Z" fill="#627692"/>
<path d="M111.436 78.8703C113.746 75.2216 115.912 71.567 118.36 68.0679C120.658 64.7067 123.237 61.501 126.5 59.1873L126.506 59.0436C123.243 61.3572 120.813 64.4251 118.521 67.6426C115.924 71.2795 113.608 75.0719 111.436 78.8703Z" fill="white"/>
<path d="M111.442 78.7266C116.369 74.4655 121.008 70.1926 125.108 65.0336C126.323 63.4997 127.394 61.9599 128.471 60.2763C128.471 60.2763 128.477 60.1325 128.327 60.2704C125.73 63.9073 122.989 67.5383 119.978 70.7262C117.273 73.4948 114.429 76.1136 111.442 78.7266C111.298 78.7207 111.436 78.8703 111.442 78.7266Z" fill="white"/>
<path d="M184.461 172.872C185.351 168.733 187.098 164.773 189.12 161.113C191.298 157.171 194.476 153.414 198.818 152.872C199.399 152.752 199.974 152.776 200.399 152.937C201.25 153.26 201.933 154.152 202.185 155.026C202.827 156.925 202.164 159.057 201.086 160.741C200.009 162.424 198.375 163.653 196.746 164.738C192.741 167.597 188.736 170.456 184.461 172.872Z" fill="#B1C0D9"/>
<path d="M184.611 172.734C185.31 169.739 186.578 166.912 187.984 164.234C189.54 161.418 191.814 158.632 194.994 158.331C195.425 158.348 195.862 158.222 196.144 158.378C196.857 158.551 197.258 159.288 197.379 159.868C197.9 161.186 197.404 162.749 196.632 164.013C195.866 165.134 194.675 166.093 193.49 166.908C190.526 168.946 187.562 170.984 184.611 172.734Z" fill="#627692"/>
<path d="M184.617 172.591C186.926 168.942 189.093 165.287 191.54 161.788C193.838 158.427 196.418 155.221 199.681 152.908L199.686 152.764C196.424 155.078 193.994 158.146 191.702 161.363C189.098 165.144 186.932 168.798 184.617 172.591C184.473 172.585 184.611 172.735 184.617 172.591Z" fill="white"/>
<path d="M184.76 172.597C189.687 168.336 194.326 164.063 198.426 158.904C199.641 157.37 200.712 155.83 201.789 154.146C201.789 154.146 201.795 154.003 201.646 154.14C199.048 157.777 196.307 161.408 193.297 164.596C190.591 167.365 187.604 169.978 184.76 172.597C184.617 172.591 184.617 172.591 184.76 172.597Z" fill="white"/>
<path d="M129.344 305.235C132.895 302.933 136.853 301.224 140.787 300.09C145.014 298.824 149.937 298.162 153.43 300.753C153.85 301.059 154.263 301.508 154.533 301.951C154.929 302.831 154.744 303.831 154.421 304.682C153.625 306.521 151.709 307.594 149.673 308.086C147.787 308.441 145.637 308.208 143.774 307.988C138.904 307.356 134.046 306.436 129.344 305.235Z" fill="#B1C0D9"/>
<path d="M129.488 305.241C132.003 303.616 134.931 302.441 137.703 301.547C140.769 300.521 144.243 300.088 146.897 302.069C147.173 302.368 147.454 302.524 147.724 302.967C147.988 303.554 147.958 304.272 147.641 304.979C147.013 306.249 145.684 307.059 144.229 307.431C142.779 307.659 141.342 307.6 139.91 307.397C136.484 306.68 132.908 306.101 129.488 305.241Z" fill="#627692"/>
<path d="M129.632 305.247C133.704 304.262 137.926 303.14 141.998 302.155C145.92 301.309 149.969 300.899 154.125 301.358C154.125 301.358 154.275 301.22 154.131 301.214C150.268 300.624 146.214 301.177 142.441 301.886C138.081 302.858 133.854 304.124 129.632 305.247C129.488 305.241 129.488 305.241 129.632 305.247Z" fill="white"/>
<path d="M110.455 81.7097C107.399 78.9923 104.792 75.8614 102.622 72.6045C100.315 69.1979 98.4736 64.9466 100.202 61.418C100.364 60.9926 100.669 60.5732 101.112 60.3035C101.855 59.758 102.861 59.7994 103.717 59.9786C105.712 60.4926 107.24 61.8513 108.038 63.4679C108.979 65.0905 109.195 66.8272 109.406 68.7077C110.097 72.9117 110.489 77.3915 110.455 81.7097Z" fill="#B1C0D9"/>
<path d="M110.467 81.4223C108.244 79.4591 106.464 77.2261 104.834 74.8553C103.209 72.3407 101.89 69.4067 103.002 66.8607C103.158 66.5791 103.314 66.2975 103.613 66.0219C104.062 65.6084 104.924 65.6438 105.493 65.8112C106.919 66.1578 108.028 67.2113 108.699 68.3908C109.371 69.5703 109.605 70.8758 109.695 72.1754C110.146 75.2177 110.448 78.3978 110.467 81.4223Z" fill="#627692"/>
<path d="M110.467 81.4223C108.447 78.0275 106.283 74.6268 104.556 71.1002C102.823 67.7172 101.378 64.3461 100.807 60.7229L100.663 60.717C101.096 64.1905 102.542 67.5617 104.28 70.8009C106.145 74.4772 108.309 77.8779 110.467 81.4223Z" fill="white"/>
<path d="M110.473 81.2785C109.266 75.6134 107.766 70.0802 105.253 64.6494C104.456 63.0327 103.658 61.4161 102.861 59.7994L102.717 59.7935C104.725 63.4758 106.446 67.1462 107.581 71.0805C108.738 74.4398 109.603 77.931 110.473 81.2785C110.323 81.4164 110.467 81.4223 110.473 81.2785Z" fill="white"/>
<path d="M183.36 175.131C180.304 172.413 177.697 169.283 175.527 166.026C173.22 162.619 171.379 158.368 173.107 154.839C173.269 154.414 173.574 153.994 174.017 153.725C174.76 153.179 175.766 153.221 176.622 153.4C178.617 153.914 180.145 155.272 180.943 156.889C181.884 158.512 182.1 160.248 182.311 162.129C182.996 166.477 183.394 170.813 183.36 175.131Z" fill="#B1C0D9"/>
<path d="M183.366 174.987C181.143 173.024 179.363 170.791 177.733 168.42C176.108 165.906 174.789 162.972 175.902 160.426C176.057 160.144 176.213 159.862 176.512 159.587C176.961 159.173 177.823 159.209 178.392 159.376C179.818 159.723 180.927 160.776 181.598 161.956C182.27 163.135 182.504 164.441 182.594 165.74C183.045 168.782 183.347 171.963 183.366 174.987Z" fill="#627692"/>
<path d="M183.372 174.843C181.352 171.449 179.188 168.048 177.461 164.521C175.728 161.138 174.283 157.767 173.712 154.144L173.568 154.138C174.001 157.612 175.447 160.983 177.185 164.222C179.05 167.898 181.208 171.443 183.372 174.843C183.366 174.987 183.366 174.987 183.372 174.843Z" fill="white"/>
<path d="M183.372 174.843C182.165 169.178 180.665 163.645 178.152 158.214C177.355 156.598 176.557 154.981 175.76 153.364L175.616 153.358C177.625 157.041 179.346 160.711 180.48 164.645C181.637 168.005 182.502 171.496 183.372 174.843C183.223 174.981 183.366 174.987 183.372 174.843Z" fill="white"/>
<path d="M130.063 305.264C128.492 301.456 127.789 297.54 127.23 293.629C126.676 289.575 127.009 284.981 130.128 282.661C130.571 282.391 130.871 282.116 131.452 281.996C132.32 281.887 133.165 282.354 134.003 282.964C135.537 284.179 136.173 286.221 136.24 288.096C136.307 289.97 135.661 291.672 135.159 293.379C133.7 297.351 132.091 301.46 130.063 305.264Z" fill="#B1C0D9"/>
<path d="M130.069 305.121C129.031 302.342 128.425 299.582 128.112 296.689C127.799 293.796 127.935 290.49 130.168 288.71C130.467 288.435 130.76 288.303 131.048 288.314C131.629 288.194 132.336 288.511 132.893 288.966C134.007 289.876 134.523 291.337 134.47 292.631C134.561 293.93 134.076 295.206 133.598 296.339C132.749 299.471 131.481 302.299 130.069 305.121Z" fill="#627692"/>
<path d="M130.213 305.127C129.941 301.228 129.675 297.185 129.547 293.292C129.413 289.543 129.711 285.812 131.003 282.409C131.003 282.409 130.865 282.259 130.859 282.403C129.717 285.668 129.419 289.399 129.415 292.999C129.543 296.892 129.809 300.934 130.213 305.127Z" fill="white"/>
<path d="M130.219 304.983C131.599 299.424 132.842 293.716 133.09 287.678C133.161 285.953 133.237 284.085 133.165 282.354L133.021 282.348C133.137 286.528 132.972 290.553 132.375 294.56C131.796 298.136 130.935 301.557 130.219 304.983C130.075 304.977 130.213 305.127 130.219 304.983Z" fill="white"/>
<path d="M86.2272 110.663C85.8826 105.033 86.5562 99.1577 87.6491 93.5871C88.8976 87.7349 91.4575 81.5047 96.8824 79.136C97.6129 78.878 98.3435 78.6201 99.0622 78.6496C100.356 78.7028 101.47 79.6125 102.148 80.6483C103.784 82.8754 103.804 85.8999 102.979 88.4578C102.154 91.0156 100.478 93.2505 98.9458 95.4914C94.9898 100.656 90.7463 105.809 86.2272 110.663Z" fill="#B1C0D9"/>
<path d="M86.239 110.376C85.9732 106.333 86.4321 102.176 87.3162 98.181C88.2122 93.8982 90.1203 89.513 93.9345 87.798C94.3776 87.5282 94.9585 87.4081 95.5334 87.4317C96.3959 87.4672 97.2347 88.0776 97.7802 88.82C98.8651 90.4484 98.9202 92.6105 98.4122 94.4615C97.7604 96.3065 96.6833 97.9901 95.4683 99.524C92.7273 103.155 89.5491 106.912 86.239 110.376Z" fill="#627692"/>
<path d="M86.3886 110.238C87.9128 104.685 89.2991 98.9824 91.1048 93.5851C92.7609 88.3257 94.9861 83.2336 98.1938 78.7579C98.1997 78.6141 98.1997 78.6141 98.056 78.6082C94.8541 82.9402 92.6349 87.8886 90.9847 93.0043C89.1672 98.689 87.6371 104.386 86.1011 110.226C86.239 110.376 86.3827 110.382 86.3886 110.238Z" fill="white"/>
<path d="M86.3886 110.238C91.1579 102.803 95.4959 95.3496 98.7135 87.1306C99.6765 84.7224 100.502 82.1645 101.321 79.7504C101.327 79.6066 101.183 79.6007 101.177 79.7445C99.3535 85.573 97.1106 91.0963 94.4365 96.6019C91.9475 101.107 89.1651 105.744 86.3886 110.238C86.2449 110.232 86.3827 110.382 86.3886 110.238Z" fill="white"/>
<path d="M103.979 207.72C107.055 202.951 111.114 198.799 115.442 195.089C119.925 191.097 125.823 187.74 131.669 189.132C132.382 189.306 133.089 189.623 133.646 190.078C134.623 190.838 134.995 192.293 134.942 193.587C134.83 196.318 133.148 198.696 130.921 200.333C128.7 201.825 126.071 202.725 123.448 203.481C117.19 205.096 110.645 206.699 103.979 207.72Z" fill="#B1C0D9"/>
<path d="M104.267 207.732C106.565 204.371 109.426 201.321 112.563 198.57C115.849 195.682 119.981 193.26 124.257 194.299C124.827 194.467 125.252 194.628 125.671 194.933C126.366 195.538 126.612 196.556 126.577 197.418C126.494 199.431 125.273 201.109 123.645 202.194C122.016 203.278 120.118 203.92 118.226 204.419C113.705 205.817 109.052 206.921 104.267 207.732Z" fill="#627692"/>
<path d="M104.417 207.594C109.026 204.04 113.492 200.48 118.24 197.076C122.688 193.947 127.556 191.123 132.801 189.611C132.945 189.617 132.807 189.467 132.807 189.467C127.705 190.985 122.987 193.671 118.545 196.656C113.648 200.199 109.032 203.897 104.417 207.594C104.267 207.732 104.273 207.589 104.417 207.594Z" fill="white"/>
<path d="M104.417 207.594C112.608 204.475 120.662 201.207 128.194 196.621C130.409 195.272 132.63 193.78 134.708 192.281C134.851 192.287 134.713 192.137 134.57 192.131C129.672 195.674 124.505 198.773 119.069 201.429C114.368 203.684 109.393 205.639 104.417 207.594Z" fill="white"/>
<path d="M74.1542 306.278C77.23 301.509 81.2884 297.356 85.6165 293.646C90.1002 289.655 95.9977 286.298 101.844 287.69C102.557 287.863 103.264 288.18 103.821 288.635C104.798 289.395 105.17 290.85 105.117 292.144C105.004 294.875 103.323 297.254 101.096 298.89C98.8744 300.383 96.2456 301.282 93.6228 302.038C87.2212 303.647 80.6759 305.25 74.1542 306.278Z" fill="#B1C0D9"/>
<path d="M74.2979 306.284C76.5959 302.922 79.4571 299.872 82.5939 297.122C85.8804 294.233 90.0116 291.811 94.2884 292.851C94.8575 293.018 95.2828 293.18 95.7023 293.485C96.3973 294.089 96.6435 295.107 96.608 295.97C96.5253 297.982 95.3044 299.66 93.676 300.745C92.0475 301.83 90.1493 302.472 88.257 302.97C83.7359 304.368 79.0829 305.472 74.2979 306.284Z" fill="#627692"/>
<path d="M74.4417 306.29C79.0514 302.735 83.5174 299.175 88.2649 295.771C92.7132 292.642 97.5808 289.818 102.827 288.306C102.97 288.312 102.832 288.162 102.832 288.162C97.7305 289.68 93.0125 292.366 88.5701 295.351C83.6788 298.75 79.0632 302.448 74.4417 306.29Z" fill="white"/>
<path d="M74.5913 306.152C82.7828 303.033 90.8365 299.764 98.3684 295.178C100.584 293.829 102.805 292.337 104.882 290.838C105.026 290.844 104.888 290.695 104.744 290.689C99.8472 294.231 94.6802 297.33 89.2435 299.987C84.3995 302.235 79.4235 304.19 74.5913 306.152C74.4417 306.29 74.4476 306.146 74.5913 306.152Z" fill="white"/>
<path d="M148.101 206.223C148.332 200.617 149.718 194.914 151.524 189.517C153.485 183.838 156.752 177.925 162.441 176.143C163.171 175.885 163.896 175.771 164.609 175.944C165.896 176.141 166.861 177.188 167.539 178.224C168.881 180.583 168.614 183.596 167.507 185.998C166.4 188.4 164.587 190.486 162.635 192.421C158.116 197.275 153.172 201.967 148.101 206.223Z" fill="#B1C0D9"/>
<path d="M148.251 206.085C148.416 202.06 149.45 197.927 150.76 194.093C152.081 189.972 154.558 185.754 158.642 184.482C159.223 184.362 159.66 184.236 160.235 184.259C161.092 184.439 161.93 185.049 162.326 185.929C163.262 187.696 163.029 189.846 162.24 191.541C161.444 193.38 160.091 194.765 158.738 196.149C155.428 199.612 151.974 203.07 148.251 206.085Z" fill="#627692"/>
<path d="M148.4 205.947C150.494 200.561 152.587 195.176 154.962 189.946C157.181 184.998 159.975 180.073 163.74 176.052C163.746 175.908 163.746 175.908 163.602 175.903C159.843 179.78 157.205 184.423 154.985 189.371C152.461 194.739 150.356 200.412 148.113 205.935C148.257 205.941 148.395 206.091 148.4 205.947Z" fill="white"/>
<path d="M148.4 205.947C154.009 199.122 159.185 192.279 163.254 184.383C164.504 181.987 165.605 179.728 166.712 177.326C166.717 177.182 166.574 177.177 166.568 177.32C164.037 182.832 161.225 188.188 157.85 193.233C154.936 197.576 151.74 201.765 148.4 205.947Z" fill="white"/>
<path d="M-27.3707 131.479C-25.1711 123.506 -21.3963 115.742 -17.0701 108.577C-12.5824 100.986 -5.94442 93.6273 2.86536 92.9815C4.02122 92.8851 5.02744 92.9264 6.15967 93.4049C7.86097 94.0508 9.08376 95.8289 9.58783 97.5775C10.7279 101.368 9.40067 105.633 6.96485 108.845C4.52902 112.056 1.26619 114.37 -1.99073 116.54C-10.2709 121.815 -18.6948 127.084 -27.3707 131.479Z" fill="#B1C0D9"/>
<path d="M-27.0714 131.203C-25.5354 125.363 -22.7176 119.863 -19.6299 114.807C-16.3809 109.325 -11.5565 104.052 -5.34593 103.587C-4.6213 103.473 -3.75883 103.508 -3.05192 103.825C-1.77595 104.31 -0.966657 105.639 -0.588605 106.95C0.161591 109.717 -0.824975 112.7 -2.50662 115.079C-4.18235 117.314 -6.55909 119.088 -8.924 120.574C-14.8392 124.363 -20.8923 128.002 -27.0714 131.203Z" fill="#627692"/>
<path d="M-26.9276 131.209C-22.1761 124.205 -17.4246 117.201 -12.3915 110.353C-7.51983 103.93 -2.08502 97.8175 4.57848 93.3399C4.72814 93.202 4.59029 93.0524 4.44064 93.1902C-2.07321 97.53 -7.49618 103.355 -12.2182 109.64C-17.5447 116.62 -22.308 123.912 -27.2092 131.054C-27.2151 131.197 -27.0714 131.203 -26.9276 131.209Z" fill="white"/>
<path d="M-26.9218 131.066C-16.8044 123.13 -7.10646 114.89 1.21903 105.009C3.64303 102.085 6.07294 99.0168 8.35911 95.9431C8.50876 95.8052 8.2272 95.6497 8.22129 95.7934C2.88887 102.918 -2.86298 109.737 -9.30399 115.807C-14.9967 121.189 -20.9592 126.127 -27.2033 130.91C-27.0655 131.06 -26.9277 131.209 -26.9218 131.066Z" fill="white"/>
<path d="M5.58381 166.959C10.8867 160.553 17.5856 155.213 24.4047 150.454C31.6609 145.569 40.7563 141.479 48.9812 144.553C49.9756 144.882 50.9641 145.354 51.7911 146.252C53.0316 147.599 53.3801 149.629 53.1595 151.492C52.5687 155.356 49.552 158.687 46.1632 160.564C42.6306 162.434 38.714 163.137 34.7975 163.84C25.2335 165.319 15.3939 166.498 5.58381 166.959Z" fill="#B1C0D9"/>
<path d="M6.02096 166.833C9.80958 162.237 14.7245 158.263 19.6099 155.009C24.7946 151.478 31.3931 148.582 37.3535 150.698C38.0604 151.015 38.7673 151.332 39.3187 151.931C40.2835 152.979 40.5119 154.428 40.315 155.716C39.9093 158.579 37.7965 160.94 35.2937 162.277C32.791 163.614 29.8865 164.214 27.1317 164.677C20.0351 165.681 12.9443 166.542 6.02096 166.833Z" fill="#627692"/>
<path d="M6.16467 166.839C13.3972 162.528 20.6416 157.931 28.1499 153.92C35.221 150.035 42.6938 146.886 50.6706 145.486C50.8144 145.492 50.8262 145.205 50.6824 145.199C42.8552 146.461 35.6758 149.478 28.7544 153.225C21.0965 157.373 13.7084 161.965 6.1824 166.408C6.02683 166.689 6.02092 166.833 6.16467 166.839Z" fill="white"/>
<path d="M6.31435 166.701C18.8241 163.616 31.0582 160.231 42.8 154.81C46.3208 153.227 49.7097 151.35 53.0926 149.618C53.2422 149.48 53.1044 149.33 52.9548 149.468C45.1472 153.755 37.0758 157.454 28.7465 160.424C21.2973 162.997 13.8777 164.852 6.17059 166.695C6.1765 166.551 6.16469 166.839 6.31435 166.701Z" fill="white"/>
<path d="M36.1902 115.95C40.3136 110.216 45.707 105.11 51.2146 100.729C57.0216 96.0718 64.5298 92.0608 71.7899 94.0871C72.6405 94.41 73.6349 94.7389 74.33 95.3434C75.5824 96.4028 75.9427 98.1455 75.7339 99.7207C75.4484 103.165 73.1681 106.095 70.3602 107.851C67.5463 109.751 64.1988 110.622 60.8572 111.348C52.713 113.317 44.4368 114.993 36.1902 115.95Z" fill="#B1C0D9"/>
<path d="M36.4836 115.818C39.5358 111.624 43.283 108.034 47.3 104.887C51.4726 101.459 56.9152 98.6592 62.0368 100.166C62.7497 100.339 63.3128 100.65 63.8701 101.105C64.703 101.859 65.081 103.171 64.89 104.315C64.6458 106.752 62.976 108.843 61.0482 110.204C58.9767 111.559 56.6473 112.183 54.18 112.658C48.3652 114.002 42.4126 115.198 36.4836 115.818Z" fill="#627692"/>
<path d="M36.6273 115.824C42.5603 111.604 48.3495 107.378 54.4144 103.452C60.18 99.8013 66.365 96.4559 73.054 94.859C73.1978 94.8649 73.2096 94.5774 73.06 94.7153C66.5146 96.318 60.4852 99.3819 54.8693 102.895C48.5169 106.809 42.5721 111.316 36.4954 115.53C36.4836 115.818 36.6214 115.967 36.6273 115.824Z" fill="white"/>
<path d="M36.7711 115.83C47.2743 112.518 57.5078 108.763 67.0876 103.397C69.8896 101.784 72.6976 100.028 75.5055 98.2715C75.6493 98.2774 75.5174 97.984 75.3677 98.1219C69.0094 102.18 62.3755 105.939 55.4836 108.967C49.3281 111.594 43.0525 113.64 36.777 115.686C36.6332 115.68 36.6273 115.824 36.7711 115.83Z" fill="white"/>
<path d="M55.4236 183.982C61.3447 180.05 68.2248 177.309 74.9316 175.281C82.0755 173.127 90.4718 172.032 96.4756 176.599C97.1707 177.203 97.8657 177.808 98.4053 178.694C99.0649 180.161 98.8502 181.88 98.2162 183.294C96.7925 186.403 93.5474 188.285 90.2058 189.012C86.8642 189.738 83.4262 189.309 80.1319 188.886C71.836 187.537 63.5461 186.044 55.4236 183.982Z" fill="#B1C0D9"/>
<path d="M55.8548 184C60.1475 181.153 64.9797 179.192 69.9379 177.668C75.0458 176.006 81.1185 175.391 85.4505 178.593C86.0078 179.048 86.4213 179.497 86.8289 180.09C87.3625 181.12 87.1656 182.407 86.693 183.396C85.5922 185.654 83.2332 186.997 80.9097 187.478C78.5861 187.958 76.0046 187.708 73.5728 187.32C67.5591 186.497 61.5573 185.386 55.8548 184Z" fill="#627692"/>
<path d="M55.9986 184.006C62.981 182.277 69.9694 180.405 77.0838 178.969C83.761 177.66 90.7081 176.794 97.5782 177.796C97.722 177.802 97.7279 177.658 97.5842 177.652C90.8577 176.656 84.2041 177.39 77.6706 178.705C70.4125 180.135 63.1307 182.139 55.8607 183.856C55.717 183.85 55.8548 184 55.9986 184.006Z" fill="white"/>
<path d="M55.9986 184.006C66.9172 184.599 77.8477 184.904 88.7113 183.335C92.0411 182.896 95.233 182.307 98.4308 181.575C98.5746 181.58 98.4367 181.431 98.4367 181.431C91.0289 182.998 83.501 183.985 75.8589 184.246C69.229 184.406 62.6167 184.134 55.8666 183.713C55.8666 183.713 55.8548 184 55.9986 184.006Z" fill="white"/>
<path d="M32.959 271.611C39.8095 269.589 47.044 268.735 54.1052 268.593C61.5977 268.469 69.8935 269.818 74.4007 275.763C74.9461 276.505 75.4857 277.391 75.594 278.259C75.8164 279.852 75.1765 281.41 74.1171 282.662C71.8545 285.161 68.2137 286.163 64.7697 285.878C61.3257 285.592 58.2106 284.312 55.1014 282.889C47.7508 279.563 40.1304 275.794 32.959 271.611Z" fill="#B1C0D9"/>
<path d="M33.3902 271.629C38.3484 270.105 43.5528 269.599 48.5957 269.518C53.926 269.449 60.0775 270.422 63.2123 274.727C63.6199 275.319 64.0275 275.912 64.1476 276.493C64.3878 277.655 63.7655 278.781 63.0114 279.614C61.3534 281.418 58.7305 282.174 56.2928 281.93C53.855 281.685 51.5905 280.728 49.3261 279.771C43.9524 277.391 38.4468 274.717 33.3902 271.629Z" fill="#627692"/>
<path d="M33.5281 271.779C40.7153 272.074 48.0522 272.232 55.2276 272.815C62.1155 273.386 68.9798 274.532 75.1982 277.379C75.3419 277.385 75.3478 277.241 75.3478 277.241C69.2673 274.544 62.5526 273.26 55.9522 272.7C48.4893 272.106 41.0087 271.942 33.6777 271.641C33.3902 271.629 33.3843 271.773 33.5281 271.779Z" fill="white"/>
<path d="M33.528 271.779C43.8855 275.516 54.2666 278.679 65.1439 280.278C68.4382 280.701 71.7325 281.124 74.889 281.398C75.0327 281.404 75.0386 281.26 74.8949 281.254C67.2882 280.654 59.8431 279.628 52.4334 277.739C46.0239 276.036 39.6322 273.901 33.3843 271.773C33.534 271.635 33.3843 271.773 33.528 271.779Z" fill="white"/>
<path d="M109.085 51.992C108.156 50.082 107.807 48.0518 107.465 45.8779C105.571 32.4092 109.605 18.3203 118.524 8.03188C118.679 7.7503 118.979 7.47463 119.41 7.49236C119.985 7.516 120.099 8.24063 120.225 8.67777C121.956 19.116 120.926 30.1607 116.924 39.9314C115.31 44.1846 112.976 48.4083 109.264 51.1355" fill="#AD1B1E"/>
<path d="M108.211 52.2441C108.3 50.0879 107.807 48.0518 107.315 46.0158C103.678 32.9074 94.0594 21.7129 81.7722 15.8803C81.4906 15.7247 81.0653 15.5633 80.6282 15.6893C80.1851 15.959 80.1556 16.6778 80.4253 17.1208C83.0244 27.4508 88.5398 36.8927 96.1503 44.4049C99.4761 47.5654 103.245 50.4561 107.666 51.5017" fill="#AD1B1E"/>
<path d="M106.181 52.5925C101.24 53.6853 96.1187 52.1789 91.4283 50.6902C88.7267 49.8592 86.031 48.8844 83.7902 47.3525C81.2678 45.6649 79.2061 43.2764 77.4379 40.7559C76.3471 39.2712 75.4058 37.6486 75.0514 35.7622C74.6911 34.0195 74.9235 31.8693 75.9888 30.4732C77.509 28.5199 80.5512 28.069 82.9712 28.7444C85.3913 29.4198 87.4824 31.0897 89.4358 32.6098C95.8412 37.9127 101.792 43.7728 106.258 50.7238C106.803 51.4662 107.187 52.6339 106.445 53.1793" fill="#E92438"/>
<path d="M108.055 52.5256C103.556 49.8928 100.128 45.7202 97.7236 41.1578C95.3194 36.5954 94.0947 31.3615 93.2953 26.289C92.7361 22.3784 92.4703 18.3358 94.2052 14.6635C95.7903 11.1289 99.7955 8.26984 103.641 9.29186C106.624 10.2784 108.674 12.9545 109.856 15.7388C111.301 19.1099 112.01 22.8827 112.287 26.6378C112.878 33.2855 112.6 40.0415 111.61 46.6242C111.222 49.056 110.385 51.9014 108.049 52.6693" fill="#E92438"/>
<path d="M109.229 51.9979C110.172 46.5651 111.265 40.9945 113.065 35.741C114.865 30.4874 117.521 25.4131 121.43 21.3981C123.381 19.4625 126.195 17.5624 128.741 18.6749C131.006 19.632 131.9 22.4045 131.943 24.854C132.167 29.9028 129.948 34.8512 126.902 38.9016C123.856 42.952 119.976 46.2482 116.097 49.5444C115.199 50.3715 114.307 51.0547 113.14 51.4387C111.972 51.8226 110.672 51.9132 109.839 51.159" fill="#E92438"/>
<path d="M109.971 51.4525C111.651 45.618 114.75 40.2739 117.85 34.9298C121.105 29.3041 124.354 23.8222 127.885 18.4958C127.891 18.3521 127.747 18.3461 127.747 18.3461C124.067 23.8104 120.812 29.4361 117.557 35.0617C114.607 40.268 111.513 45.4684 109.834 51.3028C109.822 51.5903 109.965 51.5962 109.971 51.4525Z" fill="#FFFFE6"/>
<path d="M109.983 51.1649C110.403 51.4701 111.007 50.775 111.306 50.4994C112.348 49.6783 113.246 48.8512 114.15 47.8805C115.802 46.2206 117.322 44.2672 118.555 42.3021C121.613 37.9642 124.251 33.3211 126.746 28.672C128.152 25.9941 129.558 23.3161 130.821 20.6322C130.826 20.4885 130.683 20.4826 130.677 20.6263C127.991 26.4194 125.029 31.9132 121.642 37.2454C120.099 39.7738 118.561 42.1583 116.735 44.5311C115.82 45.7893 114.766 46.8979 113.713 48.0065C113.258 48.5638 110.408 51.3264 109.983 51.1649C109.845 51.0153 109.989 51.0212 109.983 51.1649Z" fill="#FFFFE6"/>
<path d="M107.833 50.9326C106.862 50.0287 106.346 48.5677 105.819 47.3941C105.291 46.2205 104.769 44.9031 104.241 43.7295C103.198 41.0949 102.154 38.4602 101.398 35.8373C99.748 30.442 98.8226 24.9324 98.3284 19.4406C98.1591 16.5539 97.72 13.2241 98.7007 10.3847C98.7066 10.2409 98.5628 10.235 98.5569 10.3788C97.7378 12.7929 98.0508 15.6855 98.0882 18.2788C98.2575 21.1655 98.5765 23.9144 99.0392 26.6692C99.9646 32.1787 101.609 37.7178 103.696 42.9872C104.356 44.4542 104.866 46.059 105.669 47.5319C106.059 48.5558 106.718 50.0228 107.833 50.9326C107.827 51.0763 107.971 51.0822 107.833 50.9326Z" fill="#FFFFE6"/>
<path d="M102.623 9.53796C103.816 12.0348 104.417 14.9392 105.029 17.5562C105.642 20.1731 106.104 22.9279 106.711 25.6886C107.636 31.1982 108.268 36.8397 108.469 42.4634C108.627 45.6376 108.497 48.8 108.367 51.9624C108.361 52.1061 108.504 52.112 108.51 51.9683C109.265 40.6243 107.857 29.3354 105.437 18.1489C104.836 15.2444 104.242 12.1963 102.917 9.40603C102.635 9.25047 102.485 9.3883 102.623 9.53796Z" fill="#FFFFE6"/>
<path d="M74.8821 32.8755C81.0374 40.7599 88.9413 48.1402 98.7711 50.7041C101.479 51.3913 104.342 51.797 107.085 51.6218C107.228 51.6277 107.234 51.4839 107.091 51.478C93.8188 52.0844 82.6856 42.6995 74.8821 32.8755C74.888 32.7318 75.0377 32.5939 74.8821 32.8755Z" fill="#FFFFE6"/>
<path d="M77.7728 29.1067C82.3628 33.039 87.0964 36.9773 92.1353 40.4961C94.6577 42.1837 97.3239 43.8772 99.99 45.5706C102.65 47.4078 105.167 49.2391 107.677 51.2142C107.821 51.2201 107.827 51.0763 107.827 51.0763C105.46 49.1072 102.944 47.2759 100.421 45.5883C97.9048 43.7571 95.2327 42.2073 92.5666 40.5139C87.3839 36.9891 82.6502 33.0508 77.7728 29.1067C77.6291 29.1008 77.7787 28.9629 77.7728 29.1067Z" fill="#FFFFE6"/>
<path d="M108.526 58.5924C105.112 58.4521 102.459 55.571 102.599 52.1573C102.739 48.7437 105.62 46.0901 109.034 46.2304C112.448 46.3707 115.101 49.2518 114.961 52.6655C114.821 56.0792 111.94 58.7328 108.526 58.5924Z" fill="#AD1B1E"/>
<path d="M185.357 137.056C184.428 135.146 184.08 133.116 183.737 130.942C181.843 117.474 185.878 103.385 194.796 93.0961C195.095 92.8205 195.395 92.5448 195.682 92.5566C196.257 92.5803 196.371 93.3049 196.497 93.742C198.372 104.186 197.342 115.231 193.334 125.145C191.72 129.399 189.386 133.622 185.675 136.349" fill="#AD1B1E"/>
<path d="M184.483 137.308C184.572 135.152 184.08 133.116 183.587 131.08C179.951 117.972 170.332 106.777 158.044 100.945C157.763 100.789 157.338 100.627 156.9 100.753C156.457 101.023 156.428 101.742 156.698 102.185C159.297 112.515 164.812 121.957 172.423 129.469C175.748 132.63 179.517 135.52 183.938 136.566" fill="#AD1B1E"/>
<path d="M182.597 137.663C177.656 138.755 172.535 137.249 167.844 135.76C165.143 134.929 162.447 133.955 160.206 132.423C157.684 130.735 155.622 128.347 153.854 125.826C152.763 124.341 151.822 122.719 151.467 120.832C151.107 119.09 151.339 116.939 152.405 115.543C153.925 113.59 156.967 113.139 159.387 113.815C161.807 114.49 163.898 116.16 165.852 117.68C172.257 122.983 178.208 128.843 182.674 135.794C183.219 136.536 183.603 137.704 182.861 138.25" fill="#E92438"/>
<path d="M184.471 137.596C179.972 134.963 176.544 130.79 174.14 126.228C171.735 121.666 170.511 116.432 169.711 111.359C169.152 107.449 168.886 103.406 170.621 99.7337C172.206 96.1992 176.212 93.3401 180.057 94.3621C183.046 95.2049 184.952 97.875 186.134 100.659C187.579 104.03 188.288 107.803 188.565 111.558C189.156 118.206 188.878 124.962 187.888 131.545C187.5 133.977 186.663 136.822 184.328 137.59" fill="#E92438"/>
<path d="M185.645 137.068C186.588 131.635 187.681 126.065 189.481 120.811C191.281 115.558 193.937 110.483 197.846 106.468C199.797 104.533 202.611 102.633 205.157 103.745C207.278 104.696 208.172 107.469 208.359 109.924C208.583 114.973 206.364 119.921 203.318 123.972C200.272 128.022 196.392 131.318 192.513 134.615C191.615 135.442 190.723 136.125 189.556 136.509C188.388 136.893 187.088 136.983 186.255 136.229" fill="#E92438"/>
<path d="M186.387 136.523C188.067 130.688 191.166 125.344 194.266 120C197.521 114.374 200.77 108.892 204.301 103.566C204.307 103.422 204.163 103.416 204.163 103.416C200.483 108.881 197.228 114.506 193.973 120.132C191.023 125.338 187.929 130.539 186.249 136.373C186.244 136.517 186.381 136.666 186.387 136.523Z" fill="#FFFFE6"/>
<path d="M186.399 136.235C186.819 136.54 187.423 135.845 187.722 135.57C188.764 134.748 189.662 133.921 190.566 132.951C192.218 131.291 193.738 129.337 194.971 127.372C198.029 123.034 200.667 118.391 203.162 113.742C204.568 111.064 205.974 108.386 207.237 105.702C207.242 105.559 207.099 105.553 207.093 105.697C204.407 111.49 201.445 116.983 198.058 122.316C196.515 124.844 194.977 127.229 193.151 129.601C192.236 130.86 191.182 131.968 190.129 133.077C189.674 133.634 186.824 136.397 186.399 136.235C186.261 136.085 186.411 135.948 186.399 136.235Z" fill="#FFFFE6"/>
<path d="M184.249 136.003C183.278 135.099 182.762 133.638 182.235 132.464C181.707 131.291 181.185 129.973 180.657 128.8C179.614 126.165 178.57 123.53 177.814 120.908C176.164 115.512 175.239 110.003 174.744 104.511C174.575 101.624 174.136 98.2944 175.117 95.4549C175.123 95.3112 174.979 95.3053 174.973 95.449C174.154 97.8631 174.467 100.756 174.504 103.349C174.673 106.236 174.992 108.985 175.455 111.739C176.381 117.249 178.025 122.788 180.112 128.057C180.772 129.524 181.281 131.129 182.085 132.602C182.475 133.626 182.991 135.087 184.249 136.003Z" fill="#FFFFE6"/>
<path d="M179.039 94.6081C180.232 97.105 180.833 100.009 181.445 102.626C182.058 105.243 182.52 107.998 183.127 110.759C184.052 116.268 184.684 121.91 184.885 127.534C185.042 130.708 184.912 133.87 184.782 137.033C184.777 137.176 184.92 137.182 184.926 137.038C185.681 125.694 184.273 114.406 181.853 103.219C181.252 100.315 180.658 97.2665 179.333 94.4762C179.051 94.3207 178.901 94.4585 179.039 94.6081Z" fill="#FFFFE6"/>
<path d="M151.298 117.946C157.453 125.83 165.357 133.21 175.187 135.774C177.895 136.461 180.62 136.717 183.357 136.686C183.501 136.692 183.507 136.548 183.363 136.542C170.091 137.149 159.102 127.77 151.298 117.946C151.304 117.802 151.454 117.664 151.298 117.946Z" fill="#FFFFE6"/>
<path d="M154.189 114.177C158.779 118.109 163.512 122.047 168.551 125.566C171.074 127.254 173.74 128.947 176.406 130.641C179.066 132.478 181.583 134.309 184.093 136.284C184.237 136.29 184.243 136.147 184.243 136.147C181.876 134.177 179.354 132.49 176.837 130.659C174.321 128.827 171.649 127.278 168.983 125.584C163.656 122.053 158.922 118.115 154.189 114.177C154.051 114.027 154.195 114.033 154.189 114.177Z" fill="#FFFFE6"/>
<path d="M184.798 143.657C181.384 143.516 178.731 140.635 178.871 137.222C179.012 133.808 181.893 131.154 185.306 131.295C188.72 131.435 191.374 134.316 191.233 137.73C191.093 141.143 188.212 143.797 184.798 143.657Z" fill="#AD1B1E"/>
<path d="M153.586 279.45C154.244 277.461 155.327 275.634 156.548 273.956C164.346 262.902 177.182 255.366 190.627 254.047C191.059 254.064 191.496 253.938 191.771 254.238C192.185 254.687 191.874 255.25 191.569 255.669C185.59 264.495 177.233 271.639 167.689 276.142C163.576 278.133 158.911 279.525 154.466 279.054" fill="#AD1B1E"/>
<path d="M152.885 278.989C154.388 277.467 155.471 275.64 156.41 273.806C162.662 261.824 163.558 247.031 158.604 234.444C158.472 234.151 158.202 233.707 157.921 233.552C157.352 233.385 157.041 233.948 156.735 234.367C151.602 243.659 149.002 254.351 149.428 265.024C149.526 269.636 150.343 274.277 152.921 278.126" fill="#AD1B1E"/>
<path d="M151.208 277.768C146.852 275.141 144.16 270.567 141.894 266.154C140.557 263.651 139.22 261.149 138.613 258.388C137.875 255.334 138.143 252.321 138.56 249.171C138.925 247.314 139.289 245.457 140.216 243.911C141.144 242.365 142.784 240.993 144.521 240.776C146.982 240.446 149.505 242.133 150.859 244.205C152.208 246.42 152.533 249.025 152.864 251.486C153.821 259.733 154.197 268.1 152.572 276.096C152.393 276.953 151.914 278.085 151.052 278.05" fill="#E92438"/>
<path d="M152.592 279.121C151.068 274.163 151.436 268.706 152.937 263.728C154.437 258.75 156.932 254.101 159.984 249.907C162.276 246.69 164.994 243.634 168.658 242.057C172.323 240.479 177.037 241.393 179.207 244.65C180.831 247.165 180.402 250.603 179.421 253.442C178.124 256.988 175.981 260.068 173.701 262.998C169.601 268.157 164.794 272.999 159.448 276.955C157.215 278.735 154.707 280.216 152.592 279.121Z" fill="#E92438"/>
<path d="M153.724 279.599C158.178 276.327 162.776 273.06 167.638 270.38C172.5 267.7 178.045 265.912 183.525 265.706C186.268 265.531 189.694 266.247 190.743 268.738C191.805 270.942 190.542 273.626 188.884 275.429C185.563 279.18 180.581 281.279 175.508 282.079C170.436 282.878 165.411 282.528 160.38 282.321C159.23 282.274 157.936 282.22 156.947 281.748C155.815 281.269 154.844 280.365 154.748 279.21" fill="#E92438"/>
<path d="M154.724 279.785C160.035 276.691 165.868 274.915 171.694 273.283C177.82 271.375 183.94 269.611 190.33 268.289C190.474 268.295 190.336 268.146 190.336 268.146C183.94 269.611 177.676 271.369 171.407 273.271C165.718 275.053 159.891 276.685 154.581 279.779C154.587 279.635 154.581 279.779 154.724 279.785Z" fill="#FFFFE6"/>
<path d="M154.88 279.503C154.856 280.078 155.868 279.976 156.156 279.987C157.45 280.041 158.743 280.094 160.037 280.147C162.343 280.098 164.81 279.623 167.128 279.286C172.356 278.205 177.452 276.831 182.416 275.163C185.188 274.269 188.111 273.238 190.895 272.056C191.039 272.062 190.901 271.912 190.757 271.907C184.901 274.258 178.919 276.171 172.661 277.786C169.894 278.536 166.99 279.137 164.091 279.594C162.642 279.822 161.055 279.901 159.612 279.985C159.18 279.968 155 280.084 155.018 279.653C155.03 279.365 154.886 279.359 154.88 279.503Z" fill="#FFFFE6"/>
<path d="M153.507 277.863C153.417 276.563 154.051 275.149 154.392 273.867C154.876 272.591 155.217 271.31 155.701 270.034C156.676 267.338 157.788 264.792 159.189 262.258C161.695 257.321 164.771 252.552 168.26 248.232C170.08 246.003 172.205 243.354 174.713 241.874C174.857 241.879 174.719 241.73 174.575 241.724C172.36 243.073 170.547 245.158 168.883 247.105C167.069 249.191 165.387 251.569 163.712 253.804C160.498 258.424 157.985 263.504 155.898 268.746C155.258 270.303 154.768 271.723 154.272 273.286C153.781 274.706 153.147 276.12 153.232 277.563C153.358 278.001 153.502 278.006 153.507 277.863Z" fill="#FFFFE6"/>
<path d="M178.218 244.177C177.387 246.879 175.849 249.264 174.455 251.654C173.061 254.045 171.529 256.285 170.135 258.676C167.065 263.301 163.564 267.909 159.937 272.079C157.824 274.44 155.573 276.652 153.322 278.863C153.173 279.001 153.316 279.007 153.46 279.013C161.841 271.294 168.556 262.067 174.426 252.373C175.975 249.701 177.663 247.178 178.649 244.195C178.368 244.04 178.224 244.034 178.218 244.177Z" fill="#FFFFE6"/>
<path d="M142.162 242.119C141.179 252.014 141.742 262.836 147.143 271.554C148.63 273.918 150.416 276.008 152.501 277.821C152.645 277.827 152.645 277.827 152.651 277.683C142.494 269.059 141.073 254.601 142.306 242.125C142.312 241.981 142.168 241.976 142.162 242.119Z" fill="#FFFFE6"/>
<path d="M146.659 241.296C147.274 247.369 147.888 253.442 149.227 259.4C149.965 262.454 150.704 265.508 151.442 268.562C152.18 271.617 152.625 274.803 153.07 277.989C153.064 278.132 153.214 277.994 153.214 277.994C152.763 274.952 152.312 271.91 151.568 269C150.973 265.951 150.091 262.891 149.353 259.837C148.02 253.735 147.406 247.662 146.653 241.44C146.809 241.158 146.665 241.152 146.659 241.296Z" fill="#FFFFE6"/>
<path d="M152.901 285.613C149.487 285.473 146.834 282.592 146.974 279.178C147.114 275.764 149.995 273.111 153.409 273.251C156.823 273.391 159.476 276.272 159.336 279.686C159.196 283.1 156.315 285.753 152.901 285.613Z" fill="#AD1B1E"/>
</g>
<defs>
<clipPath id="clip0_10604_14231">
<rect width="275.503" height="319.958" fill="white" transform="matrix(-0.999156 -0.0410732 -0.0410732 0.999156 212.413 11.3154)"/>
</clipPath>
</defs>
</svg>
