<svg width="200" height="373" viewBox="0 0 200 373" fill="none" xmlns="http://www.w3.org/2000/svg">
<g clip-path="url(#clip0_10604_14921)">
<path d="M123.988 139.182C131.021 144.581 135.733 152.001 140.444 159.42C145.38 166.765 149.942 174.484 154.429 181.978C162.954 196.367 171.254 210.83 180.379 224.77C189.577 238.935 199.974 252.202 212.318 263.824C222.941 274.02 234.988 282.496 248.008 289.399C262.599 297.278 278.39 302.762 294.631 305.849C295.155 305.924 295.305 304.876 294.781 304.8C264.919 299.003 237.082 285.044 214.788 264.5C190.025 241.782 173.574 211.806 156.524 183.029C151.888 175.085 147.027 167.216 141.941 159.422C136.93 151.852 131.845 144.058 124.737 138.433C124.138 138.133 123.614 138.807 123.988 139.182Z" fill="#B1C0D9"/>
<path d="M171.405 209.033C170.211 202.441 169.391 195.475 170.443 188.885C170.819 186.264 171.494 183.793 172.468 181.472C175.317 173.536 179.587 166.126 185.279 159.99C182.809 160.062 180.564 160.06 178.169 159.608C176.597 159.382 174.95 158.931 173.229 159.004C171.507 159.077 169.935 159.6 168.886 160.947C167.688 162.593 167.537 165.14 169.108 166.864C168.359 166.863 167.836 166.039 167.162 165.514C166.115 164.614 164.243 164.987 163.345 166.034C162.371 166.857 161.921 168.504 161.846 169.778C161.545 172.623 162.591 175.77 164.311 177.944C162.814 177.942 161.692 176.069 160.27 176.292C159.522 176.291 158.773 177.04 158.473 177.638C158.248 178.462 158.248 179.211 158.247 179.96C158.769 183.78 160.563 187.677 163.481 190.451C162.433 190.3 161.311 189.924 160.338 189.998C159.29 189.847 158.017 190.52 157.867 191.569C157.791 192.093 158.016 192.767 158.24 193.441C161.081 199.735 165.718 205.432 171.554 209.483" fill="#B1C0D9"/>
<path d="M171.405 209.033C170.659 204.538 169.917 192.554 170.968 187.462C171.343 185.59 171.718 183.718 172.318 181.772C174.717 175.483 177.864 169.195 182.208 163.507C180.412 164.104 178.316 164.551 176.444 164.924C175.246 165.073 174.049 165.221 172.701 165.669C171.354 166.117 170.156 167.015 169.481 167.988C168.433 169.335 168.581 171.282 169.554 171.957C168.88 172.181 168.506 171.807 168.132 171.432C167.309 171.206 165.961 171.654 165.287 172.627C164.613 173.6 164.238 174.723 164.088 175.772C163.787 177.868 164.46 179.891 165.807 180.941C164.684 181.315 163.861 180.34 162.738 180.713C162.064 180.937 161.764 181.536 161.465 182.135C161.165 182.734 161.314 183.184 161.314 183.933C161.687 186.554 162.958 188.877 165.128 190.153C164.454 190.377 163.631 190.151 162.733 190.45C162.059 190.674 161.011 191.272 160.786 192.096C160.71 192.62 160.86 193.069 160.935 193.294C163.103 197.565 168.862 205.885 171.405 209.033Z" fill="#627692"/>
<path d="M217.107 267.723C215.988 260.607 215.318 253.341 216.744 246.377C217.344 243.682 218.169 240.911 219.069 238.366C222.217 229.831 227.311 221.897 233.602 215.312C230.908 215.459 228.438 215.532 225.818 215.154C224.022 215.003 222.375 214.552 220.429 214.7C218.707 214.773 216.911 215.37 215.637 216.792C214.214 218.513 214.138 221.284 215.709 223.008C214.736 223.082 214.212 222.258 213.539 221.733C212.267 220.908 210.62 221.206 209.497 222.328C208.373 223.45 207.849 224.873 207.623 226.446C207.172 229.591 208.219 232.737 210.014 235.136C208.517 235.134 207.395 233.261 205.673 233.334C204.925 233.333 204.176 234.081 203.726 234.98C203.501 235.803 203.501 236.552 203.575 237.526C203.947 241.646 205.816 245.767 208.958 248.466C207.911 248.316 206.788 247.94 205.59 248.089C204.393 248.237 203.27 248.61 202.895 249.734C202.82 250.258 203.044 250.932 203.268 251.606C206.258 258.35 210.896 264.047 217.031 268.247" fill="#B1C0D9"/>
<path d="M217.107 267.723C216.51 262.929 216.068 250.346 217.269 244.955C217.794 242.783 218.169 240.911 218.994 238.89C221.692 232.002 225.438 225.265 230.157 219.203C228.136 219.875 225.89 220.622 224.018 220.995C222.596 221.218 221.398 221.366 220.126 222.039C218.778 222.487 217.355 223.459 216.531 224.732C215.333 226.378 215.481 228.326 216.454 229.001C215.78 229.225 215.406 228.85 214.808 228.55C213.91 228.1 212.412 228.847 211.738 229.82C211.064 230.793 210.464 231.991 210.314 233.039C210.088 235.361 210.536 237.458 211.883 238.508C210.76 238.881 209.937 237.907 208.814 238.28C208.141 238.504 207.616 239.178 207.317 239.777C207.017 240.376 207.016 241.125 207.166 241.574C207.389 244.495 208.66 246.818 211.055 248.019C210.156 248.318 209.408 248.317 208.509 248.616C207.611 248.914 206.637 249.737 206.412 250.561C206.337 251.085 206.487 251.535 206.561 251.759C208.655 255.806 214.563 264.575 217.107 267.723Z" fill="#627692"/>
<path d="M173.798 213.979C167.212 211.426 160.177 209.022 153.142 208.865C150.372 208.787 147.677 208.934 145.057 209.306C136.224 210.496 127.54 213.632 119.828 218.193C120.503 215.722 120.953 213.326 121.329 210.705C121.48 208.908 121.631 207.111 122.081 205.463C122.531 203.816 123.504 202.244 125.152 201.197C127.024 200.076 129.793 200.902 131.139 202.701C131.364 201.878 130.616 201.128 130.317 200.229C129.644 198.955 130.543 197.158 131.741 196.261C132.939 195.363 134.661 195.29 135.933 195.366C139.002 195.594 141.845 197.394 143.865 199.718C144.315 198.071 142.594 196.646 143.119 195.224C143.344 194.4 144.168 193.877 145.141 193.803C146.114 193.729 146.937 193.954 147.536 194.254C151.502 195.681 154.869 198.306 157.112 202.053C157.263 201.005 157.114 199.806 157.264 198.758C157.414 197.71 158.313 196.662 159.511 196.513C160.259 196.514 160.858 196.814 161.307 197.414C167.217 201.689 171.705 207.685 174.695 214.429" fill="#B1C0D9"/>
<path d="M173.797 213.979C169.233 212.251 157.183 209.019 151.719 209.088C149.698 209.011 147.677 208.934 145.581 209.382C138.47 210.498 131.134 212.438 124.246 215.726C125.444 214.08 126.493 211.984 127.168 210.262C127.767 209.064 128.067 207.716 128.966 206.669C129.79 205.396 130.913 204.274 132.261 203.826C133.983 203.004 135.854 203.38 136.527 204.654C136.827 204.055 136.453 203.68 136.453 202.931C136.379 201.957 137.278 200.91 138.326 200.312C139.374 199.714 140.572 199.565 141.844 199.641C144.164 199.868 145.96 200.769 146.783 202.492C147.457 201.519 146.559 200.32 147.234 199.347C147.533 198.748 148.432 198.45 149.105 198.225C149.779 198.001 150.378 198.302 150.902 198.377C153.671 199.204 155.541 201.078 156.363 203.55C156.813 202.652 156.813 201.903 157.337 201.23C157.862 200.556 158.611 199.808 159.584 199.734C160.108 199.809 160.407 199.96 160.781 200.334C164.148 202.959 171.18 210.606 173.797 213.979Z" fill="#627692"/>
<path d="M217.481 268.098C210.444 268.69 203.108 269.881 196.894 272.945C194.498 273.992 192.027 275.562 189.781 277.058C182.518 282.218 176.227 288.803 171.282 296.437C170.685 293.89 170.162 291.568 169.116 289.17C168.593 287.597 167.77 285.873 167.247 284.3C166.949 282.652 167.025 280.63 168.073 279.283C169.422 277.337 171.967 276.74 174.062 277.791C173.763 276.892 172.94 276.666 172.267 276.141C171.219 275.241 171.07 273.294 171.67 272.096C172.494 270.824 173.692 269.926 175.04 269.478C177.885 268.283 181.178 268.436 184.096 269.712C183.798 268.064 181.628 267.537 181.404 266.114C181.105 265.215 181.854 264.467 182.453 264.018C183.052 263.569 183.95 263.271 184.923 263.197C188.966 262.602 193.456 263.355 196.973 265.681C196.599 264.557 196.076 263.732 195.702 262.608C195.329 261.485 195.629 260.137 196.677 259.539C197.351 259.315 198.099 259.315 198.623 259.391C205.733 260.521 212.767 263.674 218.304 268.323" fill="#B1C0D9"/>
<path d="M217.481 268.098C212.69 268.692 200.338 271.301 195.696 273.843C193.749 274.74 192.027 275.562 190.23 276.908C184.39 281.097 178.923 286.409 174.204 292.471C174.504 290.374 174.506 288.127 174.357 286.179C174.208 284.981 173.984 283.558 174.284 282.21C174.584 280.862 174.81 279.289 175.933 278.167C177.206 276.745 179.003 276.148 180.051 277.048C180.051 276.299 179.452 275.999 179.078 275.624C178.555 274.799 178.855 273.452 179.454 272.254C180.129 271.281 181.102 270.458 182.225 270.085C184.396 269.113 186.417 269.19 187.988 270.165C188.064 268.892 186.867 268.292 187.017 267.243C187.017 266.494 187.542 265.821 188.141 265.372C188.74 264.923 189.189 264.774 189.938 264.775C192.782 264.328 195.476 264.93 197.347 266.804C197.347 266.055 197.048 265.156 197.049 264.407C197.049 263.658 197.648 262.461 198.247 262.012C198.697 261.863 199.221 261.938 199.445 261.863C204.01 262.842 213.889 266.297 217.481 268.098Z" fill="#627692"/>
<path d="M119.348 137.979C109.237 148.828 94.3386 155.03 79.369 154.266C72.2584 153.884 65.0739 151.78 59.8368 147.281C54.525 142.557 51.5351 135.064 53.5597 128.4C54.9845 123.683 58.729 119.942 63.0714 117.999C67.4138 116.057 72.5786 115.837 77.2187 117.04C73.4035 113.067 69.6634 108.569 67.9447 103.4C65.7776 96.8814 66.8295 89.5426 70.7248 84.0042C74.0957 79.1393 80.0107 75.9247 85.474 77.3533C88.1683 77.9551 90.7123 79.6054 92.8818 81.6298C96.0241 84.3293 99.241 87.2535 102.009 90.327C101.113 85.3829 101.191 80.365 102.915 75.798C104.639 71.2311 108.01 67.1152 112.577 65.0976C118.042 62.7813 124.703 64.0612 129.641 67.6612C134.579 71.2613 137.645 76.7318 139.064 82.5003C140.857 89.3925 140.778 96.6574 139.427 103.846C136.874 117.924 129.457 130.874 119.272 140.75" fill="#B1C0D9"/>
<path d="M121.445 136.033C99.9576 145.673 74.8086 144.3 53.6312 134.617C53.3319 134.467 53.2567 134.991 53.5561 135.141C75.0328 144.974 100.182 146.348 121.894 136.633C122.044 136.334 121.595 135.734 121.445 136.033Z" fill="#EDF6FF"/>
<path d="M122.193 136.034C112.014 136.174 101.46 135.189 91.8812 131.884C82.8261 128.655 74.2961 123.254 67.1888 116.88C66.8894 116.73 66.7396 117.03 66.8143 117.254C74.2209 123.778 82.4516 129.029 91.7313 132.184C101.385 135.714 111.938 136.698 122.118 136.558C122.418 136.709 122.493 136.184 122.193 136.034Z" fill="#EDF6FF"/>
<path d="M122.867 136.559C111.417 132.129 102.065 124.255 93.3121 115.933C84.1851 107.236 75.1333 98.0143 69.6006 86.6245C69.5258 86.3997 69.0767 86.549 69.1514 86.7738C75.0581 98.5385 84.4093 107.91 93.611 116.832C102.289 124.93 111.641 132.803 122.717 136.859C123.016 137.009 123.091 136.485 122.867 136.559Z" fill="#EDF6FF"/>
<path d="M122.493 136.184C118.229 131.611 115.388 125.317 111.948 120.221C108.807 115.274 105.516 110.627 102.15 105.756C94.8949 95.9371 86.8161 86.6417 78.0632 78.3194C77.7639 78.1693 77.3894 78.5434 77.6887 78.6935C86.4417 87.0158 94.5205 96.3112 101.776 106.13C105.44 111.152 108.956 116.473 112.396 121.569C115.537 126.516 118.154 132.136 122.118 136.558C122.193 136.783 122.642 136.634 122.493 136.184Z" fill="#EDF6FF"/>
<path d="M121.744 136.184C123.553 113.117 118.252 89.6694 106.586 69.5853C106.511 69.3606 106.062 69.5099 106.137 69.7347C117.803 89.8187 123.029 113.042 121.22 136.108C121.37 136.558 121.894 136.633 121.744 136.184Z" fill="#EDF6FF"/>
<path d="M122.043 137.083C127.064 125.928 129.99 113.723 129.922 101.515C129.85 95.2982 129.105 89.3058 128.285 83.0885C127.465 76.8713 126.346 70.504 124.553 64.3606C124.478 64.1359 124.029 64.2852 124.104 64.51C126.121 70.5786 127.166 76.7212 127.761 83.0131C128.581 89.2303 129.476 95.6723 129.398 102.188C129.391 114.172 126.316 125.927 121.444 136.782C121.295 137.082 121.893 137.382 122.043 137.083Z" fill="#EDF6FF"/>
<path d="M123.611 144.05C128.201 142.524 130.683 137.563 129.156 132.971C127.629 128.378 122.671 125.891 118.081 127.417C113.492 128.943 111.009 133.903 112.536 138.496C114.063 143.089 119.022 145.575 123.611 144.05Z" fill="#EDF6FF"/>
<path d="M28.7774 140.883C31.0101 140.141 32.2178 137.728 31.475 135.493C30.7321 133.259 28.3199 132.049 26.0872 132.792C23.8545 133.534 22.6468 135.947 23.3896 138.182C24.1325 140.416 26.5447 141.626 28.7774 140.883Z" fill="#AD1B1E"/>
<path d="M28.8723 104.409C31.105 103.666 32.3127 101.253 31.5698 99.0189C30.8269 96.7845 28.4148 95.5749 26.1821 96.3172C23.9494 97.0595 22.7416 99.4726 23.4845 101.707C24.2274 103.941 26.6396 105.151 28.8723 104.409Z" fill="#AD1B1E"/>
<path d="M49.4029 64.8841C51.6356 64.1418 52.8433 61.7287 52.1005 59.4942C51.3576 57.2598 48.9454 56.0502 46.7127 56.7925C44.48 57.5348 43.2723 59.9479 44.0151 62.1824C44.758 64.4168 47.1702 65.6264 49.4029 64.8841Z" fill="#AD1B1E"/>
<path d="M91.1795 46.5016C93.4122 45.7593 94.6199 43.3462 93.8771 41.1118C93.1342 38.8774 90.722 37.6678 88.4893 38.4101C86.2566 39.1524 85.0489 41.5655 85.7917 43.7999C86.5346 46.0343 88.9468 47.2439 91.1795 46.5016Z" fill="#AD1B1E"/>
<path d="M137.436 48.3457C139.669 47.6034 140.877 45.1903 140.134 42.9559C139.391 40.7215 136.979 39.5119 134.746 40.2542C132.513 40.9965 131.305 43.4096 132.048 45.644C132.791 47.8784 135.203 49.088 137.436 48.3457Z" fill="#AD1B1E"/>
</g>
<defs>
<clipPath id="clip0_10604_14921">
<rect width="215" height="321" fill="white" transform="translate(0 67.8301) rotate(-18.3904)"/>
</clipPath>
</defs>
</svg>
