<svg width="245" height="327" viewBox="0 0 245 327" fill="none" xmlns="http://www.w3.org/2000/svg">
<g clip-path="url(#clip0_10604_12687)">
<path d="M138.733 20.6257C138.57 20.6257 138.408 20.5715 138.246 20.49C137.813 20.2186 137.678 19.6487 137.948 19.2145L144.79 8.27741C145.061 7.84318 145.629 7.70749 146.061 7.97888C146.494 8.25027 146.629 8.82019 146.359 9.25442L139.517 20.1915C139.328 20.4629 139.03 20.6257 138.733 20.6257Z" fill="#0A1723"/>
<path d="M134.054 20.0016C133.973 20.0016 133.892 20.0016 133.811 19.9744C133.324 19.8387 133.054 19.3231 133.189 18.8346L137.245 4.77649C137.381 4.28799 137.894 4.01659 138.381 4.15229C138.868 4.28799 139.138 4.80363 139.003 5.29214L134.947 19.3502C134.811 19.7302 134.46 20.0016 134.054 20.0016Z" fill="#0A1723"/>
<path d="M127.51 18.726C127.023 18.726 126.617 18.3461 126.59 17.8576L125.968 5.67206C125.941 5.15642 126.32 4.72219 126.834 4.72219C127.32 4.69505 127.78 5.075 127.78 5.59065L128.402 17.7761C128.429 18.2918 128.051 18.726 127.537 18.726C127.537 18.726 127.537 18.726 127.51 18.726Z" fill="#0A1723"/>
<path d="M147.468 35.9595L154.012 39.7047L144.953 42.5272L147.468 35.9595Z" fill="#0A1723"/>
<path d="M95.0036 95.2857C95.0036 95.2857 70.6915 70.8875 57.6025 70.4262C44.5135 69.9648 29.1799 76.0711 18.3355 97.1583C10.8174 111.813 5.73322 131.869 2.00123 154.395C-1.73076 176.92 -1.27103 214.888 12.7375 214.427C26.746 213.965 29.0987 164.246 29.0987 164.246C29.0987 164.246 27.2327 202.241 37.969 201.78C48.7052 201.318 51.058 186.772 51.9775 177.382C52.924 167.992 56.656 139.848 56.656 139.848C56.656 139.848 53.8435 174.559 64.6068 173.609C75.343 172.659 76.7493 125.763 76.7493 125.763C76.7493 125.763 76.2895 142.644 83.2938 141.721C90.298 140.771 95.923 108.421 95.923 108.421L95.0036 95.2857Z" fill="#EDF6FF"/>
<path d="M98.2758 74.6599C98.2758 74.6599 91.7313 84.5114 91.2715 108.421C90.8118 132.331 98.5192 160.23 107.173 168.453C120.262 180.883 136.623 187.695 150.632 187.695C164.64 187.695 187.086 189.567 195.957 201.291C204.827 213.015 205.773 227.562 206.233 240.697C206.693 253.833 197.823 287.594 198.282 298.857C198.742 310.119 200.608 322.305 214.184 325.127C227.733 327.95 231.951 296.523 231.951 296.523C231.951 296.523 226.813 326.539 245.96 327C265.134 327.461 256.236 275.408 256.236 275.408C256.236 275.408 259.509 314.326 277.736 310.581C295.963 306.836 281.955 253.833 281.955 253.833C281.955 253.833 286.173 281.026 302.508 278.692C318.869 276.358 310.459 231.334 303.914 216.299C297.369 201.291 280.548 181.588 266.053 173.148C251.558 164.708 236.603 161.885 224.001 152.522C211.371 143.132 204.827 129.074 198.282 115.939C191.738 102.803 140.328 68.5536 140.328 68.5536L98.2758 74.6599Z" fill="#E92438"/>
<path d="M149.604 73.3844C144.574 93.6302 162.801 128.803 177.946 126.821C193.09 124.867 174.024 94.4444 174.024 94.4444C174.024 94.4444 197.471 131.218 207.748 125.329C217.997 119.44 199.445 93.4402 199.445 93.4402C199.445 93.4402 224.379 136.103 240.984 128.748C257.589 121.394 228.274 93.9287 228.274 93.9287C228.274 93.9287 270.299 138.763 285.092 125.193C289.689 120.959 281.279 103.699 267.108 89.885C257.697 80.6848 205.503 46.3537 174.917 45.3496C162.639 44.9697 153.525 57.6979 149.604 73.3844Z" fill="#EDF6FF"/>
<path d="M113.691 35.2538C113.691 35.2538 102.467 49.8004 98.2758 61.5245C94.084 73.2486 90.7847 87.7952 97.816 90.5906C104.82 93.413 110.905 80.7391 110.905 80.7391C110.905 80.7391 110.905 95.747 121.641 95.2857C132.378 94.8243 131.918 75.1212 131.918 75.1212C131.918 75.1212 135.19 89.1793 142.194 86.8454C149.199 84.5114 148.739 76.9938 146.413 69.9648C144.087 62.9357 133.784 46.0552 133.784 46.0552L113.691 35.2538Z" fill="#EDF6FF"/>
<path d="M126.888 53.4642C115.692 52.5415 110.067 42.8257 110.689 33.4627C111.311 24.0725 123.156 12.8369 133.73 15.9579C144.331 19.0789 149.794 26.2165 148.685 35.9595C146.846 52.2158 134.379 54.0884 126.888 53.4642Z" fill="#E92438"/>
<path d="M101.142 82.7203C103.398 82.7203 105.226 80.7276 105.226 78.2694C105.226 75.8113 103.398 73.8186 101.142 73.8186C98.8871 73.8186 97.0588 75.8113 97.0588 78.2694C97.0588 80.7276 98.8871 82.7203 101.142 82.7203Z" fill="#E92438"/>
<path d="M119.829 90.9163C122.085 90.9163 123.913 88.9236 123.913 86.4655C123.913 84.0073 122.085 82.0146 119.829 82.0146C117.574 82.0146 115.746 84.0073 115.746 86.4655C115.746 88.9236 117.574 90.9163 119.829 90.9163Z" fill="#E92438"/>
<path d="M138.516 78.975C140.772 78.975 142.6 76.9823 142.6 74.5242C142.6 72.0661 140.772 70.0734 138.516 70.0734C136.261 70.0734 134.433 72.0661 134.433 74.5242C134.433 76.9823 136.261 78.975 138.516 78.975Z" fill="#E92438"/>
<path d="M273.057 110.266C267.514 120.281 228.49 96.8597 235.143 83.3444C241.822 69.8291 278.412 100.632 273.057 110.266Z" fill="#E92438"/>
<path d="M13.711 196.922C2.81247 197.682 1.13577 154.096 15.3877 152.386C29.6666 150.677 24.1768 196.189 13.711 196.922Z" fill="#E92438"/>
<path d="M207.991 84.9456C198.958 93.1959 226.543 124.569 234.331 116.291C242.093 108.014 216.401 77.2381 207.991 84.9456Z" fill="#E92438"/>
<path d="M43.7021 137.84C32.0464 137.568 30.4508 177.544 41.2682 176.975C52.1126 176.405 54.6006 138.111 43.7021 137.84Z" fill="#E92438"/>
<path d="M183.679 85.6784C174.998 91.2962 193.631 121.421 201.284 115.613C208.937 109.778 191.792 80.4406 183.679 85.6784Z" fill="#E92438"/>
<path d="M67.3111 119.467C57.7377 119.657 57.305 152.794 66.2023 151.925C75.0725 151.03 76.2624 119.277 67.3111 119.467Z" fill="#E92438"/>
<path d="M160.692 90.482C153.282 95.2585 169.157 120.905 175.674 115.939C182.191 110.999 167.588 86.0312 160.692 90.482Z" fill="#E92438"/>
<path d="M84.5918 102.233C76.1813 102.125 75.343 130.974 83.1585 130.485C90.9741 129.97 92.4614 102.342 84.5918 102.233Z" fill="#E92438"/>
<path d="M246.284 91.1605C243.039 95.937 259.292 108.312 262.7 103.563C266.107 98.8137 249.827 85.9769 246.284 91.1605Z" fill="#EDF6FF"/>
<path d="M15.036 165.061C9.51918 165.061 8.57266 184.628 14.1436 184.764C19.6875 184.899 21.0126 165.061 15.036 165.061Z" fill="#EDF6FF"/>
<path d="M213.264 92.626C210.506 96.5612 223.487 113.822 228.057 109.751C232.655 105.707 216.888 87.4967 213.264 92.626Z" fill="#EDF6FF"/>
<path d="M42.35 148.316C38.618 149.293 36.9954 166.879 41.8361 166.797C46.7039 166.716 47.1907 147.04 42.35 148.316Z" fill="#EDF6FF"/>
<path d="M186.519 91.8662C182.246 95.2043 193.306 112.926 197.687 110.538C202.041 108.204 190.791 88.5281 186.519 91.8662Z" fill="#EDF6FF"/>
<path d="M67.4733 127.391C62.903 127.527 61.686 145.14 65.8507 145.71C70.0154 146.28 72.0437 127.256 67.4733 127.391Z" fill="#EDF6FF"/>
<path d="M163.802 95.2314C160.557 97.8368 166.723 112.546 171.293 109.941C175.863 107.335 167.074 92.626 163.802 95.2314Z" fill="#EDF6FF"/>
<path d="M84.3214 110.049C80.373 110.565 78.2096 125.682 83.2126 125.817C88.2427 125.926 88.2697 109.534 84.3214 110.049Z" fill="#EDF6FF"/>
<path d="M101.359 76.641C99.0059 76.641 99.0059 80.3048 101.359 80.3048C103.711 80.3048 103.711 76.641 101.359 76.641Z" fill="#EDF6FF"/>
<path d="M119.424 84.4572C117.071 84.4572 117.071 88.1209 119.424 88.1209C121.777 88.1209 121.777 84.4572 119.424 84.4572Z" fill="#EDF6FF"/>
<path d="M139.057 72.2716C136.705 72.2716 136.705 75.9354 139.057 75.9354C141.41 75.9354 141.41 72.2716 139.057 72.2716Z" fill="#EDF6FF"/>
<path d="M15.1442 172.66C15.009 172.632 14.8738 172.605 14.7386 172.605C14.4411 172.605 14.1977 172.659 13.9543 172.768C13.738 172.877 13.5487 173.012 13.4134 173.175C13.3864 173.229 13.3323 173.257 13.3053 173.311C13.17 173.501 13.0889 173.718 13.0348 173.935C12.9267 174.369 12.9537 174.858 13.143 175.265C13.1971 175.373 13.2512 175.455 13.3053 175.563C13.3323 175.618 13.3593 175.645 13.4134 175.699C13.6298 175.97 13.9273 176.16 14.3329 176.242C14.4681 176.269 14.6033 176.296 14.7386 176.296C15.3335 176.296 15.7662 176.079 16.0637 175.726C16.1448 175.645 16.1989 175.536 16.253 175.455C16.3341 175.319 16.3882 175.156 16.4423 174.993C16.6857 174.016 16.253 172.904 15.1442 172.66Z" fill="#E92438"/>
<path d="M42.7826 155.426C40.4299 155.426 40.4299 159.09 42.7826 159.09C45.1354 159.09 45.1354 155.426 42.7826 155.426Z" fill="#E92438"/>
<path d="M66.4456 135.099C64.0928 135.099 64.0928 138.763 66.4456 138.763C68.7984 138.763 68.7984 135.099 66.4456 135.099Z" fill="#E92438"/>
<path d="M83.5912 116.671C81.2385 116.671 81.2385 120.335 83.5912 120.335C85.944 120.335 85.944 116.671 83.5912 116.671Z" fill="#E92438"/>
<path d="M168.048 101.826C165.587 101.826 165.587 105.653 168.048 105.653C170.509 105.653 170.509 101.826 168.048 101.826Z" fill="#E92438"/>
<path d="M192.252 100.279C189.791 100.279 189.791 104.106 192.252 104.106C194.713 104.106 194.713 100.279 192.252 100.279Z" fill="#E92438"/>
<path d="M220.945 100.008C218.511 100.415 219.16 104.214 221.594 103.78C224.028 103.373 223.379 99.6008 220.945 100.008Z" fill="#E92438"/>
<path d="M205.449 54.0613C202.988 54.0613 202.988 57.8879 205.449 57.8879C207.91 57.915 207.91 54.0613 205.449 54.0613Z" fill="#E92438"/>
<path d="M200.338 60.7375C197.877 60.7375 197.877 64.5642 200.338 64.5642C202.799 64.5913 202.826 60.7375 200.338 60.7375Z" fill="#E92438"/>
<path d="M190.088 68.1465C187.627 68.1465 187.627 71.9731 190.088 71.9731C192.549 72.0002 192.549 68.1465 190.088 68.1465Z" fill="#E92438"/>
<path d="M177.892 74.09C175.431 74.09 175.431 77.9166 177.892 77.9166C180.353 77.9437 180.353 74.09 177.892 74.09Z" fill="#E92438"/>
<path d="M164.694 74.2528C162.234 74.2528 162.234 78.0794 164.694 78.0794C167.155 78.0794 167.155 74.2528 164.694 74.2528Z" fill="#E92438"/>
<path d="M153.174 71.4032C150.713 71.4032 150.713 75.2298 153.174 75.2298C155.635 75.257 155.662 71.4032 153.174 71.4032Z" fill="#E92438"/>
<path d="M20.0391 106.657C17.6863 106.657 17.6863 110.321 20.0391 110.321C22.3919 110.321 22.3919 106.657 20.0391 106.657Z" fill="#E92438"/>
<path d="M29.9911 108.53C27.6384 108.53 27.6384 112.193 29.9911 112.193C32.3439 112.193 32.371 108.53 29.9911 108.53Z" fill="#E92438"/>
<path d="M40.2946 106.657C37.9418 106.657 37.9418 110.321 40.2946 110.321C42.6474 110.321 42.6474 106.657 40.2946 106.657Z" fill="#E92438"/>
<path d="M50.2466 101.962C47.8939 101.962 47.8939 105.626 50.2466 105.626C52.5994 105.626 52.5994 101.962 50.2466 101.962Z" fill="#E92438"/>
<path d="M57.4131 95.7198C55.0604 95.7198 55.0604 99.3836 57.4131 99.3836C59.7659 99.3836 59.7659 95.7198 57.4131 95.7198Z" fill="#E92438"/>
<path d="M63.3356 88.2024C60.9829 88.2024 60.9829 91.8662 63.3356 91.8662C65.6884 91.8662 65.6884 88.2024 63.3356 88.2024Z" fill="#E92438"/>
<path d="M68.0142 79.4635C65.6614 79.4635 65.6614 83.1273 68.0142 83.1273C70.367 83.1273 70.367 79.4635 68.0142 79.4635Z" fill="#E92438"/>
<path d="M41.3764 99.4379C46.4545 99.4379 50.5712 95.3067 50.5712 90.2106C50.5712 85.1145 46.4545 80.9833 41.3764 80.9833C36.2983 80.9833 32.1816 85.1145 32.1816 90.2106C32.1816 95.3067 36.2983 99.4379 41.3764 99.4379Z" fill="#E92438"/>
<path d="M41.2141 95.5299C44.1415 95.5299 46.5146 93.1484 46.5146 90.2106C46.5146 87.2729 44.1415 84.8914 41.2141 84.8914C38.2867 84.8914 35.9136 87.2729 35.9136 90.2106C35.9136 93.1484 38.2867 95.5299 41.2141 95.5299Z" fill="#EDF6FF"/>
<path d="M174.701 68.5536C180.003 68.5536 184.301 64.2401 184.301 58.9192C184.301 53.5983 180.003 49.2848 174.701 49.2848C169.398 49.2848 165.1 53.5983 165.1 58.9192C165.1 64.2401 169.398 68.5536 174.701 68.5536Z" fill="#E92438"/>
<path d="M174.538 64.157C177.6 64.157 180.082 61.6661 180.082 58.5934C180.082 55.5208 177.6 53.0299 174.538 53.0299C171.476 53.0299 168.994 55.5208 168.994 58.5934C168.994 61.6661 171.476 64.157 174.538 64.157Z" fill="#EDF6FF"/>
<path d="M174.268 56.938C171.807 56.938 171.807 60.7646 174.268 60.7646C176.729 60.7646 176.729 56.938 174.268 56.938Z" fill="#E92438"/>
<path d="M41.133 88.5281C38.7802 88.5281 38.7802 92.1919 41.133 92.1919C43.4858 92.1919 43.4858 88.5281 41.133 88.5281Z" fill="#E92438"/>
<path d="M105.767 104.73C105.767 104.73 99.0059 146.09 113.069 141.965C127.131 137.813 105.767 104.73 105.767 104.73Z" fill="#EDF6FF"/>
<path d="M137.164 94.1187C137.164 94.1187 137.489 133.199 149.631 127.88C163.586 121.773 137.164 94.1187 137.164 94.1187Z" fill="#EDF6FF"/>
<path d="M138.408 137.568C138.408 137.568 147.143 180.394 160.205 172.279C173.321 164.138 138.408 137.568 138.408 137.568Z" fill="#EDF6FF"/>
<path d="M186.086 141.314C186.086 141.314 197.309 181.968 211.939 174.451C226.597 166.96 186.086 141.314 186.086 141.314Z" fill="#EDF6FF"/>
<path d="M125.184 119.141C127.514 119.141 129.403 117.246 129.403 114.907C129.403 112.569 127.514 110.674 125.184 110.674C122.854 110.674 120.965 112.569 120.965 114.907C120.965 117.246 122.854 119.141 125.184 119.141Z" fill="#EDF6FF"/>
<path d="M164.749 139.143C167.079 139.143 168.967 137.247 168.967 134.909C168.967 132.571 167.079 130.675 164.749 130.675C162.419 130.675 160.53 132.571 160.53 134.909C160.53 137.247 162.419 139.143 164.749 139.143Z" fill="#EDF6FF"/>
<path d="M180.948 179.471C183.277 179.471 185.166 177.576 185.166 175.238C185.166 172.899 183.277 171.004 180.948 171.004C178.618 171.004 176.729 172.899 176.729 175.238C176.729 177.576 178.618 179.471 180.948 179.471Z" fill="#EDF6FF"/>
<path d="M233.899 179.471C236.229 179.471 238.117 177.576 238.117 175.238C238.117 172.899 236.229 171.004 233.899 171.004C231.569 171.004 229.68 172.899 229.68 175.238C229.68 177.576 231.569 179.471 233.899 179.471Z" fill="#EDF6FF"/>
<path d="M122.696 161.342C125.026 161.342 126.915 159.447 126.915 157.109C126.915 154.771 125.026 152.875 122.696 152.875C120.366 152.875 118.477 154.771 118.477 157.109C118.477 159.447 120.366 161.342 122.696 161.342Z" fill="#EDF6FF"/>
<path d="M213.508 313.919C218.676 313.919 222.865 309.715 222.865 304.529C222.865 299.343 218.676 295.139 213.508 295.139C208.34 295.139 204.151 299.343 204.151 304.529C204.151 309.715 208.34 313.919 213.508 313.919Z" fill="#EDF6FF"/>
<path d="M244.662 314.842C249.83 314.842 254.019 310.637 254.019 305.451C254.019 300.265 249.83 296.061 244.662 296.061C239.494 296.061 235.305 300.265 235.305 305.451C235.305 310.637 239.494 314.842 244.662 314.842Z" fill="#EDF6FF"/>
<path d="M217.024 217.358C208.91 218.769 219.349 259.831 219.349 259.831C219.349 259.831 230.951 214.942 217.024 217.358Z" fill="#EDF6FF"/>
<path d="M235.007 200.721C223.108 203.272 243.12 254.484 243.12 254.484C243.12 254.484 248.096 197.899 235.007 200.721Z" fill="#EDF6FF"/>
<path d="M253.37 192.58C242.931 194.724 261.483 238.228 261.483 238.228C261.483 238.228 267.081 189.784 253.37 192.58Z" fill="#EDF6FF"/>
<path d="M214.752 298.558C214.698 298.558 214.644 298.558 214.617 298.558C214.13 298.477 213.778 298.015 213.859 297.5C213.913 297.201 218.646 267.837 218.43 259.858C218.213 251.96 217.618 249.11 217.591 249.083C217.483 248.595 217.808 248.106 218.294 247.998C218.781 247.889 219.268 248.188 219.376 248.703C219.403 248.812 220.025 251.689 220.242 259.83C220.458 267.972 215.834 296.604 215.644 297.825C215.59 298.232 215.184 298.558 214.752 298.558Z" fill="#EDF6FF"/>
<path d="M243.418 300.756C243.391 300.756 243.364 300.756 243.337 300.756C242.823 300.702 242.471 300.268 242.498 299.752C242.525 299.562 244.04 281.271 244.04 273.889C244.04 266.534 242.201 254.756 242.174 254.647L239.361 239.042C239.28 238.553 239.605 238.065 240.091 237.984C240.578 237.902 241.065 238.228 241.146 238.716L243.959 254.348C244.04 254.864 245.852 266.398 245.852 273.889C245.852 281.352 244.31 299.725 244.283 299.915C244.283 300.377 243.878 300.756 243.418 300.756Z" fill="#EDF6FF"/>
<path d="M109.445 125.383C105.01 125.736 108.201 139.143 111.933 138.518C115.692 137.867 113.501 125.057 109.445 125.383Z" fill="#E92438"/>
<path d="M145.277 113.306C140.599 114.527 145.385 125.573 148.685 124.243C151.984 122.94 149.55 112.221 145.277 113.306Z" fill="#E92438"/>
<path d="M148.171 153.988C145.845 155.779 152.39 169.186 155.824 166.526C159.232 163.866 152.146 150.948 148.171 153.988Z" fill="#E92438"/>
<path d="M197.092 156.81C194.145 159.497 204.205 172.822 207.207 169.593C210.181 166.363 201.014 153.228 197.092 156.81Z" fill="#E92438"/>
<path d="M218.484 223.22C214.806 223.871 219.43 245.094 219.43 245.094C219.43 245.094 225.65 221.971 218.484 223.22Z" fill="#E92438"/>
<path d="M236.251 206.339C229.653 206.611 240.308 234.781 240.308 234.781C240.308 234.781 243.715 206.041 236.251 206.339Z" fill="#E92438"/>
<path d="M213.508 309.522C215.912 309.522 217.862 307.493 217.862 304.99C217.862 302.487 215.912 300.458 213.508 300.458C211.103 300.458 209.154 302.487 209.154 304.99C209.154 307.493 211.103 309.522 213.508 309.522Z" fill="#E92438"/>
<path d="M244.662 309.848C247.067 309.848 249.016 307.819 249.016 305.316C249.016 302.813 247.067 300.784 244.662 300.784C242.257 300.784 240.308 302.813 240.308 305.316C240.308 307.819 242.257 309.848 244.662 309.848Z" fill="#E92438"/>
<path d="M136.407 38.1577C139.768 38.1577 142.492 35.4238 142.492 32.0514C142.492 28.679 139.768 25.9451 136.407 25.9451C133.047 25.9451 130.322 28.679 130.322 32.0514C130.322 35.4238 133.047 38.1577 136.407 38.1577Z" fill="white"/>
<path d="M136.407 35.1724C138.214 35.1724 139.679 33.7751 139.679 32.0514C139.679 30.3277 138.214 28.9304 136.407 28.9304C134.6 28.9304 133.135 30.3277 133.135 32.0514C133.135 33.7751 134.6 35.1724 136.407 35.1724Z" fill="#0A1723"/>
<path d="M126.888 7.49042C128.605 7.49042 129.998 6.0931 129.998 4.36942C129.998 2.64574 128.605 1.24841 126.888 1.24841C125.17 1.24841 123.778 2.64574 123.778 4.36942C123.778 6.0931 125.17 7.49042 126.888 7.49042Z" fill="#E92438"/>
<path d="M138.111 6.24201C139.828 6.24201 141.221 4.84469 141.221 3.12101C141.221 1.39732 139.828 0 138.111 0C136.393 0 135.001 1.39732 135.001 3.12101C135.001 4.84469 136.393 6.24201 138.111 6.24201Z" fill="#E92438"/>
<path d="M146.197 10.6114C147.914 10.6114 149.307 9.21408 149.307 7.49039C149.307 5.76671 147.914 4.36938 146.197 4.36938C144.479 4.36938 143.087 5.76671 143.087 7.49039C143.087 9.21408 144.479 10.6114 146.197 10.6114Z" fill="#E92438"/>
<path d="M112.879 71.9459C110.526 71.9459 110.526 75.6097 112.879 75.6097C115.232 75.6097 115.232 71.9459 112.879 71.9459Z" fill="#0A1723"/>
<path d="M129.376 69.7748C127.023 69.7748 127.023 73.4386 129.376 73.4386C131.728 73.4386 131.755 69.7748 129.376 69.7748Z" fill="#0A1723"/>
<path d="M120.965 61.3074C118.612 61.3074 118.612 64.9712 120.965 64.9712C123.318 64.9983 123.318 61.3074 120.965 61.3074Z" fill="#0A1723"/>
<path d="M110.689 130.729C108.336 130.729 108.336 134.393 110.689 134.393C113.041 134.393 113.041 130.729 110.689 130.729Z" fill="#0A1723"/>
<path d="M147.143 116.97C144.79 116.97 144.79 120.634 147.143 120.634C149.496 120.634 149.496 116.97 147.143 116.97Z" fill="#0A1723"/>
<path d="M153.066 158.873C150.713 158.873 150.713 162.537 153.066 162.537C155.419 162.537 155.419 158.873 153.066 158.873Z" fill="#0A1723"/>
<path d="M202.907 162.618C200.554 162.618 200.554 166.282 202.907 166.282C205.26 166.282 205.26 162.618 202.907 162.618Z" fill="#0A1723"/>
<path d="M237.495 211.387C235.143 211.387 235.143 215.051 237.495 215.051C239.848 215.051 239.848 211.387 237.495 211.387Z" fill="#0A1723"/>
<path d="M219.43 227.019C217.078 227.019 217.078 230.683 219.43 230.683C221.783 230.683 221.783 227.019 219.43 227.019Z" fill="#0A1723"/>
<path d="M244.662 303.633C242.309 303.633 242.309 307.297 244.662 307.297C247.015 307.297 247.015 303.633 244.662 303.633Z" fill="#0A1723"/>
<path d="M213.508 303.009C211.155 303.009 211.155 306.673 213.508 306.673C215.861 306.673 215.861 303.009 213.508 303.009Z" fill="#0A1723"/>
<path d="M131.566 127.283C129.213 127.283 129.213 130.947 131.566 130.947C133.919 130.947 133.919 127.283 131.566 127.283Z" fill="#0A1723"/>
<path d="M137.489 171.058C135.136 171.058 135.136 174.722 137.489 174.722C139.841 174.722 139.841 171.058 137.489 171.058Z" fill="#0A1723"/>
<path d="M165.208 179.2C162.855 179.2 162.855 182.864 165.208 182.864C167.561 182.864 167.561 179.2 165.208 179.2Z" fill="#0A1723"/>
<path d="M174.863 153.553C172.51 153.553 172.51 157.217 174.863 157.217C177.216 157.217 177.216 153.553 174.863 153.553Z" fill="#0A1723"/>
<path d="M200.419 137.596C198.066 137.596 198.066 141.259 200.419 141.259C202.772 141.287 202.772 137.596 200.419 137.596Z" fill="#0A1723"/>
<path d="M197.931 184.492C195.578 184.492 195.578 188.156 197.931 188.156C200.284 188.183 200.284 184.492 197.931 184.492Z" fill="#0A1723"/>
<path d="M106.335 92.2732C103.982 92.2732 103.982 95.937 106.335 95.937C108.687 95.937 108.687 92.2732 106.335 92.2732Z" fill="#0A1723"/>
<path d="M105.091 147.61C102.738 147.61 102.738 151.274 105.091 151.274C107.444 151.274 107.444 147.61 105.091 147.61Z" fill="#0A1723"/>
<path d="M218.186 153.228C215.834 153.228 215.834 156.892 218.186 156.892C220.539 156.919 220.539 153.228 218.186 153.228Z" fill="#0A1723"/>
<path d="M146.521 90.4006C144.168 90.4006 144.168 94.0644 146.521 94.0644C148.874 94.0644 148.874 90.4006 146.521 90.4006Z" fill="#0A1723"/>
<path d="M96.6802 115.097C94.3275 115.097 94.3275 118.761 96.6802 118.761C99.033 118.761 99.033 115.097 96.6802 115.097Z" fill="#0A1723"/>
<path d="M220.972 186.066C218.619 186.066 218.619 189.73 220.972 189.73C223.325 189.73 223.325 186.066 220.972 186.066Z" fill="#0A1723"/>
<path d="M152.444 136.971C150.091 136.971 150.091 140.635 152.444 140.635C154.797 140.662 154.797 136.971 152.444 136.971Z" fill="#0A1723"/>
<path d="M130.944 146.362C128.591 146.362 128.591 150.025 130.944 150.025C133.297 150.025 133.297 146.362 130.944 146.362Z" fill="#0A1723"/>
<path d="M124.724 102.586C122.372 102.586 122.372 106.25 124.724 106.25C127.077 106.25 127.077 102.586 124.724 102.586Z" fill="#0A1723"/>
<path d="M176.729 130.729C174.376 130.729 174.376 134.393 176.729 134.393C179.081 134.393 179.109 130.729 176.729 130.729Z" fill="#0A1723"/>
<path d="M23.1491 113.523C20.7963 113.523 20.7963 117.187 23.1491 117.187C25.5019 117.214 25.5019 113.523 23.1491 113.523Z" fill="#0A1723"/>
<path d="M36.8602 114.147C34.5074 114.147 34.5074 117.811 36.8602 117.811C39.2129 117.838 39.2129 114.147 36.8602 114.147Z" fill="#0A1723"/>
<path d="M48.7051 110.104C46.3524 110.104 46.3524 113.767 48.7051 113.767C51.0579 113.767 51.0579 110.104 48.7051 110.104Z" fill="#0A1723"/>
<path d="M58.3597 104.16C56.0069 104.16 56.0069 107.824 58.3597 107.824C60.7125 107.824 60.7125 104.16 58.3597 104.16Z" fill="#0A1723"/>
<path d="M65.5262 97.2668C63.1734 97.2668 63.1734 100.931 65.5262 100.931C67.879 100.958 67.879 97.2668 65.5262 97.2668Z" fill="#0A1723"/>
<path d="M71.4487 88.8265C69.0959 88.8265 69.0959 92.4903 71.4487 92.4903C73.8014 92.4903 73.8014 88.8265 71.4487 88.8265Z" fill="#0A1723"/>
<path d="M76.4247 82.2589C74.072 82.2589 74.072 85.9227 76.4247 85.9227C78.7775 85.9498 78.7775 82.2589 76.4247 82.2589Z" fill="#0A1723"/>
<path d="M14.1166 111.976C11.7639 111.976 11.7639 115.64 14.1166 115.64C16.4694 115.64 16.4694 111.976 14.1166 111.976Z" fill="#0A1723"/>
<path d="M157.149 79.9249C154.688 79.9249 154.688 83.7516 157.149 83.7516C159.61 83.7516 159.61 79.9249 157.149 79.9249Z" fill="#0A1723"/>
<path d="M172.05 81.0105C169.589 81.0105 169.589 84.8371 172.05 84.8371C174.511 84.8643 174.511 81.0105 172.05 81.0105Z" fill="#0A1723"/>
<path d="M189.088 77.2382C186.627 77.2382 186.627 81.0648 189.088 81.0648C191.548 81.0919 191.548 77.2382 189.088 77.2382Z" fill="#0A1723"/>
<path d="M200.554 70.7247C198.093 70.7247 198.093 74.5514 200.554 74.5514C203.015 74.5514 203.015 70.7247 200.554 70.7247Z" fill="#0A1723"/>
<path d="M211.642 60.3575C209.181 60.3575 209.181 64.1842 211.642 64.1842C214.103 64.1842 214.103 60.3575 211.642 60.3575Z" fill="#0A1723"/>
</g>
<defs>
<clipPath id="clip0_10604_12687">
<rect width="312" height="327" fill="white"/>
</clipPath>
</defs>
</svg>
