<svg width="212" height="302" viewBox="0 0 212 302" fill="none" xmlns="http://www.w3.org/2000/svg">
<g clip-path="url(#clip0_10604_13886)">
<path d="M60.9274 281.523C60.7659 281.098 61.3291 280.787 61.6343 281.206C66.0196 289.809 71.9624 297.772 80.1047 303.197C87.5047 308.076 96.2535 310.74 105.063 311.386C123.264 312.798 140.69 305.89 154.933 295.081C170.577 283.351 182.462 267.744 192.138 250.931C201.281 235.149 210.071 217.797 226.379 208.2C242.123 198.913 261.086 197.846 278.867 199.562C266.579 184.373 249.019 174.008 229.982 169.751C220.388 167.553 210.428 166.955 200.677 167.932C189.926 169.094 179.7 172.538 169.959 177.258C159.661 182.433 149.985 188.734 140.136 194.322C130.424 199.761 120.395 204.493 109.715 207.38C88.492 213.004 65.0813 210.942 46.9831 198.008C30.8068 186.29 21.3312 165.945 25.7024 146.183C26.1769 143.716 26.9449 141.38 27.8624 139.183C27.9885 138.746 28.719 139.004 28.593 139.441C20.6164 159.063 28.3237 181.928 44.2717 195.095C62.3088 210.049 87.1806 212.626 109.266 206.966C120.096 204.217 130.125 199.485 139.83 193.903C149.68 188.315 159.212 182.019 169.373 176.994C178.545 172.441 188.195 169.021 198.36 167.595C207.524 166.354 217.041 166.683 226.179 168.323C244.75 171.735 262.401 180.801 275.492 194.518C276.845 195.902 278.054 197.292 279.269 198.826C275.553 181.988 271.37 164.306 260.292 150.506C254.067 142.699 245.895 136.555 237.603 130.993C229.461 125.568 221.193 120.58 211.593 118.239C193.556 113.797 174.97 117.009 156.667 116.609C139.808 116.295 121.519 112.727 110.302 99.0771C99.8522 86.5478 96.9456 68.3809 103.386 53.4294C103.512 52.9923 104.243 53.2502 104.117 53.6874C97.9282 67.7646 100.362 84.943 109.651 97.2321C120.914 112.032 140.215 115.702 157.931 115.838C175.653 116.117 193.676 113.216 211.127 117.395C220.289 119.61 228.39 124.028 236.233 129.177C244.076 134.326 251.793 139.913 258.126 146.852C271.396 161.425 275.948 181.108 280.172 199.797C280.178 199.94 280.178 199.941 280.184 200.084C280.19 200.228 280.046 200.234 280.046 200.234C279.903 200.24 279.903 200.24 279.759 200.246C262.84 198.493 244.872 199.232 229.505 207.207C211.742 216.433 202.407 234.527 192.869 251.189C175.261 281.719 145.627 313.894 107.399 312.154C98.0198 311.676 88.7019 309.179 80.727 304.323C71.866 298.928 65.6238 290.689 60.9274 281.523Z" fill="#B1C0D9"/>
<path d="M253.101 199.758C247.241 193.807 240.134 189.06 232.908 184.893C225.244 180.601 215.897 177.385 207.845 181.172C206.856 181.644 205.874 182.261 205.185 183.009C203.95 184.5 203.889 186.518 204.253 188.375C205.132 192.226 208.424 195.259 212.089 196.836C215.753 198.413 219.802 198.823 223.7 199.094C233.522 199.843 243.326 200.159 253.101 199.758Z" fill="#B1C0D9"/>
<path d="M252.52 199.638C244.88 195.92 237.378 192.053 229.606 188.629C222.277 185.474 214.534 182.769 206.449 182.237C206.305 182.243 206.293 181.956 206.437 181.95C214.235 182.493 221.822 184.917 229.007 188.077C237.067 191.49 244.862 195.489 252.652 199.344C252.658 199.488 252.67 199.775 252.52 199.638Z" fill="white"/>
<path d="M252.376 199.643C239.626 197.72 227.146 195.353 215.009 190.812C211.356 189.523 207.835 187.94 204.32 186.5C204.177 186.506 204.308 186.213 204.458 186.351C212.667 189.901 221.003 193.014 229.584 195.109C237.147 196.958 244.831 198.226 252.514 199.494C252.514 199.494 252.52 199.638 252.376 199.643Z" fill="white"/>
<path d="M209.342 224.594C201.456 221.895 192.916 220.806 184.549 220.43C175.751 220.072 165.874 221.486 160.54 228.329C159.856 229.221 159.317 230.107 159.077 231.268C158.722 233.155 159.518 234.994 160.733 236.528C163.306 239.59 167.528 240.712 171.553 240.547C175.578 240.381 179.262 238.934 182.94 237.343C191.849 233.377 200.751 229.267 209.342 224.594Z" fill="#B1C0D9"/>
<path d="M208.911 224.612C203.216 222.686 197.137 221.928 191.077 221.602C184.728 221.287 177.714 222.295 173.741 227.21C173.189 227.808 172.788 228.545 172.673 229.27C172.439 230.575 172.929 231.995 173.833 232.966C175.653 235.195 178.713 236.077 181.582 235.815C184.457 235.697 187.146 234.578 189.836 233.46C196.36 231.032 202.86 228.029 208.911 224.612Z" fill="#627692"/>
<path d="M208.773 224.762C200.28 224.823 191.787 224.884 183.307 225.233C175.263 225.707 167.248 226.901 159.742 229.945C159.599 229.951 159.449 229.813 159.593 229.807C166.811 226.775 174.682 225.587 182.582 225.119C191.344 224.614 199.987 224.691 208.767 224.618C208.911 224.612 208.917 224.756 208.773 224.762Z" fill="white"/>
<path d="M208.629 224.768C196.409 228.726 184.171 232.253 171.275 233.791C167.406 234.238 163.531 234.541 159.794 234.695C159.65 234.701 159.638 234.413 159.782 234.407C168.688 233.897 177.433 232.962 186.136 231.02C193.696 229.269 201.231 226.944 208.623 224.624C208.761 224.474 208.773 224.762 208.629 224.768Z" fill="white"/>
<path d="M236.987 130.01C229.227 126.874 220.807 125.204 212.56 124.247C203.882 123.308 193.976 124.003 188.055 130.582C187.366 131.33 186.688 132.366 186.298 133.39C185.794 135.138 186.452 137.127 187.523 138.667C189.959 141.879 194.049 143.294 198.086 143.416C202.116 143.395 205.956 142.229 209.646 140.925C219.015 137.66 228.228 134.114 236.987 130.01Z" fill="#B1C0D9"/>
<path d="M236.7 130.022C231.137 127.803 225.04 126.614 219.106 125.85C212.883 125.098 205.708 125.681 201.435 130.32C200.884 130.918 200.476 131.511 200.224 132.385C199.846 133.697 200.336 135.117 201.102 136.237C202.778 138.472 205.85 139.642 208.587 139.673C211.468 139.699 214.169 138.868 216.865 137.893C223.682 135.597 230.343 133.019 236.7 130.022Z" fill="#627692"/>
<path d="M236.418 130.178C227.907 129.808 219.529 129.144 211.03 129.061C202.963 128.961 194.781 129.585 187.114 132.204C186.97 132.21 186.82 132.072 186.964 132.067C194.488 129.453 202.382 128.841 210.156 128.809C218.942 128.88 227.608 129.532 236.262 129.896C236.694 129.878 236.562 130.172 236.418 130.178Z" fill="white"/>
<path d="M236.274 130.184C223.881 133.429 211.32 136.105 198.383 136.637C194.502 136.796 190.615 136.812 186.871 136.822C186.728 136.828 186.716 136.541 186.86 136.535C195.79 136.599 204.558 136.239 213.429 134.866C221.155 133.685 228.709 131.791 236.262 129.896C236.406 129.89 236.418 130.178 236.274 130.184Z" fill="white"/>
<path d="M208.853 167.164C200.73 169.225 192.96 172.856 185.789 177.039C178.192 181.383 170.684 187.883 169.745 196.561C169.648 197.717 169.69 198.723 170.025 199.861C170.67 201.562 172.449 202.785 174.197 203.289C177.988 204.429 182.259 203.246 185.476 200.954C188.694 198.662 191.151 195.393 193.321 192.136C198.895 184.132 204.314 175.845 208.853 167.164Z" fill="#B1C0D9"/>
<path d="M208.577 167.463C202.731 168.855 197.225 171.529 192.019 174.479C186.531 177.584 181.108 182.271 180.506 188.631C180.392 189.356 180.427 190.218 180.744 190.925C181.229 192.201 182.414 193.016 183.726 193.394C186.498 194.288 189.481 193.302 191.86 191.62C194.239 189.938 195.869 187.568 197.499 185.197C201.449 179.707 205.376 173.642 208.577 167.463Z" fill="#627692"/>
<path d="M208.589 167.75C201.579 172.358 194.282 176.978 187.427 181.867C180.854 186.601 174.736 191.892 170.115 198.561C169.977 198.711 169.828 198.573 169.965 198.424C174.449 191.904 180.429 186.762 186.72 182.184C193.707 177.001 201.148 172.376 208.439 167.613C208.577 167.463 208.727 167.601 208.589 167.75Z" fill="white"/>
<path d="M208.445 167.756C200.216 177.742 191.826 187.302 181.79 195.346C178.722 197.776 175.648 200.062 172.575 202.348C172.437 202.498 172.281 202.216 172.425 202.21C179.699 197.016 186.523 191.407 192.744 185.104C198.275 179.549 203.213 173.587 208.152 167.624C208.433 167.469 208.583 167.607 208.445 167.756Z" fill="white"/>
<path d="M209.054 224.606C204.295 231.425 201.021 239.335 198.321 247.222C195.496 255.545 194.172 265.391 199.361 272.521C199.972 273.359 200.726 274.192 201.756 274.726C203.378 275.667 205.523 275.291 207.218 274.501C210.896 272.91 213.186 269.073 214.039 265.294C214.885 261.371 214.576 257.352 214.129 253.483C212.865 243.744 211.313 234.017 209.054 224.606Z" fill="#B1C0D9"/>
<path d="M209.066 224.894C205.668 229.785 203.167 235.503 201.385 241.192C199.327 247.18 198.467 254.271 202.135 259.448C202.596 260.149 203.195 260.7 203.788 261.108C204.967 261.779 206.542 261.57 207.669 260.948C210.215 259.836 211.971 257.028 212.578 254.267C213.184 251.506 212.922 248.637 212.66 245.768C211.796 238.748 210.787 231.734 209.066 224.894Z" fill="#627692"/>
<path d="M209.222 225.175C206.965 233.331 204.565 241.493 202.746 249.776C200.909 257.626 199.946 265.729 200.852 273.755C200.858 273.899 200.714 273.905 200.564 273.767C199.664 265.885 200.639 258.069 202.338 250.368C204.146 241.799 206.684 233.487 208.928 225.043C209.066 224.894 209.216 225.032 209.222 225.175Z" fill="white"/>
<path d="M209.228 225.319C209.754 238.112 209.705 250.929 207.637 263.685C207.072 267.452 206.219 271.231 205.367 275.01C205.373 275.153 205.079 275.021 205.217 274.872C207.163 266.153 208.677 257.451 209.029 248.509C209.429 240.718 209.253 232.949 208.934 225.187C208.928 225.044 209.222 225.175 209.228 225.319Z" fill="white"/>
<path d="M177.666 116.034C170.748 115.887 163.746 117.182 157.193 118.892C150.214 120.762 142.726 124.238 140.123 130.968C139.871 131.843 139.619 132.717 139.654 133.579C139.863 135.155 140.922 136.407 142.252 137.216C145.06 138.973 148.653 138.825 151.774 137.689C154.895 136.553 157.4 134.434 159.905 132.315C166.034 127.311 172.146 121.877 177.666 116.034Z" fill="#B1C0D9"/>
<path d="M177.384 116.19C172.485 116.103 167.34 117.035 162.637 118.236C157.654 119.593 152.286 122.117 150.325 126.949C150.061 127.536 149.947 128.261 149.97 128.836C150.018 129.986 150.921 130.956 151.808 131.496C153.729 132.713 156.466 132.744 158.593 131.937C160.863 131.124 162.673 129.609 164.483 128.095C169.078 124.307 173.381 120.386 177.384 116.19Z" fill="#627692"/>
<path d="M177.39 116.334C170.711 118.48 164.026 120.483 157.508 123.054C151.266 125.327 145.197 128.312 140.044 132.555C139.9 132.561 139.757 132.567 139.895 132.418C144.904 128.18 150.835 125.344 156.789 123.084C163.451 120.506 170.423 118.492 177.24 116.196C177.378 116.046 177.39 116.334 177.39 116.334Z" fill="white"/>
<path d="M177.246 116.339C168.57 122.456 159.739 128.29 149.98 132.579C147.009 133.853 144.032 134.983 141.054 136.114C140.911 136.12 140.905 135.976 141.048 135.97C147.854 133.386 154.647 130.515 160.974 126.8C166.599 123.545 171.776 119.876 177.097 116.202C177.24 116.196 177.39 116.334 177.246 116.339Z" fill="white"/>
<path d="M157.001 184.27C150.782 187.117 144.905 191.247 139.614 195.64C134.047 200.332 128.839 206.738 129.422 213.913C129.457 214.776 129.642 215.776 130.103 216.477C130.875 217.741 132.492 218.539 133.941 218.767C137.271 219.206 140.512 217.489 142.723 215.238C145.072 212.838 146.535 209.898 147.855 206.964C151.291 199.479 154.439 192.007 157.001 184.27Z" fill="#B1C0D9"/>
<path d="M156.869 184.563C152.346 186.621 148.146 189.529 144.389 192.708C140.35 196.041 136.652 200.657 137.009 205.826C137.038 206.545 137.206 207.114 137.517 207.677C138.133 208.659 139.163 209.193 140.319 209.289C142.636 209.626 145.033 208.376 146.693 206.724C148.353 205.072 149.414 202.868 150.332 200.671C152.712 195.533 155.081 190.108 156.869 184.563Z" fill="#627692"/>
<path d="M156.731 184.713C151.602 189.531 146.466 194.206 141.636 199.3C137.082 204.095 132.832 209.309 129.912 215.333C129.918 215.477 129.625 215.345 129.768 215.339C132.551 209.465 136.512 204.262 141.073 199.611C146.047 194.511 151.458 189.537 156.731 184.713C156.875 184.707 156.725 184.569 156.731 184.713Z" fill="white"/>
<path d="M156.737 184.857C151.503 194.143 146.114 203.148 139.102 211.211C137.04 213.6 134.835 215.994 132.624 218.245C132.486 218.395 132.48 218.251 132.474 218.107C137.586 212.858 142.398 207.332 146.468 201.261C150.137 195.927 153.362 190.323 156.443 184.725C156.581 184.575 156.731 184.713 156.737 184.857Z" fill="white"/>
<path d="M180.395 269.989C175.708 275.077 172.069 281.13 169.012 287.303C165.822 293.77 163.553 301.638 166.988 308.121C167.454 308.965 167.915 309.666 168.657 310.212C169.849 311.171 171.574 311.1 173.143 310.747C176.27 309.755 178.607 307.067 179.777 303.995C180.946 300.923 181.098 297.605 181.106 294.293C181.206 286.226 181.157 278.021 180.395 269.989Z" fill="#B1C0D9"/>
<path d="M180.269 270.426C176.967 274.161 174.263 278.448 172.14 282.855C169.886 287.555 168.248 293.238 170.593 297.749C170.904 298.312 171.215 298.876 171.808 299.283C172.7 299.966 173.993 299.913 174.988 299.584C177.264 298.915 178.906 296.832 179.824 294.634C180.742 292.436 180.785 289.987 180.834 287.681C180.891 282.063 180.793 276.164 180.269 270.426Z" fill="#627692"/>
<path d="M180.275 270.57C177.516 277.018 174.613 283.473 172.142 289.91C169.809 296.198 168.057 302.605 167.897 309.235C167.903 309.379 167.759 309.385 167.753 309.241C167.919 302.755 169.677 296.491 171.873 290.353C174.332 283.629 177.372 277.024 180.125 270.432C180.263 270.282 180.412 270.42 180.275 270.57Z" fill="white"/>
<path d="M180.275 270.57C179.268 281.122 177.825 291.548 174.645 301.758C173.763 304.818 172.588 307.746 171.562 310.812C171.568 310.956 171.418 310.818 171.412 310.674C174.009 303.8 176.169 296.8 177.599 289.542C178.776 283.158 179.522 276.792 180.269 270.426C180.125 270.432 180.275 270.57 180.275 270.57Z" fill="white"/>
<path d="M120.587 107.582C115.851 104.465 110.426 102.096 105.169 100.296C99.4742 98.3704 92.8147 97.4922 87.9196 101.005C87.3623 101.46 86.8051 101.915 86.4034 102.651C85.8757 103.825 85.9348 105.262 86.557 106.389C87.6637 108.791 90.322 110.41 92.9389 111.022C95.5559 111.634 98.2811 111.378 101 110.979C107.589 110.132 114.172 109.141 120.587 107.582Z" fill="#B1C0D9"/>
<path d="M120.3 107.593C116.893 105.286 113.085 103.714 109.145 102.436C105.055 101.021 100.282 100.497 96.7825 102.945C96.3631 103.25 95.9496 103.699 95.6798 104.142C95.284 105.022 95.3254 106.028 95.7921 106.873C96.5876 108.712 98.5036 109.785 100.39 110.14C102.276 110.494 104.289 110.411 106.152 110.191C110.872 109.421 115.735 108.645 120.3 107.593Z" fill="#627692"/>
<path d="M120.3 107.593C114.766 106.093 109.089 104.599 103.562 103.242C98.1845 102.023 92.6868 101.385 87.2422 102.041C87.0985 102.047 87.0926 101.903 87.2363 101.897C92.5371 101.247 97.8911 101.891 103.119 102.972C108.79 104.323 114.473 105.961 120.3 107.593Z" fill="white"/>
<path d="M120.156 107.599C111.387 107.96 102.751 108.027 94.0553 106.656C91.4443 106.188 88.8332 105.719 86.3659 105.245C86.2222 105.251 86.36 105.101 86.36 105.101C92.3186 106.44 98.2593 107.347 104.32 107.674C109.657 107.887 114.981 107.812 120.3 107.593C120.294 107.45 120.3 107.593 120.156 107.599Z" fill="white"/>
<path d="M108.002 207.738C102.402 208.112 96.6992 209.499 91.3078 211.448C85.6289 213.41 79.8654 216.814 78.0834 222.503C77.8255 223.234 77.7113 223.958 77.8846 224.671C78.0815 225.959 79.1291 226.924 80.3086 227.595C82.6617 228.794 85.6744 228.526 88.0767 227.42C90.479 226.313 92.5583 224.356 94.4998 222.548C99.1981 217.747 103.89 212.803 108.002 207.738Z" fill="#B1C0D9"/>
<path d="M107.864 207.888C103.845 208.197 99.7119 209.231 95.878 210.541C91.7626 212.006 87.5389 214.339 86.4166 218.561C86.2965 219.142 86.1705 219.579 86.1941 220.154C86.3733 221.01 87.1275 221.843 87.8639 222.245C89.6302 223.18 91.7805 222.948 93.4759 222.158C95.1713 221.369 96.6993 220.01 98.0835 218.657C101.535 215.06 104.849 211.612 107.864 207.888Z" fill="#627692"/>
<path d="M107.72 207.894C102.341 210.131 96.9552 212.224 91.7312 214.743C86.7888 217.106 82.0078 219.894 77.9869 223.659C77.9869 223.659 77.8432 223.665 77.8373 223.521C81.7144 219.762 86.3516 216.98 91.1562 214.766C96.524 212.242 102.047 209.999 107.571 207.756C107.714 207.75 107.864 207.888 107.72 207.894Z" fill="white"/>
<path d="M107.726 208.038C101.045 213.64 94.2083 218.96 86.4619 223.167C84.2093 224.411 81.807 225.518 79.4106 226.768C79.2669 226.774 79.261 226.63 79.4047 226.624C84.9162 224.094 90.2662 221.138 95.1673 217.769C99.3614 214.717 103.538 211.234 107.726 208.038C107.72 207.894 107.714 207.75 107.726 208.038Z" fill="white"/>
<path d="M64.1912 206.803C59.1798 203.986 53.7785 202.192 48.2512 200.835C42.4306 199.347 35.6509 199.049 31.2047 202.976C30.6475 203.431 30.0961 204.029 29.8382 204.76C29.3105 205.934 29.6571 207.359 30.2793 208.485C31.5297 210.882 34.32 212.207 36.9251 212.532C39.674 212.851 42.3933 212.451 44.963 211.914C51.3783 210.354 57.9374 208.788 64.1912 206.803Z" fill="#B1C0D9"/>
<path d="M63.9037 206.815C60.3652 204.801 56.4191 203.379 52.3529 202.538C48.137 201.56 43.2261 201.186 40.0322 204.053C39.6128 204.358 39.1993 204.807 39.0733 205.244C38.6775 206.124 38.8626 207.125 39.3293 207.969C40.2627 209.659 42.1786 210.732 44.2029 210.937C46.0834 211.147 48.0899 210.921 49.9408 210.413C54.6489 209.355 59.3571 208.298 63.9037 206.815Z" fill="#627692"/>
<path d="M63.7599 206.821C58.1007 205.758 52.4415 204.695 46.6444 203.781C41.1408 202.999 35.6608 202.793 30.2339 203.88C30.0902 203.886 30.0843 203.742 30.228 203.736C35.5111 202.655 40.8474 202.867 46.2073 203.655C52.1422 204.419 57.9511 205.62 63.754 206.677C63.8978 206.671 63.9037 206.815 63.7599 206.821Z" fill="white"/>
<path d="M63.76 206.821C55.0211 207.9 46.4083 208.542 37.5985 207.897C34.9993 207.716 32.3942 207.391 29.789 207.066C29.6453 207.072 29.7831 206.922 29.7831 206.922C35.718 207.686 41.7907 208.3 47.828 208.052C53.1466 207.833 58.4533 207.327 63.7541 206.677C63.8979 206.672 63.9038 206.815 63.76 206.821Z" fill="white"/>
<path d="M101.27 79.0023C100.38 74.8632 98.6331 70.9034 96.6108 67.2428C94.4329 63.3007 91.2548 59.5437 86.9129 59.0022C86.332 58.8821 85.757 58.9058 85.3317 59.0672C84.481 59.3902 83.7978 60.2822 83.5457 61.1565C82.9038 63.0547 83.5675 65.1872 84.6446 66.8708C85.7217 68.5544 87.3561 69.7831 88.9845 70.868C92.846 73.733 96.9949 76.5862 101.27 79.0023Z" fill="#B1C0D9"/>
<path d="M101.12 78.8644C100.421 75.8694 99.1529 73.0418 97.747 70.3638C96.1913 67.548 93.917 64.7618 90.7369 64.4605C90.3057 64.4783 89.8685 64.3522 89.5869 64.5078C88.8741 64.6811 88.4724 65.4175 88.3523 65.9984C87.8305 67.3158 88.3268 68.8792 89.0987 70.1434C89.8647 71.2638 91.056 72.2227 92.2414 73.0379C95.0612 75.0818 98.0247 77.1198 101.12 78.8644Z" fill="#627692"/>
<path d="M100.976 78.8703C98.6666 75.2216 96.5006 71.567 94.0529 68.0679C91.7549 64.7067 89.1754 61.501 85.9125 59.1873L85.9066 59.0436C89.1694 61.3572 91.5994 64.4251 93.8914 67.6426C96.4887 71.2795 98.8044 75.0719 100.976 78.8703Z" fill="white"/>
<path d="M100.97 78.7266C96.0437 74.4655 91.4045 70.1926 87.3048 65.0336C86.0898 63.4997 85.0186 61.9599 83.9415 60.2763C83.9415 60.2763 83.9356 60.1325 84.0852 60.2704C86.6825 63.9073 89.4235 67.5383 92.4343 70.7262C95.1399 73.4948 97.9833 76.1136 100.97 78.7266C101.114 78.7207 100.976 78.8703 100.97 78.7266Z" fill="white"/>
<path d="M27.9514 172.872C27.0613 168.733 25.3147 164.773 23.2923 161.113C21.1145 157.171 17.9363 153.414 13.5944 152.872C13.0135 152.752 12.4385 152.776 12.0132 152.937C11.1626 153.26 10.4793 154.152 10.2273 155.026C9.58536 156.925 10.249 159.057 11.3261 160.741C12.4032 162.424 14.0376 163.653 15.666 164.738C19.6712 167.597 23.6764 170.456 27.9514 172.872Z" fill="#B1C0D9"/>
<path d="M27.8018 172.734C27.1027 169.739 25.8346 166.912 24.4286 164.234C22.873 161.418 20.5986 158.632 17.4185 158.331C16.9873 158.348 16.5502 158.222 16.2686 158.378C15.5558 158.551 15.1541 159.288 15.034 159.868C14.5122 161.186 15.0084 162.749 15.7803 164.013C16.5463 165.134 17.7376 166.093 18.923 166.908C21.8866 168.946 24.8501 170.984 27.8018 172.734Z" fill="#627692"/>
<path d="M27.7959 172.591C25.4861 168.942 23.32 165.287 20.8724 161.788C18.5744 158.427 15.9948 155.221 12.732 152.908L12.7261 152.764C15.9889 155.078 18.4188 158.146 20.7109 161.363C23.3141 165.144 25.4802 168.798 27.7959 172.591C27.9396 172.585 27.8018 172.735 27.7959 172.591Z" fill="white"/>
<path d="M27.6521 172.597C22.7254 168.336 18.0861 164.063 13.9864 158.904C12.7714 157.37 11.7002 155.83 10.6231 154.146C10.6231 154.146 10.6172 154.003 10.7669 154.14C13.3641 157.777 16.1052 161.408 19.116 164.596C21.8216 167.365 24.8087 169.978 27.6521 172.597C27.7959 172.591 27.7959 172.591 27.6521 172.597Z" fill="white"/>
<path d="M83.0682 305.235C79.5179 302.933 75.56 301.224 71.6257 300.09C67.398 298.824 62.4753 298.162 58.9821 300.753C58.5627 301.059 58.1492 301.508 57.8794 301.951C57.4836 302.831 57.6688 303.831 57.9917 304.682C58.7872 306.521 60.7032 307.594 62.7392 308.086C64.6257 308.441 66.7759 308.208 68.6387 307.988C73.5083 307.356 78.366 306.436 83.0682 305.235Z" fill="#B1C0D9"/>
<path d="M82.9244 305.241C80.4098 303.616 77.4818 302.441 74.7092 301.547C71.6433 300.521 68.1698 300.088 65.5155 302.069C65.2398 302.368 64.9583 302.524 64.6885 302.967C64.4246 303.554 64.4542 304.272 64.7712 304.979C65.3994 306.249 66.7285 307.059 68.1837 307.431C69.633 307.659 71.0704 307.6 72.502 307.397C75.9282 306.68 79.5041 306.101 82.9244 305.241Z" fill="#627692"/>
<path d="M82.7807 305.247C78.7086 304.262 74.4868 303.14 70.4147 302.155C66.4923 301.309 62.4438 300.899 58.287 301.358C58.287 301.358 58.1374 301.22 58.2811 301.214C62.1445 300.624 66.1989 301.177 69.9717 301.886C74.3313 302.858 78.559 304.124 82.7807 305.247C82.9245 305.241 82.9245 305.241 82.7807 305.247Z" fill="white"/>
<path d="M101.957 81.7097C105.013 78.9923 107.62 75.8614 109.79 72.6045C112.098 69.1979 113.939 64.9466 112.21 61.418C112.049 60.9926 111.743 60.5732 111.3 60.3035C110.558 59.758 109.552 59.7994 108.695 59.9786C106.701 60.4926 105.173 61.8513 104.375 63.4679C103.434 65.0905 103.217 66.8272 103.007 68.7077C102.315 72.9117 101.924 77.3915 101.957 81.7097Z" fill="#B1C0D9"/>
<path d="M101.945 81.4223C104.168 79.4591 105.949 77.2261 107.579 74.8553C109.203 72.3407 110.523 69.4067 109.41 66.8607C109.255 66.5791 109.099 66.2975 108.8 66.0219C108.351 65.6084 107.488 65.6438 106.919 65.8112C105.494 66.1578 104.385 67.2113 103.713 68.3908C103.042 69.5703 102.808 70.8758 102.717 72.1754C102.266 75.2177 101.965 78.3978 101.945 81.4223Z" fill="#627692"/>
<path d="M101.945 81.4223C103.966 78.0275 106.13 74.6268 107.856 71.1002C109.589 67.7172 111.035 64.3461 111.606 60.7229L111.749 60.717C111.316 64.1905 109.871 67.5617 108.132 70.8009C106.267 74.4772 104.103 77.8779 101.945 81.4223Z" fill="white"/>
<path d="M101.939 81.2785C103.146 75.6134 104.647 70.0802 107.159 64.6494C107.957 63.0327 108.754 61.4161 109.552 59.7994L109.695 59.7935C107.687 63.4758 105.966 67.1462 104.832 71.0805C103.674 74.4398 102.81 77.931 101.939 81.2785C102.089 81.4164 101.945 81.4223 101.939 81.2785Z" fill="white"/>
<path d="M29.0522 175.131C32.1082 172.413 34.7153 169.283 36.8852 166.026C39.1929 162.619 41.034 158.368 39.3051 154.839C39.1436 154.414 38.8384 153.994 38.3953 153.725C37.653 153.179 36.6468 153.221 35.7902 153.4C33.7955 153.914 32.2675 155.272 31.47 156.889C30.5288 158.512 30.3122 160.248 30.1016 162.129C29.4164 166.477 29.0187 170.813 29.0522 175.131Z" fill="#B1C0D9"/>
<path d="M29.0463 174.987C31.2694 173.024 33.0495 170.791 34.6799 168.42C36.3043 165.906 37.6236 162.972 36.511 160.426C36.3555 160.144 36.1999 159.862 35.9006 159.587C35.4516 159.173 34.5892 159.209 34.0201 159.376C32.5945 159.723 31.4859 160.776 30.8144 161.956C30.143 163.135 29.9087 164.441 29.8181 165.74C29.3672 168.782 29.066 171.963 29.0463 174.987Z" fill="#627692"/>
<path d="M29.0403 174.843C31.0606 171.449 33.2246 168.048 34.9515 164.521C36.6842 161.138 38.1295 157.767 38.7005 154.144L38.8442 154.138C38.4111 157.612 36.9658 160.983 35.2271 164.222C33.3624 167.898 31.2043 171.443 29.0403 174.843C29.0462 174.987 29.0462 174.987 29.0403 174.843Z" fill="white"/>
<path d="M29.0404 174.843C30.2474 169.178 31.7478 163.645 34.2603 158.214C35.0577 156.598 35.8552 154.981 36.6527 153.364L36.7964 153.358C34.788 157.041 33.067 160.711 31.9329 164.645C30.7751 168.005 29.9107 171.496 29.0404 174.843C29.19 174.981 29.0463 174.987 29.0404 174.843Z" fill="white"/>
<path d="M82.3495 305.264C83.9208 301.456 84.6237 297.54 85.1829 293.629C85.7361 289.575 85.4033 284.981 82.2842 282.661C81.8412 282.391 81.5419 282.116 80.961 281.996C80.0926 281.887 79.2479 282.354 78.409 282.964C76.8751 284.179 76.2391 286.221 76.1722 288.096C76.1053 289.97 76.7511 291.672 77.2533 293.379C78.7124 297.351 80.3212 301.46 82.3495 305.264Z" fill="#B1C0D9"/>
<path d="M82.3435 305.121C83.3812 302.342 83.9877 299.582 84.3007 296.689C84.6138 293.796 84.4779 290.49 82.2449 288.71C81.9456 288.435 81.6522 288.303 81.3647 288.314C80.7838 288.194 80.0769 288.511 79.5196 288.966C78.4051 289.876 77.8892 291.337 77.9424 292.631C77.8519 293.93 78.3363 295.206 78.8148 296.339C79.6635 299.471 80.9316 302.299 82.3435 305.121Z" fill="#627692"/>
<path d="M82.1998 305.127C82.4715 301.228 82.7373 297.185 82.8652 293.292C82.9991 289.543 82.7017 285.812 81.4099 282.409C81.4099 282.409 81.5478 282.259 81.5537 282.403C82.6958 285.668 82.9932 289.399 82.9971 292.999C82.8692 296.892 82.6034 300.934 82.1998 305.127Z" fill="white"/>
<path d="M82.1939 304.983C80.8135 299.424 79.5709 293.716 79.3228 287.678C79.2519 285.953 79.175 284.085 79.2479 282.354L79.3916 282.348C79.2755 286.528 79.4409 290.553 80.0376 294.56C80.6166 298.136 81.4771 301.557 82.1939 304.983C82.3377 304.977 82.1998 305.127 82.1939 304.983Z" fill="white"/>
<path d="M126.185 110.663C126.53 105.033 125.856 99.1577 124.763 93.5871C123.515 87.7349 120.955 81.5047 115.53 79.136C114.8 78.878 114.069 78.6201 113.35 78.6496C112.057 78.7028 110.942 79.6125 110.265 80.6483C108.628 82.8754 108.609 85.8999 109.434 88.4578C110.259 91.0156 111.935 93.2505 113.467 95.4914C117.423 100.656 121.666 105.809 126.185 110.663Z" fill="#B1C0D9"/>
<path d="M126.173 110.376C126.439 106.333 125.98 102.176 125.096 98.181C124.2 93.8982 122.292 89.513 118.478 87.798C118.035 87.5282 117.454 87.4081 116.879 87.4317C116.017 87.4672 115.178 88.0776 114.632 88.82C113.547 90.4484 113.492 92.6105 114 94.4615C114.652 96.3065 115.729 97.9901 116.944 99.524C119.685 103.155 122.863 106.912 126.173 110.376Z" fill="#627692"/>
<path d="M126.024 110.238C124.5 104.685 123.113 98.9824 121.308 93.5851C119.652 88.3257 117.426 83.2336 114.219 78.7579C114.213 78.6141 114.213 78.6141 114.357 78.6082C117.558 82.9402 119.778 87.8886 121.428 93.0043C123.245 98.689 124.775 104.386 126.311 110.226C126.173 110.376 126.03 110.382 126.024 110.238Z" fill="white"/>
<path d="M126.024 110.238C121.255 102.803 116.917 95.3496 113.699 87.1306C112.736 84.7224 111.911 82.1645 111.092 79.7504C111.086 79.6066 111.23 79.6007 111.235 79.7445C113.059 85.573 115.302 91.0963 117.976 96.6019C120.465 101.107 123.247 105.744 126.024 110.238C126.168 110.232 126.03 110.382 126.024 110.238Z" fill="white"/>
<path d="M108.433 207.72C105.357 202.951 101.299 198.799 96.9707 195.089C92.487 191.097 86.5895 187.74 80.7432 189.132C80.0304 189.306 79.3235 189.623 78.7663 190.078C77.7896 190.838 77.4174 192.293 77.4706 193.587C77.5829 196.318 79.2645 198.696 81.4916 200.333C83.7128 201.825 86.3415 202.725 88.9644 203.481C95.2222 205.096 101.768 206.699 108.433 207.72Z" fill="#B1C0D9"/>
<path d="M108.146 207.732C105.848 204.371 102.986 201.321 99.8496 198.57C96.5631 195.682 92.4319 193.26 88.155 194.299C87.586 194.467 87.1606 194.628 86.7412 194.933C86.0461 195.538 85.8 196.556 85.8355 197.418C85.9182 199.431 87.1391 201.109 88.7675 202.194C90.396 203.278 92.2942 203.92 94.1865 204.419C98.7076 205.817 103.361 206.921 108.146 207.732Z" fill="#627692"/>
<path d="M107.996 207.594C103.386 204.04 98.9201 200.48 94.1725 197.076C89.7243 193.947 84.8566 191.123 79.6109 189.611C79.4672 189.617 79.605 189.467 79.605 189.467C84.707 190.985 89.425 193.671 93.8673 196.656C98.7645 200.199 103.38 203.897 107.996 207.594C108.145 207.732 108.14 207.589 107.996 207.594Z" fill="white"/>
<path d="M107.996 207.594C99.8044 204.475 91.7507 201.207 84.2188 196.621C82.0036 195.272 79.7824 193.78 77.705 192.281C77.5612 192.287 77.6991 192.137 77.8428 192.131C82.74 195.674 87.907 198.773 93.3437 201.429C98.044 203.684 103.02 205.639 107.996 207.594Z" fill="white"/>
<path d="M138.258 306.278C135.183 301.509 131.124 297.356 126.796 293.646C122.312 289.655 116.415 286.298 110.569 287.69C109.856 287.863 109.149 288.18 108.592 288.635C107.615 289.395 107.243 290.85 107.296 292.144C107.408 294.875 109.09 297.254 111.317 298.89C113.538 300.383 116.167 301.282 118.79 302.038C125.191 303.647 131.737 305.25 138.258 306.278Z" fill="#B1C0D9"/>
<path d="M138.115 306.284C135.817 302.922 132.955 299.872 129.819 297.122C126.532 294.233 122.401 291.811 118.124 292.851C117.555 293.018 117.13 293.18 116.71 293.485C116.015 294.089 115.769 295.107 115.804 295.97C115.887 297.982 117.108 299.66 118.737 300.745C120.365 301.83 122.263 302.472 124.156 302.97C128.677 304.368 133.33 305.472 138.115 306.284Z" fill="#627692"/>
<path d="M137.971 306.29C133.361 302.735 128.895 299.175 124.148 295.771C119.699 292.642 114.832 289.818 109.586 288.306C109.442 288.312 109.58 288.162 109.58 288.162C114.682 289.68 119.4 292.366 123.842 295.351C128.734 298.75 133.349 302.448 137.971 306.29Z" fill="white"/>
<path d="M137.821 306.152C129.63 303.033 121.576 299.764 114.044 295.178C111.829 293.829 109.608 292.337 107.53 290.838C107.387 290.844 107.524 290.695 107.668 290.689C112.565 294.231 117.732 297.33 123.169 299.987C128.013 302.235 132.989 304.19 137.821 306.152C137.971 306.29 137.965 306.146 137.821 306.152Z" fill="white"/>
<path d="M64.3113 206.223C64.0808 200.617 62.6945 194.914 60.8888 189.517C58.9275 183.838 55.6607 177.925 49.9719 176.143C49.2414 175.885 48.5167 175.771 47.8039 175.944C46.5161 176.141 45.5513 177.188 44.8739 178.224C43.531 180.583 43.7988 183.596 44.9055 185.998C46.0122 188.4 47.8257 190.486 49.7772 192.421C54.2963 197.275 59.2408 201.967 64.3113 206.223Z" fill="#B1C0D9"/>
<path d="M64.1616 206.085C63.9962 202.06 62.9623 197.927 61.6528 194.093C60.3315 189.972 57.8543 185.754 53.7704 184.482C53.1895 184.362 52.7524 184.236 52.1774 184.259C51.3208 184.439 50.482 185.049 50.0862 185.929C49.1509 187.696 49.3833 189.846 50.1729 191.541C50.9685 193.38 52.3213 194.765 53.674 196.149C56.9841 199.612 60.438 203.07 64.1616 206.085Z" fill="#627692"/>
<path d="M64.012 205.947C61.9188 200.561 59.8255 195.176 57.4507 189.946C55.2315 184.998 52.4373 180.073 48.6723 176.052C48.6664 175.908 48.6664 175.908 48.8101 175.903C52.5692 179.78 55.2078 184.423 57.4271 189.371C59.9515 194.739 62.0566 200.412 64.2995 205.935C64.1557 205.941 64.0179 206.091 64.012 205.947Z" fill="white"/>
<path d="M64.012 205.947C58.4039 199.122 53.2271 192.279 49.1588 184.383C47.9084 181.987 46.8076 179.728 45.701 177.326C45.6951 177.182 45.8388 177.177 45.8447 177.32C48.3751 182.832 51.187 188.188 54.5621 193.233C57.4765 197.576 60.6724 201.765 64.012 205.947Z" fill="white"/>
<path d="M239.783 131.479C237.584 123.506 233.809 115.742 229.483 108.577C224.995 100.986 218.357 93.6273 209.547 92.9815C208.391 92.8851 207.385 92.9264 206.253 93.4049C204.552 94.0508 203.329 95.8289 202.825 97.5775C201.685 101.368 203.012 105.633 205.448 108.845C207.883 112.056 211.146 114.37 214.403 116.54C222.683 121.815 231.107 127.084 239.783 131.479Z" fill="#B1C0D9"/>
<path d="M239.34 131.209C234.589 124.205 229.837 117.201 224.804 110.353C219.932 103.93 214.498 97.8175 207.834 93.3399C207.684 93.202 207.822 93.0524 207.972 93.1902C214.486 97.53 219.909 103.355 224.631 109.64C229.957 116.62 234.721 123.912 239.622 131.054C239.628 131.197 239.484 131.203 239.34 131.209Z" fill="white"/>
<path d="M239.334 131.066C229.217 123.13 219.519 114.89 211.193 105.009C208.769 102.085 206.34 99.0168 204.053 95.9431C203.904 95.8052 204.185 95.6497 204.191 95.7934C209.524 102.918 215.275 109.737 221.716 115.807C227.409 121.189 233.372 126.127 239.616 130.91C239.478 131.06 239.34 131.209 239.334 131.066Z" fill="white"/>
<path d="M206.829 166.959C201.526 160.553 194.827 155.213 188.008 150.454C180.752 145.569 171.656 141.479 163.431 144.553C162.437 144.882 161.448 145.354 160.621 146.252C159.381 147.599 159.032 149.629 159.253 151.492C159.844 155.356 162.86 158.687 166.249 160.564C169.782 162.434 173.698 163.137 177.615 163.84C187.179 165.319 197.019 166.498 206.829 166.959Z" fill="#B1C0D9"/>
<path d="M206.392 166.833C202.603 162.237 197.688 158.263 192.803 155.009C187.618 151.478 181.019 148.582 175.059 150.698C174.352 151.015 173.645 151.332 173.094 151.931C172.129 152.979 171.901 154.428 172.097 155.716C172.503 158.579 174.616 160.94 177.119 162.277C179.622 163.614 182.526 164.214 185.281 164.677C192.377 165.681 199.468 166.542 206.392 166.833Z" fill="#627692"/>
<path d="M206.248 166.839C199.015 162.528 191.771 157.931 184.263 153.92C177.191 150.035 169.719 146.886 161.742 145.486C161.598 145.492 161.586 145.205 161.73 145.199C169.557 146.461 176.737 149.478 183.658 153.225C191.316 157.373 198.704 161.965 206.23 166.408C206.386 166.689 206.392 166.833 206.248 166.839Z" fill="white"/>
<path d="M206.098 166.701C193.588 163.616 181.354 160.231 169.612 154.81C166.092 153.227 162.703 151.35 159.32 149.618C159.17 149.48 159.308 149.33 159.458 149.468C167.265 153.755 175.337 157.454 183.666 160.424C191.115 162.997 198.535 164.852 206.242 166.695C206.236 166.551 206.248 166.839 206.098 166.701Z" fill="white"/>
<path d="M176.222 115.95C172.099 110.216 166.705 105.11 161.198 100.729C155.391 96.0718 147.883 92.0608 140.623 94.0871C139.772 94.41 138.778 94.7389 138.082 95.3434C136.83 96.4028 136.47 98.1455 136.679 99.7207C136.964 103.165 139.244 106.095 142.052 107.851C144.866 109.751 148.214 110.622 151.555 111.348C159.699 113.317 167.976 114.993 176.222 115.95Z" fill="#B1C0D9"/>
<path d="M175.929 115.818C172.877 111.624 169.129 108.034 165.112 104.887C160.94 101.459 155.497 98.6592 150.376 100.166C149.663 100.339 149.1 100.65 148.542 101.105C147.709 101.859 147.331 103.171 147.522 104.315C147.767 106.752 149.436 108.843 151.364 110.204C153.436 111.559 155.765 112.183 158.232 112.658C164.047 114.002 170 115.198 175.929 115.818Z" fill="#627692"/>
<path d="M175.785 115.824C169.852 111.604 164.063 107.378 157.998 103.452C152.232 99.8013 146.047 96.4559 139.358 94.859C139.215 94.8649 139.203 94.5774 139.353 94.7153C145.898 96.318 151.927 99.3819 157.543 102.895C163.896 106.809 169.84 111.316 175.917 115.53C175.929 115.818 175.791 115.967 175.785 115.824Z" fill="white"/>
<path d="M175.641 115.83C165.138 112.518 154.905 108.763 145.325 103.397C142.523 101.784 139.715 100.028 136.907 98.2715C136.763 98.2774 136.895 97.984 137.045 98.1219C143.403 102.18 150.037 105.939 156.929 108.967C163.084 111.594 169.36 113.64 175.636 115.686C175.779 115.68 175.785 115.824 175.641 115.83Z" fill="white"/>
<path d="M156.989 183.982C151.068 180.05 144.188 177.309 137.481 175.281C130.337 173.127 121.941 172.032 115.937 176.599C115.242 177.203 114.547 177.808 114.007 178.694C113.348 180.161 113.562 181.88 114.196 183.294C115.62 186.403 118.865 188.285 122.207 189.012C125.548 189.738 128.986 189.309 132.281 188.886C140.577 187.537 148.866 186.044 156.989 183.982Z" fill="#B1C0D9"/>
<path d="M156.558 184C152.265 181.153 147.433 179.192 142.475 177.668C137.367 176.006 131.294 175.391 126.962 178.593C126.405 179.048 125.991 179.497 125.584 180.09C125.05 181.12 125.247 182.407 125.72 183.396C126.82 185.654 129.179 186.997 131.503 187.478C133.826 187.958 136.408 187.708 138.84 187.32C144.853 186.497 150.855 185.386 156.558 184Z" fill="#627692"/>
<path d="M156.414 184.006C149.431 182.277 142.443 180.405 135.329 178.969C128.651 177.66 121.704 176.794 114.834 177.796C114.691 177.802 114.685 177.658 114.828 177.652C121.555 176.656 128.208 177.39 134.742 178.705C142 180.135 149.282 182.139 156.552 183.856C156.696 183.85 156.558 184 156.414 184.006Z" fill="white"/>
<path d="M156.414 184.006C145.495 184.599 134.565 184.904 123.701 183.335C120.371 182.896 117.179 182.307 113.982 181.575C113.838 181.58 113.976 181.431 113.976 181.431C121.384 182.998 128.911 183.985 136.554 184.246C143.184 184.406 149.796 184.134 156.546 183.713C156.546 183.713 156.558 184 156.414 184.006Z" fill="white"/>
<path d="M179.454 271.611C172.603 269.589 165.368 268.735 158.307 268.593C150.815 268.469 142.519 269.818 138.012 275.763C137.466 276.505 136.927 277.391 136.819 278.259C136.596 279.852 137.236 281.41 138.295 282.662C140.558 285.161 144.199 286.163 147.643 285.878C151.087 285.592 154.202 284.312 157.311 282.889C164.662 279.563 172.282 275.794 179.454 271.611Z" fill="#B1C0D9"/>
<path d="M179.022 271.629C174.064 270.105 168.86 269.599 163.817 269.518C158.486 269.449 152.335 270.422 149.2 274.727C148.793 275.319 148.385 275.912 148.265 276.493C148.025 277.655 148.647 278.781 149.401 279.614C151.059 281.418 153.682 282.174 156.12 281.93C158.557 281.685 160.822 280.728 163.086 279.771C168.46 277.391 173.966 274.717 179.022 271.629Z" fill="#627692"/>
<path d="M178.884 271.779C171.697 272.074 164.36 272.232 157.185 272.815C150.297 273.386 143.433 274.532 137.214 277.379C137.071 277.385 137.065 277.241 137.065 277.241C143.145 274.544 149.86 273.26 156.46 272.7C163.923 272.106 171.404 271.942 178.735 271.641C179.022 271.629 179.028 271.773 178.884 271.779Z" fill="white"/>
<path d="M178.884 271.779C168.527 275.516 158.146 278.679 147.269 280.278C143.974 280.701 140.68 281.124 137.524 281.398C137.38 281.404 137.374 281.26 137.518 281.254C145.124 280.654 152.569 279.628 159.979 277.739C166.389 276.036 172.78 273.901 179.028 271.773C178.879 271.635 179.028 271.773 178.884 271.779Z" fill="white"/>
<path d="M103.327 51.992C104.257 50.082 104.605 48.0518 104.948 45.8779C106.842 32.4092 102.807 18.3203 93.8888 8.03188C93.7333 7.7503 93.434 7.47463 93.0027 7.49236C92.4277 7.516 92.3136 8.24063 92.1875 8.67777C90.4568 19.116 91.4868 30.1607 95.4881 39.9314C97.1028 44.1846 99.4363 48.4083 103.148 51.1355" fill="#AD1B1E"/>
<path d="M104.202 52.2441C104.113 50.0879 104.605 48.0518 105.097 46.0158C108.734 32.9074 118.353 21.7129 130.64 15.8803C130.922 15.7247 131.347 15.5633 131.784 15.6893C132.227 15.959 132.257 16.6778 131.987 17.1208C129.388 27.4508 123.873 36.8927 116.262 44.4049C112.936 47.5654 109.168 50.4561 104.747 51.5017" fill="#AD1B1E"/>
<path d="M106.232 52.5925C111.172 53.6853 116.294 52.1789 120.984 50.6902C123.686 49.8592 126.382 48.8844 128.622 47.3525C131.145 45.6649 133.206 43.2764 134.975 40.7559C136.065 39.2712 137.007 37.6486 137.361 35.7622C137.721 34.0195 137.489 31.8693 136.424 30.4732C134.904 28.5199 131.861 28.069 129.441 28.7444C127.021 29.4198 124.93 31.0897 122.977 32.6098C116.571 37.9127 110.621 43.7728 106.155 50.7238C105.609 51.4662 105.226 52.6339 105.968 53.1793" fill="#E92438"/>
<path d="M104.357 52.5256C108.856 49.8928 112.285 45.7202 114.689 41.1578C117.093 36.5954 118.318 31.3615 119.117 26.289C119.676 22.3784 119.942 18.3358 118.207 14.6635C116.622 11.1289 112.617 8.26984 108.771 9.29186C105.788 10.2784 103.738 12.9545 102.557 15.7388C101.112 19.1099 100.403 22.8827 100.125 26.6378C99.5345 33.2855 99.8122 40.0415 100.803 46.6242C101.191 49.056 102.028 51.9014 104.363 52.6693" fill="#E92438"/>
<path d="M103.183 51.9979C102.24 46.5651 101.147 40.9945 99.3474 35.741C97.5476 30.4874 94.8912 25.4131 90.9825 21.3981C89.0311 19.4625 86.2172 17.5624 83.6712 18.6749C81.4067 19.632 80.5128 22.4045 80.4695 24.854C80.2451 29.9028 82.4643 34.8512 85.5106 38.9016C88.5568 42.952 92.436 46.2482 96.3152 49.5444C97.2131 50.3715 98.1051 51.0547 99.2728 51.4387C100.44 51.8226 101.74 51.9132 102.573 51.159" fill="#E92438"/>
<path d="M102.441 51.4525C100.761 45.618 97.6619 40.2739 94.5625 34.9298C91.3075 29.3041 88.0584 23.8222 84.5278 18.4958C84.5219 18.3521 84.6656 18.3461 84.6656 18.3461C88.3459 23.8104 91.6009 29.4361 94.8559 35.0617C97.8057 40.268 100.899 45.4684 102.579 51.3028C102.591 51.5903 102.447 51.5962 102.441 51.4525Z" fill="#FFFFE6"/>
<path d="M102.429 51.1649C102.01 51.4701 101.405 50.775 101.106 50.4994C100.064 49.6783 99.1664 48.8512 98.2626 47.8805C96.6105 46.2206 95.0903 44.2672 93.8576 42.3021C90.7996 37.9642 88.1609 33.3211 85.666 28.672C84.26 25.9941 82.8541 23.3161 81.5918 20.6322C81.5859 20.4885 81.7297 20.4826 81.7356 20.6263C84.4215 26.4194 87.3831 31.9132 90.77 37.2454C92.3138 39.7738 93.8517 42.1583 95.6771 44.5311C96.5928 45.7893 97.6463 46.8979 98.6997 48.0065C99.1546 48.5638 102.004 51.3264 102.429 51.1649C102.567 51.0153 102.423 51.0212 102.429 51.1649Z" fill="#FFFFE6"/>
<path d="M104.58 50.9326C105.55 50.0287 106.066 48.5677 106.594 47.3941C107.122 46.2205 107.643 44.9031 108.171 43.7295C109.215 41.0949 110.258 38.4602 111.014 35.8373C112.665 30.442 113.59 24.9324 114.084 19.4406C114.253 16.5539 114.692 13.2241 113.712 10.3847C113.706 10.2409 113.85 10.235 113.856 10.3788C114.675 12.7929 114.362 15.6855 114.324 18.2788C114.155 21.1655 113.836 23.9144 113.373 26.6692C112.448 32.1787 110.804 37.7178 108.717 42.9872C108.057 44.4542 107.547 46.059 106.744 47.5319C106.354 48.5558 105.694 50.0228 104.58 50.9326C104.586 51.0763 104.442 51.0822 104.58 50.9326Z" fill="#FFFFE6"/>
<path d="M109.789 9.53796C108.596 12.0348 107.996 14.9392 107.383 17.5562C106.771 20.1731 106.308 22.9279 105.702 25.6886C104.776 31.1982 104.144 36.8397 103.943 42.4634C103.786 45.6376 103.916 48.8 104.046 51.9624C104.052 52.1061 103.908 52.112 103.902 51.9683C103.148 40.6243 104.556 29.3354 106.976 18.1489C107.576 15.2444 108.171 12.1963 109.496 9.40603C109.778 9.25047 109.927 9.3883 109.789 9.53796Z" fill="#FFFFE6"/>
<path d="M137.53 32.8755C131.375 40.7599 123.471 48.1402 113.641 50.7041C110.934 51.3913 108.071 51.797 105.328 51.6218C105.184 51.6277 105.178 51.4839 105.322 51.478C118.594 52.0844 129.727 42.6995 137.53 32.8755C137.524 32.7318 137.375 32.5939 137.53 32.8755Z" fill="#FFFFE6"/>
<path d="M134.64 29.1067C130.05 33.039 125.316 36.9773 120.277 40.4961C117.755 42.1837 115.089 43.8772 112.422 45.5706C109.762 47.4078 107.246 49.2391 104.735 51.2142C104.591 51.2201 104.585 51.0763 104.585 51.0763C106.952 49.1072 109.469 47.2759 111.991 45.5883C114.508 43.7571 117.18 42.2073 119.846 40.5139C125.029 36.9891 129.762 33.0508 134.64 29.1067C134.783 29.1008 134.634 28.9629 134.64 29.1067Z" fill="#FFFFE6"/>
<path d="M103.887 58.5924C107.3 58.4521 109.954 55.571 109.814 52.1573C109.673 48.7437 106.792 46.0901 103.378 46.2304C99.9647 46.3707 97.3111 49.2518 97.4515 52.6655C97.5918 56.0792 100.473 58.7328 103.887 58.5924Z" fill="#AD1B1E"/>
<path d="M27.0551 137.056C27.9845 135.146 28.333 133.116 28.6756 130.942C30.5697 117.474 26.5348 103.385 17.6166 93.0961C17.3173 92.8205 17.018 92.5448 16.7305 92.5566C16.1556 92.5803 16.0414 93.3049 15.9153 93.742C14.0409 104.186 15.0709 115.231 19.0781 125.145C20.6928 129.399 23.0263 133.622 26.7381 136.349" fill="#AD1B1E"/>
<path d="M27.9293 137.308C27.8407 135.152 28.333 133.116 28.8252 131.08C32.462 117.972 42.0809 106.777 54.3681 100.945C54.6496 100.789 55.075 100.627 55.5121 100.753C55.9552 101.023 55.9847 101.742 55.7149 102.185C53.1159 112.515 47.6005 121.957 39.99 129.469C36.6642 132.63 32.8954 135.52 28.4748 136.566" fill="#AD1B1E"/>
<path d="M29.8158 137.663C34.7563 138.755 39.8779 137.249 44.5683 135.76C47.2699 134.929 49.9656 133.955 52.2064 132.423C54.7288 130.735 56.7905 128.347 58.5587 125.826C59.6496 124.341 60.5908 122.719 60.9452 120.832C61.3055 119.09 61.0731 116.939 60.0078 115.543C58.4877 113.59 55.4454 113.139 53.0254 113.815C50.6053 114.49 48.5142 116.16 46.5608 117.68C40.1554 122.983 34.2048 128.843 29.739 135.794C29.1936 136.536 28.8096 137.704 29.552 138.25" fill="#E92438"/>
<path d="M27.9412 137.596C32.4406 134.963 35.8688 130.79 38.273 126.228C40.6772 121.666 41.9019 116.432 42.7013 111.359C43.2605 107.449 43.5263 103.406 41.7915 99.7337C40.2063 96.1992 36.2011 93.3401 32.3554 94.3621C29.3664 95.2049 27.4603 97.875 26.2789 100.659C24.8336 104.03 24.1248 107.803 23.8472 111.558C23.2565 118.206 23.5342 124.962 24.5248 131.545C24.9127 133.977 25.7496 136.822 28.085 137.59" fill="#E92438"/>
<path d="M26.7675 137.068C25.8243 131.635 24.7314 126.065 22.9315 120.811C21.1317 115.558 18.4753 110.483 14.5666 106.468C12.6152 104.533 9.80133 102.633 7.25529 103.745C5.13457 104.696 4.24063 107.469 4.0536 109.924C3.82918 114.973 6.04842 119.921 9.09467 123.972C12.1409 128.022 16.0201 131.318 19.8993 134.615C20.7972 135.442 21.6892 136.125 22.8569 136.509C24.0246 136.893 25.3242 136.983 26.1571 136.229" fill="#E92438"/>
<path d="M26.0252 136.523C24.3455 130.688 21.2461 125.344 18.1466 120C14.8916 114.374 11.6425 108.892 8.11187 103.566C8.10596 103.422 8.2497 103.416 8.2497 103.416C11.93 108.881 15.185 114.506 18.44 120.132C21.3898 125.338 24.4833 130.539 26.163 136.373C26.169 136.517 26.0311 136.666 26.0252 136.523Z" fill="#FFFFE6"/>
<path d="M26.0134 136.235C25.594 136.54 24.9894 135.845 24.6901 135.57C23.6485 134.748 22.7505 133.921 21.8467 132.951C20.1946 131.291 18.6744 129.337 17.4418 127.372C14.3837 123.034 11.745 118.391 9.25011 113.742C7.84414 111.064 6.43817 108.386 5.17594 105.702C5.17003 105.559 5.31378 105.553 5.31969 105.697C8.00561 111.49 10.9672 116.983 14.3541 122.316C15.8979 124.844 17.4358 127.229 19.2612 129.601C20.1769 130.86 21.2304 131.968 22.2838 133.077C22.7387 133.634 25.588 136.397 26.0134 136.235C26.1512 136.085 26.0016 135.948 26.0134 136.235Z" fill="#FFFFE6"/>
<path d="M28.1637 136.003C29.1344 135.099 29.6503 133.638 30.178 132.464C30.7057 131.291 31.2275 129.973 31.7552 128.8C32.7988 126.165 33.8424 123.53 34.5985 120.908C36.2486 115.512 37.174 110.003 37.6682 104.511C37.8375 101.624 38.2765 98.2944 37.2959 95.4549C37.29 95.3112 37.4337 95.3053 37.4396 95.449C38.2588 97.8631 37.9458 100.756 37.9084 103.349C37.7391 106.236 37.4201 108.985 36.9574 111.739C36.032 117.249 34.3879 122.788 32.3007 128.057C31.641 129.524 31.1311 131.129 30.3277 132.602C29.9378 133.626 29.4219 135.087 28.1637 136.003Z" fill="#FFFFE6"/>
<path d="M33.3734 94.6081C32.1802 97.105 31.5797 100.009 30.9673 102.626C30.3549 105.243 29.8922 107.998 29.2858 110.759C28.3604 116.268 27.7284 121.91 27.5276 127.534C27.3701 130.708 27.5001 133.87 27.6301 137.033C27.636 137.176 27.4922 137.182 27.4863 137.038C26.732 125.694 28.1398 114.406 30.5597 103.219C31.1602 100.315 31.7549 97.2665 33.08 94.4762C33.3616 94.3207 33.5113 94.4585 33.3734 94.6081Z" fill="#FFFFE6"/>
<path d="M61.1145 117.946C54.9591 125.83 47.0552 133.21 37.2255 135.774C34.518 136.461 31.7928 136.717 29.0557 136.686C28.912 136.692 28.906 136.548 29.0498 136.542C42.3216 137.149 53.311 127.77 61.1145 117.946C61.1086 117.802 60.9589 117.664 61.1145 117.946Z" fill="#FFFFE6"/>
<path d="M58.2237 114.177C53.6338 118.109 48.9001 122.047 43.8612 125.566C41.3388 127.254 38.6727 128.947 36.0065 130.641C33.3463 132.478 30.8298 134.309 28.3192 136.284C28.1755 136.29 28.1695 136.147 28.1695 136.147C30.5364 134.177 33.0588 132.49 35.5753 130.659C38.0918 128.827 40.7638 127.278 43.43 125.584C48.7564 122.053 53.49 118.115 58.2237 114.177C58.3616 114.027 58.2178 114.033 58.2237 114.177Z" fill="#FFFFE6"/>
<path d="M27.6144 143.657C31.028 143.516 33.6816 140.635 33.5413 137.222C33.401 133.808 30.5199 131.154 27.1062 131.295C23.6925 131.435 21.0389 134.316 21.1793 137.73C21.3196 141.143 24.2007 143.797 27.6144 143.657Z" fill="#AD1B1E"/>
<path d="M58.8263 279.45C58.1686 277.461 57.0855 275.634 55.8647 273.956C48.0669 262.902 35.2302 255.366 21.7852 254.047C21.3539 254.064 20.9168 253.938 20.6411 254.238C20.2276 254.687 20.5387 255.25 20.8439 255.669C26.8223 264.495 35.1792 271.639 44.7235 276.142C48.837 278.133 53.5018 279.525 57.9461 279.054" fill="#AD1B1E"/>
<path d="M59.5272 278.989C58.0248 277.467 56.9417 275.64 56.0024 273.806C49.7504 261.824 48.8543 247.031 53.8084 234.444C53.9403 234.151 54.2101 233.707 54.4917 233.552C55.0607 233.385 55.3719 233.948 55.6771 234.367C60.8106 243.659 63.41 254.351 62.9848 265.024C62.8864 269.636 62.0693 274.277 59.4918 278.126" fill="#AD1B1E"/>
<path d="M61.2049 277.768C65.5605 275.141 68.2522 270.567 70.5186 266.154C71.8556 263.651 73.1926 261.149 73.799 258.388C74.5374 255.334 74.2696 252.321 73.8521 249.171C73.4878 247.314 73.1235 245.457 72.196 243.911C71.2685 242.365 69.6283 240.993 67.8915 240.776C65.4301 240.446 62.9077 242.133 61.553 244.205C60.2042 246.42 59.8793 249.025 59.5485 251.486C58.5917 259.733 58.2157 268.1 59.8403 276.096C60.0195 276.953 60.498 278.085 61.3604 278.05" fill="#E92438"/>
<path d="M59.8206 279.121C61.3447 274.163 60.9764 268.706 59.4759 263.728C57.9753 258.75 55.4804 254.101 52.4283 249.907C50.1362 246.69 47.4188 243.634 43.7543 242.057C40.0898 240.479 35.3757 241.393 33.2058 244.65C31.5813 247.165 32.0106 250.603 32.9913 253.442C34.289 256.988 36.4314 260.068 38.7117 262.998C42.8114 268.157 47.618 272.999 52.9642 276.955C55.1972 278.735 57.7058 280.216 59.8206 279.121Z" fill="#E92438"/>
<path d="M58.6884 279.599C54.2343 276.327 49.6364 273.06 44.7746 270.38C39.9129 267.7 34.3679 265.912 28.8878 265.706C26.1449 265.531 22.7186 266.247 21.6691 268.738C20.6078 270.942 21.8701 273.626 23.5281 275.429C26.85 279.18 31.8318 281.279 36.9043 282.079C41.9767 282.878 47.0018 282.528 52.0329 282.321C53.1829 282.274 54.4766 282.22 55.465 281.748C56.5973 281.269 57.568 280.365 57.6645 279.21" fill="#E92438"/>
<path d="M57.6881 279.785C52.3774 276.691 46.5449 274.915 40.7183 273.283C34.5924 271.375 28.4724 269.611 22.0826 268.289C21.9389 268.295 22.0767 268.146 22.0767 268.146C28.4724 269.611 34.7361 271.369 41.0058 273.271C46.6945 275.053 52.5211 276.685 57.8318 279.779C57.8259 279.635 57.8318 279.779 57.6881 279.785Z" fill="#FFFFE6"/>
<path d="M57.5325 279.503C57.5561 280.078 56.544 279.976 56.2565 279.987C54.9628 280.041 53.6691 280.094 52.3754 280.147C50.0696 280.098 47.6023 279.623 45.2846 279.286C40.0567 278.205 34.9606 276.831 29.9965 275.163C27.224 274.269 24.3018 273.238 21.5175 272.056C21.3737 272.062 21.5116 271.912 21.6553 271.907C27.5115 274.258 33.4936 276.171 39.7514 277.786C42.5181 278.536 45.4225 279.137 48.321 279.594C49.7703 279.822 51.3574 279.901 52.8007 279.985C53.232 279.968 57.4124 280.084 57.3946 279.653C57.3828 279.365 57.5266 279.359 57.5325 279.503Z" fill="#FFFFE6"/>
<path d="M58.905 277.863C58.9955 276.563 58.3614 275.149 58.0208 273.867C57.5364 272.591 57.1957 271.31 56.7113 270.034C55.7365 267.338 54.624 264.792 53.2239 262.258C50.7172 257.321 47.6414 252.552 44.1521 248.232C42.3326 246.003 40.2079 243.354 37.6992 241.874C37.5555 241.879 37.6933 241.73 37.8371 241.724C40.0523 243.073 41.8659 245.158 43.5298 247.105C45.3434 249.191 47.025 251.569 48.7008 253.804C51.9144 258.424 54.427 263.504 56.5144 268.746C57.1543 270.303 57.6447 271.723 58.1409 273.286C58.6312 274.706 59.2653 276.12 59.1806 277.563C59.0546 278.001 58.9109 278.006 58.905 277.863Z" fill="#FFFFE6"/>
<path d="M34.1943 244.177C35.0253 246.879 36.5632 249.264 37.9574 251.654C39.3515 254.045 40.8835 256.285 42.2777 258.676C45.3476 263.301 48.8487 267.909 52.4758 272.079C54.5887 274.44 56.8394 276.652 59.0901 278.863C59.2398 279.001 59.096 279.007 58.9523 279.013C50.5717 271.294 43.8569 262.067 37.9869 252.373C36.4372 249.701 34.7497 247.178 33.7631 244.195C34.0447 244.04 34.1884 244.034 34.1943 244.177Z" fill="#FFFFE6"/>
<path d="M70.2505 242.119C71.2332 252.014 70.6702 262.836 65.2691 271.554C63.7824 273.918 61.9965 276.008 59.9112 277.821C59.7675 277.827 59.7675 277.827 59.7615 277.683C69.9181 269.059 71.3396 254.601 70.1068 242.125C70.1009 241.981 70.2446 241.976 70.2505 242.119Z" fill="#FFFFE6"/>
<path d="M65.753 241.296C65.1387 247.369 64.5245 253.442 63.1855 259.4C62.4472 262.454 61.7088 265.508 60.9704 268.562C60.232 271.617 59.7871 274.803 59.3421 277.989C59.348 278.132 59.1983 277.994 59.1983 277.994C59.6492 274.952 60.1001 271.91 60.8444 269C61.439 265.951 62.3211 262.891 63.0595 259.837C64.3925 253.735 65.0068 247.662 65.7589 241.44C65.6034 241.158 65.7471 241.152 65.753 241.296Z" fill="#FFFFE6"/>
<path d="M59.5116 285.613C62.9253 285.473 65.5788 282.592 65.4385 279.178C65.2982 275.764 62.4171 273.111 59.0034 273.251C55.5897 273.391 52.9361 276.272 53.0765 279.686C53.2168 283.1 56.0979 285.753 59.5116 285.613Z" fill="#AD1B1E"/>
</g>
<defs>
<clipPath id="clip0_10604_13886">
<rect width="275.503" height="319.958" fill="white" transform="translate(0 11.3154) rotate(-2.35399)"/>
</clipPath>
</defs>
</svg>
