<svg width="286" height="368" viewBox="0 0 286 368" fill="none" xmlns="http://www.w3.org/2000/svg">
<g clip-path="url(#clip0_10604_14576)">
<path d="M23.1459 300.666C23.593 300.582 23.565 299.939 23.048 299.897C13.4203 300.639 3.52697 299.718 -5.34673 295.597C-13.368 291.825 -20.2018 285.747 -25.345 278.566C-36.0366 263.769 -39.225 245.297 -37.4247 227.508C-35.5687 208.043 -28.4446 189.765 -19.1405 172.744C-10.437 156.715 -0.210604 140.169 -0.520467 121.249C-0.802293 102.972 -9.77543 86.2326 -20.5089 71.953C-1.14132 74.5217 16.8578 84.1052 30.4139 98.1328C37.2897 105.175 42.992 113.362 47.2411 122.193C51.8536 131.974 54.2444 142.496 55.2938 153.269C56.2455 164.755 55.9116 176.297 56.2764 187.616C56.697 198.739 57.8862 209.764 60.9897 220.383C67.2525 241.426 81.2145 260.331 101.687 269.033C120.119 276.73 142.42 274.212 157.007 260.181C158.865 258.49 160.458 256.617 161.855 254.689C162.162 254.353 161.561 253.864 161.254 254.2C148.666 271.235 125.135 276.576 105.586 269.829C83.4226 262.231 68.2588 242.348 61.5766 220.551C58.2775 209.875 57.0883 198.85 56.7934 187.658C56.4286 176.339 56.8324 164.923 55.8249 153.632C54.9292 143.432 52.8179 133.413 48.7365 123.995C45.0184 115.528 39.7773 107.578 33.6141 100.634C21.0222 86.5639 4.08497 76.2258 -14.4444 72.2038C-16.3309 71.7708 -18.1475 71.4636 -20.0898 71.2264C-3.78348 65.6209 13.487 59.9734 31.038 62.2348C40.9454 63.4772 50.4479 67.2488 59.5172 71.4257C68.3909 75.5467 76.9572 80.0032 83.9589 86.975C97.1515 100.053 104.099 117.588 113.98 133C123.037 147.224 135.614 160.972 153.11 163.429C169.249 165.816 186.268 158.827 195.671 145.537C195.978 145.202 195.377 144.713 195.07 145.048C186.282 157.668 170.353 164.545 155.024 163.024C136.523 161.126 123.33 146.567 113.98 131.519C104.504 116.54 97.5847 99.6472 84.923 86.933C78.2568 80.2685 70.2634 75.6583 61.781 71.649C53.2985 67.6397 44.5087 63.9658 35.286 62.1784C15.9322 58.4499 -3.2386 64.8243 -21.3894 70.961C-21.5151 71.0309 -21.5151 71.0309 -21.6409 71.1008C-21.7666 71.1707 -21.6968 71.2964 -21.6968 71.2964C-21.6269 71.4222 -21.6269 71.4222 -21.557 71.548C-11.2428 85.073 -2.50735 100.792 -1.30339 118.063C0.082554 138.031 -10.4931 155.429 -19.7414 172.255C-36.6174 203.194 -48.6291 245.256 -27.2177 276.973C-21.9207 284.728 -14.9331 291.378 -6.63229 295.653C2.59083 300.403 12.8755 301.435 23.1459 300.666Z" fill="#B1C0D9"/>
<path d="M1.62406 64.097C9.9243 63.9282 18.4204 65.2965 26.4973 67.3915C34.9655 69.5982 44.0349 73.7751 47.2219 81.8794C47.6552 82.9553 47.8929 83.9753 47.8092 85.0093C47.6976 86.8818 46.2865 88.4889 44.7216 89.5232C41.3403 91.7314 36.9526 91.5364 33.2914 90.2792C29.5603 88.8963 26.36 86.3955 23.2855 83.8247C15.739 77.6494 8.43005 71.013 1.62406 64.097Z" fill="#B1C0D9"/>
<path d="M2.01534 64.2087C7.99597 64.0123 14.1584 65.0316 19.9576 66.5819C26.0782 68.1182 32.5903 71.2474 34.8407 77.074C35.0644 77.7727 35.358 78.5971 35.2602 79.3097C35.1905 80.6652 34.2126 81.867 33.0808 82.496C30.6356 84.0194 27.4776 83.9639 24.7946 82.9861C22.1115 82.0083 19.7777 80.1781 17.6395 78.4037C12.1055 74.0727 6.87879 69.4062 2.01534 64.2087Z" fill="#627692"/>
<path d="M2.15511 64.4602C10.1902 67.0722 18.4069 69.4187 26.3303 72.422C33.9182 75.1179 41.2827 78.5963 47.5016 83.8635C47.5715 83.9893 47.823 83.8495 47.6274 83.7937C41.5482 78.778 34.3794 75.3554 27.1128 72.6455C18.9938 69.5863 10.5116 67.0582 2.28086 64.3903C2.01534 64.2087 1.95948 64.4044 2.15511 64.4602Z" fill="white"/>
<path d="M2.15511 64.4602C12.6501 71.7949 23.4526 78.7942 35.2049 83.9489C38.6845 85.4716 42.2899 86.9244 45.9511 88.1815C46.1467 88.2374 46.2026 88.0417 46.007 87.9859C37.6923 84.8708 29.4895 81.3646 21.7615 76.936C15.0258 73.1081 8.58345 68.6235 2.14109 64.1388C2.21097 64.2645 2.15511 64.4602 2.15511 64.4602Z" fill="white"/>
<path d="M-7.24524 94.0432C0.887582 95.9426 8.64334 99.5328 15.966 103.528C23.624 107.831 31.2404 114.132 32.2057 122.977C32.3176 124.067 32.3038 125.227 32.0244 126.205C31.3959 128.036 29.7052 129.14 27.9307 129.797C24.1859 131.055 19.882 129.826 16.6258 127.521C13.3697 125.215 10.9099 121.974 8.64582 118.788C2.88771 110.796 -2.49314 102.594 -7.24524 94.0432Z" fill="#B1C0D9"/>
<path d="M-6.90984 94.3506C-1.05477 95.7053 4.53498 98.3595 9.74746 101.223C15.2255 104.269 20.7735 108.921 21.4311 115.14C21.529 115.908 21.5012 116.746 21.2777 117.529C20.8167 118.773 19.6291 119.597 18.2318 120.045C15.4372 120.939 12.5027 120.101 10.113 118.467C7.72332 116.832 6.07415 114.457 4.29921 112.151C0.441786 106.395 -3.48554 100.512 -6.90984 94.3506Z" fill="#627692"/>
<path d="M-6.83995 94.4763C0.315073 99.0587 7.52597 103.445 14.4994 108.293C21.0116 112.904 27.3563 118.101 32.0243 124.724C32.0941 124.85 32.3456 124.71 32.2758 124.584C27.7475 118.213 21.7243 113.001 15.2819 108.517C8.16874 103.417 0.692323 98.849 -6.65834 94.2108C-6.78409 94.2807 -7.03558 94.4205 -6.83995 94.4763Z" fill="white"/>
<path d="M-6.77006 94.6022C1.5175 104.48 10.0425 113.897 20.2442 121.889C23.2488 124.334 26.4351 126.513 29.4956 128.763C29.5655 128.888 29.7471 128.623 29.5514 128.567C22.2426 123.412 15.2412 117.921 8.98028 111.69C3.46004 106.199 -1.62707 100.303 -6.71418 94.4065C-6.71418 94.4065 -6.83994 94.4764 -6.77006 94.6022Z" fill="white"/>
<path d="M-5.6318 144.334C0.782726 149.657 6.1634 156.377 10.8454 163.322C15.7371 170.643 19.6788 179.809 16.6196 187.928C16.2146 188.976 15.7396 189.899 14.8733 190.709C13.4482 191.995 11.464 192.275 9.52165 192.037C5.56707 191.437 2.40866 188.419 0.451919 184.898C-1.50483 181.377 -2.19002 177.478 -2.74947 173.51C-4.00834 163.841 -5.14146 154.101 -5.6318 144.334Z" fill="#B1C0D9"/>
<path d="M-5.42214 144.711C-0.810389 148.567 3.00501 153.36 6.44313 158.362C10.021 163.615 12.8166 170.126 10.6934 176.079C10.4699 176.862 10.0508 177.589 9.4919 178.064C8.49989 178.944 7.03272 179.266 5.73315 179.001C2.88251 178.61 0.534673 176.458 -0.737249 173.873C-2.13492 171.358 -2.58244 168.48 -3.02996 165.601C-4.35833 158.768 -5.18369 151.656 -5.42214 144.711Z" fill="#627692"/>
<path d="M-5.478 144.907C-1.10335 152.186 3.27128 159.466 7.39442 166.885C11.1822 173.997 14.3411 181.459 15.6557 189.451C15.7256 189.577 15.9212 189.633 15.8513 189.507C14.6765 181.766 11.5875 174.43 7.8696 167.444C3.73245 159.703 -0.837845 152.368 -5.35226 144.837C-5.42214 144.711 -5.54788 144.781 -5.478 144.907Z" fill="white"/>
<path d="M-5.40813 145.032C-2.41619 157.524 0.95302 169.807 6.36229 181.614C7.99764 185.149 9.75875 188.614 11.5757 191.883C11.6456 192.009 11.8971 191.869 11.8272 191.744C7.62019 183.877 3.8603 175.927 0.980665 167.487C-1.46565 160.123 -3.40897 152.48 -5.28239 144.963C-5.22652 144.767 -5.47801 144.907 -5.40813 145.032Z" fill="white"/>
<path d="M60.677 71.4393C67.3989 76.427 73.2127 82.7423 78.3278 89.2812C83.6526 96.1974 88.2231 105.014 85.695 113.496C85.4157 114.475 84.8848 115.592 84.2142 116.459C82.9847 117.801 80.9446 118.276 79.0722 118.164C75.0617 117.76 71.7217 115.007 69.5134 111.626C67.431 108.175 66.4244 104.29 65.6134 100.462C63.5161 90.7643 61.7402 81.053 60.677 71.4393Z" fill="#B1C0D9"/>
<path d="M60.8168 71.6909C65.6102 75.2814 69.8028 79.8642 73.5483 84.5309C77.4336 89.449 80.6762 95.8764 78.9443 101.941C78.7208 102.724 78.4275 103.38 77.8127 104.051C76.8906 105.057 75.4234 105.379 74.068 105.309C71.2872 105.044 68.6879 103.032 67.2344 100.713C65.7109 98.2678 65.0119 95.5291 64.4386 92.7205C62.8447 85.706 61.5723 78.6775 60.8168 71.6909Z" fill="#627692"/>
<path d="M60.8308 72.0122C65.5827 79.0821 70.5162 85.8866 75.0166 93.0963C79.3074 99.9288 83.0392 107.236 84.8009 115.145C84.8708 115.271 85.0664 115.327 84.9965 115.201C83.3047 107.418 79.7126 100.362 75.6874 93.7111C71.0473 86.2498 65.974 79.1939 61.1522 71.9981C60.9425 71.6209 60.7609 71.8864 60.8308 72.0122Z" fill="white"/>
<path d="M60.9007 72.1379C64.5913 84.4062 68.8548 96.5206 75.1443 107.838C77.0311 111.234 79.0438 114.559 80.9865 117.759C81.0564 117.885 81.3079 117.745 81.238 117.619C76.5279 110.032 72.265 102.361 68.8125 94.0753C65.7933 86.8653 63.4727 79.4317 61.1522 71.9981C61.0823 71.8724 60.8308 72.0122 60.9007 72.1379Z" fill="white"/>
<path d="M43.635 114.815C46.1093 122.822 47.0606 131.346 47.2293 139.646C47.482 148.393 45.8484 158.189 38.9322 163.514C37.996 164.198 37.1158 164.688 35.97 164.995C34.1814 165.331 32.211 164.451 30.8694 163.221C27.9207 160.581 26.7044 156.319 26.9834 152.378C27.2624 148.438 28.771 144.637 30.4194 141.087C34.3448 132.158 38.5916 123.214 43.635 114.815Z" fill="#B1C0D9"/>
<path d="M43.5232 115.207C45.3824 120.922 45.9701 127.014 46.1665 132.995C46.3769 139.297 45.2041 146.367 40.0903 150.197C39.5314 150.672 38.7769 151.091 38.0083 151.189C36.6669 151.441 35.3533 150.854 34.3471 149.932C32.1391 148.032 31.426 144.972 31.6213 142.065C31.8165 139.159 32.99 136.532 34.1634 133.904C36.7896 127.672 39.9188 121.16 43.5232 115.207Z" fill="#627692"/>
<path d="M43.2717 115.346C42.9933 123.731 42.8547 132.366 42.2549 140.764C41.6411 148.841 40.3147 156.82 37.0319 164.24C36.976 164.436 37.1716 164.492 37.2275 164.296C40.4544 157.072 41.725 149.288 42.3528 141.533C43.1342 132.869 43.203 124.108 43.4673 115.402C43.5232 115.207 43.3276 115.151 43.2717 115.346Z" fill="white"/>
<path d="M43.3416 115.472C39.1092 127.7 35.3239 139.843 33.6907 152.601C33.2161 156.486 32.8672 160.301 32.5184 164.115C32.4625 164.311 32.7839 164.297 32.714 164.171C33.3557 155.256 34.5842 146.508 36.7211 137.915C38.5785 130.299 41.0928 122.976 43.6071 115.654C43.5931 115.332 43.3975 115.277 43.3416 115.472Z" fill="white"/>
<path d="M-9.76105 89.5163C-7.28671 97.5228 -6.3354 106.046 -6.16665 114.347C-5.91399 123.094 -7.54762 132.89 -14.4638 138.215C-15.3999 138.899 -16.2802 139.389 -17.426 139.696C-19.2146 140.032 -21.1849 139.152 -22.5266 137.922C-25.4753 135.282 -26.6916 131.02 -26.4126 127.079C-26.1336 123.139 -24.625 119.338 -22.9766 115.788C-18.9254 106.789 -14.6088 97.9709 -9.76105 89.5163Z" fill="#B1C0D9"/>
<path d="M-9.87279 89.9075C-8.01358 95.6224 -7.4259 101.715 -7.2295 107.695C-7.01908 113.997 -8.19194 121.068 -13.3057 124.898C-13.8646 125.373 -14.6191 125.792 -15.3877 125.89C-16.7291 126.142 -18.0427 125.555 -19.0489 124.633C-21.257 122.733 -21.97 119.673 -21.7747 116.766C-21.5795 113.86 -20.4061 111.232 -19.2326 108.605C-16.4807 102.303 -13.4073 95.9864 -9.87279 89.9075Z" fill="#627692"/>
<path d="M-9.92864 90.1032C-10.207 98.4873 -10.3457 107.123 -10.9454 115.521C-11.5592 123.598 -12.8857 131.577 -16.1685 138.997C-16.2244 139.193 -16.0287 139.249 -15.9729 139.053C-12.7459 131.828 -11.4753 124.045 -10.8475 116.29C-10.0661 107.626 -9.9974 98.8646 -9.73302 90.1591C-9.67716 89.9634 -9.87277 89.9076 -9.92864 90.1032Z" fill="white"/>
<path d="M-10.0544 90.1731C-14.2868 102.4 -18.072 114.544 -19.7053 127.302C-20.1799 131.187 -20.5287 135.001 -20.8776 138.816C-20.9334 139.012 -20.612 138.998 -20.6819 138.872C-20.0403 129.957 -18.8118 121.209 -16.6749 112.615C-14.8174 105 -12.3031 97.6772 -9.78886 90.3547C-9.733 90.1591 -9.92864 90.1033 -10.0544 90.1731Z" fill="white"/>
<path d="M-5.49204 144.585C-8.83072 152.201 -13.8742 159.119 -19.1973 165.533C-24.8278 172.283 -32.5403 178.544 -41.3298 177.833C-42.3638 177.749 -43.4677 177.54 -44.4599 176.939C-46.1089 176.045 -46.9057 174.019 -47.1155 172.16C-47.675 168.192 -45.5934 164.237 -42.813 161.54C-39.9069 158.773 -36.316 156.942 -32.7809 155.306C-23.8104 151.309 -14.7002 147.563 -5.49204 144.585Z" fill="#B1C0D9"/>
<path d="M103.525 114.78C107.257 120.606 109.801 127.257 111.758 133.741C113.799 140.671 114.736 148.874 110.35 154.603C109.735 155.274 109.12 155.945 108.366 156.364C106.912 157.007 105.291 156.756 103.908 156.043C100.945 154.563 99.1983 151.419 98.5411 148.163C97.8839 144.907 98.3866 141.665 98.8892 138.423C99.9642 130.584 101.416 122.535 103.525 114.78Z" fill="#B1C0D9"/>
<path d="M103.539 115.101C106.167 119.237 108.054 124.113 109.48 128.752C110.92 133.713 111.563 139.61 108.462 143.802C108.099 144.333 107.54 144.808 107.037 145.088C106.031 145.647 104.731 145.382 103.809 144.907C101.768 143.901 100.315 141.581 99.8954 139.346C99.406 136.984 99.7551 134.651 100.104 132.317C100.942 126.42 102.045 120.705 103.539 115.101Z" fill="#627692"/>
<path d="M103.414 115.171C105.063 121.99 106.839 128.739 108.041 135.642C109.356 142.153 109.972 148.888 109.036 155.498C109.106 155.624 109.176 155.749 109.232 155.554C110.237 149.07 109.565 142.53 108.391 136.27C107.118 129.242 105.203 122.241 103.609 115.227C103.665 115.031 103.414 115.171 103.414 115.171Z" fill="white"/>
<path d="M103.484 115.297C102.786 125.889 102.41 136.467 103.837 147.03C104.298 150.23 104.886 153.36 105.473 156.49C105.543 156.616 105.669 156.546 105.599 156.42C104.256 149.266 103.166 141.972 103.039 134.636C102.884 128.138 103.317 121.808 103.679 115.352C103.609 115.227 103.414 115.171 103.484 115.297Z" fill="white"/>
<path d="M56.0642 167.983C56.8756 174.774 56.4154 181.942 55.4242 188.748C54.3212 195.944 51.5694 203.728 45.142 206.97C44.3875 207.39 43.4373 207.753 42.5989 207.725C41.1177 207.725 39.5945 206.761 38.6442 205.644C36.5338 203.031 36.3098 199.37 37.0779 196.31C37.9019 193.054 39.6483 190.273 41.4645 187.617C46.0609 180.784 50.797 174.202 56.0642 167.983Z" fill="#B1C0D9"/>
<path d="M55.8826 168.248C56.4841 173.181 56.1913 178.281 55.4374 183.144C54.6975 188.328 52.686 193.89 48.089 196.28C47.4603 196.63 46.8874 196.783 46.2446 196.811C45.0848 196.798 44.0926 196.197 43.4078 195.261C41.9124 193.458 41.7304 190.761 42.2751 188.484C42.8197 186.206 44.1469 184.152 45.544 182.223C48.6875 177.514 52.0824 172.664 55.8826 168.248Z" fill="#627692"/>
<path d="M55.8268 168.444C54.3884 175.333 53.0757 182.152 51.2461 188.93C49.5282 195.316 47.2933 201.66 43.6748 207.292C43.5491 207.362 43.8146 207.543 43.7447 207.418C47.3073 201.982 49.682 195.889 51.2741 189.573C53.0339 182.669 54.4583 175.459 55.8268 168.444C55.7569 168.318 55.9525 168.374 55.8268 168.444Z" fill="white"/>
<path d="M55.701 168.514C50.5041 177.821 45.6285 187.114 42.4019 197.301C41.4382 200.306 40.5443 203.436 39.7761 206.496C39.7203 206.692 39.846 206.622 39.9718 206.552C41.7874 199.453 43.9943 192.466 47.0536 185.828C49.6939 179.917 52.7953 174.243 55.9665 168.696C56.0224 168.5 55.8268 168.444 55.701 168.514Z" fill="white"/>
<path d="M140.491 159.085C145.62 161.501 150.469 164.896 154.745 168.445C159.357 172.301 163.578 177.527 163.131 183.535C163.033 184.248 162.936 184.961 162.517 185.687C161.79 186.749 160.533 187.448 159.247 187.504C156.62 187.812 153.853 186.387 151.966 184.473C150.08 182.559 148.878 180.1 147.802 177.571C145.09 171.507 142.504 165.373 140.491 159.085Z" fill="#B1C0D9"/>
<path d="M140.631 159.336C144.376 161.041 147.702 163.471 150.846 166.168C154.186 168.92 157.121 172.721 156.856 176.983C156.814 177.5 156.647 178.087 156.409 178.548C155.864 179.344 154.984 179.834 154.02 179.876C152.036 180.155 150.121 179.08 148.836 177.654C147.55 176.229 146.571 174.469 145.789 172.764C143.986 168.335 142.112 163.78 140.631 159.336Z" fill="#627692"/>
<path d="M140.631 159.336C144.795 163.276 149.03 167.342 153.069 171.352C156.912 175.306 160.322 179.665 162.6 184.653C162.67 184.779 162.796 184.709 162.726 184.584C160.518 179.721 157.177 175.487 153.53 171.589C149.421 167.454 145.061 163.458 140.631 159.336Z" fill="white"/>
<path d="M140.701 159.462C144.964 167.133 149.408 174.538 155.11 181.245C156.871 183.229 158.632 185.213 160.323 187.071C160.393 187.197 160.449 187.001 160.449 187.001C156.2 182.614 152.329 178.017 148.891 173.015C145.928 168.572 143.216 163.989 140.631 159.336C140.756 159.266 140.631 159.336 140.701 159.462Z" fill="white"/>
<path d="M61.5768 222.032C64.1765 227.006 65.9658 232.595 67.1124 238.212C68.3987 244.081 68.4974 250.774 64.5714 255.26C64.0824 255.861 63.5236 256.336 62.8249 256.56C61.6233 257.063 60.2538 256.672 59.066 256.015C56.8161 254.632 55.4742 251.922 55.1665 249.295C54.8587 246.668 55.4453 243.873 55.9759 241.274C57.624 234.762 59.3977 228.18 61.5768 222.032Z" fill="#B1C0D9"/>
<path d="M61.5209 222.227C63.3519 225.818 64.624 229.884 65.5049 233.839C66.3997 238.114 66.61 242.935 63.5921 246.094C63.159 246.499 62.8516 246.834 62.3486 247.114C61.5242 247.407 60.4203 247.198 59.6936 246.779C57.9747 245.759 57.0522 243.803 56.8424 241.944C56.6325 240.086 56.9956 238.074 57.4285 236.187C58.6995 231.366 59.9146 226.741 61.5209 222.227Z" fill="#627692"/>
<path d="M61.5908 222.353C62.4859 228.11 63.5067 233.797 64.0803 239.568C64.64 245.018 64.7525 250.551 63.6353 255.945C63.6353 255.945 63.7052 256.071 63.8309 256.001C65.018 250.733 64.9754 245.325 64.3599 240.071C63.7163 234.174 62.7514 228.292 61.7865 222.409C61.7166 222.283 61.5209 222.227 61.5908 222.353Z" fill="white"/>
<path d="M61.4651 222.423C60.1666 231.045 59.1896 239.652 59.6379 248.456C59.75 251.027 60.0578 253.654 60.2398 256.351C60.3097 256.476 60.4354 256.406 60.3655 256.281C59.6521 250.258 59.3858 244.152 59.7064 238.213C60.125 233.043 60.9208 227.663 61.4651 222.423C61.5908 222.353 61.7166 222.283 61.4651 222.423Z" fill="white"/>
<path d="M85.2107 258.933C90.2276 261.741 94.5738 265.415 98.6127 269.425C102.917 273.617 106.705 279.247 105.671 285.088C105.574 285.801 105.35 286.584 104.861 287.185C104.135 288.247 102.737 288.694 101.452 288.75C98.7549 288.932 96.1696 287.242 94.5345 285.188C92.8294 283.008 91.7531 280.479 90.8725 278.006C88.8595 271.718 86.7766 265.304 85.2107 258.933Z" fill="#B1C0D9"/>
<path d="M85.3505 259.184C88.914 261.154 92.1841 263.781 95.0212 266.812C98.0538 269.9 100.933 273.896 100.151 278.116C100.109 278.633 99.9414 279.22 99.6341 279.556C99.0892 280.352 98.1391 280.716 97.1749 280.758C95.2466 280.842 93.332 279.766 92.1022 278.145C90.9422 276.65 90.0896 274.82 89.5583 272.975C88.0067 268.406 86.455 263.837 85.3505 259.184Z" fill="#627692"/>
<path d="M85.4204 259.31C89.2776 263.585 93.1349 267.861 96.9362 272.332C100.472 276.621 103.505 281.19 105.406 286.388C105.476 286.514 105.602 286.444 105.532 286.318C103.701 281.246 100.738 276.803 97.2716 272.639C93.5261 267.972 89.4733 263.641 85.5461 259.24C85.4763 259.114 85.3505 259.184 85.4204 259.31Z" fill="white"/>
<path d="M85.4204 259.31C89.0545 267.33 92.9961 275.015 98.1392 282.197C99.6487 284.321 101.284 286.375 102.919 288.429C102.989 288.554 103.045 288.359 103.045 288.359C99.2992 283.692 95.6096 278.83 92.6745 273.548C90.0888 268.895 87.7546 264.103 85.5462 259.24C85.4763 259.114 85.3505 259.184 85.4204 259.31Z" fill="white"/>
<path d="M174.95 160.673C178.946 159.276 183.236 158.702 187.414 158.52C191.913 158.324 196.776 159.078 199.501 162.501C199.907 162.934 200.186 163.437 200.27 163.884C200.438 164.778 200.033 165.826 199.418 166.497C198.133 168.034 195.967 168.58 193.969 168.538C191.971 168.496 190.07 167.742 188.295 166.918C183.838 165.116 179.24 163.062 174.95 160.673Z" fill="#B1C0D9"/>
<path d="M175.145 160.729C178.066 159.765 181.14 159.373 184.158 159.177C187.372 159.037 190.935 159.525 192.85 162.082C193.06 162.46 193.395 162.767 193.409 163.088C193.633 163.787 193.214 164.514 192.781 164.919C191.928 166.051 190.335 166.442 188.854 166.443C187.499 166.373 186.059 165.856 184.746 165.269C181.532 163.928 178.248 162.461 175.145 160.729Z" fill="#627692"/>
<path d="M175.215 160.855C179.533 160.924 183.781 160.868 188.043 161.133C192.109 161.342 196.19 161.872 199.865 163.451L199.991 163.381C196.315 161.803 192.431 161.328 188.49 161.049C184.033 160.728 179.589 160.729 175.215 160.855Z" fill="white"/>
<path d="M175.341 160.785C181.546 162.768 187.61 164.5 194.15 165.31C196.092 165.547 197.965 165.659 199.963 165.7C199.963 165.7 200.089 165.631 199.893 165.575C195.436 165.254 190.908 164.807 186.618 163.9C182.845 163.034 179.128 161.972 175.341 160.785C175.271 160.659 175.215 160.855 175.341 160.785Z" fill="white"/>
<path d="M133.058 272.173C137.054 270.776 141.344 270.202 145.522 270.02C150.021 269.824 154.884 270.578 157.609 274.001C158.015 274.434 158.294 274.937 158.378 275.384C158.546 276.278 158.141 277.326 157.526 277.997C156.241 279.534 154.075 280.08 152.077 280.038C150.078 279.996 148.178 279.242 146.403 278.418C141.876 276.49 137.348 274.562 133.058 272.173Z" fill="#B1C0D9"/>
<path d="M133.253 272.229C136.174 271.265 139.248 270.873 142.266 270.677C145.48 270.537 149.043 271.025 150.958 273.582C151.168 273.96 151.503 274.267 151.517 274.588C151.741 275.287 151.322 276.014 150.888 276.419C150.036 277.551 148.443 277.942 146.962 277.943C145.607 277.873 144.167 277.356 142.854 276.769C139.57 275.303 136.286 273.836 133.253 272.229Z" fill="#627692"/>
<path d="M133.379 272.159C137.697 272.229 141.945 272.172 146.207 272.437C150.273 272.646 154.353 273.177 158.029 274.755L158.154 274.685C154.479 273.107 150.595 272.632 146.654 272.353C142.071 272.102 137.823 272.159 133.379 272.159C133.309 272.034 133.253 272.229 133.379 272.159Z" fill="white"/>
<path d="M133.449 272.285C139.653 274.268 145.718 276 152.258 276.81C154.2 277.047 156.073 277.159 158.071 277.2C158.071 277.2 158.197 277.131 158.001 277.075C153.543 276.754 149.016 276.307 144.726 275.4C140.953 274.534 137.166 273.347 133.449 272.285C133.379 272.159 133.379 272.159 133.449 272.285Z" fill="white"/>
<path d="M-8.63071 294.13C-4.81571 295.96 -1.29408 298.447 1.72455 301.213C5.00871 304.161 8.13928 308.017 7.74858 312.349C7.70673 312.866 7.53912 313.453 7.30163 313.914C6.75677 314.711 5.80662 315.074 4.91234 315.242C2.92814 315.522 1.01363 314.446 -0.467749 312.965C-1.7535 311.54 -2.67601 309.584 -3.45874 307.879C-5.45753 303.394 -7.20482 298.769 -8.63071 294.13Z" fill="#B1C0D9"/>
<path d="M-8.56084 294.256C-5.86379 295.555 -3.33433 297.441 -1.12628 299.341C1.3473 301.423 3.52751 304.161 3.22052 307.459C3.10878 307.851 3.12281 308.172 2.88532 308.633C2.52208 309.164 1.89331 309.514 1.12478 309.611C-0.286531 309.737 -1.67 309.025 -2.7461 307.977C-3.69644 306.859 -4.39527 305.602 -4.96835 304.274C-6.14255 300.977 -7.51239 297.623 -8.56084 294.256Z" fill="#627692"/>
<path d="M-8.49095 294.381C-5.52818 297.343 -2.36978 300.361 0.592982 303.323C3.36011 306.229 5.81985 309.471 7.59498 313.258C7.59498 313.258 7.79062 313.313 7.72074 313.188C6.21113 309.583 3.62563 306.411 1.05413 303.561C-2.0484 300.347 -5.33255 297.399 -8.49095 294.381C-8.56083 294.256 -8.56083 294.256 -8.49095 294.381Z" fill="white"/>
<path d="M-8.49095 294.382C-5.47194 300.11 -2.20142 305.699 2.00523 310.603C3.29098 312.029 4.57673 313.454 5.93236 315.005L6.05811 314.935C2.95557 311.721 0.160427 308.172 -2.38323 304.484C-4.64734 301.298 -6.53421 297.903 -8.49095 294.382Z" fill="white"/>
<path d="M172.281 161.498C173.007 157.474 174.32 153.617 175.969 150.067C177.673 146.322 180.341 142.535 184.254 142.171C184.701 142.087 185.218 142.129 185.679 142.367C186.532 142.716 187.021 143.596 187.314 144.421C187.915 146.391 187.552 148.403 186.588 149.926C185.694 151.575 184.325 152.665 182.83 153.825C179.602 156.606 175.984 159.276 172.281 161.498Z" fill="#B1C0D9"/>
<path d="M172.532 161.358C173.049 158.438 174.027 155.755 175.2 153.128C176.5 150.431 178.316 147.775 181.068 147.398C181.39 147.384 181.711 147.37 182.103 147.482C182.689 147.649 183.109 148.404 183.263 148.977C183.71 150.374 183.389 151.869 182.732 153.057C182.075 154.245 181.083 155.125 180.022 155.88C177.66 157.85 175.103 159.765 172.532 161.358Z" fill="#627692"/>
<path d="M172.532 161.358C174.377 157.865 176.151 154.246 178.26 150.934C180.244 147.691 182.368 144.701 185.162 142.325L185.092 142.199C182.354 144.379 180.23 147.37 178.372 150.542C176.207 154.05 174.432 157.669 172.532 161.358Z" fill="white"/>
<path d="M172.658 161.289C176.864 157.306 180.804 153.141 184.129 148.166C185.093 146.643 186.057 145.119 187.021 143.596L186.951 143.47C184.855 147.104 182.62 150.486 179.854 153.504C177.59 156.243 175.061 158.801 172.658 161.289C172.463 161.233 172.532 161.358 172.658 161.289Z" fill="white"/>
<path d="M130.556 272.411C131.283 268.387 132.596 264.53 134.244 260.98C135.948 257.235 138.617 253.448 142.529 253.084C142.976 253 143.493 253.042 143.955 253.28C144.807 253.629 145.296 254.509 145.59 255.334C146.191 257.304 145.828 259.316 144.864 260.839C143.97 262.488 142.6 263.578 141.105 264.738C137.752 267.589 134.259 270.189 130.556 272.411Z" fill="#B1C0D9"/>
<path d="M130.682 272.341C131.199 269.421 132.177 266.738 133.35 264.111C134.649 261.414 136.466 258.758 139.218 258.381C139.54 258.367 139.861 258.353 140.252 258.464C140.839 258.632 141.258 259.387 141.412 259.959C141.86 261.357 141.538 262.852 140.882 264.04C140.225 265.228 139.233 266.108 138.171 266.863C135.81 268.833 133.253 270.748 130.682 272.341Z" fill="#627692"/>
<path d="M130.808 272.272C132.652 268.778 134.426 265.159 136.536 261.847C138.52 258.604 140.643 255.614 143.438 253.238L143.368 253.112C140.629 255.293 138.506 258.283 136.648 261.455C134.482 264.963 132.582 268.652 130.808 272.272C130.682 272.341 130.682 272.341 130.808 272.272Z" fill="white"/>
<path d="M130.808 272.271C135.013 268.288 138.953 264.124 142.279 259.149C143.243 257.626 144.206 256.102 145.17 254.579L145.101 254.453C143.005 258.087 140.77 261.469 138.003 264.487C135.74 267.226 133.211 269.784 130.808 272.271C130.612 272.216 130.682 272.341 130.808 272.271Z" fill="white"/>
<path d="M-8.2813 294.759C-5.85034 291.433 -2.87432 288.791 0.171574 286.276C3.34322 283.69 7.43718 281.58 11.0425 283.033C11.5037 283.27 11.895 283.382 12.3002 283.815C12.8453 284.5 12.8874 285.464 12.8036 286.498C12.5664 288.44 11.1552 290.047 9.59034 291.081C8.02544 292.116 6.23686 292.451 4.51818 292.913C0.368159 293.738 -3.97749 294.507 -8.2813 294.759Z" fill="#B1C0D9"/>
<path d="M-8.15553 294.689C-6.3253 292.355 -4.28544 290.399 -1.98004 288.624C0.325354 286.849 3.21767 285.241 5.90071 286.219C6.29198 286.331 6.5575 286.513 6.69727 286.764C7.10256 287.197 7.20046 287.966 7.10274 288.678C6.90729 290.104 5.9293 291.305 4.79753 291.934C3.73564 292.689 2.39423 292.941 1.17856 293.123C-1.93741 294.031 -5.01153 294.423 -8.15553 294.689Z" fill="#627692"/>
<path d="M-8.08563 294.815C-4.89997 292.551 -1.58856 290.217 1.66699 288.078C4.79679 286.01 8.13623 284.318 11.7134 283.647C11.7134 283.647 11.7692 283.452 11.6435 283.521C8.26198 284.249 4.92254 285.94 1.84861 287.813C-1.40694 289.951 -4.71835 292.285 -8.08563 294.815Z" fill="white"/>
<path d="M-7.9599 294.745C-2.49648 293.025 3.02281 291.11 8.30441 288.175C9.81344 287.336 11.4482 286.428 12.8874 285.464L12.8175 285.338C9.31042 287.616 5.78936 289.573 2.05864 291.152C-1.29483 292.522 -4.66231 293.571 -7.9599 294.745C-8.02978 294.619 -8.08565 294.815 -7.9599 294.745Z" fill="white"/>
<path d="M134.943 155.914C139.568 152.685 144.933 150.197 150.257 148.226C155.902 146.241 162.553 145.178 167.403 148.573C168.003 149.062 168.604 149.551 168.954 150.18C169.583 151.312 169.387 152.737 168.856 153.855C167.809 156.412 165.238 158.006 162.625 158.635C160.012 159.264 157.231 158.999 154.52 158.86C148.051 158.176 141.441 157.24 134.943 155.914Z" fill="#B1C0D9"/>
<path d="M135.195 155.774C138.506 153.44 142.293 151.665 146.163 150.337C150.285 148.869 155.022 148.212 158.474 150.573C158.935 150.81 159.34 151.243 159.62 151.746C160.039 152.501 159.955 153.535 159.606 154.387C158.782 156.162 156.966 157.336 155.121 157.867C153.207 158.273 151.209 158.231 149.266 157.994C144.739 157.547 139.876 156.793 135.195 155.774Z" fill="#627692"/>
<path d="M135.39 155.83C140.924 154.236 146.513 152.447 152.06 151.174C157.412 149.846 162.917 149.091 168.409 149.495C168.535 149.426 168.535 149.426 168.465 149.3C163.099 148.825 157.719 149.511 152.493 150.769C146.694 152.181 141.035 153.845 135.25 155.578C135.195 155.774 135.264 155.9 135.39 155.83Z" fill="white"/>
<path d="M135.39 155.83C144.222 156.024 152.843 155.841 161.534 154.303C164.092 153.87 166.705 153.241 169.192 152.681C169.317 152.611 169.248 152.486 169.122 152.556C163.197 154.038 157.315 155.002 151.222 155.59C146.08 155.814 140.672 155.857 135.39 155.83C135.32 155.704 135.264 155.9 135.39 155.83Z" fill="white"/>
<path d="M61.3672 221.654C67.0404 221.793 72.6998 223.092 78.1218 224.852C83.8651 226.598 89.8043 229.881 91.6635 235.596C91.8872 236.295 91.9851 237.063 91.8873 237.776C91.7478 239.006 90.6999 240.082 89.5681 240.711C87.1788 242.038 84.2723 241.843 81.715 240.795C79.2835 239.678 77.1453 237.904 75.1329 236.059C70.4931 231.56 65.7136 226.81 61.3672 221.654Z" fill="#B1C0D9"/>
<path d="M61.5069 221.906C65.5732 222.115 69.6676 222.967 73.6502 224.21C77.8284 225.509 82.0487 227.772 83.3907 231.964C83.5445 232.537 83.6284 232.984 83.5865 233.501C83.4329 234.409 82.6924 235.15 81.9379 235.569C80.1774 236.548 78.1093 236.38 76.3345 235.556C74.5598 234.732 73.0225 233.447 71.611 232.091C68.0614 228.962 64.6933 225.567 61.5069 221.906Z" fill="#627692"/>
<path d="M61.7025 221.962C67.1385 224.043 72.5046 225.999 77.8847 228.276C82.8735 230.441 87.8205 233.123 91.8453 236.812C91.9152 236.938 91.971 236.742 91.971 236.742C88.0161 233.179 83.2648 230.553 78.4017 228.318C72.826 225.985 67.2643 223.973 61.7025 221.962C61.5069 221.906 61.6327 221.836 61.7025 221.962Z" fill="white"/>
<path d="M61.7026 221.962C68.6341 227.327 75.6215 232.496 83.4612 236.533C85.7669 237.721 88.1985 238.838 90.5601 239.83C90.63 239.956 90.6859 239.76 90.616 239.635C85.0403 237.302 79.702 234.508 74.6013 231.253C70.2272 228.417 65.9649 225.189 61.7026 221.962Z" fill="white"/>
<path d="M85.6439 258.527C90.5482 255.802 96.1374 254.012 101.685 252.74C107.553 251.454 114.303 251.16 118.789 255.086C119.389 255.575 119.865 256.133 120.088 256.832C120.592 258.034 120.2 259.403 119.67 260.521C118.356 262.897 115.646 264.239 113.019 264.546C110.392 264.854 107.667 264.393 104.998 263.737C98.5 262.41 91.9183 260.636 85.6439 258.527Z" fill="#B1C0D9"/>
<path d="M85.8395 258.583C89.3606 256.626 93.4267 255.354 97.3811 254.474C101.587 253.453 106.478 253.368 109.692 256.191C110.097 256.624 110.433 256.931 110.712 257.434C111.006 258.259 110.922 259.293 110.377 260.089C109.357 261.808 107.401 262.731 105.543 262.94C103.559 263.22 101.672 262.787 99.7856 262.354C95.1043 261.335 90.3532 260.19 85.8395 258.583Z" fill="#627692"/>
<path d="M86.0351 258.639C91.7222 257.618 97.4093 256.598 103.11 255.898C108.49 255.213 114.149 255.03 119.543 256.148C119.669 256.078 119.669 256.078 119.599 255.952C114.331 254.765 108.993 254.933 103.613 255.619C97.7167 256.262 91.7781 257.423 85.8954 258.388C85.9653 258.513 85.9094 258.709 86.0351 258.639Z" fill="white"/>
<path d="M86.0351 258.639C94.7827 259.868 103.321 260.719 112.18 260.075C114.877 259.893 117.378 259.655 120.005 259.347C120.131 259.277 120.061 259.152 119.935 259.222C113.912 259.935 107.876 260.327 101.811 260.076C96.5853 259.853 91.3452 259.309 86.0351 258.639Z" fill="white"/>
<path d="M9.28133 62.4749C13.5423 55.3339 19.1868 48.9054 25.2506 43.2314C31.6217 37.2219 39.9492 31.7712 48.585 33.391C49.689 33.6005 50.737 34.0056 51.6035 34.6762C53.0708 35.8358 53.6719 37.806 53.756 39.7343C53.7985 43.6608 51.4514 47.434 48.2099 49.8938C45.0941 52.2836 41.2935 53.7373 37.4789 54.8697C28.2008 57.7215 18.7272 60.5174 9.28133 62.4749Z" fill="#B1C0D9"/>
<path d="M9.6586 62.2653C12.7181 57.1087 16.8956 52.483 21.157 48.3043C25.7956 43.9161 31.7478 40.1145 37.9802 41.2595C38.7627 41.483 39.5453 41.7065 40.1462 42.1955C41.2781 43.0477 41.7255 44.445 41.6558 45.8004C41.7819 48.6929 39.9657 51.3481 37.6603 53.1231C35.3549 54.898 32.6302 55.9184 29.9614 56.7432C23.2963 58.9658 16.4915 60.937 9.6586 62.2653Z" fill="#627692"/>
<path d="M9.85422 62.3212C16.3791 56.8847 22.7643 51.1967 29.429 46.0116C35.7863 41.162 42.6747 36.6756 50.2899 34.0896C50.4156 34.0197 50.3457 33.8939 50.22 33.9638C42.7305 36.48 36.0238 40.7009 29.7922 45.4806C22.876 50.8054 16.3651 56.5633 9.5887 62.1396C9.46295 62.2095 9.72847 62.3911 9.85422 62.3212Z" fill="white"/>
<path d="M9.97998 62.2513C21.8708 57.2891 33.3563 51.8939 44.115 44.5983C47.3705 42.4599 50.3605 40.14 53.4763 37.7501C53.6021 37.6802 53.4623 37.4287 53.3365 37.4986C46.2946 42.8933 38.9173 47.9806 31.1765 52.1177C24.316 55.7657 17.1759 58.9107 9.96596 61.9299C9.71445 62.0696 9.85423 62.3211 9.97998 62.2513Z" fill="white"/>
<path d="M57.9659 69.8188C65.9166 67.5401 74.5102 66.7146 82.8803 66.6716C91.6975 66.5447 101.437 68.374 106.58 75.5557C107.265 76.4918 107.754 77.3721 107.936 78.5878C108.272 80.3763 107.392 82.3467 106.162 83.6883C103.522 86.6371 99.1901 87.7275 95.1796 87.3228C91.1692 86.9181 87.4939 85.3396 83.9445 83.6912C75.1266 79.3745 66.2389 74.9321 57.9659 69.8188Z" fill="#B1C0D9"/>
<path d="M58.3572 69.9305C64.142 68.197 70.3043 67.7351 76.229 67.7343C82.6009 67.6497 89.6158 69.0182 93.2496 74.0761C93.7247 74.635 94.144 75.3895 94.242 76.158C94.4937 77.4994 93.7812 78.8829 92.8591 79.8891C90.8891 81.9714 87.829 82.6845 84.9225 82.4892C82.1417 82.2241 79.3888 81.1205 76.8874 79.8772C70.5709 76.8038 64.3104 73.5349 58.3572 69.9305Z" fill="#627692"/>
<path d="M58.4271 70.0563C66.8811 70.4605 75.3351 70.8646 83.8032 71.5901C91.8241 72.3996 99.873 73.8518 107.168 77.2045C107.363 77.2603 107.419 77.0647 107.223 77.0088C100.124 73.712 92.3271 72.12 84.5018 71.3665C75.7683 70.4593 67.0627 70.1949 58.4131 69.7349C58.2873 69.8048 58.3572 69.9306 58.4271 70.0563Z" fill="white"/>
<path d="M58.5528 69.9864C70.5986 74.4843 82.6862 78.4652 95.4582 80.4198C99.2171 80.9643 103.102 81.4389 106.917 81.7877C107.112 81.8436 107.098 81.5222 106.973 81.5921C98.1132 80.7549 89.2957 79.4006 80.7576 77.0681C73.1977 75.015 65.8753 72.5007 58.5388 69.665C58.483 69.8606 58.4271 70.0563 58.5528 69.9864Z" fill="white"/>
<path d="M44.8648 116.436C53.0954 117.623 61.1445 120.556 68.7605 123.895C76.7119 127.541 84.943 133.171 86.6069 141.793C86.8446 142.813 86.9565 143.903 86.6213 145.076C86.1185 146.837 84.5676 148.193 82.863 148.976C79.258 150.485 74.8423 149.647 71.4744 147.733C68.0367 145.694 65.3953 142.718 62.7539 139.742C56.5068 132.351 50.3714 124.568 44.8648 116.436Z" fill="#B1C0D9"/>
<path d="M45.2002 116.744C51.0972 117.581 57.0501 119.704 62.3744 122.177C68.0898 124.761 74.0012 128.883 75.3015 135.073C75.3994 135.841 75.4973 136.61 75.2739 137.393C74.8828 138.762 73.765 139.712 72.5634 140.216C69.9086 141.362 66.7924 140.789 64.3468 139.35C61.9013 137.911 59.8749 135.746 58.0441 133.636C53.488 128.103 49.0577 122.5 45.2002 116.744Z" fill="#627692"/>
<path d="M45.2701 116.869C52.7185 120.795 60.4184 124.581 67.755 128.898C74.7563 132.907 81.3384 137.643 86.691 143.721C86.7609 143.847 87.0124 143.707 86.9425 143.581C81.7855 137.559 75.4689 133.005 68.6633 129.051C61.131 124.678 53.3613 120.767 45.6474 116.66C45.326 116.674 45.2002 116.744 45.2701 116.869Z" fill="white"/>
<path d="M45.4658 116.925C54.6196 125.993 63.8851 134.669 74.6317 141.864C77.8179 144.044 81.1858 145.957 84.4279 147.941C84.6235 147.997 84.6794 147.802 84.4837 147.746C76.7558 143.317 69.3911 138.357 62.5155 132.797C56.4363 127.781 50.986 122.416 45.3959 116.799C45.5216 116.73 45.2701 116.869 45.4658 116.925Z" fill="white"/>
<path d="M104.35 115.967C111.393 116.497 118.561 118.439 125.171 120.855C132.172 123.384 139.509 127.7 141.564 134.952C141.732 135.847 141.969 136.867 141.816 137.775C141.564 139.396 140.265 140.612 138.812 141.255C135.724 142.806 132.035 142.388 129.072 140.907C125.984 139.496 123.496 137.093 121.135 134.62C115.209 128.696 109.465 122.506 104.35 115.967Z" fill="#B1C0D9"/>
<path d="M104.615 116.149C109.786 116.568 114.802 117.894 119.582 119.682C124.682 121.456 129.909 124.642 131.293 129.798C131.516 130.496 131.544 131.139 131.447 131.852C131.237 132.956 130.315 133.962 129.239 134.395C127.031 135.457 124.376 135.122 122.21 134.187C119.975 133.125 118.228 131.462 116.537 129.604C112.358 125.343 108.235 120.886 104.615 116.149Z" fill="#627692"/>
<path d="M104.685 116.275C111.379 119.138 118.003 121.876 124.515 125.005C130.636 128.023 136.715 131.557 141.564 136.434C141.634 136.559 141.885 136.42 141.69 136.364C136.91 131.613 131.153 128.065 125.228 125.103C118.576 121.722 111.631 118.999 104.867 116.009C104.615 116.149 104.56 116.345 104.685 116.275Z" fill="white"/>
<path d="M104.755 116.4C113.056 123.638 121.595 130.414 131.168 135.792C134.004 137.343 136.967 138.824 139.93 140.304C139.999 140.43 140.181 140.165 139.985 140.109C133.208 136.798 126.542 133.096 120.365 128.793C114.915 124.909 109.898 120.62 104.881 116.33C104.811 116.205 104.685 116.275 104.755 116.4Z" fill="white"/>
<path d="M56.3158 167.843C62.7579 170.847 68.6833 175.289 73.91 179.956C79.4721 184.93 84.7828 191.524 84.0153 199.028C83.8617 199.937 83.7081 200.845 83.2331 201.767C82.325 203.095 80.7461 203.808 79.209 204.004C75.8135 204.409 72.5155 202.621 70.1537 200.148C67.7919 197.675 66.3662 194.517 65.0103 191.485C61.8374 183.702 58.7901 175.85 56.3158 167.843Z" fill="#B1C0D9"/>
<path d="M56.5254 168.22C61.1928 170.399 65.3853 173.501 69.2704 176.938C73.3511 180.431 77.0407 185.293 76.5663 190.659C76.4686 191.372 76.301 191.959 76.0076 192.615C75.4069 193.608 74.2052 194.111 73.1153 194.223C70.6141 194.461 68.2384 193.147 66.6173 191.415C64.9961 189.682 63.864 187.349 62.9275 185.071C60.4954 179.51 58.3147 173.809 56.5254 168.22Z" fill="#627692"/>
<path d="M56.5953 168.346C61.7102 173.404 66.9509 178.392 71.8843 183.715C76.4822 188.731 80.8426 194.208 83.5683 200.593C83.6382 200.719 83.7639 200.649 83.6941 200.523C81.0383 194.264 76.9434 188.968 72.4153 184.078C67.4121 178.629 61.9059 173.46 56.6512 168.15C56.5813 168.025 56.5254 168.22 56.5953 168.346Z" fill="white"/>
<path d="M56.5953 168.346C61.7807 177.973 67.2176 187.46 74.2194 195.913C76.3298 198.526 78.496 200.943 80.7879 203.291C80.8578 203.416 80.9137 203.221 80.9137 203.221C75.7148 197.716 70.9491 191.806 66.7423 185.42C63.1503 179.845 59.9357 174.061 56.7769 168.08C56.7769 168.08 56.5254 168.22 56.5953 168.346Z" fill="white"/>
<path d="M196.928 144.839C198.074 143.05 199.625 141.694 201.301 140.269C211.808 131.632 225.935 127.731 239.364 129.979C239.685 129.965 240.076 130.077 240.286 130.454C240.566 130.957 240.007 131.433 239.699 131.768C231.693 138.686 221.731 143.564 211.307 145.242C206.835 146.081 202.015 146.291 197.752 144.545" fill="#AD1B1E"/>
<path d="M196.257 144.224C198.144 143.176 199.625 141.694 201.106 140.213C210.397 130.277 214.936 116.233 213.509 102.707C213.495 102.385 213.411 101.938 213.076 101.631C212.615 101.393 211.986 101.743 211.748 102.204C204.288 109.806 199.105 119.435 196.661 129.845C195.697 134.331 195.195 139.054 196.607 143.372" fill="#AD1B1E"/>
<path d="M194.902 142.673C191.394 139.026 190.01 133.87 188.835 129.091C188.136 126.353 187.563 123.544 187.702 120.833C187.828 117.801 188.792 114.797 190.021 111.974C190.719 110.269 191.613 108.62 193.039 107.334C194.338 106.118 196.294 105.196 198.041 105.377C200.5 105.656 202.471 108.018 203.156 110.435C203.841 112.852 203.506 115.507 203.227 117.967C202.04 126.197 200.141 134.33 196.536 141.764C196.187 142.617 195.391 143.553 194.538 143.204" fill="#E92438"/>
<path d="M195.936 144.238C195.837 139.026 197.611 133.925 200.252 129.495C202.892 125.065 206.72 121.292 210.633 117.966C213.679 115.45 216.99 113.116 221.028 112.682C224.871 112.193 229.399 114.121 230.531 117.935C231.244 120.995 230.029 124.14 228.268 126.599C226.145 129.59 223.294 132.161 220.235 134.355C214.869 138.325 208.959 141.609 202.825 144.195C200.547 145.132 197.683 145.901 195.81 144.308" fill="#E92438"/>
<path d="M196.998 144.964C202.126 142.937 207.45 140.967 212.871 139.764C218.293 138.562 224.008 138.184 229.472 139.427C232.141 140.083 235.229 141.494 235.607 144.247C235.97 146.678 234.07 148.886 232.002 150.2C227.811 153.023 222.431 153.708 217.386 153.22C212.342 152.732 207.507 151.139 202.672 149.547C201.498 149.212 200.45 148.807 199.514 148.01C198.577 147.214 197.823 146.152 198.032 145.048" fill="#E92438"/>
<path d="M197.85 145.314C203.705 143.706 209.881 143.565 216.058 143.425C222.555 143.27 228.927 143.186 235.313 143.422C235.439 143.353 235.369 143.227 235.369 143.227C228.787 142.934 222.29 143.089 215.792 143.243C209.811 143.44 203.761 143.51 197.906 145.118C197.655 145.258 197.725 145.384 197.85 145.314Z" fill="#FFFFE6"/>
<path d="M198.102 145.174C198.06 145.691 198.968 145.844 199.36 145.956C200.603 146.417 201.777 146.752 203.077 147.018C205.354 147.562 207.814 147.841 210.133 147.869C215.429 148.218 220.767 148.049 226.035 147.755C229.054 147.559 232.072 147.363 235.02 147.041C235.146 146.972 235.076 146.846 234.95 146.916C228.606 147.643 222.374 147.979 216.058 147.868C213.096 147.869 210.259 147.799 207.283 147.478C205.732 147.353 204.237 147.031 202.741 146.71C202.029 146.613 198.186 145.621 198.102 145.174C198.158 144.978 198.228 145.104 198.102 145.174Z" fill="#FFFFE6"/>
<path d="M197.179 143.218C197.445 141.918 198.423 140.716 199.149 139.654C199.876 138.592 200.728 137.46 201.454 136.398C203.159 134.134 204.863 131.87 206.708 129.858C210.452 125.637 214.671 121.976 219.101 118.691C221.476 117.042 224.089 114.932 227.023 114.289C227.149 114.219 227.079 114.093 226.953 114.163C224.466 114.722 222.161 116.497 219.967 117.881C217.592 119.53 215.412 121.235 213.302 123.066C209.083 126.727 205.213 131.018 201.804 135.546C200.896 136.873 199.792 138.145 198.954 139.598C198.283 140.465 197.375 141.792 197.179 143.218C197.054 143.288 197.124 143.413 197.179 143.218Z" fill="#FFFFE6"/>
<path d="M229.79 117.195C228.281 119.515 226.116 121.541 224.202 123.428C222.287 125.314 220.178 127.145 218.138 129.102C213.918 132.763 209.433 136.243 204.739 139.346C202.112 141.135 199.345 142.672 196.579 144.21C196.453 144.28 196.523 144.406 196.649 144.336C206.723 139.066 215.623 131.981 223.908 124.085C226.074 122.058 228.365 119.962 230.056 117.376C230.042 117.055 229.846 116.999 229.79 117.195Z" fill="#FFFFE6"/>
<path d="M195.414 105.685C191.894 115.048 189.715 125.64 192.651 135.365C193.476 138.034 194.622 140.689 196.201 142.938C196.271 143.064 196.397 142.994 196.327 142.869C188.892 131.858 191.098 117.465 195.414 105.685C195.54 105.615 195.735 105.671 195.414 105.685Z" fill="#FFFFE6"/>
<path d="M200.137 106.188C199.174 112.154 198.28 118.247 197.904 124.381C197.778 127.414 197.723 130.572 197.667 133.73C197.486 136.958 197.235 140.06 196.858 143.232C196.928 143.358 197.054 143.288 197.054 143.288C197.5 140.241 197.752 137.139 197.877 134.107C198.128 131.005 198.058 127.917 198.113 124.759C198.42 118.499 199.313 112.406 200.137 106.188C200.067 106.062 200.263 106.118 200.137 106.188Z" fill="#FFFFE6"/>
<path d="M191.004 147.802C189.344 144.815 190.42 141.049 193.406 139.39C196.392 137.73 200.159 138.805 201.818 141.792C203.478 144.778 202.402 148.545 199.416 150.204C196.43 151.864 192.663 150.788 191.004 147.802Z" fill="#AD1B1E"/>
<path d="M164.091 254.269C165.236 252.481 166.787 251.125 168.464 249.699C178.971 241.063 193.097 237.162 206.526 239.41C206.917 239.522 207.309 239.634 207.448 239.885C207.728 240.388 207.169 240.863 206.862 241.199C198.926 248.242 188.963 253.12 178.413 254.868C173.942 255.707 169.121 255.918 164.859 254.171" fill="#AD1B1E"/>
<path d="M163.42 253.654C165.306 252.606 166.787 251.125 168.268 249.643C177.559 239.707 182.099 225.663 180.672 212.137C180.658 211.816 180.574 211.368 180.238 211.061C179.777 210.824 179.148 211.173 178.911 211.634C171.45 219.237 166.267 228.865 163.823 239.276C162.86 243.761 162.357 248.484 163.769 252.802" fill="#AD1B1E"/>
<path d="M162.134 252.229C158.626 248.583 157.242 243.427 156.068 238.648C155.369 235.909 154.795 233.101 154.935 230.39C155.06 227.357 156.024 224.353 157.253 221.53C157.952 219.825 158.846 218.176 160.271 216.891C161.57 215.675 163.526 214.752 165.273 214.934C167.733 215.213 169.703 217.574 170.388 219.991C171.073 222.409 170.738 225.064 170.459 227.523C169.272 235.754 167.373 243.886 163.769 251.321C163.42 252.173 162.623 253.11 161.771 252.76" fill="#E92438"/>
<path d="M163.168 253.794C163.07 248.582 164.844 243.482 167.484 239.052C170.125 234.622 173.953 230.848 177.865 227.522C180.911 225.007 184.222 222.673 188.261 222.239C192.103 221.749 196.631 223.677 197.763 227.492C198.602 230.482 197.317 233.5 195.556 235.96C193.433 238.951 190.583 241.522 187.523 243.716C182.157 247.685 176.247 250.97 170.113 253.556C167.835 254.492 164.971 255.261 163.098 253.669" fill="#E92438"/>
<path d="M164.23 254.521C169.358 252.494 174.682 250.523 180.104 249.321C185.525 248.118 191.24 247.74 196.704 248.983C199.373 249.639 202.461 251.05 202.839 253.803C203.133 256.109 201.233 258.317 199.235 259.756C195.043 262.579 189.663 263.265 184.619 262.776C179.574 262.288 174.739 260.696 169.904 259.103C168.73 258.768 167.682 258.363 166.746 257.567C165.81 256.77 165.055 255.708 165.264 254.604" fill="#E92438"/>
<path d="M165.083 254.87C170.937 253.262 177.114 253.122 183.29 252.981C189.788 252.827 196.16 252.742 202.545 252.979C202.671 252.909 202.601 252.783 202.601 252.783C196.02 252.491 189.522 252.645 183.024 252.8C177.044 252.996 170.993 253.067 165.139 254.674C165.013 254.744 164.957 254.94 165.083 254.87Z" fill="#FFFFE6"/>
<path d="M165.334 254.73C165.292 255.247 166.201 255.401 166.592 255.513C167.836 255.973 169.009 256.309 170.309 256.574C172.587 257.119 175.046 257.398 177.366 257.425C182.662 257.774 188 257.606 193.268 257.312C196.286 257.116 199.304 256.92 202.252 256.598C202.378 256.528 202.308 256.402 202.183 256.472C195.839 257.2 189.607 257.536 183.291 257.425C180.328 257.425 177.492 257.356 174.515 257.035C172.964 256.909 171.469 256.588 169.974 256.267C169.261 256.169 165.418 255.177 165.334 254.73C165.39 254.535 165.586 254.59 165.334 254.73Z" fill="#FFFFE6"/>
<path d="M164.412 252.774C164.677 251.475 165.655 250.273 166.382 249.211C167.108 248.149 167.96 247.017 168.687 245.954C170.391 243.691 172.096 241.427 173.94 239.414C177.684 235.194 181.904 231.532 186.333 228.248C188.708 226.599 191.321 224.488 194.255 223.845C194.381 223.775 194.311 223.649 194.185 223.719C191.698 224.279 189.393 226.054 187.199 227.437C184.824 229.086 182.644 230.791 180.535 232.622C176.315 236.284 172.445 240.574 169.036 245.102C168.128 246.43 167.024 247.701 166.186 249.155C165.515 250.021 164.537 251.223 164.412 252.774Z" fill="#FFFFE6"/>
<path d="M197.023 226.751C195.514 229.071 193.348 231.098 191.434 232.984C189.52 234.871 187.41 236.702 185.37 238.658C181.151 242.32 176.666 245.8 171.971 248.902C169.344 250.691 166.578 252.229 163.811 253.766C163.685 253.836 163.755 253.962 163.881 253.892C173.955 248.623 182.855 241.537 191.141 233.641C193.306 231.615 195.598 229.518 197.288 226.933C197.274 226.612 197.078 226.556 197.023 226.751Z" fill="#FFFFE6"/>
<path d="M162.646 215.242C159.126 224.604 156.948 235.196 159.883 244.922C160.708 247.59 161.91 250.05 163.364 252.369C163.434 252.495 163.559 252.425 163.489 252.299C156.054 241.289 158.33 227.022 162.646 215.242C162.772 215.172 162.968 215.228 162.646 215.242Z" fill="#FFFFE6"/>
<path d="M167.369 215.744C166.406 221.711 165.512 227.803 165.136 233.938C165.011 236.97 164.955 240.128 164.9 243.286C164.718 246.514 164.467 249.616 164.09 252.788C164.16 252.914 164.286 252.844 164.286 252.844C164.733 249.798 164.858 246.765 165.109 243.663C165.36 240.561 165.29 237.473 165.346 234.315C165.582 227.929 166.476 221.836 167.369 215.744C167.425 215.548 167.495 215.674 167.369 215.744Z" fill="#FFFFE6"/>
<path d="M158.166 257.233C156.507 254.246 157.582 250.48 160.569 248.82C163.555 247.161 167.321 248.236 168.981 251.223C170.64 254.209 169.565 257.975 166.579 259.635C163.592 261.295 159.826 260.219 158.166 257.233Z" fill="#AD1B1E"/>
<path d="M26.0105 301.378C28.0506 300.902 30.1746 300.874 32.2427 301.042C45.7412 301.934 58.8632 308.961 66.9972 319.748C67.2068 320.125 67.5422 320.432 67.4305 320.823C67.2629 321.41 66.6201 321.438 66.1031 321.397C55.4552 320.895 45.0026 317.487 36.1846 311.689C32.3415 309.216 28.722 305.961 26.8071 301.923" fill="#AD1B1E"/>
<path d="M26.0383 300.539C28.1205 301.028 30.2444 301 32.2985 300.846C45.7828 299.936 58.8751 292.989 67.0342 282.201C67.2158 281.935 67.4533 281.474 67.4393 281.153C67.2855 280.58 66.6428 280.608 66.1257 280.566C55.5199 281.028 45.0402 284.383 36.1538 290.309C32.2695 292.797 28.7346 295.914 26.7929 300.12" fill="#AD1B1E"/>
<path d="M26.2058 298.471C26.1772 293.385 28.6778 288.704 31.2624 284.469C32.7013 282.024 34.1403 279.578 36.1802 277.622C38.4017 275.4 41.1123 274.058 44.0187 272.772C45.7932 272.115 47.5678 271.458 49.3703 271.444C51.1729 271.429 53.1992 272.114 54.2893 273.483C55.8546 275.411 55.7292 278.444 54.6675 280.679C53.4801 282.985 51.4262 284.62 49.498 286.186C42.9591 291.301 36.0148 295.983 28.3438 298.765C27.5194 299.058 26.3037 299.24 25.8844 298.485" fill="#E92438"/>
<path d="M25.7729 300.358C29.2098 296.473 34.0583 293.943 39.0886 292.629C44.1189 291.314 49.3869 291.02 54.5571 291.439C58.4977 291.718 62.5221 292.444 65.7782 294.749C69.0344 297.054 70.7118 301.554 69.0634 305.103C67.7642 307.8 64.6063 309.226 61.672 309.869C57.9691 310.61 54.2242 310.387 50.5351 309.968C43.9954 309.159 37.3578 307.581 31.1952 305.08C28.5121 304.102 25.9408 302.733 25.7729 300.358Z" fill="#E92438"/>
<path d="M25.9546 301.573C31.0692 303.669 36.2537 305.89 41.0749 308.642C45.8961 311.394 50.3122 315.194 53.345 319.763C54.9243 322.013 56.0985 325.31 54.5198 327.505C53.1926 329.559 50.2442 329.881 47.8407 329.406C42.908 328.526 38.5199 325.369 35.1937 321.456C31.8675 317.544 29.5473 313.073 27.1014 308.672C26.5423 307.666 25.9134 306.534 25.8014 305.444C25.6196 304.228 25.885 302.929 26.8211 302.244" fill="#E92438"/>
<path d="M26.3181 302.524C31.7262 305.443 36.2821 309.495 40.7122 313.617C45.5336 317.85 50.2293 322.153 54.6874 326.918C54.7573 327.043 54.8132 326.848 54.8132 326.848C50.2293 322.153 45.4637 317.724 40.5725 313.365C36.0865 309.439 31.6563 305.318 26.2482 302.398C26.374 302.328 26.2482 302.398 26.3181 302.524Z" fill="#FFFFE6"/>
<path d="M26.6395 302.51C26.1365 302.789 26.7514 303.599 26.8912 303.851C27.5201 304.983 28.1491 306.115 28.778 307.246C30.0219 309.188 31.713 311.047 33.2084 312.849C36.8559 316.747 40.6851 320.38 44.696 323.747C46.904 325.647 49.3077 327.603 51.7673 329.363C51.8372 329.489 51.893 329.293 51.8232 329.168C46.7643 325.396 42.0128 321.288 37.373 316.789C35.2907 314.819 33.2642 312.653 31.3635 310.418C30.4132 309.3 29.5187 307.987 28.6941 306.799C28.4845 306.422 26.2063 302.915 26.5836 302.705C26.8351 302.565 26.7652 302.44 26.6395 302.51Z" fill="#FFFFE6"/>
<path d="M27.3239 300.483C28.3858 299.729 29.9229 299.533 31.1944 299.155C32.5358 298.904 33.8074 298.526 35.1488 298.274C37.9574 297.701 40.7101 297.324 43.6026 297.197C49.1221 296.764 54.7953 296.903 60.301 297.628C63.1516 298.019 66.5193 298.452 69.0906 299.821C69.1605 299.947 69.2164 299.751 69.1465 299.626C66.8407 298.438 64.1158 297.977 61.5866 297.572C58.8617 297.112 55.9551 296.916 53.1744 296.651C47.557 296.317 41.9118 296.82 36.3504 297.771C34.6876 298.037 33.2204 298.359 31.6275 298.75C30.1603 299.072 28.6233 299.267 27.4356 300.092C27.1283 300.427 27.1982 300.553 27.3239 300.483Z" fill="#FFFFE6"/>
<path d="M68.9514 304.013C66.2127 304.712 63.3761 304.643 60.6093 304.699C57.8426 304.755 55.1317 304.616 52.365 304.672C46.8175 304.463 41.0603 303.877 35.6105 302.955C32.4943 302.383 29.4341 301.615 26.3738 300.847C26.1781 300.791 26.248 300.917 26.3179 301.042C37.2735 304.171 48.6481 305.092 59.9806 305.048C63.0687 304.978 66.101 305.103 69.1611 304.39C69.1471 304.069 69.0772 303.943 68.9514 304.013Z" fill="#FFFFE6"/>
<path d="M51.9136 272.17C42.9571 276.489 34.0149 282.61 29.3908 291.764C28.1475 294.265 27.2955 296.878 26.8347 299.603C26.9046 299.729 26.9046 299.729 27.0304 299.659C29.0967 286.496 40.6936 277.747 51.9835 272.296C52.1092 272.226 52.0393 272.1 51.9136 272.17Z" fill="#FFFFE6"/>
<path d="M54.9603 275.579C50.098 279.269 45.2357 282.958 40.8485 287.207C38.627 289.429 36.4056 291.651 34.1841 293.873C31.9626 296.095 29.4755 298.135 26.9885 300.176C26.8628 300.246 27.0584 300.302 27.0584 300.302C29.4197 298.331 31.7809 296.361 33.8767 294.208C36.1681 292.112 38.3197 289.764 40.5412 287.542C45.0541 283.224 49.9164 279.534 54.8345 275.649C55.1559 275.635 55.086 275.509 54.9603 275.579Z" fill="#FFFFE6"/>
<path d="M20.3935 304.005C18.7339 301.019 19.8095 297.253 22.7959 295.593C25.7823 293.934 29.5486 295.009 31.2082 297.995C32.8678 300.982 31.7923 304.748 28.8059 306.408C25.8195 308.067 22.0531 306.992 20.3935 304.005Z" fill="#AD1B1E"/>
</g>
<defs>
<clipPath id="clip0_10604_14576">
<rect width="275.503" height="319.958" fill="white" transform="matrix(-0.485756 -0.874094 -0.874094 0.485756 285.501 211.816)"/>
</clipPath>
</defs>
</svg>
