<svg width="237" height="251" viewBox="0 0 237 251" fill="none" xmlns="http://www.w3.org/2000/svg">
<path d="M75.3969 156.273C64.2638 165.626 55.6136 177.879 50.0837 191.246C48.6655 194.512 47.6132 198.161 48.0577 201.841C48.5022 205.521 51.2714 209.026 54.7105 209.248C57.4012 209.455 59.9015 208.085 61.59 206.173C63.2784 204.261 64.4576 201.664 65.3343 199.21C71.0235 185.397 75.7578 170.739 74.8079 155.811" fill="#EDF6FF"/>
<path d="M75.2699 155.222C70.7125 165.164 63.7196 173.481 58.5733 182.961C56.5499 186.514 54.9722 190.226 55.0344 194.273C55.002 195.77 55.5586 197.73 57.2781 197.841C57.8036 197.777 58.329 197.714 58.9342 197.427C63.9982 195.212 65.9271 189.11 67.5371 183.9C70.0562 174.739 72.8778 165.434 75.3969 156.273" fill="#E92438"/>
<path d="M76.2087 156.815C70.4559 170.102 67.887 185.031 68.7734 199.433C68.9949 203.033 69.4394 206.713 71.6197 209.756C73.577 212.719 77.6524 214.678 80.8213 213.547C83.3851 212.702 85.01 210.264 85.6638 207.731C86.3175 205.198 86.3026 202.426 85.9851 199.797C85.0353 184.869 82.971 169.543 75.5401 156.576" fill="#EDF6FF"/>
<path d="M75.6994 156.13C76.0616 167.075 73.2873 177.654 72.9012 188.583C72.7405 192.55 73.0256 196.676 74.7439 200.308C75.4598 201.822 76.7012 203.271 78.2141 202.554C78.7396 202.49 79.2015 201.901 79.3609 201.455C82.8972 197.185 82.1352 190.876 81.0545 185.459C79.3861 176.06 77.7177 166.66 75.9061 156.958" fill="#E92438"/>
<path d="M77.2596 156.687C77.3179 171.297 80.8951 185.905 87.6574 198.634C89.3121 201.74 91.4127 205.006 94.2143 207.013C97.3184 208.877 101.729 209.195 104.102 206.773C106.013 204.941 106.524 202.105 106.206 199.476C105.889 196.847 104.521 194.346 103.295 192.148C96.4696 178.894 88.37 165.687 76.4316 156.894" fill="#EDF6FF"/>
<path d="M76.5275 155.923C81.1095 165.608 82.9684 176.585 86.8656 186.781C88.2813 190.556 90.2224 194.268 93.0875 196.801C94.2654 197.725 96.1917 198.665 97.3385 197.565C97.7207 197.199 97.8801 196.753 98.1192 196.084C99.5064 190.794 96.4035 185.41 93.2844 180.774C87.842 172.793 82.6224 164.891 77.1799 156.91" fill="#E92438"/>
<path d="M78.0241 155.954C83.799 169.336 92.9022 181.14 104.235 190.22C106.957 192.45 110.205 194.617 113.787 195.142C117.369 195.667 121.446 194.105 122.864 190.839C123.964 188.465 123.28 185.454 121.752 183.399C120.304 181.121 118.394 179.433 116.182 177.888C104.482 168.426 91.7955 159.617 77.419 156.241" fill="#EDF6FF"/>
<path d="M76.83 155.779C85.0592 162.995 91.0744 172.187 98.6187 179.913C101.404 182.669 104.715 185.361 108.281 186.635C109.841 187.192 111.863 187.16 112.421 185.599C112.581 185.153 112.517 184.627 112.454 184.101C111.675 178.541 106.661 174.989 101.933 172.042C93.7354 166.85 85.7602 161.737 77.5622 156.544" fill="#E92438"/>
<path d="M78.3429 155.062C89.1345 164.954 102.156 172.122 116.15 175.864C119.573 176.836 123.379 177.441 126.914 176.692C130.528 175.719 133.586 172.787 133.365 169.187C133.27 166.638 131.599 164.28 129.387 162.735C127.174 161.19 124.643 160.537 122.111 159.884C107.671 155.983 92.4667 152.814 77.881 155.652" fill="#EDF6FF"/>
<path d="M77.292 155.19C87.7039 158.407 96.857 164.444 106.95 168.553C110.659 170.13 114.528 171.26 118.732 170.75C120.308 170.558 122.124 169.698 122.156 168.2C122.092 167.675 122.029 167.149 121.663 166.767C118.767 162.211 112.733 160.809 107.288 159.87C97.7349 158.469 88.2618 156.845 78.709 155.444" fill="#E92438"/>
<path d="M78.4388 154.09C92.1143 158.725 107.128 160.316 121.475 158.148C124.93 157.622 128.768 156.729 131.587 154.466C134.406 152.204 136.063 148.268 134.488 144.939C133.343 142.517 130.828 141.116 128.216 140.686C125.605 140.256 122.978 140.575 120.351 140.894C105.479 143.126 90.5107 146.33 78.1997 154.76" fill="#EDF6FF"/>
<path d="M77.5311 154.521C88.2631 153.324 99.1532 155.203 110.092 154.835C114.136 154.771 118.117 154.181 121.605 152.157C122.895 151.361 124.424 149.895 123.708 148.381C123.421 147.776 122.976 147.617 122.609 147.234C117.961 144.064 111.942 145.435 106.672 146.822C97.4835 149.324 88.0726 151.747 78.8846 154.25" fill="#E92438"/>
<path d="M78.0092 153.182C92.4829 152.065 106.735 147.348 119.03 139.667C121.992 137.707 125.034 135.524 126.898 132.417C128.539 129.231 128.557 124.961 125.692 122.428C123.781 120.74 120.868 120.453 118.161 120.995C115.677 121.617 113.176 122.987 111.122 124.517C98.445 132.564 85.9746 141.439 77.9134 154.154" fill="#EDF6FF"/>
<path d="M77.4676 153.995C86.9433 148.577 97.628 146.106 107.39 141.294C111.021 139.572 114.509 137.549 116.978 134.155C117.902 132.976 118.619 130.968 117.441 130.045C117.075 129.662 116.629 129.503 115.881 129.487C110.436 128.548 105.419 132.037 100.928 135.463C93.3148 141.295 85.8451 147.43 78.2321 153.262" fill="#E92438"/>
<path d="M77.2771 152.417C90.0811 145.422 101.151 135.543 109.498 123.434C111.585 120.407 113.449 117.3 113.753 113.635C114.057 109.971 112.195 106.036 108.852 104.842C106.401 103.966 103.534 104.954 101.48 106.484C99.4252 108.013 97.8799 110.228 96.3347 112.443C87.9073 124.775 80.1324 138.095 77.866 152.879" fill="#EDF6FF"/>
<path d="M77.1812 153.389C83.5851 144.61 92.4881 137.982 99.4809 129.664C102.093 126.573 104.563 123.18 105.392 119.452C105.727 117.811 105.616 116.01 104.056 115.453C103.61 115.294 103.085 115.357 102.559 115.421C97.1452 116.505 93.9588 121.906 91.4572 126.798C86.9322 135.242 82.4072 143.686 77.8823 152.131" fill="#E92438"/>
<path d="M76.3856 152.099C85.4654 140.755 91.6004 127.101 94.2328 112.698C94.9825 109.193 95.366 105.306 94.0138 102.056C92.6616 98.8058 89.5102 95.6677 85.832 96.1142C83.2047 96.4331 80.9908 98.4089 79.6684 100.703C78.3461 102.998 77.9152 105.61 77.2615 108.144C74.5493 122.769 72.5694 138.159 76.4491 152.625" fill="#EDF6FF"/>
<path d="M76.5126 153.15C78.7615 142.635 84.2104 133.012 87.4305 122.592C88.5623 118.721 89.4713 114.77 88.6608 110.707C88.4703 109.13 87.3086 107.457 85.8119 107.426C85.2865 107.489 84.6813 107.776 84.2991 108.143C79.8874 111.345 79.1527 117.623 78.6571 123.231C78.0008 132.806 77.1216 142.301 76.4653 151.876" fill="#E92438"/>
<path d="M75.3347 152.227C79.0815 138.222 79.1825 123.167 75.9715 108.94C75.2244 105.404 74.0316 101.708 71.692 99.1111C69.1295 96.4349 65.0379 95.2246 61.9325 96.8818C59.7348 98.1088 58.253 100.849 58.0451 103.542C57.8371 106.234 58.4571 108.719 58.9975 111.428C62.3518 125.957 66.8204 140.884 76.2262 152.545" fill="#EDF6FF"/>
<path d="M76.0668 152.991C74.0485 142.461 75.0398 131.245 73.8496 120.507C73.4848 116.604 72.6743 112.541 70.3508 109.196C69.5552 107.906 68.0112 106.599 66.4984 107.317C66.1161 107.683 65.7338 108.049 65.5744 108.496C62.85 113.307 64.5197 119.186 66.4284 124.395C69.4503 133.524 72.7748 142.509 75.7966 151.637" fill="#E92438"/>
<path d="M74.4269 152.657C72.0439 138.223 66.4284 124.395 57.771 112.75C55.5111 109.93 53.2512 107.111 49.7648 105.614C46.5012 104.196 42.0747 104.627 39.8446 107.351C38.2994 109.566 38.0914 112.259 38.9343 114.823C39.7773 117.388 41.305 119.443 42.8328 121.498C51.8563 133.526 61.7078 145.346 75.1118 152.147" fill="#EDF6FF"/>
<path d="M75.3185 152.975C69.2236 144.006 65.7086 133.444 60.2189 124.189C58.198 120.7 55.8746 117.354 52.4044 115.108C51.1468 114.408 49.1408 113.691 48.1372 115.093C47.755 115.46 47.8185 115.985 47.5794 116.654C46.8609 122.183 50.9511 126.914 54.755 131.04C61.2646 138.145 67.8539 145.026 74.3635 152.131" fill="#E92438"/>
<path d="M73.6624 153.39C65.7695 141.012 54.8347 130.817 42.3384 123.586C39.2343 121.722 35.7479 120.225 32.2291 120.225C28.7103 120.226 24.6971 122.313 23.9475 125.818C23.2938 128.351 24.3596 130.996 26.1102 133.131C27.9406 135.042 30.1532 136.587 32.5252 137.686C45.4672 145.077 59.317 152.037 74.3472 152.88" fill="#EDF6FF"/>
<path d="M74.8565 153.565C65.6238 147.751 58.2389 139.579 49.691 133.255C46.5233 130.866 42.9734 128.843 38.9454 128.158C37.5284 127.904 35.4266 128.159 35.0916 129.8C34.9322 130.246 34.9957 130.772 35.2821 131.377C36.8883 136.73 42.4441 139.469 47.4907 141.524C56.1669 145.378 65.0659 149.312 73.8218 152.944" fill="#E92438"/>
<path d="M73.5665 154.362C61.389 146.238 47.3475 141.221 32.8589 139.566C29.1969 139.264 25.5349 138.962 22.2066 140.539C18.958 141.894 16.1862 145.431 16.9333 148.968C17.4736 151.676 19.5269 153.667 21.8989 154.766C24.2709 155.865 26.8819 156.295 29.5727 156.502C44.3639 158.014 59.9196 158.792 74.0285 153.772" fill="#EDF6FF"/>
<path d="M74.4742 153.931C63.7273 152.356 53.7936 147.8 43.0629 145.476C39.1145 144.568 35.0067 144.106 31.1692 144.999C29.736 145.493 27.8409 146.577 28.3339 148.01C28.3974 148.536 28.7635 148.918 29.1296 149.301C32.7106 153.347 39.0633 153.856 44.3814 153.744C53.9666 153.647 63.4721 153.773 73.2801 153.756" fill="#E92438"/>
<path d="M73.6935 155.413C59.3008 152.786 44.3814 153.744 30.5116 158.095C27.1197 159.147 23.5686 160.645 21.1156 163.29C18.6626 165.935 17.6739 170.109 19.5515 173.295C20.9996 175.573 23.6742 176.529 26.4447 176.512C29.1354 176.719 31.6992 175.874 34.263 175.03C48.4354 170.535 63.0062 164.926 73.7097 154.664" fill="#EDF6FF"/>
<path d="M74.4581 154.68C64.1394 157.533 52.9144 157.296 42.3094 159.543C38.2489 160.356 34.3317 161.472 31.21 163.878C30.0632 164.977 28.9799 166.602 29.7756 167.893C30.1416 168.275 30.5077 168.657 30.9535 168.817C35.9204 171.094 41.7328 168.895 46.7968 166.68C55.4918 162.744 64.4096 158.887 73.0249 155.174" fill="#E92438"/>
<path d="M74.1231 156.321C60.0466 159.844 46.5739 166.6 35.5841 176.256C32.9879 178.599 30.2324 181.387 29.037 184.733C27.8416 188.078 28.5724 192.364 31.5969 194.451C33.8095 195.996 36.6597 195.756 39.3031 194.689C41.644 193.764 43.7783 192.012 45.6896 190.179C56.982 180.38 67.9245 169.45 73.8367 155.716" fill="#EDF6FF"/>
<path d="M74.7444 155.286C66.2873 162.073 56.2388 166.281 47.1927 172.607C43.8482 174.933 40.6469 177.562 38.926 180.972C38.225 182.23 37.9535 184.397 39.2111 185.098C39.6569 185.257 40.1026 185.416 40.851 185.432C46.3122 185.623 50.8994 181.225 54.5789 177.258C61.0936 170.279 67.688 163.077 74.2028 156.098" fill="#E92438"/>
<path d="M79.7314 146.252C84.532 147.967 87.0323 153.252 85.3158 158.056C83.5992 162.861 78.316 165.365 73.5153 163.65C68.7147 161.935 66.2145 156.649 67.931 151.845C69.6475 147.041 74.9307 144.537 79.7314 146.252Z" fill="#E92438"/>
<path d="M205.371 66.1322C194.606 68.826 183.779 70.994 173.095 69.9438C168.987 69.4823 164.959 68.7977 160.868 67.5874C147.845 63.9406 135.475 57.7606 124.954 49.2225C125.319 53.1257 125.461 56.9493 125.3 60.9163C125.092 63.6088 124.661 66.2216 124.979 68.8503C125.296 71.479 126.362 74.1235 128.575 75.6686C131.376 77.6757 135.58 77.1653 137.953 74.7434C138 76.018 136.631 77.0377 136.009 78.0734C134.767 80.1446 135.387 82.6299 137.074 84.2388C138.761 85.8477 141.149 86.1979 143.394 86.2454C148.107 86.4201 152.789 84.5715 156.452 81.3528C156.627 83.6788 153.887 85.7184 154.062 88.0444C154.109 89.319 155.287 90.2428 156.624 90.7206C157.738 91.1188 159.092 90.8478 160.445 90.5768C166.687 89.2856 172.675 85.8914 176.753 80.8087C176.641 82.5294 176.306 84.1704 176.194 85.891C176.305 87.6912 177.164 89.5074 178.884 89.6187C179.855 89.7141 180.763 89.2839 181.75 88.6306C191.751 83.1489 200.241 74.8634 206.215 65.1762" fill="#B1C0D9"/>
<path d="M205.371 66.1321C198.221 67.8536 179.002 70.2935 170.787 69.3704C167.65 69.0044 164.736 68.718 161.536 67.8262C151.045 64.8323 140.665 60.1177 131.146 53.6984C132.435 56.4226 133.484 59.8159 134.168 62.8269C134.725 64.7864 135.058 66.6663 135.838 68.7055C136.617 70.7447 138.225 72.5766 140.071 73.7394C142.586 75.1411 145.436 74.9017 146.52 73.2766C146.949 74.1846 146.185 74.9176 145.866 75.8098C145.388 77.1481 146.693 79.1235 148.014 80.3501C149.638 81.4332 151.5 81.8472 152.997 81.8789C156.436 82.1015 159.382 80.8904 161.23 78.5323C161.866 80.2687 160.337 81.7346 160.973 83.4711C161.403 84.3792 162.358 85.2234 163.329 85.3189C164.221 85.6374 165.272 85.5098 166.1 85.3026C170.383 84.5692 174.03 82.0994 175.831 78.4668C176.181 79.5979 176.228 80.8724 176.721 82.3062C177.214 83.74 178.312 84.8869 179.729 85.1417C180.477 85.1575 181.083 84.8707 181.688 84.5838C187.755 80.9666 200.704 70.7529 205.371 66.1321Z" fill="#627692"/>
<path d="M205.291 66.3554C198.887 75.1345 192.547 84.4393 189.55 94.9386C188.338 99.0332 187.652 103.064 187.189 107.174C185.623 120.701 186.749 134.434 190.661 147.401C187.334 145.458 183.624 143.881 179.979 142.83C177.527 141.954 174.773 141.222 172.401 140.123C170.108 138.801 168.055 136.81 167.435 134.324C166.608 131.011 168.711 127.235 171.88 126.103C170.623 125.402 169.253 126.422 167.9 126.693C165.718 127.171 163.362 125.323 162.583 123.284C161.803 121.245 162.155 118.855 162.952 116.625C164.768 112.243 168.145 108.419 172.381 106.411C170.232 105.392 167.35 107.129 165.2 106.11C164.166 105.488 163.673 104.055 163.625 102.78C163.801 101.585 164.502 100.327 165.123 99.2909C168.533 93.9693 174.091 89.6671 180.269 87.8502C178.709 87.2927 176.767 87.1018 175.286 86.3213C173.806 85.5409 172.342 84.0116 172.899 82.4502C173.218 81.558 173.983 80.8251 174.747 80.0921C183.587 72.9378 194.32 68.2207 205.594 66.2119" fill="#B1C0D9"/>
<path d="M205.291 66.3553C200.894 72.3302 191.319 89.2826 189.278 97.1053C188.465 100.085 187.652 103.064 187.284 106.202C185.927 117.036 186.432 128.284 188.801 139.946C186.604 137.652 183.882 135.422 181.527 133.574C179.903 132.491 178.279 131.407 176.815 129.878C175.351 128.349 174.046 126.374 173.649 123.968C173.188 121.037 174.59 118.519 176.549 117.961C175.816 117.197 174.909 117.627 173.938 117.532C172.441 117.5 171.136 115.524 170.5 113.788C169.943 111.828 170.358 109.964 170.916 108.403C172.111 105.057 174.405 102.858 177.271 101.87C175.95 100.644 174.134 101.504 172.59 100.198C171.858 99.4334 171.508 98.3023 171.684 97.1074C171.78 96.1356 172.322 95.323 172.64 94.4308C174.966 90.7344 178.534 88.4876 182.514 87.8976C181.559 87.0533 180.445 86.6552 179.267 85.7313C178.089 84.8074 177.373 83.294 177.851 81.9557C178.091 81.2865 178.552 80.697 179.158 80.4101C184.923 76.9363 199.319 69.0006 205.291 66.3553Z" fill="#627692"/>
<path d="M205.633 133.635C207.848 134.426 209.002 136.866 208.21 139.083C207.418 141.3 204.979 142.456 202.764 141.665C200.548 140.873 199.394 138.434 200.186 136.216C200.979 133.999 203.417 132.843 205.633 133.635Z" fill="#EDF6FF"/>
<path d="M207.745 105.212C209.961 106.004 211.114 108.443 210.322 110.661C209.53 112.878 207.092 114.034 204.876 113.242C202.66 112.451 201.506 110.011 202.299 107.794C203.091 105.576 205.529 104.421 207.745 105.212Z" fill="#EDF6FF"/>
<path d="M212.021 80.5815C214.237 81.3731 215.391 83.8124 214.598 86.0298C213.806 88.2472 211.368 89.403 209.152 88.6113C206.936 87.8197 205.782 85.3804 206.575 83.163C207.367 80.9456 209.805 79.7898 212.021 80.5815Z" fill="#EDF6FF"/>
<path d="M221.345 54.4843C223.561 55.2759 224.715 57.7152 223.922 59.9326C223.13 62.15 220.692 63.3058 218.476 62.5142C216.26 61.7226 215.106 59.2833 215.899 57.0659C216.691 54.8485 219.129 53.6927 221.345 54.4843Z" fill="#EDF6FF"/>
<path d="M193.388 49.0231C195.603 49.8147 196.757 52.254 195.965 54.4714C195.173 56.6888 192.734 57.8446 190.519 57.053C188.303 56.2614 187.149 53.8221 187.941 51.6047C188.734 49.3873 191.172 48.2315 193.388 49.0231Z" fill="#EDF6FF"/>
<path d="M166.703 47.0348C168.919 47.8264 170.072 50.2657 169.28 52.4831C168.488 54.7005 166.05 55.8563 163.834 55.0647C161.618 54.2731 160.464 51.8338 161.256 49.6164C162.049 47.399 164.487 46.2432 166.703 47.0348Z" fill="#EDF6FF"/>
<path d="M140.959 39.5978C143.175 40.3894 144.329 42.8287 143.537 45.0461C142.745 47.2635 140.306 48.4193 138.09 47.6277C135.875 46.8361 134.721 44.3968 135.513 42.1794C136.305 39.962 138.744 38.8062 140.959 39.5978Z" fill="#EDF6FF"/>
</svg>
