<svg width="286" height="368" viewBox="0 0 286 368" fill="none" xmlns="http://www.w3.org/2000/svg">
<g clip-path="url(#clip0_10604_13541)">
<path d="M262.355 300.666C261.908 300.582 261.936 299.939 262.453 299.897C272.08 300.639 281.974 299.718 290.847 295.597C298.869 291.825 305.703 285.747 310.846 278.566C321.537 263.769 324.726 245.297 322.925 227.508C321.069 208.043 313.945 189.765 304.641 172.744C295.938 156.715 285.711 140.169 286.021 121.249C286.303 102.972 295.276 86.2326 306.01 71.953C286.642 74.5217 268.643 84.1052 255.087 98.1328C248.211 105.175 242.509 113.362 238.26 122.193C233.647 131.974 231.256 142.496 230.207 153.269C229.255 164.755 229.589 176.297 229.224 187.616C228.804 198.739 227.615 209.764 224.511 220.383C218.248 241.426 204.286 260.331 183.814 269.033C165.382 276.73 143.081 274.212 128.494 260.181C126.636 258.49 125.043 256.617 123.646 254.689C123.339 254.353 123.939 253.864 124.247 254.2C136.835 271.235 160.365 276.576 179.915 269.829C202.078 262.231 217.242 242.348 223.924 220.551C227.223 209.875 228.412 198.85 228.707 187.658C229.072 176.339 228.668 164.923 229.676 153.632C230.572 143.432 232.683 133.413 236.764 123.995C240.482 115.528 245.723 107.578 251.887 100.634C264.479 86.5639 281.416 76.2258 299.945 72.2038C301.832 71.7708 303.648 71.4636 305.591 71.2264C289.284 65.6209 272.014 59.9734 254.463 62.2348C244.555 63.4772 235.053 67.2488 225.984 71.4257C217.11 75.5467 208.544 80.0032 201.542 86.975C188.349 100.053 181.402 117.588 171.521 133C162.464 147.224 149.886 160.972 132.391 163.429C116.251 165.816 99.2326 158.827 89.8302 145.537C89.5228 145.202 90.1237 144.713 90.4311 145.048C99.2188 157.668 115.148 164.545 130.477 163.024C148.978 161.126 162.171 146.567 171.521 131.519C180.997 116.54 187.916 99.6472 200.578 86.933C207.244 80.2685 215.237 75.6583 223.72 71.649C232.202 67.6397 240.992 63.9658 250.215 62.1784C269.569 58.4499 288.739 64.8243 306.89 70.961C307.016 71.0309 307.016 71.0309 307.142 71.1008C307.267 71.1707 307.198 71.2964 307.198 71.2964C307.128 71.4222 307.128 71.4222 307.058 71.548C296.744 85.073 288.008 100.792 286.804 118.063C285.418 138.031 295.994 155.429 305.242 172.255C322.118 203.194 334.13 245.256 312.718 276.973C307.421 284.728 300.434 291.378 292.133 295.653C282.91 300.403 272.625 301.435 262.355 300.666Z" fill="#B1C0D9"/>
<path d="M283.877 64.097C275.576 63.9282 267.08 65.2965 259.003 67.3915C250.535 69.5982 241.466 73.7751 238.279 81.8794C237.846 82.9553 237.608 83.9753 237.692 85.0093C237.803 86.8818 239.214 88.4889 240.779 89.5232C244.16 91.7314 248.548 91.5364 252.209 90.2792C255.94 88.8963 259.141 86.3955 262.215 83.8247C269.762 77.6494 277.071 71.013 283.877 64.097Z" fill="#B1C0D9"/>
<path d="M283.485 64.2087C277.505 64.0123 271.342 65.0316 265.543 66.5819C259.423 68.1182 252.911 71.2474 250.66 77.074C250.436 77.7727 250.143 78.5971 250.241 79.3097C250.31 80.6652 251.288 81.867 252.42 82.496C254.865 84.0194 258.023 83.9639 260.706 82.9861C263.389 82.0083 265.723 80.1781 267.861 78.4037C273.395 74.0727 278.622 69.4062 283.485 64.2087Z" fill="#627692"/>
<path d="M283.346 64.4602C275.311 67.0722 267.094 69.4187 259.17 72.422C251.583 75.1179 244.218 78.5963 237.999 83.8635C237.929 83.9893 237.678 83.8495 237.873 83.7937C243.953 78.778 251.121 75.3554 258.388 72.6455C266.507 69.5863 274.989 67.0582 283.22 64.3903C283.485 64.2087 283.541 64.4044 283.346 64.4602Z" fill="white"/>
<path d="M283.346 64.4602C272.851 71.7949 262.048 78.7942 250.296 83.9489C246.816 85.4716 243.211 86.9244 239.55 88.1815C239.354 88.2374 239.298 88.0417 239.494 87.9859C247.808 84.8708 256.011 81.3646 263.739 76.936C270.475 73.1081 276.917 68.6235 283.36 64.1388C283.29 64.2645 283.346 64.4602 283.346 64.4602Z" fill="white"/>
<path d="M292.746 94.0432C284.613 95.9426 276.857 99.5328 269.535 103.528C261.877 107.831 254.26 114.132 253.295 122.977C253.183 124.067 253.197 125.227 253.476 126.205C254.105 128.036 255.796 129.14 257.57 129.797C261.315 131.055 265.619 129.826 268.875 127.521C272.131 125.215 274.591 121.974 276.855 118.788C282.613 110.796 287.994 102.594 292.746 94.0432Z" fill="#B1C0D9"/>
<path d="M292.411 94.3506C286.556 95.7053 280.966 98.3595 275.753 101.223C270.275 104.269 264.727 108.921 264.07 115.14C263.972 115.908 264 116.746 264.223 117.529C264.684 118.773 265.872 119.597 267.269 120.045C270.064 120.939 272.998 120.101 275.388 118.467C277.777 116.832 279.427 114.457 281.202 112.151C285.059 106.395 288.986 100.512 292.411 94.3506Z" fill="#627692"/>
<path d="M292.341 94.4763C285.186 99.0587 277.975 103.445 271.001 108.293C264.489 112.904 258.145 118.101 253.477 124.724C253.407 124.85 253.155 124.71 253.225 124.584C257.753 118.213 263.777 113.001 270.219 108.517C277.332 103.417 284.808 98.849 292.159 94.2108C292.285 94.2807 292.536 94.4205 292.341 94.4763Z" fill="white"/>
<path d="M292.271 94.6022C283.983 104.48 275.458 113.897 265.257 121.889C262.252 124.334 259.066 126.513 256.005 128.763C255.935 128.888 255.754 128.623 255.949 128.567C263.258 123.412 270.26 117.921 276.521 111.69C282.041 106.199 287.128 100.303 292.215 94.4065C292.215 94.4065 292.341 94.4764 292.271 94.6022Z" fill="white"/>
<path d="M291.132 144.334C284.718 149.657 279.337 156.377 274.655 163.322C269.764 170.643 265.822 179.809 268.881 187.928C269.286 188.976 269.761 189.899 270.627 190.709C272.052 191.995 274.037 192.275 275.979 192.037C279.934 191.437 283.092 188.419 285.049 184.898C287.006 181.377 287.691 177.478 288.25 173.51C289.509 163.841 290.642 154.101 291.132 144.334Z" fill="#B1C0D9"/>
<path d="M290.923 144.711C286.311 148.567 282.496 153.36 279.058 158.362C275.48 163.615 272.684 170.126 274.807 176.079C275.031 176.862 275.45 177.589 276.009 178.064C277.001 178.944 278.468 179.266 279.768 179.001C282.618 178.61 284.966 176.458 286.238 173.873C287.636 171.358 288.083 168.48 288.531 165.601C289.859 158.768 290.684 151.656 290.923 144.711Z" fill="#627692"/>
<path d="M290.979 144.907C286.604 152.186 282.229 159.466 278.106 166.885C274.319 173.997 271.16 181.459 269.845 189.451C269.775 189.577 269.58 189.633 269.649 189.507C270.824 181.766 273.913 174.43 277.631 167.444C281.768 159.703 286.339 152.368 290.853 144.837C290.923 144.711 291.049 144.781 290.979 144.907Z" fill="white"/>
<path d="M290.909 145.032C287.917 157.524 284.548 169.807 279.138 181.614C277.503 185.149 275.742 188.614 273.925 191.883C273.855 192.009 273.604 191.869 273.673 191.744C277.88 183.877 281.64 175.927 284.52 167.487C286.966 160.123 288.91 152.48 290.783 144.963C290.727 144.767 290.979 144.907 290.909 145.032Z" fill="white"/>
<path d="M224.824 71.4393C218.102 76.427 212.288 82.7423 207.173 89.2812C201.848 96.1974 197.278 105.014 199.806 113.496C200.085 114.475 200.616 115.592 201.287 116.459C202.516 117.801 204.556 118.276 206.429 118.164C210.439 117.76 213.779 115.007 215.987 111.626C218.07 108.175 219.076 104.29 219.887 100.462C221.985 90.7643 223.76 81.053 224.824 71.4393Z" fill="#B1C0D9"/>
<path d="M224.684 71.6909C219.891 75.2814 215.698 79.8642 211.952 84.5309C208.067 89.449 204.825 95.8764 206.556 101.941C206.78 102.724 207.073 103.38 207.688 104.051C208.61 105.057 210.077 105.379 211.433 105.309C214.214 105.044 216.813 103.032 218.266 100.713C219.79 98.2678 220.489 95.5291 221.062 92.7205C222.656 85.706 223.928 78.6775 224.684 71.6909Z" fill="#627692"/>
<path d="M224.67 72.0122C219.918 79.0821 214.984 85.8866 210.484 93.0963C206.193 99.9288 202.461 107.236 200.7 115.145C200.63 115.271 200.434 115.327 200.504 115.201C202.196 107.418 205.788 100.362 209.813 93.7111C214.453 86.2498 219.527 79.1939 224.349 71.9981C224.558 71.6209 224.74 71.8864 224.67 72.0122Z" fill="white"/>
<path d="M224.6 72.1379C220.91 84.4062 216.646 96.5206 210.356 107.838C208.47 111.234 206.457 114.559 204.514 117.759C204.444 117.885 204.193 117.745 204.263 117.619C208.973 110.032 213.236 102.361 216.688 94.0753C219.707 86.8653 222.028 79.4317 224.349 71.9981C224.418 71.8724 224.67 72.0122 224.6 72.1379Z" fill="white"/>
<path d="M241.866 114.815C239.391 122.822 238.44 131.346 238.271 139.646C238.019 148.393 239.652 158.189 246.569 163.514C247.505 164.198 248.385 164.688 249.531 164.995C251.319 165.331 253.29 164.451 254.631 163.221C257.58 160.581 258.796 156.319 258.517 152.378C258.238 148.438 256.73 144.637 255.081 141.087C251.156 132.158 246.909 123.214 241.866 114.815Z" fill="#B1C0D9"/>
<path d="M241.978 115.207C240.118 120.922 239.531 127.014 239.334 132.995C239.124 139.297 240.297 146.367 245.411 150.197C245.969 150.672 246.724 151.091 247.492 151.189C248.834 151.441 250.147 150.854 251.154 149.932C253.362 148.032 254.075 144.972 253.879 142.065C253.684 139.159 252.511 136.532 251.337 133.904C248.711 127.672 245.582 121.16 241.978 115.207Z" fill="#627692"/>
<path d="M242.229 115.346C242.507 123.731 242.646 132.366 243.246 140.764C243.86 148.841 245.186 156.82 248.469 164.24C248.525 164.436 248.329 164.492 248.273 164.296C245.046 157.072 243.776 149.288 243.148 141.533C242.366 132.869 242.298 124.108 242.033 115.402C241.978 115.207 242.173 115.151 242.229 115.346Z" fill="white"/>
<path d="M242.159 115.472C246.392 127.7 250.177 139.843 251.81 152.601C252.285 156.486 252.633 160.301 252.982 164.115C253.038 164.311 252.717 164.297 252.787 164.171C252.145 155.256 250.917 146.508 248.78 137.915C246.922 130.299 244.408 122.976 241.894 115.654C241.908 115.332 242.103 115.277 242.159 115.472Z" fill="white"/>
<path d="M295.262 89.5163C292.787 97.5228 291.836 106.046 291.667 114.347C291.415 123.094 293.048 132.89 299.965 138.215C300.901 138.899 301.781 139.389 302.927 139.696C304.715 140.032 306.686 139.152 308.027 137.922C310.976 135.282 312.192 131.02 311.913 127.079C311.634 123.139 310.126 119.338 308.477 115.788C304.426 106.789 300.109 97.9709 295.262 89.5163Z" fill="#B1C0D9"/>
<path d="M295.374 89.9075C293.514 95.6224 292.927 101.715 292.73 107.695C292.52 113.997 293.693 121.068 298.806 124.898C299.365 125.373 300.12 125.792 300.888 125.89C302.23 126.142 303.543 125.555 304.55 124.633C306.758 122.733 307.471 119.673 307.275 116.766C307.08 113.86 305.907 111.232 304.733 108.605C301.981 102.303 298.908 95.9864 295.374 89.9075Z" fill="#627692"/>
<path d="M295.429 90.1032C295.708 98.4873 295.846 107.123 296.446 115.521C297.06 123.598 298.386 131.577 301.669 138.997C301.725 139.193 301.529 139.249 301.474 139.053C298.247 131.828 296.976 124.045 296.348 116.29C295.567 107.626 295.498 98.8646 295.234 90.1591C295.178 89.9634 295.373 89.9076 295.429 90.1032Z" fill="white"/>
<path d="M295.555 90.1731C299.788 102.4 303.573 114.544 305.206 127.302C305.681 131.187 306.029 135.001 306.378 138.816C306.434 139.012 306.113 138.998 306.183 138.872C305.541 129.957 304.313 121.209 302.176 112.615C300.318 105 297.804 97.6772 295.29 90.3547C295.234 90.1591 295.429 90.1033 295.555 90.1731Z" fill="white"/>
<path d="M290.993 144.585C294.331 152.201 299.375 159.119 304.698 165.533C310.328 172.283 318.041 178.544 326.83 177.833C327.865 177.749 328.968 177.54 329.961 176.939C331.61 176.045 332.406 174.019 332.616 172.16C333.176 168.192 331.094 164.237 328.314 161.54C325.408 158.773 321.817 156.942 318.282 155.306C309.311 151.309 300.201 147.563 290.993 144.585Z" fill="#B1C0D9"/>
<path d="M291.244 144.725C293.647 150.175 297.224 155.29 301.149 159.776C305.187 164.653 310.79 169.083 317.12 168.651C317.958 168.623 318.741 168.4 319.398 168.106C320.586 167.45 321.229 165.996 321.285 164.711C321.662 161.958 320.182 158.996 318.142 157.039C316.102 155.082 313.517 153.811 310.932 152.539C304.49 149.617 297.979 146.822 291.244 144.725Z" fill="#627692"/>
<path d="M291.566 144.739C297.35 150.916 303.064 157.219 309.184 163.089C314.926 168.749 321.339 173.794 328.661 177.204C328.787 177.274 328.717 177.4 328.521 177.456C321.325 174.115 315.164 169.21 309.477 163.745C303.106 157.736 297.336 151.237 291.3 144.921C291.244 144.725 291.44 144.669 291.566 144.739Z" fill="white"/>
<path d="M181.975 114.78C178.244 120.606 175.7 127.257 173.742 133.741C171.701 140.671 170.764 148.874 175.151 154.603C175.766 155.274 176.381 155.945 177.135 156.364C178.588 157.007 180.209 156.756 181.593 156.043C184.555 154.563 186.302 151.419 186.96 148.163C187.617 144.907 187.114 141.665 186.611 138.423C185.537 130.584 184.084 122.535 181.975 114.78Z" fill="#B1C0D9"/>
<path d="M181.961 115.101C179.334 119.237 177.447 124.113 176.021 128.752C174.581 133.713 173.937 139.61 177.039 143.802C177.402 144.333 177.961 144.808 178.464 145.088C179.47 145.647 180.77 145.382 181.692 144.907C183.732 143.901 185.186 141.581 185.605 139.346C186.095 136.984 185.746 134.651 185.397 132.317C184.559 126.42 183.456 120.705 181.961 115.101Z" fill="#627692"/>
<path d="M182.087 115.171C180.437 121.99 178.662 128.739 177.459 135.642C176.145 142.153 175.529 148.888 176.464 155.498C176.395 155.624 176.325 155.749 176.269 155.554C175.264 149.07 175.935 142.53 177.11 136.27C178.382 129.242 180.298 122.241 181.891 115.227C181.836 115.031 182.087 115.171 182.087 115.171Z" fill="white"/>
<path d="M182.017 115.297C182.714 125.889 183.09 136.467 181.664 147.03C181.202 150.23 180.615 153.36 180.028 156.49C179.958 156.616 179.832 156.546 179.902 156.42C181.244 149.266 182.335 141.972 182.462 134.636C182.616 128.138 182.184 121.808 181.822 115.352C181.891 115.227 182.087 115.171 182.017 115.297Z" fill="white"/>
<path d="M229.436 167.983C228.625 174.774 229.085 181.942 230.077 188.748C231.18 195.944 233.931 203.728 240.359 206.97C241.113 207.39 242.063 207.753 242.902 207.725C244.383 207.725 245.906 206.761 246.857 205.644C248.967 203.031 249.191 199.37 248.423 196.31C247.599 193.054 245.852 190.273 244.036 187.617C239.44 180.784 234.704 174.202 229.436 167.983Z" fill="#B1C0D9"/>
<path d="M229.618 168.248C229.017 173.181 229.309 178.281 230.063 183.144C230.803 188.328 232.815 193.89 237.412 196.28C238.04 196.63 238.613 196.783 239.256 196.811C240.416 196.798 241.408 196.197 242.093 195.261C243.588 193.458 243.77 190.761 243.226 188.484C242.681 186.206 241.354 184.152 239.957 182.223C236.813 177.514 233.418 172.664 229.618 168.248Z" fill="#627692"/>
<path d="M229.674 168.444C231.112 175.333 232.425 182.152 234.255 188.93C235.973 195.316 238.208 201.66 241.826 207.292C241.952 207.362 241.686 207.543 241.756 207.418C238.194 201.982 235.819 195.889 234.227 189.573C232.467 182.669 231.043 175.459 229.674 168.444C229.744 168.318 229.548 168.374 229.674 168.444Z" fill="white"/>
<path d="M229.8 168.514C234.997 177.821 239.872 187.114 243.099 197.301C244.063 200.306 244.956 203.436 245.725 206.496C245.781 206.692 245.655 206.622 245.529 206.552C243.713 199.453 241.506 192.466 238.447 185.828C235.807 179.917 232.706 174.243 229.534 168.696C229.478 168.5 229.674 168.444 229.8 168.514Z" fill="white"/>
<path d="M145.01 159.085C139.881 161.501 135.032 164.896 130.756 168.445C126.144 172.301 121.923 177.527 122.369 183.535C122.467 184.248 122.565 184.961 122.984 185.687C123.711 186.749 124.968 187.448 126.254 187.504C128.881 187.812 131.648 186.387 133.534 184.473C135.421 182.559 136.623 180.1 137.699 177.571C140.411 171.507 142.997 165.373 145.01 159.085Z" fill="#B1C0D9"/>
<path d="M144.87 159.336C141.125 161.041 137.799 163.471 134.654 166.168C131.314 168.92 128.38 172.721 128.644 176.983C128.686 177.5 128.854 178.087 129.091 178.548C129.636 179.344 130.517 179.834 131.481 179.876C133.465 180.155 135.379 179.08 136.665 177.654C137.951 176.229 138.929 174.469 139.712 172.764C141.515 168.335 143.388 163.78 144.87 159.336Z" fill="#627692"/>
<path d="M144.87 159.336C140.705 163.276 136.471 167.342 132.432 171.352C128.589 175.306 125.179 179.665 122.9 184.653C122.83 184.779 122.705 184.709 122.775 184.584C124.983 179.721 128.323 175.487 131.971 171.589C136.08 167.454 140.44 163.458 144.87 159.336Z" fill="white"/>
<path d="M144.8 159.462C140.537 167.133 136.093 174.538 130.391 181.245C128.63 183.229 126.869 185.213 125.178 187.071C125.108 187.197 125.052 187.001 125.052 187.001C129.3 182.614 133.172 178.017 136.61 173.015C139.573 168.572 142.284 163.989 144.87 159.336C144.744 159.266 144.87 159.336 144.8 159.462Z" fill="white"/>
<path d="M223.924 222.032C221.324 227.006 219.535 232.595 218.388 238.212C217.102 244.081 217.003 250.774 220.929 255.26C221.418 255.861 221.977 256.336 222.676 256.56C223.877 257.063 225.247 256.672 226.435 256.015C228.685 254.632 230.027 251.922 230.334 249.295C230.642 246.668 230.055 243.873 229.525 241.274C227.877 234.762 226.103 228.18 223.924 222.032Z" fill="#B1C0D9"/>
<path d="M223.98 222.227C222.149 225.818 220.877 229.884 219.996 233.839C219.101 238.114 218.891 242.935 221.909 246.094C222.342 246.499 222.649 246.834 223.152 247.114C223.977 247.407 225.081 247.198 225.807 246.779C227.526 245.759 228.449 243.803 228.658 241.944C228.868 240.086 228.505 238.074 228.072 236.187C226.801 231.366 225.586 226.741 223.98 222.227Z" fill="#627692"/>
<path d="M223.91 222.353C223.015 228.11 221.994 233.797 221.42 239.568C220.861 245.018 220.748 250.551 221.865 255.945C221.865 255.945 221.796 256.071 221.67 256.001C220.483 250.733 220.525 245.325 221.141 240.071C221.784 234.174 222.749 228.292 223.714 222.409C223.784 222.283 223.98 222.227 223.91 222.353Z" fill="white"/>
<path d="M224.036 222.423C225.334 231.045 226.311 239.652 225.863 248.456C225.751 251.027 225.443 253.654 225.261 256.351C225.191 256.476 225.065 256.406 225.135 256.281C225.849 250.258 226.115 244.152 225.794 238.213C225.376 233.043 224.58 227.663 224.036 222.423C223.91 222.353 223.784 222.283 224.036 222.423Z" fill="white"/>
<path d="M200.29 258.933C195.273 261.741 190.927 265.415 186.888 269.425C182.584 273.617 178.796 279.247 179.829 285.088C179.927 285.801 180.151 286.584 180.64 287.185C181.366 288.247 182.763 288.694 184.049 288.75C186.746 288.932 189.331 287.242 190.966 285.188C192.671 283.008 193.748 280.479 194.628 278.006C196.641 271.718 198.724 265.304 200.29 258.933Z" fill="#B1C0D9"/>
<path d="M200.15 259.184C196.587 261.154 193.317 263.781 190.48 266.812C187.447 269.9 184.568 273.896 185.35 278.116C185.392 278.633 185.559 279.22 185.867 279.556C186.412 280.352 187.362 280.716 188.326 280.758C190.254 280.842 192.169 279.766 193.399 278.145C194.559 276.65 195.411 274.82 195.942 272.975C197.494 268.406 199.046 263.837 200.15 259.184Z" fill="#627692"/>
<path d="M200.08 259.31C196.223 263.585 192.366 267.861 188.565 272.332C185.029 276.621 181.996 281.19 180.095 286.388C180.025 286.514 179.899 286.444 179.969 286.318C181.8 281.246 184.763 276.803 188.229 272.639C191.975 267.972 196.028 263.641 199.955 259.24C200.025 259.114 200.15 259.184 200.08 259.31Z" fill="white"/>
<path d="M200.08 259.31C196.446 267.33 192.505 275.015 187.361 282.197C185.852 284.321 184.217 286.375 182.582 288.429C182.512 288.554 182.456 288.359 182.456 288.359C186.201 283.692 189.891 278.83 192.826 273.548C195.412 268.895 197.746 264.103 199.955 259.24C200.024 259.114 200.15 259.184 200.08 259.31Z" fill="white"/>
<path d="M110.551 160.673C106.555 159.276 102.265 158.702 98.0869 158.52C93.5875 158.324 88.7246 159.078 85.9993 162.501C85.594 162.934 85.3145 163.437 85.2306 163.884C85.0628 164.778 85.4679 165.826 86.0826 166.497C87.368 168.034 89.5338 168.58 91.532 168.538C93.5302 168.496 95.4307 167.742 97.2055 166.918C101.663 165.116 106.261 163.062 110.551 160.673Z" fill="#B1C0D9"/>
<path d="M110.355 160.729C107.435 159.765 104.361 159.373 101.343 159.177C98.1288 159.037 94.5655 159.525 92.6508 162.082C92.4411 162.46 92.1057 162.767 92.0917 163.088C91.8681 163.787 92.2872 164.514 92.7203 164.919C93.5725 166.051 95.1655 166.442 96.6467 166.443C98.0021 166.373 99.4414 165.856 100.755 165.269C103.969 163.928 107.253 162.461 110.355 160.729Z" fill="#627692"/>
<path d="M110.285 160.855C105.968 160.924 101.72 160.868 97.4578 161.133C93.3914 161.342 89.3111 161.872 85.6359 163.451L85.5101 163.381C89.1854 161.803 93.0701 161.328 97.0106 161.049C101.468 160.728 105.912 160.729 110.285 160.855Z" fill="white"/>
<path d="M110.16 160.785C103.955 162.768 97.8905 164.5 91.3508 165.31C89.4085 165.547 87.536 165.659 85.5378 165.7C85.5378 165.7 85.4121 165.631 85.6077 165.575C90.0653 165.254 94.5928 164.807 98.8827 163.9C102.656 163.034 106.373 161.972 110.16 160.785C110.23 160.659 110.286 160.855 110.16 160.785Z" fill="white"/>
<path d="M152.443 272.173C148.447 270.776 144.157 270.202 139.979 270.02C135.48 269.824 130.617 270.578 127.891 274.001C127.486 274.434 127.207 274.937 127.123 275.384C126.955 276.278 127.36 277.326 127.975 277.997C129.26 279.534 131.426 280.08 133.424 280.038C135.422 279.996 137.323 279.242 139.098 278.418C143.625 276.49 148.153 274.562 152.443 272.173Z" fill="#B1C0D9"/>
<path d="M152.247 272.229C149.327 271.265 146.253 270.873 143.235 270.677C140.021 270.537 136.457 271.025 134.543 273.582C134.333 273.96 133.998 274.267 133.984 274.588C133.76 275.287 134.179 276.014 134.612 276.419C135.464 277.551 137.057 277.942 138.539 277.943C139.894 277.873 141.333 277.356 142.647 276.769C145.931 275.303 149.215 273.836 152.247 272.229Z" fill="#627692"/>
<path d="M152.122 272.159C147.804 272.229 143.556 272.172 139.294 272.437C135.228 272.646 131.147 273.177 127.472 274.755L127.346 274.685C131.022 273.107 134.906 272.632 138.847 272.353C143.43 272.102 147.678 272.159 152.122 272.159C152.192 272.034 152.247 272.229 152.122 272.159Z" fill="white"/>
<path d="M152.052 272.285C145.847 274.268 139.783 276 133.243 276.81C131.3 277.047 129.428 277.159 127.43 277.2C127.43 277.2 127.304 277.131 127.5 277.075C131.957 276.754 136.485 276.307 140.775 275.4C144.548 274.534 148.335 273.347 152.052 272.285C152.122 272.159 152.122 272.159 152.052 272.285Z" fill="white"/>
<path d="M294.131 294.13C290.316 295.96 286.795 298.447 283.776 301.213C280.492 304.161 277.361 308.017 277.752 312.349C277.794 312.866 277.962 313.453 278.199 313.914C278.744 314.711 279.694 315.074 280.588 315.242C282.573 315.522 284.487 314.446 285.969 312.965C287.254 311.54 288.177 309.584 288.96 307.879C290.958 303.394 292.706 298.769 294.131 294.13Z" fill="#B1C0D9"/>
<path d="M294.062 294.256C291.365 295.555 288.835 297.441 286.627 299.341C284.154 301.423 281.973 304.161 282.28 307.459C282.392 307.851 282.378 308.172 282.615 308.633C282.979 309.164 283.608 309.514 284.376 309.611C285.787 309.737 287.171 309.025 288.247 307.977C289.197 306.859 289.896 305.602 290.469 304.274C291.643 300.977 293.013 297.623 294.062 294.256Z" fill="#627692"/>
<path d="M293.992 294.381C291.029 297.343 287.871 300.361 284.908 303.323C282.141 306.229 279.681 309.471 277.906 313.258C277.906 313.258 277.71 313.313 277.78 313.188C279.29 309.583 281.875 306.411 284.447 303.561C287.549 300.347 290.833 297.399 293.992 294.381C294.062 294.256 294.062 294.256 293.992 294.381Z" fill="white"/>
<path d="M293.992 294.382C290.973 300.11 287.702 305.699 283.496 310.603C282.21 312.029 280.924 313.454 279.568 315.005L279.443 314.935C282.545 311.721 285.34 308.172 287.884 304.484C290.148 301.298 292.035 297.903 293.992 294.382Z" fill="white"/>
<path d="M113.22 161.498C112.494 157.474 111.181 153.617 109.532 150.067C107.828 146.322 105.16 142.535 101.247 142.171C100.8 142.087 100.283 142.129 99.8217 142.367C98.9693 142.716 98.4801 143.596 98.1865 144.421C97.5854 146.391 97.9485 148.403 98.9124 149.926C99.8065 151.575 101.176 152.665 102.671 153.825C105.898 156.606 109.517 159.276 113.22 161.498Z" fill="#B1C0D9"/>
<path d="M112.968 161.358C112.452 158.438 111.474 155.755 110.3 153.128C109.001 150.431 107.185 147.775 104.432 147.398C104.111 147.384 103.79 147.37 103.398 147.482C102.811 147.649 102.392 148.404 102.238 148.977C101.791 150.374 102.112 151.869 102.769 153.057C103.425 154.245 104.417 155.125 105.479 155.88C107.841 157.85 110.397 159.765 112.968 161.358Z" fill="#627692"/>
<path d="M112.968 161.358C111.124 157.865 109.35 154.246 107.24 150.934C105.257 147.691 103.133 144.701 100.339 142.325L100.409 142.199C103.147 144.379 105.271 147.37 107.129 150.542C109.294 154.05 111.068 157.669 112.968 161.358Z" fill="white"/>
<path d="M112.843 161.289C108.637 157.306 104.697 153.141 101.372 148.166C100.408 146.643 99.444 145.119 98.4801 143.596L98.55 143.47C100.646 147.104 102.881 150.486 105.647 153.504C107.911 156.243 110.439 158.801 112.843 161.289C113.038 161.233 112.968 161.358 112.843 161.289Z" fill="white"/>
<path d="M154.944 272.411C154.218 268.387 152.905 264.53 151.257 260.98C149.552 257.235 146.884 253.448 142.972 253.084C142.524 253 142.007 253.042 141.546 253.28C140.694 253.629 140.205 254.509 139.911 255.334C139.31 257.304 139.673 259.316 140.637 260.839C141.531 262.488 142.9 263.578 144.395 264.738C147.749 267.589 151.242 270.189 154.944 272.411Z" fill="#B1C0D9"/>
<path d="M154.819 272.341C154.302 269.421 153.324 266.738 152.151 264.111C150.851 261.414 149.035 258.758 146.283 258.381C145.961 258.367 145.64 258.353 145.249 258.464C144.662 258.632 144.242 259.387 144.089 259.959C143.641 261.357 143.962 262.852 144.619 264.04C145.276 265.228 146.268 266.108 147.329 266.863C149.691 268.833 152.248 270.748 154.819 272.341Z" fill="#627692"/>
<path d="M154.693 272.272C152.849 268.778 151.075 265.159 148.965 261.847C146.981 258.604 144.858 255.614 142.063 253.238L142.133 253.112C144.872 255.293 146.995 258.283 148.853 261.455C151.019 264.963 152.919 268.652 154.693 272.272C154.819 272.341 154.819 272.341 154.693 272.272Z" fill="white"/>
<path d="M154.693 272.271C150.487 268.288 146.547 264.124 143.222 259.149C142.258 257.626 141.294 256.102 140.33 254.579L140.4 254.453C142.496 258.087 144.731 261.469 147.497 264.487C149.761 267.226 152.29 269.784 154.693 272.271C154.888 272.216 154.819 272.341 154.693 272.271Z" fill="white"/>
<path d="M293.782 294.759C291.351 291.433 288.375 288.791 285.329 286.276C282.158 283.69 278.064 281.58 274.458 283.033C273.997 283.27 273.606 283.382 273.2 283.815C272.655 284.5 272.613 285.464 272.697 286.498C272.934 288.44 274.345 290.047 275.91 291.081C277.475 292.116 279.264 292.451 280.983 292.913C285.133 293.738 289.478 294.507 293.782 294.759Z" fill="#B1C0D9"/>
<path d="M293.656 294.689C291.826 292.355 289.786 290.399 287.481 288.624C285.175 286.849 282.283 285.241 279.6 286.219C279.209 286.331 278.943 286.513 278.803 286.764C278.398 287.197 278.3 287.966 278.398 288.678C278.593 290.104 279.571 291.305 280.703 291.934C281.765 292.689 283.106 292.941 284.322 293.123C287.438 294.031 290.512 294.423 293.656 294.689Z" fill="#627692"/>
<path d="M293.586 294.815C290.401 292.551 287.089 290.217 283.834 288.078C280.704 286.01 277.365 284.318 273.787 283.647C273.787 283.647 273.732 283.452 273.857 283.521C277.239 284.249 280.578 285.94 283.652 287.813C286.908 289.951 290.219 292.285 293.586 294.815Z" fill="white"/>
<path d="M293.461 294.745C287.997 293.025 282.478 291.11 277.196 288.175C275.687 287.336 274.052 286.428 272.613 285.464L272.683 285.338C276.19 287.616 279.711 289.573 283.442 291.152C286.796 292.522 290.163 293.571 293.461 294.745C293.53 294.619 293.586 294.815 293.461 294.745Z" fill="white"/>
<path d="M150.558 155.914C145.933 152.685 140.567 150.197 135.244 148.226C129.599 146.241 122.947 145.178 118.098 148.573C117.497 149.062 116.896 149.551 116.547 150.18C115.918 151.312 116.113 152.737 116.644 153.855C117.692 156.412 120.263 158.006 122.876 158.635C125.489 159.264 128.27 158.999 130.98 158.86C137.45 158.176 144.06 157.24 150.558 155.914Z" fill="#B1C0D9"/>
<path d="M150.306 155.774C146.995 153.44 143.208 151.665 139.338 150.337C135.216 148.869 130.479 148.212 127.027 150.573C126.566 150.81 126.161 151.243 125.881 151.746C125.462 152.501 125.545 153.535 125.895 154.387C126.719 156.162 128.535 157.336 130.38 157.867C132.294 158.273 134.292 158.231 136.235 157.994C140.762 157.547 145.625 156.793 150.306 155.774Z" fill="#627692"/>
<path d="M150.11 155.83C144.577 154.236 138.988 152.447 133.441 151.174C128.089 149.846 122.584 149.091 117.092 149.495C116.966 149.426 116.966 149.426 117.036 149.3C122.402 148.825 127.782 149.511 133.008 150.769C138.806 152.181 144.465 153.845 150.25 155.578C150.306 155.774 150.236 155.9 150.11 155.83Z" fill="white"/>
<path d="M150.111 155.83C141.279 156.024 132.658 155.841 123.966 154.303C121.409 153.87 118.796 153.241 116.309 152.681C116.183 152.611 116.253 152.486 116.379 152.556C122.303 154.038 128.186 155.002 134.279 155.59C139.421 155.814 144.829 155.857 150.111 155.83C150.18 155.704 150.236 155.9 150.111 155.83Z" fill="white"/>
<path d="M224.134 221.654C218.46 221.793 212.801 223.092 207.379 224.852C201.636 226.598 195.697 229.881 193.837 235.596C193.614 236.295 193.516 237.063 193.613 237.776C193.753 239.006 194.801 240.082 195.933 240.711C198.322 242.038 201.228 241.843 203.786 240.795C206.217 239.678 208.355 237.904 210.368 236.059C215.008 231.56 219.787 226.81 224.134 221.654Z" fill="#B1C0D9"/>
<path d="M223.994 221.906C219.928 222.115 215.833 222.967 211.851 224.21C207.672 225.509 203.452 227.772 202.11 231.964C201.956 232.537 201.872 232.984 201.914 233.501C202.068 234.409 202.808 235.15 203.563 235.569C205.323 236.548 207.391 236.38 209.166 235.556C210.941 234.732 212.478 233.447 213.89 232.091C217.439 228.962 220.807 225.567 223.994 221.906Z" fill="#627692"/>
<path d="M223.798 221.962C218.362 224.043 212.996 225.999 207.616 228.276C202.627 230.441 197.68 233.123 193.655 236.812C193.586 236.938 193.53 236.742 193.53 236.742C197.485 233.179 202.236 230.553 207.099 228.318C212.675 225.985 218.237 223.973 223.798 221.962C223.994 221.906 223.868 221.836 223.798 221.962Z" fill="white"/>
<path d="M223.798 221.962C216.867 227.327 209.879 232.496 202.04 236.533C199.734 237.721 197.302 238.838 194.941 239.83C194.871 239.956 194.815 239.76 194.885 239.635C200.461 237.302 205.799 234.508 210.9 231.253C215.274 228.417 219.536 225.189 223.798 221.962Z" fill="white"/>
<path d="M199.857 258.527C194.953 255.802 189.363 254.012 183.816 252.74C177.947 251.454 171.198 251.16 166.712 255.086C166.111 255.575 165.636 256.133 165.412 256.832C164.909 258.034 165.3 259.403 165.831 260.521C167.144 262.897 169.855 264.239 172.482 264.546C175.109 264.854 177.834 264.393 180.503 263.737C187.001 262.41 193.583 260.636 199.857 258.527Z" fill="#B1C0D9"/>
<path d="M199.661 258.583C196.14 256.626 192.074 255.354 188.12 254.474C183.914 253.453 179.023 253.368 175.809 256.191C175.403 256.624 175.068 256.931 174.789 257.434C174.495 258.259 174.579 259.293 175.124 260.089C176.143 261.808 178.1 262.731 179.958 262.94C181.942 263.22 183.829 262.787 185.715 262.354C190.396 261.335 195.148 260.19 199.661 258.583Z" fill="#627692"/>
<path d="M199.466 258.639C193.779 257.618 188.091 256.598 182.39 255.898C177.011 255.213 171.351 255.03 165.958 256.148C165.832 256.078 165.832 256.078 165.902 255.952C171.17 254.765 176.508 254.933 181.887 255.619C187.784 256.262 193.723 257.423 199.605 258.388C199.536 258.513 199.591 258.709 199.466 258.639Z" fill="white"/>
<path d="M199.466 258.639C190.718 259.868 182.18 260.719 173.321 260.075C170.624 259.893 168.123 259.655 165.496 259.347C165.37 259.277 165.44 259.152 165.566 259.222C171.588 259.935 177.625 260.327 183.689 260.076C188.915 259.853 194.156 259.309 199.466 258.639Z" fill="white"/>
<path d="M276.219 62.4749C271.958 55.3339 266.314 48.9054 260.25 43.2314C253.879 37.2219 245.552 31.7712 236.916 33.391C235.812 33.6005 234.764 34.0056 233.897 34.6762C232.43 35.8358 231.829 37.806 231.745 39.7343C231.702 43.6608 234.049 47.434 237.291 49.8938C240.407 52.2836 244.207 53.7373 248.022 54.8697C257.3 57.7215 266.774 60.5174 276.219 62.4749Z" fill="#B1C0D9"/>
<path d="M275.842 62.2653C272.783 57.1087 268.605 52.483 264.344 48.3043C259.705 43.9161 253.753 40.1145 247.521 41.2595C246.738 41.483 245.956 41.7065 245.355 42.1955C244.223 43.0477 243.775 44.445 243.845 45.8004C243.719 48.6929 245.535 51.3481 247.84 53.1231C250.146 54.898 252.871 55.9184 255.539 56.7432C262.204 58.9658 269.009 60.937 275.842 62.2653Z" fill="#627692"/>
<path d="M275.647 62.3212C269.122 56.8847 262.736 51.1967 256.072 46.0116C249.714 41.162 242.826 36.6756 235.211 34.0896C235.085 34.0197 235.155 33.8939 235.281 33.9638C242.77 36.48 249.477 40.7009 255.709 45.4806C262.625 50.8054 269.136 56.5633 275.912 62.1396C276.038 62.2095 275.772 62.3911 275.647 62.3212Z" fill="white"/>
<path d="M275.521 62.2513C263.63 57.2891 252.145 51.8939 241.386 44.5983C238.13 42.4599 235.14 40.14 232.025 37.7501C231.899 37.6802 232.039 37.4287 232.164 37.4986C239.206 42.8933 246.584 47.9806 254.324 52.1177C261.185 55.7657 268.325 58.9107 275.535 61.9299C275.786 62.0696 275.647 62.3211 275.521 62.2513Z" fill="white"/>
<path d="M227.535 69.8188C219.584 67.5401 210.991 66.7146 202.62 66.6716C193.803 66.5447 184.063 68.374 178.92 75.5557C178.235 76.4918 177.746 77.3721 177.564 78.5878C177.229 80.3763 178.109 82.3467 179.338 83.6883C181.979 86.6371 186.311 87.7275 190.321 87.3228C194.332 86.9181 198.007 85.3396 201.556 83.6912C210.374 79.3745 219.262 74.9321 227.535 69.8188Z" fill="#B1C0D9"/>
<path d="M227.143 69.9305C221.359 68.197 215.196 67.7351 209.272 67.7343C202.9 67.6497 195.885 69.0182 192.251 74.0761C191.776 74.635 191.357 75.3895 191.259 76.158C191.007 77.4994 191.719 78.8829 192.642 79.8891C194.612 81.9714 197.672 82.6845 200.578 82.4892C203.359 82.2241 206.112 81.1205 208.613 79.8772C214.93 76.8038 221.19 73.5349 227.143 69.9305Z" fill="#627692"/>
<path d="M227.074 70.0563C218.62 70.4605 210.166 70.8646 201.698 71.5901C193.677 72.3996 185.628 73.8518 178.333 77.2045C178.137 77.2603 178.082 77.0647 178.277 77.0088C185.376 73.712 193.174 72.12 200.999 71.3665C209.732 70.4593 218.438 70.1949 227.088 69.7349C227.213 69.8048 227.143 69.9306 227.074 70.0563Z" fill="white"/>
<path d="M226.948 69.9864C214.902 74.4843 202.815 78.4652 190.043 80.4198C186.284 80.9643 182.399 81.4389 178.584 81.7877C178.388 81.8436 178.403 81.5222 178.528 81.5921C187.388 80.7549 196.205 79.4006 204.743 77.0681C212.303 75.015 219.625 72.5007 226.962 69.665C227.018 69.8606 227.074 70.0563 226.948 69.9864Z" fill="white"/>
<path d="M240.636 116.436C232.405 117.623 224.356 120.556 216.74 123.895C208.789 127.541 200.558 133.171 198.894 141.793C198.656 142.813 198.544 143.903 198.879 145.076C199.382 146.837 200.933 148.193 202.638 148.976C206.243 150.485 210.658 149.647 214.026 147.733C217.464 145.694 220.105 142.718 222.747 139.742C228.994 132.351 235.129 124.568 240.636 116.436Z" fill="#B1C0D9"/>
<path d="M240.301 116.744C234.404 117.581 228.451 119.704 223.126 122.177C217.411 124.761 211.5 128.883 210.199 135.073C210.101 135.841 210.003 136.61 210.227 137.393C210.618 138.762 211.736 139.712 212.937 140.216C215.592 141.362 218.708 140.789 221.154 139.35C223.599 137.911 225.626 135.746 227.457 133.636C232.013 128.103 236.443 122.5 240.301 116.744Z" fill="#627692"/>
<path d="M240.231 116.869C232.782 120.795 225.082 124.581 217.746 128.898C210.745 132.907 204.162 137.643 198.81 143.721C198.74 143.847 198.488 143.707 198.558 143.581C203.715 137.559 210.032 133.005 216.837 129.051C224.37 124.678 232.14 120.767 239.853 116.66C240.175 116.674 240.301 116.744 240.231 116.869Z" fill="white"/>
<path d="M240.035 116.925C230.881 125.993 221.616 134.669 210.869 141.864C207.683 144.044 204.315 145.957 201.073 147.941C200.877 147.997 200.821 147.802 201.017 147.746C208.745 143.317 216.11 138.357 222.985 132.797C229.064 127.781 234.515 122.416 240.105 116.799C239.979 116.73 240.231 116.869 240.035 116.925Z" fill="white"/>
<path d="M181.151 115.967C174.108 116.497 166.939 118.439 160.33 120.855C153.329 123.384 145.992 127.7 143.937 134.952C143.769 135.847 143.531 136.867 143.685 137.775C143.936 139.396 145.236 140.612 146.689 141.255C149.777 142.806 153.466 142.388 156.428 140.907C159.517 139.496 162.004 137.093 164.366 134.62C170.292 128.696 176.036 122.506 181.151 115.967Z" fill="#B1C0D9"/>
<path d="M180.885 116.149C175.715 116.568 170.698 117.894 165.919 119.682C160.819 121.456 155.592 124.642 154.208 129.798C153.984 130.496 153.956 131.139 154.054 131.852C154.264 132.956 155.186 133.962 156.262 134.395C158.469 135.457 161.124 135.122 163.29 134.187C165.526 133.125 167.273 131.462 168.964 129.604C173.143 125.343 177.265 120.886 180.885 116.149Z" fill="#627692"/>
<path d="M180.815 116.275C174.122 119.138 167.498 121.876 160.986 125.005C154.865 128.023 148.786 131.557 143.937 136.434C143.867 136.559 143.615 136.42 143.811 136.364C148.591 131.613 154.348 128.065 160.273 125.103C166.925 121.722 173.87 118.999 180.634 116.009C180.885 116.149 180.941 116.345 180.815 116.275Z" fill="white"/>
<path d="M180.746 116.4C172.444 123.638 163.906 130.414 154.333 135.792C151.496 137.343 148.534 138.824 145.571 140.304C145.501 140.43 145.32 140.165 145.515 140.109C152.293 136.798 158.959 133.096 165.136 128.793C170.586 124.909 175.603 120.62 180.62 116.33C180.69 116.205 180.815 116.275 180.746 116.4Z" fill="white"/>
<path d="M229.185 167.843C222.743 170.847 216.817 175.289 211.591 179.956C206.029 184.93 200.718 191.524 201.485 199.028C201.639 199.937 201.793 200.845 202.268 201.767C203.176 203.095 204.755 203.808 206.292 204.004C209.687 204.409 212.985 202.621 215.347 200.148C217.709 197.675 219.135 194.517 220.49 191.485C223.663 183.702 226.711 175.85 229.185 167.843Z" fill="#B1C0D9"/>
<path d="M228.975 168.22C224.308 170.399 220.115 173.501 216.23 176.938C212.15 180.431 208.46 185.293 208.934 190.659C209.032 191.372 209.2 191.959 209.493 192.615C210.094 193.608 211.296 194.111 212.385 194.223C214.887 194.461 217.262 193.147 218.883 191.415C220.505 189.682 221.637 187.349 222.573 185.071C225.005 179.51 227.186 173.809 228.975 168.22Z" fill="#627692"/>
<path d="M228.905 168.346C223.791 173.404 218.55 178.392 213.616 183.715C209.019 188.731 204.658 194.208 201.932 200.593C201.863 200.719 201.737 200.649 201.807 200.523C204.462 194.264 208.557 188.968 213.085 184.078C218.089 178.629 223.595 173.46 228.85 168.15C228.919 168.025 228.975 168.22 228.905 168.346Z" fill="white"/>
<path d="M228.905 168.346C223.72 177.973 218.283 187.46 211.281 195.913C209.171 198.526 207.005 200.943 204.713 203.291C204.643 203.416 204.587 203.221 204.587 203.221C209.786 197.716 214.552 191.806 218.759 185.42C222.35 179.845 225.565 174.061 228.724 168.08C228.724 168.08 228.975 168.22 228.905 168.346Z" fill="white"/>
<path d="M88.5726 144.839C87.4271 143.05 85.8762 141.694 84.1995 140.269C73.6926 131.632 59.5659 127.731 46.1371 129.979C45.8157 129.965 45.4244 130.077 45.2147 130.454C44.9352 130.957 45.4941 131.433 45.8015 131.768C53.8074 138.686 63.7699 143.564 74.1939 145.242C78.6653 146.081 83.4861 146.291 87.7483 144.545" fill="#AD1B1E"/>
<path d="M89.2435 144.224C87.3572 143.176 85.8763 141.694 84.3953 140.213C75.1042 130.277 70.5646 116.233 71.9916 102.707C72.0056 102.385 72.0895 101.938 72.425 101.631C72.8861 101.393 73.5149 101.743 73.7524 102.204C81.2132 109.806 86.3961 119.435 88.8402 129.845C89.8038 134.331 90.3062 139.054 88.8943 143.372" fill="#AD1B1E"/>
<path d="M90.5991 142.673C94.1069 139.026 95.491 133.87 96.6654 129.091C97.3644 126.353 97.9377 123.544 97.7983 120.833C97.6729 117.801 96.7091 114.797 95.4798 111.974C94.7814 110.269 93.8873 108.62 92.4622 107.334C91.1628 106.118 89.2066 105.196 87.4599 105.377C85.0005 105.656 83.03 108.018 82.3449 110.435C81.6599 112.852 81.995 115.507 82.2741 117.967C83.4608 126.197 85.3601 134.33 88.9643 141.764C89.3136 142.617 90.1099 143.553 90.9624 143.204" fill="#E92438"/>
<path d="M89.5649 144.238C89.6634 139.026 87.8894 133.925 85.249 129.495C82.6086 125.065 78.7803 121.292 74.8682 117.966C71.8223 115.45 68.5109 113.116 64.4726 112.682C60.6299 112.193 56.1023 114.121 54.9699 117.935C54.2569 120.995 55.4722 124.14 57.2325 126.599C59.3561 129.59 62.2063 132.161 65.2663 134.355C70.6316 138.325 76.5419 141.609 82.676 144.195C84.9535 145.132 87.818 145.901 89.6906 144.308" fill="#E92438"/>
<path d="M88.5028 144.964C83.3748 142.937 78.0511 140.967 72.6296 139.764C67.208 138.562 61.4929 138.184 56.0291 139.427C53.3601 140.083 50.2718 141.494 49.8941 144.247C49.5305 146.678 51.4306 148.886 53.4985 150.2C57.6902 153.023 63.0699 153.708 68.1144 153.22C73.1589 152.732 77.9939 151.139 82.829 149.547C84.0028 149.212 85.0508 148.807 85.9872 148.01C86.9235 147.214 87.6782 146.152 87.4687 145.048" fill="#E92438"/>
<path d="M87.6503 145.314C81.7957 143.706 75.6194 143.565 69.4431 143.425C62.9455 143.27 56.5736 143.186 50.1876 143.422C50.0619 143.353 50.1318 143.227 50.1318 143.227C56.7133 142.934 63.211 143.089 69.7086 143.243C75.6893 143.44 81.7398 143.51 87.5945 145.118C87.846 145.258 87.7761 145.384 87.6503 145.314Z" fill="#FFFFE6"/>
<path d="M87.3989 145.174C87.4407 145.691 86.5324 145.844 86.1412 145.956C84.8975 146.417 83.7237 146.752 82.4241 147.018C80.1463 147.562 77.687 147.841 75.3674 147.869C70.0714 148.218 64.7335 148.049 59.4655 147.755C56.4473 147.559 53.429 147.363 50.4807 147.041C50.3549 146.972 50.4248 146.846 50.5505 146.916C56.8944 147.643 63.1266 147.979 69.4426 147.868C72.405 147.869 75.2416 147.799 78.218 147.478C79.7691 147.353 81.2643 147.031 82.7595 146.71C83.4721 146.613 87.315 145.621 87.3989 145.174C87.343 144.978 87.2731 145.104 87.3989 145.174Z" fill="#FFFFE6"/>
<path d="M88.3214 143.218C88.0561 141.918 87.0781 140.716 86.3516 139.654C85.6251 138.592 84.7729 137.46 84.0464 136.398C82.3419 134.134 80.6374 131.87 78.7932 129.858C75.0488 125.637 70.8293 121.976 66.4001 118.691C64.0249 117.042 61.4121 114.932 58.4777 114.289C58.352 114.219 58.4219 114.093 58.5476 114.163C61.0348 114.722 63.3402 116.497 65.5339 117.881C67.9092 119.53 70.0888 121.235 72.1986 123.066C76.4181 126.727 80.2882 131.018 83.6972 135.546C84.6053 136.873 85.709 138.145 86.5472 139.598C87.2178 140.465 88.1259 141.792 88.3214 143.218C88.4471 143.288 88.3773 143.413 88.3214 143.218Z" fill="#FFFFE6"/>
<path d="M55.7106 117.195C57.2195 119.515 59.3851 121.541 61.2992 123.428C63.2134 125.314 65.3231 127.145 67.363 129.102C71.5825 132.763 76.0676 136.243 80.7623 139.346C83.3891 141.135 86.1556 142.672 88.9222 144.21C89.0479 144.28 88.978 144.406 88.8523 144.336C78.7781 139.066 69.8779 131.981 61.5926 124.085C59.427 122.058 57.1356 119.962 55.4451 117.376C55.4591 117.055 55.6548 116.999 55.7106 117.195Z" fill="#FFFFE6"/>
<path d="M90.0869 105.685C93.607 115.048 95.7855 125.64 92.8498 135.365C92.025 138.034 90.8788 140.689 89.2995 142.938C89.2296 143.064 89.1039 142.994 89.1738 142.869C96.6091 131.858 94.4031 117.465 90.0869 105.685C89.9611 105.615 89.7655 105.671 90.0869 105.685Z" fill="#FFFFE6"/>
<path d="M85.3639 106.188C86.3273 112.154 87.2208 118.247 87.5973 124.381C87.7226 127.414 87.7781 130.572 87.8336 133.73C88.0148 136.958 88.266 140.06 88.6428 143.232C88.573 143.358 88.4472 143.288 88.4472 143.288C88.0004 140.241 87.7493 137.139 87.624 134.107C87.3728 131.005 87.4431 127.917 87.3876 124.759C87.081 118.499 86.1875 112.406 85.3639 106.188C85.4337 106.062 85.2381 106.118 85.3639 106.188Z" fill="#FFFFE6"/>
<path d="M94.4971 147.802C96.1567 144.815 95.0811 141.049 92.0947 139.39C89.1083 137.73 85.342 138.805 83.6824 141.792C82.0228 144.778 83.0983 148.545 86.0847 150.204C89.0711 151.864 92.8375 150.788 94.4971 147.802Z" fill="#AD1B1E"/>
<path d="M121.41 254.269C120.265 252.481 118.714 251.125 117.037 249.699C106.53 241.063 92.4033 237.162 78.9745 239.41C78.5832 239.522 78.192 239.634 78.0522 239.885C77.7727 240.388 78.3316 240.863 78.6389 241.199C86.575 248.242 96.5374 253.12 107.087 254.868C111.559 255.707 116.379 255.918 120.642 254.171" fill="#AD1B1E"/>
<path d="M122.081 253.654C120.195 252.606 118.714 251.125 117.233 249.643C107.942 239.707 103.402 225.663 104.829 212.137C104.843 211.816 104.927 211.368 105.262 211.061C105.724 210.824 106.352 211.173 106.59 211.634C114.051 219.237 119.234 228.865 121.678 239.276C122.641 243.761 123.144 248.484 121.732 252.802" fill="#AD1B1E"/>
<path d="M123.367 252.229C126.875 248.583 128.259 243.427 129.433 238.648C130.132 235.909 130.705 233.101 130.566 230.39C130.441 227.357 129.477 224.353 128.247 221.53C127.549 219.825 126.655 218.176 125.23 216.891C123.93 215.675 121.974 214.752 120.227 214.934C117.768 215.213 115.798 217.574 115.113 219.991C114.428 222.409 114.763 225.064 115.042 227.523C116.228 235.754 118.128 243.886 121.732 251.321C122.081 252.173 122.878 253.11 123.73 252.76" fill="#E92438"/>
<path d="M122.333 253.794C122.431 248.582 120.657 243.482 118.017 239.052C115.376 234.622 111.548 230.848 107.636 227.522C104.59 225.007 101.278 222.673 97.2402 222.239C93.3976 221.749 88.8699 223.677 87.7376 227.492C86.8988 230.482 88.1839 233.5 89.9443 235.96C92.0679 238.951 94.9181 241.522 97.978 243.716C103.343 247.685 109.254 250.97 115.388 253.556C117.665 254.492 120.53 255.261 122.402 253.669" fill="#E92438"/>
<path d="M121.27 254.521C116.142 252.494 110.819 250.523 105.397 249.321C99.9756 248.118 94.2605 247.74 88.7967 248.983C86.1277 249.639 83.0393 251.05 82.6617 253.803C82.368 256.109 84.2681 258.317 86.2661 259.756C90.4578 262.579 95.8375 263.265 100.882 262.776C105.926 262.288 110.761 260.696 115.597 259.103C116.77 258.768 117.818 258.363 118.755 257.567C119.691 256.77 120.446 255.708 120.236 254.604" fill="#E92438"/>
<path d="M120.418 254.87C114.563 253.262 108.387 253.122 102.211 252.981C95.713 252.827 89.3411 252.742 82.9552 252.979C82.8295 252.909 82.8994 252.783 82.8994 252.783C89.4809 252.491 95.9786 252.645 102.476 252.8C108.457 252.996 114.507 253.067 120.362 254.674C120.488 254.744 120.544 254.94 120.418 254.87Z" fill="#FFFFE6"/>
<path d="M120.166 254.73C120.208 255.247 119.3 255.401 118.909 255.513C117.665 255.973 116.491 256.309 115.192 256.574C112.914 257.119 110.455 257.398 108.135 257.425C102.839 257.774 97.5011 257.606 92.2331 257.312C89.2149 257.116 86.1966 256.92 83.2482 256.598C83.1225 256.528 83.1924 256.402 83.3181 256.472C89.662 257.2 95.8941 257.536 102.21 257.425C105.173 257.425 108.009 257.356 110.986 257.035C112.537 256.909 114.032 256.588 115.527 256.267C116.24 256.169 120.083 255.177 120.166 254.73C120.111 254.535 119.915 254.59 120.166 254.73Z" fill="#FFFFE6"/>
<path d="M121.089 252.774C120.824 251.475 119.846 250.273 119.119 249.211C118.393 248.149 117.54 247.017 116.814 245.954C115.109 243.691 113.405 241.427 111.561 239.414C107.816 235.194 103.597 231.532 99.1677 228.248C96.7924 226.599 94.1796 224.488 91.2453 223.845C91.1195 223.775 91.1894 223.649 91.3151 223.719C93.8024 224.279 96.1078 226.054 98.3014 227.437C100.677 229.086 102.856 230.791 104.966 232.622C109.186 236.284 113.056 240.574 116.465 245.102C117.373 246.43 118.477 247.701 119.315 249.155C119.985 250.021 120.963 251.223 121.089 252.774Z" fill="#FFFFE6"/>
<path d="M88.4782 226.751C89.9871 229.071 92.1527 231.098 94.0668 232.984C95.9809 234.871 98.0907 236.702 100.131 238.658C104.35 242.32 108.835 245.8 113.53 248.902C116.157 250.691 118.923 252.229 121.69 253.766C121.815 253.836 121.746 253.962 121.62 253.892C111.546 248.623 102.645 241.537 94.3602 233.641C92.1945 231.615 89.9032 229.518 88.2127 226.933C88.2267 226.612 88.4224 226.556 88.4782 226.751Z" fill="#FFFFE6"/>
<path d="M122.854 215.242C126.375 224.604 128.553 235.196 125.617 244.922C124.793 247.59 123.591 250.05 122.137 252.369C122.067 252.495 121.941 252.425 122.011 252.299C129.447 241.289 127.171 227.022 122.854 215.242C122.729 215.172 122.533 215.228 122.854 215.242Z" fill="#FFFFE6"/>
<path d="M118.131 215.744C119.095 221.711 119.988 227.803 120.365 233.938C120.49 236.97 120.546 240.128 120.601 243.286C120.782 246.514 121.034 249.616 121.41 252.788C121.341 252.914 121.215 252.844 121.215 252.844C120.768 249.798 120.643 246.765 120.392 243.663C120.14 240.561 120.211 237.473 120.155 234.315C119.918 227.929 119.025 221.836 118.131 215.744C118.076 215.548 118.006 215.674 118.131 215.744Z" fill="#FFFFE6"/>
<path d="M127.335 257.233C128.994 254.246 127.919 250.48 124.932 248.82C121.946 247.161 118.18 248.236 116.52 251.223C114.86 254.209 115.936 257.975 118.922 259.635C121.909 261.295 125.675 260.219 127.335 257.233Z" fill="#AD1B1E"/>
<path d="M259.49 301.378C257.45 300.902 255.326 300.874 253.258 301.042C239.76 301.934 226.638 308.961 218.504 319.748C218.294 320.125 217.959 320.432 218.07 320.823C218.238 321.41 218.881 321.438 219.398 321.397C230.046 320.895 240.498 317.487 249.316 311.689C253.159 309.216 256.779 305.961 258.694 301.923" fill="#AD1B1E"/>
<path d="M259.462 300.539C257.38 301.028 255.256 301 253.202 300.846C239.718 299.936 226.626 292.989 218.466 282.201C218.285 281.935 218.047 281.474 218.061 281.153C218.215 280.58 218.858 280.608 219.375 280.566C229.981 281.028 240.46 284.383 249.347 290.309C253.231 292.797 256.766 295.914 258.708 300.12" fill="#AD1B1E"/>
<path d="M259.295 298.471C259.324 293.385 256.823 288.704 254.238 284.469C252.799 282.024 251.36 279.578 249.321 277.622C247.099 275.4 244.388 274.058 241.482 272.772C239.708 272.115 237.933 271.458 236.13 271.444C234.328 271.429 232.302 272.114 231.211 273.483C229.646 275.411 229.772 278.444 230.833 280.679C232.021 282.985 234.075 284.62 236.003 286.186C242.542 291.301 249.486 295.983 257.157 298.765C257.981 299.058 259.197 299.24 259.616 298.485" fill="#E92438"/>
<path d="M259.728 300.358C256.291 296.473 251.442 293.943 246.412 292.629C241.382 291.314 236.114 291.02 230.944 291.439C227.003 291.718 222.979 292.444 219.722 294.749C216.466 297.054 214.789 301.554 216.437 305.103C217.736 307.8 220.894 309.226 223.829 309.869C227.532 310.61 231.276 310.387 234.966 309.968C241.505 309.159 248.143 307.581 254.305 305.08C256.989 304.102 259.56 302.733 259.728 300.358Z" fill="#E92438"/>
<path d="M259.546 301.573C254.431 303.669 249.247 305.89 244.426 308.642C239.605 311.394 235.188 315.194 232.156 319.763C230.576 322.013 229.402 325.31 230.981 327.505C232.308 329.559 235.256 329.881 237.66 329.406C242.593 328.526 246.981 325.369 250.307 321.456C253.633 317.544 255.953 313.073 258.399 308.672C258.958 307.666 259.587 306.534 259.699 305.444C259.881 304.228 259.616 302.929 258.68 302.244" fill="#E92438"/>
<path d="M259.183 302.524C253.775 305.443 249.219 309.495 244.789 313.617C239.967 317.85 235.271 322.153 230.813 326.918C230.743 327.043 230.688 326.848 230.688 326.848C235.271 322.153 240.037 317.724 244.928 313.365C249.414 309.439 253.844 305.318 259.253 302.398C259.127 302.328 259.253 302.398 259.183 302.524Z" fill="#FFFFE6"/>
<path d="M258.861 302.51C259.364 302.789 258.749 303.599 258.61 303.851C257.981 304.983 257.352 306.115 256.723 307.246C255.479 309.188 253.788 311.047 252.292 312.849C248.645 316.747 244.816 320.38 240.805 323.747C238.597 325.647 236.193 327.603 233.733 329.363C233.664 329.489 233.608 329.293 233.678 329.168C238.736 325.396 243.488 321.288 248.128 316.789C250.21 314.819 252.236 312.653 254.137 310.418C255.088 309.3 255.982 307.987 256.807 306.799C257.016 306.422 259.294 302.915 258.917 302.705C258.666 302.565 258.735 302.44 258.861 302.51Z" fill="#FFFFE6"/>
<path d="M258.177 300.483C257.115 299.729 255.578 299.533 254.306 299.155C252.965 298.904 251.693 298.526 250.352 298.274C247.543 297.701 244.791 297.324 241.898 297.197C236.379 296.764 230.705 296.903 225.2 297.628C222.349 298.019 218.981 298.452 216.41 299.821C216.34 299.947 216.284 299.751 216.354 299.626C218.66 298.438 221.385 297.977 223.914 297.572C226.639 297.112 229.546 296.916 232.326 296.651C237.944 296.317 243.589 296.82 249.15 297.771C250.813 298.037 252.28 298.359 253.873 298.75C255.34 299.072 256.877 299.267 258.065 300.092C258.372 300.427 258.303 300.553 258.177 300.483Z" fill="#FFFFE6"/>
<path d="M216.549 304.013C219.288 304.712 222.125 304.643 224.891 304.699C227.658 304.755 230.369 304.616 233.136 304.672C238.683 304.463 244.44 303.877 249.89 302.955C253.006 302.383 256.067 301.615 259.127 300.847C259.323 300.791 259.253 300.917 259.183 301.042C248.227 304.171 236.853 305.092 225.52 305.048C222.432 304.978 219.4 305.103 216.34 304.39C216.354 304.069 216.424 303.943 216.549 304.013Z" fill="#FFFFE6"/>
<path d="M233.587 272.17C242.543 276.489 251.486 282.61 256.11 291.764C257.353 294.265 258.205 296.878 258.666 299.603C258.596 299.729 258.596 299.729 258.47 299.659C256.404 286.496 244.807 277.747 233.517 272.296C233.391 272.226 233.461 272.1 233.587 272.17Z" fill="#FFFFE6"/>
<path d="M230.54 275.579C235.403 279.269 240.265 282.958 244.652 287.207C246.874 289.429 249.095 291.651 251.317 293.873C253.538 296.095 256.025 298.135 258.512 300.176C258.638 300.246 258.442 300.302 258.442 300.302C256.081 298.331 253.72 296.361 251.624 294.208C249.333 292.112 247.181 289.764 244.959 287.542C240.447 283.224 235.584 279.534 230.666 275.649C230.345 275.635 230.415 275.509 230.54 275.579Z" fill="#FFFFE6"/>
<path d="M265.107 304.005C266.767 301.019 265.691 297.253 262.705 295.593C259.718 293.934 255.952 295.009 254.292 297.995C252.633 300.982 253.708 304.748 256.695 306.408C259.681 308.067 263.448 306.992 265.107 304.005Z" fill="#AD1B1E"/>
</g>
<defs>
<clipPath id="clip0_10604_13541">
<rect width="275.503" height="319.958" fill="white" transform="translate(0 211.816) rotate(-60.938)"/>
</clipPath>
</defs>
</svg>
