<svg width="123" height="78" viewBox="0 0 123 78" fill="none" xmlns="http://www.w3.org/2000/svg">
<path d="M51.3622 -0.000244141L10.5365 32.7193L51.6499 4.98504L70.5235 18.0499L73.0265 19.5398L82.0893 13.2366L112.673 32.4041L81.9167 7.8215L72.7101 16.1017L51.3622 -0.000244141Z" fill="white"/>
<path d="M37.6309 24.8939C37.6309 25.6763 37.082 26.4335 35.9841 27.1654C34.924 27.8974 33.8072 28.276 32.6335 28.3012C31.6871 28.3012 31.2138 27.992 31.2138 27.3737C31.2138 26.9824 31.4347 26.749 31.8764 26.6733C32.2423 26.6354 32.4253 26.7048 32.4253 26.8815C32.4253 26.9067 32.4253 26.9383 32.4253 26.9761C32.4253 27.014 32.4127 27.0708 32.3875 27.1465C32.3748 27.2096 32.3685 27.2727 32.3685 27.3358C32.3685 27.3863 32.3685 27.4241 32.3685 27.4494C32.4064 27.6765 32.6777 27.7964 33.1825 27.809C34.0911 27.809 34.9303 27.5377 35.7001 26.9951C36.4699 26.4272 36.8548 25.853 36.8548 25.2725C36.8548 24.8056 36.5898 24.4143 36.0598 24.0988C35.5424 23.8086 34.8672 23.6572 34.0343 23.6445C33.2393 23.6445 32.4379 23.7644 31.6303 24.0042C30.8352 24.2314 30.015 24.591 29.1694 25.0832C27.5415 26.0675 26.7212 27.0203 26.7086 27.9415C26.7086 28.3706 26.9231 28.8754 27.3522 29.4559C27.5667 29.7209 27.7245 29.9481 27.8254 30.1374C27.9264 30.314 27.9895 30.4529 28.0147 30.5538C28.0147 30.945 27.4468 31.4246 26.3111 31.9925C25.4277 32.4342 24.7273 32.7938 24.2099 33.0714C23.6925 33.3365 23.3455 33.5321 23.1688 33.6583C22.3611 34.2261 21.8122 34.6363 21.5219 34.8887C21.055 35.3935 20.8089 36.0181 20.7837 36.7627C20.7837 37.5451 21.0802 38.195 21.6733 38.7124C22.2917 39.2046 23.0741 39.4507 24.0206 39.4507C24.7778 39.4507 25.5097 39.3876 26.2164 39.2614C26.9231 39.1478 27.6172 38.9775 28.2987 38.7503C29.6742 38.2581 31.2012 37.4568 32.8796 36.3463C32.8922 36.3463 32.949 36.4409 33.05 36.6302C31.3085 37.8795 29.6995 38.7819 28.223 39.3371C27.4658 39.6021 26.696 39.7977 25.9136 39.9239C25.1311 40.0501 24.3109 40.1258 23.4527 40.1511C22.3422 40.1511 21.4588 39.8924 20.8026 39.375C20.1716 38.8828 19.8498 38.195 19.8372 37.3117C19.8372 36.3526 20.2095 35.5007 20.954 34.7562C21.1559 34.5543 21.4588 34.3145 21.8626 34.0369C22.2791 33.7592 22.8091 33.4437 23.4527 33.0904C23.8565 32.8758 24.2604 32.6613 24.6642 32.4468C25.0807 32.2196 25.4971 31.9988 25.9136 31.7842C26.6834 31.3425 27.0683 31.0334 27.0683 30.8567C27.0683 30.6926 26.8537 30.3014 26.4247 29.6831C25.983 29.1152 25.7621 28.6419 25.7621 28.2633C25.7621 27.1781 26.7843 26.036 28.8287 24.8371C29.8509 24.2566 30.8542 23.8275 31.8385 23.5499C32.8355 23.2596 33.8261 23.1019 34.8104 23.0767C35.6055 23.0767 36.2743 23.2533 36.817 23.6067C37.3596 23.96 37.6309 24.3891 37.6309 24.8939ZM44.1371 36.7816C44.1371 36.8826 44.1118 36.9457 44.0614 36.9709C43.5439 37.3874 43.0644 37.7218 42.6227 37.9742C42.181 38.214 41.7772 38.397 41.4112 38.5231C41.0452 38.6493 40.7108 38.7251 40.408 38.7503C40.1177 38.7755 39.8716 38.7755 39.6697 38.7503C39.3668 38.6998 39.1271 38.5673 38.9504 38.3528C38.7737 38.1256 38.6538 37.766 38.5907 37.2738C38.25 37.6272 37.7704 37.9553 37.1521 38.2581C36.8997 38.3717 36.6788 38.4601 36.4895 38.5231C36.3129 38.5989 36.1677 38.6241 36.0542 38.5989C35.4863 38.5231 35.1771 38.2455 35.1266 37.766C35.1266 37.3117 35.2402 36.9899 35.4673 36.8006C35.6062 36.687 35.7702 36.6113 35.9595 36.5734C36.1362 36.5229 36.2498 36.5608 36.3002 36.687C36.3507 36.8006 36.376 36.9204 36.376 37.0466C36.3633 37.1728 36.3507 37.2927 36.3381 37.4063C36.3255 37.5199 36.3318 37.6272 36.357 37.7281C36.3823 37.8164 36.4454 37.8795 36.5463 37.9174C36.6347 37.9426 36.7546 37.93 36.906 37.8795C37.07 37.8291 37.2341 37.7597 37.3982 37.6713C37.5748 37.5704 37.7452 37.4631 37.9093 37.3495C38.0859 37.2359 38.2311 37.1287 38.3446 37.0277C38.4835 36.9268 38.6538 36.7564 38.8557 36.5166C39.0703 36.2768 39.3227 35.9677 39.6129 35.5891C39.7265 35.4503 39.8464 35.3051 39.9726 35.1537C40.0988 34.9896 40.2187 34.8445 40.3322 34.7183C40.4584 34.5921 40.572 34.4848 40.673 34.3965C40.7739 34.3082 40.8496 34.264 40.9001 34.264C40.938 34.264 40.9822 34.264 41.0326 34.264C41.0957 34.264 41.1462 34.2829 41.1841 34.3208C41.2345 34.346 41.2661 34.3965 41.2787 34.4722C41.304 34.5353 41.2913 34.6363 41.2409 34.7751C41.1778 34.9518 41.0389 35.1095 40.8244 35.2483C40.6099 35.3872 40.3827 35.5701 40.1429 35.7973C39.6886 36.2264 39.4552 36.5923 39.4425 36.8952C39.4425 37.1855 39.5056 37.4315 39.6318 37.6335C39.7707 37.8228 39.9663 37.9553 40.2187 38.031C40.5594 38.1319 40.8938 38.1572 41.2219 38.1067C41.55 38.0436 41.8718 37.9426 42.1873 37.8038C42.5154 37.6524 42.8246 37.4757 43.1149 37.2738C43.4051 37.0719 43.6828 36.8763 43.9478 36.687C44.0487 36.6113 44.1118 36.6428 44.1371 36.7816ZM52.5143 36.7438C52.5648 36.7185 52.6089 36.6933 52.6468 36.6681C52.6973 36.6302 52.7351 36.6491 52.7604 36.7248C52.7982 36.8132 52.7667 36.8952 52.6657 36.9709C52.2114 37.3117 51.7508 37.6208 51.2839 37.8985C50.8295 38.1635 50.3879 38.3843 49.9588 38.561C49.5423 38.7503 49.1574 38.8891 48.8041 38.9775C48.4507 39.0658 48.1542 39.1037 47.9144 39.091C47.763 39.0784 47.6052 39.0406 47.4412 38.9775C47.2897 38.9144 47.1509 38.8197 47.0247 38.6935C46.9111 38.5673 46.8165 38.4033 46.7408 38.2013C46.6651 37.9994 46.6335 37.7533 46.6461 37.4631C46.4947 37.6272 46.3117 37.7912 46.0972 37.9553C45.8826 38.1193 45.6555 38.2644 45.4157 38.3906C45.1759 38.5168 44.9425 38.6178 44.7153 38.6935C44.4882 38.7692 44.2862 38.8071 44.1096 38.8071C43.9076 38.8071 43.7184 38.7377 43.5417 38.5989C43.365 38.4727 43.2767 38.2644 43.2767 37.9742C43.264 37.5451 43.4533 37.1224 43.8446 36.7059C44.0212 36.5166 44.2925 36.2895 44.6585 36.0245C45.0245 35.7468 45.4914 35.425 46.0593 35.059C46.135 35.059 46.1855 35.0906 46.2107 35.1537C46.236 35.2042 46.2297 35.2673 46.1918 35.343C46.0278 35.4439 45.8637 35.5512 45.6996 35.6648C45.5356 35.7784 45.3652 35.9046 45.1885 36.0434C44.8731 36.3084 44.6459 36.5608 44.5071 36.8006C44.3556 37.0277 44.2673 37.2486 44.2421 37.4631C44.2042 37.8417 44.3241 38.0625 44.6017 38.1256C44.8289 38.1761 45.0876 38.1193 45.3778 37.9553C45.6807 37.7786 46.0214 37.5388 46.4 37.2359C46.5389 37.1224 46.7092 36.952 46.9111 36.7248C47.1257 36.4977 47.3781 36.1885 47.6683 35.7973C48.11 35.2168 48.4318 34.9265 48.6337 34.9265C48.7978 34.9265 48.8861 34.9959 48.8987 35.1348C48.8987 35.2736 48.659 35.5638 48.1794 36.0055C47.7251 36.4346 47.4979 36.8006 47.4979 37.1034C47.4979 37.5325 47.5674 37.8417 47.7062 38.031C47.8576 38.2203 48.0595 38.3591 48.3119 38.4474C48.6653 38.561 49.0565 38.5484 49.4856 38.4096C49.9272 38.2708 50.4131 38.0625 50.9431 37.7849C51.1577 37.6713 51.4101 37.5325 51.7003 37.3684C51.9906 37.2044 52.2619 36.9962 52.5143 36.7438ZM60.9407 36.687C60.9407 36.7248 60.9344 36.7627 60.9218 36.8006C60.9092 36.8384 60.8839 36.87 60.8461 36.8952C60.3918 37.1981 59.9627 37.4568 59.5589 37.6713C59.1677 37.8732 58.7891 38.0499 58.4231 38.2013C58.0571 38.3402 57.7038 38.4664 57.363 38.5799C57.0223 38.6935 56.6753 38.8134 56.3219 38.9396C55.4512 40.0754 53.9873 41.432 51.9303 43.0094C49.1287 45.1422 46.9076 46.2212 45.2671 46.2464C44.8506 46.2464 44.5036 46.1328 44.226 45.9057C43.9357 45.6911 43.7906 45.4072 43.7906 45.0538C43.7906 43.5521 45.4311 42.1765 48.7122 40.9272C49.4063 40.6496 50.6683 40.2331 52.4982 39.6779C54.2775 39.1478 55.3187 38.8197 55.6215 38.6935C55.7099 38.6052 55.7793 38.4853 55.8298 38.3339C55.8929 38.1824 55.9244 38.031 55.9244 37.8795C55.937 37.7281 55.9118 37.583 55.8487 37.4442C55.7856 37.3053 55.6783 37.1981 55.5269 37.1224C55.4259 37.1476 55.306 37.1918 55.1672 37.2549C55.041 37.318 54.9148 37.3748 54.7886 37.4252C54.6624 37.4631 54.5552 37.4757 54.4668 37.4631C54.3785 37.4505 54.328 37.3748 54.3154 37.2359C54.3154 37.1097 54.3596 37.0151 54.4479 36.952C54.5362 36.8889 54.6435 36.8447 54.7697 36.8195C54.9085 36.7816 55.0536 36.7627 55.2051 36.7627C55.3565 36.7627 55.489 36.769 55.6026 36.7816C55.7667 36.7312 55.9496 36.6681 56.1516 36.5923C56.3661 36.504 56.568 36.403 56.7573 36.2895C56.9592 36.1759 57.1422 36.056 57.3063 35.9298C57.4703 35.791 57.5902 35.6459 57.6659 35.4944C57.8678 35.1285 57.8868 34.8256 57.7227 34.5858C57.5586 34.346 57.2936 34.2261 56.9277 34.2261C56.7888 34.2261 56.6374 34.264 56.4734 34.3397C56.3219 34.4028 56.1579 34.4912 55.9812 34.6047C55.8045 34.7057 55.6215 34.8256 55.4322 34.9644C55.2556 35.0906 55.0726 35.2168 54.8833 35.343C54.7318 35.4439 54.5552 35.5638 54.3532 35.7026C54.164 35.8415 53.9683 35.9866 53.7664 36.138C53.5771 36.2768 53.3942 36.4157 53.2175 36.5545C53.0408 36.6933 52.902 36.8069 52.801 36.8952C52.7632 36.9331 52.7316 36.9583 52.7064 36.9709C52.6433 36.9962 52.5991 36.9709 52.5739 36.8952C52.536 36.8321 52.5423 36.7753 52.5928 36.7248C52.618 36.6996 52.6433 36.6807 52.6685 36.6681C52.9588 36.4409 53.3184 36.1506 53.7475 35.7973C54.1766 35.4313 54.593 35.1158 54.9969 34.8508C55.4638 34.5353 55.9181 34.2577 56.3598 34.0179C56.8015 33.7781 57.1674 33.633 57.4577 33.5825C57.7101 33.5321 57.9435 33.5258 58.1581 33.5636C58.3726 33.5889 58.5493 33.6835 58.6881 33.8476C58.8017 33.999 58.8711 34.163 58.8963 34.3397C58.9216 34.5038 58.909 34.6741 58.8585 34.8508C58.808 35.0149 58.726 35.1789 58.6124 35.343C58.5114 35.507 58.3915 35.6522 58.2527 35.7784C58.1265 35.8919 57.9688 36.0055 57.7795 36.1191C57.6028 36.2201 57.4198 36.321 57.2305 36.422C57.0412 36.5229 56.8519 36.6176 56.6627 36.7059C56.486 36.7943 56.3345 36.8763 56.2083 36.952C56.3724 37.0277 56.486 37.1161 56.5491 37.217C56.6122 37.318 56.65 37.4315 56.6627 37.5577C56.6753 37.6713 56.669 37.7975 56.6437 37.9363C56.6185 38.0752 56.5932 38.2266 56.568 38.3906C56.7825 38.3149 57.016 38.2455 57.2684 38.1824C57.5208 38.1193 57.811 38.031 58.1392 37.9174C58.4799 37.7912 58.8585 37.6272 59.2749 37.4252C59.6914 37.2107 60.1772 36.9331 60.7325 36.5923C60.7704 36.5797 60.8082 36.5734 60.8461 36.5734C60.8966 36.5734 60.9281 36.6113 60.9407 36.687ZM55.2997 39.2425C54.694 39.4065 54.0945 39.5706 53.5014 39.7346C52.9209 39.8987 52.3278 40.0754 51.722 40.2647C50.6998 40.5549 49.7912 40.8452 48.9962 41.1354C48.1885 41.4383 47.5008 41.7412 46.9329 42.044C45.3428 42.8643 44.5351 43.7225 44.5099 44.6185C44.5099 44.9466 44.6866 45.2242 45.0399 45.4514C45.3302 45.6407 45.6646 45.7416 46.0432 45.7542C46.4344 45.7542 47.0086 45.6028 47.7658 45.2999C48.5356 44.9844 49.2486 44.5995 49.9048 44.1452C52.5045 42.2396 54.3028 40.6054 55.2997 39.2425ZM69.4843 36.7438C69.5095 36.8447 69.4843 36.9141 69.4086 36.952C68.5378 37.4946 67.6986 37.9616 66.891 38.3528C66.0959 38.7314 65.4018 38.9207 64.8087 38.9207C64.1272 38.9207 63.7676 38.4096 63.7297 37.3874C63.6161 37.4505 63.4395 37.5514 63.1997 37.6902C62.9725 37.8164 62.7265 37.949 62.4614 38.0878C62.2091 38.2266 61.9503 38.3465 61.6853 38.4474C61.4329 38.561 61.2247 38.6241 61.0607 38.6367C60.8209 38.662 60.6064 38.6304 60.4171 38.5421C60.2151 38.4537 60.0889 38.2708 60.0385 37.9931C60.0385 37.4379 60.5559 36.7564 61.5907 35.9487C62.1207 35.5575 62.6255 35.261 63.105 35.059C63.5846 34.8571 63.9884 34.7562 64.3165 34.7562C64.7835 34.7436 65.0232 34.8571 65.0359 35.0969C65.0359 35.3241 64.9538 35.507 64.7898 35.6459C64.6636 35.7594 64.5058 35.8162 64.3165 35.8162C64.3039 35.8036 64.2913 35.7784 64.2787 35.7405C64.2661 35.7153 64.2534 35.69 64.2408 35.6648C64.2282 35.6269 64.2093 35.5828 64.184 35.5323C64.1083 35.343 63.9569 35.242 63.7297 35.2294C63.2376 35.2294 62.6634 35.507 62.0071 36.0623C61.3762 36.5923 61.0607 37.0719 61.0607 37.501C61.0607 37.6019 61.0796 37.6966 61.1174 37.7849C61.1553 37.8606 61.2247 37.9048 61.3257 37.9174C61.679 37.9426 62.0261 37.8859 62.3668 37.747C62.7201 37.6082 63.0924 37.4063 63.4836 37.1413C63.6477 37.0277 63.9316 36.7501 64.3355 36.3084C64.5879 36.0055 64.8087 35.8604 64.998 35.873C65.1494 35.873 65.2252 35.9361 65.2252 36.0623C65.2252 36.1759 65.1179 36.422 64.9034 36.8006C64.7014 37.1539 64.6005 37.4126 64.6005 37.5767C64.6005 38.0436 64.8276 38.2834 65.2819 38.296C65.6858 38.296 66.0959 38.2329 66.5124 38.1067C66.9288 37.9805 67.32 37.8291 67.686 37.6524C68.052 37.4757 68.3738 37.3053 68.6514 37.1413C68.9417 36.9646 69.1499 36.8321 69.2761 36.7438C69.3139 36.7059 69.3518 36.6807 69.3897 36.6681C69.4275 36.6428 69.4591 36.6681 69.4843 36.7438ZM81.4586 25.8782C81.4586 26.4209 80.8654 27.38 79.6792 28.7555C77.5212 31.2794 75.3443 33.1787 73.1485 34.4533C72.7699 34.7057 72.3471 34.9518 71.8802 35.1916C71.4133 35.4313 70.8706 35.69 70.2523 35.9677C70.1008 36.1443 69.9557 36.321 69.8169 36.4977C69.7033 36.6491 69.5961 36.8258 69.4951 37.0277C69.3941 37.217 69.331 37.4 69.3058 37.5767C69.2806 37.8038 69.3184 37.9805 69.4194 38.1067C69.5077 38.2329 69.6465 38.3086 69.8358 38.3339C70.0125 38.3465 70.2207 38.3023 70.4605 38.2013C70.7129 38.1004 70.9842 37.93 71.2745 37.6902C71.4385 37.5767 71.6657 37.3937 71.9559 37.1413C72.2588 36.8889 72.4986 36.586 72.6753 36.2327C72.751 36.0812 72.8141 35.9298 72.8646 35.7784C72.9276 35.6269 72.9907 35.4944 73.0538 35.3808C73.1296 35.2547 73.2053 35.1537 73.281 35.078C73.3693 35.0023 73.4766 34.9644 73.6028 34.9644C73.7795 34.9644 73.8867 35.059 73.9246 35.2483C73.9625 35.4376 73.8741 35.6396 73.6596 35.8541C73.5334 35.9803 73.4261 36.0686 73.3378 36.1191C73.2495 36.157 73.18 36.2137 73.1296 36.2895C73.0791 36.3526 73.0475 36.4409 73.0349 36.5545C73.0349 36.6554 73.0349 36.7943 73.0349 36.9709C73.0349 37.0593 73.0475 37.1602 73.0728 37.2738C73.1106 37.3748 73.1611 37.4694 73.2242 37.5577C73.2873 37.6461 73.3756 37.7218 73.4892 37.7849C73.6028 37.8354 73.7479 37.848 73.9246 37.8228C74.1013 37.8101 74.4168 37.7218 74.8711 37.5577C75.3254 37.3937 75.8743 37.0466 76.518 36.5166L76.6505 36.7816C76.499 36.8952 76.2719 37.0466 75.969 37.2359C75.6787 37.4252 75.4074 37.5893 75.155 37.7281C74.7133 37.9679 74.3411 38.1256 74.0382 38.2013C73.7353 38.2771 73.4766 38.2834 73.2621 38.2203C72.9718 38.1446 72.7951 37.9742 72.732 37.7092C72.6689 37.4315 72.6563 37.1287 72.6942 36.8006C72.6185 36.9268 72.4923 37.0845 72.3156 37.2738C72.1389 37.4631 71.9433 37.6524 71.7288 37.8417C71.5142 38.031 71.2871 38.2077 71.0473 38.3717C70.8202 38.5484 70.6119 38.6746 70.4226 38.7503C70.1324 38.8765 69.8674 38.9648 69.6276 39.0153C69.3752 39.0658 69.1354 39.0216 68.9083 38.8828C68.8326 38.8323 68.7568 38.7692 68.6811 38.6935C68.6054 38.6178 68.5549 38.5105 68.5297 38.3717C68.5045 38.2455 68.5171 38.0878 68.5675 37.8985C68.618 37.6966 68.7253 37.4568 68.8894 37.1792C69.2301 36.5986 69.6465 35.9677 70.1387 35.2862C70.6435 34.5921 71.1861 33.8854 71.7666 33.1661C72.3471 32.4342 72.9466 31.7022 73.5649 30.9703C74.1959 30.2383 74.808 29.5379 75.4011 28.8691C76.5747 27.544 77.5717 26.5786 78.392 25.9729C79.2123 25.3545 79.8369 25.0138 80.266 24.9507C80.7455 24.8876 81.061 24.9507 81.2125 25.14C81.3765 25.3293 81.4586 25.5754 81.4586 25.8782ZM80.6067 26.0864C80.6067 25.7205 80.3985 25.5375 79.9821 25.5375C79.4646 25.5375 78.6885 26.0044 77.6537 26.9383C77.0606 27.5566 76.1078 28.623 74.7954 30.1374C74.1265 30.9324 73.5649 31.6013 73.1106 32.1439C72.6563 32.6739 72.303 33.0967 72.0506 33.4122C71.836 33.6646 71.6404 33.9107 71.4638 34.1504C71.2997 34.3902 71.1483 34.6047 71.0095 34.794C70.858 35.0212 70.7192 35.2294 70.593 35.4187C70.8833 35.3682 71.3186 35.1852 71.8991 34.8697C72.4797 34.5416 73.1864 34.0684 74.0193 33.45C74.8648 32.8317 75.6472 32.207 76.3665 31.576C77.0985 30.945 77.7862 30.2951 78.4298 29.6263C79.8685 28.074 80.5941 26.8941 80.6067 26.0864ZM81.3788 36.7059C81.3915 36.7943 81.3725 36.8637 81.3221 36.9141C80.2746 37.5956 79.366 38.0941 78.5962 38.4096C77.8264 38.7377 77.0882 38.908 76.3815 38.9207C75.5107 38.9207 75.069 38.4727 75.0564 37.5767C75.0564 37.0214 75.3782 36.3715 76.0218 35.6269C76.6906 34.9202 77.2711 34.5606 77.7633 34.5479C77.8769 34.5479 78.0031 34.5795 78.1419 34.6426C78.2807 34.6931 78.3627 34.8508 78.388 35.1158C78.388 35.2294 78.3564 35.343 78.2933 35.4566C78.2302 35.5701 78.1419 35.69 78.0283 35.8162C77.9274 35.9298 77.8075 36.0497 77.6687 36.1759C77.5425 36.2895 77.4163 36.3967 77.2901 36.4977C77.1008 36.6744 76.8925 36.8447 76.6654 37.0088C76.4382 37.1602 76.1795 37.3117 75.8893 37.4631C75.864 37.6272 75.883 37.747 75.9461 37.8228C76.0092 37.8859 76.1101 37.9679 76.2489 38.0688C76.4635 38.2077 76.6969 38.2771 76.9493 38.2771C77.3658 38.2771 77.9337 38.1698 78.653 37.9553C79.3849 37.7281 80.2305 37.2927 81.1896 36.6491C81.2274 36.6113 81.2653 36.5986 81.3031 36.6113C81.3536 36.6113 81.3788 36.6428 81.3788 36.7059ZM77.5551 35.3241C77.5551 35.261 77.4731 35.2105 77.309 35.1726C77.0945 35.1726 76.8105 35.3682 76.4572 35.7594C76.2805 35.9361 76.148 36.1254 76.0596 36.3273C75.9713 36.5292 75.9271 36.6996 75.9271 36.8384C75.9524 36.8384 76.0344 36.8195 76.1732 36.7816C76.312 36.7312 76.4256 36.6744 76.514 36.6113C76.8421 36.422 77.0882 36.2074 77.2522 35.9677C77.4289 35.7153 77.5298 35.5007 77.5551 35.3241ZM94.7035 36.9331C94.7161 36.9709 94.7098 37.0151 94.6845 37.0656C94.6719 37.1034 94.6467 37.1224 94.6088 37.1224C93.9778 37.4505 93.4415 37.7218 92.9998 37.9363C92.5581 38.1382 92.1732 38.296 91.8451 38.4096C91.5296 38.5358 91.2457 38.6241 90.9933 38.6746C90.7535 38.7377 90.5137 38.7692 90.274 38.7692C89.5546 38.7945 89.1823 38.4411 89.1571 37.7092C89.1571 37.4568 89.1887 37.2107 89.2518 36.9709C89.3149 36.7312 89.4158 36.4851 89.5546 36.2327C89.4663 36.2327 89.3338 36.2768 89.1571 36.3652C88.9931 36.4535 88.829 36.5419 88.6649 36.6302C88.0718 36.8952 87.5292 37.1981 87.037 37.5388C86.5575 37.8669 86.1473 38.1319 85.8066 38.3339C85.2135 38.662 84.8538 38.826 84.7276 38.826C84.4752 38.826 84.349 38.7124 84.349 38.4853C84.349 38.2834 84.5194 37.9553 84.8601 37.501C85.0746 37.2486 85.2829 37.0025 85.4848 36.7627C85.6867 36.5103 85.9012 36.2516 86.1284 35.9866C84.6771 36.8952 83.5666 37.5767 82.7968 38.031C82.027 38.4853 81.6042 38.7188 81.5285 38.7314C81.3266 38.7314 81.2256 38.6493 81.2256 38.4853C81.3014 38.4096 81.3897 38.3086 81.4907 38.1824C81.579 38.0815 81.6926 37.9616 81.8314 37.8228C81.9576 37.6713 82.109 37.501 82.2857 37.3117C82.6517 36.9204 82.9356 36.5923 83.1375 36.3273C83.3394 36.0497 83.4215 35.8604 83.3836 35.7594C83.371 35.709 83.3268 35.69 83.2511 35.7026C83.1754 35.7026 83.1249 35.7153 83.0997 35.7405C83.0618 35.7531 83.005 35.7721 82.9293 35.7973C82.8536 35.8099 82.7779 35.8288 82.7021 35.8541C82.6264 35.8667 82.557 35.873 82.4939 35.873C82.4308 35.8604 82.393 35.8288 82.3803 35.7784C82.3551 35.7279 82.393 35.6585 82.4939 35.5701C82.5949 35.4818 82.7211 35.3935 82.8725 35.3051C83.0239 35.2042 83.1754 35.1221 83.3268 35.059C83.4909 34.9833 83.6171 34.9392 83.7054 34.9265C83.9199 34.9265 84.0903 34.9707 84.2165 35.059C84.3553 35.1474 84.3869 35.3367 84.3112 35.6269C84.2859 35.8288 84.1597 36.0749 83.9326 36.3652C83.7054 36.6554 83.4656 36.952 83.2132 37.2549C84.084 36.7248 84.9737 36.1948 85.8823 35.6648C86.3366 35.3998 86.671 35.2673 86.8856 35.2673C87.2137 35.2673 87.3777 35.3872 87.3777 35.6269C87.3777 35.8036 87.1758 36.1191 86.772 36.5734C86.5322 36.8384 86.3366 37.0656 86.1852 37.2549C86.0337 37.4442 85.9202 37.6082 85.8444 37.747C87.6995 36.6239 88.8795 35.9424 89.3843 35.7026C90.0531 35.3745 90.5453 35.2042 90.8608 35.1916C90.9491 35.1916 90.9933 35.2673 90.9933 35.4187C90.9554 35.4818 90.9112 35.5512 90.8608 35.6269C90.8103 35.69 90.7535 35.7721 90.6904 35.873C90.6399 35.974 90.5705 36.0939 90.4822 36.2327C90.1541 36.7501 89.99 37.1728 89.99 37.501C89.99 37.9931 90.2235 38.2455 90.6904 38.2581C90.8797 38.2581 91.0627 38.2455 91.2394 38.2203C91.4287 38.1824 91.6558 38.113 91.9208 38.0121C92.1858 37.9111 92.5203 37.7723 92.9241 37.5956C93.3279 37.4063 93.8516 37.1539 94.4952 36.8384C94.5205 36.8258 94.552 36.8195 94.5899 36.8195C94.6404 36.8195 94.6782 36.8574 94.7035 36.9331ZM102.907 36.7438C102.932 36.8447 102.907 36.9141 102.831 36.952C101.96 37.4946 101.121 37.9616 100.313 38.3528C99.5184 38.7314 98.8243 38.9207 98.2311 38.9207C97.5497 38.9207 97.19 38.4096 97.1522 37.3874C97.0386 37.4505 96.8619 37.5514 96.6221 37.6902C96.395 37.8164 96.1489 37.949 95.8839 38.0878C95.6315 38.2266 95.3728 38.3465 95.1078 38.4474C94.8554 38.561 94.6472 38.6241 94.4831 38.6367C94.2433 38.662 94.0288 38.6304 93.8395 38.5421C93.6376 38.4537 93.5114 38.2708 93.4609 37.9931C93.4609 37.4379 93.9783 36.7564 95.0131 35.9487C95.5432 35.5575 96.0479 35.261 96.5275 35.059C97.007 34.8571 97.4109 34.7562 97.739 34.7562C98.2059 34.7436 98.4457 34.8571 98.4583 35.0969C98.4583 35.3241 98.3763 35.507 98.2122 35.6459C98.086 35.7594 97.9283 35.8162 97.739 35.8162C97.7264 35.8036 97.7137 35.7784 97.7011 35.7405C97.6885 35.7153 97.6759 35.69 97.6633 35.6648C97.6506 35.6269 97.6317 35.5828 97.6065 35.5323C97.5308 35.343 97.3793 35.242 97.1522 35.2294C96.66 35.2294 96.0858 35.507 95.4296 36.0623C94.7986 36.5923 94.4831 37.0719 94.4831 37.501C94.4831 37.6019 94.502 37.6966 94.5399 37.7849C94.5778 37.8606 94.6472 37.9048 94.7481 37.9174C95.1015 37.9426 95.4485 37.8859 95.7892 37.747C96.1426 37.6082 96.5149 37.4063 96.9061 37.1413C97.0701 37.0277 97.3541 36.7501 97.7579 36.3084C98.0103 36.0055 98.2311 35.8604 98.4204 35.873C98.5719 35.873 98.6476 35.9361 98.6476 36.0623C98.6476 36.1759 98.5403 36.422 98.3258 36.8006C98.1239 37.1539 98.0229 37.4126 98.0229 37.5767C98.0229 38.0436 98.2501 38.2834 98.7044 38.296C99.1082 38.296 99.5184 38.2329 99.9348 38.1067C100.351 37.9805 100.742 37.8291 101.108 37.6524C101.474 37.4757 101.796 37.3053 102.074 37.1413C102.364 36.9646 102.572 36.8321 102.699 36.7438C102.736 36.7059 102.774 36.6807 102.812 36.6681C102.85 36.6428 102.882 36.6681 102.907 36.7438Z" fill="white"/>
<path d="M0.638095 56.082C1.01553 54.4105 1.57091 50.6577 2.30421 44.8236H2.57921C4.36934 48.4254 5.88449 51.3533 7.12464 53.6071C8.50498 51.1592 10.101 48.2313 11.9127 44.8236H12.123C12.4034 47.5519 12.8293 51.3047 13.4009 56.082C13.1313 56.0281 12.8887 56.0012 12.673 56.0012C12.4573 56.0012 12.2147 56.0281 11.9451 56.082C11.6647 52.0596 11.3843 49.369 11.1039 48.0102C8.99026 51.5474 7.60992 54.2326 6.96288 56.0659H6.73642C6.50995 55.2894 5.99772 54.1625 5.1997 52.6851L2.67626 48.0264C2.16942 51.6067 1.90521 54.2919 1.88364 56.082C1.66796 56.0281 1.46846 56.0012 1.28513 56.0012C1.1018 56.0012 0.886126 56.0281 0.638095 56.082ZM23.6564 47.7676C23.1604 48.2313 21.8825 49.5631 19.8227 51.7631C17.6983 54.0277 16.3934 55.4673 15.9082 56.082H15.6979C15.7626 55.0683 15.7949 53.6772 15.7949 51.9086V50.566C15.7949 47.8593 15.7626 46.0152 15.6979 45.0339C15.9136 45.077 16.1562 45.0986 16.4258 45.0986C16.7062 45.0986 16.9596 45.077 17.1861 45.0339C17.1321 45.7456 17.1052 46.8024 17.1052 48.2044V50.566C17.1052 50.8356 17.1052 51.2508 17.1052 51.8116C17.0944 52.3831 17.089 52.8037 17.089 53.0733C17.089 53.2027 17.0944 53.2944 17.1052 53.3483C17.5905 52.9385 18.8468 51.6498 20.8742 49.4823C22.9663 47.2608 24.3035 45.778 24.8858 45.0339H25.0799C25.026 45.7456 24.999 46.8024 24.999 48.2044V50.566C24.999 50.9003 24.999 51.3641 24.999 51.9572C24.9882 52.5503 24.9829 52.9763 24.9829 53.2351C24.9829 54.486 25.0152 55.435 25.0799 56.082C24.8103 56.0281 24.5677 56.0012 24.352 56.0012C24.1363 56.0012 23.8829 56.0281 23.5917 56.082C23.6564 55.0683 23.6888 53.6772 23.6888 51.9086V50.566C23.6888 49.0347 23.678 48.1019 23.6564 47.7676ZM27.9754 56.082C28.0617 54.7772 28.1048 52.7929 28.1048 50.1293C28.1048 47.8 28.0671 46.1015 27.9916 45.0339C28.218 45.077 28.4715 45.0986 28.7518 45.0986C29.0322 45.0986 29.2803 45.077 29.4959 45.0339C29.4312 45.5623 29.3989 46.9319 29.3989 49.1426V49.7734C30.143 49.7842 31.2591 49.7896 32.7473 49.7896C34.2247 49.7896 35.3354 49.7842 36.0795 49.7734V49.1426C36.0795 47.6005 36.031 46.2309 35.934 45.0339C36.1604 45.077 36.4192 45.0986 36.7104 45.0986C37.0016 45.0986 37.255 45.077 37.4707 45.0339C37.3952 46.576 37.3574 48.2745 37.3574 50.1293C37.3574 51.8008 37.4006 53.7851 37.4868 56.082C37.2604 56.0389 36.9962 56.0173 36.6942 56.0173C36.4138 56.0173 36.1658 56.0389 35.9501 56.082C36.0364 54.7233 36.0795 53.1111 36.0795 51.2454V50.4852C34.9688 50.4528 33.858 50.4366 32.7473 50.4366C31.6366 50.4366 30.5204 50.4528 29.3989 50.4852V51.2454C29.3989 53.8983 29.4258 55.5105 29.4798 56.082C29.2533 56.0389 28.9945 56.0173 28.7033 56.0173C28.4337 56.0173 28.1911 56.0389 27.9754 56.082ZM40.35 56.082C40.4363 54.7556 40.4794 52.8738 40.4794 50.4366C40.4794 48.2367 40.4416 46.4358 40.3662 45.0339C40.9808 45.0662 41.6387 45.0824 42.3396 45.0824C43.0621 45.0824 44.2969 45.0662 46.0439 45.0339C46.0439 45.077 46.0439 45.1525 46.0439 45.2603C46.0331 45.3682 46.0277 45.4491 46.0277 45.503C46.0277 45.5461 46.0331 45.6216 46.0439 45.7294C46.0439 45.8373 46.0439 45.9182 46.0439 45.9721C44.8145 45.8642 43.5366 45.8103 42.2102 45.8103H41.8382C41.8166 47.0936 41.8058 48.2313 41.8058 49.2234V49.8705H42.097C43.0891 49.8705 44.2592 49.8273 45.6072 49.7411C45.5856 49.9567 45.5748 50.1239 45.5748 50.2425C45.5748 50.3504 45.5856 50.5013 45.6072 50.6954C45.1327 50.6092 44.1136 50.566 42.5499 50.566H41.7896V51.3425C41.7896 51.817 41.8004 53.1326 41.822 55.2894H42.2264C43.1969 55.2894 44.491 55.2301 46.1086 55.1115C46.1086 55.1654 46.1086 55.2463 46.1086 55.3541C46.0978 55.462 46.0924 55.5428 46.0924 55.5968C46.0924 55.6507 46.0978 55.7316 46.1086 55.8394C46.1086 55.9472 46.1086 56.0281 46.1086 56.082C45.5263 56.0605 44.6043 56.0497 43.3425 56.0497C42.0377 56.0497 41.0402 56.0605 40.35 56.082ZM48.3409 56.082C48.4056 54.3027 48.4379 52.464 48.4379 50.566C48.4379 48.5926 48.4056 46.7485 48.3409 45.0339C48.6536 45.0662 48.9178 45.0824 49.1335 45.0824C49.3923 45.0824 49.8183 45.0662 50.4114 45.0339C51.0153 44.9907 51.4898 44.9692 51.8349 44.9692C52.9996 44.9692 53.8946 45.2172 54.5201 45.7133C55.1456 46.2093 55.4583 46.9049 55.4583 47.8C55.4583 48.8352 55.0755 49.6386 54.3098 50.2102C53.5441 50.7709 52.4334 51.0513 50.9776 51.0513C50.5031 51.0513 50.0933 51.0405 49.7482 51.019V53.3321C49.7482 54.1841 49.7752 55.0953 49.8291 56.0659C49.5271 56.0227 49.3007 56.0012 49.1497 56.0012C48.9124 56.0012 48.6428 56.0281 48.3409 56.082ZM49.732 50.4366C50.0555 50.4582 50.2982 50.469 50.4599 50.469C52.7785 50.469 53.9378 49.6278 53.9378 47.9455C53.9378 47.0936 53.6897 46.4897 53.1937 46.1338C52.6976 45.778 51.905 45.6 50.8158 45.6C50.5031 45.6 50.1688 45.6162 49.8129 45.6486C49.759 46.8132 49.732 47.924 49.732 48.9808V50.4366ZM55.7495 56.0659C57.6582 51.8925 59.3243 48.145 60.7478 44.8236H61.0552C62.5649 48.598 64.1286 52.3508 65.7462 56.082C65.455 56.0281 65.1908 56.0012 64.9536 56.0012C64.7055 56.0012 64.4305 56.0281 64.1286 56.082C63.7296 54.8634 63.2713 53.6395 62.7536 52.4101L62.4786 51.7631C62.0365 51.7415 61.3733 51.7307 60.489 51.7307C59.5939 51.7307 58.9253 51.7415 58.4832 51.7631C57.9763 52.9169 57.421 54.3566 56.8171 56.082C56.6337 56.0281 56.4558 56.0012 56.2833 56.0012C56.1646 56.0012 55.9867 56.0227 55.7495 56.0659ZM58.7582 51.0513C58.8229 51.0513 58.99 51.0513 59.2596 51.0513C59.5292 51.0621 59.7719 51.0675 59.9876 51.0675C60.1493 51.0675 60.4728 51.0621 60.9581 51.0513C61.4434 51.0513 61.8424 51.0513 62.1551 51.0513L61.8801 50.3396C61.7399 49.9729 61.2762 48.873 60.489 47.0397L58.7582 51.0513ZM71.4401 45.0339C73.0685 49.3043 74.5351 52.987 75.84 56.082C75.5919 56.0389 75.3277 56.0173 75.0473 56.0173C74.7454 56.0173 74.4812 56.0389 74.2547 56.082C73.1655 53.0625 71.947 49.9136 70.599 46.6353C69.2725 49.8597 68.0755 53.0086 67.0079 56.082C66.8461 56.0389 66.6682 56.0173 66.4741 56.0173C66.2692 56.0173 66.0859 56.0389 65.9241 56.082C67.4123 52.5449 68.8951 48.8622 70.3725 45.0339C70.5666 45.0878 70.7445 45.1148 70.9063 45.1148C71.0681 45.1148 71.246 45.0878 71.4401 45.0339ZM78.7354 47.7191V49.7896C79.1884 49.7357 79.6251 49.7087 80.0457 49.7087C81.4692 49.7087 82.553 49.9891 83.2971 50.5499C84.0412 51.0998 84.4132 51.8871 84.4132 52.9116C84.4132 53.936 84.0412 54.7286 83.2971 55.2894C82.553 55.8394 81.4692 56.1144 80.0457 56.1144C79.7761 56.1144 79.431 56.1036 79.0104 56.082C78.5899 56.0605 78.2987 56.0497 78.1369 56.0497C77.9536 56.0497 77.6678 56.0712 77.2796 56.1144C77.3875 55.0791 77.4414 53.5909 77.4414 51.6498C77.4414 48.6088 77.409 46.4034 77.3443 45.0339C77.7218 45.0878 77.9644 45.1148 78.0722 45.1148C78.2987 45.1148 78.5467 45.0878 78.8163 45.0339C78.7624 45.7672 78.7354 46.6623 78.7354 47.7191ZM78.7193 50.566C78.6977 51.2131 78.6869 51.7469 78.6869 52.1675C78.6869 53.44 78.7193 54.513 78.784 55.3865C79.1938 55.4835 79.5604 55.532 79.8839 55.532C80.8329 55.532 81.577 55.3002 82.1162 54.8365C82.6662 54.3728 82.9412 53.7311 82.9412 52.9116C82.9412 52.092 82.6662 51.4503 82.1162 50.9866C81.577 50.5229 80.8329 50.2911 79.8839 50.2911C79.334 50.2911 78.9457 50.3827 78.7193 50.566ZM86.9366 56.082C87.0229 54.7772 87.066 52.7929 87.066 50.1293C87.066 47.8 87.0283 46.1015 86.9528 45.0339C87.1793 45.077 87.4327 45.0986 87.7131 45.0986C87.9935 45.0986 88.2415 45.077 88.4572 45.0339C88.3925 45.5623 88.3601 46.9319 88.3601 49.1426V49.7734C89.1042 49.7842 90.2203 49.7896 91.7085 49.7896C93.1859 49.7896 94.2967 49.7842 95.0408 49.7734V49.1426C95.0408 47.6005 94.9922 46.2309 94.8952 45.0339C95.1217 45.077 95.3805 45.0986 95.6716 45.0986C95.9628 45.0986 96.2162 45.077 96.4319 45.0339C96.3564 46.576 96.3187 48.2745 96.3187 50.1293C96.3187 51.8008 96.3618 53.7851 96.4481 56.082C96.2216 56.0389 95.9574 56.0173 95.6555 56.0173C95.3751 56.0173 95.127 56.0389 94.9114 56.082C94.9976 54.7233 95.0408 53.1111 95.0408 51.2454V50.4852C93.93 50.4528 92.8193 50.4366 91.7085 50.4366C90.5978 50.4366 89.4816 50.4528 88.3601 50.4852V51.2454C88.3601 53.8983 88.3871 55.5105 88.441 56.082C88.2145 56.0389 87.9557 56.0173 87.6646 56.0173C87.395 56.0173 87.1523 56.0389 86.9366 56.082ZM100.767 47.7191V49.7896C101.22 49.7357 101.657 49.7087 102.077 49.7087C103.501 49.7087 104.585 49.9891 105.329 50.5499C106.073 51.0998 106.445 51.8871 106.445 52.9116C106.445 53.936 106.073 54.7286 105.329 55.2894C104.585 55.8394 103.501 56.1144 102.077 56.1144C101.808 56.1144 101.463 56.1036 101.042 56.082C100.621 56.0605 100.33 56.0497 100.169 56.0497C99.9852 56.0497 99.6994 56.0712 99.3112 56.1144C99.4191 55.0791 99.473 53.5909 99.473 51.6498C99.473 48.6088 99.4406 46.4034 99.3759 45.0339C99.7534 45.0878 99.996 45.1148 100.104 45.1148C100.33 45.1148 100.578 45.0878 100.848 45.0339C100.794 45.7672 100.767 46.6623 100.767 47.7191ZM100.751 50.566C100.729 51.2131 100.719 51.7469 100.719 52.1675C100.719 53.44 100.751 54.513 100.816 55.3865C101.225 55.4835 101.592 55.532 101.916 55.532C102.865 55.532 103.609 55.3002 104.148 54.8365C104.698 54.3728 104.973 53.7311 104.973 52.9116C104.973 52.092 104.698 51.4503 104.148 50.9866C103.609 50.5229 102.865 50.2911 101.916 50.2911C101.366 50.2911 100.977 50.3827 100.751 50.566ZM107.609 56.082C107.674 55.0683 107.707 53.6772 107.707 51.9086V50.566C107.707 47.8593 107.674 46.0152 107.609 45.0339C107.825 45.077 108.068 45.0986 108.337 45.0986C108.618 45.0986 108.871 45.077 109.098 45.0339C109.044 45.7456 109.017 46.8024 109.017 48.2044V50.566C109.017 50.9003 109.017 51.3641 109.017 51.9572C109.006 52.5503 109.001 52.9763 109.001 53.2351C109.001 54.486 109.033 55.435 109.098 56.082C108.828 56.0281 108.585 56.0012 108.37 56.0012C108.154 56.0012 107.901 56.0281 107.609 56.082ZM111.928 56.082C112.015 54.7556 112.058 52.8738 112.058 50.4366C112.058 48.2367 112.02 46.4358 111.945 45.0339C112.559 45.0662 113.217 45.0824 113.918 45.0824C114.641 45.0824 115.875 45.0662 117.622 45.0339C117.622 45.077 117.622 45.1525 117.622 45.2603C117.612 45.3682 117.606 45.4491 117.606 45.503C117.606 45.5461 117.612 45.6216 117.622 45.7294C117.622 45.8373 117.622 45.9182 117.622 45.9721C116.393 45.8642 115.115 45.8103 113.789 45.8103H113.417C113.395 47.0936 113.384 48.2313 113.384 49.2234V49.8705H113.675C114.668 49.8705 115.838 49.8273 117.186 49.7411C117.164 49.9567 117.153 50.1239 117.153 50.2425C117.153 50.3504 117.164 50.5013 117.186 50.6954C116.711 50.6092 115.692 50.566 114.128 50.566H113.368V51.3425C113.368 51.817 113.379 53.1326 113.4 55.2894H113.805C114.775 55.2894 116.069 55.2301 117.687 55.1115C117.687 55.1654 117.687 55.2463 117.687 55.3541C117.676 55.462 117.671 55.5428 117.671 55.5968C117.671 55.6507 117.676 55.7316 117.687 55.8394C117.687 55.9472 117.687 56.0281 117.687 56.082C117.105 56.0605 116.183 56.0497 114.921 56.0497C113.616 56.0497 112.619 56.0605 111.928 56.082ZM41.4338 67.566V69.1675C41.4338 70.6125 41.4661 71.6855 41.5308 72.3865C41.9406 72.4835 42.3073 72.532 42.6308 72.532C43.5798 72.532 44.3239 72.3056 44.8631 71.8527C45.413 71.3997 45.688 70.7797 45.688 69.9924C45.688 68.3317 44.6474 67.5013 42.5661 67.5013C42.3935 67.5013 42.0161 67.5229 41.4338 67.566ZM40.0265 73.1144C40.1343 72.0791 40.1882 70.5909 40.1882 68.6498C40.1882 65.6088 40.1559 63.4034 40.0912 62.0339C40.5657 62.0554 40.8245 62.0662 40.8676 62.0662C40.9755 62.0662 41.2451 62.0608 41.6764 62.0501C42.1186 62.0285 42.5014 62.0177 42.8249 62.0177C44.2052 62.0177 45.2189 62.2118 45.866 62.6C46.5238 62.9883 46.8527 63.6191 46.8527 64.4926C46.8527 65.9053 45.9469 66.7896 44.1351 67.1455C46.1517 67.3504 47.16 68.24 47.16 69.8145C47.16 72.0144 45.7042 73.1144 42.7925 73.1144C42.5229 73.1144 42.1779 73.1036 41.7573 73.082C41.3367 73.0605 41.0455 73.0497 40.8838 73.0497C40.7005 73.0497 40.4147 73.0712 40.0265 73.1144ZM41.4823 66.8867C41.8058 66.919 42.1078 66.9352 42.3881 66.9352C44.3832 66.9352 45.3807 66.1533 45.3807 64.5897C45.3807 63.2309 44.491 62.5515 42.7117 62.5515C42.3989 62.5515 42.0161 62.5785 41.5632 62.6324C41.5093 63.2255 41.4823 63.9211 41.4823 64.7191V66.8867ZM54.8598 73.3085C53.0157 73.3085 51.5599 72.7963 50.4923 71.7718C49.4247 70.7473 48.8909 69.3508 48.8909 67.5822C48.8909 65.8352 49.4301 64.4441 50.5085 63.4088C51.5976 62.3628 53.0481 61.8398 54.8598 61.8398C56.6931 61.8398 58.1435 62.3574 59.2111 63.3927C60.2787 64.4279 60.8125 65.8244 60.8125 67.5822C60.8125 69.2969 60.2679 70.6826 59.1788 71.7394C58.0896 72.7855 56.6499 73.3085 54.8598 73.3085ZM54.8598 72.6938C56.2509 72.6938 57.3239 72.2517 58.0788 71.3674C58.8337 70.4831 59.2111 69.216 59.2111 67.566C59.2111 65.8945 58.8391 64.622 58.095 63.7485C57.3509 62.875 56.2725 62.4383 54.8598 62.4383C53.4687 62.4383 52.3957 62.8912 51.6408 63.7971C50.8859 64.6921 50.5085 65.97 50.5085 67.6307C50.5085 69.2591 50.8805 70.5101 51.6246 71.3836C52.3795 72.2571 53.4579 72.6938 54.8598 72.6938ZM71.6666 72.9526C71.6666 73.1252 71.6827 73.3948 71.7151 73.7614H71.5695C71.343 73.4271 71.0303 73.2384 70.6313 73.1953C69.6823 73.0874 68.2642 73.0335 66.377 73.0335C64.8781 73.0335 63.9075 73.0551 63.4654 73.0982C62.6027 73.1845 62.0149 73.4055 61.7022 73.7614H61.589C61.6213 73.5026 61.6375 73.233 61.6375 72.9526C61.6375 72.6291 61.6213 72.3487 61.589 72.1115C61.7076 72.1438 61.8532 72.16 62.0257 72.16C63.6217 68.7954 65.1692 65.3499 66.6682 61.8236H66.9756C68.5608 65.7921 70.0112 69.2376 71.3269 72.16C71.5102 72.16 71.6396 72.1438 71.7151 72.1115C71.672 72.4673 71.6558 72.7477 71.6666 72.9526ZM69.7578 72.2409C69.4774 71.4105 69.1162 70.4669 68.674 69.4101L67.8005 67.3396C67.6172 66.8759 67.1535 65.7759 66.4094 64.0397L64.4036 68.7631C64.0908 69.5395 63.6487 70.6934 63.0772 72.2247C63.7997 72.2678 64.9212 72.2894 66.4417 72.2894C68.0162 72.2894 69.1216 72.2732 69.7578 72.2409ZM74.6915 64.7191V66.7896C75.1444 66.7357 75.5811 66.7087 76.0017 66.7087C77.4252 66.7087 78.509 66.9891 79.2531 67.5499C79.9972 68.0998 80.3692 68.8871 80.3692 69.9116C80.3692 70.936 79.9972 71.7286 79.2531 72.2894C78.509 72.8394 77.4252 73.1144 76.0017 73.1144C75.7321 73.1144 75.387 73.1036 74.9665 73.082C74.5459 73.0605 74.2547 73.0497 74.093 73.0497C73.9096 73.0497 73.6239 73.0712 73.2356 73.1144C73.3435 72.0791 73.3974 70.5909 73.3974 68.6498C73.3974 65.6088 73.365 63.4034 73.3003 62.0339C73.6778 62.0878 73.9204 62.1148 74.0283 62.1148C74.2547 62.1148 74.5027 62.0878 74.7723 62.0339C74.7184 62.7672 74.6915 63.6623 74.6915 64.7191ZM74.6753 67.566C74.6537 68.2131 74.6429 68.7469 74.6429 69.1675C74.6429 70.44 74.6753 71.513 74.74 72.3865C75.1498 72.4835 75.5164 72.532 75.84 72.532C76.7889 72.532 77.533 72.3002 78.0722 71.8365C78.6222 71.3728 78.8972 70.7311 78.8972 69.9116C78.8972 69.092 78.6222 68.4503 78.0722 67.9866C77.533 67.5229 76.7889 67.2911 75.84 67.2911C75.29 67.2911 74.9018 67.3827 74.6753 67.566ZM81.5339 73.082C81.5986 72.0683 81.6309 70.6772 81.6309 68.9086V67.566C81.6309 64.8593 81.5986 63.0152 81.5339 62.0339C81.7496 62.077 81.9922 62.0986 82.2618 62.0986C82.5422 62.0986 82.7956 62.077 83.0221 62.0339C82.9681 62.7456 82.9412 63.8024 82.9412 65.2044V67.566C82.9412 67.9003 82.9412 68.3641 82.9412 68.9572C82.9304 69.5503 82.925 69.9763 82.925 70.2351C82.925 71.486 82.9574 72.435 83.0221 73.082C82.7525 73.0281 82.5098 73.0012 82.2941 73.0012C82.0785 73.0012 81.825 73.0281 81.5339 73.082Z" fill="white"/>
<path d="M50.6408 23.6536L51.4118 25.2803L53.1972 25.5109L51.8883 26.7468L52.2207 28.5161L50.6408 27.6532L49.0608 28.5161L49.3933 26.7468L48.0844 25.5109L49.8698 25.2803L50.6408 23.6536Z" fill="white"/>
<path d="M57.9518 23.6533L58.7228 25.2801L60.5082 25.5106L59.1994 26.7466L59.5318 28.5158L57.9518 27.653L56.3719 28.5158L56.7043 26.7466L55.3955 25.5106L57.1808 25.2801L57.9518 23.6533Z" fill="white"/>
<path d="M65.2631 23.6536L66.0342 25.2803L67.8195 25.5109L66.5107 26.7468L66.8431 28.5161L65.2631 27.6532L63.6832 28.5161L64.0156 26.7468L62.7068 25.5109L64.4921 25.2803L65.2631 23.6536Z" fill="white"/>
<path d="M72.5742 23.6533L73.3452 25.2801L75.1306 25.5106L73.8217 26.7466L74.1541 28.5158L72.5742 27.653L70.9942 28.5158L71.3267 26.7466L70.0178 25.5106L71.8032 25.2801L72.5742 23.6533Z" fill="white"/>
</svg>
