<svg width="332" height="32" viewBox="0 0 332 32" fill="none" xmlns="http://www.w3.org/2000/svg">
<rect x="0.00012207" width="31.5789" height="31.5789" rx="15.7895" fill="#59B343"/>
<path d="M55.5475 21.4789C54.4212 21.4789 53.4001 21.2368 52.4844 20.7526C51.5791 20.2578 50.8633 19.5789 50.337 18.7157C49.8212 17.8421 49.5633 16.8578 49.5633 15.7631C49.5633 14.6684 49.8212 13.6894 50.337 12.8263C50.8633 11.9526 51.5791 11.2736 52.4844 10.7894C53.4001 10.2947 54.4265 10.0473 55.5633 10.0473C56.5212 10.0473 57.3844 10.2157 58.1528 10.5526C58.9317 10.8894 59.5844 11.3736 60.1107 12.0052L58.4686 13.521C57.7212 12.6578 56.7949 12.2263 55.6896 12.2263C55.0054 12.2263 54.3949 12.3789 53.858 12.6842C53.3212 12.9789 52.9001 13.3947 52.5949 13.9315C52.3001 14.4684 52.1528 15.0789 52.1528 15.7631C52.1528 16.4473 52.3001 17.0578 52.5949 17.5947C52.9001 18.1315 53.3212 18.5526 53.858 18.8578C54.3949 19.1526 55.0054 19.3 55.6896 19.3C56.7949 19.3 57.7212 18.8631 58.4686 17.9894L60.1107 19.5052C59.5844 20.1473 58.9317 20.6368 58.1528 20.9736C57.3738 21.3105 56.5054 21.4789 55.5475 21.4789ZM68.0778 16.8526C69.0778 17.1894 69.5778 17.8631 69.5778 18.8736C69.5778 19.6421 69.2883 20.2368 68.7094 20.6578C68.1304 21.0789 67.2673 21.2894 66.1199 21.2894H61.5883V12.7947H65.9304C66.9936 12.7947 67.8252 12.9894 68.4252 13.3789C69.0252 13.7578 69.3252 14.2947 69.3252 14.9894C69.3252 15.4105 69.2147 15.7842 68.9936 16.1105C68.7831 16.4263 68.4778 16.6736 68.0778 16.8526ZM63.8462 16.2842H65.7094C66.5726 16.2842 67.0041 15.9789 67.0041 15.3684C67.0041 14.7684 66.5726 14.4684 65.7094 14.4684H63.8462V16.2842ZM65.9147 19.6157C66.8199 19.6157 67.2726 19.3052 67.2726 18.6842C67.2726 18.3578 67.1673 18.121 66.9568 17.9736C66.7462 17.8157 66.4147 17.7368 65.962 17.7368H63.8462V19.6157H65.9147ZM75.3895 21.4157C74.4947 21.4157 73.6895 21.2315 72.9737 20.8631C72.2684 20.4842 71.7158 19.9631 71.3158 19.3C70.9158 18.6368 70.7158 17.8842 70.7158 17.0421C70.7158 16.2 70.9158 15.4473 71.3158 14.7842C71.7158 14.121 72.2684 13.6052 72.9737 13.2368C73.6895 12.8578 74.4947 12.6684 75.3895 12.6684C76.2842 12.6684 77.0842 12.8578 77.7895 13.2368C78.4947 13.6052 79.0473 14.121 79.4473 14.7842C79.8473 15.4473 80.0473 16.2 80.0473 17.0421C80.0473 17.8842 79.8473 18.6368 79.4473 19.3C79.0473 19.9631 78.4947 20.4842 77.7895 20.8631C77.0842 21.2315 76.2842 21.4157 75.3895 21.4157ZM75.3895 19.3947C76.021 19.3947 76.5368 19.1842 76.9368 18.7631C77.3473 18.3315 77.5526 17.7578 77.5526 17.0421C77.5526 16.3263 77.3473 15.7578 76.9368 15.3368C76.5368 14.9052 76.021 14.6894 75.3895 14.6894C74.7579 14.6894 74.2368 14.9052 73.8263 15.3368C73.4158 15.7578 73.2105 16.3263 73.2105 17.0421C73.2105 17.7578 73.4158 18.3315 73.8263 18.7631C74.2368 19.1842 74.7579 19.3947 75.3895 19.3947ZM86.652 13.3789C87.4626 13.3789 88.1731 13.5473 88.7836 13.8842C89.3941 14.2105 89.8626 14.6736 90.1889 15.2736C90.5257 15.8736 90.6941 16.5684 90.6941 17.3578C90.6941 18.1684 90.4941 18.8894 90.0941 19.521C89.7047 20.1421 89.1573 20.6263 88.452 20.9736C87.7468 21.3105 86.9468 21.4789 86.052 21.4789C84.5678 21.4789 83.3994 21.0052 82.5468 20.0578C81.7047 19.1 81.2836 17.7 81.2836 15.8578C81.2836 14.1526 81.652 12.7947 82.3889 11.7842C83.1362 10.7631 84.2783 10.0947 85.8152 9.7789L89.8573 8.97364L90.1889 11.0894L86.6205 11.8C85.652 11.9894 84.931 12.3052 84.4573 12.7473C83.9941 13.1894 83.7205 13.8157 83.6362 14.6263C84.0047 14.2263 84.4468 13.921 84.9626 13.7105C85.4783 13.4894 86.0415 13.3789 86.652 13.3789ZM86.0678 19.5684C86.6994 19.5684 87.2047 19.3631 87.5836 18.9526C87.9731 18.5421 88.1678 18.021 88.1678 17.3894C88.1678 16.7473 87.9731 16.2368 87.5836 15.8578C87.2047 15.4789 86.6994 15.2894 86.0678 15.2894C85.4257 15.2894 84.9099 15.4789 84.5205 15.8578C84.131 16.2368 83.9362 16.7473 83.9362 17.3894C83.9362 18.0315 84.1362 18.5578 84.5362 18.9684C84.9362 19.3684 85.4468 19.5684 86.0678 19.5684ZM96.3444 21.4157C95.4497 21.4157 94.6444 21.2315 93.9286 20.8631C93.2234 20.4842 92.6707 19.9631 92.2707 19.3C91.8707 18.6368 91.6707 17.8842 91.6707 17.0421C91.6707 16.2 91.8707 15.4473 92.2707 14.7842C92.6707 14.121 93.2234 13.6052 93.9286 13.2368C94.6444 12.8578 95.4497 12.6684 96.3444 12.6684C97.2392 12.6684 98.0392 12.8578 98.7444 13.2368C99.4497 13.6052 100.002 14.121 100.402 14.7842C100.802 15.4473 101.002 16.2 101.002 17.0421C101.002 17.8842 100.802 18.6368 100.402 19.3C100.002 19.9631 99.4497 20.4842 98.7444 20.8631C98.0392 21.2315 97.2392 21.4157 96.3444 21.4157ZM96.3444 19.3947C96.976 19.3947 97.4918 19.1842 97.8918 18.7631C98.3023 18.3315 98.5076 17.7578 98.5076 17.0421C98.5076 16.3263 98.3023 15.7578 97.8918 15.3368C97.4918 14.9052 96.976 14.6894 96.3444 14.6894C95.7129 14.6894 95.1918 14.9052 94.7813 15.3368C94.3707 15.7578 94.1655 16.3263 94.1655 17.0421C94.1655 17.7578 94.3707 18.3315 94.7813 18.7631C95.1918 19.1842 95.7129 19.3947 96.3444 19.3947ZM112.094 19.2684V23.121H109.805V21.2894H103.836V23.121H101.547V19.2684H101.894C102.42 19.2578 102.784 18.9473 102.984 18.3368C103.184 17.7263 103.31 16.8578 103.363 15.7315L103.473 12.7947H110.878V19.2684H112.094ZM105.589 15.9052C105.557 16.7684 105.489 17.4736 105.384 18.021C105.289 18.5684 105.105 18.9842 104.831 19.2684H108.415V14.8157H105.636L105.589 15.9052ZM113.644 12.7947H116.092V16.1105H119.786V12.7947H122.25V21.2894H119.786V18.1157H116.092V21.2894H113.644V12.7947ZM128.586 21.4157C127.692 21.4157 126.886 21.2315 126.171 20.8631C125.465 20.4842 124.913 19.9631 124.513 19.3C124.113 18.6368 123.913 17.8842 123.913 17.0421C123.913 16.2 124.113 15.4473 124.513 14.7842C124.913 14.121 125.465 13.6052 126.171 13.2368C126.886 12.8578 127.692 12.6684 128.586 12.6684C129.481 12.6684 130.281 12.8578 130.986 13.2368C131.692 13.6052 132.244 14.121 132.644 14.7842C133.044 15.4473 133.244 16.2 133.244 17.0421C133.244 17.8842 133.044 18.6368 132.644 19.3C132.244 19.9631 131.692 20.4842 130.986 20.8631C130.281 21.2315 129.481 21.4157 128.586 21.4157ZM128.586 19.3947C129.218 19.3947 129.734 19.1842 130.134 18.7631C130.544 18.3315 130.75 17.7578 130.75 17.0421C130.75 16.3263 130.544 15.7578 130.134 15.3368C129.734 14.9052 129.218 14.6894 128.586 14.6894C127.955 14.6894 127.434 14.9052 127.023 15.3368C126.613 15.7578 126.407 16.3263 126.407 17.0421C126.407 17.7578 126.613 18.3315 127.023 18.7631C127.434 19.1842 127.955 19.3947 128.586 19.3947Z" fill="black"/>
<rect x="145.79" width="31.5789" height="31.5789" rx="15.7895" fill="#FF3D00"/>
<path d="M202.395 15.5263C203.037 15.7473 203.537 16.0947 203.895 16.5684C204.263 17.0315 204.448 17.5736 204.448 18.1947C204.448 18.8684 204.226 19.4526 203.784 19.9473C203.342 20.4421 202.742 20.821 201.984 21.0842C201.237 21.3473 200.416 21.4789 199.521 21.4789C198.763 21.4789 198.005 21.3842 197.248 21.1947C196.5 21.0052 195.79 20.7157 195.116 20.3263L195.905 18.4947C196.39 18.7894 196.921 19.0157 197.5 19.1736C198.09 19.321 198.663 19.3947 199.221 19.3947C199.979 19.3947 200.605 19.2578 201.1 18.9842C201.605 18.7105 201.858 18.3263 201.858 17.8315C201.858 17.421 201.684 17.1105 201.337 16.9C201 16.6894 200.537 16.5842 199.948 16.5842H197.248V14.6578H199.758C200.274 14.6578 200.674 14.5526 200.958 14.3421C201.253 14.1315 201.4 13.8421 201.4 13.4736C201.4 13.0421 201.19 12.7052 200.769 12.4631C200.358 12.221 199.826 12.1 199.174 12.1C198.69 12.1 198.19 12.1684 197.674 12.3052C197.158 12.4315 196.669 12.6263 196.205 12.8894L195.432 10.9C196.6 10.3 197.863 9.99995 199.221 9.99995C200.084 9.99995 200.879 10.1263 201.605 10.3789C202.332 10.6315 202.911 11 203.342 11.4842C203.774 11.9684 203.99 12.5315 203.99 13.1736C203.99 13.7 203.848 14.1684 203.563 14.5789C203.279 14.9894 202.89 15.3052 202.395 15.5263ZM209.583 12.6684C210.899 12.6684 211.909 12.9842 212.615 13.6157C213.32 14.2368 213.673 15.1789 213.673 16.4421V21.2894H211.367V20.2315C210.904 21.021 210.041 21.4157 208.778 21.4157C208.125 21.4157 207.557 21.3052 207.073 21.0842C206.599 20.8631 206.236 20.5578 205.983 20.1684C205.73 19.7789 205.604 19.3368 205.604 18.8421C205.604 18.0526 205.899 17.4315 206.488 16.9789C207.088 16.5263 208.009 16.3 209.251 16.3H211.209C211.209 15.7631 211.046 15.3526 210.72 15.0684C210.394 14.7736 209.904 14.6263 209.251 14.6263C208.799 14.6263 208.351 14.7 207.909 14.8473C207.478 14.9842 207.109 15.1736 206.804 15.4157L205.92 13.6947C206.383 13.3684 206.936 13.1157 207.578 12.9368C208.23 12.7578 208.899 12.6684 209.583 12.6684ZM209.394 19.7578C209.815 19.7578 210.188 19.6631 210.515 19.4736C210.841 19.2736 211.073 18.9842 211.209 18.6052V17.7368H209.52C208.509 17.7368 208.004 18.0684 208.004 18.7315C208.004 19.0473 208.125 19.3 208.367 19.4894C208.62 19.6684 208.962 19.7578 209.394 19.7578ZM220.723 13.3789C221.533 13.3789 222.244 13.5473 222.854 13.8842C223.465 14.2105 223.933 14.6736 224.26 15.2736C224.596 15.8736 224.765 16.5684 224.765 17.3578C224.765 18.1684 224.565 18.8894 224.165 19.521C223.775 20.1421 223.228 20.6263 222.523 20.9736C221.818 21.3105 221.018 21.4789 220.123 21.4789C218.639 21.4789 217.47 21.0052 216.618 20.0578C215.775 19.1 215.354 17.7 215.354 15.8578C215.354 14.1526 215.723 12.7947 216.46 11.7842C217.207 10.7631 218.349 10.0947 219.886 9.7789L223.928 8.97364L224.26 11.0894L220.691 11.8C219.723 11.9894 219.002 12.3052 218.528 12.7473C218.065 13.1894 217.791 13.8157 217.707 14.6263C218.075 14.2263 218.518 13.921 219.033 13.7105C219.549 13.4894 220.112 13.3789 220.723 13.3789ZM220.139 19.5684C220.77 19.5684 221.275 19.3631 221.654 18.9526C222.044 18.5421 222.239 18.021 222.239 17.3894C222.239 16.7473 222.044 16.2368 221.654 15.8578C221.275 15.4789 220.77 15.2894 220.139 15.2894C219.496 15.2894 218.981 15.4789 218.591 15.8578C218.202 16.2368 218.007 16.7473 218.007 17.3894C218.007 18.0315 218.207 18.5578 218.607 18.9684C219.007 19.3684 219.518 19.5684 220.139 19.5684ZM231.441 12.6684C232.231 12.6684 232.947 12.8526 233.589 13.221C234.241 13.5789 234.752 14.0894 235.12 14.7526C235.489 15.4052 235.673 16.1684 235.673 17.0421C235.673 17.9157 235.489 18.6842 235.12 19.3473C234.752 20 234.241 20.5105 233.589 20.8789C232.947 21.2368 232.231 21.4157 231.441 21.4157C230.357 21.4157 229.505 21.0736 228.884 20.3894V24.3526H226.42V12.7947H228.773V13.7736C229.384 13.0368 230.273 12.6684 231.441 12.6684ZM231.015 19.3947C231.647 19.3947 232.163 19.1842 232.563 18.7631C232.973 18.3315 233.178 17.7578 233.178 17.0421C233.178 16.3263 232.973 15.7578 232.563 15.3368C232.163 14.9052 231.647 14.6894 231.015 14.6894C230.384 14.6894 229.863 14.9052 229.452 15.3368C229.052 15.7578 228.852 16.3263 228.852 17.0421C228.852 17.7578 229.052 18.3315 229.452 18.7631C229.863 19.1842 230.384 19.3947 231.015 19.3947ZM241.378 21.4157C240.484 21.4157 239.678 21.2315 238.963 20.8631C238.257 20.4842 237.705 19.9631 237.305 19.3C236.905 18.6368 236.705 17.8842 236.705 17.0421C236.705 16.2 236.905 15.4473 237.305 14.7842C237.705 14.121 238.257 13.6052 238.963 13.2368C239.678 12.8578 240.484 12.6684 241.378 12.6684C242.273 12.6684 243.073 12.8578 243.778 13.2368C244.484 13.6052 245.036 14.121 245.436 14.7842C245.836 15.4473 246.036 16.2 246.036 17.0421C246.036 17.8842 245.836 18.6368 245.436 19.3C245.036 19.9631 244.484 20.4842 243.778 20.8631C243.073 21.2315 242.273 21.4157 241.378 21.4157ZM241.378 19.3947C242.01 19.3947 242.526 19.1842 242.926 18.7631C243.336 18.3315 243.542 17.7578 243.542 17.0421C243.542 16.3263 243.336 15.7578 242.926 15.3368C242.526 14.9052 242.01 14.6894 241.378 14.6894C240.747 14.6894 240.226 14.9052 239.815 15.3368C239.405 15.7578 239.199 16.3263 239.199 17.0421C239.199 17.7578 239.405 18.3315 239.815 18.7631C240.226 19.1842 240.747 19.3947 241.378 19.3947ZM247.73 12.7947H250.178V16.1105H253.873V12.7947H256.336V21.2894H253.873V18.1157H250.178V21.2894H247.73V12.7947ZM258.694 12.7947H261.141V17.8473L265.278 12.7947H267.536V21.2894H265.088V16.2368L260.967 21.2894H258.694V12.7947ZM274.909 12.6684C275.698 12.6684 276.414 12.8526 277.056 13.221C277.709 13.5789 278.219 14.0894 278.588 14.7526C278.956 15.4052 279.14 16.1684 279.14 17.0421C279.14 17.9157 278.956 18.6842 278.588 19.3473C278.219 20 277.709 20.5105 277.056 20.8789C276.414 21.2368 275.698 21.4157 274.909 21.4157C273.825 21.4157 272.972 21.0736 272.351 20.3894V24.3526H269.888V12.7947H272.24V13.7736C272.851 13.0368 273.74 12.6684 274.909 12.6684ZM274.482 19.3947C275.114 19.3947 275.63 19.1842 276.03 18.7631C276.44 18.3315 276.646 17.7578 276.646 17.0421C276.646 16.3263 276.44 15.7578 276.03 15.3368C275.63 14.9052 275.114 14.6894 274.482 14.6894C273.851 14.6894 273.33 14.9052 272.919 15.3368C272.519 15.7578 272.319 16.3263 272.319 17.0421C272.319 17.7578 272.519 18.3315 272.919 18.7631C273.33 19.1842 273.851 19.3947 274.482 19.3947ZM284.846 21.4157C283.951 21.4157 283.146 21.2315 282.43 20.8631C281.725 20.4842 281.172 19.9631 280.772 19.3C280.372 18.6368 280.172 17.8842 280.172 17.0421C280.172 16.2 280.372 15.4473 280.772 14.7842C281.172 14.121 281.725 13.6052 282.43 13.2368C283.146 12.8578 283.951 12.6684 284.846 12.6684C285.74 12.6684 286.54 12.8578 287.246 13.2368C287.951 13.6052 288.504 14.121 288.904 14.7842C289.304 15.4473 289.504 16.2 289.504 17.0421C289.504 17.8842 289.304 18.6368 288.904 19.3C288.504 19.9631 287.951 20.4842 287.246 20.8631C286.54 21.2315 285.74 21.4157 284.846 21.4157ZM284.846 19.3947C285.477 19.3947 285.993 19.1842 286.393 18.7631C286.804 18.3315 287.009 17.7578 287.009 17.0421C287.009 16.3263 286.804 15.7578 286.393 15.3368C285.993 14.9052 285.477 14.6894 284.846 14.6894C284.214 14.6894 283.693 14.9052 283.283 15.3368C282.872 15.7578 282.667 16.3263 282.667 17.0421C282.667 17.7578 282.872 18.3315 283.283 18.7631C283.693 19.1842 284.214 19.3947 284.846 19.3947ZM297.687 16.8526C298.687 17.1894 299.187 17.8631 299.187 18.8736C299.187 19.6421 298.898 20.2368 298.319 20.6578C297.74 21.0789 296.877 21.2894 295.729 21.2894H291.198V12.7947H295.54C296.603 12.7947 297.435 12.9894 298.035 13.3789C298.635 13.7578 298.935 14.2947 298.935 14.9894C298.935 15.4105 298.824 15.7842 298.603 16.1105C298.392 16.4263 298.087 16.6736 297.687 16.8526ZM293.456 16.2842H295.319C296.182 16.2842 296.614 15.9789 296.614 15.3684C296.614 14.7684 296.182 14.4684 295.319 14.4684H293.456V16.2842ZM295.524 19.6157C296.429 19.6157 296.882 19.3052 296.882 18.6842C296.882 18.3578 296.777 18.121 296.566 17.9736C296.356 17.8157 296.024 17.7368 295.571 17.7368H293.456V19.6157H295.524ZM304.32 12.6684C305.636 12.6684 306.646 12.9842 307.351 13.6157C308.057 14.2368 308.409 15.1789 308.409 16.4421V21.2894H306.104V20.2315C305.641 21.021 304.778 21.4157 303.515 21.4157C302.862 21.4157 302.294 21.3052 301.809 21.0842C301.336 20.8631 300.973 20.5578 300.72 20.1684C300.467 19.7789 300.341 19.3368 300.341 18.8421C300.341 18.0526 300.636 17.4315 301.225 16.9789C301.825 16.5263 302.746 16.3 303.988 16.3H305.946C305.946 15.7631 305.783 15.3526 305.457 15.0684C305.13 14.7736 304.641 14.6263 303.988 14.6263C303.536 14.6263 303.088 14.7 302.646 14.8473C302.215 14.9842 301.846 15.1736 301.541 15.4157L300.657 13.6947C301.12 13.3684 301.673 13.1157 302.315 12.9368C302.967 12.7578 303.636 12.6684 304.32 12.6684ZM304.13 19.7578C304.551 19.7578 304.925 19.6631 305.251 19.4736C305.578 19.2736 305.809 18.9842 305.946 18.6052V17.7368H304.257C303.246 17.7368 302.741 18.0684 302.741 18.7315C302.741 19.0473 302.862 19.3 303.104 19.4894C303.357 19.6684 303.699 19.7578 304.13 19.7578ZM310.549 12.7947H312.996V16.1105H316.691V12.7947H319.154V21.2894H316.691V18.1157H312.996V21.2894H310.549V12.7947ZM325.491 21.4157C324.597 21.4157 323.791 21.2315 323.075 20.8631C322.37 20.4842 321.818 19.9631 321.418 19.3C321.018 18.6368 320.818 17.8842 320.818 17.0421C320.818 16.2 321.018 15.4473 321.418 14.7842C321.818 14.121 322.37 13.6052 323.075 13.2368C323.791 12.8578 324.597 12.6684 325.491 12.6684C326.386 12.6684 327.186 12.8578 327.891 13.2368C328.597 13.6052 329.149 14.121 329.549 14.7842C329.949 15.4473 330.149 16.2 330.149 17.0421C330.149 17.8842 329.949 18.6368 329.549 19.3C329.149 19.9631 328.597 20.4842 327.891 20.8631C327.186 21.2315 326.386 21.4157 325.491 21.4157ZM325.491 19.3947C326.123 19.3947 326.639 19.1842 327.039 18.7631C327.449 18.3315 327.654 17.7578 327.654 17.0421C327.654 16.3263 327.449 15.7578 327.039 15.3368C326.639 14.9052 326.123 14.6894 325.491 14.6894C324.86 14.6894 324.339 14.9052 323.928 15.3368C323.518 15.7578 323.312 16.3263 323.312 17.0421C323.312 17.7578 323.518 18.3315 323.928 18.7631C324.339 19.1842 324.86 19.3947 325.491 19.3947Z" fill="black"/>
</svg>
