<svg width="21" height="15" viewBox="0 0 21 15" fill="none" xmlns="http://www.w3.org/2000/svg">
<path d="M20 8.5C20.5523 8.5 21 8.05228 21 7.5C21 6.94772 20.5523 6.5 20 6.5L20 8.5ZM0.292893 6.7929C-0.0976311 7.18342 -0.097631 7.81659 0.292893 8.20711L6.65686 14.5711C7.04738 14.9616 7.68054 14.9616 8.07107 14.5711C8.46159 14.1805 8.46159 13.5474 8.07107 13.1569L2.41421 7.5L8.07107 1.84315C8.46159 1.45262 8.46159 0.819458 8.07107 0.428934C7.68054 0.0384098 7.04738 0.0384099 6.65685 0.428934L0.292893 6.7929ZM20 6.5L1 6.5L1 8.5L20 8.5L20 6.5Z" fill="#C8AA6D"/>
</svg>
