<svg width="148" height="195" viewBox="0 0 148 195" fill="none" xmlns="http://www.w3.org/2000/svg">
<path d="M14.5012 73.6638C14.3078 73.6638 14.1144 73.4705 14.1144 73.2771C13.9211 73.0838 13.9211 72.6971 13.9211 72.3104C13.7278 71.3437 12.9544 70.5703 12.181 70.377C11.9877 70.377 11.6009 70.1837 11.4076 70.1837C11.2142 70.1837 11.021 69.9902 11.021 69.6036C11.021 69.4102 11.2142 69.217 11.4076 69.217C11.4076 69.217 11.601 69.2169 11.9877 69.0235C12.9544 68.8302 13.7278 68.0568 13.9211 67.0901C13.9211 66.7034 14.1144 66.3168 14.1144 65.9301C14.1144 65.7368 14.3078 65.5434 14.5012 65.5434C14.6945 65.5434 14.8879 65.7368 14.8879 65.9301C15.0812 66.1234 15.0812 66.5101 15.0812 67.0901C15.2745 68.0568 16.0479 68.8302 17.0146 69.0235C17.4013 69.0235 17.5946 69.217 17.5946 69.217C17.7879 69.217 17.9813 69.4102 17.9813 69.6036C17.9813 69.7969 17.7879 69.9903 17.5946 70.1837C17.4013 70.1837 17.208 70.377 16.8213 70.377C15.8546 70.5703 15.2745 71.3437 15.0812 72.3104C15.0812 72.6971 14.8879 73.0838 14.8879 73.2771C14.8879 73.4705 14.6945 73.6638 14.5012 73.6638ZM13.1477 69.6036C13.7278 69.9902 14.3078 70.5703 14.6944 71.3437C15.0811 70.5703 15.4678 69.9902 16.2412 69.6036C15.6611 69.2169 15.0811 68.6369 14.6944 67.8635C14.3078 68.6369 13.7278 69.2169 13.1477 69.6036Z" fill="#BB8E4D"/>
<path d="M115.619 194.503C115.426 194.503 115.232 194.31 115.232 194.117C115.039 193.73 114.846 192.957 114.652 192.377C114.266 190.443 112.719 188.703 110.979 188.316C110.592 188.123 110.012 188.123 109.625 187.93C109.432 187.93 109.239 187.736 109.239 187.35C109.239 187.156 109.432 186.963 109.625 186.963C109.625 186.963 110.012 186.963 110.592 186.77C112.719 186.383 114.266 184.643 114.652 182.709C114.846 181.936 115.039 181.356 115.232 180.776C115.232 180.583 115.426 180.389 115.619 180.389C115.812 180.389 116.006 180.583 116.006 180.776C116.199 181.356 116.392 181.936 116.586 182.709C116.972 184.836 118.519 186.383 120.646 186.77C121.226 186.963 121.613 186.963 121.613 186.963C121.806 186.963 121.999 187.156 121.999 187.35C121.999 187.543 121.806 187.736 121.613 187.93C121.226 188.123 120.839 188.123 120.259 188.316C118.326 188.703 116.972 190.443 116.586 192.377C116.392 193.15 116.199 193.73 116.006 194.117C116.006 194.31 115.812 194.503 115.619 194.503ZM111.752 187.543C113.686 188.316 115.232 190.057 115.619 191.99C116.006 189.863 117.553 188.123 119.486 187.543C117.359 186.77 116.006 185.03 115.619 182.903C115.232 185.03 113.686 186.77 111.752 187.543Z" fill="#BB8E4D"/>
<path d="M140.754 121.806C140.56 121.806 140.367 121.613 140.367 121.42C140.174 121.033 139.98 120.26 139.787 119.68C139.4 117.746 137.854 116.006 136.114 115.619C135.727 115.426 135.147 115.426 134.76 115.233C134.567 115.233 134.374 115.039 134.374 114.653C134.374 114.459 134.567 114.266 134.76 114.266C134.76 114.266 135.147 114.266 135.727 114.073C137.854 113.686 139.4 111.946 139.787 110.012C139.98 109.239 140.174 108.659 140.367 108.079C140.367 107.886 140.56 107.692 140.754 107.692C140.947 107.692 141.141 107.886 141.141 108.079C141.334 108.659 141.527 109.239 141.721 110.012C142.107 112.139 143.654 113.686 145.781 114.073C146.361 114.266 146.747 114.266 146.747 114.266C146.941 114.266 147.134 114.459 147.134 114.653C147.134 114.846 146.941 115.039 146.747 115.233C146.361 115.426 145.974 115.426 145.394 115.619C143.461 116.006 142.107 117.746 141.721 119.68C141.527 120.453 141.334 121.033 141.141 121.42C141.141 121.806 140.947 121.806 140.754 121.806ZM136.694 114.846C138.627 115.619 140.174 117.359 140.561 119.293C140.947 117.166 142.494 115.426 144.427 114.846C142.301 114.073 140.947 112.332 140.561 110.206C140.367 112.526 138.82 114.266 136.694 114.846Z" fill="#BB8E4D"/>
<path d="M69.9894 49.6893C69.7961 49.6893 69.6027 49.4959 69.6027 49.3026C69.216 48.5292 69.0226 47.3692 68.8293 46.2091C68.0559 42.5356 65.5424 39.6355 62.0623 38.8621C61.2889 38.6687 60.5156 38.4754 59.9355 38.0887C59.7422 38.0887 59.5488 37.8954 59.5488 37.5087C59.5488 37.3153 59.7422 37.122 59.9355 37.122C59.9355 37.122 60.5155 36.9286 61.4823 36.7352C65.1558 35.9619 68.0559 33.0618 68.8293 29.1949C69.0226 27.8415 69.4093 26.6814 69.796 25.9081C69.796 25.7147 69.9894 25.5214 70.1827 25.5214C70.376 25.5214 70.5694 25.7147 70.5694 25.9081C70.9561 26.6814 71.1494 27.8415 71.5361 29.1949C72.1162 32.8685 75.0163 35.7685 78.6899 36.7352C79.6566 36.9286 80.4299 37.122 80.4299 37.122C80.6232 37.122 80.8166 37.3153 80.8166 37.5087C80.8166 37.702 80.6232 37.8953 80.4299 38.0887C79.8498 38.282 79.0765 38.6687 78.3031 38.8621C74.823 39.8288 72.1162 42.7289 71.5361 46.2091C71.3428 47.5625 70.9561 48.5292 70.7627 49.3026C70.376 49.4959 70.1828 49.6893 69.9894 49.6893ZM61.869 37.8954C62.0623 37.8954 62.0623 37.8954 62.2557 37.8954C66.1225 38.8621 69.0226 42.149 69.796 46.0158C69.796 46.5958 69.9894 46.9825 70.1827 47.5625C70.376 47.1759 70.3761 46.5958 70.5694 46.0158C71.3428 41.9556 74.2429 38.8621 78.1097 37.8954C78.3031 37.8954 78.3031 37.8954 78.4964 37.8954C74.4362 36.9287 71.3428 33.8352 70.5694 29.5816C70.3761 29.0016 70.376 28.4215 70.1827 27.8415C69.9894 28.4215 69.9893 28.8083 69.796 29.5816C69.0226 33.6418 65.9292 36.9287 61.869 37.8954Z" fill="#BB8E4D"/>
<path d="M49.689 187.93H44.662C44.4687 187.93 44.082 187.736 44.082 187.35C44.082 187.156 44.2754 186.77 44.662 186.77H49.689C49.8824 186.77 50.269 186.963 50.269 187.35C50.0757 187.736 49.8824 187.93 49.689 187.93Z" fill="#BB8E4D"/>
<path d="M57.0357 187.93H52.0087C51.8154 187.93 51.4287 187.736 51.4287 187.35C51.4287 187.156 51.622 186.77 52.0087 186.77H57.0357C57.2291 186.77 57.6157 186.963 57.6157 187.35C57.6157 187.736 57.4224 187.93 57.0357 187.93Z" fill="#BB8E4D"/>
<path d="M50.849 186.383C50.6557 186.383 50.269 186.19 50.269 185.803V180.969C50.269 180.776 50.4624 180.389 50.849 180.389C51.0424 180.389 51.4291 180.583 51.4291 180.969V185.803C51.2357 186.19 51.0424 186.383 50.849 186.383Z" fill="#BB8E4D"/>
<path d="M50.849 194.31C50.6557 194.31 50.269 194.117 50.269 193.73V188.896C50.269 188.703 50.4624 188.316 50.849 188.316C51.0424 188.316 51.4291 188.51 51.4291 188.896V193.73C51.2357 193.923 51.0424 194.31 50.849 194.31Z" fill="#BB8E4D"/>
<path d="M50.8488 191.603C50.6555 191.603 50.2688 191.41 50.2688 191.023C50.2688 187.93 50.2687 187.93 47.5619 187.93C47.3686 187.93 46.9819 187.736 46.9819 187.35C46.9819 187.156 47.1753 186.77 47.5619 186.77C50.2687 186.77 50.2688 186.77 50.2688 183.676C50.2688 183.483 50.4621 183.096 50.8488 183.096C51.0421 183.096 51.4288 183.289 51.4288 183.676C51.4288 186.77 51.4289 186.77 54.1357 186.77C54.329 186.77 54.7157 186.963 54.7157 187.35C54.7157 187.543 54.5223 187.93 54.1357 187.93C51.4289 187.93 51.4288 187.93 51.4288 191.023C51.2355 191.41 51.0421 191.603 50.8488 191.603ZM50.4621 187.543C50.6554 187.543 50.6555 187.736 50.6555 187.93C50.6555 187.736 50.8488 187.736 51.0421 187.543C50.8488 187.543 50.8488 187.35 50.6555 187.156C50.6555 187.35 50.6554 187.35 50.4621 187.543Z" fill="#BB8E4D"/>
<path d="M6.18708 109.046H1.16008C0.966741 109.046 0.580078 108.852 0.580078 108.466C0.580078 108.272 0.773398 107.886 1.16008 107.886H6.18708C6.38042 107.886 6.76708 108.079 6.76708 108.466C6.76708 108.852 6.57376 109.046 6.18708 109.046Z" fill="#BB8E4D"/>
<path d="M13.728 109.046H8.7011C8.50776 109.046 8.12109 108.852 8.12109 108.466C8.12109 108.272 8.31441 107.886 8.7011 107.886H13.728C13.9213 107.886 14.308 108.079 14.308 108.466C14.308 108.852 13.9213 109.046 13.728 109.046Z" fill="#BB8E4D"/>
<path d="M7.34661 107.499C7.15326 107.499 6.7666 107.306 6.7666 106.919V102.085C6.7666 101.892 6.95992 101.505 7.34661 101.505C7.53995 101.505 7.92661 101.699 7.92661 102.085V106.919C7.92661 107.306 7.73329 107.499 7.34661 107.499Z" fill="#BB8E4D"/>
<path d="M7.34661 115.426C7.15326 115.426 6.7666 115.233 6.7666 114.846V110.012C6.7666 109.819 6.95992 109.432 7.34661 109.432C7.53995 109.432 7.92661 109.626 7.92661 110.012V114.846C7.92661 115.039 7.73329 115.426 7.34661 115.426Z" fill="#BB8E4D"/>
<path d="M7.34636 112.719C7.15301 112.719 6.76635 112.526 6.76635 112.139C6.76635 109.046 6.7663 109.046 4.0595 109.046C3.86615 109.046 3.47949 108.852 3.47949 108.466C3.47949 108.079 3.67281 107.886 4.0595 107.886C6.7663 107.886 6.76635 107.886 6.76635 104.792C6.76635 104.599 6.95967 104.212 7.34636 104.212C7.5397 104.212 7.92636 104.405 7.92636 104.792C7.92636 107.886 7.92641 107.886 10.6332 107.886C10.8266 107.886 11.2132 108.079 11.2132 108.466C11.2132 108.852 11.0199 109.046 10.6332 109.046C7.92641 109.046 7.92636 109.046 7.92636 112.139C7.92636 112.526 7.73304 112.719 7.34636 112.719ZM7.15306 108.659C7.3464 108.659 7.34636 108.852 7.34636 109.046C7.34636 108.852 7.53965 108.852 7.53965 108.659C7.34631 108.659 7.34636 108.466 7.34636 108.272C7.34636 108.466 7.3464 108.466 7.15306 108.659Z" fill="#BB8E4D"/>
<path d="M107.886 84.1043H97.2519C97.0585 84.1043 96.6719 83.911 96.6719 83.5243C96.6719 83.3309 96.8652 82.9443 97.2519 82.9443H107.692C107.886 82.9443 108.272 83.1376 108.272 83.5243C108.272 83.911 108.079 84.1043 107.886 84.1043Z" fill="#BB8E4D"/>
<path d="M123.159 84.1043H112.719C112.525 84.1043 112.139 83.911 112.139 83.5243C112.139 83.3309 112.332 82.9443 112.719 82.9443H123.159C123.353 82.9443 123.739 83.1376 123.739 83.5243C123.546 83.911 123.353 84.1043 123.159 84.1043Z" fill="#BB8E4D"/>
<path d="M110.206 81.0109C110.013 81.0109 109.626 80.8176 109.626 80.4309V70.5703C109.626 70.377 109.82 69.9903 110.206 69.9903C110.4 69.9903 110.786 70.1836 110.786 70.5703V80.4309C110.786 80.6242 110.593 81.0109 110.206 81.0109Z" fill="#BB8E4D"/>
<path d="M110.206 96.865C110.013 96.865 109.626 96.6717 109.626 96.285V86.4244C109.626 86.2311 109.82 85.8444 110.206 85.8444C110.4 85.8444 110.786 86.0377 110.786 86.4244V96.285C110.786 96.6717 110.593 96.865 110.206 96.865Z" fill="#BB8E4D"/>
<path d="M110.205 91.4514C110.012 91.4514 109.625 91.258 109.625 90.8713C109.625 84.1043 109.432 83.911 103.631 83.911C103.438 83.911 103.051 83.7177 103.051 83.331C103.051 82.9443 103.245 82.751 103.631 82.751C109.625 82.751 109.625 82.5576 109.625 75.7906C109.625 75.5972 109.818 75.2106 110.205 75.2106C110.398 75.2106 110.785 75.4039 110.785 75.7906C110.785 82.5576 110.978 82.751 116.779 82.751C116.972 82.751 117.359 82.9443 117.359 83.331C117.359 83.7177 117.165 83.911 116.779 83.911C110.785 83.911 110.785 84.1043 110.785 90.8713C110.785 91.258 110.592 91.4514 110.205 91.4514ZM108.658 83.5243C109.432 83.911 110.012 84.2977 110.205 85.2644C110.592 84.4911 110.978 83.911 111.752 83.5243C110.978 83.1376 110.398 82.751 110.205 81.7843C110.012 82.751 109.432 83.1376 108.658 83.5243Z" fill="#BB8E4D"/>
<path d="M87.1981 171.109C84.6846 171.109 82.1711 170.529 80.0443 169.175C76.5642 167.242 74.0508 163.955 72.8907 160.088C71.7307 156.221 72.3106 152.161 74.244 148.681C79.271 139.594 79.0777 138.24 78.8843 138.047C77.5309 137.08 75.9841 136.114 74.244 134.954C68.8304 131.473 62.8369 127.413 60.9034 126.253L48.1427 119.293C45.6292 117.939 43.6958 115.619 42.7291 112.912L32.4819 84.2977L27.0684 59.5498C27.0684 59.3565 27.0684 59.3564 27.0684 59.1631C27.0684 59.1631 27.6483 58.003 28.8084 57.8097C29.9684 57.6163 31.3219 58.5831 32.8687 60.5165C35.5755 63.9967 37.1222 69.6036 37.7022 72.3104C38.669 70.1836 40.6024 66.3167 41.5691 65.7367L41.9558 65.5434C48.5295 61.0965 52.3963 58.7764 53.7497 58.7764C54.5231 58.7764 54.9097 59.163 55.2964 59.9364C56.0698 61.8698 54.7164 65.9301 52.203 68.0568C49.4962 70.377 46.4027 73.0838 45.8227 73.6638L43.1158 81.9776L45.436 79.6574C45.2426 79.0774 44.6625 77.7241 45.2425 76.564C46.2093 75.0172 47.9494 74.2438 49.8828 74.8239C50.4629 75.0172 50.8495 75.0172 51.0428 75.2106C52.2029 74.4372 55.2964 72.3105 57.2299 72.1171C58.0032 71.9238 59.55 71.7304 61.0967 71.3437C65.1569 70.377 67.8638 69.797 68.6371 70.1837C69.2172 70.377 69.4105 70.7637 69.6039 71.3437C69.7972 72.6971 68.6371 74.6306 66.317 76.564C63.8035 78.6908 60.71 79.8508 59.1633 80.2374L59.9367 80.8176C62.4502 79.8509 69.6038 76.9506 71.1506 77.724C71.924 78.1107 72.3106 78.8841 72.3106 79.6574C72.3106 81.2042 71.3439 82.751 69.7972 83.7177C68.2504 84.6844 67.0904 85.4578 66.317 85.8444C68.6371 87.5845 77.5309 94.1582 80.2377 95.7049C83.3312 97.445 92.805 106.919 94.5451 110.592C94.9318 111.559 95.8985 113.106 96.8652 114.846C99.3787 119.293 102.279 124.9 103.052 127.413C103.826 130.313 103.632 140.174 102.472 156.801C102.086 161.828 99.1854 166.469 94.7385 168.982C92.0317 170.529 89.7115 171.109 87.1981 171.109ZM33.2554 84.1043L43.5025 112.719C44.4692 115.233 46.2093 117.359 48.5294 118.519L61.2901 125.48C63.4169 126.64 69.4105 130.7 74.8242 134.18C76.5642 135.34 78.1109 136.307 79.4643 137.274C80.0444 137.66 81.2044 138.434 75.0175 149.261C73.2774 152.548 72.6974 156.221 73.8574 159.895C74.8242 163.568 77.3376 166.469 80.6245 168.209C84.878 170.529 89.9049 170.529 93.9651 168.209C98.2186 165.888 100.925 161.635 101.119 156.995C102.279 140.561 102.472 130.507 101.699 127.993C101.119 125.673 98.0253 119.873 95.7052 115.619C94.7385 113.879 93.9651 112.332 93.3851 111.366C91.8383 108.272 82.7512 98.7984 79.4643 97.0583C76.1775 95.3182 65.3503 87.0046 64.7703 86.6179C64.5769 86.6179 64.5769 86.4245 64.5769 86.2312C64.5769 86.0378 64.5769 85.8444 64.7703 85.8444C64.7703 85.8444 66.1236 84.8778 68.8304 83.331C70.3772 82.3643 70.9573 81.0108 70.9573 80.2374C70.9573 79.8508 70.9572 79.2708 70.3772 79.0774C69.6038 78.6907 64.1902 80.4308 59.7433 82.1709C59.5499 82.1709 59.3566 82.1709 59.1633 82.1709L57.4233 80.8176C57.2299 80.6242 57.2299 80.4308 57.2299 80.2374C57.2299 80.0441 57.4232 79.8509 57.6166 79.8509C57.6166 79.8509 62.0635 78.8841 65.3503 76.1773C67.6704 74.2439 68.4438 72.6971 68.2504 71.9237C68.2504 71.7304 68.0571 71.537 67.8637 71.3437C67.2837 71.1504 63.4168 71.9237 61.0967 72.5037C59.3566 72.8904 58.0032 73.2771 57.2299 73.2771C55.8764 73.4705 53.1697 75.0172 51.2363 76.3706C51.0429 76.5639 50.8496 76.5639 50.6563 76.3706C50.6563 76.3706 50.4628 76.1773 49.4961 75.984C47.3693 75.404 46.4027 76.564 46.016 77.144C45.6293 77.9174 46.2093 79.0775 46.4027 79.4641C46.596 79.6575 46.4027 79.8508 46.4027 80.0441L42.3424 84.1043C42.1491 84.2977 41.9557 84.2977 41.7624 84.1043C41.5691 83.911 41.5691 83.7176 41.5691 83.5243L45.0493 73.0838C45.0493 73.0838 45.0492 72.8904 45.2425 72.8904C45.2425 72.8904 48.7228 69.9903 51.623 67.2835C53.9431 65.3501 54.9097 61.4832 54.3297 60.1298C54.1364 59.7431 53.943 59.7431 53.7497 59.7431C52.9763 59.7431 50.6562 60.5165 42.5358 66.3168L42.1491 66.5101C41.5691 66.8968 39.6357 70.5704 38.0889 74.0506C38.0889 74.2439 37.7022 74.4372 37.5088 74.2439C37.3155 74.2439 37.1222 74.0505 37.1222 73.8571C37.1222 73.8571 35.5754 65.5434 32.0952 61.0965C30.3551 58.9698 29.3884 58.7764 28.8084 58.7764C28.4217 58.7764 28.0351 59.1631 28.0351 59.3564L33.2554 84.1043ZM62.8369 99.3785C61.0968 99.3785 58.7767 99.1852 56.4566 98.2185C56.2632 98.2185 56.2632 98.0251 56.0698 97.8317L55.6831 94.9316C55.6831 94.7383 55.6831 94.7382 55.6831 94.5449L57.2299 92.2247C57.2299 92.0314 57.4232 92.0314 57.6166 92.0314C57.8099 92.0314 57.8099 92.0314 58.0033 92.2247L65.5436 98.605C65.7369 98.7984 65.737 98.9918 65.737 99.1852C65.737 99.3785 65.5436 99.5718 65.3503 99.5718C65.5436 99.1851 64.3836 99.3785 62.8369 99.3785ZM57.2299 97.445C59.7433 98.4118 62.6435 98.4118 64.3836 98.4118L58.1966 93.1915L57.0366 94.9316L57.2299 97.445ZM49.8828 92.6115C49.6895 92.6115 49.6895 92.6115 49.4961 92.4182C49.3028 92.2248 47.3693 90.4847 48.5294 89.1313C49.3028 88.1646 50.6563 86.4244 50.6563 86.4244C50.8496 86.2311 51.0429 86.2312 51.2363 86.2312L52.5897 87.0045C52.783 87.0045 52.783 87.1978 52.783 87.3912C52.783 87.5845 52.783 87.7779 52.5897 87.7779C51.8163 88.5512 50.8496 89.7113 50.8496 89.9046C50.8496 90.0979 50.4629 91.2581 50.2695 92.0314C50.2695 92.4181 50.0762 92.6115 49.8828 92.6115ZM51.0428 87.5846C50.6562 88.1646 49.6894 89.1312 49.1094 89.9046C48.9161 90.0979 49.1094 90.678 49.4961 91.258C49.6895 90.678 49.8828 90.0979 49.8828 89.9046C50.0762 89.5179 50.8495 88.7445 51.4296 87.9712L51.0428 87.5846Z" fill="#BB8E4D"/>
<path d="M87.1975 125.673C87.0042 125.673 86.8108 125.48 86.8108 125.48C81.3972 114.073 57.8094 104.405 57.6161 104.212C57.4227 104.212 57.4227 104.019 57.2293 103.825L56.0693 94.9316C56.0693 94.7382 56.0693 94.7382 56.0693 94.5449L60.3229 88.3579L60.5162 88.1646L64.9631 85.8444C65.1564 85.6511 65.5431 85.8444 65.5431 86.0377C65.7364 86.2311 65.5431 86.6179 65.3498 86.6179L60.9029 88.9379L56.8426 94.9316L58.0028 103.439C59.1628 104.019 64.5764 106.339 70.3767 109.626C79.2705 114.846 85.0708 120.066 87.391 124.9C87.5843 125.093 87.3909 125.48 87.1975 125.48C87.1975 125.673 87.1975 125.673 87.1975 125.673Z" fill="#BB8E4D"/>
<path d="M47.5619 109.046C47.1753 109.046 46.9819 108.852 46.9819 108.466C47.1753 106.725 48.9154 91.4513 49.8821 89.7112C50.8488 87.9712 57.2292 81.9775 59.3559 81.2041C59.5493 81.0108 59.936 81.2042 59.936 81.3975C60.1293 81.5909 59.9359 81.9775 59.7425 81.9775C57.8091 82.7509 51.8155 88.3579 50.8488 90.098C50.2688 91.258 48.722 101.892 48.1419 108.466C47.9486 108.852 47.7553 109.046 47.5619 109.046Z" fill="#BB8E4D"/>
<path d="M40.2148 99.7652C40.0214 99.7652 39.6348 99.5718 39.6348 99.3785L39.248 87.3912C39.248 86.4244 39.6347 85.2645 40.4081 84.6844L41.5682 83.5243L45.6283 79.4641L50.4619 75.5973C50.6553 75.4039 51.042 75.4039 51.2353 75.5973C51.4287 75.7906 51.4287 76.1772 51.2353 76.3706L46.4018 80.0441L42.3415 84.1043L41.1815 85.2644C40.6014 85.8445 40.4081 86.6178 40.4081 87.1979L40.7948 99.1852C40.6014 99.5719 40.4081 99.7652 40.2148 99.7652Z" fill="#BB8E4D"/>
<path d="M34.0283 80.4308H33.835C33.6417 80.2375 33.4483 80.0442 33.6416 79.8508L36.9285 73.8571C37.1218 73.6638 37.3151 73.4705 37.5085 73.6638C37.7018 73.8572 37.8952 74.0505 37.7019 74.4371L34.415 80.4308C34.415 80.4308 34.2216 80.4308 34.0283 80.4308Z" fill="#BB8E4D"/>
<path d="M50.8501 87.3912C50.6567 87.3912 50.6567 87.3912 50.4634 87.1979C50.27 87.0045 50.27 86.8111 50.4634 86.4244L54.5236 81.0109L54.7169 80.8176L57.4238 79.4641C57.6171 79.2708 58.0038 79.4641 58.0038 79.6574C58.1971 79.8508 58.0037 80.2374 57.8104 80.2374L55.1037 81.5909L51.0434 86.8111C51.2367 87.3912 51.0434 87.3912 50.8501 87.3912Z" fill="#BB8E4D"/>
<path d="M5.60679 37.3154C5.41345 37.3154 5.41355 37.3153 5.2202 37.1219C5.02686 36.9286 5.02686 36.542 5.2202 36.3486L10.2471 31.3216C10.4404 31.1283 10.8272 31.1283 11.0205 31.3216C11.2138 31.515 11.2138 31.9017 11.0205 32.0951L5.9935 37.1219C5.9935 37.3153 5.80014 37.3154 5.60679 37.3154Z" fill="#BB8E4D"/>
<path d="M29.3882 13.534C29.1948 13.534 29.1948 13.534 29.0015 13.3407C28.8081 13.1473 28.8081 12.7606 29.0015 12.5673L34.0283 7.54039C34.2217 7.34705 34.6084 7.34705 34.8017 7.54039C34.9951 7.73374 34.9951 8.12047 34.8017 8.31381L29.7748 13.3407C29.5814 13.534 29.3882 13.534 29.3882 13.534Z" fill="#BB8E4D"/>
<path d="M34.415 37.3154C34.2217 37.3154 34.2217 37.3153 34.0283 37.1219L29.0015 32.0951C28.8081 31.9017 28.8081 31.515 29.0015 31.3216C29.1948 31.1283 29.5814 31.1283 29.7748 31.3216L34.8017 36.3486C34.9951 36.542 34.9951 36.9286 34.8017 37.1219C34.6084 37.3153 34.415 37.3154 34.415 37.3154Z" fill="#BB8E4D"/>
<path d="M10.6338 13.534C10.4404 13.534 10.4404 13.534 10.2471 13.3407L5.2202 8.31381C5.02686 8.12047 5.02686 7.73374 5.2202 7.54039C5.41355 7.34705 5.80016 7.34705 5.9935 7.54039L11.0205 12.5673C11.2138 12.7606 11.2138 13.1473 11.0205 13.3407C10.8272 13.534 10.8271 13.534 10.6338 13.534Z" fill="#BB8E4D"/>
<path d="M19.9143 44.8556C19.721 44.8556 19.5276 44.6623 19.5276 44.4689C18.3676 41.7621 17.5942 37.702 17.0142 32.2883C16.8208 30.9349 16.4341 29.7749 15.6608 28.6149C14.5007 29.3883 13.1473 30.3549 12.1806 30.9349C11.9873 30.9349 11.7939 30.935 11.6006 30.7416C11.4073 30.5483 11.4073 30.355 11.6006 30.1616C11.6006 30.1616 12.7607 28.6148 13.9207 26.8748C12.7607 26.1014 11.6006 25.5214 10.0539 25.328C6.18701 24.748 2.90017 23.9746 0.38671 23.0079C0.193367 23.0079 0 22.8146 0 22.4279C0 22.2345 0.193367 22.0412 0.38671 22.0412C0.38671 22.0412 5.60688 20.8812 10.4405 19.9144C11.6005 19.7211 12.7606 19.141 13.7273 18.561C12.5673 17.0143 11.7939 15.8542 11.4072 14.6942C11.4072 14.5008 11.4073 14.3075 11.6006 14.1141C11.7939 13.9208 11.9873 13.9207 12.1806 13.9207C13.1473 14.3074 14.5008 15.0808 15.8542 16.2409C16.4342 15.2742 16.8208 14.1141 17.0142 12.954C17.5942 7.34707 18.3676 3.09351 19.5276 0.38671C19.5276 0.193367 19.721 0 19.9143 0C20.1077 0 20.301 0.193367 20.301 0.38671C21.4611 3.09351 22.2344 7.34707 22.8145 12.954C23.0078 14.3074 23.3945 15.4675 24.1679 16.4342C25.908 15.2741 27.6481 13.9207 27.6481 13.9207C27.8414 13.7274 28.0347 13.7274 28.2281 13.9207C28.4214 14.1141 28.4215 14.3074 28.4215 14.5007C28.0348 15.4675 26.8746 17.0142 25.9079 18.3676C26.8746 19.141 28.0347 19.5278 29.1948 19.9144C34.0284 20.6878 39.2486 22.0412 39.2486 22.0412C39.442 22.0412 39.6354 22.2345 39.6354 22.4279C39.6354 22.6212 39.442 22.8145 39.2486 23.0079C36.5418 23.9746 33.255 24.748 29.5815 25.328C28.2281 25.5214 27.0681 25.9081 26.1013 26.6815C27.0681 28.0349 27.8414 29.3882 28.2281 30.3549C28.2281 30.5483 28.2281 30.7416 28.0348 30.9349C27.8414 31.1283 27.6481 31.1283 27.4548 31.1283C26.488 30.7416 25.3279 29.9682 23.9745 29.0015C23.2011 30.1615 22.8145 31.3216 22.6212 32.675C22.0412 38.0887 21.2677 42.1488 20.1076 44.8556C20.301 44.6623 20.1077 44.8556 19.9143 44.8556ZM15.8542 27.4548C16.0475 27.4548 16.2408 27.4548 16.2408 27.6482C17.2075 29.0016 17.9808 30.5483 18.1742 32.2883C18.5609 36.7352 19.3343 40.4088 20.1076 42.9222C20.881 40.4088 21.6544 36.7352 22.0411 32.2883C22.2344 30.7416 22.8145 29.1949 23.7812 27.8415C23.9745 27.6481 24.1679 27.6481 24.5546 27.8415C25.5213 28.4215 26.2946 29.0015 26.8746 29.3882C26.488 28.6148 25.908 27.8415 25.1346 26.8748C24.9413 26.6814 24.9413 26.2947 25.1346 26.1013C26.488 25.1346 27.8414 24.3612 29.5815 24.1679C32.675 23.7812 35.1884 23.2013 37.5085 22.4279C35.5751 22.0412 32.2883 21.2678 29.1948 20.6877C27.648 20.4944 26.2947 19.721 25.1346 18.7543C24.9413 18.561 24.9413 18.3677 25.1346 17.981C25.5213 17.401 26.1014 16.6276 26.488 16.0476C25.908 16.4343 25.1346 17.0142 24.5546 17.4009C24.3613 17.5942 23.9745 17.5943 23.7812 17.2076C22.8145 15.8542 22.2344 14.3075 22.0411 12.7607C21.6544 8.12049 20.881 4.44694 20.1076 1.74014C19.3343 4.44694 18.5609 8.12049 18.1742 12.7607C17.9808 14.3075 17.4008 15.6609 16.6275 17.0143C16.6275 17.2076 16.4341 17.2076 16.2408 17.2076C16.0474 17.2076 16.0475 17.2076 15.8542 17.2076C14.8875 16.4342 14.114 15.8541 13.3406 15.4675C13.7273 16.2408 14.5007 17.2076 15.0807 18.1743C15.2741 18.3677 15.2741 18.7544 15.0807 18.9477C13.9207 19.9144 12.5673 20.6878 11.0206 20.8812C7.9271 21.4612 4.64017 22.2345 2.70673 22.6212C5.02685 23.3946 7.54039 23.9746 10.6339 24.3613C12.374 24.5547 13.9206 25.328 15.274 26.488C15.4674 26.6814 15.4674 26.8747 15.274 27.0681C14.8874 27.6481 14.3074 28.2282 13.9207 28.8082C14.5008 28.4215 15.0807 28.0349 15.6608 27.6482C15.6608 27.4548 15.6608 27.4548 15.8542 27.4548Z" fill="#BB8E4D"/>
<path d="M130.12 157.188C129.927 157.188 129.733 156.995 129.733 156.801C129.54 156.221 129.347 155.448 129.153 154.481C128.573 151.774 126.64 149.648 123.933 148.874C123.353 148.681 122.773 148.488 122.193 148.294C122 148.294 121.806 148.101 121.806 147.714C121.806 147.521 122 147.328 122.193 147.328C122.193 147.328 122.773 147.134 123.546 147.134C126.446 146.554 128.573 144.234 128.96 141.527C129.153 140.561 129.347 139.594 129.54 139.014C129.54 138.821 129.733 138.627 129.927 138.627C130.12 138.627 130.313 138.821 130.313 139.014C130.507 139.594 130.893 140.561 130.893 141.527C131.473 144.427 133.6 146.554 136.307 147.134C137.08 147.328 137.467 147.328 137.467 147.328C137.66 147.328 137.854 147.521 137.854 147.714C137.854 147.908 137.66 148.101 137.467 148.294C136.887 148.488 136.307 148.681 135.727 148.874C133.02 149.454 131.087 151.774 130.507 154.481C130.313 155.448 130.12 156.221 129.927 156.801C130.507 157.188 130.313 157.188 130.12 157.188ZM124.32 148.101C127.22 148.874 129.54 151.388 130.12 154.481C130.12 154.675 130.12 154.868 130.313 155.061C130.313 154.868 130.313 154.675 130.507 154.481C131.087 151.388 133.407 148.874 136.307 148.101C133.407 147.328 131.087 144.814 130.7 141.721C130.7 141.527 130.507 141.141 130.507 140.947C130.507 141.141 130.313 141.527 130.313 141.721C129.346 144.814 127.22 147.134 124.32 148.101Z" fill="#BB8E4D"/>
<path d="M25.5205 164.728C25.3271 164.728 24.9404 164.535 24.9404 164.148C24.9404 151.581 24.5537 151.001 13.3398 151.001C13.1464 151.001 12.7598 150.808 12.7598 150.421C12.7598 150.228 12.9531 149.841 13.3398 149.841C24.5537 149.841 24.9404 149.261 24.9404 136.694C24.9404 136.5 25.1338 136.114 25.5205 136.114C25.9072 136.114 26.1005 136.307 26.1005 136.694C26.1005 149.261 26.4872 149.841 37.7011 149.841C37.8944 149.841 38.2811 150.034 38.2811 150.421C38.2811 150.614 38.0878 151.001 37.7011 151.001C26.4872 151.001 26.1005 151.581 26.1005 164.148C25.9072 164.535 25.7138 164.728 25.5205 164.728ZM21.0735 150.614C23.587 151.194 24.9405 152.548 25.5205 155.448C26.1005 152.548 27.2606 151.388 29.9674 150.614C27.4539 150.034 26.1005 148.681 25.5205 145.781C24.9405 148.681 23.587 149.841 21.0735 150.614Z" fill="#BB8E4D"/>
</svg>
