<svg width="26" height="265" viewBox="0 0 26 265" fill="none" xmlns="http://www.w3.org/2000/svg">
<g clip-path="url(#clip0_9486_16955)">
<path d="M21.2588 80.8135C21.1024 80.8135 21.1024 80.8135 20.9461 80.6572L17.8199 77.531C17.6636 77.3747 17.6636 77.062 17.8199 76.9057C17.9762 76.7494 18.2888 76.7494 18.4452 76.9057L21.5714 80.0319C21.7277 80.1882 21.7277 80.5009 21.5714 80.6572C21.4151 80.8135 21.2588 80.8135 21.2588 80.8135Z" fill="#BB8E4D"/>
<path d="M6.72214 66.4326C6.56583 66.4326 6.56581 66.4326 6.40949 66.2763L3.28325 63.1501C3.12694 62.9938 3.12694 62.6811 3.28325 62.5248C3.43956 62.3685 3.75213 62.3685 3.90844 62.5248L7.03469 65.6511C7.191 65.8074 7.191 66.12 7.03469 66.2763C6.87837 66.2763 6.87845 66.4326 6.72214 66.4326Z" fill="#BB8E4D"/>
<path d="M3.59589 80.8135C3.43958 80.8135 3.43956 80.8135 3.28325 80.6572C3.12694 80.5009 3.12694 80.1882 3.28325 80.0319L6.40949 76.9057C6.56581 76.7494 6.87837 76.7494 7.03469 76.9057C7.191 77.062 7.191 77.3747 7.03469 77.531L3.90844 80.6572C3.90844 80.8135 3.75221 80.8135 3.59589 80.8135Z" fill="#BB8E4D"/>
<path d="M18.1325 66.4326C17.9762 66.4326 17.9762 66.4326 17.8199 66.2763C17.6636 66.12 17.6636 65.8074 17.8199 65.6511L20.9461 62.5248C21.1024 62.3685 21.4151 62.3685 21.5714 62.5248C21.7277 62.6811 21.7277 62.9938 21.5714 63.1501L18.4452 66.2763C18.4452 66.2763 18.2888 66.4326 18.1325 66.4326Z" fill="#BB8E4D"/>
<path d="M12.505 85.5029C12.3487 85.5029 12.1924 85.3466 12.1924 85.1903C11.5672 83.4708 11.0982 80.9698 10.6293 77.6873C10.6293 76.9057 10.3167 76.2805 9.84775 75.6552C9.06619 76.2805 8.28459 76.7494 7.65934 76.9057C7.50303 76.9057 7.34673 76.9057 7.19042 76.7494C7.03411 76.5931 7.03405 76.4368 7.03405 76.2805C7.34667 75.6552 7.65938 75.03 8.28462 74.0921C7.65938 73.6232 7.03405 73.4669 6.25249 73.3105C3.90781 72.9979 1.87577 72.529 0.312644 71.9037C0.156331 71.9037 0 71.7474 0 71.4348C0 71.2785 0.156331 71.1222 0.312644 71.1222C0.312644 71.1222 3.5952 70.3406 6.56513 69.8717C7.19038 69.7153 7.97196 69.4027 8.4409 69.0901C7.81565 68.3085 7.34667 67.527 7.03405 66.9017C7.03405 66.7454 7.03411 66.5891 7.19042 66.4328C7.34673 66.2765 7.50303 66.2765 7.65934 66.4328C7.65934 66.4328 8.59719 67.2144 9.69138 67.8396C10.1603 67.2144 10.3166 66.5891 10.4729 65.8076C10.7856 62.3687 11.4108 59.7114 12.0361 57.992C12.0361 57.8357 12.1924 57.6793 12.3487 57.6793C12.505 57.6793 12.6613 57.8357 12.6613 57.992C13.2866 59.7114 13.9118 62.3687 14.2245 65.8076C14.2245 66.4328 14.537 67.058 14.8497 67.6833C15.7875 67.058 16.4128 66.5891 17.0381 66.2765C17.1944 66.2765 17.3507 66.2765 17.507 66.4328C17.6633 66.5891 17.6634 66.7454 17.6634 66.9017C17.3507 67.527 16.8818 68.3085 16.2565 69.2464C16.8818 69.7154 17.507 69.8717 18.1323 70.028C21.1022 70.4969 24.2285 71.2785 24.3848 71.2785C24.5411 71.2785 24.6974 71.4348 24.6974 71.5911C24.6974 71.7474 24.5411 71.9038 24.3848 72.0601C22.8216 72.6853 20.7896 73.1542 18.4449 73.4669C17.6634 73.6232 16.8818 73.9358 16.2565 74.4047C17.0381 75.3426 17.6634 76.4368 17.6634 76.4368C17.8197 76.5931 17.8197 76.7494 17.6634 76.9057C17.507 77.062 17.3507 77.062 17.1943 77.062C16.5691 76.7494 15.7876 76.2805 15.1623 75.8116C14.6934 76.4368 14.5371 77.2183 14.3807 77.8436C14.0681 81.1261 13.4429 83.6272 12.8176 85.3466C12.8176 85.5029 12.6613 85.5029 12.505 85.5029ZM9.84775 74.7173C10.0041 74.7173 10.1603 74.7174 10.1603 74.8737C10.7855 75.6552 11.0982 76.5931 11.2545 77.6873C11.5671 80.1883 11.8798 82.3766 12.3487 83.9398C12.8176 82.3766 13.1303 80.3446 13.4429 77.6873C13.5992 76.5931 13.9119 75.6552 14.5371 74.8737C14.6934 74.7174 14.8497 74.7174 15.1623 74.8737C15.3186 75.03 15.475 75.1863 15.7876 75.3426C15.6313 75.1863 15.475 74.8737 15.3187 74.7173C15.1624 74.561 15.1624 74.2484 15.3187 74.2484C16.1002 73.6232 17.1944 73.1542 18.2885 72.9979C20.008 72.8416 21.4148 72.3727 22.8216 72.0601C21.5711 71.7474 19.8517 71.4348 17.9759 71.1222C17.038 70.9659 16.1002 70.4969 15.4749 69.8717C15.3186 69.7153 15.3186 69.559 15.4749 69.2464C15.7876 68.7775 16.1002 68.3086 16.4128 67.9959C16.1002 68.3086 15.6312 68.4649 15.1623 68.7775C15.006 68.7775 15.006 68.9338 14.8497 68.7775C14.6933 68.7775 14.6934 68.7775 14.5371 68.6212C13.9119 67.8396 13.5992 66.9017 13.5992 65.9639C13.2866 63.3065 12.9739 61.1182 12.505 59.5551C12.036 61.1182 11.7235 63.3065 11.4109 65.9639C11.2546 66.9017 10.9419 67.9959 10.3167 68.7775C10.1604 68.9338 10.004 68.9338 9.69138 68.9338C9.37875 68.7775 9.22244 68.6212 8.90982 68.4649C9.06613 68.7775 9.22242 68.9338 9.37873 69.2464C9.53505 69.4027 9.53505 69.7153 9.37873 69.8717C8.59717 70.4969 7.65938 70.9659 6.7215 71.1222C5.00207 71.4348 3.12632 71.7474 2.03214 72.0601C3.28263 72.529 4.8457 72.8416 6.56513 72.9979C7.50301 73.1542 8.44086 73.4669 9.37873 74.2484C9.53505 74.4047 9.53505 74.561 9.37873 74.8737C9.06611 75.3426 8.75348 75.6552 8.59717 75.9679C8.9098 75.8116 9.37875 75.4989 9.69138 75.1863C9.69138 74.7174 9.84775 74.7173 9.84775 74.7173Z" fill="#BB8E4D"/>
<path d="M12.5054 30.4808C12.3491 30.4808 12.1928 30.3244 12.0365 30.1681L10.786 24.0719L4.84617 26.104C4.68986 26.104 4.53357 26.104 4.37725 25.9477C4.22094 25.7914 4.37722 25.6351 4.53353 25.4788L9.2229 21.2583L4.53353 17.0379C4.37722 16.8816 4.37725 16.7253 4.37725 16.569C4.53357 16.4127 4.68986 16.2563 4.84617 16.4127L10.786 18.4447L12.0365 12.3485C12.0365 12.1922 12.1928 12.0359 12.5054 12.0359C12.6617 12.0359 12.8181 12.1922 12.9744 12.3485L14.2249 18.4447L20.1648 16.4127C20.3211 16.4127 20.4774 16.4127 20.6337 16.569C20.79 16.7253 20.6337 16.8816 20.4774 17.0379L15.788 21.2583L20.4774 25.4788C20.6337 25.6351 20.6337 25.7914 20.6337 25.9477C20.4774 26.104 20.3211 26.2603 20.1648 26.104L14.2249 24.0719L12.9744 30.1681C12.8181 30.3244 12.6617 30.4808 12.5054 30.4808ZM11.0987 23.1341H11.2549C11.4112 23.1341 11.4113 23.2904 11.4113 23.4467L12.3491 28.1361L13.287 23.4467C13.287 23.2904 13.4433 23.2904 13.4433 23.1341C13.5997 23.1341 13.5997 23.1341 13.756 23.1341L18.289 24.6972L14.6938 21.5709C14.5375 21.5709 14.5375 21.4147 14.5375 21.2583C14.5375 21.102 14.5375 21.102 14.6938 20.9457L18.289 17.8195L13.756 19.3826C13.5997 19.3826 13.5997 19.3826 13.4433 19.3826C13.287 19.3826 13.287 19.2263 13.287 19.0699L12.3491 14.3806L11.4113 19.0699C11.4113 19.2263 11.2549 19.2263 11.2549 19.3826C11.0986 19.3826 11.0986 19.3826 10.9423 19.3826L6.40929 17.8195L10.0045 20.9457C10.1608 20.9457 10.1607 21.102 10.1607 21.2583C10.1607 21.4147 10.1608 21.4146 10.0045 21.5709L6.40929 24.6972L11.0987 23.1341Z" fill="#BB8E4D"/>
<path d="M11.7232 151.154C11.5669 151.154 11.4106 150.998 11.2543 150.841L10.0038 144.745L4.06395 146.777C3.90763 146.777 3.75134 146.777 3.59503 146.621C3.43872 146.465 3.59499 146.308 3.7513 146.152L8.44067 141.932L3.7513 137.711C3.59499 137.555 3.59503 137.398 3.59503 137.242C3.75134 137.086 3.90763 136.93 4.06395 137.086L10.0038 139.118L11.2543 133.022C11.2543 132.865 11.4106 132.709 11.7232 132.709C11.8795 132.709 12.0359 132.865 12.1922 133.022L13.4427 139.118L19.3825 137.086C19.5388 137.086 19.6951 137.086 19.8514 137.242C20.0078 137.398 19.8515 137.555 19.6952 137.711L15.0058 141.932L19.6952 146.152C19.8515 146.308 19.8514 146.465 19.8514 146.621C19.6951 146.777 19.5388 146.934 19.3825 146.777L13.4427 144.745L12.1922 150.841C12.0359 151.154 11.8795 151.154 11.7232 151.154ZM10.3164 143.807H10.4727C10.629 143.807 10.6291 143.964 10.6291 144.12L11.5669 148.809L12.5047 144.12C12.5047 143.964 12.6611 143.964 12.6611 143.807C12.8174 143.807 12.8174 143.807 12.9738 143.807L17.5068 145.37L13.9116 142.244C13.7553 142.244 13.7553 142.088 13.7553 141.932C13.7553 141.775 13.7553 141.775 13.9116 141.619L17.5068 138.493L12.9738 140.056C12.8174 140.056 12.8174 140.056 12.6611 140.056C12.5048 140.056 12.5047 139.899 12.5047 139.743L11.5669 135.054L10.6291 139.743C10.6291 139.899 10.4727 139.899 10.4727 140.056C10.3164 140.056 10.3164 140.056 10.1601 140.056L5.62707 138.493L9.22223 141.619C9.37854 141.619 9.3785 141.775 9.3785 141.932C9.3785 142.088 9.37854 142.088 9.22223 142.244L5.62707 145.37L10.3164 143.807Z" fill="#BB8E4D"/>
<path d="M22.3525 40.9537C22.1962 40.9537 22.0399 40.7974 22.0399 40.6411C22.0399 40.4848 21.8835 40.1722 21.8835 40.0159C21.7272 39.3906 21.2583 38.9217 20.7894 38.7654C20.6331 38.7654 20.4767 38.609 20.3204 38.609C20.164 38.609 20.0078 38.4527 20.0078 38.1401C20.0078 37.9838 20.164 37.8275 20.3204 37.8275C20.3204 37.8275 20.4767 37.8275 20.633 37.8275C21.2583 37.6712 21.7272 37.2022 21.8835 36.577C21.8835 36.2644 22.0399 36.1081 22.0399 35.7954C22.0399 35.6391 22.1962 35.4828 22.3525 35.4828C22.5088 35.4828 22.665 35.6391 22.665 35.7954C22.665 35.9517 22.8214 36.2644 22.8214 36.577C22.9777 37.2022 23.4466 37.6712 24.0719 37.8275C24.2282 37.8275 24.3845 37.8275 24.3845 37.8275C24.5408 37.8275 24.6972 37.9838 24.6972 38.1401C24.6972 38.2964 24.5408 38.4527 24.3845 38.609C24.2282 38.609 24.0719 38.7654 23.9156 38.7654C23.2904 38.9217 22.8214 39.3906 22.8214 40.0159C22.8214 40.3285 22.665 40.4848 22.665 40.6411C22.665 40.7974 22.5088 40.9537 22.3525 40.9537ZM21.5709 38.1401C21.8836 38.2964 22.1961 38.7654 22.5088 39.078C22.6651 38.6091 22.9777 38.2964 23.4466 38.1401C23.134 37.9838 22.8214 37.5149 22.5088 37.2022C22.1961 37.6712 21.8836 37.9838 21.5709 38.1401Z" fill="#BB8E4D"/>
<path d="M7.03395 49.7072C6.87764 49.7072 6.7214 49.5509 6.7214 49.3946C6.56509 49.082 6.40876 48.613 6.40876 48.1441C6.09613 46.8936 5.1582 45.7994 3.90771 45.4868C3.59508 45.3305 3.28249 45.3305 2.96987 45.1742C2.81356 45.1742 2.65723 45.0179 2.65723 44.7052C2.65723 44.5489 2.81356 44.3926 2.96987 44.3926C2.96987 44.3926 3.28253 44.3926 3.59516 44.2363C5.00197 43.9236 5.93976 42.8295 6.25239 41.579C6.4087 41.1101 6.40872 40.6411 6.56503 40.3285C6.56503 40.1722 6.72136 40.0159 6.87768 40.0159C7.03399 40.0159 7.19032 40.1722 7.19032 40.3285C7.34663 40.6411 7.50296 41.1101 7.50296 41.579C7.81559 42.9858 8.75339 43.9236 10.1602 44.2363C10.4728 44.3926 10.7855 44.3926 10.7855 44.3926C10.9418 44.3926 11.0981 44.5489 11.0981 44.7052C11.0981 44.8615 10.9418 45.0178 10.7855 45.1742C10.4729 45.3305 10.1603 45.3305 9.84765 45.4868C8.59715 45.7994 7.65922 46.8936 7.34659 48.1441C7.19028 48.613 7.19026 49.082 7.03395 49.3946C7.34657 49.7072 7.19026 49.7072 7.03395 49.7072ZM4.68927 45.0178C5.93976 45.4868 6.8777 46.581 7.19032 47.8315C7.50294 46.581 8.44078 45.4868 9.69128 45.0178C8.44078 44.5489 7.50294 43.4547 7.19032 42.2042C6.72138 43.4547 5.78345 44.3926 4.68927 45.0178Z" fill="#BB8E4D"/>
<path d="M10.9421 195.547C10.7858 195.547 10.6295 195.39 10.6295 195.234C10.3169 194.609 10.1606 193.671 9.84796 192.577C9.22271 189.45 7.03432 187.106 4.06439 186.324C3.43914 186.168 2.81387 186.012 2.18862 185.699C2.03231 185.699 1.87598 185.543 1.87598 185.23C1.87598 185.074 2.03231 184.917 2.18862 184.917C2.18862 184.917 2.81391 184.761 3.59547 184.605C6.72171 183.98 9.22265 181.479 9.69159 178.196C9.8479 177.102 10.1605 176.164 10.4731 175.382C10.4731 175.226 10.6295 175.07 10.7858 175.07C10.9421 175.07 11.0984 175.226 11.0984 175.382C11.4111 176.164 11.5674 177.102 11.88 178.196C12.5052 181.322 14.8499 183.823 17.9761 184.605C18.7577 184.761 19.383 184.917 19.383 184.917C19.5393 184.917 19.6956 185.074 19.6956 185.23C19.6956 185.386 19.5393 185.543 19.383 185.699C18.7577 185.855 18.2888 186.168 17.5072 186.324C14.5373 187.106 12.3489 189.607 11.7236 192.577C11.5673 193.671 11.2547 194.452 11.0984 195.234C11.2547 195.39 11.0984 195.547 10.9421 195.547ZM3.90802 185.543C4.06433 185.543 4.22066 185.543 4.22066 185.699C7.50322 186.48 10.0043 189.294 10.6295 192.577C10.7858 193.046 10.7858 193.515 10.9421 193.827C11.0984 193.358 11.0984 193.046 11.2547 192.577C11.88 189.138 14.381 186.48 17.6636 185.699C17.8199 185.699 17.9761 185.699 17.9761 185.543C14.5372 184.761 11.88 182.104 11.2547 178.509C11.0984 178.04 11.0984 177.414 10.9421 177.102C10.7858 177.571 10.7858 178.04 10.6295 178.665C10.0043 181.947 7.34689 184.761 3.90802 185.543Z" fill="#BB8E4D"/>
<path d="M20.1642 3.43881H16.7253C16.569 3.43881 16.2563 3.28252 16.2563 2.96989C16.2563 2.65727 16.4126 2.50098 16.7253 2.50098H20.1642C20.3205 2.50098 20.6331 2.65727 20.6331 2.96989C20.6331 3.28252 20.3205 3.43881 20.1642 3.43881Z" fill="#BB8E4D"/>
<path d="M25.1656 3.43881H21.7267C21.5704 3.43881 21.2578 3.28252 21.2578 2.96989C21.2578 2.65727 21.4141 2.50098 21.7267 2.50098H25.1656C25.3219 2.50098 25.6345 2.65727 25.6345 2.96989C25.6345 3.28252 25.3219 3.43881 25.1656 3.43881Z" fill="#BB8E4D"/>
<path d="M20.945 7.65917C20.7887 7.65917 20.4761 7.50288 20.4761 7.19025V3.90769C20.4761 3.75137 20.6324 3.43872 20.945 3.43872C21.1013 3.43872 21.4139 3.59506 21.4139 3.90769V7.19025C21.2576 7.50288 21.1013 7.65917 20.945 7.65917Z" fill="#BB8E4D"/>
<path d="M20.9464 5.93985C20.7901 5.93985 20.4775 5.78355 20.4775 5.47093C20.4775 3.43887 20.4774 3.43884 18.758 3.43884C18.6017 3.43884 18.2891 3.28255 18.2891 2.96992C18.2891 2.81361 18.4454 2.50101 18.758 2.50101C20.4774 2.50101 20.4775 2.50098 20.4775 0.468918C20.4775 0.312605 20.6338 0 20.9464 0C21.1027 0 21.4153 0.156293 21.4153 0.468918C21.4153 2.50098 21.4154 2.50101 23.1348 2.50101C23.2911 2.50101 23.6037 2.6573 23.6037 2.96992C23.6037 3.12624 23.4474 3.43884 23.1348 3.43884C21.4154 3.43884 21.4153 3.43887 21.4153 5.47093C21.259 5.62724 21.1027 5.93985 20.9464 5.93985ZM20.7901 3.12624C20.9464 3.12624 20.9464 3.12624 20.9464 3.12624C20.9464 2.96993 20.9464 2.96993 20.7901 3.12624C20.9464 2.96993 20.7901 2.96993 20.7901 3.12624Z" fill="#BB8E4D"/>
<path d="M19.3828 122.392C19.2265 122.392 19.0701 122.236 19.0701 122.08C19.0701 121.924 18.9139 121.611 18.9139 121.455C18.7575 120.829 18.2886 120.36 17.8196 120.204C17.6633 120.204 17.507 120.048 17.3507 120.048C17.1944 120.048 17.0381 119.891 17.0381 119.579C17.0381 119.423 17.1944 119.266 17.3507 119.266C17.3507 119.266 17.5071 119.266 17.6634 119.266C18.2886 119.11 18.7575 118.641 18.9139 118.016C18.9139 117.703 19.0701 117.547 19.0701 117.234C19.0701 117.078 19.2265 116.922 19.3828 116.922C19.5391 116.922 19.6954 117.078 19.6954 117.234C19.6954 117.39 19.8517 117.703 19.8517 118.016C20.008 118.641 20.4769 119.11 21.1022 119.266C21.2585 119.266 21.4148 119.266 21.4148 119.266C21.5711 119.266 21.7275 119.423 21.7275 119.579C21.7275 119.735 21.5711 119.891 21.4148 120.048C21.2585 120.048 21.1022 120.204 20.9459 120.204C20.3206 120.36 19.8517 120.829 19.8517 121.455C19.8517 121.767 19.6954 121.924 19.6954 122.08C19.6954 122.236 19.5391 122.392 19.3828 122.392ZM18.6012 119.735C18.9138 119.891 19.2264 120.36 19.539 120.673C19.6954 120.204 20.008 119.891 20.477 119.735C20.1643 119.579 19.8517 119.11 19.539 118.797C19.2264 119.11 18.9138 119.423 18.6012 119.735Z" fill="#BB8E4D"/>
<path d="M5.15767 127.082C5.00136 127.082 4.84503 126.926 4.84503 126.769C4.84503 126.613 4.68866 126.3 4.68866 126.144C4.53235 125.519 4.06349 125.05 3.59455 124.894C3.43824 124.894 3.28185 124.737 3.12554 124.737C2.96922 124.737 2.81299 124.581 2.81299 124.268C2.81299 124.112 2.96922 123.956 3.12554 123.956C3.12554 123.956 3.28187 123.956 3.43818 123.956C4.06343 123.799 4.53235 123.33 4.68866 122.705C4.68866 122.393 4.84503 122.236 4.84503 121.924C4.84503 121.767 5.00136 121.611 5.15767 121.611C5.31398 121.611 5.47022 121.767 5.47022 121.924C5.47022 122.08 5.62659 122.393 5.62659 122.705C5.7829 123.33 6.25182 123.799 6.87707 123.956C7.03338 123.956 7.18971 123.956 7.18971 123.956C7.34602 123.956 7.50236 124.112 7.50236 124.268C7.50236 124.425 7.34602 124.581 7.18971 124.737C7.0334 124.737 6.87711 124.894 6.72079 124.894C6.09555 125.05 5.62659 125.519 5.62659 126.144C5.62659 126.457 5.47022 126.613 5.47022 126.769C5.47022 126.926 5.31398 127.082 5.15767 127.082ZM4.21974 124.425C4.53237 124.581 4.84505 125.05 5.15767 125.362C5.31398 124.894 5.62657 124.581 6.09551 124.425C5.78288 124.268 5.4703 123.799 5.15767 123.487C5.00136 123.799 4.68868 124.112 4.21974 124.425Z" fill="#BB8E4D"/>
<path d="M11.7227 101.915H8.28395C8.12764 101.915 7.81494 101.759 7.81494 101.447C7.81494 101.134 7.97133 100.978 8.28395 100.978H11.7227C11.8791 100.978 12.1918 101.134 12.1918 101.447C12.1918 101.759 11.8791 101.915 11.7227 101.915Z" fill="#BB8E4D"/>
<path d="M16.7257 101.915H13.2868C13.1305 101.915 12.8179 101.759 12.8179 101.447C12.8179 101.134 12.9742 100.978 13.2868 100.978H16.7257C16.882 100.978 17.1946 101.134 17.1946 101.447C17.1946 101.759 17.0383 101.915 16.7257 101.915Z" fill="#BB8E4D"/>
<path d="M12.5051 100.978C12.3487 100.978 12.0361 100.821 12.0361 100.509V97.2262C12.0361 97.0699 12.1924 96.7573 12.5051 96.7573C12.6614 96.7573 12.9741 96.9136 12.9741 97.2262V100.509C12.9741 100.665 12.6614 100.978 12.5051 100.978Z" fill="#BB8E4D"/>
<path d="M12.5051 106.136C12.3487 106.136 12.0361 105.98 12.0361 105.667V102.384C12.0361 102.228 12.1924 101.916 12.5051 101.916C12.6614 101.916 12.9741 102.072 12.9741 102.384V105.667C12.9741 105.98 12.6614 106.136 12.5051 106.136Z" fill="#BB8E4D"/>
<path d="M12.5044 104.417C12.3481 104.417 12.0355 104.26 12.0355 103.948C12.0355 101.916 12.0355 101.916 10.3161 101.916C10.1598 101.916 9.84717 101.759 9.84717 101.447C9.84717 101.29 10.0035 100.978 10.3161 100.978C12.0355 100.978 12.0355 100.978 12.0355 98.9456C12.0355 98.7893 12.1918 98.4767 12.5044 98.4767C12.6607 98.4767 12.9734 98.633 12.9734 98.9456C12.9734 100.978 12.9734 100.978 14.6928 100.978C14.8491 100.978 15.1617 101.134 15.1617 101.447C15.1617 101.603 15.0054 101.916 14.6928 101.916C12.9734 101.916 12.9734 101.916 12.9734 103.948C12.9734 104.26 12.6607 104.417 12.5044 104.417ZM12.3481 101.603C12.5044 101.603 12.5044 101.603 12.3481 101.603C12.5044 101.603 12.5044 101.603 12.5044 101.603C12.5044 101.447 12.5044 101.447 12.3481 101.603C12.5044 101.447 12.5044 101.447 12.3481 101.603Z" fill="#BB8E4D"/>
<path d="M21.2588 246.348C21.1024 246.348 21.1024 246.348 20.9461 246.192L17.8199 243.065C17.6636 242.909 17.6636 242.597 17.8199 242.44C17.9762 242.284 18.2888 242.284 18.4452 242.44L21.5714 245.566C21.7277 245.723 21.7277 246.035 21.5714 246.192C21.4151 246.348 21.2588 246.348 21.2588 246.348Z" fill="#BB8E4D"/>
<path d="M6.72214 231.811C6.56583 231.811 6.56581 231.811 6.40949 231.655L3.28325 228.528C3.12694 228.372 3.12694 228.06 3.28325 227.903C3.43956 227.747 3.75213 227.747 3.90844 227.903L7.03469 231.029C7.191 231.186 7.191 231.498 7.03469 231.655C6.87837 231.811 6.87845 231.811 6.72214 231.811Z" fill="#BB8E4D"/>
<path d="M3.59589 246.348C3.43958 246.348 3.43956 246.348 3.28325 246.192C3.12694 246.035 3.12694 245.723 3.28325 245.566L6.40949 242.44C6.56581 242.284 6.87837 242.284 7.03469 242.44C7.191 242.597 7.191 242.909 7.03469 243.065L3.90844 246.192C3.90844 246.348 3.75221 246.348 3.59589 246.348Z" fill="#BB8E4D"/>
<path d="M18.1325 231.811C17.9762 231.811 17.9762 231.811 17.8199 231.655C17.6636 231.498 17.6636 231.186 17.8199 231.029L20.9461 227.903C21.1024 227.747 21.4151 227.747 21.5714 227.903C21.7277 228.06 21.7277 228.372 21.5714 228.528L18.4452 231.655C18.4452 231.811 18.2888 231.811 18.1325 231.811Z" fill="#BB8E4D"/>
<path d="M12.505 251.037C12.3487 251.037 12.1924 250.881 12.1924 250.725C11.5672 249.005 11.0982 246.504 10.6293 243.222C10.6293 242.44 10.3167 241.815 9.84775 241.19C9.06619 241.815 8.28459 242.284 7.65934 242.44C7.50303 242.44 7.34673 242.44 7.19042 242.284C7.03411 242.128 7.03405 241.971 7.03405 241.815C7.34667 241.19 7.65938 240.565 8.28462 239.627C7.65938 239.158 7.03405 239.001 6.25249 238.845C3.90781 238.532 1.87577 238.064 0.312644 237.438C0.156331 237.438 0 237.282 0 236.969C0 236.813 0.156331 236.657 0.312644 236.657C0.312644 236.657 3.5952 235.875 6.56513 235.406C7.19038 235.25 7.97196 234.937 8.4409 234.625C7.81565 233.843 7.34667 233.062 7.03405 232.436C7.03405 232.28 7.03411 232.124 7.19042 231.967C7.34673 231.811 7.50303 231.811 7.65934 231.967C7.65934 231.967 8.59719 232.749 9.69138 233.374C10.1603 232.749 10.3166 232.124 10.4729 231.342C10.7856 227.903 11.4108 225.246 12.0361 223.527C12.0361 223.37 12.1924 223.214 12.3487 223.214C12.505 223.214 12.6613 223.37 12.6613 223.527C13.2866 225.246 13.9118 227.903 14.2245 231.342C14.2245 231.967 14.537 232.593 14.8497 233.218C15.7875 232.593 16.4128 232.124 17.0381 231.811C17.1944 231.811 17.3507 231.811 17.507 231.967C17.6633 232.124 17.6634 232.28 17.6634 232.436C17.3507 233.062 16.8818 233.843 16.2565 234.781C16.8818 235.25 17.507 235.406 18.1323 235.563C21.1022 236.031 24.2285 236.813 24.3848 236.813C24.5411 236.813 24.6974 236.969 24.6974 237.126C24.6974 237.282 24.5411 237.438 24.3848 237.595C22.8216 238.22 20.7896 238.689 18.4449 239.001C17.6634 239.158 16.8818 239.47 16.2565 239.939C17.0381 240.877 17.6634 241.971 17.6634 241.971C17.8197 242.128 17.8197 242.284 17.6634 242.44C17.507 242.597 17.3507 242.597 17.1943 242.597C16.5691 242.284 15.7876 241.815 15.1623 241.346C14.6934 241.971 14.5371 242.753 14.3807 243.378C14.0681 246.661 13.4429 249.162 12.8176 250.881C12.8176 250.881 12.6613 251.037 12.505 251.037ZM9.84775 240.252C10.0041 240.252 10.1603 240.252 10.1603 240.408C10.7855 241.19 11.0982 242.128 11.2545 243.222C11.5671 245.723 11.8798 247.911 12.3487 249.474C12.8176 247.911 13.1303 245.879 13.4429 243.222C13.5992 242.128 13.9119 241.19 14.5371 240.408C14.6934 240.252 14.8497 240.252 15.1623 240.408C15.3186 240.565 15.475 240.721 15.7876 240.877C15.6313 240.721 15.475 240.408 15.3187 240.252C15.1624 240.096 15.1624 239.783 15.3187 239.783C16.1002 239.001 17.1944 238.689 18.2885 238.532C20.008 238.22 21.4148 237.907 22.8216 237.595C21.5711 237.282 19.8517 236.969 17.9759 236.657C17.038 236.5 16.1002 236.032 15.4749 235.406C15.3186 235.25 15.3186 235.094 15.4749 234.781C15.7876 234.312 16.1002 233.843 16.4128 233.53C16.1002 233.843 15.6312 233.999 15.1623 234.312C15.006 234.312 15.006 234.468 14.8497 234.312C14.6933 234.312 14.6934 234.312 14.5371 234.156C13.9119 233.374 13.5992 232.436 13.5992 231.498C13.2866 228.841 12.9739 226.653 12.505 225.09C12.036 226.653 11.7235 228.841 11.4109 231.498C11.2546 232.436 10.9419 233.53 10.3167 234.312C10.1604 234.468 10.004 234.468 9.69138 234.468C9.37875 234.312 9.22244 234.156 8.90982 233.999C9.06613 234.312 9.22242 234.468 9.37873 234.781C9.53505 234.937 9.53505 235.25 9.37873 235.406C8.59717 236.032 7.65938 236.5 6.7215 236.657C5.00207 236.969 3.12632 237.282 2.03214 237.595C3.28263 238.064 4.8457 238.376 6.56513 238.532C7.50301 238.689 8.44086 239.001 9.37873 239.783C9.53505 239.939 9.53505 240.096 9.37873 240.408C9.06611 240.877 8.75348 241.19 8.59717 241.502C8.9098 241.346 9.37875 241.033 9.69138 240.721C9.69138 240.252 9.84775 240.252 9.84775 240.252Z" fill="#BB8E4D"/>
<path d="M22.3525 206.332C22.1962 206.332 22.0399 206.176 22.0399 206.019C22.0399 205.863 21.8835 205.551 21.8835 205.394C21.7272 204.769 21.2583 204.3 20.7894 204.144C20.6331 204.144 20.4767 203.987 20.3204 203.987C20.164 203.987 20.0078 203.831 20.0078 203.518C20.0078 203.362 20.164 203.206 20.3204 203.206C20.3204 203.206 20.4767 203.206 20.633 203.206C21.2583 203.05 21.7272 202.581 21.8835 201.955C21.8835 201.643 22.0399 201.486 22.0399 201.174C22.0399 201.017 22.1962 200.861 22.3525 200.861C22.5088 200.861 22.665 201.017 22.665 201.174C22.665 201.33 22.8214 201.643 22.8214 201.955C22.9777 202.581 23.4466 203.05 24.0719 203.206C24.2282 203.206 24.3845 203.206 24.3845 203.206C24.5408 203.206 24.6972 203.362 24.6972 203.518C24.6972 203.675 24.5408 203.831 24.3845 203.987C24.2282 203.987 24.0719 204.144 23.9156 204.144C23.2904 204.3 22.8214 204.769 22.8214 205.394C22.8214 205.707 22.665 205.863 22.665 206.019C22.665 206.332 22.5088 206.332 22.3525 206.332ZM21.5709 203.675C21.8836 203.831 22.1961 204.3 22.5088 204.613C22.6651 204.144 22.9777 203.831 23.4466 203.675C23.134 203.518 22.8214 203.05 22.5088 202.737C22.1961 203.05 21.8836 203.518 21.5709 203.675Z" fill="#BB8E4D"/>
<path d="M7.03395 215.242C6.87764 215.242 6.7214 215.086 6.7214 214.929C6.56509 214.617 6.40876 214.148 6.40876 213.679C6.09613 212.428 5.1582 211.334 3.90771 211.021C3.59508 210.865 3.28249 210.865 2.96987 210.709C2.81356 210.709 2.65723 210.553 2.65723 210.24C2.65723 210.084 2.81356 209.927 2.96987 209.927C2.96987 209.927 3.28253 209.927 3.59516 209.771C5.00197 209.458 5.93976 208.364 6.25239 207.114C6.4087 206.645 6.40872 206.176 6.56503 205.863C6.56503 205.707 6.72136 205.551 6.87768 205.551C7.03399 205.551 7.19032 205.707 7.19032 205.863C7.34663 206.176 7.50296 206.645 7.50296 207.114C7.81559 208.52 8.75339 209.458 10.1602 209.771C10.4728 209.927 10.7855 209.927 10.7855 209.927C10.9418 209.927 11.0981 210.084 11.0981 210.24C11.0981 210.396 10.9418 210.553 10.7855 210.709C10.4729 210.865 10.1603 210.865 9.84765 211.021C8.59715 211.334 7.65922 212.428 7.34659 213.679C7.19028 214.148 7.19026 214.617 7.03395 214.929C7.34657 215.086 7.19026 215.242 7.03395 215.242ZM4.68927 210.396C5.93976 210.865 6.8777 211.959 7.19032 213.21C7.50294 211.959 8.44078 210.865 9.69128 210.396C8.44078 209.927 7.50294 208.833 7.19032 207.583C6.72138 208.989 5.78345 209.927 4.68927 210.396Z" fill="#BB8E4D"/>
<path d="M20.1642 168.974H16.7253C16.569 168.974 16.2563 168.817 16.2563 168.505C16.2563 168.348 16.4126 168.036 16.7253 168.036H20.1642C20.3205 168.036 20.6331 168.192 20.6331 168.505C20.4768 168.817 20.3205 168.974 20.1642 168.974Z" fill="#BB8E4D"/>
<path d="M25.1656 168.974H21.7267C21.5704 168.974 21.2578 168.817 21.2578 168.505C21.2578 168.348 21.4141 168.036 21.7267 168.036H25.1656C25.3219 168.036 25.6345 168.192 25.6345 168.505C25.6345 168.817 25.3219 168.974 25.1656 168.974Z" fill="#BB8E4D"/>
<path d="M20.945 167.879C20.7887 167.879 20.4761 167.723 20.4761 167.41V164.128C20.4761 163.971 20.6324 163.659 20.945 163.659C21.1013 163.659 21.4139 163.815 21.4139 164.128V167.41C21.2576 167.723 21.1013 167.879 20.945 167.879Z" fill="#BB8E4D"/>
<path d="M20.945 173.194C20.7887 173.194 20.4761 173.038 20.4761 172.725V169.442C20.4761 169.286 20.6324 168.974 20.945 168.974C21.1013 168.974 21.4139 169.13 21.4139 169.442V172.725C21.2576 173.038 21.1013 173.194 20.945 173.194Z" fill="#BB8E4D"/>
<path d="M20.9464 171.318C20.7901 171.318 20.4775 171.162 20.4775 170.849C20.4775 168.817 20.4774 168.817 18.758 168.817C18.6017 168.817 18.2891 168.661 18.2891 168.348C18.2891 168.192 18.4454 167.879 18.758 167.879C20.4774 167.879 20.4775 167.879 20.4775 165.847C20.4775 165.691 20.6338 165.378 20.9464 165.378C21.1027 165.378 21.4153 165.535 21.4153 165.847C21.4153 167.879 21.4154 167.879 23.1348 167.879C23.2911 167.879 23.6037 168.036 23.6037 168.348C23.6037 168.505 23.4474 168.817 23.1348 168.817C21.4154 168.817 21.4153 168.817 21.4153 170.849C21.259 171.162 21.1027 171.318 20.9464 171.318Z" fill="#BB8E4D"/>
<path d="M12.5051 266.356C12.3487 266.356 12.0361 266.2 12.0361 265.887V262.604C12.0361 262.448 12.1924 262.135 12.5051 262.135C12.6614 262.135 12.9741 262.292 12.9741 262.604V265.887C12.9741 266.2 12.6614 266.356 12.5051 266.356Z" fill="#BB8E4D"/>
<path d="M12.5044 269.795C12.3481 269.795 12.0355 269.639 12.0355 269.326C12.0355 267.294 12.0355 267.294 10.3161 267.294C10.1598 267.294 9.84717 267.138 9.84717 266.825C9.84717 266.669 10.0035 266.356 10.3161 266.356C12.0355 266.356 12.0355 266.356 12.0355 264.324C12.0355 264.168 12.1918 263.855 12.5044 263.855C12.6607 263.855 12.9734 264.011 12.9734 264.324C12.9734 266.356 12.9734 266.356 14.6928 266.356C14.8491 266.356 15.1617 266.512 15.1617 266.825C15.1617 266.981 15.0054 267.294 14.6928 267.294C12.9734 267.294 12.9734 267.294 12.9734 269.326C12.9734 269.639 12.6607 269.795 12.5044 269.795ZM12.3481 266.981C12.5044 267.138 12.5044 267.138 12.3481 266.981C12.5044 266.981 12.5044 266.981 12.3481 266.981Z" fill="#BB8E4D"/>
</g>
<defs>
<clipPath id="clip0_9486_16955">
<rect width="26" height="265" fill="white"/>
</clipPath>
</defs>
</svg>
