<svg width="250" height="26" viewBox="0 0 250 26" fill="none" xmlns="http://www.w3.org/2000/svg">
<g clip-path="url(#clip0_9486_16958)">
<path d="M245.41 12.505C245.41 12.3487 245.567 12.1924 245.723 12.1924C247.442 11.5672 249.943 11.0982 253.226 10.6293C254.007 10.6293 254.633 10.3167 255.258 9.84775C254.633 9.06618 254.164 8.28458 254.007 7.65934C254.007 7.50302 254.007 7.34673 254.164 7.19042C254.32 7.03411 254.476 7.03405 254.633 7.03405C255.258 7.34667 255.883 7.65937 256.821 8.28462C257.29 7.65937 257.446 7.03405 257.603 6.25249C257.915 3.9078 258.384 1.87576 259.009 0.312643C259.009 0.15633 259.166 -8.30252e-07 259.478 -8.11802e-07C259.635 -8.02577e-07 259.791 0.156331 259.791 0.312643C259.791 0.312643 260.573 3.5952 261.042 6.56513C261.198 7.19038 261.51 7.97196 261.823 8.4409C262.605 7.81565 263.386 7.34667 264.011 7.03405C264.168 7.03405 264.324 7.03411 264.48 7.19042C264.637 7.34673 264.637 7.50302 264.48 7.65934C264.48 7.65934 263.699 8.59719 263.074 9.69138C263.699 10.1603 264.324 10.3166 265.106 10.4729C268.545 10.7856 271.202 11.4108 272.921 12.0361C273.078 12.0361 273.234 12.1924 273.234 12.3487C273.234 12.505 273.078 12.6613 272.921 12.6613C271.202 13.2866 268.544 13.9118 265.106 14.2245C264.48 14.2245 263.855 14.537 263.23 14.8497C263.855 15.7875 264.324 16.4128 264.637 17.0381C264.637 17.1944 264.637 17.3507 264.48 17.507C264.324 17.6633 264.168 17.6634 264.011 17.6634C263.386 17.3507 262.605 16.8818 261.667 16.2565C261.198 16.8818 261.042 17.507 260.885 18.1323C260.416 21.1022 259.635 24.2285 259.635 24.3848C259.635 24.5411 259.478 24.6974 259.322 24.6974C259.166 24.6974 259.009 24.5411 258.853 24.3848C258.228 22.8216 257.759 20.7896 257.446 18.4449C257.29 17.6634 256.977 16.8818 256.508 16.2565C255.571 17.0381 254.476 17.6634 254.476 17.6634C254.32 17.8197 254.164 17.8197 254.007 17.6634C253.851 17.507 253.851 17.3507 253.851 17.1943C254.164 16.5691 254.633 15.7876 255.102 15.1623C254.476 14.6934 253.695 14.5371 253.07 14.3807C249.787 14.0681 247.286 13.4429 245.567 12.8176C245.567 12.8176 245.41 12.6613 245.41 12.505ZM256.196 9.84775C256.196 10.0041 256.196 10.1603 256.04 10.1603C255.258 10.7855 254.32 11.0982 253.226 11.2545C250.725 11.5671 248.537 11.8798 246.973 12.3487C248.537 12.8176 250.569 13.1303 253.226 13.4429C254.32 13.5992 255.258 13.9119 256.04 14.5371C256.196 14.6934 256.196 14.8497 256.04 15.1623C255.883 15.3186 255.727 15.475 255.571 15.7876C255.727 15.6313 256.04 15.475 256.196 15.3187C256.352 15.1624 256.665 15.1624 256.665 15.3187C257.446 16.1002 257.759 17.1944 257.915 18.2885C258.228 20.008 258.541 21.4148 258.853 22.8216C259.166 21.5711 259.478 19.8517 259.791 17.9759C259.947 17.038 260.416 16.1002 261.042 15.4749C261.198 15.3186 261.354 15.3186 261.667 15.4749C262.136 15.7876 262.605 16.1002 262.917 16.4128C262.605 16.1002 262.448 15.6312 262.136 15.1623C262.136 15.006 261.979 15.006 262.136 14.8497C262.136 14.6933 262.136 14.6934 262.292 14.5371C263.074 13.9119 264.011 13.5992 264.949 13.5992C267.607 13.2866 269.795 12.9739 271.358 12.505C269.795 12.036 267.607 11.7235 264.949 11.4109C264.011 11.2546 262.917 10.9419 262.136 10.3167C261.979 10.1604 261.979 10.004 261.979 9.69138C262.136 9.37875 262.292 9.22244 262.448 8.90982C262.136 9.06613 261.979 9.22242 261.667 9.37873C261.51 9.53504 261.198 9.53504 261.042 9.37873C260.416 8.59717 259.947 7.65937 259.791 6.7215C259.478 5.00207 259.166 3.12632 258.853 2.03213C258.384 3.28263 258.072 4.8457 257.915 6.56513C257.759 7.50301 257.446 8.44086 256.665 9.37873C256.508 9.53504 256.352 9.53504 256.04 9.37873C255.571 9.06611 255.258 8.75348 254.945 8.59717C255.102 8.9098 255.414 9.37875 255.727 9.69138C256.196 9.69138 256.196 9.84775 256.196 9.84775Z" fill="#BB8E4D"/>
<path d="M179.759 11.7231C179.759 11.5668 179.916 11.4105 180.072 11.2542L186.168 10.0037L184.136 4.06388C184.136 3.90757 184.136 3.75128 184.292 3.59497C184.449 3.43865 184.605 3.59493 184.761 3.75124L188.982 8.44061L193.202 3.75124C193.358 3.59493 193.515 3.59497 193.671 3.59497C193.827 3.75128 193.984 3.90757 193.827 4.06388L191.795 10.0037L197.891 11.2542C198.048 11.2542 198.204 11.4105 198.204 11.7231C198.204 11.8794 198.048 12.0358 197.891 12.1921L191.795 13.4426L193.827 19.3825C193.827 19.5388 193.827 19.6951 193.671 19.8514C193.515 20.0077 193.358 19.8514 193.202 19.6951L188.982 15.0057L184.761 19.6951C184.605 19.8514 184.449 19.8514 184.292 19.8514C184.136 19.6951 183.98 19.5388 184.136 19.3825L186.168 13.4426L180.072 12.1921C179.916 12.0358 179.759 11.8794 179.759 11.7231ZM187.106 10.3164L187.106 10.4726C187.106 10.629 186.95 10.629 186.793 10.629L182.104 11.5669L186.793 12.5047C186.95 12.5047 186.95 12.6611 187.106 12.6611C187.106 12.8174 187.106 12.8174 187.106 12.9737L185.543 17.5067L188.669 13.9115C188.669 13.7552 188.825 13.7553 188.982 13.7553C189.138 13.7553 189.138 13.7552 189.294 13.9115L192.421 17.5067L190.857 12.9737C190.857 12.8174 190.857 12.8174 190.857 12.6611C190.857 12.5047 191.014 12.5047 191.17 12.5047L195.859 11.5669L191.17 10.629C191.014 10.629 191.014 10.4726 190.857 10.4726C190.857 10.3163 190.857 10.3163 190.857 10.16L192.421 5.62701L189.294 9.22217C189.294 9.37848 189.138 9.37844 188.982 9.37844C188.825 9.37844 188.825 9.37848 188.669 9.22217L185.543 5.62701L187.106 10.3164Z" fill="#BB8E4D"/>
<path d="M71.2788 11.7231C71.2788 11.5668 71.435 11.4105 71.5914 11.2542L77.6876 10.0037L75.6555 4.06388C75.6555 3.90757 75.6555 3.75128 75.8118 3.59497C75.9681 3.43865 76.1244 3.59493 76.2807 3.75124L80.5012 8.44061L84.7216 3.75124C84.8779 3.59493 85.0342 3.59497 85.1905 3.59497C85.3469 3.75128 85.5032 3.90757 85.3469 4.06388L83.3148 10.0037L89.411 11.2542C89.5673 11.2542 89.7236 11.4105 89.7236 11.7231C89.7236 11.8794 89.5673 12.0358 89.411 12.1921L83.3148 13.4426L85.3469 19.3825C85.3469 19.5388 85.3469 19.6951 85.1905 19.8514C85.0342 20.0077 84.8779 19.8514 84.7216 19.6951L80.5012 15.0057L76.2807 19.6951C76.1244 19.8514 75.9681 19.8514 75.8118 19.8514C75.6555 19.6951 75.4992 19.5388 75.6555 19.3825L77.6876 13.4426L71.5914 12.1921C71.435 12.0358 71.2788 11.8794 71.2788 11.7231ZM78.6254 10.3164L78.6254 10.4726C78.6254 10.629 78.4692 10.629 78.3129 10.629L73.6235 11.5669L78.3129 12.5047C78.4692 12.5047 78.4691 12.6611 78.6254 12.6611C78.6254 12.8174 78.6254 12.8174 78.6254 12.9737L77.0623 17.5067L80.1885 13.9115C80.1885 13.7552 80.3449 13.7553 80.5012 13.7553C80.6575 13.7553 80.6575 13.7552 80.8138 13.9115L83.9401 17.5067L82.3769 12.9737C82.3769 12.8174 82.3769 12.8174 82.3769 12.6611C82.3769 12.5047 82.5333 12.5047 82.6896 12.5047L87.3789 11.5669L82.6896 10.629C82.5333 10.629 82.5333 10.4726 82.3769 10.4726C82.3769 10.3163 82.3769 10.3163 82.3769 10.16L83.9401 5.62701L80.8138 9.22217C80.8138 9.37848 80.6575 9.37844 80.5012 9.37844C80.3449 9.37844 80.3448 9.37848 80.1885 9.22217L77.0623 5.62701L78.6254 10.3164Z" fill="#BB8E4D"/>
<path d="M144.902 10.9422C144.902 10.7859 145.058 10.6296 145.214 10.6296C145.839 10.317 146.777 10.1607 147.872 9.84808C150.998 9.22283 153.342 7.03444 154.124 4.06451C154.28 3.43926 154.437 2.81399 154.749 2.18874C154.749 2.03243 154.905 1.8761 155.218 1.8761C155.374 1.8761 155.531 2.03243 155.531 2.18874C155.531 2.18874 155.687 2.81403 155.843 3.59559C156.469 6.72183 158.97 9.22277 162.252 9.69171C163.346 9.84802 164.284 10.1606 165.066 10.4733C165.222 10.4733 165.378 10.6296 165.378 10.7859C165.378 10.9422 165.222 11.0986 165.066 11.0986C164.284 11.4112 163.346 11.5675 162.252 11.8801C159.126 12.5054 156.625 14.85 155.843 17.9762C155.687 18.7578 155.531 19.3831 155.531 19.3831C155.531 19.5394 155.374 19.6957 155.218 19.6957C155.062 19.6957 154.906 19.5394 154.749 19.3831C154.593 18.7578 154.28 18.2889 154.124 17.5073C153.342 14.5374 150.998 12.349 147.872 11.7238C146.777 11.5674 145.996 11.2549 145.214 11.0986C145.058 11.2549 144.902 11.0985 144.902 10.9422ZM154.906 3.90814C154.906 4.06445 154.906 4.22078 154.749 4.22078C153.968 7.50334 151.154 10.0044 147.872 10.6296C147.403 10.786 146.934 10.7859 146.621 10.9422C147.09 11.0985 147.403 11.0985 147.872 11.2548C151.31 11.8801 153.968 14.3811 154.749 17.6637C154.749 17.82 154.749 17.9762 154.906 17.9762C155.687 14.5374 158.344 11.8801 161.94 11.2548C162.409 11.0985 163.034 11.0985 163.346 10.9422C162.877 10.7859 162.409 10.786 161.783 10.6296C158.501 10.0044 155.687 7.34701 154.906 3.90814Z" fill="#BB8E4D"/>
<path d="M164.284 22.3525C164.284 22.1962 164.441 22.0399 164.597 22.0399C164.753 22.0399 165.066 21.8835 165.222 21.8835C165.848 21.7272 166.316 21.2583 166.473 20.7894C166.473 20.6331 166.629 20.4767 166.629 20.3204C166.629 20.164 166.785 20.0078 167.098 20.0078C167.254 20.0078 167.411 20.164 167.411 20.3204C167.411 20.3204 167.411 20.4767 167.411 20.633C167.567 21.2583 168.036 21.7272 168.661 21.8835C168.974 21.8835 169.13 22.0399 169.443 22.0399C169.599 22.0399 169.755 22.1962 169.755 22.3525C169.755 22.5088 169.599 22.665 169.443 22.665C169.286 22.665 168.974 22.8214 168.661 22.8214C168.036 22.9777 167.567 23.4466 167.411 24.0719C167.411 24.2282 167.411 24.3845 167.411 24.3845C167.411 24.5408 167.254 24.6972 167.098 24.6972C166.942 24.6972 166.785 24.5408 166.629 24.3845C166.629 24.2282 166.473 24.0719 166.473 23.9156C166.316 23.2904 165.848 22.8214 165.222 22.8214C164.91 22.8214 164.753 22.665 164.597 22.665C164.441 22.665 164.284 22.5088 164.284 22.3525ZM167.098 21.5709C166.942 21.8836 166.473 22.1961 166.16 22.5088C166.629 22.6651 166.942 22.9777 167.098 23.4466C167.254 23.134 167.723 22.8214 168.036 22.5088C167.567 22.1961 167.254 21.8836 167.098 21.5709Z" fill="#BB8E4D"/>
<path d="M125.206 7.03395C125.206 6.87764 125.362 6.7214 125.519 6.7214C125.831 6.56509 126.3 6.40876 126.769 6.40876C128.02 6.09613 129.114 5.1582 129.427 3.90771C129.583 3.59508 129.583 3.28249 129.739 2.96987C129.739 2.81356 129.895 2.65723 130.208 2.65723C130.364 2.65723 130.521 2.81356 130.521 2.96987C130.521 2.96987 130.521 3.28253 130.677 3.59516C130.99 5.00197 132.084 5.93976 133.334 6.25239C133.803 6.4087 134.272 6.40872 134.585 6.56503C134.741 6.56503 134.897 6.72136 134.897 6.87768C134.897 7.03399 134.741 7.19032 134.585 7.19032C134.272 7.34663 133.803 7.50296 133.334 7.50296C131.928 7.81559 130.99 8.75338 130.677 10.1602C130.521 10.4728 130.521 10.7855 130.521 10.7855C130.521 10.9418 130.364 11.0981 130.208 11.0981C130.052 11.0981 129.895 10.9418 129.739 10.7855C129.583 10.4729 129.583 10.1603 129.427 9.84765C129.114 8.59715 128.02 7.65922 126.769 7.34659C126.3 7.19028 125.831 7.19026 125.519 7.03395C125.362 7.34657 125.206 7.19026 125.206 7.03395ZM130.052 4.68927C129.583 5.93976 128.489 6.87769 127.238 7.19032C128.489 7.50294 129.583 8.44078 130.052 9.69128C130.521 8.44078 131.615 7.50294 132.865 7.19032C131.459 6.72138 130.521 5.78345 130.052 4.68927Z" fill="#BB8E4D"/>
<path d="M26.2605 19.6943C26.2605 19.538 26.4168 19.3816 26.5732 19.3816C26.7295 19.3816 27.0421 19.2254 27.1984 19.2254C27.8237 19.0691 28.2926 18.6001 28.4489 18.1312C28.4489 17.9749 28.6052 17.8186 28.6052 17.6623C28.6052 17.5059 28.7616 17.3496 29.0742 17.3496C29.2305 17.3496 29.3868 17.5059 29.3868 17.6623C29.3868 17.6623 29.3868 17.8185 29.3868 17.9748C29.5431 18.6 30.0121 19.0691 30.6373 19.2254C30.95 19.2254 31.1063 19.3816 31.4189 19.3816C31.5752 19.3816 31.7314 19.538 31.7314 19.6943C31.7314 19.8506 31.5752 20.0069 31.4189 20.0069C31.2626 20.0069 30.95 20.1632 30.6373 20.1632C30.0121 20.3195 29.5431 20.7884 29.3868 21.4137C29.3868 21.57 29.3868 21.7263 29.3868 21.7263C29.3868 21.8826 29.2305 22.039 29.0742 22.039C28.9179 22.039 28.7615 21.8826 28.6052 21.7263C28.6052 21.57 28.4489 21.4137 28.4489 21.2574C28.2926 20.6322 27.8237 20.1632 27.1984 20.1632C26.8858 20.1632 26.7295 20.0069 26.5732 20.0069C26.4168 20.0069 26.2605 19.8506 26.2605 19.6943ZM29.0742 18.9127C28.9179 19.2254 28.4489 19.5379 28.1363 19.8506C28.6052 20.0069 28.9179 20.3196 29.0742 20.7885C29.2305 20.4759 29.6994 20.1632 30.012 19.8506C29.5431 19.5379 29.2305 19.2254 29.0742 18.9127Z" fill="#BB8E4D"/>
<path d="M34.3887 8.75343C34.3887 8.59712 34.545 8.44079 34.7013 8.44079C35.014 8.28448 35.4829 8.12814 35.9518 8.12814C37.2023 7.81552 38.2965 6.87768 38.6091 5.62719C38.7655 5.31456 38.7655 5.00188 38.9218 4.68926C38.9218 4.53294 39.0781 4.37671 39.3907 4.37671C39.547 4.37671 39.7034 4.53294 39.7034 4.68926C39.7034 4.68926 39.7033 5.00192 39.8596 5.31454C40.1723 6.72135 41.2665 7.65925 42.517 7.97187C42.9859 8.12818 43.4548 8.1282 43.7674 8.28451C43.9237 8.28451 44.0801 8.44075 44.0801 8.59706C44.0801 8.75337 43.9237 8.90971 43.7674 8.90971C43.4548 9.06602 42.9859 9.22235 42.517 9.22235C41.1101 9.53497 40.1723 10.4729 39.8596 11.8797C39.7033 12.1923 39.7034 12.5049 39.7034 12.5049C39.7034 12.6612 39.547 12.8175 39.3907 12.8175C39.2344 12.8175 39.0781 12.6612 38.9218 12.5049C38.7655 12.1922 38.7655 11.8797 38.6091 11.567C38.2965 10.3165 37.2023 9.3787 35.9518 9.06607C35.4829 8.90976 35.014 8.90974 34.7013 8.75343C34.545 9.06606 34.3887 8.90974 34.3887 8.75343ZM39.2344 6.25238C38.7655 7.50288 37.6712 8.44081 36.4207 8.75343C37.6712 9.06606 38.7655 10.0039 39.2344 11.2544C39.7034 10.0039 40.7975 9.06606 42.048 8.75343C40.7975 8.2845 39.7034 7.50288 39.2344 6.25238Z" fill="#BB8E4D"/>
<path d="M208.521 19.3828C208.521 19.2265 208.677 19.0701 208.833 19.0701C208.99 19.0701 209.302 18.9139 209.459 18.9139C210.084 18.7575 210.553 18.2886 210.709 17.8196C210.709 17.6633 210.865 17.507 210.865 17.3507C210.865 17.1944 211.022 17.0381 211.334 17.0381C211.491 17.0381 211.647 17.1944 211.647 17.3507C211.647 17.3507 211.647 17.5071 211.647 17.6634C211.803 18.2886 212.272 18.7575 212.897 18.9139C213.21 18.9139 213.366 19.0701 213.679 19.0701C213.835 19.0701 213.992 19.2265 213.992 19.3828C213.992 19.5391 213.835 19.6954 213.679 19.6954C213.523 19.6954 213.21 19.8517 212.897 19.8517C212.272 20.008 211.803 20.4769 211.647 21.1022C211.647 21.2585 211.647 21.4148 211.647 21.4148C211.647 21.5711 211.491 21.7275 211.334 21.7275C211.178 21.7275 211.022 21.5711 210.865 21.4148C210.865 21.2585 210.709 21.1022 210.709 20.9459C210.553 20.3206 210.084 19.8517 209.459 19.8517C209.146 19.8517 208.99 19.6954 208.833 19.6954C208.677 19.6954 208.521 19.5391 208.521 19.3828ZM211.334 18.6012C211.178 18.9138 210.709 19.2264 210.396 19.539C210.865 19.6954 211.178 20.008 211.334 20.477C211.491 20.1643 211.96 19.8517 212.272 19.539C211.803 19.2264 211.491 18.9138 211.334 18.6012Z" fill="#BB8E4D"/>
<path d="M213.21 3.1263C213.21 2.96999 213.367 2.81375 213.523 2.81375C213.679 2.81375 213.992 2.65738 214.148 2.65738C214.773 2.50107 215.242 2.03211 215.399 1.56318C215.399 1.40686 215.555 1.25057 215.555 1.09426C215.555 0.937947 215.711 0.781616 216.024 0.781616C216.18 0.781616 216.336 0.937947 216.336 1.09426C216.336 1.09426 216.336 1.25059 216.336 1.4069C216.493 2.03215 216.962 2.50107 217.587 2.65738C217.9 2.65738 218.056 2.81375 218.369 2.81375C218.525 2.81375 218.681 2.96999 218.681 3.1263C218.681 3.28261 218.525 3.43894 218.369 3.43894C218.212 3.43894 217.9 3.59531 217.587 3.59531C216.962 3.75162 216.493 4.22054 216.336 4.84579C216.336 5.0021 216.336 5.15844 216.336 5.15844C216.336 5.31475 216.18 5.47098 216.024 5.47098C215.868 5.47098 215.711 5.31475 215.555 5.15844C215.555 5.00212 215.399 4.84573 215.399 4.68942C215.242 4.06417 214.773 3.59531 214.148 3.59531C213.835 3.59531 213.679 3.43894 213.523 3.43894C213.367 3.43894 213.21 3.43892 213.21 3.1263ZM216.024 2.34474C215.868 2.65736 215.399 2.97004 215.086 3.28267C215.555 3.43898 215.868 3.75157 216.024 4.2205C216.18 3.90788 216.649 3.59529 216.962 3.28267C216.493 2.97004 216.18 2.65736 216.024 2.34474Z" fill="#BB8E4D"/>
<path d="M228.998 11.7229L228.998 8.28414C228.998 8.12783 229.154 7.81512 229.467 7.81512C229.779 7.81512 229.936 7.97151 229.936 8.28414L229.936 11.7229C229.936 11.8792 229.779 12.1919 229.467 12.1919C229.154 12.1919 228.998 11.8792 228.998 11.7229Z" fill="#BB8E4D"/>
<path d="M228.998 16.7259L228.998 13.287C228.998 13.1307 229.154 12.8181 229.467 12.8181C229.779 12.8181 229.936 12.9744 229.936 13.287L229.936 16.7259C229.936 16.8822 229.779 17.1948 229.467 17.1948C229.154 17.1948 228.998 17.0385 228.998 16.7259Z" fill="#BB8E4D"/>
<path d="M230.092 12.5049C230.092 12.3486 230.248 12.036 230.561 12.036L233.844 12.036C234 12.036 234.312 12.1923 234.312 12.5049C234.312 12.6612 234.156 12.9739 233.844 12.9739L230.561 12.9739C230.248 12.9739 230.092 12.6612 230.092 12.5049Z" fill="#BB8E4D"/>
<path d="M224.777 12.5049C224.777 12.3486 224.933 12.036 225.246 12.036L228.529 12.036C228.685 12.036 228.998 12.1923 228.998 12.5049C228.998 12.6612 228.841 12.9739 228.529 12.9739L225.246 12.9739C224.933 12.9739 224.777 12.6612 224.777 12.5049Z" fill="#BB8E4D"/>
<path d="M226.653 12.5042C226.653 12.3479 226.809 12.0353 227.122 12.0353C229.154 12.0353 229.154 12.0353 229.154 10.3159C229.154 10.1596 229.31 9.84698 229.623 9.84698C229.779 9.84698 230.092 10.0033 230.092 10.3159C230.092 12.0353 230.092 12.0353 232.124 12.0353C232.28 12.0353 232.593 12.1916 232.593 12.5042C232.593 12.6605 232.436 12.9732 232.124 12.9732C230.092 12.9732 230.092 12.9732 230.092 14.6926C230.092 14.8489 229.935 15.1615 229.623 15.1615C229.467 15.1615 229.154 15.0052 229.154 14.6926C229.154 12.9732 229.154 12.9732 227.122 12.9732C226.809 12.9732 226.653 12.6605 226.653 12.5042ZM229.467 12.3479C229.31 12.5043 229.31 12.5043 229.467 12.3479C229.467 12.5043 229.467 12.5043 229.467 12.3479Z" fill="#BB8E4D"/>
<path d="M110.2 5.15811L110.2 1.71922C110.2 1.56291 110.357 1.25031 110.669 1.25031C110.825 1.25031 111.138 1.4066 111.138 1.71922L111.138 5.15811C111.138 5.31442 110.982 5.62703 110.669 5.62703C110.357 5.62703 110.2 5.47074 110.2 5.15811Z" fill="#BB8E4D"/>
<path d="M110.2 10.1597L110.2 6.72091C110.2 6.56459 110.357 6.25189 110.669 6.25189C110.825 6.25189 111.138 6.40828 111.138 6.72091L111.138 10.1597C111.138 10.316 110.982 10.6287 110.669 10.6287C110.357 10.6287 110.2 10.4723 110.2 10.1597Z" fill="#BB8E4D"/>
<path d="M111.138 5.93978C111.138 5.78346 111.294 5.47076 111.607 5.47076L114.889 5.47076C115.046 5.47076 115.358 5.62715 115.358 5.93978C115.358 6.09609 115.202 6.40869 114.889 6.40869L111.607 6.40869C111.294 6.40869 111.138 6.2524 111.138 5.93978Z" fill="#BB8E4D"/>
<path d="M105.98 5.93978C105.98 5.78346 106.136 5.47076 106.449 5.47076L109.731 5.47076C109.888 5.47076 110.2 5.62715 110.2 5.93978C110.2 6.09609 110.044 6.40869 109.731 6.40869L106.449 6.40869C106.136 6.40869 105.98 6.2524 105.98 5.93978Z" fill="#BB8E4D"/>
<path d="M107.699 5.939C107.699 5.78269 107.856 5.46999 108.168 5.46999C110.2 5.46999 110.2 5.47003 110.2 3.75059C110.2 3.59428 110.357 3.28168 110.669 3.28168C110.826 3.28168 111.138 3.43797 111.138 3.75059C111.138 5.47003 111.138 5.46999 113.17 5.46999C113.327 5.46999 113.639 5.62638 113.639 5.939C113.639 6.09532 113.483 6.40792 113.17 6.40792C111.138 6.40792 111.138 6.40788 111.138 8.12732C111.138 8.28363 110.982 8.59624 110.669 8.59624C110.513 8.59624 110.2 8.43994 110.2 8.12732C110.2 6.40788 110.2 6.40792 108.168 6.40792C107.856 6.40792 107.699 6.25163 107.699 5.939ZM110.513 5.939C110.513 6.09532 110.513 6.09528 110.513 6.09528C110.669 6.09528 110.669 5.939 110.513 5.939C110.669 5.939 110.669 5.939 110.513 5.939Z" fill="#BB8E4D"/>
<path d="M18.2888 6.09645C18.2888 5.94014 18.4452 5.78381 18.6015 5.78381C18.7578 5.78381 19.0704 5.62754 19.2267 5.62754C19.8519 5.47122 20.3209 5.00227 20.4772 4.53333C20.4772 4.37702 20.6335 4.22073 20.6335 4.06441C20.6335 3.9081 20.7898 3.75177 21.1024 3.75177C21.2588 3.75177 21.4151 3.9081 21.4151 4.06441C21.4151 4.06441 21.4151 4.22074 21.4151 4.37706C21.5714 5.00231 22.0403 5.47122 22.6656 5.62754C22.9782 5.62754 23.1345 5.78381 23.4471 5.78381C23.6034 5.78381 23.7598 5.94014 23.7598 6.09645C23.7598 6.25277 23.6034 6.4091 23.4471 6.4091C23.2908 6.4091 22.9782 6.56537 22.6656 6.56537C22.0403 6.72168 21.5714 7.1906 21.4151 7.81585C21.4151 7.97216 21.4151 8.12849 21.4151 8.12849C21.4151 8.28481 21.2588 8.44114 21.1024 8.44114C20.9461 8.44114 20.7898 8.28481 20.6335 8.12849C20.6335 7.97218 20.4772 7.81589 20.4772 7.65958C20.3209 7.03433 19.8519 6.56537 19.2267 6.56537C18.914 6.56537 18.7578 6.4091 18.6015 6.4091C18.2889 6.4091 18.2888 6.25277 18.2888 6.09645ZM20.9462 5.31489C20.7899 5.62752 20.3209 5.9401 20.0082 6.25273C20.4772 6.40904 20.7899 6.72172 20.9462 7.19066C21.1025 6.87803 21.5714 6.56535 21.884 6.25273C21.5714 5.9401 21.1025 5.62752 20.9462 5.31489Z" fill="#BB8E4D"/>
<path d="M2.84685e-05 15.9445C2.84736e-05 15.7882 0.15636 15.6319 0.312672 15.6319C0.625296 15.4756 1.09421 15.3193 1.56315 15.3193C2.81365 15.0067 3.90785 14.0688 4.22048 12.8183C4.37679 12.5057 4.37681 12.1931 4.53312 11.8805C4.53312 11.7241 4.68941 11.5678 5.00204 11.5678C5.15835 11.5678 5.31468 11.7241 5.31468 11.8805C5.31468 11.8805 5.31464 12.193 5.47096 12.5056C5.78358 13.9125 6.87779 14.8503 8.12828 15.163C8.59722 15.3193 9.06614 15.3193 9.37876 15.4756C9.53507 15.4756 9.69141 15.6319 9.69141 15.7883C9.69141 15.9446 9.53507 16.1009 9.37876 16.1009C9.06614 16.2572 8.59722 16.4135 8.12828 16.4135C6.72147 16.7261 5.78358 17.664 5.47096 19.0708C5.47096 19.3834 5.31468 19.6961 5.31468 19.6961C5.31468 19.8524 5.15835 20.0087 5.00204 20.0087C4.84573 20.0087 4.68943 19.8524 4.53312 19.6961C4.37681 19.3834 4.37679 19.0708 4.22048 18.7581C3.90785 17.5076 2.81365 16.5698 1.56315 16.2572C1.09421 16.1009 0.625296 16.1008 0.312672 15.9445C0.15636 16.2572 2.84635e-05 16.1008 2.84685e-05 15.9445ZM4.6894 13.4436C4.22046 14.6941 3.12629 15.6319 1.87579 15.9445C3.12629 16.2572 4.22046 17.1951 4.6894 18.4456C5.15833 17.1951 6.2525 16.2572 7.503 15.9445C6.2525 15.6319 5.31464 14.6941 4.6894 13.4436Z" fill="#BB8E4D"/>
<path d="M54.3967 2.49996C54.3967 2.34364 54.5531 2.18731 54.7094 2.18731C54.8657 2.18731 55.1784 2.03104 55.3347 2.03104C55.9599 1.87473 56.4288 1.40577 56.5852 0.936834C56.5852 0.780522 56.7414 0.624229 56.7414 0.467917C56.7414 0.311605 56.8978 0.155273 57.2104 0.155273C57.3668 0.155273 57.523 0.311605 57.523 0.467917C57.523 0.467917 57.523 0.624153 57.523 0.780465C57.6793 1.40571 58.1483 1.87473 58.7736 2.03104C59.0862 2.03104 59.2425 2.18731 59.5551 2.18731C59.7114 2.18731 59.8677 2.34364 59.8677 2.49996C59.8677 2.65627 59.7114 2.8126 59.5551 2.8126C59.3988 2.8126 59.0862 2.96887 58.7736 2.96887C58.1483 3.12519 57.6793 3.5941 57.523 4.21935C57.523 4.37567 57.523 4.532 57.523 4.532C57.523 4.68831 57.3668 4.84464 57.2104 4.84464C57.0541 4.84464 56.8977 4.68831 56.7414 4.532C56.7414 4.37568 56.5852 4.21939 56.5852 4.06308C56.4288 3.43783 55.9599 2.96887 55.3347 2.96887C55.0221 2.96887 54.8657 2.8126 54.7094 2.8126C54.5531 2.8126 54.3967 2.65627 54.3967 2.49996ZM57.0541 1.56203C56.8978 1.87465 56.4289 2.18733 56.1162 2.49996C56.5852 2.65627 56.8978 2.96886 57.0541 3.43779C57.2104 3.12517 57.6794 2.81258 57.992 2.49996C57.6794 2.34364 57.3667 2.03096 57.0541 1.56203Z" fill="#BB8E4D"/>
</g>
<defs>
<clipPath id="clip0_9486_16958">
<rect width="250" height="26" fill="white"/>
</clipPath>
</defs>
</svg>
