<svg width="85" height="85" viewBox="0 0 85 85" fill="none" xmlns="http://www.w3.org/2000/svg">
<path d="M14 42.7H0.299988C0.0999878 42.7 0 42.6 0 42.4C0 42.2 0.0999878 42.1 0.299988 42.1H14C14.2 42.1 14.3 42.2 14.3 42.4C14.3 42.6 14.2 42.7 14 42.7Z" fill="#BB8E4D"/>
<path d="M84.5996 42.7H70.8996C70.6996 42.7 70.5996 42.6 70.5996 42.4C70.5996 42.2 70.6996 42.1 70.8996 42.1H84.5996C84.7996 42.1 84.8996 42.2 84.8996 42.4C84.8996 42.6 84.7996 42.7 84.5996 42.7Z" fill="#BB8E4D"/>
<path d="M42.5002 11.9C42.3002 11.9 42.2002 11.8 42.2002 11.6V0.299988C42.2002 0.0999878 42.3002 0 42.5002 0C42.7002 0 42.8002 0.0999878 42.8002 0.299988V11.6C42.8002 11.7 42.6002 11.9 42.5002 11.9Z" fill="#BB8E4D"/>
<path d="M42.5002 84.9C42.3002 84.9 42.2002 84.8 42.2002 84.6V73.3C42.2002 73.1 42.3002 73 42.5002 73C42.7002 73 42.8002 73.1 42.8002 73.3V84.6C42.8002 84.7 42.6002 84.9 42.5002 84.9Z" fill="#BB8E4D"/>
<path d="M17.7002 18C17.6002 18 17.5002 18 17.5002 17.9L14.4002 14.8C14.3002 14.7 14.3002 14.5 14.4002 14.3C14.5002 14.2 14.7002 14.2 14.9002 14.3L18.0002 17.4C18.1002 17.5 18.1002 17.7 18.0002 17.9C17.9002 17.9 17.8002 18 17.7002 18Z" fill="#BB8E4D"/>
<path d="M70.4004 70.6C70.3004 70.6 70.2004 70.6 70.2004 70.5L67.1004 67.4C67.0004 67.3 67.0004 67.1 67.1004 66.9C67.2004 66.8 67.4004 66.8 67.6004 66.9L70.7004 70C70.8004 70.1 70.8004 70.3 70.7004 70.5C70.5004 70.6 70.4004 70.6 70.4004 70.6Z" fill="#BB8E4D"/>
<path d="M67.1998 18C67.0998 18 66.9998 18 66.9998 17.9C66.8998 17.8 66.8998 17.6 66.9998 17.4L70.0998 14.3C70.1998 14.2 70.3998 14.2 70.5998 14.3C70.6998 14.4 70.6998 14.6 70.5998 14.8L67.4998 17.9C67.3998 17.9 67.2998 18 67.1998 18Z" fill="#BB8E4D"/>
<path d="M14.6002 70.6C14.5002 70.6 14.4002 70.6 14.4002 70.5C14.3002 70.4 14.3002 70.2 14.4002 70L17.5002 66.9C17.6002 66.8 17.8002 66.8 18.0002 66.9C18.1002 67 18.1002 67.2 18.0002 67.4L14.9002 70.5C14.7002 70.6 14.7002 70.6 14.6002 70.6Z" fill="#BB8E4D"/>
<path d="M49.9002 70.6C49.8002 70.6 49.6002 70.5 49.6002 70.4L42.4002 51.9L35.2002 70.4C35.1002 70.6 35.0002 70.6 34.8002 70.6C34.6002 70.6 34.5002 70.4 34.6002 70.2L37.6002 50.6L22.2002 63C22.1002 63.1 21.9002 63.1 21.8002 63C21.7002 62.9 21.7002 62.7 21.8002 62.6L34.2002 47.2L14.6002 50.2C14.4002 50.2 14.3002 50.1 14.2002 50C14.2002 49.8 14.2002 49.7 14.4002 49.6L32.9002 42.4L14.4002 35.2C14.2002 35.1 14.2002 35 14.2002 34.8C14.2002 34.6 14.4002 34.5 14.6002 34.6L34.2002 37.6L21.8002 22.2C21.7002 22.1 21.7002 21.9 21.8002 21.8C21.9002 21.7 22.1002 21.7 22.2002 21.8L37.6002 34.2L34.6002 14.6C34.6002 14.4 34.7002 14.3 34.8002 14.2C35.0002 14.2 35.1002 14.2 35.2002 14.4L42.4002 32.9L49.6002 14.4C49.7002 14.2 49.8002 14.2 50.0002 14.2C50.2002 14.2 50.3002 14.4 50.2002 14.6L47.2002 34.2L62.6002 21.8C62.7002 21.7 62.9002 21.7 63.0002 21.8C63.1002 21.9 63.1002 22.1 63.0002 22.2L50.6002 37.6L70.2002 34.6C70.4002 34.6 70.5002 34.7 70.6002 34.8C70.6002 35 70.6002 35.1 70.4002 35.2L51.9002 42.4L70.4002 49.6C70.6002 49.7 70.6002 49.8 70.6002 50C70.6002 50.2 70.4002 50.3 70.2002 50.2L50.6002 47.2L63.0002 62.6C63.1002 62.7 63.1002 62.9 63.0002 63C62.9002 63.1 62.7002 63.1 62.6002 63L47.2002 50.6L50.2002 70.2C50.3002 70.4 50.2002 70.5 49.9002 70.6C50.0002 70.6 50.0002 70.6 49.9002 70.6ZM42.5002 50.7C42.6002 50.7 42.8002 50.8 42.8002 50.9L49.2002 67.4L46.5002 49.9C46.5002 49.8 46.5002 49.6 46.7002 49.6C46.8002 49.5 47.0002 49.5 47.1002 49.6L60.9002 60.7L49.8002 46.9C49.7002 46.8 49.7002 46.7 49.8002 46.5C49.9002 46.4 50.0002 46.3 50.1002 46.3L67.6002 49L51.1002 42.6C51.0002 42.6 50.9002 42.4 50.9002 42.3C50.9002 42.2 51.0002 42 51.1002 42L67.6002 35.6L50.1002 38.3C50.0002 38.3 49.8002 38.3 49.8002 38.1C49.7002 38 49.7002 37.8 49.8002 37.7L60.9002 23.9L47.1002 35C47.0002 35.1 46.9002 35.1 46.7002 35C46.6002 34.9 46.5002 34.8 46.5002 34.7L49.2002 17.2L42.8002 33.7C42.8002 33.8 42.6002 33.9 42.5002 33.9C42.4002 33.9 42.2002 33.8 42.2002 33.7L35.8002 17.2L38.5002 34.7C38.5002 34.8 38.5002 35 38.3002 35C38.2002 35.1 38.0002 35.1 37.9002 35L24.1002 23.9L35.2002 37.7C35.3002 37.8 35.3002 37.9 35.2002 38.1C35.1002 38.2 35.0002 38.3 34.9002 38.3L17.4002 35.6L33.9002 42C34.0002 42 34.1002 42.2 34.1002 42.3C34.1002 42.4 34.0002 42.6 33.9002 42.6L17.4002 49L34.9002 46.3C35.0002 46.3 35.2002 46.3 35.2002 46.5C35.3002 46.6 35.3002 46.8 35.2002 46.9L24.1002 60.7L37.9002 49.6C38.0002 49.5 38.1002 49.5 38.3002 49.6C38.4002 49.7 38.5002 49.8 38.5002 49.9L35.8002 67.4L42.2002 50.9C42.2002 50.8 42.3002 50.7 42.5002 50.7Z" fill="#BB8E4D"/>
</svg>
