<svg width="338" height="26" viewBox="0 0 338 26" fill="none" xmlns="http://www.w3.org/2000/svg">
<path d="M300.901 10.9422C300.901 10.7859 301.057 10.6296 301.214 10.6296C301.839 10.317 302.777 10.1607 303.871 9.84808C306.997 9.22283 309.342 7.03444 310.123 4.06451C310.28 3.43926 310.436 2.81399 310.749 2.18874C310.749 2.03243 310.905 1.8761 311.218 1.8761C311.374 1.8761 311.53 2.03243 311.53 2.18874C311.53 2.18874 311.687 2.81403 311.843 3.59559C312.468 6.72183 314.969 9.22277 318.252 9.69171C319.346 9.84802 320.284 10.1606 321.065 10.4733C321.222 10.4733 321.378 10.6296 321.378 10.7859C321.378 10.9422 321.222 11.0986 321.065 11.0986C320.284 11.4112 319.346 11.5675 318.252 11.8801C315.125 12.5054 312.624 14.85 311.843 17.9762C311.687 18.7578 311.53 19.3831 311.53 19.3831C311.53 19.5394 311.374 19.6957 311.218 19.6957C311.061 19.6957 310.905 19.5394 310.749 19.3831C310.592 18.7578 310.28 18.2889 310.123 17.5073C309.342 14.5374 306.841 12.349 303.871 11.7238C302.777 11.5674 301.995 11.2549 301.214 11.0986C301.057 11.2549 300.901 11.0985 300.901 10.9422ZM310.905 3.90814C310.905 4.06445 310.905 4.22078 310.749 4.22078C309.967 7.50334 307.154 10.0044 303.871 10.6296C303.402 10.786 302.933 10.7859 302.62 10.9422C303.089 11.0985 303.402 11.0985 303.871 11.2548C307.31 11.8801 309.967 14.3811 310.749 17.6637C310.749 17.82 310.749 17.9762 310.905 17.9762C311.687 14.5374 314.344 11.8801 317.939 11.2548C318.408 11.0985 319.033 11.0985 319.346 10.9422C318.877 10.7859 318.408 10.786 317.783 10.6296C314.5 10.0044 311.687 7.34701 310.905 3.90814Z" fill="#BB8E4D"/>
<path d="M250.099 21.2585C250.099 21.1022 250.099 21.1022 250.256 20.9459L253.382 17.8196C253.538 17.6633 253.851 17.6633 254.007 17.8196C254.164 17.9759 254.164 18.2886 254.007 18.4449L250.881 21.5712C250.725 21.7275 250.412 21.7275 250.256 21.5712C250.099 21.4148 250.099 21.2585 250.099 21.2585Z" fill="#BB8E4D"/>
<path d="M264.637 6.72189C264.637 6.56558 264.637 6.56556 264.793 6.40925L267.919 3.28301C268.075 3.12669 268.388 3.12669 268.544 3.28301C268.701 3.43932 268.701 3.75189 268.544 3.9082L265.418 7.03444C265.262 7.19075 264.949 7.19075 264.793 7.03444C264.637 6.87813 264.637 6.87821 264.637 6.72189Z" fill="#BB8E4D"/>
<path d="M250.099 3.59565C250.099 3.43934 250.099 3.43932 250.256 3.28301C250.412 3.12669 250.725 3.12669 250.881 3.28301L254.007 6.40925C254.164 6.56556 254.164 6.87813 254.007 7.03444C253.851 7.19075 253.538 7.19075 253.382 7.03444L250.256 3.9082C250.099 3.9082 250.099 3.75196 250.099 3.59565Z" fill="#BB8E4D"/>
<path d="M264.637 18.1323C264.637 17.976 264.637 17.9759 264.793 17.8196C264.949 17.6633 265.262 17.6633 265.418 17.8196L268.544 20.9459C268.701 21.1022 268.701 21.4148 268.544 21.5712C268.388 21.7275 268.075 21.7275 267.919 21.5712L264.793 18.4449C264.637 18.4449 264.637 18.2886 264.637 18.1323Z" fill="#BB8E4D"/>
<path d="M245.41 12.505C245.41 12.3487 245.567 12.1924 245.723 12.1924C247.442 11.5672 249.943 11.0982 253.226 10.6293C254.007 10.6293 254.633 10.3167 255.258 9.84775C254.633 9.06619 254.164 8.28459 254.007 7.65934C254.007 7.50302 254.007 7.34673 254.164 7.19042C254.32 7.03411 254.476 7.03405 254.633 7.03405C255.258 7.34667 255.883 7.65937 256.821 8.28462C257.29 7.65937 257.446 7.03405 257.603 6.25249C257.915 3.90781 258.384 1.87577 259.009 0.312643C259.009 0.156331 259.166 -6.14092e-07 259.478 -6.00445e-07C259.635 -5.93622e-07 259.791 0.156331 259.791 0.312643C259.791 0.312643 260.573 3.5952 261.042 6.56513C261.198 7.19038 261.51 7.97196 261.823 8.4409C262.605 7.81565 263.386 7.34667 264.011 7.03405C264.168 7.03405 264.324 7.03411 264.48 7.19042C264.637 7.34673 264.637 7.50302 264.48 7.65934C264.48 7.65934 263.699 8.59719 263.074 9.69138C263.699 10.1603 264.324 10.3166 265.106 10.4729C268.544 10.7856 271.202 11.4108 272.921 12.0361C273.078 12.0361 273.234 12.1924 273.234 12.3487C273.234 12.505 273.078 12.6613 272.921 12.6613C271.202 13.2866 268.544 13.9118 265.106 14.2245C264.48 14.2245 263.855 14.537 263.23 14.8497C263.855 15.7875 264.324 16.4128 264.637 17.0381C264.637 17.1944 264.637 17.3507 264.48 17.507C264.324 17.6633 264.168 17.6634 264.011 17.6634C263.386 17.3507 262.605 16.8818 261.667 16.2565C261.198 16.8818 261.042 17.507 260.885 18.1323C260.416 21.1022 259.635 24.2285 259.635 24.3848C259.635 24.5411 259.478 24.6974 259.322 24.6974C259.166 24.6974 259.009 24.5411 258.853 24.3848C258.228 22.8216 257.759 20.7896 257.446 18.4449C257.29 17.6634 256.977 16.8818 256.508 16.2565C255.571 17.0381 254.476 17.6634 254.476 17.6634C254.32 17.8197 254.164 17.8197 254.007 17.6634C253.851 17.507 253.851 17.3507 253.851 17.1943C254.164 16.5691 254.633 15.7876 255.102 15.1623C254.476 14.6934 253.695 14.5371 253.07 14.3807C249.787 14.0681 247.286 13.4429 245.567 12.8176C245.567 12.8176 245.41 12.6613 245.41 12.505ZM256.196 9.84775C256.196 10.0041 256.196 10.1603 256.04 10.1603C255.258 10.7855 254.32 11.0982 253.226 11.2545C250.725 11.5671 248.537 11.8798 246.973 12.3487C248.537 12.8176 250.569 13.1303 253.226 13.4429C254.32 13.5992 255.258 13.9119 256.04 14.5371C256.196 14.6934 256.196 14.8497 256.04 15.1623C255.883 15.3186 255.727 15.475 255.571 15.7876C255.727 15.6313 256.04 15.475 256.196 15.3187C256.352 15.1624 256.665 15.1624 256.665 15.3187C257.446 16.1002 257.759 17.1944 257.915 18.2885C258.228 20.008 258.541 21.4148 258.853 22.8216C259.166 21.5711 259.478 19.8517 259.791 17.9759C259.947 17.038 260.416 16.1002 261.042 15.4749C261.198 15.3186 261.354 15.3186 261.667 15.4749C262.136 15.7876 262.605 16.1002 262.917 16.4128C262.605 16.1002 262.448 15.6312 262.136 15.1623C262.136 15.006 261.979 15.006 262.136 14.8497C262.136 14.6933 262.136 14.6934 262.292 14.5371C263.074 13.9119 264.011 13.5992 264.949 13.5992C267.607 13.2866 269.795 12.9739 271.358 12.505C269.795 12.036 267.607 11.7235 264.949 11.4109C264.011 11.2546 262.917 10.9419 262.136 10.3167C261.979 10.1604 261.979 10.004 261.979 9.69138C262.136 9.37875 262.292 9.22244 262.448 8.90982C262.136 9.06613 261.979 9.22242 261.667 9.37873C261.51 9.53505 261.198 9.53505 261.042 9.37873C260.416 8.59717 259.947 7.65938 259.791 6.7215C259.478 5.00207 259.166 3.12632 258.853 2.03213C258.384 3.28263 258.072 4.8457 257.915 6.56513C257.759 7.50301 257.446 8.44086 256.665 9.37873C256.508 9.53504 256.352 9.53504 256.04 9.37873C255.571 9.06611 255.258 8.75348 254.945 8.59717C255.102 8.9098 255.414 9.37875 255.727 9.69138C256.196 9.69138 256.196 9.84775 256.196 9.84775Z" fill="#BB8E4D"/>
<path d="M179.759 11.7231C179.759 11.5668 179.916 11.4105 180.072 11.2541L186.168 10.0037L184.136 4.06382C184.136 3.90751 184.136 3.75122 184.292 3.59491C184.449 3.43859 184.605 3.59487 184.761 3.75118L188.982 8.44055L193.202 3.75118C193.358 3.59487 193.515 3.59491 193.671 3.59491C193.827 3.75122 193.984 3.90751 193.827 4.06382L191.795 10.0037L197.891 11.2541C198.048 11.2541 198.204 11.4104 198.204 11.7231C198.204 11.8794 198.048 12.0358 197.891 12.1921L191.795 13.4426L193.827 19.3824C193.827 19.5387 193.827 19.695 193.671 19.8513C193.515 20.0076 193.358 19.8514 193.202 19.695L188.982 15.0057L184.761 19.695C184.605 19.8514 184.449 19.8513 184.292 19.8513C184.136 19.695 183.98 19.5387 184.136 19.3824L186.168 13.4426L180.072 12.1921C179.916 12.0358 179.759 11.8794 179.759 11.7231ZM187.106 10.3163L187.106 10.4726C187.106 10.6289 186.95 10.629 186.793 10.629L182.104 11.5668L186.793 12.5046C186.95 12.5046 186.95 12.661 187.106 12.661C187.106 12.8173 187.106 12.8173 187.106 12.9736L185.543 17.5066L188.669 13.9115C188.669 13.7552 188.825 13.7552 188.982 13.7552C189.138 13.7552 189.138 13.7552 189.294 13.9115L192.421 17.5066L190.857 12.9736C190.857 12.8173 190.857 12.8173 190.857 12.661C190.857 12.5047 191.014 12.5046 191.17 12.5046L195.859 11.5668L191.17 10.629C191.014 10.629 191.014 10.4726 190.857 10.4726C190.857 10.3163 190.857 10.3163 190.857 10.1599L192.421 5.62695L189.294 9.22211C189.294 9.37842 189.138 9.37838 188.982 9.37838C188.825 9.37838 188.825 9.37842 188.669 9.22211L185.543 5.62695L187.106 10.3163Z" fill="#BB8E4D"/>
<path d="M71.2788 11.7231C71.2788 11.5668 71.435 11.4105 71.5914 11.2541L77.6876 10.0037L75.6555 4.06382C75.6555 3.90751 75.6555 3.75122 75.8118 3.59491C75.9681 3.43859 76.1244 3.59487 76.2807 3.75118L80.5012 8.44055L84.7216 3.75118C84.8779 3.59487 85.0342 3.59491 85.1905 3.59491C85.3469 3.75122 85.5032 3.90751 85.3469 4.06382L83.3148 10.0037L89.411 11.2541C89.5673 11.2541 89.7236 11.4104 89.7236 11.7231C89.7236 11.8794 89.5673 12.0358 89.411 12.1921L83.3148 13.4426L85.3469 19.3824C85.3469 19.5387 85.3469 19.695 85.1905 19.8513C85.0342 20.0076 84.8779 19.8514 84.7216 19.695L80.5012 15.0057L76.2807 19.695C76.1244 19.8514 75.9681 19.8513 75.8118 19.8513C75.6555 19.695 75.4992 19.5387 75.6555 19.3824L77.6876 13.4426L71.5914 12.1921C71.435 12.0358 71.2788 11.8794 71.2788 11.7231ZM78.6254 10.3163L78.6254 10.4726C78.6254 10.6289 78.4692 10.629 78.3129 10.629L73.6235 11.5668L78.3129 12.5046C78.4692 12.5046 78.4691 12.661 78.6254 12.661C78.6254 12.8173 78.6254 12.8173 78.6254 12.9736L77.0623 17.5066L80.1885 13.9115C80.1885 13.7552 80.3449 13.7552 80.5012 13.7552C80.6575 13.7552 80.6575 13.7552 80.8138 13.9115L83.9401 17.5066L82.3769 12.9736C82.3769 12.8173 82.3769 12.8173 82.3769 12.661C82.3769 12.5047 82.5333 12.5046 82.6896 12.5046L87.3789 11.5668L82.6896 10.629C82.5333 10.629 82.5333 10.4726 82.3769 10.4726C82.3769 10.3163 82.3769 10.3163 82.3769 10.1599L83.9401 5.62695L80.8138 9.22211C80.8138 9.37842 80.6575 9.37838 80.5012 9.37838C80.3449 9.37838 80.3448 9.37842 80.1885 9.22211L77.0623 5.62695L78.6254 10.3163Z" fill="#BB8E4D"/>
<path d="M290.115 22.3525C290.115 22.1962 290.272 22.0399 290.428 22.0399C290.584 22.0399 290.897 21.8835 291.053 21.8835C291.679 21.7272 292.148 21.2583 292.304 20.7894C292.304 20.6331 292.46 20.4767 292.46 20.3204C292.46 20.164 292.617 20.0078 292.929 20.0078C293.085 20.0078 293.242 20.164 293.242 20.3204C293.242 20.3204 293.242 20.4767 293.242 20.633C293.398 21.2583 293.867 21.7272 294.492 21.8835C294.805 21.8835 294.961 22.0399 295.274 22.0399C295.43 22.0399 295.586 22.1962 295.586 22.3525C295.586 22.5088 295.43 22.665 295.274 22.665C295.118 22.665 294.805 22.8214 294.492 22.8214C293.867 22.9777 293.398 23.4466 293.242 24.0719C293.242 24.2282 293.242 24.3845 293.242 24.3845C293.242 24.5408 293.085 24.6972 292.929 24.6972C292.773 24.6972 292.616 24.5408 292.46 24.3845C292.46 24.2282 292.304 24.0719 292.304 23.9156C292.148 23.2904 291.679 22.8214 291.053 22.8214C290.741 22.8214 290.584 22.665 290.428 22.665C290.116 22.665 290.115 22.5088 290.115 22.3525ZM292.773 21.5709C292.617 21.8836 292.148 22.1961 291.835 22.5088C292.304 22.6651 292.617 22.9777 292.773 23.4466C292.929 23.134 293.398 22.8214 293.711 22.5088C293.398 22.1961 292.929 21.8836 292.773 21.5709Z" fill="#BB8E4D"/>
<path d="M281.206 7.03395C281.206 6.87764 281.362 6.7214 281.518 6.7214C281.831 6.56509 282.3 6.40876 282.769 6.40876C284.019 6.09613 285.113 5.1582 285.426 3.90771C285.582 3.59508 285.582 3.28249 285.739 2.96987C285.739 2.81356 285.895 2.65723 286.208 2.65723C286.364 2.65723 286.52 2.81356 286.52 2.96987C286.52 2.96987 286.52 3.28253 286.677 3.59516C286.989 5.00197 288.083 5.93976 289.334 6.25239C289.803 6.4087 290.272 6.40872 290.584 6.56503C290.741 6.56503 290.897 6.72136 290.897 6.87768C290.897 7.03399 290.741 7.19032 290.584 7.19032C290.272 7.34663 289.803 7.50296 289.334 7.50296C287.927 7.81559 286.989 8.75338 286.677 10.1602C286.52 10.4728 286.52 10.7855 286.52 10.7855C286.52 10.9418 286.364 11.0981 286.208 11.0981C286.051 11.0981 285.895 10.9418 285.739 10.7855C285.582 10.4729 285.582 10.1603 285.426 9.84765C285.113 8.59715 284.019 7.65922 282.769 7.34659C282.3 7.19028 281.831 7.19026 281.518 7.03395C281.362 7.34657 281.206 7.19026 281.206 7.03395ZM286.051 4.68927C285.582 5.93976 284.488 6.87769 283.238 7.19032C284.488 7.50294 285.582 8.44078 286.051 9.69128C286.52 8.44078 287.614 7.50294 288.865 7.19032C287.458 6.72138 286.52 5.78345 286.051 4.68927Z" fill="#BB8E4D"/>
<path d="M327.474 20.1643L327.474 16.7254C327.474 16.5691 327.631 16.2565 327.943 16.2565C328.1 16.2565 328.412 16.4128 328.412 16.7254L328.412 20.1643C328.412 20.3206 328.256 20.6332 327.943 20.6332C327.631 20.4769 327.474 20.3206 327.474 20.1643Z" fill="#BB8E4D"/>
<path d="M327.474 25.1655L327.474 21.7266C327.474 21.5703 327.631 21.2577 327.943 21.2577C328.1 21.2577 328.412 21.414 328.412 21.7266L328.412 25.1655C328.412 25.3218 328.256 25.6344 327.943 25.6344C327.631 25.6344 327.474 25.3218 327.474 25.1655Z" fill="#BB8E4D"/>
<path d="M328.569 20.945C328.569 20.7887 328.725 20.4761 329.038 20.4761L332.32 20.4761C332.476 20.4761 332.789 20.6324 332.789 20.945C332.789 21.1013 332.633 21.4139 332.32 21.4139L329.038 21.4139C328.725 21.2576 328.569 21.1013 328.569 20.945Z" fill="#BB8E4D"/>
<path d="M323.254 20.945C323.254 20.7887 323.41 20.4761 323.723 20.4761L327.005 20.4761C327.162 20.4761 327.474 20.6324 327.474 20.945C327.474 21.1013 327.318 21.4139 327.005 21.4139L323.723 21.4139C323.41 21.2576 323.254 21.1013 323.254 20.945Z" fill="#BB8E4D"/>
<path d="M325.129 20.9461C325.129 20.7898 325.286 20.4772 325.598 20.4772C327.63 20.4772 327.63 20.4772 327.63 18.7577C327.63 18.6014 327.787 18.2888 328.099 18.2888C328.256 18.2888 328.568 18.4451 328.568 18.7577C328.568 20.4772 328.568 20.4772 330.6 20.4772C330.757 20.4772 331.069 20.6335 331.069 20.9461C331.069 21.1025 330.913 21.4151 330.6 21.4151C328.568 21.4151 328.568 21.4151 328.568 23.1346C328.568 23.2909 328.412 23.6035 328.099 23.6035C327.943 23.6035 327.63 23.4472 327.63 23.1346C327.63 21.4151 327.63 21.4151 325.598 21.4151C325.286 21.2588 325.129 21.1025 325.129 20.9461Z" fill="#BB8E4D"/>
<path d="M144.902 10.9422C144.902 10.7859 145.058 10.6296 145.214 10.6296C145.839 10.317 146.777 10.1607 147.872 9.84808C150.998 9.22283 153.342 7.03444 154.124 4.06451C154.28 3.43926 154.437 2.81399 154.749 2.18874C154.749 2.03243 154.905 1.8761 155.218 1.8761C155.374 1.8761 155.531 2.03243 155.531 2.18874C155.531 2.18874 155.687 2.81403 155.843 3.59559C156.469 6.72183 158.97 9.22277 162.252 9.69171C163.346 9.84802 164.284 10.1606 165.066 10.4733C165.222 10.4733 165.378 10.6296 165.378 10.7859C165.378 10.9422 165.222 11.0986 165.066 11.0986C164.284 11.4112 163.346 11.5675 162.252 11.8801C159.126 12.5054 156.625 14.85 155.843 17.9762C155.687 18.7578 155.531 19.3831 155.531 19.3831C155.531 19.5394 155.374 19.6957 155.218 19.6957C155.062 19.6957 154.906 19.5394 154.749 19.3831C154.593 18.7578 154.28 18.2889 154.124 17.5073C153.342 14.5374 150.998 12.349 147.872 11.7238C146.777 11.5674 145.996 11.2549 145.214 11.0986C145.058 11.2549 144.902 11.0985 144.902 10.9422ZM154.906 3.90814C154.906 4.06445 154.906 4.22078 154.749 4.22078C153.968 7.50334 151.154 10.0044 147.872 10.6296C147.403 10.786 146.934 10.7859 146.621 10.9422C147.09 11.0985 147.403 11.0985 147.872 11.2548C151.31 11.8801 153.968 14.3811 154.749 17.6637C154.749 17.82 154.749 17.9762 154.906 17.9762C155.687 14.5374 158.344 11.8801 161.94 11.2548C162.409 11.0985 163.034 11.0985 163.346 10.9422C162.877 10.7859 162.409 10.786 161.783 10.6296C158.501 10.0044 155.687 7.34701 154.906 3.90814Z" fill="#BB8E4D"/>
<path d="M164.284 22.3525C164.284 22.1962 164.441 22.0399 164.597 22.0399C164.753 22.0399 165.066 21.8835 165.222 21.8835C165.848 21.7272 166.316 21.2583 166.473 20.7894C166.473 20.6331 166.629 20.4767 166.629 20.3204C166.629 20.164 166.785 20.0078 167.098 20.0078C167.254 20.0078 167.411 20.164 167.411 20.3204C167.411 20.3204 167.411 20.4767 167.411 20.633C167.567 21.2583 168.036 21.7272 168.661 21.8835C168.974 21.8835 169.13 22.0399 169.443 22.0399C169.599 22.0399 169.755 22.1962 169.755 22.3525C169.755 22.5088 169.599 22.665 169.443 22.665C169.286 22.665 168.974 22.8214 168.661 22.8214C168.036 22.9777 167.567 23.4466 167.411 24.0719C167.411 24.2282 167.411 24.3845 167.411 24.3845C167.411 24.5408 167.254 24.6972 167.098 24.6972C166.942 24.6972 166.785 24.5408 166.629 24.3845C166.629 24.2282 166.473 24.0719 166.473 23.9156C166.316 23.2904 165.848 22.8214 165.222 22.8214C164.91 22.8214 164.753 22.665 164.597 22.665C164.441 22.665 164.284 22.5088 164.284 22.3525ZM167.098 21.5709C166.942 21.8836 166.473 22.1961 166.16 22.5088C166.629 22.6651 166.942 22.9777 167.098 23.4466C167.254 23.134 167.723 22.8214 168.036 22.5088C167.567 22.1961 167.254 21.8836 167.098 21.5709Z" fill="#BB8E4D"/>
<path d="M125.206 7.03395C125.206 6.87764 125.362 6.7214 125.519 6.7214C125.831 6.56509 126.3 6.40876 126.769 6.40876C128.02 6.09613 129.114 5.1582 129.427 3.90771C129.583 3.59508 129.583 3.28249 129.739 2.96987C129.739 2.81356 129.895 2.65723 130.208 2.65723C130.364 2.65723 130.521 2.81356 130.521 2.96987C130.521 2.96987 130.521 3.28253 130.677 3.59516C130.99 5.00197 132.084 5.93976 133.334 6.25239C133.803 6.4087 134.272 6.40872 134.585 6.56503C134.741 6.56503 134.897 6.72136 134.897 6.87768C134.897 7.03399 134.741 7.19032 134.585 7.19032C134.272 7.34663 133.803 7.50296 133.334 7.50296C131.928 7.81559 130.99 8.75338 130.677 10.1602C130.521 10.4728 130.521 10.7855 130.521 10.7855C130.521 10.9418 130.364 11.0981 130.208 11.0981C130.052 11.0981 129.895 10.9418 129.739 10.7855C129.583 10.4729 129.583 10.1603 129.427 9.84765C129.114 8.59715 128.02 7.65922 126.769 7.34659C126.3 7.19028 125.831 7.19026 125.519 7.03395C125.362 7.34657 125.206 7.19026 125.206 7.03395ZM130.052 4.68927C129.583 5.93976 128.489 6.87769 127.238 7.19032C128.489 7.50294 129.583 8.44078 130.052 9.69128C130.521 8.44078 131.615 7.50294 132.865 7.19032C131.459 6.72138 130.521 5.78345 130.052 4.68927Z" fill="#BB8E4D"/>
<path d="M26.2605 19.6943C26.2605 19.538 26.4168 19.3816 26.5732 19.3816C26.7295 19.3816 27.0421 19.2254 27.1984 19.2254C27.8237 19.0691 28.2926 18.6001 28.4489 18.1312C28.4489 17.9749 28.6052 17.8186 28.6052 17.6623C28.6052 17.5059 28.7616 17.3496 29.0742 17.3496C29.2305 17.3496 29.3868 17.5059 29.3868 17.6623C29.3868 17.6623 29.3868 17.8185 29.3868 17.9748C29.5431 18.6 30.0121 19.0691 30.6373 19.2254C30.95 19.2254 31.1063 19.3816 31.4189 19.3816C31.5752 19.3816 31.7314 19.538 31.7314 19.6943C31.7314 19.8506 31.5752 20.0069 31.4189 20.0069C31.2626 20.0069 30.95 20.1632 30.6373 20.1632C30.0121 20.3195 29.5431 20.7884 29.3868 21.4137C29.3868 21.57 29.3868 21.7263 29.3868 21.7263C29.3868 21.8826 29.2305 22.039 29.0742 22.039C28.9179 22.039 28.7615 21.8826 28.6052 21.7263C28.6052 21.57 28.4489 21.4137 28.4489 21.2574C28.2926 20.6322 27.8237 20.1632 27.1984 20.1632C26.8858 20.1632 26.7295 20.0069 26.5732 20.0069C26.4168 20.0069 26.2605 19.8506 26.2605 19.6943ZM29.0742 18.9127C28.9179 19.2254 28.4489 19.5379 28.1363 19.8506C28.6052 20.0069 28.9179 20.3196 29.0742 20.7885C29.2305 20.4759 29.6994 20.1632 30.012 19.8506C29.5431 19.5379 29.2305 19.2254 29.0742 18.9127Z" fill="#BB8E4D"/>
<path d="M34.3887 8.75343C34.3887 8.59712 34.545 8.44079 34.7013 8.44079C35.014 8.28448 35.4829 8.12814 35.9518 8.12814C37.2023 7.81552 38.2965 6.87769 38.6091 5.62719C38.7655 5.31456 38.7655 5.00188 38.9218 4.68926C38.9218 4.53294 39.0781 4.37671 39.3907 4.37671C39.547 4.37671 39.7034 4.53294 39.7034 4.68926C39.7034 4.68926 39.7033 5.00192 39.8596 5.31454C40.1723 6.72135 41.2665 7.65925 42.517 7.97187C42.9859 8.12818 43.4548 8.1282 43.7674 8.28451C43.9237 8.28451 44.0801 8.44075 44.0801 8.59706C44.0801 8.75337 43.9237 8.90971 43.7674 8.90971C43.4548 9.06602 42.9859 9.22235 42.517 9.22235C41.1101 9.53497 40.1723 10.4729 39.8596 11.8797C39.7033 12.1923 39.7034 12.5049 39.7034 12.5049C39.7034 12.6612 39.547 12.8175 39.3907 12.8175C39.2344 12.8175 39.0781 12.6612 38.9218 12.5049C38.7655 12.1922 38.7655 11.8797 38.6091 11.567C38.2965 10.3165 37.2023 9.3787 35.9518 9.06607C35.4829 8.90976 35.014 8.90974 34.7013 8.75343C34.545 9.06606 34.3887 8.90974 34.3887 8.75343ZM39.2344 6.25238C38.7655 7.50288 37.6712 8.44081 36.4207 8.75343C37.6712 9.06606 38.7655 10.0039 39.2344 11.2544C39.7034 10.0039 40.7975 9.06606 42.048 8.75343C40.7975 8.2845 39.7034 7.50288 39.2344 6.25238Z" fill="#BB8E4D"/>
<path d="M208.521 19.3828C208.521 19.2265 208.677 19.0701 208.833 19.0701C208.99 19.0701 209.302 18.9139 209.459 18.9139C210.084 18.7575 210.553 18.2886 210.709 17.8196C210.709 17.6633 210.865 17.507 210.865 17.3507C210.865 17.1944 211.022 17.0381 211.334 17.0381C211.491 17.0381 211.647 17.1944 211.647 17.3507C211.647 17.3507 211.647 17.5071 211.647 17.6634C211.803 18.2886 212.272 18.7575 212.897 18.9139C213.21 18.9139 213.366 19.0701 213.679 19.0701C213.835 19.0701 213.992 19.2265 213.992 19.3828C213.992 19.5391 213.835 19.6954 213.679 19.6954C213.523 19.6954 213.21 19.8517 212.897 19.8517C212.272 20.008 211.803 20.4769 211.647 21.1022C211.647 21.2585 211.647 21.4148 211.647 21.4148C211.647 21.5711 211.491 21.7275 211.334 21.7275C211.178 21.7275 211.022 21.5711 210.865 21.4148C210.865 21.2585 210.709 21.1022 210.709 20.9459C210.553 20.3206 210.084 19.8517 209.459 19.8517C209.146 19.8517 208.99 19.6954 208.833 19.6954C208.677 19.6954 208.521 19.5391 208.521 19.3828ZM211.334 18.6012C211.178 18.9138 210.709 19.2264 210.396 19.539C210.865 19.6954 211.178 20.008 211.334 20.477C211.491 20.1643 211.96 19.8517 212.272 19.539C211.803 19.2264 211.491 18.9138 211.334 18.6012Z" fill="#BB8E4D"/>
<path d="M213.21 3.1263C213.21 2.96999 213.367 2.81375 213.523 2.81375C213.679 2.81375 213.992 2.65738 214.148 2.65738C214.773 2.50107 215.242 2.03211 215.399 1.56318C215.399 1.40687 215.555 1.25057 215.555 1.09426C215.555 0.937947 215.711 0.781616 216.024 0.781616C216.18 0.781616 216.336 0.937947 216.336 1.09426C216.336 1.09426 216.336 1.25059 216.336 1.4069C216.493 2.03215 216.962 2.50107 217.587 2.65738C217.9 2.65738 218.056 2.81375 218.369 2.81375C218.525 2.81375 218.681 2.96999 218.681 3.1263C218.681 3.28261 218.525 3.43894 218.369 3.43894C218.212 3.43894 217.9 3.59531 217.587 3.59531C216.962 3.75162 216.493 4.22054 216.336 4.84579C216.336 5.0021 216.336 5.15844 216.336 5.15844C216.336 5.31475 216.18 5.47098 216.024 5.47098C215.868 5.47098 215.711 5.31475 215.555 5.15844C215.555 5.00212 215.399 4.84573 215.399 4.68942C215.242 4.06417 214.773 3.59531 214.148 3.59531C213.835 3.59531 213.679 3.43894 213.523 3.43894C213.367 3.43894 213.21 3.43892 213.21 3.1263ZM216.024 2.34474C215.868 2.65736 215.399 2.97004 215.086 3.28267C215.555 3.43898 215.868 3.75157 216.024 4.2205C216.18 3.90788 216.649 3.59529 216.962 3.28267C216.493 2.97004 216.18 2.65736 216.024 2.34474Z" fill="#BB8E4D"/>
<path d="M228.998 11.7229L228.998 8.28408C228.998 8.12776 229.154 7.81506 229.467 7.81506C229.779 7.81506 229.936 7.97145 229.936 8.28408L229.936 11.7229C229.936 11.8792 229.779 12.1919 229.467 12.1919C229.154 12.1919 228.998 11.8792 228.998 11.7229Z" fill="#BB8E4D"/>
<path d="M228.998 16.7259L228.998 13.287C228.998 13.1307 229.154 12.8181 229.467 12.8181C229.779 12.8181 229.936 12.9744 229.936 13.287L229.936 16.7259C229.936 16.8822 229.779 17.1948 229.467 17.1948C229.154 17.1948 228.998 17.0385 228.998 16.7259Z" fill="#BB8E4D"/>
<path d="M230.092 12.5049C230.092 12.3486 230.248 12.036 230.56 12.036L233.843 12.036C233.999 12.036 234.312 12.1923 234.312 12.5049C234.312 12.6612 234.156 12.9739 233.843 12.9739L230.56 12.9739C230.248 12.9739 230.092 12.6612 230.092 12.5049Z" fill="#BB8E4D"/>
<path d="M224.777 12.5049C224.777 12.3486 224.933 12.036 225.246 12.036L228.529 12.036C228.685 12.036 228.998 12.1923 228.998 12.5049C228.998 12.6612 228.841 12.9739 228.529 12.9739L225.246 12.9739C224.933 12.9739 224.777 12.6612 224.777 12.5049Z" fill="#BB8E4D"/>
<path d="M226.653 12.5043C226.653 12.348 226.809 12.0354 227.122 12.0354C229.154 12.0354 229.154 12.0354 229.154 10.316C229.154 10.1597 229.31 9.84705 229.623 9.84705C229.779 9.84705 230.092 10.0033 230.092 10.316C230.092 12.0354 230.092 12.0354 232.124 12.0354C232.28 12.0354 232.593 12.1917 232.593 12.5043C232.593 12.6606 232.436 12.9733 232.124 12.9733C230.092 12.9733 230.092 12.9733 230.092 14.6927C230.092 14.849 229.935 15.1616 229.623 15.1616C229.467 15.1616 229.154 15.0053 229.154 14.6927C229.154 12.9733 229.154 12.9733 227.122 12.9733C226.809 12.9733 226.653 12.6606 226.653 12.5043ZM229.467 12.348C229.31 12.5043 229.31 12.5043 229.467 12.348C229.467 12.5043 229.467 12.5043 229.467 12.348Z" fill="#BB8E4D"/>
<path d="M110.2 5.15805L110.2 1.71916C110.2 1.56285 110.357 1.25024 110.669 1.25024C110.825 1.25024 111.138 1.40654 111.138 1.71916L111.138 5.15805C111.138 5.31436 110.982 5.62697 110.669 5.62697C110.357 5.62697 110.2 5.47067 110.2 5.15805Z" fill="#BB8E4D"/>
<path d="M110.2 10.1596L110.2 6.72084C110.2 6.56453 110.357 6.25183 110.669 6.25183C110.825 6.25183 111.138 6.40822 111.138 6.72084L111.138 10.1596C111.138 10.3159 110.982 10.6286 110.669 10.6286C110.357 10.6286 110.2 10.4723 110.2 10.1596Z" fill="#BB8E4D"/>
<path d="M111.138 5.93972C111.138 5.7834 111.294 5.4707 111.607 5.4707L114.889 5.4707C115.046 5.4707 115.358 5.62709 115.358 5.93972C115.358 6.09603 115.202 6.40863 114.889 6.40863L111.607 6.40863C111.294 6.40863 111.138 6.25234 111.138 5.93972Z" fill="#BB8E4D"/>
<path d="M105.98 5.93972C105.98 5.7834 106.136 5.4707 106.449 5.4707L109.731 5.4707C109.888 5.4707 110.2 5.62709 110.2 5.93972C110.2 6.09603 110.044 6.40863 109.731 6.40863L106.449 6.40863C106.136 6.40863 105.98 6.25234 105.98 5.93972Z" fill="#BB8E4D"/>
<path d="M107.699 5.93906C107.699 5.78275 107.856 5.47005 108.168 5.47005C110.2 5.47005 110.2 5.47009 110.2 3.75066C110.2 3.59434 110.357 3.28174 110.669 3.28174C110.826 3.28174 111.138 3.43803 111.138 3.75066C111.138 5.47009 111.138 5.47005 113.17 5.47005C113.327 5.47005 113.639 5.62644 113.639 5.93907C113.639 6.09538 113.483 6.40798 113.17 6.40798C111.138 6.40798 111.138 6.40794 111.138 8.12738C111.138 8.28369 110.982 8.5963 110.669 8.5963C110.513 8.5963 110.2 8.44 110.2 8.12738C110.2 6.40794 110.2 6.40798 108.168 6.40798C107.856 6.40798 107.699 6.25169 107.699 5.93906ZM110.513 5.93907C110.513 6.09538 110.513 6.09534 110.513 6.09534C110.669 6.09534 110.669 5.93907 110.513 5.93907C110.669 5.93907 110.669 5.93907 110.513 5.93907Z" fill="#BB8E4D"/>
<path d="M18.2888 6.09651C18.2888 5.9402 18.4452 5.78387 18.6015 5.78387C18.7578 5.78387 19.0704 5.6276 19.2267 5.6276C19.8519 5.47128 20.3209 5.00233 20.4772 4.53339C20.4772 4.37708 20.6335 4.22079 20.6335 4.06447C20.6335 3.90816 20.7898 3.75183 21.1024 3.75183C21.2588 3.75183 21.4151 3.90816 21.4151 4.06447C21.4151 4.06447 21.4151 4.22081 21.4151 4.37712C21.5714 5.00237 22.0403 5.47128 22.6656 5.6276C22.9782 5.6276 23.1345 5.78387 23.4471 5.78387C23.6034 5.78387 23.7598 5.9402 23.7598 6.09651C23.7598 6.25283 23.6034 6.40916 23.4471 6.40916C23.2908 6.40916 22.9782 6.56543 22.6656 6.56543C22.0403 6.72174 21.5714 7.19066 21.4151 7.81591C21.4151 7.97222 21.4151 8.12855 21.4151 8.12855C21.4151 8.28487 21.2588 8.4412 21.1024 8.4412C20.9461 8.4412 20.7898 8.28487 20.6335 8.12855C20.6335 7.97224 20.4772 7.81595 20.4772 7.65964C20.3209 7.03439 19.8519 6.56543 19.2267 6.56543C18.914 6.56543 18.7578 6.40916 18.6015 6.40916C18.2889 6.40916 18.2888 6.25283 18.2888 6.09651ZM20.9462 5.31495C20.7899 5.62758 20.3209 5.94016 20.0082 6.25279C20.4772 6.4091 20.7899 6.72178 20.9462 7.19072C21.1025 6.87809 21.5714 6.56541 21.884 6.25279C21.5714 5.94016 21.1025 5.62758 20.9462 5.31495Z" fill="#BB8E4D"/>
<path d="M2.84187e-05 15.9445C2.84255e-05 15.7882 0.156359 15.6318 0.312671 15.6318C0.625296 15.4755 1.09421 15.3193 1.56315 15.3193C2.81365 15.0067 3.90785 14.0687 4.22048 12.8182C4.37679 12.5056 4.37681 12.193 4.53312 11.8804C4.53312 11.7241 4.68941 11.5677 5.00204 11.5677C5.15835 11.5677 5.31468 11.7241 5.31468 11.8804C5.31468 11.8804 5.31464 12.193 5.47096 12.5056C5.78358 13.9124 6.87779 14.8503 8.12828 15.1629C8.59722 15.3192 9.06614 15.3192 9.37876 15.4756C9.53507 15.4756 9.69141 15.6319 9.69141 15.7882C9.69141 15.9445 9.53507 16.1008 9.37876 16.1008C9.06614 16.2572 8.59722 16.4134 8.12828 16.4134C6.72147 16.726 5.78358 17.6639 5.47096 19.0707C5.47096 19.3833 5.31468 19.696 5.31468 19.696C5.31468 19.8523 5.15835 20.0086 5.00204 20.0086C4.84573 20.0086 4.68943 19.8523 4.53312 19.696C4.37681 19.3834 4.37679 19.0707 4.22048 18.7581C3.90785 17.5076 2.81365 16.5697 1.56315 16.2571C1.09421 16.1008 0.625296 16.1008 0.312671 15.9445C0.156359 16.2571 2.84118e-05 16.1008 2.84187e-05 15.9445ZM4.6894 13.4435C4.22046 14.694 3.12629 15.6318 1.87579 15.9445C3.12629 16.2571 4.22046 17.195 4.6894 18.4455C5.15833 17.195 6.2525 16.2571 7.503 15.9445C6.2525 15.6318 5.31464 14.694 4.6894 13.4435Z" fill="#BB8E4D"/>
<path d="M54.3967 2.49996C54.3967 2.34364 54.5531 2.18731 54.7094 2.18731C54.8657 2.18731 55.1784 2.03104 55.3347 2.03104C55.9599 1.87473 56.4288 1.40577 56.5852 0.936834C56.5852 0.780522 56.7414 0.624229 56.7414 0.467917C56.7414 0.311605 56.8978 0.155273 57.2104 0.155273C57.3668 0.155273 57.523 0.311605 57.523 0.467917C57.523 0.467917 57.523 0.624153 57.523 0.780465C57.6793 1.40571 58.1483 1.87473 58.7736 2.03104C59.0862 2.03104 59.2425 2.18731 59.5551 2.18731C59.7114 2.18731 59.8677 2.34364 59.8677 2.49996C59.8677 2.65627 59.7114 2.8126 59.5551 2.8126C59.3988 2.8126 59.0862 2.96887 58.7736 2.96887C58.1483 3.12519 57.6793 3.5941 57.523 4.21935C57.523 4.37567 57.523 4.532 57.523 4.532C57.523 4.68831 57.3668 4.84464 57.2104 4.84464C57.0541 4.84464 56.8977 4.68831 56.7414 4.532C56.7414 4.37568 56.5852 4.21939 56.5852 4.06308C56.4288 3.43783 55.9599 2.96887 55.3347 2.96887C55.0221 2.96887 54.8657 2.8126 54.7094 2.8126C54.5531 2.8126 54.3967 2.65627 54.3967 2.49996ZM57.0541 1.56203C56.8978 1.87465 56.4289 2.18733 56.1162 2.49996C56.5852 2.65627 56.8978 2.96886 57.0541 3.43779C57.2104 3.12517 57.6794 2.81258 57.992 2.49996C57.6794 2.34364 57.3667 2.03096 57.0541 1.56203Z" fill="#BB8E4D"/>
</svg>
