<svg width="268" height="308" viewBox="0 0 268 308" fill="none" xmlns="http://www.w3.org/2000/svg">
<path d="M114 220.466C77.3816 220.466 47.5347 190.619 47.5347 154C47.5347 117.381 77.3816 87.5342 114 87.5342C150.619 87.5342 180.466 117.381 180.466 154C180.466 190.619 150.619 220.466 114 220.466ZM114 89.0392C78.134 89.0392 49.0396 118.134 49.0396 154C49.0396 189.866 78.134 218.961 114 218.961C149.867 218.961 178.961 189.866 178.961 154C178.961 118.134 149.867 89.0392 114 89.0392Z" fill="#BB8E4D"/>
<path d="M123.031 89.7915C119.77 89.2899 116.76 89.0391 114.001 89.0391C110.992 89.0391 107.982 89.2899 104.972 89.7915C104.721 89.7915 104.47 89.7916 104.22 89.5408C103.969 89.29 103.969 89.039 103.969 88.7882C104.972 64.2084 107.229 39.3778 110.992 15.2996L113.249 0.752413C113.249 0.250784 113.751 0 114.001 0C114.503 0 114.754 0.250784 114.754 0.752413L117.011 15.2996C120.523 39.3778 123.031 64.2084 124.034 88.7882C124.034 89.039 124.034 89.29 123.783 89.5408C123.532 89.5408 123.281 89.7915 123.031 89.7915ZM114.001 6.52111L112.747 15.8013C109.236 39.6287 106.979 63.9576 105.975 88.0358C108.734 87.785 111.493 87.5341 114.252 87.5341C117.011 87.5341 119.77 87.785 122.529 88.0358C121.526 63.7068 119.268 39.3778 115.757 15.8013L114.001 6.52111Z" fill="#BB8E4D"/>
<path d="M114.001 307.749C113.5 307.749 113.249 307.498 113.249 306.997L110.992 292.45C107.48 268.371 104.972 243.541 103.969 218.961C103.969 218.71 103.969 218.459 104.22 218.209C104.47 217.958 104.721 217.958 104.972 217.958C107.982 218.459 110.992 218.71 114.001 218.71C117.011 218.71 120.021 218.459 123.031 217.958C123.281 217.958 123.532 217.958 123.783 218.209C123.783 218.71 123.783 218.961 123.783 218.961C122.78 243.541 120.523 268.371 116.76 292.45L114.503 306.997C114.754 307.498 114.503 307.749 114.001 307.749ZM105.724 219.964C106.728 244.293 108.985 268.622 112.496 292.199L113.751 301.479L115.005 292.199C118.516 268.371 120.773 244.042 121.777 219.964C119.018 220.215 116.259 220.466 113.5 220.466C110.741 220.466 108.483 220.215 105.724 219.964Z" fill="#BB8E4D"/>
<path d="M178.96 163.782C178.71 163.782 178.459 163.782 178.459 163.531C178.208 163.28 178.208 163.029 178.208 162.779C178.71 159.769 178.96 156.759 178.96 153.749C178.96 150.739 178.71 147.73 178.208 144.72C178.208 144.469 178.208 144.218 178.459 143.967C178.71 143.717 178.96 143.717 179.211 143.717C203.791 144.72 228.622 146.977 252.7 150.739L267.247 152.997C267.749 152.997 268 153.498 268 153.749C268 154 267.749 154.502 267.247 154.502L252.7 156.759C228.371 160.521 203.791 162.779 178.96 163.782ZM179.964 145.723C180.215 148.482 180.465 151.241 180.465 154C180.465 156.759 180.215 159.518 179.964 162.277C204.293 161.274 228.622 159.016 252.198 155.505L261.478 154.251L252.198 152.997C228.622 148.984 204.293 146.726 179.964 145.723Z" fill="#BB8E4D"/>
<path d="M48.7883 163.782C24.2085 162.779 -0.622128 160.521 -24.7003 156.759L-39.2476 154.502C-39.7492 154.502 -40 154 -40 153.749C-40 153.498 -39.7492 152.997 -39.2476 152.997L-24.7003 150.739C-0.622128 147.228 24.2085 144.72 48.7883 143.717C49.0391 143.717 49.29 143.717 49.5408 143.967C49.7916 144.218 49.7916 144.469 49.7916 144.72C49.29 147.73 49.0391 150.739 49.0391 153.749C49.0391 156.759 49.29 159.769 49.7916 162.779C49.7916 163.029 49.7916 163.28 49.5408 163.531C49.29 163.782 49.0391 163.782 48.7883 163.782ZM-33.4788 154L-24.1987 155.254C-0.371315 158.765 23.9577 161.023 48.0359 162.026C47.7851 159.267 47.5342 156.508 47.5342 153.749C47.5342 150.99 47.7851 148.231 48.0359 145.472C23.7069 146.476 -0.622128 148.733 -24.1987 152.244L-33.4788 154Z" fill="#BB8E4D"/>
<path d="M73.367 103.085C73.1162 103.085 72.8653 103.085 72.8653 102.834C72.6145 102.583 72.6145 102.081 72.8653 101.831C72.8653 101.831 75.6243 97.5669 75.6243 90.7949C75.6243 83.0196 69.1031 76.2476 62.3311 68.974C56.8132 63.2053 57.8165 55.1792 58.5689 48.1564C58.8197 45.899 59.0706 43.6417 59.0706 41.6352C59.3214 29.5961 48.5363 22.5733 48.5363 22.3225C48.2855 22.0717 48.0347 21.8209 48.2855 21.3193C48.2855 21.0684 48.7872 20.8176 49.038 20.8176C63.0836 20.316 66.0934 35.114 68.0999 44.8958C70.1064 53.9251 78.3833 63.9577 87.9142 68.4723C99.9533 74.2411 105.471 88.0358 105.722 88.7883C105.722 89.0391 105.722 89.29 105.722 89.5408C105.722 89.7916 105.471 89.7915 105.22 90.0423C93.9338 91.5472 83.1487 96.3128 74.1194 103.336C74.1194 103.336 74.1194 103.336 73.8686 103.336C73.6178 103.085 73.367 103.085 73.367 103.085ZM51.5461 22.5733C54.8067 25.3323 61.0771 32.1042 60.8263 41.6352C60.8263 43.8925 60.5754 45.899 60.3246 48.4072C59.5722 55.43 58.5689 62.7036 63.5852 67.9707C70.608 75.4951 77.1292 82.518 77.1292 91.0456C77.1292 94.8079 76.3768 98.0684 75.6243 100.075C84.152 94.0554 93.6829 90.0424 103.966 88.5375C102.461 85.2769 96.9435 74.7427 87.4126 70.2281C77.38 65.4626 68.6015 54.9283 66.595 45.3974C64.5885 36.1173 62.0803 23.8274 51.5461 22.5733Z" fill="#BB8E4D"/>
<path d="M154.632 103.085H154.382C154.382 103.085 154.131 103.085 154.131 102.834C145.101 95.811 134.316 91.0456 123.03 89.5407C122.528 89.5407 122.277 89.0389 122.277 88.7881C122.277 88.7881 127.795 74.241 140.085 68.2215C149.616 63.7068 158.144 53.6742 159.9 44.6449C161.906 35.1139 164.916 20.5667 178.46 20.5667C178.711 20.5667 178.961 20.5667 179.212 20.5667C179.463 20.5667 179.965 20.8175 179.965 21.0683C179.965 21.3191 179.965 21.8207 179.714 22.0716C179.714 22.0716 168.678 29.3452 169.18 41.3843C169.18 43.3908 169.43 45.6481 169.681 47.9054C170.434 54.9282 171.437 62.9542 165.919 68.723C159.147 75.9966 152.626 82.7686 152.626 90.5439C152.626 97.3159 155.385 101.58 155.385 101.58C155.636 101.831 155.636 102.332 155.385 102.583C155.134 103.085 154.883 103.085 154.632 103.085ZM124.284 88.2866C134.567 89.7915 144.098 93.8045 152.626 99.824C151.873 97.8175 151.121 94.8078 151.121 90.7948C151.121 82.2671 157.642 75.2442 164.665 67.7198C169.681 62.4527 168.678 55.179 167.926 48.1562C167.675 45.8989 167.424 43.6416 167.424 41.3843C167.173 31.8533 173.193 25.0813 176.704 22.3224C166.17 23.5765 163.662 35.8664 161.655 44.8957C159.649 54.4266 150.87 64.71 140.838 69.7263C131.056 74.4918 125.789 85.026 124.284 88.2866Z" fill="#BB8E4D"/>
<path d="M178.46 286.932C164.916 286.932 161.906 272.635 159.9 262.854C157.893 253.824 149.616 243.792 140.085 239.277C128.046 233.508 122.528 219.713 122.277 218.961C122.277 218.71 122.277 218.459 122.277 218.209C122.528 217.958 122.528 217.958 122.779 217.707C134.066 216.202 144.851 211.437 153.88 204.414C153.88 204.414 153.88 204.414 154.131 204.414C154.382 204.163 154.883 204.414 155.134 204.665C155.385 204.915 155.385 205.417 155.134 205.668C155.134 205.668 152.375 209.932 152.375 216.704C152.375 224.479 158.896 231.251 165.668 238.525C171.186 244.293 170.183 252.319 169.43 259.342C169.18 261.599 168.929 263.857 168.929 265.863C168.678 277.902 179.463 284.925 179.463 285.176C179.714 285.427 179.965 285.678 179.714 286.179C179.714 286.43 179.212 286.681 178.961 286.681C178.961 286.932 178.711 286.932 178.46 286.932ZM124.284 219.713C125.789 222.974 131.307 233.508 140.838 238.023C150.87 242.788 159.649 253.323 161.655 262.854C163.662 271.883 166.17 284.173 176.704 285.427C173.443 282.668 167.173 275.896 167.424 266.365C167.424 264.108 167.675 262.101 167.926 259.593C168.678 252.57 169.681 245.297 164.665 240.03C157.642 232.505 151.121 225.482 151.121 216.955C151.121 213.192 151.873 209.932 152.626 207.925C144.098 213.945 134.316 217.958 124.284 219.713Z" fill="#BB8E4D"/>
<path d="M49.5396 286.932C49.2887 286.932 49.0379 286.932 48.7871 286.932C48.5363 286.932 48.0347 286.681 48.0347 286.43C48.0347 286.179 48.0347 285.678 48.2855 285.427C48.2855 285.427 59.3213 278.153 58.8197 266.114C58.8197 264.108 58.5689 261.85 58.3181 259.593C57.5656 252.57 56.5624 244.544 62.0803 238.775C68.8523 231.502 75.3734 224.73 75.3734 216.955C75.3734 210.183 72.6145 205.919 72.6145 205.919C72.3637 205.668 72.3637 205.166 72.6145 204.915C72.8653 204.665 73.1161 204.665 73.6177 204.665C73.6177 204.665 73.8686 204.665 73.8686 204.915C82.8979 211.938 93.6829 216.704 104.97 218.209C105.22 218.209 105.471 218.459 105.471 218.71C105.471 218.961 105.722 219.212 105.471 219.463C105.22 219.964 99.7024 234.01 87.6633 239.779C78.1324 244.293 69.6047 254.326 67.849 263.355C66.0933 272.635 63.0835 286.932 49.5396 286.932ZM75.3734 207.925C76.1259 209.932 76.8783 212.941 76.8783 216.955C76.8783 225.482 70.3572 232.505 63.3344 240.029C58.3181 245.297 59.3213 252.57 60.0738 259.593C60.3246 261.85 60.5754 264.108 60.5754 266.365C60.8262 275.896 54.5558 282.668 51.2953 285.427C61.8295 284.173 64.3376 271.883 66.3441 262.854C68.3506 253.323 77.1291 243.039 87.1617 238.023C96.6927 233.508 102.211 222.723 103.715 219.713C93.4321 217.958 83.9011 213.945 75.3734 207.925Z" fill="#BB8E4D"/>
<path d="M61.5799 115.124C61.329 115.124 61.0782 115.124 61.0782 114.873C44.2737 96.8144 28.4724 77.7524 13.9251 57.9381L5.14661 46.1498C4.89579 45.899 4.89579 45.3974 5.14661 45.1466C5.39742 44.8958 5.89904 44.8958 6.14986 45.1466L17.9381 53.9251C37.5017 68.4724 56.5636 84.2736 74.873 101.078C75.1238 101.329 75.1238 101.58 75.1238 101.831C75.1238 102.081 74.873 102.332 74.873 102.332C72.3649 104.088 70.1076 106.094 68.101 108.101C66.0945 110.107 64.088 112.365 62.3323 114.873C62.0815 115.124 61.8307 115.124 61.5799 115.124ZM9.66127 49.6612L15.1792 57.1857C29.4756 76.4984 45.0261 95.3094 61.5799 113.117C63.3356 110.86 65.0913 108.853 67.0978 106.847C69.1043 104.84 71.1108 103.085 73.3681 101.329C55.5603 84.7752 36.7492 69.2248 17.4365 54.9284L9.66127 49.6612Z" fill="#BB8E4D"/>
<path d="M222.101 262.853C221.85 262.853 221.85 262.853 221.599 262.603L209.811 253.824C190.248 239.277 171.186 223.475 152.876 206.671C152.625 206.42 152.625 206.169 152.625 205.919C152.625 205.668 152.876 205.417 152.876 205.417C155.384 203.661 157.642 201.655 159.648 199.648C161.655 197.642 163.661 195.384 165.417 192.876C165.668 192.625 165.668 192.625 165.919 192.625C166.169 192.625 166.42 192.625 166.671 192.876C183.476 210.935 199.277 229.997 213.824 249.811L222.603 261.599C222.854 261.85 222.854 262.352 222.603 262.603C222.603 262.853 222.352 262.853 222.101 262.853ZM154.883 206.42C172.691 222.974 191.502 238.524 210.814 252.821L218.339 258.339L212.821 250.814C198.525 231.502 182.974 212.691 166.42 194.883C164.665 197.14 162.909 199.147 160.902 201.153C159.147 202.909 157.14 204.664 154.883 206.42Z" fill="#BB8E4D"/>
<path d="M166.421 115.124C166.17 115.124 165.919 114.873 165.668 114.873C163.913 112.365 161.906 110.107 159.9 108.101C157.893 106.094 155.636 104.088 153.128 102.332C152.877 102.081 152.877 102.081 152.877 101.831C152.877 101.58 152.877 101.329 153.128 101.078C171.186 84.2736 190.248 68.4724 210.063 53.9251L221.851 45.1466C222.102 44.8958 222.603 44.8958 222.854 45.1466C223.105 45.3974 223.105 45.899 222.854 46.1498L214.076 57.9381C199.528 77.5016 183.727 96.5635 166.923 114.873C166.923 115.124 166.672 115.124 166.421 115.124ZM154.883 101.58C157.141 103.336 159.147 105.091 161.154 107.098C163.16 109.104 164.916 111.111 166.672 113.368C183.226 95.5604 198.776 76.7492 213.072 57.4365L218.59 49.9121L211.066 55.4299C191.502 69.4755 172.691 85.0261 154.883 101.58Z" fill="#BB8E4D"/>
<path d="M5.90019 262.853C5.64938 262.853 5.39856 262.853 5.39856 262.603C5.14775 262.352 5.14775 261.85 5.39856 261.599L14.1771 249.811C28.7243 230.248 44.5256 211.186 61.3302 192.876C61.581 192.625 61.8318 192.625 62.0826 192.625C62.3335 192.625 62.5843 192.876 62.5843 192.876C64.34 195.384 66.3465 197.642 68.353 199.648C70.3595 201.655 72.6168 203.661 75.125 205.417C75.3758 205.668 75.3758 205.668 75.3758 205.919C75.3758 206.169 75.3758 206.42 75.125 206.671C57.0663 223.475 38.0044 239.277 18.1901 253.824L6.40182 262.603C6.15101 262.853 5.90019 262.853 5.90019 262.853ZM61.581 194.883C45.0272 212.691 29.4768 231.502 15.1803 250.814L9.66241 258.339L17.1868 252.821C36.4996 238.524 55.3106 222.974 73.1185 206.42C70.8611 204.664 68.8546 202.909 66.8481 200.902C65.0924 199.147 63.3367 197.14 61.581 194.883Z" fill="#BB8E4D"/>
<path d="M178.961 145.723C178.459 145.723 178.208 145.472 178.208 144.971C176.703 133.684 171.938 122.899 164.915 113.869C164.915 113.869 164.915 113.87 164.915 113.619C164.664 113.368 164.915 112.866 165.166 112.615C165.417 112.365 165.918 112.365 166.169 112.615C166.169 112.615 170.433 115.374 177.205 115.374C184.98 115.374 191.752 108.853 199.026 102.081C204.794 96.5634 212.82 97.5667 219.843 98.3191C222.101 98.5699 224.358 98.8206 226.364 98.8206C238.404 99.3223 245.426 88.2865 245.677 88.2865C245.928 88.0357 246.179 87.7848 246.68 88.0356C246.931 88.0356 247.182 88.5372 247.182 88.788C247.684 102.834 232.886 105.844 223.104 107.85C214.075 109.857 204.042 118.133 199.527 127.664C193.508 140.205 179.211 145.723 178.961 145.723ZM168.176 115.374C174.195 123.902 178.208 133.433 179.713 143.716C182.974 142.212 193.508 136.945 198.022 127.163C202.788 117.13 213.322 108.352 222.853 106.345C231.882 104.339 244.172 101.83 245.426 91.2962C242.667 94.5568 236.397 100.576 227.117 100.576C226.866 100.576 226.615 100.576 226.364 100.576C224.107 100.576 222.101 100.326 219.592 100.075C212.57 99.3223 205.296 98.3191 200.029 103.335C192.505 110.358 185.482 116.879 176.954 116.879C173.192 116.879 170.182 116.127 168.176 115.374Z" fill="#BB8E4D"/>
<path d="M246.178 219.713C245.927 219.713 245.677 219.463 245.426 219.463C245.426 219.463 238.152 208.427 226.113 208.928C224.107 208.928 221.849 209.179 219.592 209.43C212.569 210.183 204.543 211.186 198.774 205.668C191.501 198.896 184.729 192.375 176.953 192.375C170.181 192.375 165.918 195.134 165.918 195.134C165.667 195.384 165.165 195.384 164.914 195.134C164.664 194.883 164.664 194.632 164.664 194.13C164.664 194.13 164.664 193.88 164.914 193.88C171.937 184.85 176.703 174.065 178.208 162.779C178.208 162.277 178.709 162.026 178.96 162.026C178.96 162.026 193.507 167.544 199.527 179.834C204.041 189.365 214.074 197.893 223.103 199.648C232.885 201.655 247.683 204.665 247.182 218.71C247.182 219.463 246.931 219.713 246.178 219.713C246.429 219.713 246.429 219.713 246.178 219.713ZM226.866 207.173C236.146 207.173 242.416 213.192 245.175 216.453C243.921 205.919 231.631 203.411 222.602 201.404C213.071 199.398 202.787 190.619 197.771 180.586C193.256 170.805 182.471 165.537 179.462 164.033C177.957 174.316 173.944 183.847 167.924 192.375C169.931 191.622 172.94 190.87 176.953 190.87C185.481 190.87 192.504 197.391 200.028 204.414C205.296 209.43 212.569 208.427 219.592 207.674C221.849 207.424 224.107 207.173 226.364 207.173C226.615 207.173 226.866 207.173 226.866 207.173Z" fill="#BB8E4D"/>
<path d="M-18.4304 219.713C-18.9321 219.463 -19.1829 219.212 -19.1829 218.961C-19.6845 204.915 -4.88647 201.906 4.8953 199.899C13.9246 197.893 23.9572 189.616 28.4719 180.085C34.2406 168.046 48.0354 162.528 48.7878 162.277C49.0386 162.277 49.2895 162.277 49.5403 162.277C49.7911 162.277 49.7911 162.528 50.0419 162.778C51.5468 174.065 56.3123 184.85 63.3351 193.88C63.3351 193.88 63.3351 193.879 63.3351 194.13C63.5859 194.381 63.3351 194.883 63.0843 195.134C62.8335 195.384 62.3318 195.384 62.081 195.134C62.081 195.134 57.8172 192.375 51.0452 192.375C43.2699 192.375 36.4979 198.896 29.2243 205.668C23.4556 211.186 15.4295 210.183 8.4067 209.43C6.14937 209.179 3.89205 208.928 1.88553 208.928C-10.1536 208.678 -17.1764 219.463 -17.4272 219.463C-17.9288 219.713 -18.1796 219.713 -18.4304 219.713ZM29.9767 180.837C25.2113 190.87 14.6771 199.648 5.14612 201.655C-3.8832 203.661 -16.1731 206.169 -17.4272 216.704C-14.6682 213.443 -7.89624 207.173 1.63471 207.424C3.89204 207.424 5.89856 207.674 8.4067 207.925C15.4295 208.678 22.7031 209.681 27.9702 204.665C35.4947 197.642 42.5175 191.121 51.0452 191.121C54.8074 191.121 58.068 191.873 60.0745 192.625C54.0549 184.098 50.0419 174.567 48.537 164.283C45.0256 165.538 34.4914 171.055 29.9767 180.837Z" fill="#BB8E4D"/>
<path d="M49.0386 145.723H48.7878C48.2862 145.472 34.2406 139.955 28.4719 127.916C23.9572 118.385 13.9246 109.857 4.8953 108.101C-4.88647 106.095 -19.6845 103.085 -19.1829 89.0393C-19.1829 88.7885 -18.9321 88.2869 -18.6813 88.2869C-18.4304 88.2869 -17.9288 88.2868 -17.678 88.5376C-17.678 88.5376 -10.4044 99.5735 1.63471 99.0719C3.64123 99.0719 5.89856 98.821 8.15589 98.5702C15.1787 97.8178 23.2048 96.8145 28.9735 102.332C36.2471 109.104 43.0191 115.626 50.7943 115.626C57.5663 115.626 61.8302 112.867 61.8302 112.867C62.081 112.616 62.5826 112.616 62.8334 112.867C63.0842 113.117 63.0843 113.368 63.0843 113.87C63.0843 113.87 63.0842 114.121 62.8334 114.121C55.8106 123.15 51.0452 133.935 49.5403 145.222C49.5403 145.472 49.2895 145.723 49.0386 145.723ZM29.9767 127.163C34.7422 136.945 45.2764 142.212 48.2862 143.717C49.7911 133.433 53.8041 123.902 59.8237 115.375C57.8171 116.127 54.8074 116.88 50.7943 116.88C42.2667 116.88 35.2438 110.359 27.7194 103.336C22.4523 98.3194 15.1787 99.3226 8.15589 100.075C5.89856 100.326 3.64123 100.577 1.3839 100.577C1.13309 100.577 0.882273 100.577 0.631458 100.577C-8.64868 100.577 -14.919 94.5571 -17.678 91.2965C-16.4239 101.831 -4.13402 104.339 4.8953 106.345C14.6771 108.352 24.9604 117.131 29.9767 127.163Z" fill="#BB8E4D"/>
<path d="M153.377 145.974H153.126C153.126 145.974 150.367 144.971 149.113 142.964C148.11 141.459 143.846 139.704 140.586 139.704C137.074 139.704 133.061 141.459 132.058 142.964C130.804 144.971 128.045 145.974 128.045 145.974C127.543 146.225 127.042 145.974 127.042 145.472C126.791 144.971 127.042 144.469 127.543 144.469C127.543 144.469 129.801 143.717 130.804 142.212C132.309 139.955 137.074 138.199 140.837 138.199C144.599 138.199 149.364 140.205 150.869 142.212C151.622 143.466 153.628 144.218 154.13 144.469C154.631 144.72 154.882 144.971 154.631 145.472C154.13 145.974 153.879 145.974 153.377 145.974Z" fill="#BB8E4D"/>
<path d="M140.335 147.73C137.576 147.73 135.57 145.472 135.57 142.964C135.57 140.205 137.827 138.199 140.335 138.199C143.094 138.199 145.101 140.456 145.101 142.964C145.352 145.472 143.094 147.73 140.335 147.73ZM140.335 139.704C138.58 139.704 137.075 141.209 137.075 142.964C137.075 144.72 138.58 146.225 140.335 146.225C142.091 146.225 143.596 144.72 143.596 142.964C143.596 141.209 142.091 139.704 140.335 139.704Z" fill="#BB8E4D"/>
<path d="M126.039 142.212C125.788 142.212 125.537 142.212 125.537 141.961C125.286 141.71 125.286 141.209 125.537 140.707C125.788 140.456 130.554 136.192 132.811 134.938C135.319 133.433 141.84 132.681 144.599 134.186C147.358 135.44 152.124 140.707 152.124 140.958C152.374 141.209 152.374 141.71 152.124 142.212C151.873 142.463 151.371 142.463 150.87 142.212C149.615 140.707 145.853 136.694 143.847 135.942C141.589 134.938 135.57 135.44 133.563 136.694C131.306 137.948 126.54 142.212 126.54 142.212C126.54 141.961 126.29 142.212 126.039 142.212Z" fill="#BB8E4D"/>
<path d="M112.746 179.332C110.99 179.332 109.987 178.329 108.733 177.577C107.73 176.824 106.977 176.323 106.225 176.072C105.974 176.072 105.723 176.072 105.222 176.072C102.964 176.072 99.4528 175.821 98.7003 172.059C97.9479 168.046 101.208 165.287 101.459 165.036C101.71 164.785 102.212 164.785 102.713 165.036C102.964 165.287 102.964 165.788 102.713 166.29C102.713 166.29 99.9544 168.798 100.707 171.808C101.208 174.065 102.964 174.316 105.723 174.316C105.974 174.316 106.476 174.316 106.726 174.316C108.231 174.316 109.235 175.319 110.238 176.072C111.241 176.824 112.244 177.577 113.248 177.577C114.502 177.577 115.254 176.824 116.257 176.072C117.261 175.319 118.264 174.316 119.769 174.316C120.02 174.316 120.521 174.316 120.772 174.316C123.531 174.316 125.287 174.065 125.788 171.808C126.29 168.798 123.782 166.29 123.531 166.29C123.28 166.039 123.28 165.538 123.531 165.036C123.782 164.785 124.283 164.785 124.785 165.036C125.036 165.036 128.296 168.046 127.544 172.059C126.792 175.821 123.28 176.072 121.023 176.072C120.772 176.072 120.27 176.072 120.02 176.072C119.016 176.072 118.264 176.824 117.511 177.577C116.007 178.329 114.752 179.583 112.746 179.332Z" fill="#BB8E4D"/>
<path d="M109.986 173.814H109.735C109.484 173.814 106.475 172.31 107.729 166.792C108.23 165.036 108.481 164.033 108.983 163.029C109.735 161.525 110.237 160.27 110.237 155.756V138.951C110.237 138.45 110.488 138.199 110.989 138.199C111.491 138.199 111.742 138.45 111.742 138.951V155.756C111.742 160.772 110.989 162.277 110.488 163.782C109.986 164.534 109.735 165.538 109.234 167.293C108.23 171.306 110.237 172.31 110.488 172.31C110.989 172.56 110.989 173.062 110.989 173.313C110.488 173.564 110.237 173.814 109.986 173.814Z" fill="#BB8E4D"/>
<path d="M112.996 190.619C111.993 190.619 111.491 190.368 110.99 190.117C110.488 189.867 109.736 189.616 108.231 189.365C107.478 189.365 106.977 189.365 106.224 189.616C105.472 189.867 104.719 189.867 103.716 189.867C101.459 189.867 98.1983 189.616 98.1983 189.616C97.6966 189.616 97.4458 189.114 97.4458 188.613C97.4458 188.111 97.9474 187.86 98.4491 187.86C98.4491 187.86 101.71 188.111 103.716 188.111C104.719 188.111 105.472 187.86 105.973 187.86C106.726 187.609 107.478 187.609 108.482 187.609C110.488 187.609 111.241 188.111 111.993 188.362C112.495 188.612 112.745 188.863 113.498 188.863C114 188.863 114.25 188.612 114.752 188.362C115.504 188.111 116.257 187.609 118.263 187.609C119.267 187.609 120.019 187.609 120.772 187.86C121.524 188.111 122.026 188.111 123.029 188.111C125.035 188.111 128.296 187.86 128.296 187.86C128.798 187.86 129.048 188.111 129.299 188.613C129.299 189.114 129.048 189.365 128.547 189.616C128.296 189.616 125.035 190.117 123.029 189.867C122.026 189.867 121.022 189.616 120.521 189.616C119.768 189.365 119.267 189.365 118.514 189.365C117.009 189.365 116.257 189.867 115.755 190.117C114.501 190.368 114 190.619 112.996 190.619Z" fill="#BB8E4D"/>
<path d="M112.998 188.362C112.747 188.362 112.747 188.362 112.496 188.111C111.242 187.358 109.487 186.104 108.985 185.853C108.483 185.853 106.979 186.355 105.223 187.358C104.721 187.609 104.22 187.358 104.22 187.107C103.969 186.606 104.22 186.104 104.47 186.104C105.725 185.352 108.233 184.349 109.236 184.599C109.988 184.85 111.995 186.104 112.998 186.857C114.001 186.104 115.757 184.85 116.51 184.599C117.513 184.349 120.021 185.352 121.275 186.104C121.777 186.355 121.777 186.857 121.526 187.107C121.275 187.609 120.773 187.609 120.523 187.358C119.018 186.606 117.262 185.853 116.76 185.853C116.259 186.104 114.252 187.358 113.249 188.111C113.249 188.362 113.249 188.362 112.998 188.362Z" fill="#BB8E4D"/>
<path d="M112.996 195.886C108.732 195.886 102.712 191.873 102.462 191.873C102.211 191.622 101.96 191.121 102.211 190.87C102.462 190.619 102.963 190.368 103.214 190.619C103.214 190.619 108.983 194.381 112.996 194.381C116.758 194.381 122.527 190.619 122.778 190.619C123.028 190.368 123.53 190.368 123.781 190.87C124.032 191.121 124.032 191.622 123.53 191.873C123.279 192.124 117.26 195.886 112.996 195.886Z" fill="#BB8E4D"/>
<path d="M154.632 128.166C154.381 128.166 154.381 128.166 154.13 128.166C134.566 117.381 123.781 127.916 123.531 127.916C123.28 128.166 122.778 128.166 122.276 127.916C122.026 127.665 122.026 127.163 122.276 126.661C122.276 126.661 134.316 115.124 154.882 126.411C155.384 126.661 155.384 127.163 155.133 127.414C155.133 127.915 154.882 128.166 154.632 128.166Z" fill="#BB8E4D"/>
<path d="M100.457 145.974H100.206C100.206 145.974 97.4471 144.971 96.193 142.964C95.1898 141.459 90.9259 139.704 87.6653 139.704C84.1539 139.704 80.1409 141.459 79.1376 142.964C77.8836 144.971 75.1246 145.974 75.1246 145.974C74.623 146.225 74.1213 145.974 74.1213 145.472C73.8705 144.971 74.1214 144.469 74.623 144.469C74.623 144.469 76.8803 143.717 77.8836 142.212C79.3884 139.955 84.1539 138.199 87.9161 138.199C91.6784 138.199 96.4438 140.205 97.9487 142.212C98.7012 143.466 100.708 144.218 101.209 144.469C101.711 144.72 101.962 144.971 101.711 145.472C101.209 145.974 100.958 145.974 100.457 145.974Z" fill="#BB8E4D"/>
<path d="M87.4144 147.73C84.6554 147.73 82.6489 145.472 82.6489 142.964C82.6489 140.205 84.9063 138.199 87.4144 138.199C90.1734 138.199 92.1799 140.456 92.1799 142.964C92.4307 145.472 90.1734 147.73 87.4144 147.73ZM87.4144 139.704C85.6587 139.704 84.1538 141.209 84.1538 142.964C84.1538 144.72 85.6587 146.225 87.4144 146.225C89.1701 146.225 90.675 144.72 90.675 142.964C90.675 141.209 89.4209 139.704 87.4144 139.704Z" fill="#BB8E4D"/>
<path d="M101.71 142.212C101.459 142.212 101.208 142.212 101.208 141.961C101.208 141.961 96.4426 137.697 94.1853 136.443C92.1788 135.189 86.1593 134.687 83.9019 135.691C81.8954 136.694 78.1332 140.456 76.8791 141.961C76.6283 142.212 76.1267 142.212 75.6251 141.961C75.1234 141.71 75.3743 141.209 75.6251 140.707C75.8759 140.456 80.6414 135.189 83.1495 133.935C85.9085 132.681 92.4296 133.183 94.9378 134.687C97.1951 135.941 101.961 140.205 102.211 140.456C102.462 140.707 102.462 141.209 102.211 141.71C102.211 141.961 101.961 142.212 101.71 142.212Z" fill="#BB8E4D"/>
<path d="M73.3676 128.166C73.1168 128.166 72.8659 127.915 72.6151 127.664C72.3643 127.163 72.6151 126.661 72.8659 126.661C83.651 120.642 91.677 121.143 96.6933 122.397C102.211 123.902 105.221 126.661 105.221 126.912C105.472 127.163 105.472 127.664 105.221 128.166C104.97 128.417 104.469 128.417 103.967 128.166C103.967 128.166 101.208 125.407 95.9409 124.153C89.1689 122.397 81.3936 123.902 73.3676 128.417C73.6184 128.166 73.3676 128.166 73.3676 128.166Z" fill="#BB8E4D"/>
</svg>
