<svg width="200" height="373" viewBox="0 0 200 373" fill="none" xmlns="http://www.w3.org/2000/svg">
<g clip-path="url(#clip0_10604_14978)">
<path d="M75.5126 139.182C68.4796 144.581 63.7681 152.001 59.0566 159.42C54.1205 166.765 49.5588 174.484 45.0719 181.978C36.5468 196.367 28.2464 210.83 19.1222 224.77C9.92338 238.935 -0.473566 252.202 -12.8175 263.824C-23.4407 274.02 -35.487 282.496 -48.5072 289.399C-63.0987 297.278 -78.8892 302.762 -95.13 305.849C-95.6539 305.924 -95.8042 304.876 -95.2803 304.8C-65.4181 299.003 -37.5814 285.044 -15.2872 264.5C9.47583 241.782 25.9265 211.806 42.9767 183.029C47.613 175.085 52.474 167.216 57.5596 159.422C62.5704 151.852 67.656 144.058 74.7637 138.433C75.3623 138.133 75.8867 138.807 75.5126 139.182Z" fill="#B1C0D9"/>
<path d="M28.0957 209.033C29.2897 202.441 30.1092 195.475 29.0577 188.885C28.682 186.264 28.007 183.793 27.0327 181.472C24.184 173.536 19.9135 166.126 14.2215 159.99C16.6916 160.062 18.9371 160.06 21.3321 159.608C22.9038 159.382 24.5503 158.931 26.2719 159.004C27.9935 159.077 29.5656 159.6 30.6143 160.947C31.8128 162.593 31.9639 165.14 30.393 166.864C31.1415 166.863 31.665 166.039 32.3383 165.514C33.3857 164.614 35.2572 164.987 36.156 166.034C37.1295 166.857 37.5795 168.504 37.655 169.778C37.956 172.623 36.9098 175.77 35.1894 177.944C36.6865 177.942 37.8082 176.069 39.2305 176.292C39.979 176.291 40.7279 177.04 41.0276 177.638C41.2526 178.462 41.253 179.211 41.2534 179.96C40.7316 183.78 38.9373 187.677 36.0196 190.451C37.0675 190.3 38.19 189.924 39.1631 189.998C40.2109 189.847 41.4838 190.52 41.634 191.569C41.7092 192.093 41.485 192.767 41.2608 193.441C38.4199 199.735 33.7823 205.432 27.9462 209.483" fill="#B1C0D9"/>
<path d="M28.0957 209.033C28.8417 204.538 29.5837 192.554 28.533 187.462C28.1577 185.59 27.7824 183.718 27.1825 181.772C24.7839 175.483 21.6367 169.195 17.2923 163.507C19.089 164.104 21.1851 164.551 23.0565 164.924C24.2542 165.073 25.4519 165.221 26.7995 165.669C28.147 166.117 29.3451 167.015 30.0193 167.988C31.068 169.335 30.9193 171.282 29.9466 171.957C30.6204 172.181 30.9945 171.807 31.3685 171.432C32.1917 171.206 33.5393 171.654 34.2135 172.627C34.8877 173.6 35.2625 174.723 35.4128 175.772C35.7134 177.868 35.0408 179.891 33.6941 180.941C34.817 181.315 35.6399 180.34 36.7628 180.713C37.4366 180.937 37.7363 181.536 38.0361 182.135C38.3358 182.734 38.1863 183.184 38.1867 183.933C37.8139 186.554 36.5427 188.877 34.3728 190.153C35.0465 190.377 35.8698 190.151 36.7681 190.45C37.4419 190.674 38.4902 191.272 38.7152 192.096C38.7903 192.62 38.6409 193.069 38.5661 193.294C36.3978 197.565 30.6389 205.885 28.0957 209.033Z" fill="#627692"/>
<path d="M-17.6058 267.723C-16.487 260.607 -15.8173 253.341 -17.2433 246.377C-17.8435 243.682 -18.6684 240.911 -19.568 238.366C-22.7164 229.831 -27.8106 221.897 -34.1016 215.312C-31.4069 215.459 -28.9368 215.532 -26.3173 215.154C-24.5209 215.003 -22.8745 214.552 -20.9283 214.7C-19.2067 214.773 -17.4099 215.37 -16.1367 216.792C-14.7136 218.513 -14.6372 221.284 -16.2082 223.008C-15.2351 223.082 -14.7115 222.258 -14.0382 221.733C-12.7662 220.908 -11.1193 221.206 -9.99594 222.328C-8.87257 223.45 -8.34782 224.873 -8.12241 226.446C-7.67158 229.591 -8.71778 232.737 -10.5129 235.136C-9.01587 235.134 -7.89413 233.261 -6.17253 233.334C-5.42403 233.333 -4.67511 234.081 -4.22552 234.98C-4.00052 235.803 -4.0001 236.552 -4.07442 237.526C-4.44642 241.646 -6.31542 245.767 -9.45767 248.466C-8.40984 248.316 -7.28729 247.94 -6.0896 248.089C-4.89192 248.237 -3.76895 248.61 -3.39408 249.734C-3.31894 250.258 -3.54313 250.932 -3.76731 251.606C-6.75763 258.35 -11.3952 264.047 -17.5307 268.247" fill="#B1C0D9"/>
<path d="M-17.6058 267.723C-17.0097 262.929 -16.5674 250.346 -17.768 244.955C-18.2931 242.783 -18.6684 240.911 -19.4929 238.89C-22.1913 232.002 -25.9375 225.265 -30.6564 219.203C-28.6351 219.875 -26.3891 220.622 -24.5177 220.995C-23.0954 221.218 -21.8977 221.366 -20.6249 222.039C-19.2773 222.487 -17.8546 223.459 -17.0306 224.732C-15.8321 226.378 -15.9807 228.326 -16.9534 229.001C-16.2796 229.225 -15.9056 228.85 -15.3069 228.55C-14.409 228.1 -12.9115 228.847 -12.2374 229.82C-11.5632 230.793 -10.9637 231.991 -10.8134 233.039C-10.5876 235.361 -11.0356 237.458 -12.3823 238.508C-11.2593 238.881 -10.4365 237.907 -9.31355 238.28C-8.63978 238.504 -8.11546 239.178 -7.81573 239.777C-7.516 240.376 -7.51559 241.125 -7.66504 241.574C-7.88799 244.495 -9.15918 246.818 -11.5537 248.019C-10.6554 248.318 -9.90686 248.317 -9.00849 248.616C-8.11012 248.914 -7.13662 249.737 -6.91162 250.561C-6.83648 251.085 -6.98593 251.535 -7.06066 251.759C-9.15425 255.806 -15.0626 264.575 -17.6058 267.723Z" fill="#627692"/>
<path d="M25.7032 213.979C32.2886 211.426 39.3232 209.022 46.3591 208.865C49.1285 208.787 51.8232 208.934 54.4432 209.306C63.2762 210.496 71.9606 213.632 79.6727 218.193C78.9976 215.722 78.5472 213.326 78.1715 210.705C78.0209 208.908 77.8702 207.111 77.4202 205.463C76.9702 203.816 75.9962 202.244 74.349 201.197C72.4771 200.076 69.7081 200.902 68.3618 202.701C68.1367 201.878 68.8848 201.128 69.1838 200.229C69.8567 198.955 68.9575 197.158 67.7594 196.261C66.5613 195.363 64.8397 195.29 63.5673 195.366C60.4986 195.594 57.6552 197.394 55.6355 199.718C55.1855 198.071 56.9063 196.646 56.3816 195.224C56.1566 194.4 55.3329 193.877 54.3598 193.803C53.3867 193.729 52.5635 193.954 51.9649 194.254C47.9986 195.681 44.6318 198.306 42.3883 202.053C42.238 201.005 42.3871 199.806 42.2368 198.758C42.0865 197.71 41.1877 196.662 39.99 196.513C39.2415 196.514 38.6429 196.814 38.1941 197.414C32.2833 201.689 27.7955 207.685 24.8052 214.429" fill="#B1C0D9"/>
<path d="M25.7032 213.979C30.2681 212.251 42.3173 209.019 47.7814 209.088C49.8023 209.011 51.8232 208.934 53.9193 209.382C61.0307 210.498 68.3671 212.438 75.2551 215.726C74.0566 214.08 73.0076 211.984 72.333 210.262C71.7335 209.064 71.4334 207.716 70.5346 206.669C69.7105 205.396 68.5872 204.274 67.2396 203.826C65.5176 203.004 63.6466 203.38 62.9736 204.654C62.6739 204.055 63.0479 203.68 63.0475 202.931C63.1218 201.957 62.223 200.91 61.1748 200.312C60.1266 199.714 58.9289 199.565 57.6565 199.641C55.3362 199.868 53.5403 200.769 52.7179 202.492C52.0437 201.519 52.9413 200.32 52.2671 199.347C51.9673 198.748 51.069 198.45 50.3952 198.225C49.7214 198.001 49.1228 198.302 48.5989 198.377C45.8299 199.204 43.9596 201.078 43.1376 203.55C42.688 202.652 42.6876 201.903 42.1633 201.23C41.639 200.556 40.8901 199.808 39.917 199.734C39.393 199.809 39.0937 199.96 38.7197 200.334C35.3528 202.959 28.3211 210.606 25.7032 213.979Z" fill="#627692"/>
<path d="M-17.9799 268.098C-10.9436 268.69 -3.60759 269.881 2.60668 272.945C5.00246 273.992 7.47339 275.562 9.71972 277.058C16.983 282.218 23.2741 288.803 28.2184 296.437C28.8158 293.89 29.3385 291.568 30.3851 289.17C30.9082 287.597 31.7306 285.873 32.2537 284.3C32.5522 282.652 32.4762 280.63 31.4276 279.283C30.0792 277.337 27.534 276.74 25.4387 277.791C25.7376 276.892 26.5609 276.666 27.2342 276.141C28.2816 275.241 28.4303 273.294 27.8308 272.096C27.0068 270.824 25.8087 269.926 24.4611 269.478C21.6161 268.283 18.3228 268.436 15.4043 269.712C15.7028 268.064 17.8732 267.537 18.097 266.114C18.3959 265.215 17.647 264.467 17.0479 264.018C16.4489 263.569 15.5505 263.271 14.5774 263.197C10.5352 262.602 6.04455 263.355 2.52785 265.681C2.90148 264.557 3.42498 263.732 3.79862 262.608C4.17226 261.485 3.87212 260.137 2.82389 259.539C2.15011 259.315 1.40161 259.315 0.877698 259.391C-6.23248 260.521 -13.2667 263.674 -18.8031 268.323" fill="#B1C0D9"/>
<path d="M-17.9799 268.098C-13.1891 268.692 -0.837344 271.301 3.80478 273.843C5.75138 274.74 7.47339 275.562 9.27054 276.908C15.1112 281.097 20.5782 286.409 25.2971 292.471C24.9965 290.374 24.9953 288.127 25.1439 286.179C25.293 284.981 25.5167 283.558 25.2166 282.21C24.9165 280.862 24.691 279.289 23.5677 278.167C22.2944 276.745 20.4977 276.148 19.4503 277.048C19.4499 276.299 20.0485 275.999 20.4226 275.624C20.9461 274.799 20.6459 273.452 20.0465 272.254C19.3723 271.281 18.3988 270.458 17.2758 270.085C15.1046 269.113 13.0837 269.19 11.5124 270.165C11.4368 268.892 12.6341 268.292 12.4838 267.243C12.4834 266.494 11.9591 265.821 11.36 265.372C10.761 264.923 10.3118 264.774 9.56329 264.775C6.71873 264.328 4.02445 264.93 2.15421 266.804C2.1538 266.055 2.45271 265.156 2.4523 264.407C2.45189 263.658 1.85244 262.461 1.25339 262.012C0.804204 261.863 0.280285 261.938 0.0556935 261.863C-4.50965 262.842 -14.388 266.297 -17.9799 268.098Z" fill="#627692"/>
<path d="M80.1527 137.979C90.2634 148.828 105.162 155.03 120.132 154.266C127.242 153.884 134.427 151.78 139.664 147.281C144.976 142.557 147.966 135.064 145.941 128.4C144.516 123.683 140.772 119.942 136.429 117.999C132.087 116.057 126.922 115.837 122.282 117.04C126.097 113.067 129.837 108.569 131.556 103.4C133.723 96.8814 132.671 89.5426 128.776 84.0042C125.405 79.1393 119.49 75.9247 114.027 77.3533C111.332 77.9551 108.788 79.6054 106.619 81.6298C103.477 84.3293 100.26 87.2535 97.4919 90.327C98.3874 85.3829 98.3098 80.365 96.5857 75.798C94.8617 71.2311 91.4912 67.1152 86.9242 65.0976C81.4588 62.7813 74.7978 64.0612 69.8597 67.6612C64.9215 71.2613 61.8556 76.7318 60.4366 82.5003C58.644 89.3925 58.7228 96.6574 60.0741 103.846C62.6267 117.924 70.044 130.874 80.2291 140.75" fill="#B1C0D9"/>
<path d="M78.0558 136.033C99.5432 145.673 124.692 144.3 145.87 134.617C146.169 134.467 146.244 134.991 145.945 135.141C124.468 144.974 99.319 146.348 77.607 136.633C77.4572 136.334 77.906 135.734 78.0558 136.033Z" fill="#EDF6FF"/>
<path d="M77.3073 136.034C87.487 136.174 98.0404 135.189 107.619 131.884C116.675 128.655 125.205 123.254 132.312 116.88C132.611 116.73 132.761 117.03 132.686 117.254C125.28 123.778 117.049 129.029 107.769 132.184C98.1156 135.714 87.5622 136.698 77.3824 136.558C77.0831 136.709 77.008 136.184 77.3073 136.034Z" fill="#EDF6FF"/>
<path d="M76.6339 136.559C88.0836 132.129 97.4356 124.255 106.189 115.933C115.316 107.236 124.367 98.0143 129.9 86.6245C129.975 86.3997 130.424 86.549 130.349 86.7738C124.443 98.5385 115.091 107.91 105.89 116.832C97.2114 124.93 87.8594 132.803 76.7838 136.859C76.4845 137.009 76.4093 136.485 76.6339 136.559Z" fill="#EDF6FF"/>
<path d="M77.008 136.184C81.272 131.611 84.1128 125.317 87.5532 120.221C90.6942 115.274 93.985 110.627 97.3506 105.756C104.606 95.9371 112.685 86.6417 121.437 78.3194C121.737 78.1693 122.111 78.5434 121.812 78.6935C113.059 87.0158 104.98 96.3112 97.7251 106.13C94.0602 111.152 90.5451 116.473 87.1048 121.569C83.9638 126.516 81.3471 132.136 77.3824 136.558C77.3077 136.783 76.8585 136.634 77.008 136.184Z" fill="#EDF6FF"/>
<path d="M77.7565 136.184C75.9474 113.117 81.249 89.6694 92.9147 69.5853C92.9894 69.3606 93.4386 69.5099 93.3639 69.7347C81.6982 89.8187 76.4714 113.042 78.2804 136.108C78.1309 136.558 77.607 136.633 77.7565 136.184Z" fill="#EDF6FF"/>
<path d="M77.4576 137.083C72.4365 125.928 69.5107 113.723 69.5788 101.515C69.6503 95.2982 70.3955 89.3058 71.2154 83.0885C72.0354 76.8713 73.1547 70.504 74.9477 64.3606C75.0224 64.1359 75.4716 64.2852 75.3969 64.51C73.3792 70.5786 72.3347 76.7212 71.7393 83.0131C70.9194 89.2303 70.0247 95.6723 70.1031 102.188C70.1097 114.172 73.185 125.927 78.0562 136.782C78.2061 137.082 77.6075 137.382 77.4576 137.083Z" fill="#EDF6FF"/>
<path d="M75.8895 144.05C71.3001 142.524 68.8175 137.563 70.3445 132.971C71.8716 128.378 76.8299 125.891 81.4194 127.417C86.0088 128.943 88.4914 133.903 86.9644 138.496C85.4373 143.089 80.479 145.575 75.8895 144.05Z" fill="#EDF6FF"/>
<path d="M170.723 140.883C168.491 140.141 167.283 137.728 168.026 135.493C168.769 133.259 171.181 132.049 173.414 132.792C175.646 133.534 176.854 135.947 176.111 138.182C175.368 140.416 172.956 141.626 170.723 140.883Z" fill="#AD1B1E"/>
<path d="M170.629 104.409C168.396 103.666 167.188 101.253 167.931 99.0189C168.674 96.7845 171.086 95.5749 173.319 96.3172C175.551 97.0595 176.759 99.4726 176.016 101.707C175.273 103.941 172.861 105.151 170.629 104.409Z" fill="#AD1B1E"/>
<path d="M150.098 64.8841C147.865 64.1418 146.657 61.7287 147.4 59.4942C148.143 57.2598 150.555 56.0502 152.788 56.7925C155.021 57.5348 156.228 59.9479 155.486 62.1824C154.743 64.4168 152.331 65.6264 150.098 64.8841Z" fill="#AD1B1E"/>
<path d="M108.321 46.5016C106.089 45.7593 104.881 43.3462 105.624 41.1118C106.367 38.8774 108.779 37.6678 111.011 38.4101C113.244 39.1524 114.452 41.5655 113.709 43.7999C112.966 46.0343 110.554 47.2439 108.321 46.5016Z" fill="#AD1B1E"/>
<path d="M62.0646 48.3457C59.8319 47.6034 58.6242 45.1903 59.3671 42.9559C60.1099 40.7215 62.5221 39.5119 64.7548 40.2542C66.9875 40.9965 68.1953 43.4096 67.4524 45.644C66.7095 47.8784 64.2973 49.088 62.0646 48.3457Z" fill="#AD1B1E"/>
</g>
<defs>
<clipPath id="clip0_10604_14978">
<rect width="215" height="321" fill="white" transform="matrix(-0.948929 -0.31549 -0.31549 0.948929 199.501 67.8301)"/>
</clipPath>
</defs>
</svg>
