<svg width="244" height="327" viewBox="0 0 244 327" fill="none" xmlns="http://www.w3.org/2000/svg">
<g clip-path="url(#clip0_10604_13109)">
<path d="M105.267 20.6257C105.429 20.6257 105.592 20.5715 105.754 20.49C106.187 20.2186 106.322 19.6487 106.051 19.2145L99.2095 8.27741C98.9391 7.84318 98.3712 7.70749 97.9385 7.97888C97.5058 8.25027 97.3705 8.82019 97.641 9.25442L104.483 20.1915C104.672 20.4629 104.97 20.6257 105.267 20.6257Z" fill="#0A1723"/>
<path d="M109.946 20.0016C110.027 20.0016 110.108 20.0016 110.189 19.9744C110.676 19.8387 110.946 19.3231 110.811 18.8346L106.755 4.77649C106.619 4.28799 106.106 4.01659 105.619 4.15229C105.132 4.28799 104.862 4.80363 104.997 5.29214L109.053 19.3502C109.189 19.7302 109.54 20.0016 109.946 20.0016Z" fill="#0A1723"/>
<path d="M116.49 18.726C116.977 18.726 117.383 18.3461 117.41 17.8576L118.032 5.67206C118.059 5.15642 117.68 4.72219 117.166 4.72219C116.68 4.69505 116.22 5.075 116.22 5.59065L115.598 17.7761C115.571 18.2918 115.949 18.726 116.463 18.726C116.463 18.726 116.463 18.726 116.49 18.726Z" fill="#0A1723"/>
<path d="M96.5322 35.9595L89.9877 39.7047L99.0472 42.5272L96.5322 35.9595Z" fill="#0A1723"/>
<path d="M148.996 95.2857C148.996 95.2857 173.308 70.8875 186.398 70.4262C199.487 69.9648 214.82 76.0711 225.665 97.1583C233.183 111.813 238.267 131.869 241.999 154.395C245.731 176.92 245.271 214.888 231.263 214.427C217.254 213.965 214.901 164.246 214.901 164.246C214.901 164.246 216.767 202.241 206.031 201.78C195.295 201.318 192.942 186.772 192.023 177.382C191.076 167.992 187.344 139.848 187.344 139.848C187.344 139.848 190.157 174.559 179.393 173.609C168.657 172.659 167.251 125.763 167.251 125.763C167.251 125.763 167.71 142.644 160.706 141.721C153.702 140.771 148.077 108.421 148.077 108.421L148.996 95.2857Z" fill="#EDF6FF"/>
<path d="M145.724 74.6599C145.724 74.6599 152.269 84.5114 152.728 108.421C153.188 132.331 145.481 160.23 136.827 168.453C123.738 180.883 107.377 187.695 93.3681 187.695C79.3596 187.695 56.9136 189.567 48.0433 201.291C39.1731 213.015 38.2266 227.562 37.7668 240.697C37.3071 253.833 46.1773 287.594 45.7176 298.857C45.2579 310.119 43.3919 322.305 29.8161 325.127C16.2673 327.95 12.0485 296.523 12.0485 296.523C12.0485 296.523 17.1868 326.539 -1.95996 327C-21.1337 327.461 -12.2365 275.408 -12.2365 275.408C-12.2365 275.408 -15.5087 314.326 -33.736 310.581C-51.9633 306.836 -37.9548 253.833 -37.9548 253.833C-37.9548 253.833 -42.1735 281.026 -58.5078 278.692C-74.869 276.358 -66.4585 231.334 -59.914 216.299C-53.3695 201.291 -36.5485 181.588 -22.0532 173.148C-7.55794 164.708 7.39708 161.885 19.9993 152.522C32.6286 143.132 39.1731 129.074 45.7176 115.939C52.2621 102.803 103.672 68.5536 103.672 68.5536L145.724 74.6599Z" fill="#E92438"/>
<path d="M94.3958 73.3844C99.4258 93.6302 81.1986 128.803 66.0542 126.821C50.9099 124.867 69.9755 94.4444 69.9755 94.4444C69.9755 94.4444 46.5289 131.218 36.2524 125.329C26.0029 119.44 44.5547 93.4402 44.5547 93.4402C44.5547 93.4402 19.6207 136.103 3.01603 128.748C-13.5886 121.394 15.7264 93.9287 15.7264 93.9287C15.7264 93.9287 -26.299 138.763 -41.0918 125.193C-45.6892 120.959 -37.2787 103.699 -23.1079 89.885C-13.6968 80.6848 38.497 46.3537 69.0831 45.3496C81.3608 44.9697 90.4745 57.6979 94.3958 73.3844Z" fill="#EDF6FF"/>
<path d="M130.309 35.2538C130.309 35.2538 141.532 49.8004 145.724 61.5245C149.916 73.2486 153.215 87.7952 146.184 90.5906C139.18 93.413 133.095 80.7391 133.095 80.7391C133.095 80.7391 133.095 95.747 122.359 95.2857C111.622 94.8243 112.082 75.1212 112.082 75.1212C112.082 75.1212 108.81 89.1793 101.806 86.8454C94.8014 84.5114 95.2612 76.9938 97.5869 69.9648C99.9126 62.9357 110.216 46.0552 110.216 46.0552L130.309 35.2538Z" fill="#EDF6FF"/>
<path d="M117.112 53.4642C128.308 52.5415 133.933 42.8257 133.311 33.4627C132.689 24.0725 120.844 12.8369 110.27 15.9579C99.6692 19.0789 94.2065 26.2165 95.3152 35.9595C97.1542 52.2158 109.621 54.0884 117.112 53.4642Z" fill="#E92438"/>
<path d="M142.858 82.7203C140.602 82.7203 138.774 80.7276 138.774 78.2694C138.774 75.8113 140.602 73.8186 142.858 73.8186C145.113 73.8186 146.941 75.8113 146.941 78.2694C146.941 80.7276 145.113 82.7203 142.858 82.7203Z" fill="#E92438"/>
<path d="M124.171 90.9163C121.915 90.9163 120.087 88.9236 120.087 86.4655C120.087 84.0073 121.915 82.0146 124.171 82.0146C126.426 82.0146 128.254 84.0073 128.254 86.4655C128.254 88.9236 126.426 90.9163 124.171 90.9163Z" fill="#E92438"/>
<path d="M105.484 78.975C103.228 78.975 101.4 76.9823 101.4 74.5242C101.4 72.0661 103.228 70.0734 105.484 70.0734C107.739 70.0734 109.567 72.0661 109.567 74.5242C109.567 76.9823 107.739 78.975 105.484 78.975Z" fill="#E92438"/>
<path d="M-29.0575 110.266C-23.5136 120.281 15.5101 96.8597 8.8574 83.3444C2.17768 69.8291 -34.4121 100.632 -29.0575 110.266Z" fill="#E92438"/>
<path d="M230.289 196.922C241.187 197.682 242.864 154.096 228.612 152.386C214.333 150.677 219.823 196.189 230.289 196.922Z" fill="#E92438"/>
<path d="M36.009 84.9456C45.0415 93.1959 17.4572 124.569 9.66872 116.291C1.90726 108.014 27.5985 77.2381 36.009 84.9456Z" fill="#E92438"/>
<path d="M200.298 137.84C211.954 137.568 213.549 177.544 202.732 176.975C191.887 176.405 189.399 138.111 200.298 137.84Z" fill="#E92438"/>
<path d="M60.3211 85.6784C69.002 91.2962 50.3691 121.421 42.7158 115.613C35.0625 109.778 52.208 80.4406 60.3211 85.6784Z" fill="#E92438"/>
<path d="M176.689 119.467C186.262 119.657 186.695 152.794 177.798 151.925C168.927 151.03 167.738 119.277 176.689 119.467Z" fill="#E92438"/>
<path d="M83.3079 90.482C90.7178 95.2585 74.8434 120.905 68.3259 115.939C61.8084 110.999 76.4119 86.0312 83.3079 90.482Z" fill="#E92438"/>
<path d="M159.408 102.233C167.819 102.125 168.657 130.974 160.841 130.485C153.026 129.97 151.539 102.342 159.408 102.233Z" fill="#E92438"/>
<path d="M-2.28447 91.1605C0.960744 95.937 -15.2924 108.312 -18.6998 103.563C-22.1073 98.8137 -5.82716 85.9769 -2.28447 91.1605Z" fill="#EDF6FF"/>
<path d="M228.964 165.061C234.481 165.061 235.427 184.628 229.856 184.764C224.312 184.899 222.987 165.061 228.964 165.061Z" fill="#EDF6FF"/>
<path d="M30.7355 92.626C33.494 96.5612 20.5131 113.822 15.9428 109.751C11.3454 105.707 27.1117 87.4967 30.7355 92.626Z" fill="#EDF6FF"/>
<path d="M201.65 148.316C205.382 149.293 207.005 166.879 202.164 166.797C197.296 166.716 196.809 147.04 201.65 148.316Z" fill="#EDF6FF"/>
<path d="M57.4815 91.8662C61.7543 95.2043 50.6936 112.926 46.3125 110.538C41.9586 108.204 53.2086 88.5281 57.4815 91.8662Z" fill="#EDF6FF"/>
<path d="M176.527 127.391C181.097 127.527 182.314 145.14 178.149 145.71C173.985 146.28 171.956 127.256 176.527 127.391Z" fill="#EDF6FF"/>
<path d="M80.198 95.2314C83.4432 97.8368 77.2773 112.546 72.7069 109.941C68.1366 107.335 76.9257 92.626 80.198 95.2314Z" fill="#EDF6FF"/>
<path d="M159.679 110.049C163.627 110.565 165.79 125.682 160.787 125.817C155.757 125.926 155.73 109.534 159.679 110.049Z" fill="#EDF6FF"/>
<path d="M142.641 76.641C144.994 76.641 144.994 80.3048 142.641 80.3048C140.288 80.3048 140.288 76.641 142.641 76.641Z" fill="#EDF6FF"/>
<path d="M124.576 84.4572C126.929 84.4572 126.929 88.1209 124.576 88.1209C122.223 88.1209 122.223 84.4572 124.576 84.4572Z" fill="#EDF6FF"/>
<path d="M104.943 72.2716C107.295 72.2716 107.295 75.9354 104.943 75.9354C102.59 75.9354 102.59 72.2716 104.943 72.2716Z" fill="#EDF6FF"/>
<path d="M228.856 172.66C228.991 172.632 229.126 172.605 229.261 172.605C229.559 172.605 229.802 172.659 230.046 172.768C230.262 172.877 230.451 173.012 230.586 173.175C230.614 173.229 230.668 173.257 230.695 173.311C230.83 173.501 230.911 173.718 230.965 173.935C231.073 174.369 231.046 174.858 230.857 175.265C230.803 175.373 230.749 175.455 230.695 175.563C230.668 175.618 230.641 175.645 230.586 175.699C230.37 175.97 230.073 176.16 229.667 176.242C229.532 176.269 229.397 176.296 229.261 176.296C228.666 176.296 228.234 176.079 227.936 175.726C227.855 175.645 227.801 175.536 227.747 175.455C227.666 175.319 227.612 175.156 227.558 174.993C227.314 174.016 227.747 172.904 228.856 172.66Z" fill="#E92438"/>
<path d="M201.217 155.426C203.57 155.426 203.57 159.09 201.217 159.09C198.865 159.09 198.865 155.426 201.217 155.426Z" fill="#E92438"/>
<path d="M177.554 135.099C179.907 135.099 179.907 138.763 177.554 138.763C175.202 138.763 175.202 135.099 177.554 135.099Z" fill="#E92438"/>
<path d="M160.409 116.671C162.762 116.671 162.762 120.335 160.409 120.335C158.056 120.335 158.056 116.671 160.409 116.671Z" fill="#E92438"/>
<path d="M75.9522 101.826C78.4131 101.826 78.4131 105.653 75.9522 105.653C73.4912 105.653 73.4912 101.826 75.9522 101.826Z" fill="#E92438"/>
<path d="M51.7483 100.279C54.2092 100.279 54.2092 104.106 51.7483 104.106C49.2873 104.106 49.2873 100.279 51.7483 100.279Z" fill="#E92438"/>
<path d="M23.0552 100.008C25.4891 100.415 24.8401 104.214 22.4062 103.78C19.9723 103.373 20.6213 99.6008 23.0552 100.008Z" fill="#E92438"/>
<path d="M38.5511 54.0613C41.012 54.0613 41.012 57.8879 38.5511 57.8879C36.0901 57.915 36.0901 54.0613 38.5511 54.0613Z" fill="#E92438"/>
<path d="M43.6623 60.7375C46.1233 60.7375 46.1233 64.5642 43.6623 64.5642C41.2014 64.5913 41.1743 60.7375 43.6623 60.7375Z" fill="#E92438"/>
<path d="M53.9117 68.1465C56.3727 68.1465 56.3727 71.9731 53.9117 71.9731C51.4508 72.0002 51.4508 68.1465 53.9117 68.1465Z" fill="#E92438"/>
<path d="M66.1083 74.09C68.5693 74.09 68.5693 77.9166 66.1083 77.9166C63.6474 77.9437 63.6474 74.09 66.1083 74.09Z" fill="#E92438"/>
<path d="M79.3055 74.2528C81.7665 74.2528 81.7665 78.0794 79.3055 78.0794C76.8446 78.0794 76.8446 74.2528 79.3055 74.2528Z" fill="#E92438"/>
<path d="M90.826 71.4032C93.287 71.4032 93.287 75.2298 90.826 75.2298C88.3651 75.257 88.338 71.4032 90.826 71.4032Z" fill="#E92438"/>
<path d="M223.961 106.657C226.314 106.657 226.314 110.321 223.961 110.321C221.608 110.321 221.608 106.657 223.961 106.657Z" fill="#E92438"/>
<path d="M214.009 108.53C216.362 108.53 216.362 112.193 214.009 112.193C211.656 112.193 211.629 108.53 214.009 108.53Z" fill="#E92438"/>
<path d="M203.705 106.657C206.058 106.657 206.058 110.321 203.705 110.321C201.353 110.321 201.353 106.657 203.705 106.657Z" fill="#E92438"/>
<path d="M193.753 101.962C196.106 101.962 196.106 105.626 193.753 105.626C191.401 105.626 191.401 101.962 193.753 101.962Z" fill="#E92438"/>
<path d="M186.587 95.7198C188.94 95.7198 188.94 99.3836 186.587 99.3836C184.234 99.3836 184.234 95.7198 186.587 95.7198Z" fill="#E92438"/>
<path d="M180.664 88.2024C183.017 88.2024 183.017 91.8662 180.664 91.8662C178.312 91.8662 178.312 88.2024 180.664 88.2024Z" fill="#E92438"/>
<path d="M175.986 79.4635C178.339 79.4635 178.339 83.1273 175.986 83.1273C173.633 83.1273 173.633 79.4635 175.986 79.4635Z" fill="#E92438"/>
<path d="M202.624 99.4379C197.545 99.4379 193.429 95.3067 193.429 90.2106C193.429 85.1145 197.545 80.9833 202.624 80.9833C207.702 80.9833 211.818 85.1145 211.818 90.2106C211.818 95.3067 207.702 99.4379 202.624 99.4379Z" fill="#E92438"/>
<path d="M202.786 95.5299C199.858 95.5299 197.485 93.1484 197.485 90.2106C197.485 87.2729 199.858 84.8914 202.786 84.8914C205.713 84.8914 208.086 87.2729 208.086 90.2106C208.086 93.1484 205.713 95.5299 202.786 95.5299Z" fill="#EDF6FF"/>
<path d="M69.2995 68.5536C63.9973 68.5536 59.6991 64.2401 59.6991 58.9192C59.6991 53.5983 63.9973 49.2848 69.2995 49.2848C74.6016 49.2848 78.8999 53.5983 78.8999 58.9192C78.8999 64.2401 74.6016 68.5536 69.2995 68.5536Z" fill="#E92438"/>
<path d="M69.4617 64.157C66.3999 64.157 63.9178 61.6661 63.9178 58.5934C63.9178 55.5208 66.3999 53.0299 69.4617 53.0299C72.5235 53.0299 75.0056 55.5208 75.0056 58.5934C75.0056 61.6661 72.5235 64.157 69.4617 64.157Z" fill="#EDF6FF"/>
<path d="M69.7322 56.938C72.1931 56.938 72.1931 60.7646 69.7322 60.7646C67.2712 60.7646 67.2712 56.938 69.7322 56.938Z" fill="#E92438"/>
<path d="M202.867 88.5281C205.22 88.5281 205.22 92.1919 202.867 92.1919C200.514 92.1919 200.514 88.5281 202.867 88.5281Z" fill="#E92438"/>
<path d="M138.233 104.73C138.233 104.73 144.994 146.09 130.931 141.965C116.869 137.813 138.233 104.73 138.233 104.73Z" fill="#EDF6FF"/>
<path d="M106.836 94.1187C106.836 94.1187 106.511 133.199 94.3687 127.88C80.4143 121.773 106.836 94.1187 106.836 94.1187Z" fill="#EDF6FF"/>
<path d="M105.592 137.568C105.592 137.568 96.8567 180.394 83.7947 172.279C70.6787 164.138 105.592 137.568 105.592 137.568Z" fill="#EDF6FF"/>
<path d="M57.9142 141.314C57.9142 141.314 46.6912 181.968 32.0607 174.451C17.4031 166.96 57.9142 141.314 57.9142 141.314Z" fill="#EDF6FF"/>
<path d="M118.816 119.141C116.486 119.141 114.597 117.246 114.597 114.907C114.597 112.569 116.486 110.674 118.816 110.674C121.146 110.674 123.035 112.569 123.035 114.907C123.035 117.246 121.146 119.141 118.816 119.141Z" fill="#EDF6FF"/>
<path d="M79.2514 139.143C76.9215 139.143 75.0327 137.247 75.0327 134.909C75.0327 132.571 76.9215 130.675 79.2514 130.675C81.5814 130.675 83.4702 132.571 83.4702 134.909C83.4702 137.247 81.5814 139.143 79.2514 139.143Z" fill="#EDF6FF"/>
<path d="M63.0524 179.471C60.7225 179.471 58.8336 177.576 58.8336 175.238C58.8336 172.899 60.7225 171.004 63.0524 171.004C65.3824 171.004 67.2712 172.899 67.2712 175.238C67.2712 177.576 65.3824 179.471 63.0524 179.471Z" fill="#EDF6FF"/>
<path d="M10.1014 179.471C7.77144 179.471 5.88264 177.576 5.88264 175.238C5.88264 172.899 7.77144 171.004 10.1014 171.004C12.4314 171.004 14.3202 172.899 14.3202 175.238C14.3202 177.576 12.4314 179.471 10.1014 179.471Z" fill="#EDF6FF"/>
<path d="M121.304 161.342C118.974 161.342 117.085 159.447 117.085 157.109C117.085 154.771 118.974 152.875 121.304 152.875C123.634 152.875 125.523 154.771 125.523 157.109C125.523 159.447 123.634 161.342 121.304 161.342Z" fill="#EDF6FF"/>
<path d="M30.4921 313.919C25.3244 313.919 21.1351 309.715 21.1351 304.529C21.1351 299.343 25.3244 295.139 30.4921 295.139C35.6599 295.139 39.8492 299.343 39.8492 304.529C39.8492 309.715 35.6599 313.919 30.4921 313.919Z" fill="#EDF6FF"/>
<path d="M-0.661876 314.842C-5.82962 314.842 -10.0189 310.637 -10.0189 305.451C-10.0189 300.265 -5.82962 296.061 -0.661876 296.061C4.50587 296.061 8.69516 300.265 8.69516 305.451C8.69516 310.637 4.50587 314.842 -0.661876 314.842Z" fill="#EDF6FF"/>
<path d="M26.9765 217.358C35.0895 218.769 24.6508 259.831 24.6508 259.831C24.6508 259.831 13.0491 214.942 26.9765 217.358Z" fill="#EDF6FF"/>
<path d="M8.9926 200.721C20.8917 203.272 0.87957 254.484 0.87957 254.484C0.87957 254.484 -4.09642 197.899 8.9926 200.721Z" fill="#EDF6FF"/>
<path d="M-9.36987 192.58C1.06889 194.724 -17.4829 238.228 -17.4829 238.228C-17.4829 238.228 -23.0809 189.784 -9.36987 192.58Z" fill="#EDF6FF"/>
<path d="M29.2482 298.558C29.3022 298.558 29.3563 298.558 29.3834 298.558C29.8702 298.477 30.2217 298.015 30.1406 297.5C30.0865 297.201 25.3539 267.837 25.5702 259.858C25.7866 251.96 26.3816 249.11 26.4086 249.083C26.5168 248.595 26.1922 248.106 25.7055 247.998C25.2187 247.889 24.7319 248.188 24.6237 248.703C24.5967 248.812 23.9747 251.689 23.7583 259.83C23.542 267.972 28.1664 296.604 28.3557 297.825C28.4098 298.232 28.8155 298.558 29.2482 298.558Z" fill="#EDF6FF"/>
<path d="M0.582124 300.756C0.609167 300.756 0.636207 300.756 0.663251 300.756C1.17708 300.702 1.52863 300.268 1.50159 299.752C1.47455 299.562 -0.0398884 281.271 -0.0398884 273.889C-0.0398884 266.534 1.79907 254.756 1.82611 254.647L4.63864 239.042C4.71977 238.553 4.39524 238.065 3.90846 237.984C3.42168 237.902 2.93489 238.228 2.85376 238.716L0.041255 254.348C-0.039875 254.864 -1.85178 266.398 -1.85178 273.889C-1.85178 281.352 -0.310313 299.725 -0.283269 299.915C-0.283269 300.377 0.122386 300.756 0.582124 300.756Z" fill="#EDF6FF"/>
<path d="M134.555 125.383C138.99 125.736 135.799 139.143 132.067 138.518C128.308 137.867 130.499 125.057 134.555 125.383Z" fill="#E92438"/>
<path d="M98.7227 113.306C103.401 114.527 98.6146 125.573 95.3153 124.243C92.016 122.94 94.4499 112.221 98.7227 113.306Z" fill="#E92438"/>
<path d="M95.8291 153.988C98.1548 155.779 91.6103 169.186 88.1758 166.526C84.7683 163.866 91.8537 150.948 95.8291 153.988Z" fill="#E92438"/>
<path d="M46.9075 156.81C49.8552 159.497 39.7951 172.822 36.7933 169.593C33.8185 166.363 42.9862 153.228 46.9075 156.81Z" fill="#E92438"/>
<path d="M25.5162 223.22C29.1941 223.871 24.5696 245.094 24.5696 245.094C24.5696 245.094 18.3496 221.971 25.5162 223.22Z" fill="#E92438"/>
<path d="M7.74864 206.339C14.3472 206.611 3.69212 234.781 3.69212 234.781C3.69212 234.781 0.284653 206.041 7.74864 206.339Z" fill="#E92438"/>
<path d="M30.4922 309.522C28.0875 309.522 26.1382 307.493 26.1382 304.99C26.1382 302.487 28.0875 300.458 30.4922 300.458C32.8968 300.458 34.8461 302.487 34.8461 304.99C34.8461 307.493 32.8968 309.522 30.4922 309.522Z" fill="#E92438"/>
<path d="M-0.661878 309.848C-3.06652 309.848 -5.01586 307.819 -5.01586 305.316C-5.01586 302.813 -3.06652 300.784 -0.661878 300.784C1.74277 300.784 3.69212 302.813 3.69212 305.316C3.69212 307.819 1.74277 309.848 -0.661878 309.848Z" fill="#E92438"/>
<path d="M107.593 38.1577C104.232 38.1577 101.508 35.4238 101.508 32.0514C101.508 28.679 104.232 25.9451 107.593 25.9451C110.953 25.9451 113.678 28.679 113.678 32.0514C113.678 35.4238 110.953 38.1577 107.593 38.1577Z" fill="white"/>
<path d="M107.593 35.1724C105.786 35.1724 104.321 33.7751 104.321 32.0514C104.321 30.3277 105.786 28.9304 107.593 28.9304C109.4 28.9304 110.865 30.3277 110.865 32.0514C110.865 33.7751 109.4 35.1724 107.593 35.1724Z" fill="#0A1723"/>
<path d="M117.112 7.49042C115.395 7.49042 114.002 6.0931 114.002 4.36942C114.002 2.64574 115.395 1.24841 117.112 1.24841C118.83 1.24841 120.222 2.64574 120.222 4.36942C120.222 6.0931 118.83 7.49042 117.112 7.49042Z" fill="#E92438"/>
<path d="M105.889 6.24201C104.172 6.24201 102.779 4.84469 102.779 3.12101C102.779 1.39732 104.172 0 105.889 0C107.607 0 108.999 1.39732 108.999 3.12101C108.999 4.84469 107.607 6.24201 105.889 6.24201Z" fill="#E92438"/>
<path d="M97.8032 10.6114C96.0856 10.6114 94.6932 9.21408 94.6932 7.49039C94.6932 5.76671 96.0856 4.36938 97.8032 4.36938C99.5208 4.36938 100.913 5.76671 100.913 7.49039C100.913 9.21408 99.5208 10.6114 97.8032 10.6114Z" fill="#E92438"/>
<path d="M131.121 71.9459C133.474 71.9459 133.474 75.6097 131.121 75.6097C128.768 75.6097 128.768 71.9459 131.121 71.9459Z" fill="#0A1723"/>
<path d="M114.624 69.7748C116.977 69.7748 116.977 73.4386 114.624 73.4386C112.271 73.4386 112.244 69.7748 114.624 69.7748Z" fill="#0A1723"/>
<path d="M123.035 61.3074C125.388 61.3074 125.388 64.9712 123.035 64.9712C120.682 64.9983 120.682 61.3074 123.035 61.3074Z" fill="#0A1723"/>
<path d="M133.311 130.729C135.664 130.729 135.664 134.393 133.311 134.393C130.958 134.393 130.958 130.729 133.311 130.729Z" fill="#0A1723"/>
<path d="M96.8567 116.97C99.2095 116.97 99.2095 120.634 96.8567 120.634C94.5039 120.634 94.5039 116.97 96.8567 116.97Z" fill="#0A1723"/>
<path d="M90.9342 158.873C93.287 158.873 93.287 162.537 90.9342 162.537C88.5814 162.537 88.5814 158.873 90.9342 158.873Z" fill="#0A1723"/>
<path d="M41.0932 162.618C43.446 162.618 43.446 166.282 41.0932 166.282C38.7404 166.282 38.7404 162.618 41.0932 162.618Z" fill="#0A1723"/>
<path d="M6.50463 211.387C8.85741 211.387 8.85741 215.051 6.50463 215.051C4.15185 215.051 4.15185 211.387 6.50463 211.387Z" fill="#0A1723"/>
<path d="M24.5696 227.019C26.9224 227.019 26.9224 230.683 24.5696 230.683C22.2169 230.683 22.2169 227.019 24.5696 227.019Z" fill="#0A1723"/>
<path d="M-0.661892 303.633C1.69089 303.633 1.69089 307.297 -0.661892 307.297C-3.01467 307.297 -3.01467 303.633 -0.661892 303.633Z" fill="#0A1723"/>
<path d="M30.4922 303.009C32.8449 303.009 32.8449 306.673 30.4922 306.673C28.1394 306.673 28.1394 303.009 30.4922 303.009Z" fill="#0A1723"/>
<path d="M112.434 127.283C114.787 127.283 114.787 130.947 112.434 130.947C110.081 130.947 110.081 127.283 112.434 127.283Z" fill="#0A1723"/>
<path d="M106.511 171.058C108.864 171.058 108.864 174.722 106.511 174.722C104.158 174.722 104.158 171.058 106.511 171.058Z" fill="#0A1723"/>
<path d="M78.7917 179.2C81.1445 179.2 81.1445 182.864 78.7917 182.864C76.4389 182.864 76.4389 179.2 78.7917 179.2Z" fill="#0A1723"/>
<path d="M69.1372 153.553C71.49 153.553 71.49 157.217 69.1372 157.217C66.7844 157.217 66.7844 153.553 69.1372 153.553Z" fill="#0A1723"/>
<path d="M43.5812 137.596C45.934 137.596 45.934 141.259 43.5812 141.259C41.2284 141.287 41.2284 137.596 43.5812 137.596Z" fill="#0A1723"/>
<path d="M46.0692 184.492C48.4219 184.492 48.4219 188.156 46.0692 188.156C43.7164 188.183 43.7164 184.492 46.0692 184.492Z" fill="#0A1723"/>
<path d="M137.665 92.2732C140.018 92.2732 140.018 95.937 137.665 95.937C135.312 95.937 135.312 92.2732 137.665 92.2732Z" fill="#0A1723"/>
<path d="M138.909 147.61C141.262 147.61 141.262 151.274 138.909 151.274C136.556 151.274 136.556 147.61 138.909 147.61Z" fill="#0A1723"/>
<path d="M25.8136 153.228C28.1664 153.228 28.1664 156.892 25.8136 156.892C23.4609 156.919 23.4609 153.228 25.8136 153.228Z" fill="#0A1723"/>
<path d="M97.4787 90.4006C99.8315 90.4006 99.8315 94.0644 97.4787 94.0644C95.126 94.0644 95.126 90.4006 97.4787 90.4006Z" fill="#0A1723"/>
<path d="M147.32 115.097C149.673 115.097 149.673 118.761 147.32 118.761C144.967 118.761 144.967 115.097 147.32 115.097Z" fill="#0A1723"/>
<path d="M23.0282 186.066C25.3809 186.066 25.3809 189.73 23.0282 189.73C20.6754 189.73 20.6754 186.066 23.0282 186.066Z" fill="#0A1723"/>
<path d="M91.5562 136.971C93.909 136.971 93.909 140.635 91.5562 140.635C89.2034 140.662 89.2034 136.971 91.5562 136.971Z" fill="#0A1723"/>
<path d="M113.056 146.362C115.409 146.362 115.409 150.025 113.056 150.025C110.703 150.025 110.703 146.362 113.056 146.362Z" fill="#0A1723"/>
<path d="M119.276 102.586C121.628 102.586 121.628 106.25 119.276 106.25C116.923 106.25 116.923 102.586 119.276 102.586Z" fill="#0A1723"/>
<path d="M67.2712 130.729C69.624 130.729 69.624 134.393 67.2712 134.393C64.9185 134.393 64.8914 130.729 67.2712 130.729Z" fill="#0A1723"/>
<path d="M220.851 113.523C223.204 113.523 223.204 117.187 220.851 117.187C218.498 117.214 218.498 113.523 220.851 113.523Z" fill="#0A1723"/>
<path d="M207.14 114.147C209.493 114.147 209.493 117.811 207.14 117.811C204.787 117.838 204.787 114.147 207.14 114.147Z" fill="#0A1723"/>
<path d="M195.295 110.104C197.648 110.104 197.648 113.767 195.295 113.767C192.942 113.767 192.942 110.104 195.295 110.104Z" fill="#0A1723"/>
<path d="M185.64 104.16C187.993 104.16 187.993 107.824 185.64 107.824C183.287 107.824 183.287 104.16 185.64 104.16Z" fill="#0A1723"/>
<path d="M178.474 97.2668C180.827 97.2668 180.827 100.931 178.474 100.931C176.121 100.958 176.121 97.2668 178.474 97.2668Z" fill="#0A1723"/>
<path d="M172.551 88.8265C174.904 88.8265 174.904 92.4903 172.551 92.4903C170.198 92.4903 170.198 88.8265 172.551 88.8265Z" fill="#0A1723"/>
<path d="M167.575 82.2589C169.928 82.2589 169.928 85.9227 167.575 85.9227C165.222 85.9498 165.222 82.2589 167.575 82.2589Z" fill="#0A1723"/>
<path d="M229.883 111.976C232.236 111.976 232.236 115.64 229.883 115.64C227.531 115.64 227.531 111.976 229.883 111.976Z" fill="#0A1723"/>
<path d="M86.8507 79.9249C89.3116 79.9249 89.3116 83.7516 86.8507 83.7516C84.3897 83.7516 84.3897 79.9249 86.8507 79.9249Z" fill="#0A1723"/>
<path d="M71.9497 81.0105C74.4107 81.0105 74.4107 84.8371 71.9497 84.8371C69.4888 84.8643 69.4888 81.0105 71.9497 81.0105Z" fill="#0A1723"/>
<path d="M54.9124 77.2382C57.3733 77.2382 57.3733 81.0648 54.9124 81.0648C52.4514 81.0919 52.4514 77.2382 54.9124 77.2382Z" fill="#0A1723"/>
<path d="M43.446 70.7247C45.9069 70.7247 45.9069 74.5514 43.446 74.5514C40.985 74.5514 40.985 70.7247 43.446 70.7247Z" fill="#0A1723"/>
<path d="M32.3582 60.3575C34.8191 60.3575 34.8191 64.1842 32.3582 64.1842C29.8972 64.1842 29.8972 60.3575 32.3582 60.3575Z" fill="#0A1723"/>
</g>
<defs>
<clipPath id="clip0_10604_13109">
<rect width="312" height="327" fill="white" transform="matrix(-1 0 0 1 244 0)"/>
</clipPath>
</defs>
</svg>
