<svg width="339" height="121" viewBox="0 0 339 121" fill="none" xmlns="http://www.w3.org/2000/svg">
<g clip-path="url(#clip0_10604_17589)">
<path d="M22.0112 44.9314C21.9847 45.126 22.1529 45.3468 22.29 45.0679C25.8364 39.3997 32.5384 36.0379 39.2373 36.3423C47.3255 36.6349 53.3408 42.6944 57.8562 48.8499C62.261 55.0896 65.7546 62.1981 71.4864 67.4267C74.589 70.1223 78.2134 71.897 81.9749 73.3928C85.7363 74.8886 89.6084 76.3001 93.6969 76.8487C102.179 77.888 110.355 74.6248 118.004 71.5882L118.114 71.5039C118.114 71.5039 118.225 71.4197 118.141 71.3093L118.057 71.1989C117.835 71.3674 117.419 71.5098 117.114 71.5679C110.186 74.404 103.064 77.2139 95.3915 76.7789C90.9712 76.483 86.7939 75.1296 82.7536 73.4973C78.7975 71.9754 74.9784 70.1746 71.7917 67.3686C65.7811 62.0034 62.3139 54.7003 57.5462 48.2137C53.1991 42.279 47.5202 36.6611 39.8743 36.0314C33.0072 35.5062 25.8052 38.9 22.0112 44.9314Z" fill="#627692"/>
<path d="M108.106 75.1152C104.495 75.4235 100.88 75.0375 97.2077 74.3464C93.535 73.6554 89.4948 72.0231 87.8873 68.5371C87.7456 68.1217 87.5198 67.5959 87.5727 67.2066C87.5945 66.3176 88.1739 65.7017 88.8374 65.1961C90.1644 64.185 92.1642 64.057 93.7794 64.5711C95.3946 65.0851 96.8462 66.0727 98.2978 67.0603C101.622 69.5874 105.03 72.225 108.106 75.1152Z" fill="#627692"/>
<path d="M108.022 75.0046C105.412 75.2489 102.77 74.9935 100.266 74.4592C97.5666 73.8988 94.6415 72.8126 93.5964 70.2939C93.5387 69.9889 93.2864 69.6578 93.3394 69.2685C93.4188 68.6845 93.6929 68.1267 94.1352 67.7897C95.1305 67.0314 96.5198 67.0196 97.6615 67.371C98.8873 67.8328 99.976 68.5735 100.87 69.2881C103.41 71.0164 105.814 73.0236 108.022 75.0046Z" fill="#B1C0D9"/>
<path d="M108.022 75.0046C104.487 74.0347 100.925 73.2593 97.3049 72.179C93.964 71.2352 90.676 69.902 87.8833 67.8426L87.7728 67.9268C90.5654 69.9863 93.7693 71.209 96.9996 72.2371C100.619 73.3175 104.266 74.2032 108.022 75.0046Z" fill="white"/>
<path d="M107.938 74.8951C103.278 71.9905 98.3965 69.2543 93.104 67.3549C91.4888 66.8408 89.9843 66.2425 88.3691 65.7285L88.2585 65.8127C91.8782 66.8931 95.5556 68.2785 99.0959 69.9428C102.052 71.5287 104.982 73.3092 107.938 74.8951C107.912 75.0898 108.022 75.0055 107.938 74.8951Z" fill="white"/>
<path d="M82.4476 73.5554C79.3497 71.5541 76.7205 69.0211 74.3125 66.3196C71.8204 63.5077 69.6554 59.7487 70.4637 55.9923C70.6272 55.5188 70.7908 55.0452 71.0384 54.6821C71.6178 54.0661 72.4495 53.7814 73.2283 53.8859C75.007 53.9264 76.5427 55.0244 77.4414 56.4332C78.4507 57.7579 78.9071 59.5038 79.4741 61.1655C80.7233 65.0989 81.7248 69.3954 82.4476 73.5554Z" fill="#627692"/>
<path d="M82.2808 73.335C80.1034 71.8536 78.1736 70.009 76.4384 68.1906C74.6457 66.0671 73.0165 63.4701 73.6659 60.8816C73.7189 60.4923 73.8559 60.2134 73.993 59.9345C74.3512 59.4871 74.9618 59.3708 75.5723 59.2546C76.851 59.3271 77.9398 60.0678 78.6967 61.0613C79.4537 62.0547 79.7948 63.1906 80.1095 64.5211C81.1017 67.429 81.8992 70.3108 82.2808 73.335Z" fill="#B1C0D9"/>
<path d="M82.3905 73.2503C80.2037 70.3802 77.8222 67.4841 75.746 64.5298C73.7539 61.6859 71.9829 58.6735 70.9596 55.2659C70.9596 55.2659 70.8754 55.1555 70.849 55.3501C71.7882 58.6473 73.4751 61.5494 75.4672 64.3933C77.5434 67.3476 80.009 70.3541 82.3905 73.2503Z" fill="white"/>
<path d="M82.3071 73.1399C80.438 67.9342 78.2636 62.7865 75.231 58.1183C74.3323 56.7094 73.4335 55.3006 72.4242 53.9759L72.3137 54.0602C74.5581 57.2352 76.6079 60.3842 78.2994 63.9805C79.8757 66.9668 81.0361 70.0955 82.3071 73.1399C82.2806 73.3346 82.3912 73.2503 82.3071 73.1399Z" fill="white"/>
<path d="M62.8482 55.8624C61.0819 53.5443 59.7844 50.6946 58.7922 47.7866C57.7159 44.7683 57.1925 41.3288 58.926 38.7866C59.1737 38.4235 59.4213 38.0603 59.7266 38.0022C60.3636 37.6913 61.0583 37.6854 61.6159 37.9584C62.9257 38.5306 63.7403 39.8291 64.1391 41.27C64.4537 42.6005 64.3525 44.0734 64.2513 45.5463C63.8854 48.9656 63.4088 52.4692 62.8482 55.8624Z" fill="#627692"/>
<path d="M62.7641 55.7517C61.5025 54.0959 60.5991 51.9927 59.7798 49.9998C58.987 47.8124 58.5259 45.3721 59.8747 43.4721C60.0118 43.1932 60.2329 43.0246 60.4541 42.8561C60.7859 42.6034 61.3699 42.6817 61.8434 42.8444C62.7904 43.1697 63.4368 44.2474 63.6097 45.1625C63.8667 46.188 63.7343 47.1612 63.6861 48.2448C63.6472 50.717 63.303 53.2474 62.7641 55.7517Z" fill="#B1C0D9"/>
<path d="M62.7909 55.557C61.9934 52.6753 61.0012 49.7673 60.2037 46.8856C59.4903 44.1142 58.9981 41.1742 59.2846 38.3388C58.9981 41.1742 59.5168 43.9195 60.2302 46.6909C60.8065 49.7412 61.7987 52.6491 62.7909 55.557C62.7644 55.7517 62.7644 55.7517 62.7909 55.557Z" fill="white"/>
<path d="M62.7926 55.5575C62.8175 51.0023 62.7582 46.3367 61.7831 41.8455C61.4685 40.515 61.1539 39.1845 60.8392 37.854C60.8392 37.854 60.7551 37.7436 60.7286 37.9383C61.4997 41.0147 62.1601 44.1754 62.4312 47.2838C62.7552 50.003 62.7739 52.7802 62.7926 55.5575C62.6821 55.6418 62.6821 55.6418 62.7926 55.5575Z" fill="white"/>
<path d="M45.6091 37.5944C43.3522 36.697 41.1483 35.4102 39.1656 33.955C37.0987 32.3893 35.1113 30.2397 35.1766 27.5728C35.119 27.2678 35.1719 26.8785 35.309 26.5996C35.5831 26.0418 36.1096 25.8151 36.7201 25.6989C37.9412 25.4664 39.0564 26.0124 39.9504 26.727C40.7339 27.5258 41.3803 28.6035 41.9426 29.5709C43.3506 32.3364 44.4799 34.9654 45.6091 37.5944Z" fill="#627692"/>
<path d="M45.524 37.4838C43.8247 36.8594 42.3731 35.8718 40.9214 34.8842C39.3857 33.7862 38.0135 32.2147 37.973 30.3264C37.9994 30.1317 37.9418 29.8267 38.163 29.6582C38.4106 29.295 38.7424 29.0422 39.1317 29.0945C39.937 29.0043 40.884 29.3296 41.4992 29.9077C42.1144 30.4857 42.5085 31.2323 42.9026 31.9789C43.8589 33.6928 44.7888 35.6014 45.524 37.4838Z" fill="#B1C0D9"/>
<path d="M45.5262 37.484C43.5699 35.8341 41.6977 34.2946 39.852 32.5604C38.0904 30.9366 36.55 29.1443 35.3413 27.0993C36.4394 29.2286 38.0063 30.8262 39.6573 32.5343C41.503 34.2685 43.4593 35.9184 45.5262 37.484Z" fill="white"/>
<path d="M45.5245 37.4841C43.4747 34.3352 41.4249 31.1862 38.7382 28.3482C37.9547 27.5494 37.1713 26.7505 36.2772 26.036C38.207 27.8805 39.9421 29.699 41.6508 31.712C42.97 33.6728 44.2052 35.5233 45.5245 37.4841Z" fill="white"/>
<path d="M30.6071 37.8604C28.9172 38.6246 27.0856 38.9733 25.2804 39.1275C23.3646 39.3659 21.223 39.0785 19.9085 37.812C19.7402 37.5912 19.6561 37.4808 19.5985 37.1758C19.4568 36.7604 19.6203 36.2868 19.952 36.0341C20.4473 35.3077 21.3896 34.9387 22.279 34.9589C23.1683 34.9792 24.0312 35.1941 24.7835 35.4932C26.6774 36.1438 28.6555 36.9048 30.6071 37.8604Z" fill="#627692"/>
<path d="M30.5237 37.7499C29.3603 38.2874 27.9445 38.4938 26.6393 38.616C25.3341 38.7381 23.666 38.6133 22.7143 37.5937C22.6302 37.4834 22.462 37.2626 22.3779 37.1522C22.3202 36.8472 22.4573 36.5683 22.5943 36.2894C22.9526 35.8419 23.5896 35.531 24.2843 35.5252C24.9789 35.5193 25.4524 35.6819 26.1206 35.8707C27.7093 36.5794 29.2139 37.1777 30.5237 37.7499Z" fill="#B1C0D9"/>
<path d="M30.5221 37.749C28.6328 37.7928 26.8276 37.9469 24.9383 37.9907C23.1596 37.9502 21.3809 37.9097 19.6817 37.2853C21.2968 37.7993 23.0491 38.0344 24.7436 37.9646C26.717 38.0312 28.6063 37.9874 30.5221 37.749Z" fill="white"/>
<path d="M30.5237 37.7499C27.851 36.9948 25.1518 36.4344 22.2891 36.3475C21.3997 36.3272 20.621 36.2227 19.8157 36.3129C21.705 36.2691 23.6784 36.3357 25.5988 36.7917C27.1564 37.0007 28.8821 37.4305 30.5237 37.7499Z" fill="white"/>
<path d="M31.6586 37.4064C31.4204 39.1582 30.9874 40.8839 30.2756 42.473C29.648 44.1726 28.6309 45.8198 26.9099 46.0844C26.7152 46.0582 26.4099 46.1164 26.3258 46.006C26.047 45.8695 25.7947 45.5383 25.5424 45.2072C25.2589 44.3763 25.2807 43.4874 25.7759 42.761C26.0765 42.0086 26.74 41.503 27.2088 40.9714C28.757 39.7917 30.2211 38.5017 31.6586 37.4064Z" fill="#627692"/>
<path d="M31.7435 37.5167C31.6688 38.795 31.2047 40.021 30.8511 41.1627C30.387 42.3887 29.5335 43.5624 28.423 43.7107C28.2283 43.6846 28.1177 43.7688 27.923 43.7427C27.6442 43.6062 27.476 43.3854 27.4184 43.0804C27.1925 42.5546 27.2984 41.776 27.5461 41.4129C27.8202 40.8551 28.2625 40.518 28.6207 40.0706C29.5319 39.2019 30.5536 38.2489 31.7435 37.5167Z" fill="#B1C0D9"/>
<path d="M31.7431 37.5171C31.0313 39.1063 30.3196 40.6955 29.5237 42.1742C28.7278 43.653 27.8479 45.0214 26.7156 46.0586C27.8479 45.0214 28.7278 43.653 29.4131 42.2585C30.209 40.7797 30.9208 39.1906 31.7431 37.5171Z" fill="white"/>
<path d="M31.6333 37.6004C29.8952 39.4482 28.3517 41.3222 26.95 43.6115C26.5653 44.2536 26.1806 44.8957 25.88 45.6481C26.7023 43.9747 27.6929 42.5221 28.6834 41.0694C29.6475 39.8114 30.6957 38.6638 31.6333 37.6004C31.7439 37.5162 31.7439 37.5162 31.6333 37.6004Z" fill="white"/>
<path d="M48.1198 38.8228C46.1293 40.3394 43.8864 41.5249 41.6701 42.5158C39.2591 43.4805 36.401 44.0879 34.1971 42.8012C33.9183 42.6647 33.7501 42.4439 33.4977 42.1127C33.1613 41.6712 33.2407 41.0872 33.4307 40.4191C33.7843 39.2773 34.9742 38.5451 35.9165 38.1761C37.0535 37.8332 38.2481 37.7953 39.4163 37.9521C42.3631 38.1493 45.1994 38.4308 48.1198 38.8228Z" fill="#627692"/>
<path d="M48.0084 38.907C46.5708 40.0023 44.965 40.8769 43.3857 41.5569C41.6958 42.3211 39.5588 42.728 37.9966 41.8247C37.7178 41.6881 37.6337 41.5778 37.4655 41.357C37.2132 41.0258 37.2661 40.6365 37.4297 40.163C37.7303 39.4105 38.5043 38.8207 39.336 38.536C40.1678 38.2512 41.0571 38.2714 41.8359 38.3759C43.8093 38.4426 45.9773 38.5353 48.0084 38.907Z" fill="#B1C0D9"/>
<path d="M48.0084 38.907C45.6238 39.6771 43.2128 40.6418 40.9388 41.3276C38.6648 42.0134 36.3067 42.5889 33.944 42.47C36.3067 42.5889 38.5542 42.0977 40.8282 41.4119C43.1022 40.726 45.5132 39.7613 48.0084 38.907Z" fill="white"/>
<path d="M47.8126 38.8804C44.034 38.968 40.229 39.2501 36.6233 40.2527C35.4863 40.5956 34.4599 40.8543 33.3229 41.1972C35.9022 40.4532 38.3709 39.7935 41.0078 39.3546C43.3129 39.1685 45.618 38.9823 47.8126 38.8804C47.8967 38.9908 48.0073 38.9066 47.8126 38.8804Z" fill="white"/>
<path d="M104.919 75.977C103.191 79.2134 100.904 82.1768 98.476 84.7248C95.9108 87.5518 92.3987 90.0534 88.5889 89.6412C88.1996 89.589 87.6155 89.5106 87.2526 89.2637C86.5268 88.7699 86.2433 87.9391 86.1545 87.1343C86.0875 85.4407 87.0204 83.683 88.2633 82.5615C89.5062 81.44 91.1961 80.6758 92.8595 80.1063C96.7393 78.5459 100.898 77.122 104.919 75.977Z" fill="#627692"/>
<path d="M104.808 76.0613C103.601 78.3768 101.921 80.5296 100.183 82.3774C98.3338 84.3095 95.7904 86.2475 93.0647 85.8817C92.6753 85.8294 92.3965 85.6929 92.1177 85.5564C91.6707 85.1991 91.4449 84.6733 91.3296 84.0632C91.2938 82.8693 91.9526 81.6694 92.8637 80.8007C93.7748 79.932 95.0224 79.5048 96.0753 79.0515C98.9022 77.9444 101.924 76.8634 104.808 76.0613Z" fill="#B1C0D9"/>
<path d="M104.697 76.1454C102.074 78.6673 99.3409 81.2734 96.6339 83.6849C94.0376 86.0121 91.0783 88.0925 87.8356 89.342C87.8356 89.342 87.8091 89.5366 87.9197 89.4524C91.1624 88.2029 93.8164 86.1807 96.4969 83.9638C99.3144 81.4681 101.964 78.7515 104.697 76.1454C104.808 76.0611 104.808 76.0611 104.697 76.1454Z" fill="white"/>
<path d="M104.697 76.1448C99.7111 78.5478 94.7831 81.2558 90.3598 84.6261C89.0328 85.6372 87.7899 86.7587 86.4629 87.7698L86.5471 87.8802C89.4752 85.3002 92.4609 83.0252 95.8095 80.9971C98.6318 79.1957 101.706 77.7254 104.697 76.1448Z" fill="white"/>
<path d="M83.6462 74.2119C80.2088 75.4353 76.572 75.9382 72.9616 76.2465C69.1566 76.5287 64.8734 75.9539 62.4919 73.0577C62.2396 72.7265 61.9031 72.285 61.872 71.7853C61.6726 71.0649 61.9997 70.1178 62.5791 69.5018C63.6537 68.1596 65.5118 67.6162 67.2905 67.6567C69.0692 67.6972 70.6579 68.4059 72.2731 68.9199C76.0345 70.4157 79.9642 72.1322 83.6462 74.2119Z" fill="#627692"/>
<path d="M83.5629 74.1014C81.0677 74.9558 78.4308 75.3947 75.931 75.5547C73.2365 75.6886 70.1214 75.2706 68.4128 73.2575C68.2446 73.0367 67.9922 72.7056 67.9346 72.4005C67.8193 71.7905 68.0935 71.2327 68.4517 70.7853C69.2787 69.8062 70.5263 69.379 71.805 69.4515C73.0837 69.524 74.2254 69.8754 75.3406 70.4215C77.9869 71.3712 80.8855 72.652 83.5629 74.1014Z" fill="#B1C0D9"/>
<path d="M83.478 73.9911C79.81 73.9944 76.1156 74.1923 72.4741 74.0009C69.0273 73.8356 65.4122 73.4496 62.2084 72.2268L62.0978 72.3111C65.3017 73.5338 68.6114 73.978 72.0582 74.1433C75.8103 74.2504 79.5889 74.1629 83.478 73.9911Z" fill="white"/>
<path d="M83.3682 74.0752C78.0492 72.3704 72.6773 71.0549 67.0889 70.6022C65.4207 70.4775 63.7526 70.3527 62.0845 70.2279C62.0845 70.2279 61.9739 70.3122 62.1686 70.3383C66.0048 70.5559 69.841 70.7734 73.5978 71.5748C76.8811 72.2136 80.0273 73.1313 83.3682 74.0752C83.4788 73.9909 83.4523 74.1856 83.3682 74.0752Z" fill="white"/>
<path d="M62.4273 55.3112C59.3699 55.1981 56.2813 54.5855 53.2192 53.7781C50.073 52.8604 46.8379 51.138 45.7616 48.1197C45.6199 47.7043 45.4782 47.2889 45.5311 46.8996C45.637 46.121 46.1058 45.5893 46.7428 45.2784C48.0434 44.462 49.6009 44.671 51.0214 45.1589C52.3313 45.7311 53.5882 46.6926 54.6504 47.6279C57.3902 50.0766 60.0193 52.6096 62.4273 55.3112Z" fill="#627692"/>
<path d="M62.2327 55.285C59.9541 55.2765 57.8389 54.7945 55.6397 54.2021C53.3564 53.4992 51.0418 52.2968 50.249 50.1093C50.1914 49.8043 50.1338 49.4992 50.1602 49.3046C50.2397 48.7206 50.5714 48.4679 51.0137 48.1308C51.9825 47.5672 53.0666 47.6135 54.0976 48.0492C55.1287 48.4849 55.8281 49.1733 56.7221 49.8879C58.6784 51.5378 60.5241 53.272 62.2327 55.285Z" fill="#B1C0D9"/>
<path d="M62.1501 55.1741C59.225 54.0879 56.1894 53.0859 53.3749 51.9155C50.5605 50.745 47.9672 49.406 45.7586 47.4249L45.648 47.5091C47.8566 49.4902 50.4499 50.8292 53.0697 51.9736C56.0788 53.1702 59.1145 54.1722 62.1501 55.1741C62.2342 55.2845 62.3448 55.2003 62.1501 55.1741Z" fill="white"/>
<path d="M62.1495 55.1746C58.3787 52.2902 54.4973 49.49 50.2047 47.5266C48.8948 46.9544 47.5849 46.3822 46.275 45.81C49.2842 47.0067 52.351 48.5083 55.086 50.2627C57.4582 51.7702 59.8038 53.4724 62.1495 55.1746Z" fill="white"/>
<path d="M21.5675 45.2681C21.1563 46.1048 20.4663 46.805 19.8028 47.3106C15.4948 51.291 9.36749 53.3426 3.50028 52.7534C3.30559 52.7272 3.1109 52.7011 3.02679 52.5907C2.85857 52.37 3.07974 52.2014 3.3009 52.0329C6.61371 48.8109 10.7941 46.498 15.205 45.4053C17.1472 44.9722 19.2576 44.7599 21.0675 45.3001" fill="#AD1B1E"/>
<path d="M21.8199 45.5992C21.0458 46.189 20.4664 46.805 19.887 47.4209C16.1942 51.9794 14.4577 58.1877 15.5527 63.9833C15.5262 64.178 15.6103 64.2883 15.6945 64.3987C15.9732 64.5352 16.1103 64.2563 16.3315 64.0878C19.2814 60.6188 21.3637 56.2407 22.1673 51.79C22.4321 49.8435 22.6127 47.7867 21.8775 45.9043" fill="#AD1B1E"/>
<path d="M22.4345 46.1771C24.0278 47.5802 24.8207 49.7676 25.4188 51.929C25.7599 53.0648 26.101 54.2007 26.1104 55.5893C26.1198 56.978 25.8503 58.2301 25.2756 59.5403C24.975 60.2928 24.6744 61.0452 24.095 61.6612C23.5157 62.2771 22.7681 62.6723 21.9893 62.5678C20.9052 62.5214 20.0377 61.6122 19.586 60.5606C19.1343 59.509 19.2931 58.3411 19.3414 57.2575C19.6233 53.7278 20.2104 50.1399 21.6604 46.7669C21.7974 46.488 22.0716 45.9302 22.545 46.0929" fill="#E92438"/>
<path d="M21.9317 45.5149C22.114 47.8187 21.5175 50.0179 20.4475 52.0545C19.3775 54.091 17.8605 55.7703 16.2594 57.3392C15.0165 58.4607 13.579 59.5561 11.942 59.931C10.2209 60.1955 8.32698 59.545 7.76001 57.8833C7.33478 56.6371 7.7148 55.3007 8.45772 54.2112C9.3377 52.8428 10.4965 51.6109 11.7129 50.6841C13.951 48.8043 16.4415 47.2556 18.9896 46.012C19.9848 45.2537 21.1218 44.9108 21.9317 45.5149Z" fill="#E92438"/>
<path d="M21.5684 45.2681C19.352 46.2589 17.1357 47.2498 14.8617 47.9356C12.5877 48.6214 10.0614 48.9761 7.64101 48.5522C6.47286 48.3954 5.16297 47.8232 4.82186 46.6874C4.56485 45.6619 5.39188 44.6828 6.27654 44.0087C8.04587 42.6606 10.3775 42.2798 12.5456 42.3725C14.7136 42.4653 16.9129 43.0577 19.028 43.5398C19.5015 43.7024 20.0856 43.7808 20.4485 44.0277C20.8114 44.2746 21.2319 44.8265 21.179 45.2158" fill="#E92438"/>
<path d="M21.0938 45.1061C18.5987 45.9604 15.9041 46.0943 13.2937 46.3386C10.4886 46.5567 7.68352 46.7749 4.989 46.9088C7.76763 46.8852 10.6833 46.5828 13.4884 46.3647C15.9882 46.2047 18.5987 45.9604 21.0938 45.1061Z" fill="#FFFFE6"/>
<path d="M20.9835 45.1906C21.01 44.9959 20.6206 44.9437 20.4259 44.9175C19.9524 44.7549 19.3684 44.6765 18.7843 44.5981C17.8108 44.4675 16.7268 44.4211 15.6428 44.3747C13.3641 44.3662 11.059 44.5524 8.75383 44.7385C7.44862 44.8607 6.22752 45.0932 4.92232 45.2153C4.92232 45.2153 4.92231 45.2153 5.00642 45.3257C7.75389 44.8025 10.4749 44.474 13.1694 44.3401C14.4746 44.218 15.7533 44.2905 16.948 44.2526C17.6426 44.2467 18.2267 44.3251 18.8949 44.5139C19.1737 44.6504 21.01 44.9959 20.9835 45.1906Z" fill="#FFFFE6"/>
<path d="M21.4615 46.0463C21.3821 46.6302 21.0239 47.0777 20.7498 47.6355C20.4757 48.1933 20.1174 48.6407 19.8433 49.1985C19.211 50.2037 18.4681 51.2932 17.7516 52.1881C16.2081 54.062 14.5805 55.8255 12.5901 57.3422C11.5948 58.1005 10.4625 59.1378 9.32551 59.4807C9.32551 59.4807 9.21493 59.5649 9.40962 59.591C10.5466 59.2481 11.3472 58.4637 12.2318 57.7896C13.2271 57.0313 14.1382 56.1626 14.9388 55.3781C16.7611 53.6407 18.3045 51.7668 19.5692 49.7563C19.9539 49.1142 20.4227 48.5826 20.6968 48.0248C20.9974 47.2723 21.3821 46.6302 21.4615 46.0463C21.488 45.8517 21.5721 45.9621 21.4615 46.0463Z" fill="#FFFFE6"/>
<path d="M7.92825 58.1045C8.56059 57.0993 9.38762 56.1202 10.2988 55.2515C11.0152 54.3566 11.9263 53.4879 12.7269 52.7035C14.4386 51.0503 16.2609 49.3129 18.3355 47.9066C19.4413 47.064 20.6312 46.3318 21.8212 45.5996C21.8212 45.5996 21.8212 45.5996 21.7371 45.4892C17.5302 47.9967 13.8016 51.3612 10.4358 54.9726C9.4982 56.0359 8.58707 56.9046 7.92825 58.1045Z" fill="#FFFFE6"/>
<path d="M23.127 62.2254C24.3776 58.132 25.1236 53.3763 23.5956 49.3064C23.2544 48.1705 22.6081 47.0928 21.8511 46.0993L21.7405 46.1836C25.3836 50.7355 24.7311 56.9903 23.127 62.2254Z" fill="#FFFFE6"/>
<path d="M21.1544 62.1584C21.4144 59.5177 21.6745 56.8769 21.6293 54.2943C21.6199 52.9056 21.5 51.6013 21.4906 50.2126C21.4812 48.824 21.4719 47.4354 21.6572 46.0728C21.5824 47.3511 21.5918 48.7397 21.5171 50.018C21.5264 51.4066 21.6464 52.711 21.6558 54.0996C21.5904 56.7665 21.3303 59.4073 21.1544 62.1584Z" fill="#FFFFE6"/>
<path d="M19.6616 46.8951C18.779 45.7368 19.0042 44.0811 20.1646 43.1969C21.325 42.3127 22.9812 42.535 23.8637 43.6933C24.7463 44.8516 24.5211 46.5074 23.3607 47.3916C22.2003 48.2757 20.5442 48.0535 19.6616 46.8951Z" fill="#AD1B1E"/>
</g>
<g clip-path="url(#clip1_10604_17589)">
<path d="M245.783 34.4912C245.685 34.3892 245.489 34.3892 245.587 34.5933C247.253 39.1854 246.273 44.5939 243.236 48.3696C239.61 52.9618 233.632 53.7781 228.243 53.6761C222.853 53.472 217.366 52.3495 211.976 53.472C209.134 54.0843 206.587 55.4109 204.137 56.9416C201.687 58.4723 199.237 60.1051 197.179 62.2481C192.966 66.7381 191.3 72.963 189.732 78.7797L189.732 78.8817C189.732 78.8817 189.732 78.9838 189.83 78.9838L189.928 78.9838C189.928 78.7797 190.026 78.4735 190.124 78.2695C191.496 72.963 192.966 67.5545 196.493 63.2685C198.551 60.8194 201.099 58.9825 203.745 57.3498C206.293 55.717 208.938 54.2884 211.878 53.6761C217.464 52.4515 223.049 53.7781 228.733 53.8802C233.926 53.9822 239.512 53.1659 243.138 48.9819C246.371 45.1041 247.547 39.2874 245.783 34.4912Z" fill="#627692"/>
<path d="M191.984 71.3305C193.356 69.0854 195.12 67.1465 197.08 65.3097C199.04 63.4728 201.686 61.8401 204.331 62.4524C204.625 62.5544 205.017 62.6565 205.213 62.8606C205.703 63.2688 205.801 63.881 205.801 64.4933C205.801 65.7179 205.017 66.9425 204.037 67.6568C203.058 68.3711 201.882 68.7793 200.706 69.1875C197.864 70.0039 194.924 70.8202 191.984 71.3305Z" fill="#627692"/>
<path d="M192.083 71.3298C193.063 69.6971 194.336 68.2684 195.708 67.0438C197.178 65.7172 199.04 64.4927 200.902 65.0029C201.098 65.1049 201.392 65.1049 201.588 65.309C201.882 65.6152 202.078 66.0234 202.078 66.4316C202.078 67.35 201.49 68.1664 200.804 68.6766C200.118 69.1868 199.236 69.493 198.452 69.7991C196.296 70.3093 194.14 70.9216 192.083 71.3298Z" fill="#B1C0D9"/>
<path d="M192.083 71.2285C194.14 69.5957 196.1 67.8609 198.256 66.2281C200.216 64.6974 202.372 63.3708 204.724 62.6565L204.724 62.5544C202.372 63.2688 200.314 64.5954 198.354 66.024C196.198 67.7588 194.14 69.4937 192.083 71.2285Z" fill="white"/>
<path d="M192.181 71.2283C195.806 69.7996 199.432 68.1668 202.764 65.9218C203.744 65.2075 204.724 64.5952 205.703 63.8809L205.703 63.7788C203.548 65.4116 201.196 66.9423 198.746 68.2689C196.59 69.3914 194.336 70.3098 192.181 71.2283C192.083 71.2283 192.083 71.2283 192.181 71.2283Z" fill="white"/>
<path d="M203.843 57.0429C206.293 56.1245 208.841 55.7163 211.389 55.5122C214.034 55.3081 217.072 55.7163 218.836 57.8593C219.032 58.1654 219.228 58.4716 219.326 58.7777C219.424 59.39 219.228 60.0023 218.836 60.4105C218.052 61.4309 216.778 61.8391 215.602 61.7371C214.426 61.7371 213.25 61.2268 212.075 60.8187C209.331 59.6961 206.489 58.4716 203.843 57.0429Z" fill="#627692"/>
<path d="M204.04 57.0427C205.803 56.4304 207.665 56.1242 209.429 55.9202C211.389 55.8181 213.545 56.0222 214.721 57.5529C214.917 57.757 215.015 57.9611 215.113 58.1652C215.211 58.5734 215.015 58.9816 214.819 59.3898C214.231 60.1041 213.349 60.4102 212.467 60.4102C211.585 60.4102 210.801 60.1041 209.919 59.6959C207.861 58.9816 205.901 58.0631 204.04 57.0427Z" fill="#B1C0D9"/>
<path d="M204.04 57.043C206.587 57.043 209.233 56.9409 211.781 57.043C214.231 57.145 216.681 57.4512 219.032 58.3696C219.032 58.3696 219.13 58.3696 219.032 58.2675C216.779 57.3491 214.427 57.043 211.977 56.9409C209.429 56.9409 206.685 56.9409 204.04 57.043Z" fill="white"/>
<path d="M204.138 57.0432C207.861 58.2678 211.683 59.2883 215.603 59.5944C216.779 59.6964 217.954 59.7985 219.13 59.7985L219.13 59.6964C216.387 59.5944 213.741 59.3903 210.997 58.778C208.645 58.3698 206.391 57.7575 204.138 57.0432C204.04 57.0432 204.04 57.0432 204.138 57.0432Z" fill="white"/>
<path d="M222.169 53.3689C224.227 53.3689 226.383 53.8791 228.441 54.5935C230.596 55.3078 232.752 56.5324 233.438 58.6753C233.536 58.9815 233.634 59.2876 233.536 59.4917C233.438 60.002 233.144 60.4102 232.752 60.6142C231.87 61.1245 230.792 61.0224 229.812 60.6142C228.931 60.2061 228.147 59.4917 227.363 58.7774C225.599 57.1446 223.835 55.3078 222.169 53.3689Z" fill="#627692"/>
<path d="M222.265 53.4712C223.735 53.4712 225.303 53.8794 226.773 54.2876C228.341 54.7978 229.909 55.6142 230.399 57.2469C230.497 57.451 230.497 57.6551 230.497 57.8592C230.497 58.1654 230.203 58.4715 229.909 58.6756C229.321 59.0838 228.439 58.9817 227.851 58.6756C227.165 58.3695 226.675 57.8592 226.087 57.349C224.715 56.1244 223.441 54.7978 222.265 53.4712Z" fill="#B1C0D9"/>
<path d="M222.364 53.4716C224.324 54.288 226.382 55.0023 228.342 55.8187C230.204 56.6351 232.066 57.6556 233.535 59.0842C232.066 57.6556 230.302 56.7371 228.44 55.9208C226.48 55.0023 224.422 54.186 222.364 53.4716C222.266 53.4716 222.266 53.3696 222.364 53.4716Z" fill="white"/>
<path d="M222.364 53.4712C224.911 55.5121 227.557 57.5531 230.497 58.9817C231.379 59.3899 232.261 59.7981 233.143 60.2063C233.143 60.2063 233.241 60.2063 233.143 60.1043C231.085 59.1858 229.027 58.1654 227.165 56.9408C225.499 55.9203 223.931 54.6958 222.364 53.4712Z" fill="white"/>
<path d="M239.807 51.4315C241.277 50.5131 242.943 49.7988 244.609 49.2885C246.372 48.7783 248.43 48.5742 249.9 49.7988C250.096 49.9008 250.292 50.1049 250.39 50.309C250.586 50.7172 250.488 51.1254 250.292 51.5336C249.9 52.35 249.116 52.7581 248.332 52.9622C247.548 53.1663 246.666 52.9622 245.883 52.8602C243.727 52.452 241.767 52.0438 239.807 51.4315Z" fill="#627692"/>
<path d="M239.905 51.4313C240.983 50.7169 242.159 50.3088 243.335 49.9006C244.609 49.4924 246.079 49.3903 247.157 50.2067C247.255 50.3088 247.451 50.4108 247.451 50.6149C247.549 50.921 247.549 51.2272 247.353 51.4313C247.059 51.9415 246.471 52.3497 245.883 52.4517C245.295 52.5538 244.707 52.4517 244.119 52.3497C242.747 52.1456 241.277 51.8395 239.905 51.4313Z" fill="#B1C0D9"/>
<path d="M239.905 51.4315C241.668 51.0233 243.334 50.6151 245.098 50.3089C246.764 50.0028 248.43 49.9007 250.096 50.1048C248.43 49.7987 246.862 50.0028 245.196 50.2069C243.432 50.6151 241.668 51.0233 239.905 51.4315C239.905 51.5335 239.807 51.4315 239.905 51.4315Z" fill="white"/>
<path d="M239.905 51.4313C242.551 51.6354 245.197 51.8395 247.941 51.5334C248.724 51.4313 249.508 51.3293 250.292 51.1252C248.431 51.4313 246.667 51.6354 244.805 51.7375C243.139 51.7375 241.571 51.5334 239.905 51.4313Z" fill="white"/>
<path d="M246.078 42.6544C246.372 41.3278 246.96 40.1033 247.646 38.9807C248.332 37.7562 249.41 36.6337 250.684 36.4296C250.88 36.4296 250.978 36.4296 251.174 36.5316C251.468 36.6337 251.664 36.9398 251.664 37.2459C251.86 37.8582 251.664 38.5726 251.272 39.0828C250.88 39.593 250.39 40.0012 249.9 40.3074C248.724 41.1237 247.45 41.9401 246.078 42.6544Z" fill="#627692"/>
<path d="M246.177 42.5521C246.373 41.6337 246.863 40.7152 247.353 39.8989C247.842 39.0825 248.626 38.1641 249.606 38.062C249.704 38.062 249.9 38.062 249.998 38.062C250.194 38.1641 250.292 38.3682 250.39 38.5722C250.488 38.9804 250.39 39.4907 250.096 39.8989C249.802 40.307 249.508 40.5111 249.116 40.8173C248.038 41.5316 247.059 42.0419 246.177 42.5521Z" fill="#B1C0D9"/>
<path d="M246.176 42.5524C246.96 41.4299 247.646 40.3074 248.43 39.1848C249.214 38.1644 249.998 37.1439 251.076 36.4296C250.096 37.1439 249.214 38.0623 248.528 39.0828C247.646 40.2053 246.862 41.4299 246.176 42.5524C246.176 42.6544 246.078 42.5524 246.176 42.5524Z" fill="white"/>
<path d="M246.177 42.5525C247.745 41.328 249.214 40.0014 250.488 38.3686C250.88 37.8584 251.272 37.4502 251.566 36.9399C250.782 38.0625 249.9 39.185 248.822 40.1034C248.038 41.0218 247.059 41.7362 246.177 42.5525Z" fill="white"/>
<path d="M245.88 43.4708C244.998 42.5524 244.214 41.5319 243.626 40.4094C242.941 39.2869 242.451 37.9603 243.039 36.8378C243.137 36.7357 243.235 36.5316 243.333 36.5316C243.529 36.4296 243.822 36.4296 244.116 36.4296C244.704 36.6337 245.194 37.0418 245.39 37.6541C245.684 38.1644 245.684 38.7766 245.782 39.2869C245.782 40.7155 245.88 42.1442 245.88 43.4708Z" fill="#627692"/>
<path d="M245.783 43.3687C245.097 42.7564 244.607 41.9401 244.117 41.2257C243.627 40.4094 243.333 39.3889 243.725 38.6746C243.823 38.5725 243.823 38.4705 243.921 38.3684C244.117 38.2664 244.313 38.2664 244.509 38.3684C244.901 38.4705 245.293 38.8786 245.391 39.1848C245.587 39.593 245.587 40.0012 245.685 40.4093C245.783 41.4298 245.881 42.4503 245.783 43.3687Z" fill="#B1C0D9"/>
<path d="M245.784 43.3691C245.196 42.2466 244.608 41.1241 244.118 40.0016C243.628 38.8791 243.236 37.7566 243.138 36.634C243.236 37.7566 243.628 38.8791 244.118 39.8995C244.608 41.1241 245.196 42.2466 245.784 43.3691C245.882 43.3691 245.784 43.4712 245.784 43.3691Z" fill="white"/>
<path d="M245.783 43.3688C245.489 41.5319 245.097 39.7971 244.411 37.9603C244.215 37.45 244.019 36.9398 243.725 36.4296C244.313 37.6541 244.705 38.8787 245.097 40.1033C245.391 41.1237 245.587 42.2463 245.783 43.3688Z" fill="white"/>
<path d="M238.043 52.3491C238.043 50.5123 238.337 48.6754 238.729 46.9406C239.219 45.1038 240.1 43.1649 241.766 42.4506C241.962 42.3485 242.158 42.3485 242.452 42.3485C242.844 42.3485 243.138 42.6547 243.432 43.0628C243.922 43.7772 243.824 44.7976 243.628 45.512C243.334 46.3283 242.844 47.0427 242.256 47.655C240.884 49.2877 239.512 50.9205 238.043 52.3491Z" fill="#627692"/>
<path d="M238.043 52.2471C238.043 50.9204 238.239 49.5938 238.533 48.3693C238.827 47.0427 239.512 45.614 240.688 45.1038C240.884 45.0017 240.982 45.0017 241.178 45.0017C241.472 45.0017 241.668 45.2058 241.864 45.5119C242.158 46.0222 242.158 46.7365 241.962 47.3488C241.766 47.9611 241.374 48.4713 240.982 48.8795C240.1 50.1041 239.121 51.2266 238.043 52.2471Z" fill="#B1C0D9"/>
<path d="M238.043 52.2468C238.631 50.512 239.121 48.6751 239.708 47.0424C240.296 45.4096 240.982 43.7769 242.06 42.4503C240.982 43.7769 240.296 45.3076 239.708 46.9403C239.121 48.6751 238.631 50.4099 238.043 52.2468Z" fill="white"/>
<path d="M238.14 52.247C239.708 50.0019 241.177 47.6549 242.157 45.1037C242.451 44.2873 242.745 43.573 243.039 42.7566C242.353 44.5934 241.667 46.3282 240.785 48.063C239.904 49.3897 239.022 50.8183 238.14 52.247C238.042 52.247 238.042 52.247 238.14 52.247Z" fill="white"/>
<path d="M192.868 69.0849C191.79 66.6357 191.104 64.0846 190.712 61.4313C190.222 58.6761 190.32 55.5126 192.182 53.4717C192.378 53.2676 192.672 52.9614 192.966 52.8594C193.553 52.6553 194.141 52.8594 194.631 53.1655C195.611 53.8798 196.199 55.2065 196.297 56.431C196.395 57.6556 196.101 58.9822 195.709 60.2068C194.925 63.1661 193.945 66.1255 192.868 69.0849Z" fill="#627692"/>
<path d="M192.869 68.8811C192.085 67.1463 191.595 65.2074 191.301 63.3705C191.007 61.4316 191.007 59.0845 192.379 57.6559C192.575 57.4518 192.771 57.3497 192.967 57.2477C193.359 57.1456 193.751 57.2477 194.143 57.4518C194.829 57.962 195.221 58.8804 195.319 59.7989C195.417 60.7173 195.123 61.6357 194.927 62.4521C194.339 64.6971 193.653 66.8401 192.869 68.8811Z" fill="#B1C0D9"/>
<path d="M192.868 68.8807C192.574 66.2275 192.28 63.4722 192.084 60.819C191.888 58.2678 191.986 55.6146 192.672 53.1655C192.672 53.1655 192.574 53.0634 192.574 53.1655C191.888 55.6146 191.888 58.0637 191.986 60.6149C192.182 63.3702 192.574 66.1255 192.868 68.8807Z" fill="white"/>
<path d="M192.868 68.7785C193.652 64.7987 194.24 60.7168 194.24 56.6349C194.24 55.4103 194.142 54.1857 194.142 52.9612L194.044 52.9612C194.24 55.8185 194.24 58.5738 193.946 61.4311C193.75 63.9823 193.26 66.3294 192.868 68.7785C192.868 68.8805 192.868 68.8805 192.868 68.7785Z" fill="white"/>
<path d="M202.961 57.452C203.745 54.9008 205.019 52.5537 206.391 50.3087C207.861 47.9616 210.017 45.7165 212.662 45.6145C212.956 45.6145 213.348 45.6145 213.642 45.8186C214.132 46.0227 214.524 46.635 214.622 47.2473C214.916 48.4718 214.426 49.7984 213.642 50.8189C212.858 51.8394 211.78 52.4517 210.801 53.166C208.351 54.5946 205.705 56.1254 202.961 57.452Z" fill="#627692"/>
<path d="M203.059 57.35C203.647 55.5132 204.529 53.7784 205.509 52.2477C206.587 50.6149 208.155 48.9822 210.016 48.8801C210.212 48.8801 210.506 48.8801 210.702 48.9822C211.094 49.1863 211.29 49.5945 211.388 50.0026C211.584 50.9211 211.29 51.8395 210.702 52.5538C210.114 53.2682 209.429 53.7784 208.645 54.1866C206.979 55.3091 205.019 56.4316 203.059 57.35Z" fill="#B1C0D9"/>
<path d="M203.157 57.3499C204.725 55.2069 206.195 52.9619 207.861 50.921C209.428 48.9821 211.192 47.0432 213.25 45.7165L213.25 45.6145C211.192 46.9411 209.526 48.6759 207.959 50.6148C206.293 52.8598 204.725 55.1049 203.157 57.3499Z" fill="white"/>
<path d="M203.157 57.3495C206.39 55.0025 209.428 52.4513 212.074 49.3899C212.858 48.4714 213.642 47.553 214.426 46.6346C214.426 46.6346 214.426 46.5325 214.328 46.6346C212.564 48.7776 210.8 50.9206 208.742 52.7574C206.978 54.3902 205.117 55.8188 203.157 57.3495Z" fill="white"/>
<path d="M222.659 53.3705C224.031 51.6357 225.697 50.105 227.46 48.6764C229.322 47.2477 231.674 46.1252 233.83 46.8395C234.124 46.9416 234.418 47.0436 234.614 47.2477C235.006 47.6559 235.104 48.1661 235.006 48.6764C234.908 49.7989 234.124 50.6153 233.242 51.2276C232.36 51.8398 231.282 52.0439 230.302 52.248C227.754 52.7583 225.207 53.1664 222.659 53.3705Z" fill="#627692"/>
<path d="M222.755 53.3703C223.735 52.0437 224.911 51.0232 226.185 50.0027C227.557 48.9823 229.222 48.1659 230.79 48.6761C230.986 48.7782 231.182 48.8802 231.28 48.9823C231.574 49.2884 231.574 49.5945 231.574 50.0027C231.476 50.8191 230.986 51.4314 230.3 51.8396C229.614 52.2478 228.929 52.3498 228.145 52.5539C226.381 52.9621 224.617 53.2682 222.755 53.3703Z" fill="#B1C0D9"/>
<path d="M222.854 53.3707C224.716 52.1462 226.578 50.8196 228.44 49.6971C230.301 48.5745 232.163 47.6561 234.221 47.2479L234.221 47.1459C232.163 47.5541 230.301 48.4725 228.538 49.493C226.578 50.7175 224.716 52.0441 222.854 53.3707C222.756 53.3707 222.756 53.3707 222.854 53.3707Z" fill="white"/>
<path d="M222.854 53.3707C226.088 52.4523 229.322 51.4318 232.262 49.7991C233.144 49.2888 234.026 48.7786 234.907 48.2684C232.948 49.4929 230.792 50.6155 228.636 51.4318C226.774 52.1462 224.814 52.7585 222.854 53.3707Z" fill="white"/>
<path d="M245.783 33.9802C245.489 33.3679 245.391 32.6536 245.391 32.0413C244.999 27.7553 246.469 23.2653 249.311 20.1018C249.409 19.9998 249.507 19.8977 249.605 19.8977C249.801 19.8977 249.801 20.1018 249.801 20.3059C250.193 23.6734 249.703 27.1431 248.429 30.2045C247.841 31.5311 247.057 32.8577 245.979 33.6741" fill="#AD1B1E"/>
<path d="M245.489 34.0822C245.489 33.3679 245.391 32.7556 245.293 32.1433C244.313 27.9594 241.569 24.1836 237.845 22.2447C237.747 22.1427 237.65 22.1427 237.552 22.1427C237.356 22.2447 237.454 22.4488 237.454 22.6529C238.139 25.9184 239.707 29.0819 241.863 31.531C242.843 32.5515 243.921 33.572 245.293 33.9802" fill="#AD1B1E"/>
<path d="M244.9 34.185C243.431 34.4911 241.863 33.9809 240.393 33.3686C239.609 33.0624 238.825 32.7563 238.041 32.144C237.257 31.5317 236.669 30.8174 236.179 29.899C235.885 29.3887 235.591 28.8785 235.493 28.2662C235.395 27.6539 235.493 27.0417 235.885 26.6335C236.375 26.0212 237.257 25.9191 238.041 26.1232C238.825 26.3273 239.413 26.9396 240.001 27.4498C241.863 29.1846 243.627 31.1235 244.9 33.4706C244.998 33.7768 245.194 34.0829 244.9 34.287" fill="#E92438"/>
<path d="M245.489 34.184C244.117 33.2656 243.137 31.939 242.451 30.4083C241.765 28.8776 241.471 27.2448 241.275 25.6121C241.177 24.3875 241.177 23.0609 241.667 21.9384C242.255 20.8158 243.431 19.9995 244.607 20.4077C245.489 20.7138 246.077 21.5302 246.371 22.4486C246.763 23.5711 246.959 24.7957 246.959 25.9182C247.057 28.0612 246.861 30.2042 246.469 32.2451C246.469 33.0615 246.175 33.9799 245.489 34.184Z" fill="#E92438"/>
<path d="M245.783 34.0825C246.175 32.3477 246.567 30.6129 247.155 28.9801C247.743 27.3474 248.625 25.7146 249.899 24.49C250.487 23.8778 251.368 23.3675 252.152 23.6737C252.838 23.9798 253.034 24.8982 253.034 25.7146C253.034 27.3474 252.25 28.8781 251.27 30.1026C250.291 31.3272 249.017 32.3477 247.841 33.3681C247.547 33.5722 247.253 33.8784 246.959 33.9804C246.665 34.0825 246.175 34.0825 245.979 33.8784" fill="#E92438"/>
<path d="M246.077 33.8781C246.665 32.0413 247.743 30.4085 248.723 28.7758C249.801 27.041 250.879 25.3062 251.957 23.6734C250.781 25.3062 249.703 27.143 248.625 28.8778C247.645 30.4085 246.665 32.0413 246.077 33.8781Z" fill="#FFFFE6"/>
<path d="M246.077 33.7762C246.175 33.8782 246.371 33.6741 246.469 33.5721C246.763 33.368 247.057 33.0618 247.351 32.7557C247.841 32.2454 248.331 31.6332 248.821 31.0209C249.801 29.6943 250.683 28.2656 251.565 26.8369C252.055 26.0206 252.447 25.2042 252.937 24.3878C252.937 24.3878 252.937 24.3878 252.839 24.3878C251.957 26.2247 250.977 27.9595 249.899 29.5922C249.409 30.4086 248.821 31.1229 248.331 31.8373C248.037 32.2454 247.743 32.5516 247.351 32.8577C247.155 32.9598 246.175 33.8782 246.077 33.7762Z" fill="#FFFFE6"/>
<path d="M245.39 33.6742C245.096 33.368 244.998 32.9598 244.802 32.5516C244.606 32.1435 244.508 31.7353 244.312 31.3271C244.018 30.5107 243.724 29.5923 243.528 28.7759C243.136 27.0411 242.842 25.3063 242.842 23.4694C242.842 22.551 242.744 21.4285 243.038 20.6121C243.038 20.6121 243.038 20.5101 242.94 20.6121C242.646 21.4285 242.744 22.2449 242.744 23.0613C242.744 23.9797 242.842 24.8981 242.94 25.7145C243.136 27.5513 243.528 29.2861 244.116 30.9189C244.312 31.4291 244.41 31.9394 244.606 32.3475C244.9 32.8578 245.096 33.368 245.39 33.6742Z" fill="#FFFFE6"/>
<path d="M244.412 20.4077C244.705 21.2241 244.901 22.1425 244.999 23.0609C245.195 23.8773 245.293 24.7957 245.391 25.6121C245.587 27.3469 245.783 29.1838 245.685 31.0206C245.685 32.0411 245.587 33.0616 245.489 34.082C245.489 34.082 245.489 34.082 245.587 34.082C245.979 30.5104 245.685 26.8367 245.097 23.265C244.901 22.2446 244.803 21.2241 244.412 20.4077C244.412 20.3057 244.314 20.3057 244.412 20.4077Z" fill="#FFFFE6"/>
<path d="M235.592 27.4495C237.356 30.0007 239.708 32.5519 242.648 33.4703C243.432 33.7765 244.313 33.8785 245.195 33.8785L245.195 33.7765C241.08 33.8785 237.846 30.715 235.592 27.4495Z" fill="#FFFFE6"/>
<path d="M236.473 26.3267C237.845 27.6533 239.217 28.9799 240.686 30.1024C241.47 30.7147 242.254 31.2249 243.038 31.8372C243.822 32.4495 244.606 33.0618 245.292 33.7761C244.606 33.1638 243.822 32.5515 243.136 31.9393C242.352 31.327 241.568 30.8167 240.784 30.2045C239.315 28.9799 237.943 27.6533 236.473 26.3267C236.571 26.2246 236.473 26.2246 236.473 26.3267Z" fill="#FFFFE6"/>
<path d="M245.685 36.1234C246.713 36.1234 247.547 35.2553 247.547 34.1845C247.547 33.1137 246.713 32.2456 245.685 32.2456C244.657 32.2456 243.823 33.1137 243.823 34.1845C243.823 35.2553 244.657 36.1234 245.685 36.1234Z" fill="#AD1B1E"/>
<path d="M93.2098 32.4507C93.3077 32.3486 93.5037 32.3487 93.4057 32.5527C91.7399 37.0428 92.7198 42.5534 95.7575 46.2271C99.3832 50.8192 105.361 51.6356 110.75 51.5335C116.14 51.3294 121.627 50.2069 127.017 51.3294C129.859 51.9417 132.407 53.2683 134.856 54.799C137.306 56.3297 139.756 57.9625 141.814 60.1055C146.027 64.5956 147.693 70.8204 149.261 76.6371L149.261 76.7392C149.261 76.7392 149.261 76.8412 149.163 76.8412L149.065 76.8412C149.065 76.6371 148.967 76.331 148.869 76.1269C147.497 70.8204 146.027 65.4119 142.5 61.126C140.442 58.6768 137.894 56.84 135.248 55.2072C132.701 53.5745 130.055 52.1458 127.115 51.5335C121.529 50.309 115.944 51.6356 110.26 51.7376C105.067 51.8397 99.4812 51.0233 95.8555 46.8393C92.6218 43.0636 91.4459 37.2469 93.2098 32.4507Z" fill="#627692"/>
<path d="M147.006 69.2896C145.634 67.0445 143.87 65.1057 141.91 63.2688C139.951 61.432 137.305 59.7992 134.659 60.4115C134.365 60.5135 133.973 60.6156 133.777 60.8197C133.287 61.2279 133.189 61.8401 133.189 62.4524C133.189 63.677 133.973 64.9016 134.953 65.6159C135.933 66.3302 137.109 66.7384 138.285 67.1466C141.127 67.963 144.066 68.7794 147.006 69.2896Z" fill="#627692"/>
<path d="M146.909 69.2899C145.929 67.6571 144.655 66.2285 143.283 65.0039C141.814 63.6773 139.952 62.4527 138.09 62.963C137.894 63.065 137.6 63.065 137.404 63.2691C137.11 63.5753 136.914 63.9834 136.914 64.3916C136.914 65.3101 137.502 66.1264 138.188 66.6367C138.874 67.1469 139.756 67.4531 140.54 67.7592C142.695 68.2694 144.851 68.8817 146.909 69.2899Z" fill="#B1C0D9"/>
<path d="M146.908 69.1876C144.85 67.5548 142.89 65.82 140.735 64.1872C138.775 62.6565 136.619 61.3299 134.267 60.6156L134.267 60.5135C136.619 61.2279 138.677 62.5545 140.637 63.9832C142.792 65.718 144.85 67.4528 146.908 69.1876Z" fill="white"/>
<path d="M146.81 69.1874C143.185 67.7587 139.559 66.1259 136.227 63.8809C135.247 63.1666 134.267 62.5543 133.287 61.84L133.287 61.7379C135.443 63.3707 137.795 64.9014 140.245 66.228C142.401 67.3505 144.654 68.2689 146.81 69.1874C146.908 69.1874 146.908 69.1874 146.81 69.1874Z" fill="white"/>
<path d="M135.151 55.002C132.701 54.0836 130.153 53.6754 127.605 53.4713C124.96 53.2672 121.922 53.6754 120.158 55.8184C119.962 56.1245 119.766 56.4307 119.668 56.7368C119.57 57.3491 119.766 57.9614 120.158 58.3696C120.942 59.39 122.216 59.7982 123.392 59.6962C124.568 59.6962 125.743 59.1859 126.919 58.7778C129.663 57.6552 132.505 56.4307 135.151 55.002Z" fill="#627692"/>
<path d="M134.954 55.0018C133.19 54.3895 131.328 54.0834 129.565 53.8793C127.605 53.7772 125.449 53.9813 124.273 55.512C124.077 55.7161 123.979 55.9202 123.881 56.1243C123.783 56.5325 123.979 56.9407 124.175 57.3489C124.763 58.0632 125.645 58.3693 126.527 58.3693C127.409 58.3693 128.193 58.0632 129.075 57.655C131.132 56.9407 133.092 56.0223 134.954 55.0018Z" fill="#B1C0D9"/>
<path d="M134.954 55.0031C132.406 55.0031 129.761 54.901 127.213 55.0031C124.763 55.1051 122.313 55.4112 119.961 56.3297C119.961 56.3297 119.863 56.3297 119.961 56.2276C122.215 55.3092 124.567 55.003 127.017 54.901C129.565 54.901 132.308 54.901 134.954 55.0031Z" fill="white"/>
<path d="M134.857 55.0024C131.133 56.227 127.311 57.2475 123.391 57.5536C122.216 57.6557 121.04 57.7577 119.864 57.7577L119.864 57.6557C122.608 57.5536 125.253 57.3495 127.997 56.7372C130.349 56.3291 132.603 55.7168 134.857 55.0024C134.955 55.0024 134.955 55.0024 134.857 55.0024Z" fill="white"/>
<path d="M116.826 51.33C114.768 51.33 112.612 51.8402 110.554 52.5545C108.398 53.2689 106.243 54.4934 105.557 56.6364C105.459 56.9426 105.361 57.2487 105.459 57.4528C105.557 57.963 105.851 58.3712 106.243 58.5753C107.124 59.0855 108.202 58.9835 109.182 58.5753C110.064 58.1671 110.848 57.4528 111.632 56.7385C113.396 55.1057 115.16 53.2689 116.826 51.33Z" fill="#627692"/>
<path d="M116.728 51.4313C115.258 51.4313 113.69 51.8395 112.22 52.2477C110.652 52.7579 109.084 53.5743 108.595 55.207C108.497 55.4111 108.497 55.6152 108.497 55.8193C108.497 56.1254 108.79 56.4316 109.084 56.6357C109.672 57.0439 110.554 56.9418 111.142 56.6357C111.828 56.3295 112.318 55.8193 112.906 55.3091C114.278 54.0845 115.552 52.7579 116.728 51.4313Z" fill="#B1C0D9"/>
<path d="M116.629 51.4317C114.669 52.2481 112.612 52.9624 110.652 53.7788C108.79 54.5952 106.928 55.6156 105.458 57.0443C106.928 55.6156 108.692 54.6972 110.554 53.8808C112.514 52.9624 114.571 52.146 116.629 51.4317C116.727 51.4317 116.727 51.3297 116.629 51.4317Z" fill="white"/>
<path d="M116.63 51.4313C114.082 53.4722 111.436 55.5132 108.497 56.9418C107.615 57.35 106.733 57.7582 105.851 58.1664C105.851 58.1664 105.753 58.1664 105.851 58.0643C107.909 57.1459 109.967 56.1254 111.828 54.9009C113.494 53.8804 115.062 52.6558 116.63 51.4313Z" fill="white"/>
<path d="M99.1862 49.3906C97.7163 48.4722 96.0505 47.7579 94.3846 47.2476C92.6207 46.7374 90.5629 46.5333 89.093 47.7579C88.995 47.962 88.7991 48.1661 88.7011 48.3702C88.5051 48.7784 88.6031 49.1865 88.7991 49.5947C89.191 50.4111 89.975 50.8193 90.7589 51.0234C91.5428 51.1254 92.4248 51.0234 93.2087 50.9213C95.2665 50.4111 97.2264 50.0029 99.1862 49.3906Z" fill="#627692"/>
<path d="M99.1859 49.3904C98.108 48.676 96.9321 48.2679 95.7562 47.8597C94.4823 47.4515 93.0124 47.3494 91.9345 48.1658C91.8365 48.2679 91.6405 48.3699 91.6405 48.574C91.5425 48.8801 91.5425 49.1863 91.7385 49.3904C92.0325 49.9006 92.6205 50.3088 93.2084 50.4108C93.7964 50.5129 94.3843 50.4108 94.9723 50.3088C96.2462 50.1047 97.716 49.7986 99.1859 49.3904Z" fill="#B1C0D9"/>
<path d="M99.088 49.3906C97.3242 48.9824 95.6583 48.5742 93.8944 48.268C92.2286 47.9619 90.5627 47.8599 88.8969 48.064C90.5627 47.7578 92.1306 47.9619 93.7964 48.166C95.5603 48.5742 97.3242 48.9824 99.088 49.3906C99.186 49.3906 99.088 49.4926 99.088 49.3906Z" fill="white"/>
<path d="M99.0895 49.3904C96.4438 49.5945 93.798 49.7986 91.0542 49.4925C90.2703 49.3904 89.4863 49.2884 88.7024 49.0843C90.5642 49.3904 92.3281 49.5945 94.1899 49.6966C95.8558 49.6966 97.4237 49.4925 99.0895 49.3904Z" fill="white"/>
<path d="M92.9157 40.6135C92.6217 39.2869 92.0337 38.0624 91.3478 36.9399C90.6618 35.7153 89.5839 34.5928 88.31 34.3887C88.1141 34.3887 88.0161 34.3887 87.8201 34.4907C87.5261 34.5928 87.3301 34.8989 87.3301 35.205C87.1341 35.8173 87.3301 36.5317 87.7221 37.0419C88.1141 37.5521 88.604 37.9603 89.094 38.2665C90.2699 39.0828 91.5438 39.8992 92.9157 40.6135Z" fill="#627692"/>
<path d="M92.8174 40.5123C92.6214 39.5939 92.2295 38.7775 91.7395 37.9611C91.2495 37.1447 90.4656 36.2263 89.4857 36.1243C89.3877 36.1243 89.1917 36.1243 89.0937 36.1243C88.9957 36.2263 88.7997 36.4304 88.7997 36.6345C88.7018 37.0427 88.7997 37.5529 89.0937 37.9611C89.3877 38.3693 89.6817 38.5734 90.0736 38.8795C90.9556 39.4918 91.9355 40.0021 92.8174 40.5123Z" fill="#B1C0D9"/>
<path d="M92.8187 40.5115C92.0348 39.389 91.3488 38.2665 90.5649 37.1439C89.781 36.1235 88.997 35.103 87.9191 34.3887C88.899 35.103 89.781 36.0214 90.4669 37.0419C91.3488 38.1644 92.1328 39.389 92.8187 40.5115C92.9167 40.5115 92.8187 40.6135 92.8187 40.5115Z" fill="white"/>
<path d="M92.8179 40.5116C91.25 39.2871 89.7802 37.9605 88.5063 36.3277C88.1143 35.8175 87.7223 35.4093 87.4283 34.899C88.2123 36.0216 89.0942 37.1441 90.1721 38.0625C90.9561 38.9809 91.936 39.6953 92.8179 40.5116Z" fill="white"/>
<path d="M93.1136 41.4299C93.9955 40.5115 94.7794 39.491 95.3674 38.3685C96.0533 37.246 96.5433 35.9194 95.9554 34.7969C95.8574 34.6948 95.7594 34.4907 95.6614 34.4907C95.4654 34.3887 95.1714 34.3887 94.8774 34.3887C94.2895 34.5928 93.7995 35.001 93.6035 35.6132C93.3096 36.1235 93.3096 36.7358 93.2116 37.246C93.2116 38.6747 93.1136 40.1033 93.1136 41.4299Z" fill="#627692"/>
<path d="M93.2115 41.3278C93.8974 40.7155 94.3874 39.8992 94.8774 39.1848C95.3673 38.3685 95.6613 37.348 95.2693 36.6337C95.1713 36.5316 95.1713 36.4296 95.0733 36.3275C94.8774 36.2255 94.6814 36.2255 94.4854 36.3275C94.0934 36.4296 93.7014 36.8378 93.6035 37.1439C93.4075 37.5521 93.4075 37.9603 93.3095 38.3685C93.2115 39.3889 93.1135 40.4094 93.2115 41.3278Z" fill="#B1C0D9"/>
<path d="M93.2108 41.3284C93.7988 40.2059 94.3868 39.0833 94.8767 37.9608C95.3667 36.8383 95.7586 35.7158 95.8566 34.5933C95.7586 35.7158 95.3667 36.8383 94.8767 37.8588C94.3868 39.0833 93.7988 40.2059 93.2108 41.3284C93.2108 41.4304 93.1129 41.3284 93.2108 41.3284Z" fill="white"/>
<path d="M93.2118 41.3279C93.5058 39.491 93.8977 37.7562 94.5837 35.9194C94.7797 35.4091 94.9756 34.8989 95.2696 34.3887C94.6817 35.6132 94.2897 36.8378 93.8977 38.0624C93.6038 39.0828 93.4078 40.2054 93.2118 41.3279Z" fill="white"/>
<path d="M100.951 50.3082C100.951 48.4714 100.657 46.6345 100.265 44.8997C99.7749 43.0629 98.8929 41.124 97.2271 40.4097C97.0311 40.3076 96.8351 40.3076 96.5411 40.3076C96.1492 40.3076 95.8552 40.6138 95.5612 41.0219C95.0712 41.7363 95.1692 42.7567 95.3652 43.4711C95.6592 44.2875 96.1492 45.0018 96.7371 45.6141C98.109 47.2468 99.4809 48.8796 100.951 50.3082Z" fill="#627692"/>
<path d="M100.951 50.2062C100.951 48.8796 100.755 47.5529 100.461 46.3284C100.167 45.0018 99.4808 43.5731 98.3049 43.0629C98.1089 42.9608 98.0109 42.9608 97.8149 42.9608C97.521 42.9608 97.325 43.1649 97.129 43.4711C96.835 43.9813 96.835 44.6956 97.031 45.3079C97.227 45.9202 97.6189 46.4304 98.0109 46.8386C98.8928 48.0632 99.8728 49.1857 100.951 50.2062Z" fill="#B1C0D9"/>
<path d="M100.951 50.2059C100.363 48.4711 99.8734 46.6342 99.2855 45.0015C98.6975 43.3687 98.0116 41.736 96.9337 40.4094C98.0116 41.736 98.6975 43.2667 99.2855 44.8994C99.8734 46.6342 100.363 48.369 100.951 50.2059Z" fill="white"/>
<path d="M100.854 50.2061C99.2856 47.961 97.8158 45.614 96.8358 43.0628C96.5419 42.2464 96.2479 41.5321 95.9539 40.7157C96.6399 42.5525 97.3258 44.2873 98.2077 46.0221C99.0897 47.3488 99.9716 48.7774 100.854 50.2061C100.952 50.2061 100.952 50.2061 100.854 50.2061Z" fill="white"/>
<path d="M146.127 67.044C147.205 64.5948 147.891 62.0437 148.283 59.3904C148.773 56.6352 148.675 53.4717 146.813 51.4308C146.617 51.2267 146.323 50.9205 146.029 50.8185C145.441 50.6144 144.853 50.8185 144.363 51.1246C143.383 51.839 142.795 53.1656 142.697 54.3901C142.599 55.6147 142.893 56.9413 143.285 58.1659C144.069 61.1252 145.049 64.0846 146.127 67.044Z" fill="#627692"/>
<path d="M146.126 66.8402C146.91 65.1054 147.4 63.1665 147.694 61.3296C147.987 59.3907 147.987 57.0436 146.616 55.615C146.42 55.4109 146.224 55.3088 146.028 55.2068C145.636 55.1047 145.244 55.2068 144.852 55.4109C144.166 55.9211 143.774 56.8395 143.676 57.758C143.578 58.6764 143.872 59.5948 144.068 60.4112C144.656 62.6562 145.342 64.7992 146.126 66.8402Z" fill="#B1C0D9"/>
<path d="M146.126 66.8396C146.42 64.1864 146.714 61.4311 146.91 58.7779C147.106 56.2267 147.008 53.5735 146.322 51.1243C146.322 51.1243 146.42 51.0223 146.42 51.1243C147.106 53.5735 147.106 56.0226 147.008 58.5738C146.812 61.3291 146.42 64.0843 146.126 66.8396Z" fill="white"/>
<path d="M146.126 66.7386C145.342 62.7587 144.754 58.6768 144.754 54.595C144.754 53.3704 144.852 52.1458 144.852 50.9213L144.95 50.9213C144.754 53.7786 144.754 56.5339 145.048 59.3912C145.244 61.9424 145.734 64.2894 146.126 66.7386C146.224 66.8406 146.126 66.8406 146.126 66.7386Z" fill="white"/>
<path d="M136.032 55.411C135.248 52.8598 133.974 50.5127 132.603 48.2677C131.133 45.9206 128.977 43.6755 126.331 43.5735C126.037 43.5735 125.645 43.5735 125.351 43.7776C124.861 43.9817 124.469 44.594 124.371 45.2062C124.077 46.4308 124.567 47.7574 125.351 48.7779C126.135 49.7984 127.213 50.4106 128.193 51.125C130.643 52.5536 133.289 54.0843 136.032 55.411Z" fill="#627692"/>
<path d="M135.935 55.3094C135.347 53.4725 134.465 51.7377 133.485 50.207C132.407 48.5743 130.839 46.9415 128.978 46.8395C128.782 46.8395 128.488 46.8395 128.292 46.9415C127.9 47.1456 127.704 47.5538 127.606 47.962C127.41 48.8804 127.704 49.7988 128.292 50.5132C128.88 51.2275 129.565 51.7377 130.349 52.1459C132.015 53.2684 133.975 54.391 135.935 55.3094Z" fill="#B1C0D9"/>
<path d="M135.837 55.3089C134.27 53.1659 132.8 50.9209 131.134 48.8799C129.566 46.941 127.802 45.0021 125.744 43.6755L125.744 43.5735C127.802 44.9001 129.468 46.6349 131.036 48.5738C132.702 50.8188 134.27 53.0639 135.837 55.3089Z" fill="white"/>
<path d="M135.837 55.3096C132.604 52.9625 129.566 50.4114 126.92 47.3499C126.136 46.4315 125.352 45.5131 124.568 44.5947C124.568 44.5947 124.568 44.4926 124.666 44.5947C126.43 46.7377 128.194 48.8807 130.252 50.7175C132.016 52.3503 133.877 53.7789 135.837 55.3096Z" fill="white"/>
<path d="M116.338 51.3297C114.966 49.5948 113.3 48.0641 111.536 46.6355C109.674 45.2068 107.322 44.0843 105.167 44.7986C104.873 44.9007 104.579 45.0027 104.383 45.2068C103.991 45.615 103.893 46.1252 103.991 46.6355C104.089 47.758 104.873 48.5744 105.754 49.1867C106.636 49.7989 107.714 50.003 108.694 50.2071C111.242 50.7174 113.79 51.1256 116.338 51.3297Z" fill="#627692"/>
<path d="M116.239 51.3294C115.259 50.0028 114.083 48.9823 112.809 47.9618C111.437 46.9414 109.772 46.125 108.204 46.6352C108.008 46.7373 107.812 46.8393 107.714 46.9414C107.42 47.2475 107.42 47.5536 107.42 47.9618C107.518 48.7782 108.008 49.3905 108.694 49.7987C109.38 50.2069 110.066 50.3089 110.849 50.513C112.613 50.9212 114.377 51.2273 116.239 51.3294Z" fill="#B1C0D9"/>
<path d="M116.14 51.3299C114.278 50.1053 112.416 48.7787 110.554 47.6562C108.693 46.5336 106.831 45.6152 104.773 45.207L104.773 45.105C106.831 45.5132 108.693 46.4316 110.456 47.4521C112.416 48.6766 114.278 50.0032 116.14 51.3299C116.238 51.3299 116.238 51.3299 116.14 51.3299Z" fill="white"/>
<path d="M116.141 51.3298C112.907 50.4114 109.673 49.3909 106.733 47.7582C105.851 47.248 104.97 46.7377 104.088 46.2275C106.047 47.452 108.203 48.5746 110.359 49.3909C112.221 50.1053 114.181 50.7176 116.141 51.3298Z" fill="white"/>
<path d="M93.2099 31.9413C93.5039 31.329 93.6019 30.6147 93.6019 30.0024C93.9938 25.7164 92.524 21.2263 89.6822 18.0629C89.5842 17.9608 89.4862 17.8588 89.3882 17.8588C89.1922 17.8588 89.1922 18.0629 89.1922 18.267C88.8003 21.6345 89.2902 25.1041 90.5641 28.1655C91.1521 29.4921 91.936 30.8188 93.0139 31.6351" fill="#AD1B1E"/>
<path d="M93.5031 32.0433C93.5031 31.3289 93.6011 30.7167 93.6991 30.1044C94.679 25.9204 97.4228 22.1447 101.146 20.2058C101.244 20.1038 101.342 20.1038 101.44 20.1038C101.636 20.2058 101.538 20.4099 101.538 20.614C100.853 23.8795 99.2846 27.043 97.1288 29.4921C96.1489 30.5126 95.071 31.533 93.6991 31.9412" fill="#AD1B1E"/>
<path d="M94.092 32.145C95.5618 32.4512 97.1297 31.9409 98.5996 31.3287C99.3835 31.0225 100.167 30.7164 100.951 30.1041C101.735 29.4918 102.323 28.7775 102.813 27.8591C103.107 27.3488 103.401 26.8386 103.499 26.2263C103.597 25.614 103.499 25.0017 103.107 24.5936C102.617 23.9813 101.735 23.8792 100.951 24.0833C100.167 24.2874 99.5795 24.8997 98.9916 25.4099C97.1297 27.1447 95.3659 29.0836 94.092 31.4307C93.994 31.7369 93.798 32.043 94.092 32.2471" fill="#E92438"/>
<path d="M93.5028 32.1451C94.8747 31.2267 95.8546 29.9 96.5405 28.3693C97.2265 26.8386 97.5205 25.2059 97.7164 23.5731C97.8144 22.3486 97.8144 21.0219 97.3245 19.8994C96.7365 18.7769 95.5606 17.9605 94.3847 18.3687C93.5028 18.6749 92.9148 19.4912 92.6209 20.4097C92.2289 21.5322 92.0329 22.7567 92.0329 23.8793C91.9349 26.0223 92.1309 28.1652 92.5229 30.2062C92.5229 31.0226 92.8168 31.941 93.5028 32.1451Z" fill="#E92438"/>
<path d="M93.2087 32.0427C92.8168 30.3079 92.4248 28.5731 91.8369 26.9403C91.2489 25.3076 90.367 23.6748 89.0931 22.4502C88.5051 21.838 87.6232 21.3277 86.8393 21.6339C86.1533 21.94 85.9573 22.8584 85.9573 23.6748C85.9573 25.3076 86.7413 26.8383 87.7212 28.0628C88.7011 29.2874 89.975 30.3079 91.1509 31.3283C91.4449 31.5324 91.7389 31.8386 92.0328 31.9406C92.3268 32.0427 92.8168 32.0427 93.0128 31.8386" fill="#E92438"/>
<path d="M92.9148 31.8392C92.3268 30.0023 91.2489 28.3696 90.269 26.7368C89.1911 25.002 88.1132 23.2672 87.0353 21.6345C88.2112 23.2672 89.2891 25.1041 90.367 26.8389C91.3469 28.3696 92.3268 30.0023 92.9148 31.8392Z" fill="#FFFFE6"/>
<path d="M92.915 31.7372C92.817 31.8393 92.621 31.6352 92.523 31.5331C92.229 31.329 91.9351 31.0229 91.6411 30.7167C91.1511 30.2065 90.6612 29.5942 90.1712 28.9819C89.1913 27.6553 88.3094 26.2267 87.4274 24.798C86.9375 23.9816 86.5455 23.1653 86.0555 22.3489C86.0555 22.3489 86.0555 22.3489 86.1535 22.3489C87.0355 24.1857 88.0154 25.9205 89.0933 27.5533C89.5833 28.3697 90.1712 29.084 90.6612 29.7983C90.9551 30.2065 91.2491 30.5127 91.6411 30.8188C91.8371 30.9208 92.817 31.8393 92.915 31.7372Z" fill="#FFFFE6"/>
<path d="M93.6006 31.6352C93.8945 31.3291 93.9925 30.9209 94.1885 30.5127C94.3845 30.1045 94.4825 29.6963 94.6785 29.2881C94.9724 28.4718 95.2664 27.5533 95.4624 26.737C95.8544 25.0022 96.1483 23.2674 96.1483 21.4305C96.1483 20.5121 96.2463 19.3896 95.9524 18.5732C95.9524 18.5732 95.9524 18.4711 96.0504 18.5732C96.3443 19.3896 96.2463 20.2059 96.2463 21.0223C96.2463 21.9407 96.1483 22.8592 96.0504 23.6755C95.8544 25.5124 95.4624 27.2472 94.8745 28.8799C94.6785 29.3902 94.5805 29.9004 94.3845 30.3086C94.0905 30.8188 93.8945 31.3291 93.6006 31.6352Z" fill="#FFFFE6"/>
<path d="M94.5811 18.3688C94.2871 19.1851 94.0912 20.1036 93.9932 21.022C93.7972 21.8384 93.6992 22.7568 93.6012 23.5732C93.4052 25.308 93.2092 27.1448 93.3072 28.9817C93.3072 30.0021 93.4052 31.0226 93.5032 32.0431C93.5032 32.0431 93.5032 32.0431 93.4052 32.0431C93.0133 28.4714 93.3072 24.7977 93.8952 21.2261C94.0912 20.2056 94.1892 19.1851 94.5811 18.3688C94.6791 18.2667 94.5811 18.2667 94.5811 18.3688Z" fill="#FFFFE6"/>
<path d="M103.401 25.4096C101.637 27.9608 99.2852 30.512 96.3455 31.4304C95.5615 31.7365 94.6796 31.8386 93.7977 31.8386L93.7977 31.7365C97.9133 31.8386 101.147 28.6751 103.401 25.4096Z" fill="#FFFFE6"/>
<path d="M102.518 24.2877C101.146 25.6143 99.7743 26.9409 98.3044 28.0635C97.5204 28.6757 96.7365 29.186 95.9526 29.7983C95.1686 30.4105 94.3847 31.0228 93.6988 31.7372C94.3847 31.1249 95.1686 30.5126 95.8546 29.9003C96.6385 29.288 97.4225 28.7778 98.2064 28.1655C99.6763 26.9409 101.048 25.6143 102.518 24.2877C102.518 24.1857 102.42 24.1857 102.518 24.2877Z" fill="#FFFFE6"/>
<path d="M93.3071 34.0836C94.3354 34.0836 95.1689 33.2155 95.1689 32.1447C95.1689 31.0739 94.3354 30.2058 93.3071 30.2058C92.2788 30.2058 91.4453 31.0739 91.4453 32.1447C91.4453 33.2155 92.2788 34.0836 93.3071 34.0836Z" fill="#AD1B1E"/>
<path d="M169.351 47.451C163.178 46.4305 157.298 43.3691 152.791 38.879C151.027 37.0421 149.361 35.0012 148.577 32.5521C147.695 30.0009 147.695 27.1436 148.087 24.3883C148.283 22.9596 148.675 21.531 149.361 20.3064C151.419 17.0409 156.024 16.5307 159.356 18.2655C162.688 20.1023 164.746 23.5719 166.117 27.2456C168.567 33.7766 169.057 40.8179 169.449 47.7571" fill="#E92438"/>
<path d="M169.45 47.8589C165.922 42.3483 163.472 36.0214 162.395 29.4904C161.807 26.0208 161.611 22.4491 162.884 19.1836C164.158 15.9181 167.098 13.2649 170.43 13.2649C173.958 13.3669 176.995 16.5304 177.975 20.1021C178.955 23.6737 178.465 27.4494 177.681 31.1231C176.309 37.246 174.154 43.5729 169.548 47.7568" fill="#E92438"/>
<path d="M169.645 47.9611C169.645 44.5936 170.429 41.226 171.115 37.9605C172.487 31.6336 174.153 25.0005 178.759 20.6125C179.935 19.49 181.208 18.5715 182.678 18.1633C185.814 17.347 189.146 19.2859 190.812 22.1432C192.38 25.0005 192.38 28.6742 191.204 31.8377C190.028 35.0011 187.97 37.5523 185.618 39.8994C181.111 44.1854 175.329 47.3488 169.253 47.655" fill="#E92438"/>
<path d="M169.94 47.8593C163.08 50.7166 155.045 50.6146 148.283 47.4511C145.442 46.1245 142.698 44.1856 141.62 41.2263C140.052 37.1444 142.502 32.1441 146.323 30.2052C150.145 28.2663 154.849 28.9806 158.474 31.1236C162.1 33.2666 164.942 36.8382 167.294 40.5119C168.568 42.5529 169.744 44.9 169.646 47.3491" fill="#E92438"/>
<path d="M169.645 47.7571C169.939 45.7162 171.311 43.9814 172.585 42.3486C174.055 40.7158 175.525 39.0831 177.093 37.5524C179.542 35.1033 182.09 32.8582 185.226 31.4296C188.264 30.0009 191.889 29.4907 195.025 30.7152C198.161 31.9398 200.709 35.0012 200.807 38.4708C200.807 40.1036 200.317 41.7363 199.631 43.267C197.769 47.0428 194.241 50.0021 190.223 51.1247C186.206 52.2472 181.992 51.5328 177.974 50.3083C175.329 49.4919 172.781 48.4714 170.233 47.1448" fill="#E92438"/>
<path d="M184.737 36.9399C184.051 36.7358 183.463 36.5317 182.777 36.5317C183.169 34.899 182.973 33.1642 182.189 31.7355C181.209 30.0007 179.151 28.7762 177.289 29.2864C176.407 29.4905 175.525 30.1028 174.839 30.7151C174.741 30.8171 174.644 30.9191 174.546 31.0212C174.546 30.8171 174.448 30.613 174.35 30.4089C173.762 28.2659 171.9 26.327 169.744 26.225C167.686 26.225 165.922 27.8577 165.138 29.7966C165.04 30.1028 164.942 30.4089 164.844 30.7151C164.354 30.1028 163.668 29.5925 162.982 29.2864C161.023 28.1639 158.083 28.5721 156.907 30.511C156.417 31.2253 156.221 32.1437 156.123 32.9601C155.927 33.9806 155.927 35.1031 156.025 36.1236C155.633 36.2256 155.339 36.3276 155.045 36.5317C152.693 37.7563 151.223 40.7157 152.203 43.2669C152.889 45.1037 154.555 46.2262 156.221 47.0426C160.337 48.9815 165.236 48.9815 169.45 47.2467L169.352 47.1446C169.548 47.1446 169.842 47.0426 170.038 47.0426C171.41 47.7569 172.782 48.2672 174.252 48.7774C176.701 49.4917 179.249 49.8999 181.699 49.2876C184.149 48.5733 186.305 46.8385 187.382 44.4914C187.872 43.573 188.166 42.5525 188.166 41.6341C188.166 39.4911 186.599 37.6543 184.737 36.9399Z" fill="#AD1B1E"/>
<path d="M169.94 47.5532C171.606 41.9406 173.762 36.43 176.309 31.1236C178.661 26.3274 181.699 21.8373 185.815 18.5718C186.011 18.4698 185.815 18.1636 185.717 18.2657C181.601 21.4291 178.661 25.8171 176.309 30.5113C173.566 35.9198 171.41 41.6345 169.646 47.4511C169.548 47.6552 169.842 47.6552 169.94 47.5532Z" fill="black"/>
<path d="M171.212 47.5529C173.368 42.6546 176.994 38.5727 179.934 34.1847C183.069 29.5926 185.911 24.6943 188.361 19.592C188.459 19.3879 188.165 19.2858 188.067 19.4899C185.617 24.4902 182.775 29.3885 179.64 34.0827C176.7 38.4707 173.074 42.5526 170.918 47.4508C170.918 47.5529 171.212 47.757 171.212 47.5529Z" fill="black"/>
<path d="M170.234 47.4511C174.35 43.4712 178.465 39.6955 182.483 35.6136C186.109 31.9399 188.656 27.4498 191.204 22.9598C191.302 22.7557 191.008 22.6536 190.91 22.8577C188.362 27.5519 185.717 32.144 181.895 35.9197C177.975 39.7975 174.056 43.5733 170.038 47.349C169.842 47.4511 170.038 47.6552 170.234 47.4511Z" fill="black"/>
<path d="M171.704 47.2465C180.131 41.2257 188.558 35.6131 198.848 33.9803C199.044 33.9803 198.946 33.6742 198.75 33.6742C188.46 35.3069 179.935 40.9195 171.508 46.9403C171.41 47.0424 171.606 47.3485 171.704 47.2465Z" fill="black"/>
<path d="M171.117 48.0627C181.406 46.1238 190.813 41.1235 200.416 37.0416C200.612 36.9396 200.514 36.6335 200.318 36.7355C190.715 40.8174 181.406 45.8177 171.117 47.7566C170.921 47.7566 171.019 48.0627 171.117 48.0627Z" fill="black"/>
<path d="M171.214 47.2469C176.212 46.9408 181.307 46.9408 186.305 46.2264C191.009 45.5121 195.516 43.8794 199.926 42.1446C200.122 42.0425 200.024 41.7364 199.828 41.8384C195.222 43.5732 190.617 45.308 185.717 45.9203C180.916 46.6346 176.016 46.7367 171.214 46.9408C171.018 46.9408 171.018 47.2469 171.214 47.2469Z" fill="black"/>
<path d="M169.744 47.1448C168.47 44.6957 168.176 42.0425 167.784 39.3892C167.392 36.8381 166.706 34.3889 166.314 31.8378C165.334 26.1231 165.922 20.3064 166.51 14.5918C166.51 14.3877 166.216 14.3877 166.216 14.5918C165.628 20.3064 165.04 26.2252 166.02 31.9398C166.51 34.593 167.196 37.2463 167.588 40.0015C167.98 42.5527 168.274 45.0018 169.45 47.3489C169.548 47.451 169.842 47.3489 169.744 47.1448Z" fill="black"/>
<path d="M169.449 46.9403C169.743 35.6131 170.233 24.3879 170.821 13.0607C170.821 12.8566 170.527 12.8566 170.527 13.0607C169.939 24.3879 169.547 35.6131 169.155 46.9403C169.155 47.1444 169.449 47.1444 169.449 46.9403Z" fill="black"/>
<path d="M175.72 15.6125C176.406 21.2251 175.23 26.9398 173.956 32.3483C172.683 37.5527 171.115 42.655 169.057 47.5533C168.959 47.7574 169.253 47.8594 169.351 47.6554C171.409 42.553 173.075 37.2465 174.348 31.9401C175.622 26.6336 176.7 21.1231 176.014 15.6125C176.014 15.4084 175.72 15.4084 175.72 15.6125Z" fill="black"/>
<path d="M169.645 46.9404C168.078 46.6342 166.804 45.4097 165.628 44.3892C164.648 43.5728 163.668 42.6544 162.688 41.838C160.826 40.1032 159.062 38.2664 157.494 36.3275C154.065 32.2456 151.125 27.8575 148.675 23.0613C148.577 22.8572 148.381 23.0613 148.381 23.1634C150.831 28.0616 153.967 32.7558 157.494 36.8377C159.258 38.9807 161.218 40.9196 163.276 42.7564C164.942 44.2871 167.196 46.7363 169.449 47.1445C169.743 47.2465 169.841 46.9404 169.645 46.9404Z" fill="black"/>
<path d="M169.841 46.6342C166.215 42.042 162.982 37.1438 160.14 31.9394C158.866 29.5923 157.788 26.9391 156.22 24.694C154.75 22.551 152.888 20.6121 151.713 18.163C151.615 17.9589 151.419 18.163 151.419 18.2651C152.594 20.7142 154.358 22.551 155.926 24.7961C157.592 27.1432 158.67 29.8984 160.14 32.4496C162.884 37.4499 166.117 42.2461 169.645 46.7362C169.841 47.0424 170.037 46.8383 169.841 46.6342Z" fill="black"/>
<path d="M157.396 17.8578C160.728 22.1438 162.982 27.6543 164.843 32.7567C166.705 37.757 168.273 42.8593 169.351 48.1658C169.351 48.3699 169.645 48.2678 169.645 48.0637C168.469 42.4511 166.803 36.9406 164.745 31.6341C162.884 26.8379 160.728 21.6335 157.592 17.5516C157.494 17.5516 157.298 17.7557 157.396 17.8578Z" fill="black"/>
<path d="M144.462 31.7352C153.772 34.7966 162.003 40.7154 167.98 48.7771C168.078 48.9812 168.274 48.675 168.176 48.573C162.199 40.5113 153.869 34.4905 144.462 31.4291C144.364 31.4291 144.266 31.7352 144.462 31.7352Z" fill="black"/>
<path d="M141.619 36.9403C150.929 40.1038 160.042 43.5734 169.155 47.2471C169.351 47.3491 169.449 47.043 169.253 46.9409C160.238 43.1652 151.027 39.6956 141.717 36.6342C141.521 36.5321 141.521 36.8383 141.619 36.9403Z" fill="black"/>
<path d="M141.816 41.6343C150.733 44.5936 159.748 47.9612 169.253 47.8591C169.449 47.8591 169.449 47.553 169.253 47.553C159.846 47.655 150.733 44.2875 141.914 41.3281C141.718 41.3281 141.62 41.5322 141.816 41.6343Z" fill="black"/>
<path d="M169.548 66.1253C167.196 65.3089 164.942 63.37 163.276 61.3291C161.708 59.3902 160.532 57.1452 159.748 54.7981C159.16 53.1653 158.866 51.5326 159.062 49.7978C159.454 46.5323 162.002 43.879 164.942 42.7565C167.882 41.634 171.213 41.8381 174.251 42.6545C176.015 43.0627 177.877 43.879 178.759 45.5118C179.445 46.7364 179.445 48.2671 179.347 49.6957C178.759 56.4308 175.525 63.37 169.548 66.1253Z" fill="#627692"/>
<path d="M169.547 65.8187C164.941 59.6959 162.002 52.0423 162.59 44.1847C162.59 43.9806 162.296 43.9806 162.296 44.1847C161.708 52.1444 164.647 59.7979 169.351 66.0228C169.449 66.2269 169.645 66.0228 169.547 65.8187Z" fill="black"/>
<path d="M169.547 65.7173C169.449 57.5535 169.547 49.4918 169.645 41.328C169.645 41.1239 169.351 41.1239 169.351 41.328C169.253 49.4918 169.155 57.5535 169.253 65.7173C169.253 65.9214 169.547 65.9214 169.547 65.7173Z" fill="black"/>
<path d="M169.646 66.1252C173.664 59.4921 175.33 51.1242 176.114 43.4707C176.114 43.2666 175.82 43.2666 175.82 43.4707C175.036 51.1242 173.468 59.3901 169.45 66.0231C169.254 66.2272 169.548 66.3293 169.646 66.1252Z" fill="black"/>
<path d="M131.134 26.8385C132.108 26.8385 132.898 26.0161 132.898 25.0016C132.898 23.9872 132.108 23.1648 131.134 23.1648C130.16 23.1648 129.37 23.9872 129.37 25.0016C129.37 26.0161 130.16 26.8385 131.134 26.8385Z" fill="#FFFFE6"/>
<path d="M141.619 12.2458C142.593 12.2458 143.383 11.4235 143.383 10.409C143.383 9.39453 142.593 8.57214 141.619 8.57214C140.645 8.57214 139.855 9.39453 139.855 10.409C139.855 11.4235 140.645 12.2458 141.619 12.2458Z" fill="#FFFFE6"/>
<path d="M156.416 5.51061C157.39 5.51061 158.179 4.68823 158.179 3.67376C158.179 2.6593 157.39 1.83691 156.416 1.83691C155.441 1.83691 154.652 2.6593 154.652 3.67376C154.652 4.68823 155.441 5.51061 156.416 5.51061Z" fill="#FFFFE6"/>
<path d="M172.487 3.6737C173.461 3.6737 174.251 2.85131 174.251 1.83685C174.251 0.822385 173.461 8.28772e-09 172.487 5.33905e-09C171.513 2.39038e-09 170.723 0.822385 170.723 1.83685C170.723 2.85131 171.513 3.6737 172.487 3.6737Z" fill="#FFFFE6"/>
<path d="M188.362 6.93944C189.336 6.93944 190.126 6.11706 190.126 5.1026C190.126 4.08813 189.336 3.26575 188.362 3.26575C187.388 3.26575 186.598 4.08813 186.598 5.1026C186.598 6.11706 187.388 6.93944 188.362 6.93944Z" fill="#FFFFE6"/>
<path d="M202.57 15.0011C203.544 15.0011 204.334 14.1787 204.334 13.1642C204.334 12.1498 203.544 11.3274 202.57 11.3274C201.596 11.3274 200.806 12.1498 200.806 13.1642C200.806 14.1787 201.596 15.0011 202.57 15.0011Z" fill="#FFFFE6"/>
<path d="M212.076 30.512C213.05 30.512 213.84 29.6896 213.84 28.6751C213.84 27.6606 213.05 26.8383 212.076 26.8383C211.102 26.8383 210.312 27.6606 210.312 28.6751C210.312 29.6896 211.102 30.512 212.076 30.512Z" fill="#FFFFE6"/>
</g>
<g clip-path="url(#clip2_10604_17589)">
<path d="M316.989 44.9316C317.016 45.1263 316.847 45.3471 316.71 45.0682C313.164 39.4 306.462 36.0381 299.763 36.3425C291.675 36.6352 285.659 42.6946 281.144 48.8501C276.739 55.0899 273.246 62.1983 267.514 67.427C264.411 70.1226 260.787 71.8973 257.025 73.393C253.264 74.8888 249.392 76.3003 245.303 76.849C236.821 77.8882 228.646 74.625 220.997 71.5884L220.886 71.5042C220.886 71.5042 220.776 71.4199 220.86 71.3095L220.944 71.1992C221.165 71.3677 221.581 71.5101 221.886 71.5682C228.814 74.4042 235.936 77.2141 243.609 76.7791C248.029 76.4832 252.206 75.1298 256.247 73.4975C260.203 71.9756 264.022 70.1748 267.209 67.3688C273.219 62.0037 276.686 54.7006 281.454 48.2139C285.801 42.2792 291.48 36.6613 299.126 36.0316C305.993 35.5064 313.195 38.9003 316.989 44.9316Z" fill="#627692"/>
<path d="M230.894 75.1156C234.504 75.4239 238.119 75.0379 241.792 74.3468C245.465 73.6557 249.505 72.0234 251.112 68.5375C251.254 68.1221 251.48 67.5963 251.427 67.207C251.405 66.318 250.826 65.7021 250.162 65.1965C248.835 64.1854 246.836 64.0574 245.22 64.5714C243.605 65.0855 242.154 66.0731 240.702 67.0607C237.378 69.5878 233.97 72.2253 230.894 75.1156Z" fill="#627692"/>
<path d="M230.978 75.0051C233.589 75.2494 236.23 74.994 238.735 74.4597C241.434 73.8993 244.359 72.8131 245.404 70.2944C245.462 69.9894 245.714 69.6582 245.661 69.2689C245.582 68.685 245.308 68.1272 244.865 67.7902C243.87 67.0318 242.481 67.0201 241.339 67.3715C240.113 67.8333 239.025 68.574 238.131 69.2886C235.59 71.0169 233.187 73.0241 230.978 75.0051Z" fill="#B1C0D9"/>
<path d="M230.978 75.0051C234.514 74.0352 238.076 73.2598 241.696 72.1795C245.037 71.2356 248.325 69.9025 251.117 67.8431L251.228 67.9273C248.435 69.9868 245.231 71.2095 242.001 72.2376C238.381 73.318 234.735 74.2037 230.978 75.0051Z" fill="white"/>
<path d="M231.062 74.8955C235.722 71.9908 240.603 69.2547 245.896 67.3553C247.511 66.8412 249.015 66.2429 250.631 65.7288L250.741 65.8131C247.122 66.8935 243.444 68.2788 239.904 69.9431C236.948 71.529 234.018 73.3096 231.062 74.8955C231.088 75.0901 230.978 75.0059 231.062 74.8955Z" fill="white"/>
<path d="M256.551 73.5557C259.649 71.5544 262.278 69.0214 264.686 66.3198C267.178 63.5079 269.343 59.749 268.535 55.9926C268.371 55.519 268.208 55.0455 267.96 54.6823C267.381 54.0664 266.549 53.7816 265.77 53.8861C263.992 53.9266 262.456 55.0246 261.557 56.4335C260.548 57.7581 260.091 59.504 259.524 61.1657C258.275 65.0991 257.274 69.3956 256.551 73.5557Z" fill="#627692"/>
<path d="M256.721 73.3352C258.898 71.8538 260.828 70.0093 262.563 68.1908C264.356 66.0674 265.985 63.4704 265.335 60.8819C265.282 60.4926 265.145 60.2137 265.008 59.9348C264.65 59.4874 264.04 59.3711 263.429 59.2548C262.15 59.3273 261.062 60.068 260.305 61.0615C259.548 62.055 259.207 63.1908 258.892 64.5213C257.9 67.4293 257.102 70.311 256.721 73.3352Z" fill="#B1C0D9"/>
<path d="M256.609 73.2506C258.796 70.3806 261.177 67.4844 263.254 64.5302C265.246 61.6862 267.017 58.6738 268.04 55.2662C268.04 55.2662 268.124 55.1559 268.151 55.3505C267.211 58.6477 265.525 61.5497 263.532 64.3936C261.456 67.3479 258.991 70.3545 256.609 73.2506Z" fill="white"/>
<path d="M256.693 73.1402C258.562 67.9344 260.737 62.7868 263.769 58.1186C264.668 56.7097 265.567 55.3008 266.576 53.9762L266.687 54.0604C264.442 57.2355 262.393 60.3844 260.701 63.9808C259.125 66.9671 257.964 70.0958 256.693 73.1402C256.72 73.3348 256.609 73.2506 256.693 73.1402Z" fill="white"/>
<path d="M276.149 55.8627C277.915 53.5446 279.213 50.6948 280.205 47.7869C281.281 44.7686 281.805 41.329 280.071 38.7869C279.824 38.4237 279.576 38.0605 279.271 38.0024C278.634 37.6915 277.939 37.6856 277.381 37.9587C276.071 38.5308 275.257 39.8293 274.858 41.2702C274.543 42.6007 274.645 44.0736 274.746 45.5465C275.112 48.9659 275.588 52.4695 276.149 55.8627Z" fill="#627692"/>
<path d="M276.234 55.7519C277.496 54.0961 278.399 51.9929 279.218 50.0001C280.011 47.8126 280.472 45.3724 279.124 43.4723C278.987 43.1934 278.765 43.0249 278.544 42.8564C278.212 42.6036 277.628 42.682 277.155 42.8446C276.208 43.1699 275.561 44.2476 275.389 45.1627C275.132 46.1882 275.264 47.1614 275.312 48.245C275.351 50.7173 275.695 53.2477 276.234 55.7519Z" fill="#B1C0D9"/>
<path d="M276.208 55.5573C277.006 52.6755 277.998 49.7676 278.795 46.8858C279.509 44.1144 280.001 41.1745 279.715 38.3391C280.001 41.1745 279.482 43.9198 278.769 46.6912C278.193 49.7415 277.2 52.6494 276.208 55.5573C276.235 55.7519 276.235 55.7519 276.208 55.5573Z" fill="white"/>
<path d="M276.207 55.5578C276.183 51.0026 276.242 46.337 277.217 41.8458C277.532 40.5153 277.846 39.1848 278.161 37.8543C278.161 37.8543 278.245 37.7439 278.271 37.9385C277.5 41.0149 276.84 44.1756 276.569 47.2841C276.245 50.0032 276.226 52.7805 276.207 55.5578C276.318 55.642 276.318 55.642 276.207 55.5578Z" fill="white"/>
<path d="M293.389 37.5947C295.646 36.6972 297.85 35.4105 299.833 33.9552C301.9 32.3895 303.887 30.24 303.822 27.5731C303.88 27.268 303.827 26.8787 303.69 26.5998C303.415 26.042 302.889 25.8154 302.278 25.6991C301.057 25.4666 299.942 26.0127 299.048 26.7272C298.265 27.5261 297.618 28.6038 297.056 29.5711C295.648 32.3367 294.519 34.9657 293.389 37.5947Z" fill="#627692"/>
<path d="M293.474 37.4841C295.173 36.8596 296.625 35.872 298.076 34.8844C299.612 33.7864 300.984 32.2149 301.025 30.3266C300.998 30.132 301.056 29.8269 300.835 29.6584C300.587 29.2952 300.255 29.0425 299.866 29.0947C299.061 29.0046 298.114 29.3299 297.498 29.9079C296.883 30.486 296.489 31.2326 296.095 31.9791C295.139 33.6931 294.209 35.6016 293.474 37.4841Z" fill="#B1C0D9"/>
<path d="M293.475 37.4843C295.431 35.8344 297.304 34.2948 299.149 32.5607C300.911 30.9369 302.451 29.1446 303.66 27.0995C302.562 29.2288 300.995 30.8265 299.344 32.5345C297.498 34.2687 295.542 35.9186 293.475 37.4843Z" fill="white"/>
<path d="M293.475 37.4843C295.525 34.3354 297.575 31.1865 300.261 28.3484C301.045 27.5496 301.828 26.7508 302.722 26.0362C300.793 27.8808 299.057 29.6992 297.349 31.7123C296.03 33.6731 294.794 35.5235 293.475 37.4843Z" fill="white"/>
<path d="M308.395 37.8605C310.085 38.6247 311.917 38.9735 313.722 39.1276C315.638 39.366 317.779 39.0786 319.094 37.8121C319.262 37.5913 319.346 37.4809 319.404 37.1759C319.546 36.7605 319.382 36.287 319.05 36.0342C318.555 35.3079 317.613 34.9388 316.723 34.9591C315.834 34.9793 314.971 35.1942 314.219 35.4934C312.325 36.1439 310.347 36.9049 308.395 37.8605Z" fill="#627692"/>
<path d="M308.48 37.7501C309.643 38.2877 311.059 38.4941 312.364 38.6162C313.669 38.7383 315.337 38.6136 316.289 37.594C316.373 37.4836 316.541 37.2628 316.625 37.1524C316.683 36.8474 316.546 36.5685 316.409 36.2896C316.051 35.8422 315.414 35.5313 314.719 35.5254C314.024 35.5195 313.551 35.6822 312.883 35.8709C311.294 36.5796 309.789 37.1779 308.48 37.7501Z" fill="#B1C0D9"/>
<path d="M308.479 37.7492C310.369 37.7929 312.174 37.9471 314.063 37.9908C315.842 37.9503 317.62 37.9098 319.32 37.2854C317.705 37.7994 315.952 38.0346 314.258 37.9647C312.284 38.0313 310.395 37.9876 308.479 37.7492Z" fill="white"/>
<path d="M308.48 37.7501C311.152 36.9951 313.851 36.4346 316.714 36.3477C317.604 36.3275 318.382 36.223 319.188 36.3131C317.298 36.2694 315.325 36.336 313.404 36.7919C311.847 37.0009 310.121 37.4307 308.48 37.7501Z" fill="white"/>
<path d="M307.342 37.4066C307.58 39.1584 308.013 40.8841 308.725 42.4733C309.353 44.1728 310.37 45.8201 312.091 46.0846C312.286 46.0585 312.591 46.1166 312.675 46.0062C312.954 45.8697 313.206 45.5386 313.458 45.2074C313.742 44.3766 313.72 43.4876 313.225 42.7613C312.924 42.0088 312.261 41.5033 311.792 40.9716C310.244 39.792 308.78 38.502 307.342 37.4066Z" fill="#627692"/>
<path d="M307.258 37.517C307.332 38.7952 307.796 40.0212 308.15 41.1629C308.614 42.3889 309.468 43.5627 310.578 43.711C310.773 43.6848 310.883 43.7691 311.078 43.743C311.357 43.6064 311.525 43.3857 311.583 43.0806C311.809 42.5548 311.703 41.7763 311.455 41.4131C311.181 40.8553 310.739 40.5183 310.38 40.0708C309.469 39.2021 308.447 38.2492 307.258 37.517Z" fill="#B1C0D9"/>
<path d="M307.259 37.5174C307.971 39.1065 308.682 40.6957 309.478 42.1745C310.274 43.6532 311.154 45.0216 312.286 46.0589C311.154 45.0216 310.274 43.6532 309.589 42.2587C308.793 40.78 308.081 39.1908 307.259 37.5174Z" fill="white"/>
<path d="M307.369 37.6007C309.107 39.4485 310.65 41.3224 312.052 43.6118C312.437 44.2538 312.821 44.8959 313.122 45.6484C312.3 43.9749 311.309 42.5223 310.318 41.0697C309.354 39.8117 308.306 38.664 307.369 37.6007C307.258 37.5164 307.258 37.5164 307.369 37.6007Z" fill="white"/>
<path d="M290.88 38.823C292.87 40.3397 295.113 41.5251 297.33 42.516C299.741 43.4807 302.599 44.0882 304.803 42.8014C305.081 42.6649 305.25 42.4441 305.502 42.113C305.838 41.6714 305.759 41.0875 305.569 40.4193C305.215 39.2776 304.026 38.5454 303.083 38.1763C301.946 37.8334 300.752 37.7955 299.583 37.9523C296.637 38.1496 293.8 38.4311 290.88 38.823Z" fill="#627692"/>
<path d="M290.991 38.9072C292.429 40.0026 294.035 40.8772 295.614 41.5571C297.304 42.3213 299.441 42.7282 301.003 41.8249C301.282 41.6884 301.366 41.578 301.534 41.3572C301.787 41.0261 301.734 40.6368 301.57 40.1632C301.27 39.4108 300.495 38.821 299.664 38.5362C298.832 38.2514 297.943 38.2717 297.164 38.3762C295.19 38.4428 293.022 38.5356 290.991 38.9072Z" fill="#B1C0D9"/>
<path d="M290.991 38.9072C293.376 39.6773 295.787 40.642 298.061 41.3279C300.335 42.0137 302.693 42.5891 305.056 42.4702C302.693 42.5891 300.446 42.0979 298.172 41.4121C295.898 40.7263 293.487 39.7616 290.991 38.9072Z" fill="white"/>
<path d="M291.187 38.8807C294.966 38.9682 298.771 39.2504 302.376 40.253C303.513 40.5959 304.54 40.8545 305.677 41.1974C303.098 40.4535 300.629 39.7938 297.992 39.3549C295.687 39.1687 293.382 38.9826 291.187 38.8807C291.103 38.9911 290.992 38.9068 291.187 38.8807Z" fill="white"/>
<path d="M234.082 75.9772C235.81 79.2137 238.097 82.1771 240.525 84.7251C243.09 87.552 246.602 90.0536 250.412 89.6415C250.802 89.5892 251.386 89.5108 251.748 89.2639C252.474 88.7701 252.758 87.9393 252.847 87.1346C252.914 85.4409 251.981 83.6832 250.738 82.5618C249.495 81.4403 247.805 80.6761 246.142 80.1065C242.262 78.5461 238.103 77.1222 234.082 75.9772Z" fill="#627692"/>
<path d="M234.194 76.0616C235.401 78.377 237.081 80.5299 238.819 82.3777C240.668 84.3098 243.212 86.2477 245.937 85.8819C246.327 85.8297 246.605 85.6932 246.884 85.5566C247.331 85.1994 247.557 84.6736 247.672 84.0635C247.708 82.8695 247.049 81.6696 246.138 80.8009C245.227 79.9322 243.98 79.505 242.927 79.0517C240.1 77.9446 237.078 76.8636 234.194 76.0616Z" fill="#B1C0D9"/>
<path d="M234.304 76.1456C236.927 78.6675 239.66 81.2737 242.367 83.6852C244.963 86.0124 247.923 88.0927 251.166 89.3422C251.166 89.3422 251.192 89.5369 251.081 89.4526C247.839 88.2031 245.185 86.1809 242.504 83.9641C239.687 81.4683 237.037 78.7518 234.304 76.1456C234.193 76.0614 234.193 76.0614 234.304 76.1456Z" fill="white"/>
<path d="M234.303 76.145C239.289 78.548 244.217 81.256 248.64 84.6264C249.967 85.6375 251.21 86.759 252.537 87.7701L252.453 87.8805C249.525 85.3004 246.539 83.0255 243.19 80.9974C240.368 79.196 237.294 77.7257 234.303 76.145Z" fill="white"/>
<path d="M255.351 74.2122C258.788 75.4355 262.425 75.9385 266.036 76.2467C269.841 76.5289 274.124 75.9541 276.505 73.0579C276.758 72.7268 277.094 72.2852 277.125 71.7856C277.325 71.0651 276.997 70.118 276.418 69.5021C275.343 68.1598 273.485 67.6164 271.707 67.6569C269.928 67.6974 268.339 68.4061 266.724 68.9201C262.963 70.4159 259.033 72.1325 255.351 74.2122Z" fill="#627692"/>
<path d="M255.435 74.1017C257.93 74.956 260.567 75.3949 263.067 75.555C265.762 75.6889 268.877 75.2708 270.585 73.2577C270.753 73.037 271.006 72.7058 271.063 72.4008C271.179 71.7907 270.905 71.2329 270.546 70.7855C269.719 69.8064 268.472 69.3792 267.193 69.4517C265.914 69.5242 264.773 69.8757 263.657 70.4217C261.011 71.3714 258.113 72.6523 255.435 74.1017Z" fill="#B1C0D9"/>
<path d="M255.519 73.9913C259.187 73.9946 262.882 74.1925 266.523 74.0011C269.97 73.8358 273.585 73.4498 276.789 72.2271L276.899 72.3113C273.696 73.5341 270.386 73.9782 266.939 74.1435C263.187 74.2506 259.408 74.1631 255.519 73.9913Z" fill="white"/>
<path d="M255.631 74.0754C260.95 72.3706 266.322 71.0551 271.91 70.6025C273.578 70.4777 275.246 70.353 276.914 70.2282C276.914 70.2282 277.025 70.3125 276.83 70.3386C272.994 70.5561 269.158 70.7736 265.401 71.5751C262.118 72.2139 258.972 73.1316 255.631 74.0754C255.52 73.9912 255.547 74.1858 255.631 74.0754Z" fill="white"/>
<path d="M276.572 55.3114C279.63 55.1984 282.718 54.5857 285.781 53.7784C288.927 52.8607 292.162 51.1383 293.238 48.12C293.38 47.7045 293.522 47.2891 293.469 46.8998C293.363 46.1213 292.894 45.5896 292.257 45.2787C290.956 44.4622 289.399 44.6712 287.978 45.1592C286.669 45.7313 285.412 46.6928 284.349 47.6281C281.61 50.0769 278.98 52.6099 276.572 55.3114Z" fill="#627692"/>
<path d="M276.766 55.2853C279.045 55.2768 281.16 54.7947 283.359 54.2023C285.643 53.4995 287.957 52.297 288.75 50.1095C288.807 49.8045 288.865 49.4995 288.839 49.3048C288.759 48.7209 288.427 48.4681 287.985 48.1311C287.016 47.5674 285.932 47.6138 284.901 48.0494C283.87 48.4851 283.171 49.1736 282.277 49.8881C280.32 51.538 278.475 53.2722 276.766 55.2853Z" fill="#B1C0D9"/>
<path d="M276.85 55.1744C279.775 54.0882 282.81 53.0862 285.625 51.9157C288.439 50.7452 291.033 49.4062 293.241 47.4251L293.352 47.5094C291.143 49.4905 288.55 50.8295 285.93 51.9738C282.921 53.1704 279.885 54.1724 276.85 55.1744C276.766 55.2848 276.655 55.2005 276.85 55.1744Z" fill="white"/>
<path d="M276.85 55.1748C280.621 52.2904 284.502 49.4903 288.795 47.5268C290.105 46.9546 291.415 46.3825 292.725 45.8103C289.715 47.0069 286.649 48.5085 283.914 50.263C281.541 51.7705 279.196 53.4727 276.85 55.1748Z" fill="white"/>
<path d="M317.432 45.2682C317.843 46.1049 318.533 46.8051 319.197 47.3107C323.505 51.2911 329.632 53.3427 335.499 52.7535C335.694 52.7274 335.889 52.7012 335.973 52.5909C336.141 52.3701 335.92 52.2016 335.699 52.0331C332.386 48.811 328.205 46.4981 323.794 45.4054C321.852 44.9723 319.742 44.7601 317.932 45.3002" fill="#AD1B1E"/>
<path d="M317.179 45.5993C317.953 46.1892 318.532 46.8051 319.112 47.421C322.805 51.9795 324.541 58.1879 323.446 63.9834C323.473 64.1781 323.388 64.2885 323.304 64.3989C323.026 64.5354 322.889 64.2565 322.667 64.0879C319.717 60.619 317.635 56.2408 316.832 51.7901C316.567 49.8436 316.386 47.7868 317.121 45.9044" fill="#AD1B1E"/>
<path d="M316.565 46.1773C314.972 47.5803 314.179 49.7677 313.581 51.9291C313.24 53.0649 312.899 54.2008 312.889 55.5894C312.88 56.9781 313.149 58.2302 313.724 59.5405C314.025 60.2929 314.325 61.0454 314.905 61.6613C315.484 62.2772 316.232 62.6724 317.01 62.5679C318.094 62.5215 318.962 61.6123 319.414 60.5607C319.865 59.5091 319.707 58.3412 319.658 57.2576C319.376 53.7279 318.789 50.14 317.339 46.7671C317.202 46.4882 316.928 45.9304 316.455 46.093" fill="#E92438"/>
<path d="M317.069 45.5151C316.887 47.8188 317.483 50.018 318.553 52.0546C319.623 54.0912 321.14 55.7705 322.741 57.3394C323.984 58.4609 325.422 59.5562 327.059 59.9311C328.78 60.1957 330.674 59.5451 331.241 57.8834C331.666 56.6372 331.286 55.3008 330.543 54.2113C329.663 52.8429 328.504 51.6111 327.288 50.6842C325.05 48.8044 322.559 47.2557 320.011 46.0121C319.016 45.2538 317.879 44.9109 317.069 45.5151Z" fill="#E92438"/>
<path d="M317.431 45.2682C319.648 46.259 321.864 47.2499 324.138 47.9357C326.412 48.6215 328.938 48.9762 331.359 48.5523C332.527 48.3955 333.837 47.8233 334.178 46.6875C334.435 45.662 333.608 44.6829 332.723 44.0088C330.954 42.6607 328.622 42.2799 326.454 42.3727C324.286 42.4654 322.087 43.0578 319.972 43.5399C319.498 43.7025 318.914 43.7809 318.551 44.0278C318.188 44.2747 317.768 44.8266 317.821 45.2159" fill="#E92438"/>
<path d="M317.906 45.1062C320.401 45.9605 323.096 46.0944 325.706 46.3387C328.511 46.5568 331.316 46.775 334.011 46.9089C331.232 46.8854 328.316 46.583 325.511 46.3648C323.011 46.2048 320.401 45.9605 317.906 45.1062Z" fill="#FFFFE6"/>
<path d="M318.017 45.1907C317.991 44.996 318.38 44.9438 318.575 44.9177C319.048 44.755 319.632 44.6766 320.216 44.5983C321.19 44.4676 322.274 44.4212 323.358 44.3749C325.637 44.3664 327.942 44.5525 330.247 44.7387C331.552 44.8608 332.773 45.0933 334.078 45.2155C334.078 45.2155 334.078 45.2155 333.994 45.3258C331.247 44.8027 328.526 44.4741 325.831 44.3402C324.526 44.2181 323.247 44.2906 322.053 44.2527C321.358 44.2468 320.774 44.3252 320.106 44.514C319.827 44.6505 317.991 44.996 318.017 45.1907Z" fill="#FFFFE6"/>
<path d="M317.538 46.0464C317.618 46.6304 317.976 47.0778 318.25 47.6356C318.524 48.1934 318.882 48.6408 319.156 49.1986C319.789 50.2038 320.532 51.2933 321.248 52.1882C322.792 54.0621 324.419 55.8257 326.41 57.3423C327.405 58.1006 328.537 59.1379 329.674 59.4808C329.674 59.4808 329.785 59.565 329.59 59.5912C328.453 59.2483 327.653 58.4638 326.768 57.7897C325.773 57.0314 324.862 56.1627 324.061 55.3782C322.239 53.6408 320.695 51.7669 319.431 49.7564C319.046 49.1144 318.577 48.5827 318.303 48.0249C318.002 47.2724 317.618 46.6304 317.538 46.0464C317.512 45.8518 317.428 45.9622 317.538 46.0464Z" fill="#FFFFE6"/>
<path d="M331.072 58.1046C330.44 57.0994 329.613 56.1203 328.702 55.2516C327.985 54.3567 327.074 53.488 326.274 52.7036C324.562 51.0504 322.74 49.313 320.665 47.9067C319.559 47.0641 318.369 46.3319 317.179 45.5997C317.179 45.5997 317.179 45.5997 317.264 45.4893C321.47 47.9968 325.199 51.3613 328.565 54.9727C329.502 56.036 330.414 56.9047 331.072 58.1046Z" fill="#FFFFE6"/>
<path d="M315.872 62.2255C314.621 58.1321 313.875 53.3764 315.403 49.3065C315.744 48.1706 316.391 47.0929 317.148 46.0994L317.258 46.1837C313.615 50.7356 314.268 56.9904 315.872 62.2255Z" fill="#FFFFE6"/>
<path d="M317.845 62.1586C317.585 59.5178 317.325 56.877 317.37 54.2944C317.38 52.9058 317.5 51.6014 317.509 50.2127C317.518 48.8241 317.528 47.4355 317.343 46.073C317.417 47.3512 317.408 48.7399 317.483 50.0181C317.473 51.4067 317.353 52.7111 317.344 54.0998C317.409 56.7667 317.669 59.4074 317.845 62.1586Z" fill="#FFFFE6"/>
<path d="M319.338 46.8954C320.221 45.7371 319.996 44.0813 318.835 43.1971C317.675 42.313 316.019 42.5352 315.136 43.6936C314.254 44.8519 314.479 46.5076 315.639 47.3918C316.8 48.276 318.456 48.0537 319.338 46.8954Z" fill="#AD1B1E"/>
</g>
<defs>
<clipPath id="clip0_10604_17589">
<rect width="89.7892" height="80.2177" fill="white" transform="matrix(-0.606065 -0.795415 -0.795415 0.606065 118.224 71.4197)"/>
</clipPath>
<clipPath id="clip1_10604_17589">
<rect width="167.272" height="78.8825" fill="white" transform="translate(85.8639)"/>
</clipPath>
<clipPath id="clip2_10604_17589">
<rect width="89.7892" height="80.2177" fill="white" transform="translate(220.775 71.4199) rotate(-52.6945)"/>
</clipPath>
</defs>
</svg>
