<svg width="236" height="251" viewBox="0 0 236 251" fill="none" xmlns="http://www.w3.org/2000/svg">
<path d="M161.104 156.273C172.237 165.626 180.887 177.879 186.417 191.246C187.835 194.512 188.888 198.161 188.443 201.841C187.999 205.521 185.229 209.026 181.79 209.248C179.1 209.455 176.599 208.085 174.911 206.173C173.222 204.261 172.043 201.664 171.167 199.21C165.477 185.397 160.743 170.739 161.693 155.811" fill="#EDF6FF"/>
<path d="M161.231 155.222C165.788 165.164 172.781 173.481 177.927 182.961C179.951 186.514 181.529 190.226 181.466 194.273C181.499 195.77 180.942 197.73 179.223 197.841C178.697 197.777 178.172 197.714 177.567 197.427C172.502 195.212 170.574 189.11 168.964 183.9C166.445 174.739 163.623 165.434 161.104 156.273" fill="#E92438"/>
<path d="M160.292 156.815C166.045 170.102 168.614 185.031 167.727 199.433C167.506 203.033 167.061 206.713 164.881 209.756C162.924 212.719 158.848 214.678 155.679 213.547C153.116 212.702 151.491 210.264 150.837 207.731C150.183 205.198 150.198 202.426 150.516 199.797C151.465 184.869 153.53 169.543 160.961 156.576" fill="#EDF6FF"/>
<path d="M160.801 156.13C160.439 167.075 163.213 177.654 163.6 188.583C163.76 192.55 163.475 196.676 161.757 200.308C161.041 201.822 159.8 203.271 158.287 202.554C157.761 202.49 157.299 201.901 157.14 201.455C153.604 197.185 154.366 190.876 155.446 185.459C157.115 176.06 158.783 166.66 160.595 156.958" fill="#E92438"/>
<path d="M159.241 156.687C159.183 171.297 155.606 185.905 148.843 198.634C147.189 201.74 145.088 205.006 142.286 207.013C139.182 208.877 134.772 209.195 132.399 206.773C130.487 204.941 129.977 202.105 130.294 199.476C130.612 196.847 131.98 194.346 133.205 192.148C140.031 178.894 148.131 165.687 160.069 156.894" fill="#EDF6FF"/>
<path d="M159.973 155.923C155.391 165.608 153.532 176.585 149.635 186.781C148.219 190.556 146.278 194.268 143.413 196.801C142.235 197.725 140.309 198.665 139.162 197.565C138.78 197.199 138.621 196.753 138.382 196.084C136.994 190.794 140.097 185.41 143.216 180.774C148.659 172.793 153.878 164.891 159.321 156.91" fill="#E92438"/>
<path d="M158.477 155.954C152.702 169.336 143.599 181.14 132.265 190.22C129.543 192.45 126.296 194.617 122.714 195.142C119.131 195.667 115.055 194.105 113.637 190.839C112.537 188.465 113.221 185.454 114.748 183.399C116.196 181.121 118.107 179.433 120.319 177.888C132.018 168.426 144.705 159.617 159.082 156.241" fill="#EDF6FF"/>
<path d="M159.671 155.779C151.442 162.995 145.426 172.187 137.882 179.913C135.097 182.669 131.786 185.361 128.22 186.635C126.66 187.192 124.637 187.16 124.08 185.599C123.92 185.153 123.984 184.627 124.047 184.101C124.825 178.541 129.84 174.989 134.567 172.042C142.765 166.85 150.741 161.737 158.939 156.544" fill="#E92438"/>
<path d="M158.158 155.062C147.366 164.954 134.344 172.122 120.35 175.864C116.927 176.836 113.122 177.441 109.587 176.692C105.972 175.719 102.914 172.787 103.136 169.187C103.23 166.638 104.901 164.28 107.114 162.735C109.327 161.19 111.858 160.537 114.389 159.884C128.829 155.983 144.034 152.814 158.62 155.652" fill="#EDF6FF"/>
<path d="M159.209 155.19C148.797 158.407 139.644 164.444 129.551 168.553C125.841 170.13 121.973 171.26 117.769 170.75C116.193 170.558 114.377 169.698 114.345 168.2C114.408 167.675 114.472 167.149 114.838 166.767C117.734 162.211 123.768 160.809 129.213 159.87C138.766 158.469 148.239 156.845 157.792 155.444" fill="#E92438"/>
<path d="M158.062 154.09C144.386 158.725 129.372 160.316 115.026 158.148C111.57 157.622 107.733 156.729 104.914 154.466C102.095 152.204 100.437 148.268 102.013 144.939C103.158 142.517 105.673 141.116 108.284 140.686C110.895 140.256 113.523 140.575 116.15 140.894C131.022 143.126 145.99 146.33 158.301 154.76" fill="#EDF6FF"/>
<path d="M158.97 154.521C148.238 153.324 137.348 155.203 126.409 154.835C122.365 154.771 118.384 154.181 114.896 152.157C113.606 151.361 112.077 149.895 112.793 148.381C113.08 147.776 113.525 147.617 113.891 147.234C118.539 144.064 124.559 145.435 129.829 146.822C139.017 149.324 148.428 151.747 157.616 154.25" fill="#E92438"/>
<path d="M158.492 153.182C144.018 152.065 129.766 147.348 117.471 139.667C114.509 137.707 111.467 135.524 109.603 132.417C107.962 129.231 107.944 124.961 110.809 122.428C112.719 120.74 115.633 120.453 118.34 120.995C120.824 121.617 123.324 122.987 125.379 124.517C138.056 132.564 150.526 141.439 158.587 154.154" fill="#EDF6FF"/>
<path d="M159.033 153.995C149.558 148.577 138.873 146.106 129.111 141.294C125.48 139.572 121.992 137.549 119.523 134.155C118.599 132.976 117.882 130.968 119.06 130.045C119.426 129.662 119.872 129.503 120.62 129.487C126.065 128.548 131.082 132.037 135.573 135.463C143.186 141.295 150.656 147.43 158.269 153.262" fill="#E92438"/>
<path d="M159.224 152.417C146.42 145.422 135.35 135.543 127.002 123.434C124.915 120.407 123.051 117.3 122.748 113.635C122.444 109.971 124.305 106.036 127.648 104.842C130.1 103.966 132.966 104.954 135.021 106.484C137.076 108.013 138.621 110.228 140.166 112.443C148.593 124.775 156.368 138.095 158.635 152.879" fill="#EDF6FF"/>
<path d="M159.32 153.389C152.916 144.61 144.013 137.982 137.02 129.664C134.407 126.573 131.938 123.18 131.109 119.452C130.774 117.811 130.885 116.01 132.445 115.453C132.891 115.294 133.416 115.357 133.942 115.421C139.356 116.505 142.542 121.906 145.044 126.798C149.569 135.242 154.094 143.686 158.619 152.131" fill="#E92438"/>
<path d="M160.115 152.099C151.035 140.755 144.9 127.101 142.268 112.698C141.518 109.193 141.135 105.306 142.487 102.056C143.839 98.8058 146.991 95.6677 150.669 96.1142C153.296 96.4331 155.51 98.4089 156.832 100.703C158.155 102.998 158.585 105.61 159.239 108.144C161.951 122.769 163.931 138.159 160.052 152.625" fill="#EDF6FF"/>
<path d="M159.988 153.15C157.739 142.635 152.29 133.012 149.07 122.592C147.938 118.721 147.029 114.77 147.84 110.707C148.03 109.13 149.192 107.457 150.689 107.426C151.214 107.489 151.819 107.776 152.202 108.143C156.613 111.345 157.348 117.623 157.844 123.231C158.5 132.806 159.379 142.301 160.035 151.876" fill="#E92438"/>
<path d="M161.166 152.227C157.419 138.222 157.318 123.167 160.529 108.94C161.276 105.404 162.469 101.708 164.809 99.1111C167.371 96.4349 171.463 95.2246 174.568 96.8818C176.766 98.1088 178.248 100.849 178.456 103.542C178.664 106.234 178.044 108.719 177.503 111.428C174.149 125.957 169.68 140.884 160.275 152.545" fill="#EDF6FF"/>
<path d="M160.434 152.991C162.452 142.461 161.461 131.245 162.651 120.507C163.016 116.604 163.827 112.541 166.15 109.196C166.946 107.906 168.49 106.599 170.002 107.317C170.385 107.683 170.767 108.049 170.926 108.496C173.651 113.307 171.981 119.186 170.072 124.395C167.05 133.524 163.726 142.509 160.704 151.637" fill="#E92438"/>
<path d="M162.074 152.657C164.457 138.223 170.072 124.395 178.73 112.75C180.99 109.93 183.25 107.111 186.736 105.614C189.999 104.196 194.426 104.627 196.656 107.351C198.201 109.566 198.409 112.259 197.566 114.823C196.723 117.388 195.196 119.443 193.668 121.498C184.644 133.526 174.793 145.346 161.389 152.147" fill="#EDF6FF"/>
<path d="M161.182 152.975C167.277 144.006 170.792 133.444 176.282 124.189C178.303 120.7 180.626 117.354 184.096 115.108C185.354 114.408 187.36 113.691 188.363 115.093C188.746 115.46 188.682 115.985 188.921 116.654C189.64 122.183 185.55 126.914 181.746 131.04C175.236 138.145 168.647 145.026 162.137 152.131" fill="#E92438"/>
<path d="M162.838 153.39C170.731 141.012 181.666 130.817 194.162 123.586C197.266 121.722 200.753 120.225 204.272 120.225C207.79 120.226 211.804 122.313 212.553 125.818C213.207 128.351 212.141 130.996 210.39 133.131C208.56 135.042 206.347 136.587 203.975 137.686C191.033 145.077 177.184 152.037 162.153 152.88" fill="#EDF6FF"/>
<path d="M161.644 153.565C170.877 147.751 178.262 139.579 186.81 133.255C189.977 130.866 193.527 128.843 197.555 128.158C198.972 127.904 201.074 128.159 201.409 129.8C201.568 130.246 201.505 130.772 201.219 131.377C199.612 136.73 194.057 139.469 189.01 141.524C180.334 145.378 171.435 149.312 162.679 152.944" fill="#E92438"/>
<path d="M162.934 154.362C175.112 146.238 189.153 141.221 203.642 139.566C207.304 139.264 210.966 138.962 214.294 140.539C217.543 141.894 220.315 145.431 219.568 148.968C219.027 151.676 216.974 153.667 214.602 154.766C212.23 155.865 209.619 156.295 206.928 156.502C192.137 158.014 176.581 158.792 162.472 153.772" fill="#EDF6FF"/>
<path d="M162.027 153.931C172.773 152.356 182.707 147.8 193.438 145.476C197.386 144.568 201.494 144.106 205.332 144.999C206.765 145.493 208.66 146.577 208.167 148.01C208.103 148.536 207.737 148.918 207.371 149.301C203.79 153.347 197.438 153.856 192.119 153.744C182.534 153.647 173.029 153.773 163.221 153.756" fill="#E92438"/>
<path d="M162.807 155.413C177.2 152.786 192.119 153.744 205.989 158.095C209.381 159.147 212.932 160.645 215.385 163.29C217.838 165.935 218.827 170.109 216.949 173.295C215.501 175.573 212.827 176.529 210.056 176.512C207.365 176.719 204.802 175.874 202.238 175.03C188.065 170.535 173.495 164.926 162.791 154.664" fill="#EDF6FF"/>
<path d="M162.043 154.68C172.361 157.533 183.586 157.296 194.191 159.543C198.252 160.356 202.169 161.472 205.291 163.878C206.438 164.977 207.521 166.602 206.725 167.893C206.359 168.275 205.993 168.657 205.547 168.817C200.58 171.094 194.768 168.895 189.704 166.68C181.009 162.744 172.091 158.887 163.476 155.174" fill="#E92438"/>
<path d="M162.378 156.321C176.454 159.844 189.927 166.6 200.917 176.256C203.513 178.599 206.268 181.387 207.464 184.733C208.659 188.078 207.928 192.364 204.904 194.451C202.691 195.996 199.841 195.756 197.198 194.689C194.857 193.764 192.722 192.012 190.811 190.179C179.519 180.38 168.576 169.45 162.664 155.716" fill="#EDF6FF"/>
<path d="M161.756 155.286C170.214 162.073 180.262 166.281 189.308 172.607C192.653 174.933 195.854 177.562 197.575 180.972C198.276 182.23 198.547 184.397 197.29 185.098C196.844 185.257 196.398 185.416 195.65 185.432C190.189 185.623 185.601 181.225 181.922 177.258C175.407 170.279 168.813 163.077 162.298 156.098" fill="#E92438"/>
<path d="M156.769 146.252C151.969 147.967 149.468 153.252 151.185 158.056C152.901 162.861 158.185 165.365 162.985 163.65C167.786 161.935 170.286 156.649 168.57 151.845C166.853 147.041 161.57 144.537 156.769 146.252Z" fill="#E92438"/>
<path d="M31.13 66.1322C41.8943 68.826 52.7222 70.994 63.4056 69.9438C67.5134 69.4823 71.5414 68.7977 75.633 67.5874C88.656 63.9406 101.025 57.7606 111.547 49.2225C111.182 53.1257 111.04 56.9493 111.201 60.9163C111.409 63.6088 111.84 66.2216 111.522 68.8503C111.205 71.479 110.139 74.1235 107.926 75.6686C105.125 77.6757 100.921 77.1653 98.5477 74.7434C98.5004 76.018 99.87 77.0377 100.491 78.0734C101.734 80.1446 101.114 82.6299 99.4269 84.2388C97.7397 85.8477 95.3515 86.1979 93.1065 86.2454C88.3936 86.4201 83.7118 84.5715 80.0485 81.3528C79.8742 83.6788 82.6136 85.7184 82.4393 88.0444C82.392 89.319 81.2141 90.2428 79.8768 90.7206C78.7624 91.1188 77.4089 90.8478 76.0554 90.5768C69.8134 89.2856 63.8254 85.8914 59.7475 80.8087C59.8596 82.5294 60.1946 84.1704 60.3066 85.891C60.1958 87.6912 59.3367 89.5074 57.6171 89.6187C56.6459 89.7141 55.7382 89.2839 54.7508 88.6306C44.7497 83.1489 36.2601 74.8634 30.2857 65.1762" fill="#B1C0D9"/>
<path d="M31.13 66.1321C38.2796 67.8536 57.4986 70.2935 65.7141 69.3704C68.8507 69.0044 71.7643 68.718 74.9644 67.8262C85.456 64.8323 95.8355 60.1177 105.355 53.6984C104.066 56.4226 103.016 59.8159 102.333 62.8269C101.776 64.7864 101.443 66.6663 100.663 68.7055C99.8837 70.7447 98.2762 72.5766 96.4297 73.7394C93.9145 75.1411 91.0643 74.9017 89.981 73.2766C89.5514 74.1846 90.3159 74.9176 90.6347 75.8098C91.1129 77.1481 89.808 79.1235 88.4869 80.3501C86.8632 81.4332 85.0005 81.8472 83.5038 81.8789C80.0647 82.1015 77.1186 80.8904 75.2708 78.5323C74.6345 80.2687 76.1636 81.7346 75.5274 83.4711C75.0978 84.3792 74.1428 85.2234 73.1716 85.3189C72.28 85.6374 71.2291 85.5098 70.4011 85.3026C66.1178 84.5692 62.4707 82.0994 60.6701 78.4668C60.3203 79.5979 60.273 80.8724 59.7799 82.3062C59.2868 83.74 58.1886 84.8869 56.7716 85.1417C56.0233 85.1575 55.4182 84.8707 54.813 84.5838C48.7453 80.9666 35.7968 70.7529 31.13 66.1321Z" fill="#627692"/>
<path d="M31.2097 66.3554C37.6136 75.1345 43.954 84.4393 46.9512 94.9386C48.1628 99.0332 48.849 103.064 49.3122 107.174C50.8776 120.701 49.7521 134.434 45.84 147.401C49.167 145.458 52.8763 143.881 56.5221 142.83C58.9738 141.954 61.7281 141.222 64.1001 140.123C66.3924 138.801 68.4456 136.81 69.0657 134.324C69.8924 131.011 67.7893 127.235 64.6204 126.103C65.878 125.402 67.2476 126.422 68.6011 126.693C70.7826 127.171 73.1385 125.323 73.9179 123.284C74.6973 121.245 74.3462 118.855 73.5492 116.625C71.7325 112.243 68.3556 108.419 64.1196 106.411C66.2687 105.392 69.1512 107.129 71.3004 106.11C72.3351 105.488 72.8282 104.055 72.8755 102.78C72.6999 101.585 71.9988 100.327 71.3775 99.2909C67.9682 93.9693 62.4098 89.6671 56.2313 87.8502C57.7915 87.2927 59.7339 87.1018 61.2144 86.3213C62.6949 85.5409 64.1591 84.0116 63.6013 82.4502C63.2825 81.558 62.518 80.8251 61.7534 80.0921C52.914 72.9378 42.1808 68.2207 30.9071 66.2119" fill="#B1C0D9"/>
<path d="M31.2097 66.3553C35.6064 72.3302 45.1818 89.2826 47.2227 97.1053C48.0358 100.085 48.849 103.064 49.2163 106.202C50.5737 117.036 50.0683 128.284 47.7002 139.946C49.8966 137.652 52.6185 135.422 54.9743 133.574C56.5979 132.491 58.2216 131.407 59.6859 129.878C61.1502 128.349 62.4551 126.374 62.8522 123.968C63.3129 121.037 61.9108 118.519 59.9522 117.961C60.6843 117.197 61.592 117.627 62.5633 117.532C64.0599 117.5 65.3648 115.524 66.0011 113.788C66.5577 111.828 66.143 109.964 65.5851 108.403C64.3897 105.057 62.0962 102.858 59.2298 101.87C60.5509 100.644 62.3663 101.504 63.9103 100.198C64.6424 99.4334 64.9923 98.3023 64.8167 97.1074C64.7208 96.1356 64.1792 95.323 63.8604 94.4308C61.5344 90.7344 57.967 88.4876 53.9863 87.8976C54.9413 87.0533 56.0557 86.6552 57.2336 85.7313C58.4115 84.8074 59.1274 83.294 58.6493 81.9557C58.4102 81.2865 57.9483 80.697 57.3431 80.4101C51.578 76.9363 37.1815 69.0006 31.2097 66.3553Z" fill="#627692"/>
<path d="M30.8681 133.635C28.6524 134.426 27.4985 136.866 28.2907 139.083C29.0829 141.3 31.5213 142.456 33.737 141.665C35.9527 140.873 37.1067 138.434 36.3144 136.216C35.5222 133.999 33.0838 132.843 30.8681 133.635Z" fill="#EDF6FF"/>
<path d="M28.7559 105.212C26.5402 106.004 25.3863 108.443 26.1785 110.661C26.9707 112.878 29.4092 114.034 31.6248 113.242C33.8405 112.451 34.9945 110.011 34.2023 107.794C33.41 105.576 30.9716 104.421 28.7559 105.212Z" fill="#EDF6FF"/>
<path d="M24.4798 80.5815C22.2641 81.3731 21.1101 83.8124 21.9024 86.0298C22.6946 88.2472 25.133 89.403 27.3487 88.6113C29.5644 87.8197 30.7184 85.3804 29.9261 83.163C29.1339 80.9456 26.6955 79.7898 24.4798 80.5815Z" fill="#EDF6FF"/>
<path d="M15.1557 54.4843C12.94 55.2759 11.7861 57.7152 12.5783 59.9326C13.3705 62.15 15.8089 63.3058 18.0246 62.5142C20.2403 61.7226 21.3943 59.2833 20.602 57.0659C19.8098 54.8485 17.3714 53.6927 15.1557 54.4843Z" fill="#EDF6FF"/>
<path d="M43.1131 49.0231C40.8974 49.8147 39.7435 52.254 40.5357 54.4714C41.3279 56.6888 43.7663 57.8446 45.982 57.053C48.1977 56.2614 49.3517 53.8221 48.5594 51.6047C47.7672 49.3873 45.3288 48.2315 43.1131 49.0231Z" fill="#EDF6FF"/>
<path d="M69.7979 47.0348C67.5822 47.8264 66.4283 50.2657 67.2205 52.4831C68.0127 54.7005 70.4511 55.8563 72.6668 55.0647C74.8825 54.2731 76.0365 51.8338 75.2442 49.6164C74.452 47.399 72.0136 46.2432 69.7979 47.0348Z" fill="#EDF6FF"/>
<path d="M95.5415 39.5978C93.3258 40.3894 92.1718 42.8287 92.9641 45.0461C93.7563 47.2635 96.1947 48.4193 98.4104 47.6277C100.626 46.8361 101.78 44.3968 100.988 42.1794C100.196 39.962 97.7572 38.8062 95.5415 39.5978Z" fill="#EDF6FF"/>
</svg>
