<svg width="293" height="60" viewBox="0 0 293 60" fill="none" xmlns="http://www.w3.org/2000/svg">
<rect x="16.0977" y="0.835693" width="24.8468" height="24.8468" rx="12.4234" fill="#59B343"/>
<path d="M59.8031 17.9081C58.9169 17.9081 58.1135 17.7176 57.3929 17.3366C56.6807 16.9474 56.1175 16.4132 55.7034 15.734C55.2975 15.0466 55.0946 14.2722 55.0946 13.4108C55.0946 12.5495 55.2975 11.7792 55.7034 11.1001C56.1175 10.4127 56.6807 9.87846 57.3929 9.49748C58.1135 9.10821 58.921 8.91358 59.8155 8.91358C60.5692 8.91358 61.2483 9.04609 61.8529 9.31113C62.4658 9.57616 62.9793 9.95714 63.3934 10.4541L62.1014 11.6467C61.5134 10.9676 60.7845 10.628 59.9149 10.628C59.3765 10.628 58.8962 10.7481 58.4738 10.9883C58.0514 11.2202 57.7201 11.5473 57.4799 11.9697C57.248 12.3921 57.1321 12.8725 57.1321 13.4108C57.1321 13.9492 57.248 14.4296 57.4799 14.852C57.7201 15.2744 58.0514 15.6056 58.4738 15.8458C58.8962 16.0777 59.3765 16.1937 59.9149 16.1937C60.7845 16.1937 61.5134 15.85 62.1014 15.1625L63.3934 16.3552C62.9793 16.8604 62.4658 17.2455 61.8529 17.5106C61.2401 17.7756 60.5568 17.9081 59.8031 17.9081ZM69.6621 14.2681C70.4489 14.5331 70.8423 15.0632 70.8423 15.8583C70.8423 16.4629 70.6146 16.9308 70.1591 17.2621C69.7035 17.5934 69.0244 17.759 68.1216 17.759H64.5561V11.0752H67.9725C68.809 11.0752 69.4633 11.2285 69.9354 11.5349C70.4075 11.8331 70.6436 12.2555 70.6436 12.8021C70.6436 13.1334 70.5566 13.4274 70.3827 13.6842C70.217 13.9326 69.9768 14.1273 69.6621 14.2681ZM66.3326 13.8208H67.7986C68.4778 13.8208 68.8173 13.5806 68.8173 13.1003C68.8173 12.6282 68.4778 12.3921 67.7986 12.3921H66.3326V13.8208ZM67.9601 16.4422C68.6724 16.4422 69.0285 16.1978 69.0285 15.7092C69.0285 15.4524 68.9457 15.2661 68.7801 15.1501C68.6144 15.0259 68.3535 14.9638 67.9974 14.9638H66.3326V16.4422H67.9601ZM75.415 17.8584C74.711 17.8584 74.0774 17.7135 73.5142 17.4236C72.9593 17.1254 72.5245 16.7155 72.2098 16.1937C71.8951 15.6719 71.7377 15.0797 71.7377 14.4171C71.7377 13.7546 71.8951 13.1624 72.2098 12.6406C72.5245 12.1188 72.9593 11.713 73.5142 11.4231C74.0774 11.1249 74.711 10.9759 75.415 10.9759C76.119 10.9759 76.7485 11.1249 77.3034 11.4231C77.8583 11.713 78.2931 12.1188 78.6078 12.6406C78.9226 13.1624 79.0799 13.7546 79.0799 14.4171C79.0799 15.0797 78.9226 15.6719 78.6078 16.1937C78.2931 16.7155 77.8583 17.1254 77.3034 17.4236C76.7485 17.7135 76.119 17.8584 75.415 17.8584ZM75.415 16.2682C75.912 16.2682 76.3178 16.1026 76.6325 15.7713C76.9555 15.4317 77.117 14.9803 77.117 14.4171C77.117 13.8539 76.9555 13.4067 76.6325 13.0754C76.3178 12.7358 75.912 12.5661 75.415 12.5661C74.9181 12.5661 74.5081 12.7358 74.1851 13.0754C73.8621 13.4067 73.7006 13.8539 73.7006 14.4171C73.7006 14.9803 73.8621 15.4317 74.1851 15.7713C74.5081 16.1026 74.9181 16.2682 75.415 16.2682ZM84.2766 11.5349C84.9143 11.5349 85.4734 11.6674 85.9537 11.9325C86.4341 12.1892 86.8027 12.5536 87.0594 13.0257C87.3245 13.4978 87.457 14.0444 87.457 14.6656C87.457 15.3033 87.2996 15.8707 86.9849 16.3676C86.6784 16.8563 86.2478 17.2373 85.6929 17.5106C85.1379 17.7756 84.5085 17.9081 83.8045 17.9081C82.6367 17.9081 81.7174 17.5354 81.0465 16.79C80.3839 16.0363 80.0526 14.9348 80.0526 13.4854C80.0526 12.1437 80.3425 11.0752 80.9223 10.2801C81.5103 9.47677 82.4089 8.95085 83.6181 8.70238L86.7985 8.06879L87.0594 9.73352L84.2517 10.2926C83.4898 10.4417 82.9224 10.6901 82.5497 11.038C82.1853 11.3858 81.97 11.8786 81.9037 12.5164C82.1936 12.2016 82.5415 11.9614 82.9473 11.7958C83.3531 11.6219 83.7962 11.5349 84.2766 11.5349ZM83.8169 16.4049C84.3139 16.4049 84.7114 16.2434 85.0096 15.9204C85.316 15.5974 85.4692 15.1874 85.4692 14.6905C85.4692 14.1852 85.316 13.7835 85.0096 13.4854C84.7114 13.1872 84.3139 13.0381 83.8169 13.0381C83.3117 13.0381 82.9059 13.1872 82.5994 13.4854C82.293 13.7835 82.1398 14.1852 82.1398 14.6905C82.1398 15.1957 82.2971 15.6098 82.6119 15.9328C82.9266 16.2475 83.3283 16.4049 83.8169 16.4049ZM91.9027 17.8584C91.1987 17.8584 90.5651 17.7135 90.0019 17.4236C89.447 17.1254 89.0122 16.7155 88.6975 16.1937C88.3827 15.6719 88.2254 15.0797 88.2254 14.4171C88.2254 13.7546 88.3827 13.1624 88.6975 12.6406C89.0122 12.1188 89.447 11.713 90.0019 11.4231C90.5651 11.1249 91.1987 10.9759 91.9027 10.9759C92.6067 10.9759 93.2362 11.1249 93.7911 11.4231C94.346 11.713 94.7808 12.1188 95.0955 12.6406C95.4102 13.1624 95.5676 13.7546 95.5676 14.4171C95.5676 15.0797 95.4102 15.6719 95.0955 16.1937C94.7808 16.7155 94.346 17.1254 93.7911 17.4236C93.2362 17.7135 92.6067 17.8584 91.9027 17.8584ZM91.9027 16.2682C92.3996 16.2682 92.8055 16.1026 93.1202 15.7713C93.4432 15.4317 93.6047 14.9803 93.6047 14.4171C93.6047 13.8539 93.4432 13.4067 93.1202 13.0754C92.8055 12.7358 92.3996 12.5661 91.9027 12.5661C91.4058 12.5661 90.9958 12.7358 90.6728 13.0754C90.3498 13.4067 90.1883 13.8539 90.1883 14.4171C90.1883 14.9803 90.3498 15.4317 90.6728 15.7713C90.9958 16.1026 91.4058 16.2682 91.9027 16.2682ZM104.295 16.1688V19.2001H102.493V17.759H97.7974V19.2001H95.996V16.1688H96.2693C96.6834 16.1606 96.9692 15.9162 97.1266 15.4359C97.2839 14.9555 97.3833 14.2722 97.4247 13.386L97.5117 11.0752H103.338V16.1688H104.295ZM99.1764 13.5227C99.1516 14.2018 99.0977 14.7567 99.0149 15.1874C98.9404 15.6181 98.7954 15.9452 98.5801 16.1688H101.4V12.6654H99.2137L99.1764 13.5227ZM105.514 11.0752H107.44V13.6842H110.347V11.0752H112.285V17.759H110.347V15.2619H107.44V17.759H105.514V11.0752ZM117.271 17.8584C116.567 17.8584 115.934 17.7135 115.37 17.4236C114.815 17.1254 114.381 16.7155 114.066 16.1937C113.751 15.6719 113.594 15.0797 113.594 14.4171C113.594 13.7546 113.751 13.1624 114.066 12.6406C114.381 12.1188 114.815 11.713 115.37 11.4231C115.934 11.1249 116.567 10.9759 117.271 10.9759C117.975 10.9759 118.605 11.1249 119.16 11.4231C119.714 11.713 120.149 12.1188 120.464 12.6406C120.779 13.1624 120.936 13.7546 120.936 14.4171C120.936 15.0797 120.779 15.6719 120.464 16.1937C120.149 16.7155 119.714 17.1254 119.16 17.4236C118.605 17.7135 117.975 17.8584 117.271 17.8584ZM117.271 16.2682C117.768 16.2682 118.174 16.1026 118.489 15.7713C118.812 15.4317 118.973 14.9803 118.973 14.4171C118.973 13.8539 118.812 13.4067 118.489 13.0754C118.174 12.7358 117.768 12.5661 117.271 12.5661C116.774 12.5661 116.364 12.7358 116.041 13.0754C115.718 13.4067 115.557 13.8539 115.557 14.4171C115.557 14.9803 115.718 15.4317 116.041 15.7713C116.364 16.1026 116.774 16.2682 117.271 16.2682Z" fill="black"/>
<rect x="130.927" y="0.835693" width="24.8468" height="24.8468" rx="12.4234" fill="#FF3D00"/>
<path d="M175.465 13.2245C175.971 13.3984 176.364 13.6717 176.646 14.0444C176.935 14.4089 177.08 14.8354 177.08 15.324C177.08 15.8541 176.906 16.3138 176.559 16.703C176.211 17.0923 175.739 17.3905 175.142 17.5975C174.554 17.8046 173.908 17.9081 173.204 17.9081C172.608 17.9081 172.012 17.8336 171.415 17.6845C170.827 17.5354 170.268 17.3076 169.738 17.0012L170.359 15.5601C170.74 15.792 171.159 15.9701 171.614 16.0943C172.078 16.2103 172.529 16.2682 172.968 16.2682C173.565 16.2682 174.057 16.1606 174.447 15.9452C174.844 15.7299 175.043 15.4276 175.043 15.0383C175.043 14.7153 174.906 14.471 174.633 14.3053C174.368 14.1397 174.003 14.0569 173.54 14.0569H171.415V12.5412H173.391C173.796 12.5412 174.111 12.4584 174.335 12.2927C174.567 12.1271 174.683 11.8993 174.683 11.6095C174.683 11.2699 174.517 11.0048 174.186 10.8144C173.863 10.6239 173.444 10.5286 172.931 10.5286C172.55 10.5286 172.157 10.5825 171.751 10.6901C171.345 10.7895 170.96 10.9427 170.595 11.1498L169.987 9.58444C170.906 9.11235 171.9 8.87631 172.968 8.87631C173.647 8.87631 174.273 8.97569 174.844 9.17447C175.416 9.37324 175.871 9.66312 176.211 10.0441C176.55 10.4251 176.72 10.8682 176.72 11.3734C176.72 11.7875 176.608 12.1561 176.385 12.4791C176.161 12.8021 175.855 13.0506 175.465 13.2245ZM181.121 10.9759C182.156 10.9759 182.951 11.2243 183.506 11.7213C184.061 12.2099 184.339 12.9512 184.339 13.9451V17.759H182.525V16.9267C182.16 17.5478 181.481 17.8584 180.487 17.8584C179.974 17.8584 179.527 17.7715 179.146 17.5975C178.773 17.4236 178.487 17.1834 178.289 16.877C178.09 16.5705 177.99 16.2227 177.99 15.8334C177.99 15.2122 178.222 14.7236 178.686 14.3674C179.158 14.0113 179.883 13.8332 180.86 13.8332H182.401C182.401 13.4108 182.272 13.0878 182.016 12.8642C181.759 12.6323 181.374 12.5164 180.86 12.5164C180.504 12.5164 180.152 12.5743 179.804 12.6903C179.465 12.798 179.175 12.947 178.935 13.1375L178.239 11.7834C178.603 11.5266 179.038 11.3279 179.543 11.1871C180.057 11.0463 180.583 10.9759 181.121 10.9759ZM180.972 16.554C181.303 16.554 181.597 16.4794 181.854 16.3303C182.111 16.173 182.293 15.9452 182.401 15.6471V14.9638H181.071C180.276 14.9638 179.879 15.2247 179.879 15.7464C179.879 15.9949 179.974 16.1937 180.164 16.3428C180.363 16.4836 180.632 16.554 180.972 16.554ZM189.886 11.5349C190.524 11.5349 191.083 11.6674 191.563 11.9325C192.043 12.1892 192.412 12.5536 192.669 13.0257C192.934 13.4978 193.066 14.0444 193.066 14.6656C193.066 15.3033 192.909 15.8707 192.594 16.3676C192.288 16.8563 191.857 17.2373 191.302 17.5106C190.747 17.7756 190.118 17.9081 189.414 17.9081C188.246 17.9081 187.327 17.5354 186.656 16.79C185.993 16.0363 185.662 14.9348 185.662 13.4854C185.662 12.1437 185.952 11.0752 186.532 10.2801C187.12 9.47677 188.018 8.95085 189.227 8.70238L192.408 8.06879L192.669 9.73352L189.861 10.2926C189.099 10.4417 188.532 10.6901 188.159 11.038C187.795 11.3858 187.579 11.8786 187.513 12.5164C187.803 12.2016 188.151 11.9614 188.557 11.7958C188.962 11.6219 189.406 11.5349 189.886 11.5349ZM189.426 16.4049C189.923 16.4049 190.321 16.2434 190.619 15.9204C190.925 15.5974 191.079 15.1874 191.079 14.6905C191.079 14.1852 190.925 13.7835 190.619 13.4854C190.321 13.1872 189.923 13.0381 189.426 13.0381C188.921 13.0381 188.515 13.1872 188.209 13.4854C187.902 13.7835 187.749 14.1852 187.749 14.6905C187.749 15.1957 187.906 15.6098 188.221 15.9328C188.536 16.2475 188.938 16.4049 189.426 16.4049ZM198.32 10.9759C198.941 10.9759 199.504 11.1208 200.009 11.4107C200.523 11.6923 200.924 12.094 201.214 12.6157C201.504 13.1292 201.649 13.7297 201.649 14.4171C201.649 15.1046 201.504 15.7092 201.214 16.231C200.924 16.7445 200.523 17.1461 200.009 17.436C199.504 17.7176 198.941 17.8584 198.32 17.8584C197.467 17.8584 196.796 17.5892 196.307 17.0509V20.1692H194.369V11.0752H196.22V11.8455C196.7 11.2657 197.4 10.9759 198.32 10.9759ZM197.984 16.2682C198.481 16.2682 198.887 16.1026 199.202 15.7713C199.525 15.4317 199.686 14.9803 199.686 14.4171C199.686 13.8539 199.525 13.4067 199.202 13.0754C198.887 12.7358 198.481 12.5661 197.984 12.5661C197.487 12.5661 197.077 12.7358 196.754 13.0754C196.44 13.4067 196.282 13.8539 196.282 14.4171C196.282 14.9803 196.44 15.4317 196.754 15.7713C197.077 16.1026 197.487 16.2682 197.984 16.2682ZM206.138 17.8584C205.434 17.8584 204.8 17.7135 204.237 17.4236C203.682 17.1254 203.248 16.7155 202.933 16.1937C202.618 15.6719 202.461 15.0797 202.461 14.4171C202.461 13.7546 202.618 13.1624 202.933 12.6406C203.248 12.1188 203.682 11.713 204.237 11.4231C204.8 11.1249 205.434 10.9759 206.138 10.9759C206.842 10.9759 207.472 11.1249 208.026 11.4231C208.581 11.713 209.016 12.1188 209.331 12.6406C209.646 13.1624 209.803 13.7546 209.803 14.4171C209.803 15.0797 209.646 15.6719 209.331 16.1937C209.016 16.7155 208.581 17.1254 208.026 17.4236C207.472 17.7135 206.842 17.8584 206.138 17.8584ZM206.138 16.2682C206.635 16.2682 207.041 16.1026 207.356 15.7713C207.679 15.4317 207.84 14.9803 207.84 14.4171C207.84 13.8539 207.679 13.4067 207.356 13.0754C207.041 12.7358 206.635 12.5661 206.138 12.5661C205.641 12.5661 205.231 12.7358 204.908 13.0754C204.585 13.4067 204.424 13.8539 204.424 14.4171C204.424 14.9803 204.585 15.4317 204.908 15.7713C205.231 16.1026 205.641 16.2682 206.138 16.2682ZM211.136 11.0752H213.062V13.6842H215.969V11.0752H217.907V17.759H215.969V15.2619H213.062V17.759H211.136V11.0752ZM219.762 11.0752H221.688V15.0507L224.943 11.0752H226.719V17.759H224.793V13.7835L221.551 17.759H219.762V11.0752ZM232.52 10.9759C233.141 10.9759 233.705 11.1208 234.21 11.4107C234.723 11.6923 235.125 12.094 235.415 12.6157C235.705 13.1292 235.85 13.7297 235.85 14.4171C235.85 15.1046 235.705 15.7092 235.415 16.231C235.125 16.7445 234.723 17.1461 234.21 17.436C233.705 17.7176 233.141 17.8584 232.52 17.8584C231.667 17.8584 230.996 17.5892 230.508 17.0509V20.1692H228.57V11.0752H230.421V11.8455C230.901 11.2657 231.601 10.9759 232.52 10.9759ZM232.185 16.2682C232.682 16.2682 233.088 16.1026 233.402 15.7713C233.725 15.4317 233.887 14.9803 233.887 14.4171C233.887 13.8539 233.725 13.4067 233.402 13.0754C233.088 12.7358 232.682 12.5661 232.185 12.5661C231.688 12.5661 231.278 12.7358 230.955 13.0754C230.64 13.4067 230.483 13.8539 230.483 14.4171C230.483 14.9803 230.64 15.4317 230.955 15.7713C231.278 16.1026 231.688 16.2682 232.185 16.2682ZM240.339 17.8584C239.635 17.8584 239.001 17.7135 238.438 17.4236C237.883 17.1254 237.448 16.7155 237.134 16.1937C236.819 15.6719 236.661 15.0797 236.661 14.4171C236.661 13.7546 236.819 13.1624 237.134 12.6406C237.448 12.1188 237.883 11.713 238.438 11.4231C239.001 11.1249 239.635 10.9759 240.339 10.9759C241.043 10.9759 241.672 11.1249 242.227 11.4231C242.782 11.713 243.217 12.1188 243.532 12.6406C243.846 13.1624 244.004 13.7546 244.004 14.4171C244.004 15.0797 243.846 15.6719 243.532 16.1937C243.217 16.7155 242.782 17.1254 242.227 17.4236C241.672 17.7135 241.043 17.8584 240.339 17.8584ZM240.339 16.2682C240.836 16.2682 241.242 16.1026 241.556 15.7713C241.879 15.4317 242.041 14.9803 242.041 14.4171C242.041 13.8539 241.879 13.4067 241.556 13.0754C241.242 12.7358 240.836 12.5661 240.339 12.5661C239.842 12.5661 239.432 12.7358 239.109 13.0754C238.786 13.4067 238.624 13.8539 238.624 14.4171C238.624 14.9803 238.786 15.4317 239.109 15.7713C239.432 16.1026 239.842 16.2682 240.339 16.2682ZM250.443 14.2681C251.23 14.5331 251.623 15.0632 251.623 15.8583C251.623 16.4629 251.395 16.9308 250.94 17.2621C250.484 17.5934 249.805 17.759 248.902 17.759H245.337V11.0752H248.753C249.59 11.0752 250.244 11.2285 250.716 11.5349C251.188 11.8331 251.424 12.2555 251.424 12.8021C251.424 13.1334 251.337 13.4274 251.163 13.6842C250.998 13.9326 250.757 14.1273 250.443 14.2681ZM247.113 13.8208H248.579C249.258 13.8208 249.598 13.5806 249.598 13.1003C249.598 12.6282 249.258 12.3921 248.579 12.3921H247.113V13.8208ZM248.741 16.4422C249.453 16.4422 249.809 16.1978 249.809 15.7092C249.809 15.4524 249.726 15.2661 249.561 15.1501C249.395 15.0259 249.134 14.9638 248.778 14.9638H247.113V16.4422H248.741ZM255.661 10.9759C256.697 10.9759 257.492 11.2243 258.047 11.7213C258.602 12.2099 258.879 12.9512 258.879 13.9451V17.759H257.065V16.9267C256.701 17.5478 256.022 17.8584 255.028 17.8584C254.514 17.8584 254.067 17.7715 253.686 17.5975C253.313 17.4236 253.028 17.1834 252.829 16.877C252.63 16.5705 252.531 16.2227 252.531 15.8334C252.531 15.2122 252.763 14.7236 253.226 14.3674C253.699 14.0113 254.423 13.8332 255.401 13.8332H256.941C256.941 13.4108 256.813 13.0878 256.556 12.8642C256.299 12.6323 255.914 12.5164 255.401 12.5164C255.044 12.5164 254.692 12.5743 254.345 12.6903C254.005 12.798 253.715 12.947 253.475 13.1375L252.779 11.7834C253.144 11.5266 253.578 11.3279 254.084 11.1871C254.597 11.0463 255.123 10.9759 255.661 10.9759ZM255.512 16.554C255.844 16.554 256.138 16.4794 256.394 16.3303C256.651 16.173 256.833 15.9452 256.941 15.6471V14.9638H255.612C254.817 14.9638 254.419 15.2247 254.419 15.7464C254.419 15.9949 254.514 16.1937 254.705 16.3428C254.904 16.4836 255.173 16.554 255.512 16.554ZM260.563 11.0752H262.488V13.6842H265.395V11.0752H267.333V17.759H265.395V15.2619H262.488V17.759H260.563V11.0752ZM272.319 17.8584C271.615 17.8584 270.982 17.7135 270.419 17.4236C269.864 17.1254 269.429 16.7155 269.114 16.1937C268.799 15.6719 268.642 15.0797 268.642 14.4171C268.642 13.7546 268.799 13.1624 269.114 12.6406C269.429 12.1188 269.864 11.713 270.419 11.4231C270.982 11.1249 271.615 10.9759 272.319 10.9759C273.023 10.9759 273.653 11.1249 274.208 11.4231C274.763 11.713 275.197 12.1188 275.512 12.6406C275.827 13.1624 275.984 13.7546 275.984 14.4171C275.984 15.0797 275.827 15.6719 275.512 16.1937C275.197 16.7155 274.763 17.1254 274.208 17.4236C273.653 17.7135 273.023 17.8584 272.319 17.8584ZM272.319 16.2682C272.816 16.2682 273.222 16.1026 273.537 15.7713C273.86 15.4317 274.021 14.9803 274.021 14.4171C274.021 13.8539 273.86 13.4067 273.537 13.0754C273.222 12.7358 272.816 12.5661 272.319 12.5661C271.822 12.5661 271.412 12.7358 271.089 13.0754C270.766 13.4067 270.605 13.8539 270.605 14.4171C270.605 14.9803 270.766 15.4317 271.089 15.7713C271.412 16.1026 271.822 16.2682 272.319 16.2682Z" fill="black"/>
<rect x="60.5" y="35" width="25" height="25" rx="12.5" fill="#CACACA"/>
<path d="M70.5666 46.1406C71.2645 46.1406 71.8999 46.2812 72.4728 46.5625C73.0458 46.8437 73.4989 47.2448 73.8322 47.7656C74.1655 48.276 74.3322 48.8698 74.3322 49.5469C74.3322 50.276 74.1499 50.9167 73.7853 51.4687C73.4208 52.0208 72.9208 52.4479 72.2853 52.75C71.6603 53.0417 70.9624 53.1875 70.1916 53.1875C68.6603 53.1875 67.4624 52.7187 66.5978 51.7812C65.7333 50.8437 65.301 49.5052 65.301 47.7656C65.301 46.526 65.5353 45.4635 66.0041 44.5781C66.4728 43.6927 67.1239 43.0208 67.9572 42.5625C68.801 42.1042 69.7749 41.875 70.8791 41.875C71.4624 41.875 72.0197 41.9427 72.551 42.0781C73.0926 42.2031 73.551 42.3854 73.926 42.625L72.9885 44.4844C72.4468 44.1198 71.7645 43.9375 70.9416 43.9375C70.0145 43.9375 69.2801 44.2083 68.7385 44.75C68.1968 45.2917 67.9051 46.0781 67.8635 47.1094C68.5093 46.4635 69.4103 46.1406 70.5666 46.1406ZM70.051 51.2969C70.5926 51.2969 71.0301 51.151 71.3635 50.8594C71.7072 50.5677 71.8791 50.1719 71.8791 49.6719C71.8791 49.1719 71.7072 48.776 71.3635 48.4844C71.0301 48.1823 70.5822 48.0312 70.0197 48.0312C69.4676 48.0312 69.0145 48.1875 68.6603 48.5C68.3062 48.8021 68.1291 49.1927 68.1291 49.6719C68.1291 50.151 68.301 50.5417 68.6447 50.8437C68.9885 51.1458 69.4572 51.2969 70.051 51.2969ZM79.4085 44.5L81.1116 45.4219L80.346 46.7031L78.6273 45.6875L78.6585 47.5781H77.1898L77.2054 45.6719L75.4866 46.7031L74.7366 45.4219L76.4398 44.5L74.7366 43.5625L75.4866 42.2812L77.2054 43.3125L77.1898 41.4062H78.6585L78.6273 43.3125L80.346 42.2812L81.1116 43.5625L79.4085 44.5Z" fill="white"/>
<path d="M89.124 47.872H92.52V49.372H89.124V47.872ZM97.4815 45.688H98.3335V48.484H102.306V45.688H103.158V52H102.306V49.216H98.3335V52H97.4815V45.688ZM111.099 49.108H105.819C105.867 49.764 106.119 50.296 106.575 50.704C107.031 51.104 107.607 51.304 108.303 51.304C108.695 51.304 109.055 51.236 109.383 51.1C109.711 50.956 109.995 50.748 110.235 50.476L110.715 51.028C110.435 51.364 110.083 51.62 109.659 51.796C109.243 51.972 108.783 52.06 108.279 52.06C107.631 52.06 107.055 51.924 106.551 51.652C106.055 51.372 105.667 50.988 105.387 50.5C105.107 50.012 104.967 49.46 104.967 48.844C104.967 48.228 105.099 47.676 105.363 47.188C105.635 46.7 106.003 46.32 106.467 46.048C106.939 45.776 107.467 45.64 108.051 45.64C108.635 45.64 109.159 45.776 109.623 46.048C110.087 46.32 110.451 46.7 110.715 47.188C110.979 47.668 111.111 48.22 111.111 48.844L111.099 49.108ZM108.051 46.372C107.443 46.372 106.931 46.568 106.515 46.96C106.107 47.344 105.875 47.848 105.819 48.472H110.295C110.239 47.848 110.003 47.344 109.587 46.96C109.179 46.568 108.667 46.372 108.051 46.372ZM119.198 45.844C119.782 45.844 120.302 45.976 120.758 46.24C121.222 46.496 121.582 46.86 121.838 47.332C122.094 47.796 122.222 48.328 122.222 48.928C122.222 49.544 122.086 50.092 121.814 50.572C121.55 51.044 121.178 51.412 120.698 51.676C120.218 51.94 119.666 52.072 119.042 52.072C117.994 52.072 117.182 51.704 116.606 50.968C116.03 50.232 115.742 49.216 115.742 47.92C115.742 46.568 115.998 45.532 116.51 44.812C117.03 44.092 117.838 43.604 118.934 43.348L121.766 42.7L121.91 43.48L119.246 44.092C118.342 44.292 117.678 44.648 117.254 45.16C116.83 45.664 116.598 46.412 116.558 47.404C116.814 46.916 117.17 46.536 117.626 46.264C118.082 45.984 118.606 45.844 119.198 45.844ZM119.066 51.364C119.506 51.364 119.898 51.264 120.242 51.064C120.594 50.856 120.866 50.568 121.058 50.2C121.258 49.832 121.358 49.416 121.358 48.952C121.358 48.488 121.262 48.08 121.07 47.728C120.878 47.376 120.606 47.104 120.254 46.912C119.91 46.712 119.514 46.612 119.066 46.612C118.618 46.612 118.218 46.712 117.866 46.912C117.522 47.104 117.25 47.376 117.05 47.728C116.858 48.08 116.762 48.488 116.762 48.952C116.762 49.416 116.858 49.832 117.05 50.2C117.25 50.568 117.526 50.856 117.878 51.064C118.23 51.264 118.626 51.364 119.066 51.364ZM129.236 45.688L126.08 52.756C125.824 53.348 125.528 53.768 125.192 54.016C124.856 54.264 124.452 54.388 123.98 54.388C123.676 54.388 123.392 54.34 123.128 54.244C122.864 54.148 122.636 54.004 122.444 53.812L122.84 53.176C123.16 53.496 123.544 53.656 123.992 53.656C124.28 53.656 124.524 53.576 124.724 53.416C124.932 53.256 125.124 52.984 125.3 52.6L125.576 51.988L122.756 45.688H123.644L126.02 51.052L128.396 45.688H129.236ZM136.438 51.256V53.524H135.634V52H129.982V53.524H129.178V51.256H129.538C129.962 51.232 130.25 50.92 130.402 50.32C130.554 49.72 130.658 48.88 130.714 47.8L130.798 45.688H135.454V51.256H136.438ZM131.494 47.848C131.454 48.744 131.378 49.484 131.266 50.068C131.154 50.644 130.954 51.04 130.666 51.256H134.602V46.444H131.566L131.494 47.848ZM143.619 49.108H138.339C138.387 49.764 138.639 50.296 139.095 50.704C139.551 51.104 140.127 51.304 140.823 51.304C141.215 51.304 141.575 51.236 141.903 51.1C142.231 50.956 142.515 50.748 142.755 50.476L143.235 51.028C142.955 51.364 142.603 51.62 142.179 51.796C141.763 51.972 141.303 52.06 140.799 52.06C140.151 52.06 139.575 51.924 139.071 51.652C138.575 51.372 138.187 50.988 137.907 50.5C137.627 50.012 137.487 49.46 137.487 48.844C137.487 48.228 137.619 47.676 137.883 47.188C138.155 46.7 138.523 46.32 138.987 46.048C139.459 45.776 139.987 45.64 140.571 45.64C141.155 45.64 141.679 45.776 142.143 46.048C142.607 46.32 142.971 46.7 143.235 47.188C143.499 47.668 143.631 48.22 143.631 48.844L143.619 49.108ZM140.571 46.372C139.963 46.372 139.451 46.568 139.035 46.96C138.627 47.344 138.395 47.848 138.339 48.472H142.815C142.759 47.848 142.523 47.344 142.107 46.96C141.699 46.568 141.187 46.372 140.571 46.372ZM149.675 46.444H147.287V52H146.435V46.444H144.047V45.688H149.675V46.444ZM158.068 48.736C158.924 48.936 159.352 49.452 159.352 50.284C159.352 50.836 159.148 51.26 158.74 51.556C158.332 51.852 157.724 52 156.916 52H154.048V45.688H156.832C157.552 45.688 158.116 45.828 158.524 46.108C158.932 46.388 159.136 46.788 159.136 47.308C159.136 47.652 159.04 47.948 158.848 48.196C158.664 48.436 158.404 48.616 158.068 48.736ZM154.876 48.496H156.772C157.26 48.496 157.632 48.404 157.888 48.22C158.152 48.036 158.284 47.768 158.284 47.416C158.284 47.064 158.152 46.8 157.888 46.624C157.632 46.448 157.26 46.36 156.772 46.36H154.876V48.496ZM156.88 51.328C157.424 51.328 157.832 51.24 158.104 51.064C158.376 50.888 158.512 50.612 158.512 50.236C158.512 49.86 158.388 49.584 158.14 49.408C157.892 49.224 157.5 49.132 156.964 49.132H154.876V51.328H156.88ZM161.349 45.688H162.201V50.704L166.413 45.688H167.169V52H166.317V46.984L162.117 52H161.349V45.688ZM175.766 51.256V53.524H174.962V52H169.31V53.524H168.506V51.256H168.866C169.29 51.232 169.578 50.92 169.73 50.32C169.882 49.72 169.986 48.88 170.042 47.8L170.126 45.688H174.782V51.256H175.766ZM170.822 47.848C170.782 48.744 170.706 49.484 170.594 50.068C170.482 50.644 170.282 51.04 169.994 51.256H173.93V46.444H170.894L170.822 47.848ZM177.427 45.688H178.279V48.484H182.251V45.688H183.103V52H182.251V49.216H178.279V52H177.427V45.688ZM187.697 45.64C188.521 45.64 189.153 45.848 189.593 46.264C190.033 46.672 190.253 47.28 190.253 48.088V52H189.437V51.016C189.245 51.344 188.961 51.6 188.585 51.784C188.217 51.968 187.777 52.06 187.265 52.06C186.561 52.06 186.001 51.892 185.585 51.556C185.169 51.22 184.961 50.776 184.961 50.224C184.961 49.688 185.153 49.256 185.537 48.928C185.929 48.6 186.549 48.436 187.396 48.436H189.401V48.052C189.401 47.508 189.249 47.096 188.945 46.816C188.641 46.528 188.197 46.384 187.613 46.384C187.213 46.384 186.829 46.452 186.461 46.588C186.093 46.716 185.777 46.896 185.513 47.128L185.129 46.492C185.449 46.22 185.833 46.012 186.281 45.868C186.729 45.716 187.201 45.64 187.697 45.64ZM187.396 51.388C187.877 51.388 188.289 51.28 188.633 51.064C188.977 50.84 189.233 50.52 189.401 50.104V49.072H187.421C186.341 49.072 185.801 49.448 185.801 50.2C185.801 50.568 185.941 50.86 186.221 51.076C186.501 51.284 186.893 51.388 187.396 51.388ZM198.301 52.06C197.677 52.06 197.117 51.924 196.621 51.652C196.133 51.38 195.749 51 195.469 50.512C195.189 50.016 195.049 49.46 195.049 48.844C195.049 48.228 195.189 47.676 195.469 47.188C195.749 46.7 196.133 46.32 196.621 46.048C197.117 45.776 197.677 45.64 198.301 45.64C198.845 45.64 199.329 45.748 199.753 45.964C200.185 46.172 200.525 46.48 200.773 46.888L200.137 47.32C199.929 47.008 199.665 46.776 199.345 46.624C199.025 46.464 198.677 46.384 198.301 46.384C197.845 46.384 197.433 46.488 197.065 46.696C196.705 46.896 196.421 47.184 196.213 47.56C196.013 47.936 195.913 48.364 195.913 48.844C195.913 49.332 196.013 49.764 196.213 50.14C196.421 50.508 196.705 50.796 197.065 51.004C197.433 51.204 197.845 51.304 198.301 51.304C198.677 51.304 199.025 51.228 199.345 51.076C199.665 50.924 199.929 50.692 200.137 50.38L200.773 50.812C200.525 51.22 200.185 51.532 199.753 51.748C199.321 51.956 198.837 52.06 198.301 52.06ZM208.999 51.256V53.584H208.195V52H202.423V45.688H203.275V51.256H207.127V45.688H207.979V51.256H208.999ZM216.146 49.108H210.866C210.914 49.764 211.166 50.296 211.622 50.704C212.078 51.104 212.654 51.304 213.35 51.304C213.742 51.304 214.102 51.236 214.43 51.1C214.758 50.956 215.042 50.748 215.282 50.476L215.762 51.028C215.482 51.364 215.13 51.62 214.706 51.796C214.29 51.972 213.83 52.06 213.326 52.06C212.678 52.06 212.102 51.924 211.598 51.652C211.102 51.372 210.714 50.988 210.434 50.5C210.154 50.012 210.014 49.46 210.014 48.844C210.014 48.228 210.146 47.676 210.41 47.188C210.682 46.7 211.05 46.32 211.514 46.048C211.986 45.776 212.514 45.64 213.098 45.64C213.682 45.64 214.206 45.776 214.67 46.048C215.134 46.32 215.498 46.7 215.762 47.188C216.026 47.668 216.158 48.22 216.158 48.844L216.146 49.108ZM213.098 46.372C212.49 46.372 211.978 46.568 211.562 46.96C211.154 47.344 210.922 47.848 210.866 48.472H215.342C215.286 47.848 215.05 47.344 214.634 46.96C214.226 46.568 213.714 46.372 213.098 46.372ZM218.044 45.688H218.896V48.484H222.868V45.688H223.72V52H222.868V49.216H218.896V52H218.044V45.688ZM228.314 45.64C229.138 45.64 229.77 45.848 230.21 46.264C230.65 46.672 230.87 47.28 230.87 48.088V52H230.054V51.016C229.862 51.344 229.578 51.6 229.202 51.784C228.834 51.968 228.394 52.06 227.882 52.06C227.178 52.06 226.618 51.892 226.202 51.556C225.786 51.22 225.578 50.776 225.578 50.224C225.578 49.688 225.77 49.256 226.154 48.928C226.546 48.6 227.166 48.436 228.014 48.436H230.018V48.052C230.018 47.508 229.866 47.096 229.562 46.816C229.258 46.528 228.814 46.384 228.23 46.384C227.83 46.384 227.446 46.452 227.078 46.588C226.71 46.716 226.394 46.896 226.13 47.128L225.746 46.492C226.066 46.22 226.45 46.012 226.898 45.868C227.346 45.716 227.818 45.64 228.314 45.64ZM228.014 51.388C228.494 51.388 228.906 51.28 229.25 51.064C229.594 50.84 229.85 50.52 230.018 50.104V49.072H228.038C226.958 49.072 226.418 49.448 226.418 50.2C226.418 50.568 226.558 50.86 226.838 51.076C227.118 51.284 227.51 51.388 228.014 51.388Z" fill="black"/>
</svg>
