<svg width="209" height="37" viewBox="0 0 209 37" fill="none" xmlns="http://www.w3.org/2000/svg">
<path d="M0.397656 36L20.4477 1.65L22.1977 0.85V35.05L41.6977 1.65L43.4477 0.85V36H41.6977V2.55L22.1977 36H20.4477V2.55L0.947656 36H0.397656ZM48.4934 36L68.4434 1.5L70.1934 0.649999V36H68.4434V19.95H58.4434L49.0934 36H48.4934ZM58.6934 19.45H68.4434V2.7L58.6934 19.45ZM76.3012 1.85L77.5512 0.499998L102.901 32.95V0.499998H103.501V33.7V36H102.951L102.901 35.95L76.8512 2.6V36.05H76.2512V1.85H76.3012ZM132.552 8.3L136.252 5.05C134.719 3.75 133.152 2.81666 131.552 2.25C129.952 1.65 128.152 1.35 126.152 1.35C123.819 1.35 121.669 1.85 119.702 2.85C117.769 3.85 116.102 5.16667 114.702 6.8C113.302 8.43333 112.219 10.3 111.452 12.4C110.685 14.4667 110.302 16.5833 110.302 18.75C110.302 20.9167 110.685 23.0167 111.452 25.05C112.252 27.0833 113.352 28.8833 114.752 30.45C116.152 32.0167 117.819 33.2667 119.752 34.2C121.719 35.1333 123.852 35.6 126.152 35.6C128.485 35.6 130.619 35.05 132.552 33.95C134.519 32.85 136.202 31.4333 137.602 29.7C139.002 27.9667 140.085 26.0333 140.852 23.9C141.652 21.7333 142.052 19.5833 142.052 17.45C141.619 17.2167 141.119 17.0167 140.552 16.85C139.985 16.6833 139.385 16.6 138.752 16.6C138.152 16.5667 137.552 16.6167 136.952 16.75C136.352 16.85 135.802 17.05 135.302 17.35C134.402 17.95 133.569 18.5333 132.802 19.1C132.069 19.6667 131.302 20.1833 130.502 20.65C129.702 21.0833 128.835 21.45 127.902 21.75C127.002 22.0167 125.969 22.15 124.802 22.15C123.735 22.15 122.719 21.9833 121.752 21.65C120.819 21.2833 119.952 20.7833 119.152 20.15L119.402 19.75C120.102 20.2167 120.835 20.6333 121.602 21C122.369 21.3333 123.185 21.5 124.052 21.5C125.052 21.5 125.935 21.3667 126.702 21.1C127.469 20.8333 128.169 20.5 128.802 20.1C129.469 19.7 130.102 19.2667 130.702 18.8C131.302 18.3 131.935 17.85 132.602 17.45C133.269 17.0167 133.985 16.65 134.752 16.35C135.552 16.0167 136.452 15.8333 137.452 15.8C138.785 15.7333 139.869 15.8333 140.702 16.1C141.569 16.3667 142.435 16.7333 143.302 17.2C143.402 17.4 143.452 17.6167 143.452 17.85C143.452 20.2167 143.019 22.5 142.152 24.7C141.285 26.9 140.085 28.85 138.552 30.55C137.019 32.2167 135.185 33.5667 133.052 34.6C130.952 35.6 128.652 36.1 126.152 36.1C123.752 36.1 121.469 35.65 119.302 34.75C117.169 33.8167 115.302 32.5667 113.702 31C112.102 29.4 110.835 27.55 109.902 25.45C108.969 23.35 108.502 21.1167 108.502 18.75C108.502 16.2833 108.952 13.9667 109.852 11.8C110.752 9.63333 111.985 7.75 113.552 6.15C115.119 4.51667 116.969 3.23333 119.102 2.3C121.269 1.33333 123.619 0.85 126.152 0.85C127.285 0.85 128.319 0.916665 129.252 1.05C130.185 1.15 131.069 1.33333 131.902 1.6C132.769 1.86667 133.602 2.23333 134.402 2.7C135.202 3.16667 136.052 3.73333 136.952 4.4L140.802 0.949998L141.302 1.4L133.052 8.75L132.552 8.3ZM181.667 0.749998V18.7C181.667 21.2 181.233 23.5 180.367 25.6C179.5 27.7 178.317 29.5167 176.817 31.05C175.317 32.55 173.567 33.7333 171.567 34.6C169.6 35.4333 167.5 35.8667 165.267 35.9C162.967 35.9333 160.8 35.5333 158.767 34.7C156.733 33.8667 154.95 32.6833 153.417 31.15C151.917 29.6167 150.717 27.8 149.817 25.7C148.95 23.5667 148.517 21.2333 148.517 18.7V1.25L150.267 0.749998V18.7C150.267 21.1333 150.65 23.3667 151.417 25.4C152.183 27.4333 153.233 29.2 154.567 30.7C155.9 32.1667 157.483 33.3167 159.317 34.15C161.15 34.95 163.133 35.35 165.267 35.35C167.4 35.35 169.35 34.95 171.117 34.15C172.883 33.3167 174.417 32.1833 175.717 30.75C177.017 29.2833 178.033 27.5333 178.767 25.5C179.5 23.4667 179.883 21.2 179.917 18.7V1.25L181.667 0.749998ZM198.475 0.999998C199.941 0.999998 201.291 1.28333 202.525 1.85C203.758 2.41667 204.825 3.16667 205.725 4.1C206.658 5.03333 207.375 6.11667 207.875 7.35C208.408 8.55 208.658 9.8 208.625 11.1C208.625 12.4 208.358 13.5833 207.825 14.65C207.291 15.6833 206.558 16.5667 205.625 17.3C204.725 18.0333 203.658 18.6 202.425 19C201.191 19.4 199.875 19.6 198.475 19.6H189.475V36H187.725V0.999998H198.475ZM198.475 19.1C201.175 19.1 203.225 18.3667 204.625 16.9C206.058 15.4333 206.808 13.4667 206.875 11C206.908 9.83333 206.741 8.68333 206.375 7.55C206.008 6.41667 205.458 5.4 204.725 4.5C203.991 3.6 203.091 2.88333 202.025 2.35C200.991 1.78333 199.791 1.5 198.425 1.5H189.475V19.1H198.475Z" fill="#BB8E4D"/>
</svg>
