<svg width="619" height="32" viewBox="0 0 619 32" fill="none" xmlns="http://www.w3.org/2000/svg">
<rect x="0.579102" width="31.5789" height="31.5789" rx="15.7895" fill="#59B343"/>
<path d="M56.1264 21.479C55.0001 21.479 53.979 21.2369 53.0632 20.7527C52.1579 20.258 51.4422 19.579 50.9158 18.7159C50.4001 17.8422 50.1422 16.858 50.1422 15.7632C50.1422 14.6685 50.4001 13.6896 50.9158 12.8264C51.4422 11.9527 52.1579 11.2738 53.0632 10.7895C53.979 10.2948 55.0053 10.0474 56.1422 10.0474C57.1001 10.0474 57.9632 10.2159 58.7316 10.5527C59.5106 10.8896 60.1632 11.3738 60.6895 12.0053L59.0474 13.5211C58.3001 12.658 57.3737 12.2264 56.2685 12.2264C55.5843 12.2264 54.9737 12.379 54.4369 12.6843C53.9001 12.979 53.479 13.3948 53.1737 13.9317C52.879 14.4685 52.7316 15.079 52.7316 15.7632C52.7316 16.4474 52.879 17.058 53.1737 17.5948C53.479 18.1317 53.9001 18.5527 54.4369 18.858C54.9737 19.1527 55.5843 19.3001 56.2685 19.3001C57.3737 19.3001 58.3001 18.8632 59.0474 17.9896L60.6895 19.5053C60.1632 20.1474 59.5106 20.6369 58.7316 20.9738C57.9527 21.3106 57.0843 21.479 56.1264 21.479ZM68.6567 16.8527C69.6567 17.1896 70.1567 17.8632 70.1567 18.8738C70.1567 19.6422 69.8672 20.2369 69.2883 20.658C68.7093 21.079 67.8461 21.2896 66.6988 21.2896H62.1672V12.7948H66.5093C67.5725 12.7948 68.404 12.9895 69.004 13.379C69.604 13.758 69.904 14.2948 69.904 14.9896C69.904 15.4106 69.7935 15.7843 69.5725 16.1106C69.3619 16.4264 69.0567 16.6738 68.6567 16.8527ZM64.4251 16.2843H66.2883C67.1514 16.2843 67.583 15.979 67.583 15.3685C67.583 14.7685 67.1514 14.4685 66.2883 14.4685H64.4251V16.2843ZM66.4935 19.6159C67.3988 19.6159 67.8514 19.3053 67.8514 18.6843C67.8514 18.358 67.7461 18.1211 67.5356 17.9738C67.3251 17.8159 66.9935 17.7369 66.5409 17.7369H64.4251V19.6159H66.4935ZM75.9683 21.4159C75.0736 21.4159 74.2683 21.2317 73.5525 20.8632C72.8473 20.4843 72.2946 19.9632 71.8946 19.3001C71.4946 18.6369 71.2946 17.8843 71.2946 17.0422C71.2946 16.2001 71.4946 15.4474 71.8946 14.7843C72.2946 14.1211 72.8473 13.6053 73.5525 13.2369C74.2683 12.858 75.0736 12.6685 75.9683 12.6685C76.863 12.6685 77.663 12.858 78.3683 13.2369C79.0736 13.6053 79.6262 14.1211 80.0262 14.7843C80.4262 15.4474 80.6262 16.2001 80.6262 17.0422C80.6262 17.8843 80.4262 18.6369 80.0262 19.3001C79.6262 19.9632 79.0736 20.4843 78.3683 20.8632C77.663 21.2317 76.863 21.4159 75.9683 21.4159ZM75.9683 19.3948C76.5999 19.3948 77.1157 19.1843 77.5157 18.7632C77.9262 18.3317 78.1315 17.758 78.1315 17.0422C78.1315 16.3264 77.9262 15.758 77.5157 15.3369C77.1157 14.9053 76.5999 14.6896 75.9683 14.6896C75.3367 14.6896 74.8157 14.9053 74.4052 15.3369C73.9946 15.758 73.7894 16.3264 73.7894 17.0422C73.7894 17.758 73.9946 18.3317 74.4052 18.7632C74.8157 19.1843 75.3367 19.3948 75.9683 19.3948ZM87.2309 13.379C88.0414 13.379 88.7519 13.5474 89.3625 13.8843C89.973 14.2106 90.4414 14.6738 90.7677 15.2738C91.1046 15.8738 91.273 16.5685 91.273 17.358C91.273 18.1685 91.073 18.8896 90.673 19.5211C90.2835 20.1422 89.7362 20.6264 89.0309 20.9738C88.3256 21.3106 87.5256 21.479 86.6309 21.479C85.1467 21.479 83.9783 21.0053 83.1256 20.058C82.2835 19.1001 81.8625 17.7001 81.8625 15.858C81.8625 14.1527 82.2309 12.7948 82.9677 11.7843C83.7151 10.7632 84.8572 10.0948 86.394 9.77902L90.4362 8.97376L90.7677 11.0895L87.1993 11.8001C86.2309 11.9896 85.5098 12.3053 85.0362 12.7474C84.573 13.1896 84.2993 13.8159 84.2151 14.6264C84.5835 14.2264 85.0256 13.9211 85.5414 13.7106C86.0572 13.4895 86.6204 13.379 87.2309 13.379ZM86.6467 19.5685C87.2783 19.5685 87.7835 19.3632 88.1625 18.9527C88.5519 18.5422 88.7467 18.0211 88.7467 17.3896C88.7467 16.7474 88.5519 16.2369 88.1625 15.858C87.7835 15.479 87.2783 15.2896 86.6467 15.2896C86.0046 15.2896 85.4888 15.479 85.0993 15.858C84.7098 16.2369 84.5151 16.7474 84.5151 17.3896C84.5151 18.0317 84.7151 18.558 85.1151 18.9685C85.5151 19.3685 86.0256 19.5685 86.6467 19.5685ZM96.9233 21.4159C96.0285 21.4159 95.2233 21.2317 94.5075 20.8632C93.8022 20.4843 93.2496 19.9632 92.8496 19.3001C92.4496 18.6369 92.2496 17.8843 92.2496 17.0422C92.2496 16.2001 92.4496 15.4474 92.8496 14.7843C93.2496 14.1211 93.8022 13.6053 94.5075 13.2369C95.2233 12.858 96.0285 12.6685 96.9233 12.6685C97.818 12.6685 98.618 12.858 99.3233 13.2369C100.029 13.6053 100.581 14.1211 100.981 14.7843C101.381 15.4474 101.581 16.2001 101.581 17.0422C101.581 17.8843 101.381 18.6369 100.981 19.3001C100.581 19.9632 100.029 20.4843 99.3233 20.8632C98.618 21.2317 97.818 21.4159 96.9233 21.4159ZM96.9233 19.3948C97.5549 19.3948 98.0707 19.1843 98.4707 18.7632C98.8812 18.3317 99.0864 17.758 99.0864 17.0422C99.0864 16.3264 98.8812 15.758 98.4707 15.3369C98.0707 14.9053 97.5549 14.6896 96.9233 14.6896C96.2917 14.6896 95.7707 14.9053 95.3601 15.3369C94.9496 15.758 94.7443 16.3264 94.7443 17.0422C94.7443 17.758 94.9496 18.3317 95.3601 18.7632C95.7707 19.1843 96.2917 19.3948 96.9233 19.3948ZM112.673 19.2685V23.1211H110.384V21.2896H104.415V23.1211H102.126V19.2685H102.473C102.999 19.258 103.363 18.9474 103.563 18.3369C103.763 17.7264 103.889 16.858 103.941 15.7317L104.052 12.7948H111.457V19.2685H112.673ZM106.168 15.9053C106.136 16.7685 106.068 17.4738 105.963 18.0211C105.868 18.5685 105.684 18.9843 105.41 19.2685H108.994V14.8159H106.215L106.168 15.9053ZM114.223 12.7948H116.67V16.1106H120.365V12.7948H122.828V21.2896H120.365V18.1159H116.67V21.2896H114.223V12.7948ZM129.165 21.4159C128.271 21.4159 127.465 21.2317 126.749 20.8632C126.044 20.4843 125.492 19.9632 125.092 19.3001C124.692 18.6369 124.492 17.8843 124.492 17.0422C124.492 16.2001 124.692 15.4474 125.092 14.7843C125.492 14.1211 126.044 13.6053 126.749 13.2369C127.465 12.858 128.271 12.6685 129.165 12.6685C130.06 12.6685 130.86 12.858 131.565 13.2369C132.271 13.6053 132.823 14.1211 133.223 14.7843C133.623 15.4474 133.823 16.2001 133.823 17.0422C133.823 17.8843 133.623 18.6369 133.223 19.3001C132.823 19.9632 132.271 20.4843 131.565 20.8632C130.86 21.2317 130.06 21.4159 129.165 21.4159ZM129.165 19.3948C129.797 19.3948 130.313 19.1843 130.713 18.7632C131.123 18.3317 131.328 17.758 131.328 17.0422C131.328 16.3264 131.123 15.758 130.713 15.3369C130.313 14.9053 129.797 14.6896 129.165 14.6896C128.534 14.6896 128.013 14.9053 127.602 15.3369C127.192 15.758 126.986 16.3264 126.986 17.0422C126.986 17.758 127.192 18.3317 127.602 18.7632C128.013 19.1843 128.534 19.3948 129.165 19.3948Z" fill="black"/>
<rect x="146.369" width="31.5789" height="31.5789" rx="15.7895" fill="#FF3D00"/>
<path d="M202.974 15.5264C203.616 15.7474 204.116 16.0948 204.474 16.5685C204.842 17.0317 205.026 17.5738 205.026 18.1948C205.026 18.8685 204.805 19.4527 204.363 19.9474C203.921 20.4422 203.321 20.8211 202.563 21.0843C201.816 21.3474 200.995 21.479 200.1 21.479C199.342 21.479 198.584 21.3843 197.826 21.1948C197.079 21.0053 196.369 20.7159 195.695 20.3264L196.484 18.4948C196.969 18.7896 197.5 19.0159 198.079 19.1738C198.669 19.3211 199.242 19.3948 199.8 19.3948C200.558 19.3948 201.184 19.258 201.679 18.9843C202.184 18.7106 202.437 18.3264 202.437 17.8317C202.437 17.4211 202.263 17.1106 201.916 16.9001C201.579 16.6896 201.116 16.5843 200.526 16.5843H197.826V14.658H200.337C200.853 14.658 201.253 14.5527 201.537 14.3422C201.832 14.1317 201.979 13.8422 201.979 13.4738C201.979 13.0422 201.769 12.7053 201.347 12.4632C200.937 12.2211 200.405 12.1001 199.753 12.1001C199.269 12.1001 198.769 12.1685 198.253 12.3053C197.737 12.4317 197.247 12.6264 196.784 12.8896L196.011 10.9001C197.179 10.3001 198.442 10.0001 199.8 10.0001C200.663 10.0001 201.458 10.1264 202.184 10.379C202.911 10.6317 203.49 11.0001 203.921 11.4843C204.353 11.9685 204.569 12.5317 204.569 13.1738C204.569 13.7001 204.426 14.1685 204.142 14.579C203.858 14.9896 203.469 15.3053 202.974 15.5264ZM210.162 12.6685C211.478 12.6685 212.488 12.9843 213.194 13.6159C213.899 14.2369 214.251 15.179 214.251 16.4422V21.2896H211.946V20.2317C211.483 21.0211 210.62 21.4159 209.357 21.4159C208.704 21.4159 208.136 21.3053 207.651 21.0843C207.178 20.8632 206.815 20.558 206.562 20.1685C206.309 19.779 206.183 19.3369 206.183 18.8422C206.183 18.0527 206.478 17.4317 207.067 16.979C207.667 16.5264 208.588 16.3001 209.83 16.3001H211.788C211.788 15.7632 211.625 15.3527 211.299 15.0685C210.972 14.7738 210.483 14.6264 209.83 14.6264C209.378 14.6264 208.93 14.7001 208.488 14.8474C208.057 14.9843 207.688 15.1738 207.383 15.4159L206.499 13.6948C206.962 13.3685 207.515 13.1159 208.157 12.9369C208.809 12.758 209.478 12.6685 210.162 12.6685ZM209.972 19.758C210.394 19.758 210.767 19.6632 211.094 19.4738C211.42 19.2738 211.651 18.9843 211.788 18.6053V17.7369H210.099C209.088 17.7369 208.583 18.0685 208.583 18.7317C208.583 19.0474 208.704 19.3001 208.946 19.4896C209.199 19.6685 209.541 19.758 209.972 19.758ZM221.302 13.379C222.112 13.379 222.823 13.5474 223.433 13.8843C224.044 14.2106 224.512 14.6738 224.839 15.2738C225.175 15.8738 225.344 16.5685 225.344 17.358C225.344 18.1685 225.144 18.8896 224.744 19.5211C224.354 20.1422 223.807 20.6264 223.102 20.9738C222.396 21.3106 221.596 21.479 220.702 21.479C219.217 21.479 218.049 21.0053 217.196 20.058C216.354 19.1001 215.933 17.7001 215.933 15.858C215.933 14.1527 216.302 12.7948 217.039 11.7843C217.786 10.7632 218.928 10.0948 220.465 9.77902L224.507 8.97376L224.839 11.0895L221.27 11.8001C220.302 11.9896 219.581 12.3053 219.107 12.7474C218.644 13.1896 218.37 13.8159 218.286 14.6264C218.654 14.2264 219.096 13.9211 219.612 13.7106C220.128 13.4895 220.691 13.379 221.302 13.379ZM220.717 19.5685C221.349 19.5685 221.854 19.3632 222.233 18.9527C222.623 18.5422 222.817 18.0211 222.817 17.3896C222.817 16.7474 222.623 16.2369 222.233 15.858C221.854 15.479 221.349 15.2896 220.717 15.2896C220.075 15.2896 219.56 15.479 219.17 15.858C218.781 16.2369 218.586 16.7474 218.586 17.3896C218.586 18.0317 218.786 18.558 219.186 18.9685C219.586 19.3685 220.096 19.5685 220.717 19.5685ZM232.02 12.6685C232.81 12.6685 233.526 12.8527 234.168 13.2211C234.82 13.579 235.331 14.0895 235.699 14.7527C236.068 15.4053 236.252 16.1685 236.252 17.0422C236.252 17.9159 236.068 18.6843 235.699 19.3474C235.331 20.0001 234.82 20.5106 234.168 20.879C233.526 21.2369 232.81 21.4159 232.02 21.4159C230.936 21.4159 230.084 21.0738 229.463 20.3896V24.3527H226.999V12.7948H229.352V13.7738C229.963 13.0369 230.852 12.6685 232.02 12.6685ZM231.594 19.3948C232.226 19.3948 232.741 19.1843 233.141 18.7632C233.552 18.3317 233.757 17.758 233.757 17.0422C233.757 16.3264 233.552 15.758 233.141 15.3369C232.741 14.9053 232.226 14.6896 231.594 14.6896C230.963 14.6896 230.441 14.9053 230.031 15.3369C229.631 15.758 229.431 16.3264 229.431 17.0422C229.431 17.758 229.631 18.3317 230.031 18.7632C230.441 19.1843 230.963 19.3948 231.594 19.3948ZM241.957 21.4159C241.063 21.4159 240.257 21.2317 239.541 20.8632C238.836 20.4843 238.284 19.9632 237.884 19.3001C237.484 18.6369 237.284 17.8843 237.284 17.0422C237.284 16.2001 237.484 15.4474 237.884 14.7843C238.284 14.1211 238.836 13.6053 239.541 13.2369C240.257 12.858 241.063 12.6685 241.957 12.6685C242.852 12.6685 243.652 12.858 244.357 13.2369C245.063 13.6053 245.615 14.1211 246.015 14.7843C246.415 15.4474 246.615 16.2001 246.615 17.0422C246.615 17.8843 246.415 18.6369 246.015 19.3001C245.615 19.9632 245.063 20.4843 244.357 20.8632C243.652 21.2317 242.852 21.4159 241.957 21.4159ZM241.957 19.3948C242.589 19.3948 243.105 19.1843 243.505 18.7632C243.915 18.3317 244.12 17.758 244.12 17.0422C244.12 16.3264 243.915 15.758 243.505 15.3369C243.105 14.9053 242.589 14.6896 241.957 14.6896C241.326 14.6896 240.805 14.9053 240.394 15.3369C239.984 15.758 239.778 16.3264 239.778 17.0422C239.778 17.758 239.984 18.3317 240.394 18.7632C240.805 19.1843 241.326 19.3948 241.957 19.3948ZM248.309 12.7948H250.757V16.1106H254.451V12.7948H256.915V21.2896H254.451V18.1159H250.757V21.2896H248.309V12.7948ZM259.273 12.7948H261.72V17.8474L265.857 12.7948H268.115V21.2896H265.667V16.2369L261.546 21.2896H259.273V12.7948ZM275.488 12.6685C276.277 12.6685 276.993 12.8527 277.635 13.2211C278.288 13.579 278.798 14.0895 279.167 14.7527C279.535 15.4053 279.719 16.1685 279.719 17.0422C279.719 17.9159 279.535 18.6843 279.167 19.3474C278.798 20.0001 278.288 20.5106 277.635 20.879C276.993 21.2369 276.277 21.4159 275.488 21.4159C274.404 21.4159 273.551 21.0738 272.93 20.3896V24.3527H270.467V12.7948H272.819V13.7738C273.43 13.0369 274.319 12.6685 275.488 12.6685ZM275.061 19.3948C275.693 19.3948 276.209 19.1843 276.609 18.7632C277.019 18.3317 277.225 17.758 277.225 17.0422C277.225 16.3264 277.019 15.758 276.609 15.3369C276.209 14.9053 275.693 14.6896 275.061 14.6896C274.43 14.6896 273.909 14.9053 273.498 15.3369C273.098 15.758 272.898 16.3264 272.898 17.0422C272.898 17.758 273.098 18.3317 273.498 18.7632C273.909 19.1843 274.43 19.3948 275.061 19.3948ZM285.425 21.4159C284.53 21.4159 283.725 21.2317 283.009 20.8632C282.304 20.4843 281.751 19.9632 281.351 19.3001C280.951 18.6369 280.751 17.8843 280.751 17.0422C280.751 16.2001 280.951 15.4474 281.351 14.7843C281.751 14.1211 282.304 13.6053 283.009 13.2369C283.725 12.858 284.53 12.6685 285.425 12.6685C286.319 12.6685 287.119 12.858 287.825 13.2369C288.53 13.6053 289.082 14.1211 289.482 14.7843C289.882 15.4474 290.082 16.2001 290.082 17.0422C290.082 17.8843 289.882 18.6369 289.482 19.3001C289.082 19.9632 288.53 20.4843 287.825 20.8632C287.119 21.2317 286.319 21.4159 285.425 21.4159ZM285.425 19.3948C286.056 19.3948 286.572 19.1843 286.972 18.7632C287.382 18.3317 287.588 17.758 287.588 17.0422C287.588 16.3264 287.382 15.758 286.972 15.3369C286.572 14.9053 286.056 14.6896 285.425 14.6896C284.793 14.6896 284.272 14.9053 283.861 15.3369C283.451 15.758 283.246 16.3264 283.246 17.0422C283.246 17.758 283.451 18.3317 283.861 18.7632C284.272 19.1843 284.793 19.3948 285.425 19.3948ZM298.266 16.8527C299.266 17.1896 299.766 17.8632 299.766 18.8738C299.766 19.6422 299.477 20.2369 298.898 20.658C298.319 21.079 297.456 21.2896 296.308 21.2896H291.777V12.7948H296.119C297.182 12.7948 298.013 12.9895 298.613 13.379C299.213 13.758 299.513 14.2948 299.513 14.9896C299.513 15.4106 299.403 15.7843 299.182 16.1106C298.971 16.4264 298.666 16.6738 298.266 16.8527ZM294.035 16.2843H295.898C296.761 16.2843 297.192 15.979 297.192 15.3685C297.192 14.7685 296.761 14.4685 295.898 14.4685H294.035V16.2843ZM296.103 19.6159C297.008 19.6159 297.461 19.3053 297.461 18.6843C297.461 18.358 297.356 18.1211 297.145 17.9738C296.935 17.8159 296.603 17.7369 296.15 17.7369H294.035V19.6159H296.103ZM304.899 12.6685C306.215 12.6685 307.225 12.9843 307.93 13.6159C308.636 14.2369 308.988 15.179 308.988 16.4422V21.2896H306.683V20.2317C306.22 21.0211 305.357 21.4159 304.094 21.4159C303.441 21.4159 302.873 21.3053 302.388 21.0843C301.915 20.8632 301.551 20.558 301.299 20.1685C301.046 19.779 300.92 19.3369 300.92 18.8422C300.92 18.0527 301.215 17.4317 301.804 16.979C302.404 16.5264 303.325 16.3001 304.567 16.3001H306.525C306.525 15.7632 306.362 15.3527 306.036 15.0685C305.709 14.7738 305.22 14.6264 304.567 14.6264C304.115 14.6264 303.667 14.7001 303.225 14.8474C302.794 14.9843 302.425 15.1738 302.12 15.4159L301.236 13.6948C301.699 13.3685 302.251 13.1159 302.894 12.9369C303.546 12.758 304.215 12.6685 304.899 12.6685ZM304.709 19.758C305.13 19.758 305.504 19.6632 305.83 19.4738C306.157 19.2738 306.388 18.9843 306.525 18.6053V17.7369H304.836C303.825 17.7369 303.32 18.0685 303.32 18.7317C303.32 19.0474 303.441 19.3001 303.683 19.4896C303.936 19.6685 304.278 19.758 304.709 19.758ZM311.128 12.7948H313.575V16.1106H317.27V12.7948H319.733V21.2896H317.27V18.1159H313.575V21.2896H311.128V12.7948ZM326.07 21.4159C325.175 21.4159 324.37 21.2317 323.654 20.8632C322.949 20.4843 322.396 19.9632 321.996 19.3001C321.596 18.6369 321.396 17.8843 321.396 17.0422C321.396 16.2001 321.596 15.4474 321.996 14.7843C322.396 14.1211 322.949 13.6053 323.654 13.2369C324.37 12.858 325.175 12.6685 326.07 12.6685C326.965 12.6685 327.765 12.858 328.47 13.2369C329.175 13.6053 329.728 14.1211 330.128 14.7843C330.528 15.4474 330.728 16.2001 330.728 17.0422C330.728 17.8843 330.528 18.6369 330.128 19.3001C329.728 19.9632 329.175 20.4843 328.47 20.8632C327.765 21.2317 326.965 21.4159 326.07 21.4159ZM326.07 19.3948C326.702 19.3948 327.218 19.1843 327.618 18.7632C328.028 18.3317 328.233 17.758 328.233 17.0422C328.233 16.3264 328.028 15.758 327.618 15.3369C327.218 14.9053 326.702 14.6896 326.07 14.6896C325.439 14.6896 324.918 14.9053 324.507 15.3369C324.096 15.758 323.891 16.3264 323.891 17.0422C323.891 17.758 324.096 18.3317 324.507 18.7632C324.918 19.1843 325.439 19.3948 326.07 19.3948Z" fill="black"/>
<rect x="343.737" width="32" height="32" rx="16" fill="#CACACA"/>
<path d="M356.622 14.22C357.515 14.22 358.329 14.4 359.062 14.76C359.795 15.12 360.375 15.6333 360.802 16.3C361.229 16.9533 361.442 17.7133 361.442 18.58C361.442 19.5133 361.209 20.3333 360.742 21.04C360.275 21.7467 359.635 22.2933 358.822 22.68C358.022 23.0533 357.129 23.24 356.142 23.24C354.182 23.24 352.649 22.64 351.542 21.44C350.435 20.24 349.882 18.5267 349.882 16.3C349.882 14.7133 350.182 13.3533 350.782 12.22C351.382 11.0867 352.215 10.2267 353.282 9.64C354.362 9.05333 355.609 8.76 357.022 8.76C357.769 8.76 358.482 8.84667 359.162 9.02C359.855 9.18 360.442 9.41333 360.922 9.72L359.722 12.1C359.029 11.6333 358.155 11.4 357.102 11.4C355.915 11.4 354.975 11.7467 354.282 12.44C353.589 13.1333 353.215 14.14 353.162 15.46C353.989 14.6333 355.142 14.22 356.622 14.22ZM355.962 20.82C356.655 20.82 357.215 20.6333 357.642 20.26C358.082 19.8867 358.302 19.38 358.302 18.74C358.302 18.1 358.082 17.5933 357.642 17.22C357.215 16.8333 356.642 16.64 355.922 16.64C355.215 16.64 354.635 16.84 354.182 17.24C353.729 17.6267 353.502 18.1267 353.502 18.74C353.502 19.3533 353.722 19.8533 354.162 20.24C354.602 20.6267 355.202 20.82 355.962 20.82ZM367.94 12.12L370.12 13.3L369.14 14.94L366.94 13.64L366.98 16.06H365.1L365.12 13.62L362.92 14.94L361.96 13.3L364.14 12.12L361.96 10.92L362.92 9.28L365.12 10.6L365.1 8.16H366.98L366.94 10.6L369.14 9.28L370.12 10.92L367.94 12.12Z" fill="white"/>
<path d="M379.777 16.12H385.437V18.62H379.777V16.12ZM393.706 12.48H395.126V17.14H401.746V12.48H403.166V23H401.746V18.36H395.126V23H393.706V12.48ZM416.402 18.18H407.602C407.682 19.2733 408.102 20.16 408.862 20.84C409.622 21.5067 410.582 21.84 411.742 21.84C412.395 21.84 412.995 21.7267 413.542 21.5C414.089 21.26 414.562 20.9133 414.962 20.46L415.762 21.38C415.295 21.94 414.709 22.3667 414.002 22.66C413.309 22.9533 412.542 23.1 411.702 23.1C410.622 23.1 409.662 22.8733 408.822 22.42C407.995 21.9533 407.349 21.3133 406.882 20.5C406.415 19.6867 406.182 18.7667 406.182 17.74C406.182 16.7133 406.402 15.7933 406.842 14.98C407.295 14.1667 407.909 13.5333 408.682 13.08C409.469 12.6267 410.349 12.4 411.322 12.4C412.295 12.4 413.169 12.6267 413.942 13.08C414.715 13.5333 415.322 14.1667 415.762 14.98C416.202 15.78 416.422 16.7 416.422 17.74L416.402 18.18ZM411.322 13.62C410.309 13.62 409.455 13.9467 408.762 14.6C408.082 15.24 407.695 16.08 407.602 17.12H415.062C414.969 16.08 414.575 15.24 413.882 14.6C413.202 13.9467 412.349 13.62 411.322 13.62ZM429.9 12.74C430.873 12.74 431.74 12.96 432.5 13.4C433.273 13.8267 433.873 14.4333 434.3 15.22C434.726 15.9933 434.94 16.88 434.94 17.88C434.94 18.9067 434.713 19.82 434.26 20.62C433.82 21.4067 433.2 22.02 432.4 22.46C431.6 22.9 430.68 23.12 429.64 23.12C427.893 23.12 426.54 22.5067 425.58 21.28C424.62 20.0533 424.14 18.36 424.14 16.2C424.14 13.9467 424.566 12.22 425.42 11.02C426.286 9.82 427.633 9.00667 429.46 8.58L434.18 7.5L434.42 8.8L429.98 9.82C428.473 10.1533 427.366 10.7467 426.66 11.6C425.953 12.44 425.566 13.6867 425.5 15.34C425.926 14.5267 426.52 13.8933 427.28 13.44C428.04 12.9733 428.913 12.74 429.9 12.74ZM429.68 21.94C430.413 21.94 431.066 21.7733 431.64 21.44C432.226 21.0933 432.68 20.6133 433 20C433.333 19.3867 433.5 18.6933 433.5 17.92C433.5 17.1467 433.34 16.4667 433.02 15.88C432.7 15.2933 432.246 14.84 431.66 14.52C431.086 14.1867 430.426 14.02 429.68 14.02C428.933 14.02 428.266 14.1867 427.68 14.52C427.106 14.84 426.653 15.2933 426.32 15.88C426 16.4667 425.84 17.1467 425.84 17.92C425.84 18.6933 426 19.3867 426.32 20C426.653 20.6133 427.113 21.0933 427.7 21.44C428.286 21.7733 428.946 21.94 429.68 21.94ZM446.63 12.48L441.37 24.26C440.944 25.2467 440.45 25.9467 439.89 26.36C439.33 26.7733 438.657 26.98 437.87 26.98C437.364 26.98 436.89 26.9 436.45 26.74C436.01 26.58 435.63 26.34 435.31 26.02L435.97 24.96C436.504 25.4933 437.144 25.76 437.89 25.76C438.37 25.76 438.777 25.6267 439.11 25.36C439.457 25.0933 439.777 24.64 440.07 24L440.53 22.98L435.83 12.48H437.31L441.27 21.42L445.23 12.48H446.63ZM458.634 21.76V25.54H457.294V23H447.874V25.54H446.534V21.76H447.134C447.841 21.72 448.321 21.2 448.574 20.2C448.827 19.2 449.001 17.8 449.094 16L449.234 12.48H456.994V21.76H458.634ZM450.394 16.08C450.327 17.5733 450.201 18.8067 450.014 19.78C449.827 20.74 449.494 21.4 449.014 21.76H455.574V13.74H450.514L450.394 16.08ZM470.601 18.18H461.801C461.881 19.2733 462.301 20.16 463.061 20.84C463.821 21.5067 464.781 21.84 465.941 21.84C466.595 21.84 467.195 21.7267 467.741 21.5C468.288 21.26 468.761 20.9133 469.161 20.46L469.961 21.38C469.495 21.94 468.908 22.3667 468.201 22.66C467.508 22.9533 466.741 23.1 465.901 23.1C464.821 23.1 463.861 22.8733 463.021 22.42C462.195 21.9533 461.548 21.3133 461.081 20.5C460.615 19.6867 460.381 18.7667 460.381 17.74C460.381 16.7133 460.601 15.7933 461.041 14.98C461.495 14.1667 462.108 13.5333 462.881 13.08C463.668 12.6267 464.548 12.4 465.521 12.4C466.495 12.4 467.368 12.6267 468.141 13.08C468.915 13.5333 469.521 14.1667 469.961 14.98C470.401 15.78 470.621 16.7 470.621 17.74L470.601 18.18ZM465.521 13.62C464.508 13.62 463.655 13.9467 462.961 14.6C462.281 15.24 461.895 16.08 461.801 17.12H469.261C469.168 16.08 468.775 15.24 468.081 14.6C467.401 13.9467 466.548 13.62 465.521 13.62ZM480.696 13.74H476.716V23H475.296V13.74H471.316V12.48H480.696V13.74ZM494.683 17.56C496.11 17.8933 496.823 18.7533 496.823 20.14C496.823 21.06 496.483 21.7667 495.803 22.26C495.123 22.7533 494.11 23 492.763 23H487.983V12.48H492.623C493.823 12.48 494.763 12.7133 495.443 13.18C496.123 13.6467 496.463 14.3133 496.463 15.18C496.463 15.7533 496.303 16.2467 495.983 16.66C495.677 17.06 495.243 17.36 494.683 17.56ZM489.363 17.16H492.523C493.337 17.16 493.957 17.0067 494.383 16.7C494.823 16.3933 495.043 15.9467 495.043 15.36C495.043 14.7733 494.823 14.3333 494.383 14.04C493.957 13.7467 493.337 13.6 492.523 13.6H489.363V17.16ZM492.703 21.88C493.61 21.88 494.29 21.7333 494.743 21.44C495.197 21.1467 495.423 20.6867 495.423 20.06C495.423 19.4333 495.217 18.9733 494.803 18.68C494.39 18.3733 493.737 18.22 492.843 18.22H489.363V21.88H492.703ZM500.151 12.48H501.571V20.84L508.591 12.48H509.851V23H508.431V14.64L501.431 23H500.151V12.48ZM524.181 21.76V25.54H522.841V23H513.421V25.54H512.081V21.76H512.681C513.388 21.72 513.868 21.2 514.121 20.2C514.374 19.2 514.548 17.8 514.641 16L514.781 12.48H522.541V21.76H524.181ZM515.941 16.08C515.874 17.5733 515.748 18.8067 515.561 19.78C515.374 20.74 515.041 21.4 514.561 21.76H521.121V13.74H516.061L515.941 16.08ZM526.948 12.48H528.368V17.14H534.988V12.48H536.408V23H534.988V18.36H528.368V23H526.948V12.48ZM544.064 12.4C545.438 12.4 546.491 12.7467 547.224 13.44C547.958 14.12 548.324 15.1333 548.324 16.48V23H546.964V21.36C546.644 21.9067 546.171 22.3333 545.544 22.64C544.931 22.9467 544.198 23.1 543.344 23.1C542.171 23.1 541.238 22.82 540.544 22.26C539.851 21.7 539.504 20.96 539.504 20.04C539.504 19.1467 539.824 18.4267 540.464 17.88C541.118 17.3333 542.151 17.06 543.564 17.06H546.904V16.42C546.904 15.5133 546.651 14.8267 546.144 14.36C545.638 13.88 544.898 13.64 543.924 13.64C543.258 13.64 542.618 13.7533 542.004 13.98C541.391 14.1933 540.864 14.4933 540.424 14.88L539.784 13.82C540.318 13.3667 540.958 13.02 541.704 12.78C542.451 12.5267 543.238 12.4 544.064 12.4ZM543.564 21.98C544.364 21.98 545.051 21.8 545.624 21.44C546.198 21.0667 546.624 20.5333 546.904 19.84V18.12H543.604C541.804 18.12 540.904 18.7467 540.904 20C540.904 20.6133 541.138 21.1 541.604 21.46C542.071 21.8067 542.724 21.98 543.564 21.98ZM561.739 23.1C560.699 23.1 559.766 22.8733 558.939 22.42C558.126 21.9667 557.486 21.3333 557.019 20.52C556.552 19.6933 556.319 18.7667 556.319 17.74C556.319 16.7133 556.552 15.7933 557.019 14.98C557.486 14.1667 558.126 13.5333 558.939 13.08C559.766 12.6267 560.699 12.4 561.739 12.4C562.646 12.4 563.452 12.58 564.159 12.94C564.879 13.2867 565.446 13.8 565.859 14.48L564.799 15.2C564.452 14.68 564.012 14.2933 563.479 14.04C562.946 13.7733 562.366 13.64 561.739 13.64C560.979 13.64 560.292 13.8133 559.679 14.16C559.079 14.4933 558.606 14.9733 558.259 15.6C557.926 16.2267 557.759 16.94 557.759 17.74C557.759 18.5533 557.926 19.2733 558.259 19.9C558.606 20.5133 559.079 20.9933 559.679 21.34C560.292 21.6733 560.979 21.84 561.739 21.84C562.366 21.84 562.946 21.7133 563.479 21.46C564.012 21.2067 564.452 20.82 564.799 20.3L565.859 21.02C565.446 21.7 564.879 22.22 564.159 22.58C563.439 22.9267 562.632 23.1 561.739 23.1ZM579.568 21.76V25.64H578.228V23H568.608V12.48H570.028V21.76H576.448V12.48H577.868V21.76H579.568ZM591.48 18.18H582.68C582.76 19.2733 583.18 20.16 583.94 20.84C584.7 21.5067 585.66 21.84 586.82 21.84C587.474 21.84 588.074 21.7267 588.62 21.5C589.167 21.26 589.64 20.9133 590.04 20.46L590.84 21.38C590.374 21.94 589.787 22.3667 589.08 22.66C588.387 22.9533 587.62 23.1 586.78 23.1C585.7 23.1 584.74 22.8733 583.9 22.42C583.074 21.9533 582.427 21.3133 581.96 20.5C581.494 19.6867 581.26 18.7667 581.26 17.74C581.26 16.7133 581.48 15.7933 581.92 14.98C582.374 14.1667 582.987 13.5333 583.76 13.08C584.547 12.6267 585.427 12.4 586.4 12.4C587.374 12.4 588.247 12.6267 589.02 13.08C589.794 13.5333 590.4 14.1667 590.84 14.98C591.28 15.78 591.5 16.7 591.5 17.74L591.48 18.18ZM586.4 13.62C585.387 13.62 584.534 13.9467 583.84 14.6C583.16 15.24 582.774 16.08 582.68 17.12H590.14C590.047 16.08 589.654 15.24 588.96 14.6C588.28 13.9467 587.427 13.62 586.4 13.62ZM594.644 12.48H596.064V17.14H602.684V12.48H604.104V23H602.684V18.36H596.064V23H594.644V12.48ZM611.76 12.4C613.133 12.4 614.186 12.7467 614.92 13.44C615.653 14.12 616.02 15.1333 616.02 16.48V23H614.66V21.36C614.34 21.9067 613.866 22.3333 613.24 22.64C612.626 22.9467 611.893 23.1 611.04 23.1C609.866 23.1 608.933 22.82 608.24 22.26C607.546 21.7 607.2 20.96 607.2 20.04C607.2 19.1467 607.52 18.4267 608.16 17.88C608.813 17.3333 609.846 17.06 611.26 17.06H614.6V16.42C614.6 15.5133 614.346 14.8267 613.84 14.36C613.333 13.88 612.593 13.64 611.62 13.64C610.953 13.64 610.313 13.7533 609.7 13.98C609.086 14.1933 608.56 14.4933 608.12 14.88L607.48 13.82C608.013 13.3667 608.653 13.02 609.4 12.78C610.146 12.5267 610.933 12.4 611.76 12.4ZM611.26 21.98C612.06 21.98 612.746 21.8 613.32 21.44C613.893 21.0667 614.32 20.5333 614.6 19.84V18.12H611.3C609.5 18.12 608.6 18.7467 608.6 20C608.6 20.6133 608.833 21.1 609.3 21.46C609.766 21.8067 610.42 21.98 611.26 21.98Z" fill="black"/>
</svg>
