<svg width="257" height="37" viewBox="0 0 257 37" fill="none" xmlns="http://www.w3.org/2000/svg">
<path d="M8.45352 0.999998C9.58685 0.999998 10.6535 1.18333 11.6535 1.55C12.6535 1.91667 13.5202 2.43333 14.2535 3.1C15.0202 3.76667 15.6202 4.56667 16.0535 5.5C16.4868 6.4 16.7035 7.4 16.7035 8.5C16.7035 9.4 16.5535 10.25 16.2535 11.05C15.9535 11.8167 15.5368 12.5167 15.0035 13.15C14.4702 13.7833 13.8202 14.3167 13.0535 14.75C12.3202 15.15 11.5202 15.4333 10.6535 15.6C12.0202 15.6667 13.3202 15.9667 14.5535 16.5C15.7868 17.0333 16.8702 17.75 17.8035 18.65C18.7702 19.5167 19.5368 20.55 20.1035 21.75C20.6702 22.95 20.9535 24.25 20.9535 25.65C20.9535 27.25 20.6535 28.7 20.0535 30C19.4869 31.2667 18.6869 32.35 17.6535 33.25C16.6535 34.15 15.4702 34.8333 14.1035 35.3C12.7702 35.7667 11.3368 36 9.80352 36H0.103516V0.999998H8.45352ZM1.85352 35.5H9.85352C11.2535 35.5 12.5202 35.25 13.6535 34.75C14.7868 34.2167 15.7702 33.5 16.6035 32.6C17.4368 31.7 18.0702 30.65 18.5035 29.45C18.9702 28.25 19.2035 26.9833 19.2035 25.65C19.2035 24.35 18.9535 23.1167 18.4535 21.95C17.9868 20.75 17.3368 19.7167 16.5035 18.85C15.6702 17.9833 14.6702 17.3 13.5035 16.8C12.3702 16.2667 11.1368 16 9.80352 16H1.85352V35.5ZM1.85352 15.5H9.10352C9.97018 15.5 10.7535 15.2833 11.4535 14.85C12.1868 14.4167 12.8035 13.8667 13.3035 13.2C13.8368 12.5 14.2368 11.7333 14.5035 10.9C14.8035 10.0667 14.9535 9.25 14.9535 8.45C14.9535 7.58333 14.8202 6.73333 14.5535 5.9C14.2868 5.06666 13.8868 4.33333 13.3535 3.7C12.8202 3.03333 12.1535 2.5 11.3535 2.1C10.5869 1.7 9.70352 1.5 8.70352 1.5H1.85352V15.5ZM24.9836 36L44.9336 1.5L46.6836 0.649999V36H44.9336V19.95H34.9336L25.5836 36H24.9836ZM35.1836 19.45H44.9336V2.7L35.1836 19.45ZM52.6914 36V1.65L54.4414 0.85V36H52.9914H52.6914ZM52.6914 36V1.65L54.4414 0.85V36H52.9914H52.6914ZM74.3914 36H53.8914V35.5H74.3914V36ZM79.4004 36V1.65L81.1504 0.85V36H79.7004H79.4004ZM79.4004 36V1.65L81.1504 0.85V36H79.7004H79.4004ZM101.1 36H80.6004V35.5H101.1V36ZM106.109 36V0.999998H117.309C118.843 0.933332 120.193 1.11667 121.359 1.55C122.559 1.98333 123.559 2.58333 124.359 3.35C125.159 4.11666 125.759 5.01666 126.159 6.05C126.593 7.08333 126.809 8.16667 126.809 9.3C126.809 10.4333 126.559 11.5167 126.059 12.55C125.593 13.5833 124.926 14.4833 124.059 15.25C123.226 15.9833 122.226 16.5667 121.059 17C119.926 17.4 118.676 17.5833 117.309 17.55H114.259H107.909L107.859 36H106.109ZM107.909 17.05H117.359C118.693 17.05 119.843 16.8167 120.809 16.35C121.776 15.8833 122.576 15.2833 123.209 14.55C123.843 13.7833 124.309 12.95 124.609 12.05C124.943 11.1167 125.109 10.2 125.109 9.3C125.109 8.36666 124.959 7.45 124.659 6.55C124.359 5.61666 123.876 4.78333 123.209 4.05C122.576 3.28333 121.759 2.66666 120.759 2.2C119.759 1.73333 118.593 1.5 117.259 1.5H107.859L107.909 17.05ZM116.909 17.45L117.459 17.3L129.059 36H128.459L116.909 17.45ZM151.689 0.499998C154.189 0.533331 156.539 1.03333 158.739 2C160.939 2.93333 162.856 4.21667 164.489 5.85C166.122 7.48333 167.406 9.38333 168.339 11.55C169.306 13.7167 169.789 16.05 169.789 18.55C169.789 21.0833 169.306 23.45 168.339 25.65C167.372 27.85 166.056 29.7667 164.389 31.4C162.722 33.0333 160.789 34.3333 158.589 35.3C156.389 36.2333 154.039 36.7167 151.539 36.75C148.972 36.7833 146.556 36.3333 144.289 35.4C142.056 34.4333 140.106 33.1333 138.439 31.5C136.772 29.8667 135.456 27.95 134.489 25.75C133.522 23.55 133.039 21.2 133.039 18.7C133.039 16.2 133.522 13.85 134.489 11.65C135.456 9.41667 136.772 7.48333 138.439 5.85C140.139 4.18333 142.122 2.86666 144.389 1.9C146.656 0.933332 149.089 0.466665 151.689 0.499998ZM151.539 36.15C153.906 36.15 156.072 35.7 158.039 34.8C160.039 33.9 161.756 32.6833 163.189 31.15C164.656 29.6167 165.806 27.8333 166.639 25.8C167.472 23.7667 167.906 21.6 167.939 19.3C167.972 16.9333 167.572 14.65 166.739 12.45C165.939 10.25 164.806 8.31667 163.339 6.65C161.872 4.98333 160.106 3.65 158.039 2.65C156.006 1.61667 153.756 1.1 151.289 1.1C148.956 1.1 146.789 1.56667 144.789 2.5C142.789 3.4 141.039 4.63333 139.539 6.2C138.072 7.76667 136.922 9.61667 136.089 11.75C135.289 13.8833 134.889 16.15 134.889 18.55C134.889 20.95 135.306 23.2167 136.139 25.35C137.006 27.4833 138.172 29.35 139.639 30.95C141.139 32.55 142.906 33.8167 144.939 34.75C146.972 35.6833 149.172 36.15 151.539 36.15ZM191.679 0.499998C194.179 0.533331 196.529 1.03333 198.729 2C200.929 2.93333 202.846 4.21667 204.479 5.85C206.113 7.48333 207.396 9.38333 208.329 11.55C209.296 13.7167 209.779 16.05 209.779 18.55C209.779 21.0833 209.296 23.45 208.329 25.65C207.363 27.85 206.046 29.7667 204.379 31.4C202.713 33.0333 200.779 34.3333 198.579 35.3C196.379 36.2333 194.029 36.7167 191.529 36.75C188.963 36.7833 186.546 36.3333 184.279 35.4C182.046 34.4333 180.096 33.1333 178.429 31.5C176.763 29.8667 175.446 27.95 174.479 25.75C173.513 23.55 173.029 21.2 173.029 18.7C173.029 16.2 173.513 13.85 174.479 11.65C175.446 9.41667 176.763 7.48333 178.429 5.85C180.129 4.18333 182.113 2.86666 184.379 1.9C186.646 0.933332 189.079 0.466665 191.679 0.499998ZM191.529 36.15C193.896 36.15 196.063 35.7 198.029 34.8C200.029 33.9 201.746 32.6833 203.179 31.15C204.646 29.6167 205.796 27.8333 206.629 25.8C207.463 23.7667 207.896 21.6 207.929 19.3C207.963 16.9333 207.563 14.65 206.729 12.45C205.929 10.25 204.796 8.31667 203.329 6.65C201.863 4.98333 200.096 3.65 198.029 2.65C195.996 1.61667 193.746 1.1 191.279 1.1C188.946 1.1 186.779 1.56667 184.779 2.5C182.779 3.4 181.029 4.63333 179.529 6.2C178.063 7.76667 176.913 9.61667 176.079 11.75C175.279 13.8833 174.879 16.15 174.879 18.55C174.879 20.95 175.296 23.2167 176.129 25.35C176.996 27.4833 178.163 29.35 179.629 30.95C181.129 32.55 182.896 33.8167 184.929 34.75C186.963 35.6833 189.163 36.15 191.529 36.15ZM213.851 36L233.901 1.65L235.651 0.85V35.05L255.151 1.65L256.901 0.85V36H255.151V2.55L235.651 36H233.901V2.55L214.401 36H213.851Z" fill="#BB8E4D"/>
</svg>
