<svg width="236" height="271" viewBox="0 0 236 271" fill="none" xmlns="http://www.w3.org/2000/svg">
<path d="M223.276 12.1574C223.509 12.1574 223.743 11.9236 223.743 11.6898C223.977 11.456 223.977 10.9885 223.977 10.5209C224.211 9.35189 225.146 8.4167 226.081 8.18291C226.315 8.18291 226.782 7.9491 227.016 7.9491C227.25 7.9491 227.484 7.7153 227.484 7.2477C227.484 7.01391 227.25 6.78012 227.016 6.78012C227.016 6.78012 226.782 6.78011 226.315 6.54631C225.146 6.31251 224.211 5.37733 223.977 4.20835C223.977 3.74076 223.743 3.27319 223.743 2.8056C223.743 2.5718 223.509 2.33801 223.276 2.33801C223.042 2.33801 222.808 2.5718 222.808 2.8056C222.574 3.03939 222.574 3.50696 222.574 4.20835C222.34 5.37733 221.405 6.31251 220.236 6.54631C219.769 6.54631 219.535 6.78012 219.535 6.78012C219.301 6.78012 219.067 7.01391 219.067 7.2477C219.067 7.4815 219.301 7.7153 219.535 7.9491C219.769 7.9491 220.002 8.18291 220.47 8.18291C221.639 8.4167 222.34 9.35189 222.574 10.5209C222.574 10.9885 222.808 11.456 222.808 11.6898C222.808 11.9236 223.042 12.1574 223.276 12.1574ZM224.912 7.2477C224.211 7.7153 223.509 8.4167 223.042 9.35189C222.574 8.4167 222.107 7.7153 221.171 7.2477C221.873 6.78011 222.574 6.07874 223.042 5.14356C223.509 6.31253 224.211 7.01391 224.912 7.2477Z" fill="#BB8E4D"/>
<path d="M4.20821 23.6135C4.442 23.6135 4.67583 23.3797 4.67583 23.1459C4.90962 22.9121 4.90957 22.4445 4.90957 21.9769C5.14336 20.8079 6.0786 19.8728 7.01379 19.639C7.24758 19.639 7.71509 19.4052 7.94888 19.4052C8.18268 19.4052 8.4165 19.1714 8.4165 18.7038C8.4165 18.47 8.18268 18.2362 7.94888 18.2362C7.94888 18.2362 7.71512 18.2362 7.24752 18.0024C6.07855 17.7686 5.14336 16.8334 4.90957 15.6644C4.90957 15.1968 4.67583 14.7292 4.67583 14.2617C4.67583 14.0279 4.442 13.7941 4.20821 13.7941C3.97441 13.7941 3.74059 14.0279 3.74059 14.2617C3.50679 14.4954 3.50685 14.9631 3.50685 15.6644C3.27305 16.8334 2.33787 17.7686 1.16889 18.0024C0.701298 18.0024 0.467389 18.2362 0.467389 18.2362C0.233593 18.2362 -8.86917e-05 18.47 -8.86917e-05 18.7038C-8.86917e-05 18.9376 0.233593 19.1714 0.467389 19.4052C0.701184 19.4052 0.935037 19.639 1.40263 19.639C2.57161 19.8728 3.27305 20.8079 3.50685 21.9769C3.50685 22.4445 3.74059 22.9121 3.74059 23.1459C3.74059 23.3797 3.97441 23.6135 4.20821 23.6135ZM6.07855 18.7038C5.37716 19.1714 4.6758 19.8728 4.20821 20.8079C3.74062 19.8728 3.27305 19.1714 2.33787 18.7038C3.03926 18.2362 3.74062 17.5348 4.20821 16.5996C4.6758 17.7686 5.37716 18.47 6.07855 18.7038Z" fill="#BB8E4D"/>
<path d="M153.838 179.321C154.071 179.321 154.305 179.088 154.305 178.854C154.539 178.62 154.539 178.152 154.539 177.685C154.773 176.516 155.708 175.581 156.643 175.347C156.877 175.347 157.344 175.113 157.578 175.113C157.812 175.113 158.046 174.879 158.046 174.412C158.046 174.178 157.812 173.944 157.578 173.944C157.578 173.944 157.345 173.944 156.877 173.71C155.708 173.476 154.773 172.541 154.539 171.372C154.539 170.905 154.305 170.437 154.305 169.97C154.305 169.736 154.071 169.502 153.838 169.502C153.604 169.502 153.37 169.736 153.37 169.97C153.136 170.203 153.136 170.671 153.136 171.372C152.902 172.541 151.967 173.476 150.798 173.71C150.331 173.71 150.097 173.944 150.097 173.944C149.863 173.944 149.629 174.178 149.629 174.412C149.629 174.645 149.863 174.879 150.097 175.113C150.331 175.113 150.564 175.347 151.032 175.347C152.201 175.581 152.902 176.516 153.136 177.685C153.136 178.152 153.37 178.62 153.37 178.854C153.37 179.088 153.604 179.321 153.838 179.321ZM155.708 174.645C155.007 175.113 154.305 175.814 153.838 176.75C153.37 175.814 152.902 175.113 151.967 174.645C152.669 174.178 153.37 173.476 153.838 172.541C154.305 173.476 155.007 174.178 155.708 174.645Z" fill="#BB8E4D"/>
<path d="M179.788 165.06C180.022 165.06 180.256 164.826 180.256 164.592C180.49 164.125 180.723 163.19 180.957 162.488C181.425 160.15 183.295 158.046 185.399 157.579C185.867 157.345 186.568 157.345 187.036 157.111C187.27 157.111 187.503 156.877 187.503 156.41C187.503 156.176 187.27 155.942 187.036 155.942C187.036 155.942 186.568 155.942 185.867 155.708C183.295 155.241 181.425 153.136 180.957 150.798C180.723 149.863 180.49 149.162 180.256 148.461C180.256 148.227 180.022 147.993 179.788 147.993C179.554 147.993 179.321 148.227 179.321 148.461C179.087 149.162 178.853 149.863 178.619 150.798C178.152 153.37 176.281 155.241 173.943 155.708C173.242 155.942 172.774 155.942 172.774 155.942C172.541 155.942 172.307 156.176 172.307 156.41C172.307 156.643 172.541 156.877 172.774 157.111C173.242 157.345 173.71 157.345 174.411 157.579C176.749 158.046 178.385 160.15 178.853 162.488C179.087 163.423 179.321 164.125 179.554 164.592C179.321 165.06 179.554 165.06 179.788 165.06ZM184.464 156.643C182.126 157.579 180.256 159.683 179.788 162.021C179.321 159.449 177.45 157.345 175.112 156.643C177.684 155.708 179.321 153.604 179.788 151.032C180.256 153.604 182.126 155.708 184.464 156.643Z" fill="#BB8E4D"/>
<path d="M81.8287 108.481C82.0625 108.481 82.2962 108.247 82.2962 108.014C82.53 107.546 82.7639 106.611 82.9977 105.909C83.4653 103.571 85.3356 101.701 87.4397 101C87.9073 100.766 88.6087 100.766 89.0763 100.532C89.3101 100.532 89.5439 100.298 89.5439 99.8307C89.5439 99.5969 89.3101 99.3631 89.0763 99.3631C89.0763 99.3631 88.6087 99.3631 87.9073 99.1293C85.3356 98.6617 83.4653 96.5576 82.9977 94.2196C82.7639 93.2844 82.53 92.583 82.2962 91.8816C82.2962 91.6479 82.0625 91.4141 81.8287 91.4141C81.5949 91.4141 81.3611 91.6479 81.3611 91.8816C81.1273 92.583 80.8935 93.2844 80.6597 94.2196C80.1921 96.7914 78.3217 98.6617 75.7499 99.1293C75.0485 99.3631 74.581 99.3631 74.581 99.3631C74.3472 99.3631 74.1133 99.5969 74.1133 99.8307C74.1133 100.065 74.3472 100.298 74.581 100.532C75.0485 100.766 75.5162 100.766 76.2176 101C78.5555 101.467 80.1921 103.571 80.6597 105.909C80.8935 106.845 81.1273 107.546 81.3611 108.014C81.3611 108.481 81.5949 108.481 81.8287 108.481ZM86.5046 100.065C84.1667 101 82.2963 103.104 81.8287 105.442C81.3611 102.87 79.4908 100.766 77.1528 100.065C79.7246 99.1293 81.3611 97.0252 81.8287 94.4534C82.2963 97.0252 84.1667 99.1293 86.5046 100.065Z" fill="#BB8E4D"/>
<path d="M43.2516 41.6157C43.4854 41.6157 43.7191 41.3819 43.7191 41.1481C44.1866 40.2129 44.4205 38.8102 44.6543 37.4074C45.5895 32.9653 48.6288 29.4584 52.8371 28.5232C53.7723 28.2894 54.7075 28.0556 55.4088 27.588C55.6426 27.588 55.8765 27.3542 55.8765 26.8866C55.8765 26.6528 55.6426 26.419 55.4088 26.419C55.4088 26.419 54.7075 26.1852 53.5385 25.9514C49.0964 25.0162 45.5895 21.5093 44.6543 16.8334C44.4205 15.1968 43.9529 13.794 43.4853 12.8589C43.4853 12.6251 43.2515 12.3912 43.0177 12.3912C42.7839 12.3912 42.5501 12.6251 42.5501 12.8589C42.0825 13.794 41.8487 15.1968 41.3811 16.8334C40.6797 21.2755 37.1729 25.0162 32.7308 25.9514C31.5618 26.1852 30.6265 26.419 30.6265 26.419C30.3927 26.419 30.1589 26.6528 30.1589 26.8866C30.1589 27.1204 30.3927 27.3542 30.6265 27.588C31.3279 27.8218 32.2631 28.2894 33.1982 28.5232C37.4066 29.6921 40.6797 33.1991 41.3811 37.4074C41.6149 39.044 42.0825 40.2129 42.3163 41.1481C42.7839 41.3819 42.784 41.6157 43.2516 41.6157ZM53.0709 27.1204C52.8371 27.1204 52.8372 27.1204 52.6034 27.1204C47.9275 28.2894 44.4205 32.2639 43.4853 36.9398C43.4853 37.6412 43.2515 38.1088 43.0177 38.8102C42.7839 38.3426 42.7839 37.6412 42.5501 36.9398C41.6149 32.0301 38.108 28.2894 33.4321 27.1204C33.1983 27.1204 33.1983 27.1204 32.9645 27.1204C37.8742 25.9514 41.6149 22.2107 42.5501 17.0672C42.7839 16.3658 42.7839 15.6644 43.0177 14.963C43.2515 15.6644 43.2515 16.132 43.4853 17.0672C44.4205 22.2107 48.1612 25.9514 53.0709 27.1204Z" fill="#BB8E4D"/>
<path d="M205.272 270.969C205.505 270.969 205.739 270.736 205.739 270.502C206.207 269.567 206.441 268.164 206.674 266.761C207.609 262.319 210.649 258.812 214.857 257.877C215.792 257.643 216.728 257.409 217.429 256.942C217.663 256.942 217.896 256.708 217.896 256.24C217.896 256.006 217.663 255.773 217.429 255.773C217.429 255.773 216.728 255.539 215.559 255.305C211.116 254.37 207.609 250.863 206.674 246.187C206.441 244.55 205.973 243.148 205.505 242.212C205.505 241.979 205.272 241.745 205.038 241.745C204.804 241.745 204.57 241.979 204.57 242.212C204.103 243.148 203.869 244.55 203.401 246.187C202.7 250.629 199.193 254.37 194.751 255.305C193.582 255.539 192.647 255.773 192.647 255.773C192.413 255.773 192.179 256.006 192.179 256.24C192.179 256.474 192.413 256.708 192.647 256.942C193.348 257.175 194.283 257.643 195.218 257.877C199.427 259.046 202.7 262.553 203.401 266.761C203.635 268.398 204.103 269.567 204.336 270.502C204.804 270.736 205.038 270.969 205.272 270.969ZM215.091 256.708C214.857 256.708 214.857 256.708 214.623 256.708C209.948 257.877 206.441 261.851 205.505 266.527C205.505 267.229 205.272 267.696 205.038 268.398C204.804 267.93 204.804 267.229 204.57 266.527C203.635 261.618 200.128 257.877 195.452 256.708C195.218 256.708 195.218 256.708 194.985 256.708C199.894 255.539 203.635 251.798 204.57 246.655C204.804 245.953 204.804 245.252 205.038 244.55C205.272 245.252 205.272 245.719 205.505 246.655C206.441 251.564 210.181 255.539 215.091 256.708Z" fill="#BB8E4D"/>
<path d="M228.184 108.481C228.418 108.481 228.652 108.247 228.652 108.014C228.886 107.546 229.119 106.611 229.353 105.909C229.821 103.571 231.691 101.701 233.795 101C234.263 100.766 234.964 100.766 235.432 100.532C235.666 100.532 235.899 100.298 235.899 99.8307C235.899 99.5969 235.666 99.3631 235.432 99.3631C235.432 99.3631 234.964 99.3631 234.263 99.1293C231.691 98.6617 229.821 96.5576 229.353 94.2196C229.119 93.2844 228.886 92.583 228.652 91.8816C228.652 91.6479 228.418 91.4141 228.184 91.4141C227.95 91.4141 227.717 91.6479 227.717 91.8816C227.483 92.583 227.249 93.2844 227.015 94.2196C226.548 96.7914 224.677 98.6617 222.106 99.1293C221.404 99.3631 220.937 99.3631 220.937 99.3631C220.703 99.3631 220.469 99.5969 220.469 99.8307C220.469 100.065 220.703 100.298 220.937 100.532C221.404 100.766 221.872 100.766 222.573 101C224.911 101.467 226.548 103.571 227.015 105.909C227.249 106.845 227.483 107.546 227.717 108.014C227.717 108.481 227.95 108.481 228.184 108.481ZM233.094 100.065C230.756 101 228.886 103.104 228.418 105.442C227.95 102.87 226.08 100.766 223.742 100.065C226.314 99.1293 227.95 97.0252 228.418 94.4534C228.886 97.0252 230.522 99.1293 233.094 100.065Z" fill="#BB8E4D"/>
<path d="M93.9844 5.84493H97.4914C97.7252 5.84493 98.1929 5.61112 98.1929 5.14353C98.1929 4.90974 97.959 4.44214 97.4914 4.44214H93.9844C93.7506 4.44214 93.2831 4.67594 93.2831 5.14353C93.2831 5.37733 93.5168 5.84493 93.9844 5.84493Z" fill="#BB8E4D"/>
<path d="M88.843 5.84493H92.3499C92.5837 5.84493 93.0513 5.61112 93.0513 5.14353C93.0513 4.90974 92.8175 4.44214 92.3499 4.44214H88.843C88.6092 4.44214 88.1415 4.67594 88.1415 5.14353C88.1415 5.37733 88.3754 5.84493 88.843 5.84493Z" fill="#BB8E4D"/>
<path d="M93.0506 4.67592C93.2844 4.67592 93.752 4.44211 93.752 3.97452V0.701359C93.752 0.467563 93.5182 0 93.0506 0C92.8168 0 92.3492 0.233767 92.3492 0.701359V3.97452C92.583 4.44211 92.8168 4.67592 93.0506 4.67592Z" fill="#BB8E4D"/>
<path d="M93.0506 10.0534C93.2844 10.0534 93.752 9.81959 93.752 9.352V6.07884C93.752 5.84504 93.5182 5.37744 93.0506 5.37744C92.8168 5.37744 92.3492 5.61124 92.3492 6.07884V9.352C92.583 9.81959 92.8168 10.0534 93.0506 10.0534Z" fill="#BB8E4D"/>
<path d="M93.0505 8.18277C93.2843 8.18277 93.7519 7.94896 93.7519 7.48137C93.7519 6.77998 93.7518 5.84481 93.9856 5.84481C94.2194 5.61101 94.9209 5.611 95.3885 5.611C95.6223 5.611 96.0898 5.37719 96.0898 4.9096C96.0898 4.67581 95.8561 4.20821 95.3885 4.20821C94.9209 4.20821 93.9856 4.20823 93.9856 3.97443C93.7518 3.74064 93.7519 2.80546 93.7519 2.33787C93.7519 2.10407 93.5181 1.63647 93.0505 1.63647C92.8167 1.63647 92.3492 1.87028 92.3492 2.33787C92.3492 3.03926 92.3491 3.97443 92.1153 3.97443C91.8815 4.20823 91.1802 4.20821 90.7126 4.20821C90.4788 4.20821 90.0112 4.44201 90.0112 4.9096C90.0112 5.1434 90.245 5.611 90.7126 5.611C91.1802 5.611 92.1153 5.61101 92.1153 5.84481C92.3491 6.0786 92.3492 7.01378 92.3492 7.48137C92.583 7.94896 92.8167 8.18277 93.0505 8.18277Z" fill="#BB8E4D"/>
<path d="M78.3211 55.8773H84.3997C84.6335 55.8773 85.1011 55.6435 85.1011 55.1759C85.1011 54.9421 84.8673 54.4745 84.3997 54.4745H78.3211C78.0873 54.4745 77.6196 54.7083 77.6196 55.1759C77.8534 55.6435 78.0873 55.8773 78.3211 55.8773Z" fill="#BB8E4D"/>
<path d="M69.4371 55.8773H75.5159C75.7497 55.8773 76.2173 55.6435 76.2173 55.1759C76.2173 54.9421 75.9835 54.4745 75.5159 54.4745H69.4371C69.2034 54.4745 68.7358 54.7083 68.7358 55.1759C68.7358 55.6435 68.9696 55.8773 69.4371 55.8773Z" fill="#BB8E4D"/>
<path d="M76.9178 54.0068C77.1516 54.0068 77.6191 53.773 77.6191 53.3054V47.4605C77.6191 47.2267 77.3854 46.7592 76.9178 46.7592C76.684 46.7592 76.2164 46.9929 76.2164 47.4605V53.3054C76.4502 53.773 76.684 54.0068 76.9178 54.0068Z" fill="#BB8E4D"/>
<path d="M76.9178 63.3586C77.1516 63.3586 77.6191 63.1248 77.6191 62.6572V56.8123C77.6191 56.5785 77.3854 56.111 76.9178 56.111C76.684 56.111 76.2164 56.3447 76.2164 56.8123V62.6572C76.4502 63.1248 76.684 63.3586 76.9178 63.3586Z" fill="#BB8E4D"/>
<path d="M76.9183 60.0856C77.1521 60.0856 77.6197 59.8518 77.6197 59.3842C77.6197 55.6435 77.6197 55.6435 80.8929 55.6435C81.1267 55.6435 81.5942 55.4097 81.5942 54.9421C81.5942 54.7083 81.3605 54.2407 80.8929 54.2407C77.6197 54.2407 77.6197 54.2407 77.6197 50.5C77.6197 50.2662 77.3859 49.7986 76.9183 49.7986C76.6845 49.7986 76.217 50.0324 76.217 50.5C76.217 54.2407 76.2169 54.2407 72.9438 54.2407C72.71 54.2407 72.2424 54.4745 72.2424 54.9421C72.2424 55.1759 72.4762 55.6435 72.9438 55.6435C76.2169 55.6435 76.217 55.6435 76.217 59.3842C76.4508 59.8518 76.6845 60.0856 76.9183 60.0856ZM77.3859 55.1759C77.1521 55.1759 77.1522 55.4097 77.1522 55.6435C77.1522 55.4097 76.9184 55.4097 76.6846 55.1759C76.9184 55.1759 76.9184 54.9421 77.1522 54.7083C77.1522 54.9421 77.1521 55.1759 77.3859 55.1759Z" fill="#BB8E4D"/>
<path d="M120.638 138.641H124.145C124.379 138.641 124.846 138.407 124.846 137.939C124.846 137.706 124.612 137.238 124.145 137.238H120.638C120.404 137.238 119.937 137.472 119.937 137.939C120.17 138.407 120.404 138.641 120.638 138.641Z" fill="#BB8E4D"/>
<path d="M115.494 138.641H119.001C119.235 138.641 119.703 138.407 119.703 137.939C119.703 137.706 119.469 137.238 119.001 137.238H115.494C115.261 137.238 114.793 137.472 114.793 137.939C115.027 138.407 115.261 138.641 115.494 138.641Z" fill="#BB8E4D"/>
<path d="M119.937 137.472C120.171 137.472 120.639 137.238 120.639 136.771V133.498C120.639 133.264 120.405 132.796 119.937 132.796C119.704 132.796 119.236 133.03 119.236 133.498V136.771C119.236 137.238 119.704 137.472 119.937 137.472Z" fill="#BB8E4D"/>
<path d="M119.937 142.849C120.171 142.849 120.639 142.615 120.639 142.148V138.875C120.639 138.641 120.405 138.173 119.937 138.173C119.704 138.173 119.236 138.407 119.236 138.875V142.148C119.236 142.615 119.704 142.849 119.937 142.849Z" fill="#BB8E4D"/>
<path d="M119.937 140.979C120.171 140.979 120.639 140.745 120.639 140.278C120.639 139.576 120.639 138.641 120.872 138.641C121.106 138.407 121.808 138.407 122.275 138.407C122.509 138.407 122.977 138.173 122.977 137.706C122.977 137.472 122.743 137.004 122.275 137.004C121.808 137.004 120.872 137.004 120.872 136.771C120.639 136.537 120.639 135.602 120.639 135.134C120.639 134.9 120.405 134.433 119.937 134.433C119.703 134.433 119.236 134.666 119.236 135.134C119.236 135.835 119.236 136.771 119.002 136.771C118.768 137.004 118.067 137.004 117.599 137.004C117.365 137.004 116.898 137.238 116.898 137.706C116.898 137.94 117.132 138.407 117.599 138.407C118.067 138.407 119.002 138.407 119.002 138.641C119.236 138.875 119.236 139.81 119.236 140.278C119.236 140.745 119.703 140.979 119.937 140.979Z" fill="#BB8E4D"/>
<path d="M19.405 53.5394H22.9119C23.1457 53.5394 23.6133 53.3056 23.6133 52.838C23.6133 52.6042 23.3795 52.1366 22.9119 52.1366H19.405C19.1712 52.1366 18.7036 52.3704 18.7036 52.838C18.7036 53.3056 18.9374 53.5394 19.405 53.5394Z" fill="#BB8E4D"/>
<path d="M14.0272 53.5394H17.7679C18.0017 53.5394 18.4692 53.3056 18.4692 52.838C18.4692 52.6042 18.2355 52.1366 17.7679 52.1366H14.2609C14.0271 52.1366 13.5596 52.3704 13.5596 52.838C13.5596 53.3056 13.7934 53.5394 14.0272 53.5394Z" fill="#BB8E4D"/>
<path d="M18.4691 52.3704C18.7028 52.3704 19.1704 52.1366 19.1704 51.669V48.3959C19.1704 48.1621 18.9366 47.6945 18.4691 47.6945C18.2353 47.6945 17.7677 47.9283 17.7677 48.3959V51.669C17.7677 52.1366 18.2353 52.3704 18.4691 52.3704Z" fill="#BB8E4D"/>
<path d="M18.4691 57.9815C18.7028 57.9815 19.1704 57.7477 19.1704 57.2801V54.0069C19.1704 53.7731 18.9366 53.3055 18.4691 53.3055C18.2353 53.3055 17.7677 53.5393 17.7677 54.0069V57.2801C17.7677 57.5139 18.2353 57.9815 18.4691 57.9815Z" fill="#BB8E4D"/>
<path d="M18.469 56.1109C18.7028 56.1109 19.1703 55.8771 19.1703 55.4095C19.1703 54.7081 19.1704 53.7729 19.4042 53.7729C19.638 53.5391 20.3394 53.5391 20.8069 53.5391C21.0407 53.5391 21.5083 53.3053 21.5083 52.8377C21.5083 52.6039 21.2745 52.1363 20.8069 52.1363C20.3394 52.1363 19.4042 52.1363 19.4042 51.9025C19.1704 51.6687 19.1703 50.7336 19.1703 50.266C19.1703 50.0322 18.9366 49.5646 18.469 49.5646C18.2352 49.5646 17.7676 49.7984 17.7676 50.266C17.7676 50.9674 17.7677 51.9025 17.5339 51.9025C17.3001 52.1363 16.5986 52.1363 16.131 52.1363C15.8972 52.1363 15.4297 52.3701 15.4297 52.8377C15.4297 53.0715 15.6634 53.5391 16.131 53.5391C16.5986 53.5391 17.5339 53.5391 17.5339 53.7729C17.7677 54.0067 17.7676 54.9419 17.7676 55.4095C17.7676 55.6433 18.2352 56.1109 18.469 56.1109Z" fill="#BB8E4D"/>
<path d="M210.182 199.662H216.494C216.728 199.662 217.196 199.428 217.196 198.96C217.196 198.493 216.962 198.259 216.494 198.259H210.416C210.182 198.259 209.714 198.493 209.714 198.96C209.714 199.428 209.948 199.662 210.182 199.662Z" fill="#BB8E4D"/>
<path d="M201.297 199.662H207.375C207.609 199.662 208.077 199.428 208.077 198.96C208.077 198.493 207.843 198.259 207.375 198.259H201.297C201.063 198.259 200.595 198.493 200.595 198.96C200.595 199.428 201.063 199.662 201.297 199.662Z" fill="#BB8E4D"/>
<path d="M208.78 197.791C209.013 197.791 209.481 197.557 209.481 197.09V191.479C209.481 191.245 209.247 190.777 208.78 190.777C208.546 190.777 208.078 191.011 208.078 191.479V197.324C208.312 197.557 208.546 197.791 208.78 197.791Z" fill="#BB8E4D"/>
<path d="M208.78 207.143C209.013 207.143 209.481 206.909 209.481 206.442V200.831C209.481 200.597 209.247 200.129 208.78 200.129C208.546 200.129 208.078 200.363 208.078 200.831V206.675C208.312 206.909 208.546 207.143 208.78 207.143Z" fill="#BB8E4D"/>
<path d="M208.78 203.87C209.014 203.87 209.481 203.636 209.481 203.169C209.481 199.428 209.482 199.428 212.755 199.428C212.988 199.428 213.456 199.194 213.456 198.727C213.456 198.493 213.222 198.025 212.755 198.025C209.482 198.025 209.481 198.025 209.481 194.284C209.481 194.051 209.248 193.583 208.78 193.583C208.546 193.583 208.079 193.817 208.079 194.284C208.079 198.025 208.079 198.025 204.806 198.025C204.572 198.025 204.104 198.259 204.104 198.727C204.104 198.96 204.338 199.428 204.806 199.428C208.079 199.428 208.079 199.428 208.079 203.169C208.313 203.636 208.546 203.87 208.78 203.87ZM209.248 198.96C209.014 198.96 209.014 199.194 209.014 199.428C209.014 199.194 208.78 199.194 208.78 198.96C209.014 198.96 209.014 198.727 209.014 198.493C209.014 198.727 209.014 198.96 209.248 198.96Z" fill="#BB8E4D"/>
<path d="M222.806 150.331H228.885C229.119 150.331 229.586 150.097 229.586 149.629C229.586 149.395 229.353 148.928 228.885 148.928H222.806C222.573 148.928 222.105 149.162 222.105 149.629C222.105 150.097 222.339 150.331 222.806 150.331Z" fill="#BB8E4D"/>
<path d="M213.69 150.331H219.768C220.002 150.331 220.47 150.097 220.47 149.629C220.47 149.395 220.236 148.928 219.768 148.928H213.69C213.456 148.928 212.988 149.162 212.988 149.629C212.988 150.097 213.456 150.331 213.69 150.331Z" fill="#BB8E4D"/>
<path d="M221.403 148.46C221.637 148.46 222.104 148.227 222.104 147.759V141.914C222.104 141.68 221.871 141.213 221.403 141.213C221.169 141.213 220.702 141.447 220.702 141.914V147.759C220.702 148.227 220.935 148.46 221.403 148.46Z" fill="#BB8E4D"/>
<path d="M221.403 157.812C221.637 157.812 222.104 157.578 222.104 157.111V151.266C222.104 151.032 221.871 150.565 221.403 150.565C221.169 150.565 220.702 150.798 220.702 151.266V157.111C220.702 157.578 220.935 157.812 221.403 157.812Z" fill="#BB8E4D"/>
<path d="M221.404 154.539C221.637 154.539 222.105 154.305 222.105 153.838C222.105 150.097 222.105 150.097 225.378 150.097C225.612 150.097 226.08 149.863 226.08 149.395C226.08 149.162 225.846 148.694 225.378 148.694C222.105 148.694 222.105 148.694 222.105 144.953C222.105 144.72 221.871 144.252 221.404 144.252C221.17 144.252 220.702 144.486 220.702 144.953C220.702 148.694 220.702 148.694 217.429 148.694C217.195 148.694 216.728 148.928 216.728 149.395C216.728 149.629 216.962 150.097 217.429 150.097C220.702 150.097 220.702 150.097 220.702 153.838C220.702 154.305 220.936 154.539 221.404 154.539ZM221.638 149.629C221.404 149.629 221.404 149.863 221.404 150.097C221.404 149.863 221.17 149.863 221.17 149.629C221.404 149.629 221.404 149.395 221.404 149.162C221.404 149.395 221.404 149.629 221.638 149.629Z" fill="#BB8E4D"/>
<path d="M161.319 87.9074C174.879 87.9074 185.633 76.919 185.633 63.5926C185.633 50.0325 174.645 39.2778 161.319 39.2778C147.758 39.2778 137.004 50.2663 137.004 63.5926C136.77 76.919 147.758 87.9074 161.319 87.9074ZM161.319 40.213C174.177 40.213 184.464 50.7338 184.464 63.3588C184.464 76.2176 173.944 86.5046 161.319 86.5046C148.46 86.5046 138.173 75.9838 138.173 63.3588C137.939 50.7338 148.46 40.213 161.319 40.213Z" fill="#BB8E4D"/>
<path d="M161.32 34.1342C161.553 34.1342 162.021 33.9004 162.021 33.4328V3.03937C162.021 2.80558 161.787 2.33801 161.32 2.33801C161.086 2.33801 160.618 2.57178 160.618 3.03937V33.4328C160.618 33.9004 160.852 34.1342 161.32 34.1342Z" fill="#BB8E4D"/>
<path d="M161.32 124.379C161.553 124.379 162.021 124.146 162.021 123.678V93.2845C162.021 93.0507 161.787 92.5831 161.32 92.5831C161.086 92.5831 160.618 92.8169 160.618 93.2845V123.678C160.618 124.146 160.852 124.379 161.32 124.379Z" fill="#BB8E4D"/>
<path d="M100.766 64.0601H131.159C131.393 64.0601 131.86 63.8263 131.86 63.3587C131.86 63.1249 131.627 62.6573 131.159 62.6573H100.766C100.532 62.6573 100.064 62.8912 100.064 63.3587C100.298 63.8263 100.532 64.0601 100.766 64.0601Z" fill="#BB8E4D"/>
<path d="M191.245 64.0601H221.638C221.872 64.0601 222.34 63.8263 222.34 63.3587C222.34 63.1249 222.106 62.6573 221.638 62.6573H191.245C191.011 62.6573 190.544 62.8912 190.544 63.3587C190.544 63.8263 190.777 64.0601 191.245 64.0601Z" fill="#BB8E4D"/>
<path d="M140.044 43.0183C140.278 43.0183 140.278 43.0183 140.512 42.7845C140.745 42.5507 140.745 42.0832 140.512 41.8494L125.315 26.6526C125.081 26.4188 124.613 26.4188 124.38 26.6526C124.146 26.8864 124.146 27.354 124.38 27.5878L139.576 42.7845C139.81 42.7845 139.81 43.0183 140.044 43.0183Z" fill="#BB8E4D"/>
<path d="M197.557 100.532C197.791 100.532 197.791 100.532 198.024 100.298C198.258 100.065 198.258 99.5971 198.024 99.3633L182.828 84.1666C182.594 83.9328 182.126 83.9328 181.893 84.1666C181.659 84.4004 181.659 84.8679 181.893 85.1017L197.089 100.298C197.323 100.532 197.557 100.532 197.557 100.532Z" fill="#BB8E4D"/>
<path d="M124.847 100.532C125.081 100.532 125.081 100.532 125.315 100.298L140.512 85.1017C140.745 84.8679 140.745 84.4004 140.512 84.1666C140.278 83.9328 139.81 83.9328 139.576 84.1666L124.38 99.3633C124.146 99.5971 124.146 100.065 124.38 100.298C124.613 100.532 124.614 100.532 124.847 100.532Z" fill="#BB8E4D"/>
<path d="M182.36 43.0183C182.594 43.0183 182.594 43.0183 182.828 42.7845L198.024 27.5878C198.258 27.354 198.258 26.8864 198.024 26.6526C197.791 26.4188 197.323 26.4188 197.089 26.6526L181.893 41.8494C181.659 42.0832 181.659 42.5507 181.893 42.7845C182.126 42.7845 182.36 43.0183 182.36 43.0183Z" fill="#BB8E4D"/>
<path d="M150.096 36.2384C150.564 36.0047 150.797 35.7708 150.564 35.3032L142.615 15.4306C142.381 15.1968 142.147 14.963 141.913 15.1968C141.679 15.4306 141.446 15.6644 141.679 15.8982L149.628 35.7708C149.628 36.2384 149.862 36.2384 150.096 36.2384Z" fill="#BB8E4D"/>
<path d="M180.489 111.754C180.957 111.521 181.191 111.287 180.957 110.819L173.008 90.9465C172.774 90.7127 172.54 90.4789 172.307 90.7127C172.073 90.9465 171.839 91.1803 172.073 91.4141L180.022 111.287C180.022 111.754 180.256 111.754 180.489 111.754Z" fill="#BB8E4D"/>
<path d="M113.391 83.2312C113.625 83.2312 113.625 83.2312 113.391 83.2312L133.498 75.2822C133.731 75.0484 133.965 74.8146 133.731 74.5808C133.497 74.347 133.264 74.1132 133.03 74.347L113.157 82.296C112.923 82.5298 112.69 82.7636 112.924 82.9974C112.924 83.2312 113.157 83.2312 113.391 83.2312Z" fill="#BB8E4D"/>
<path d="M189.14 52.8378L209.246 44.8887C209.48 44.6549 209.714 44.4211 209.48 44.1873C209.246 43.9535 209.012 43.7197 208.778 43.9535L188.906 51.9026C188.672 52.1364 188.438 52.3702 188.672 52.604C188.672 52.8378 188.906 52.8378 189.14 52.8378Z" fill="#BB8E4D"/>
<path d="M133.729 52.3702C133.963 52.3702 134.197 52.1364 134.197 51.9026C134.431 51.6688 134.197 51.2012 133.963 51.2012L114.324 42.7846C114.091 42.5508 113.623 42.7846 113.623 43.0184C113.389 43.2522 113.623 43.7198 113.857 43.7198L133.496 52.1364C133.496 52.3702 133.496 52.3702 133.729 52.3702Z" fill="#BB8E4D"/>
<path d="M208.544 84.1666C208.778 84.1666 209.012 83.9328 209.012 83.699C209.246 83.4652 209.012 82.9976 208.778 82.9976L189.139 74.581C188.906 74.3472 188.438 74.581 188.438 74.8148C188.204 75.0486 188.438 75.5161 188.672 75.5161L208.311 83.9328C208.311 84.1666 208.544 84.1666 208.544 84.1666Z" fill="#BB8E4D"/>
<path d="M140.978 111.521C141.212 111.521 141.446 111.287 141.446 111.053L149.862 91.4141C150.096 91.1803 149.862 90.7127 149.628 90.7127C149.395 90.4789 148.927 90.7127 148.927 90.9465L140.51 110.585C140.277 110.819 140.51 111.287 140.744 111.287C140.978 111.521 140.978 111.521 140.978 111.521Z" fill="#BB8E4D"/>
<path d="M173.008 36.4722C173.242 36.4722 173.476 36.2384 173.476 36.0046L181.892 16.3657C182.126 16.1319 181.892 15.6644 181.659 15.6644C181.425 15.4306 180.957 15.6643 180.957 15.8981L172.541 35.537C172.307 35.7708 172.541 36.2384 172.774 36.2384C172.774 36.4722 173.008 36.4722 173.008 36.4722Z" fill="#BB8E4D"/>
<path d="M136.769 46.7591C137.003 46.7591 137.237 46.7591 137.237 46.5253C137.47 46.2915 137.47 45.8239 137.003 45.5901L127.885 39.0438C127.651 38.81 127.183 38.81 126.95 39.2776C126.716 39.5114 126.716 39.979 127.183 40.2128L136.301 46.7591C136.535 46.7591 136.535 46.7591 136.769 46.7591Z" fill="#BB8E4D"/>
<path d="M194.985 87.907C195.219 87.907 195.452 87.9071 195.452 87.6733C195.686 87.4395 195.686 86.9719 195.219 86.7381L186.101 80.1918C185.867 79.958 185.399 79.958 185.165 80.4256C184.931 80.6594 184.932 81.127 185.399 81.3608L194.517 87.907C194.751 87.907 194.751 87.907 194.985 87.907Z" fill="#BB8E4D"/>
<path d="M137.472 97.7267C137.706 97.7267 137.939 97.7267 137.939 97.4929L144.486 88.3749C144.719 88.1411 144.719 87.6735 144.252 87.4397C144.018 87.2059 143.55 87.2059 143.317 87.6735L136.77 96.7915C136.537 97.0253 136.537 97.4929 137.004 97.7267C137.238 97.7267 137.238 97.7267 137.472 97.7267Z" fill="#BB8E4D"/>
<path d="M178.619 39.5115C178.852 39.5115 179.086 39.5115 179.086 39.2777L185.633 30.1597C185.866 29.9259 185.866 29.4583 185.399 29.2245C185.165 28.9907 184.697 28.9907 184.464 29.4583L177.917 38.5763C177.684 38.8101 177.683 39.2777 178.151 39.5115C178.385 39.5115 178.385 39.5115 178.619 39.5115Z" fill="#BB8E4D"/>
<path d="M131.86 57.9814C132.093 57.9814 132.327 57.7476 132.561 57.5138C132.561 57.28 132.327 56.8124 132.094 56.8124L121.105 54.4745C120.871 54.4745 120.404 54.7083 120.404 54.9421C120.404 55.1759 120.637 55.6435 120.871 55.6435L131.86 57.9814Z" fill="#BB8E4D"/>
<path d="M201.53 72.4767C201.764 72.4767 201.998 72.2428 202.232 72.009C202.232 71.7752 201.998 71.3077 201.764 71.3077L190.776 68.9697C190.542 68.9697 190.075 69.2035 190.075 69.4373C190.075 69.6711 190.308 70.1387 190.542 70.1387L201.53 72.4767Z" fill="#BB8E4D"/>
<path d="M152.902 104.507C153.135 104.507 153.369 104.273 153.603 104.039L155.941 93.0507C155.941 92.8169 155.707 92.3494 155.473 92.3494C155.24 92.3494 154.772 92.5832 154.772 92.8169L152.434 103.805C152.2 104.039 152.434 104.273 152.902 104.507Z" fill="#BB8E4D"/>
<path d="M167.397 34.8355C167.631 34.8355 167.865 34.6017 168.099 34.3679L170.437 23.3795C170.437 23.1457 170.203 22.6781 169.969 22.6781C169.735 22.6781 169.268 22.9119 169.268 23.1457L166.93 34.1341C166.696 34.3679 166.93 34.6017 167.397 34.8355C167.163 34.8355 167.163 34.8355 167.397 34.8355Z" fill="#BB8E4D"/>
<path d="M120.638 71.0739L131.861 69.2035C132.094 69.2035 132.328 68.7359 132.328 68.5021C132.328 68.2683 131.861 68.0345 131.627 68.0345L120.638 69.9049C120.405 69.9049 120.171 70.3725 120.171 70.6063C119.937 70.8401 120.405 71.0739 120.638 71.0739Z" fill="#BB8E4D"/>
<path d="M190.777 59.1503L202 57.2799C202.233 57.2799 202.467 56.8123 202.467 56.5785C202.467 56.3448 202 56.111 201.766 56.111L190.777 57.9813C190.544 57.9813 190.31 58.4489 190.31 58.6827C190.31 58.9165 190.544 59.1503 190.777 59.1503Z" fill="#BB8E4D"/>
<path d="M168.098 104.741C168.332 104.741 168.332 104.741 168.098 104.741C168.566 104.741 168.799 104.273 168.799 104.039L166.929 93.0507C166.929 92.8169 166.461 92.5831 166.228 92.5831C165.994 92.5831 165.76 93.0507 165.76 93.2845L167.63 104.273C167.63 104.507 167.864 104.741 168.098 104.741Z" fill="#BB8E4D"/>
<path d="M156.176 34.6017C156.643 34.6017 156.877 34.1341 156.877 33.9004L155.007 22.9119C155.007 22.6781 154.539 22.4443 154.305 22.4443C154.071 22.4443 153.838 22.9119 153.838 23.1457L155.708 34.1341C155.708 34.3679 155.942 34.6017 156.176 34.6017Z" fill="#BB8E4D"/>
<path d="M144.719 39.0439H144.953C145.186 38.8101 145.42 38.5763 145.186 38.1087L139.108 28.7569C138.874 28.5231 138.64 28.2893 138.172 28.5231C137.939 28.7569 137.705 28.9907 137.939 29.4583L144.017 38.8101C144.485 38.8101 144.719 39.0439 144.719 39.0439Z" fill="#BB8E4D"/>
<path d="M183.763 98.6618H183.996C184.23 98.4281 184.464 98.1942 184.23 97.7266L178.152 88.3748C177.918 88.141 177.684 87.9072 177.216 88.141C176.983 88.3748 176.749 88.6086 176.983 89.0762L183.061 98.428C183.295 98.428 183.529 98.6618 183.763 98.6618Z" fill="#BB8E4D"/>
<path d="M126.716 86.738H126.949L136.301 80.6594C136.535 80.4256 136.769 80.1918 136.535 79.7242C136.301 79.4904 136.067 79.2566 135.6 79.4904L126.248 85.5691C126.014 85.8029 125.78 86.0367 126.014 86.5043C126.248 86.5043 126.482 86.738 126.716 86.738Z" fill="#BB8E4D"/>
<path d="M186.334 47.6943H186.568L195.919 41.6155C196.153 41.3818 196.387 41.148 196.153 40.6804C195.919 40.4466 195.686 40.2128 195.218 40.4466L185.866 46.5253C185.632 46.7591 185.399 46.9929 185.632 47.4604C185.866 47.6942 186.1 47.6943 186.334 47.6943Z" fill="#BB8E4D"/>
<path d="M161.319 87.9072C167.866 87.9072 173.944 85.3354 178.62 80.6595C178.854 80.4257 178.854 80.1919 178.62 79.9581C178.386 79.7243 178.153 79.7243 177.919 79.9581C174.646 82.2961 170.671 83.6988 166.463 83.6988C155.474 83.6988 146.59 74.8146 146.59 63.8262C146.59 52.8378 155.474 43.9535 166.463 43.9535C170.671 43.9535 174.646 45.1225 177.919 47.6943C178.153 47.9281 178.62 47.9281 178.62 47.6943C178.854 47.4605 178.854 46.9929 178.62 46.9929C173.944 42.317 167.866 39.7452 161.319 39.7452C147.759 39.7452 137.004 50.7336 137.004 64.06C136.771 76.9188 147.759 87.9072 161.319 87.9072ZM173.009 83.4651C169.502 85.5692 165.528 86.7382 161.319 86.7382C148.46 86.7382 138.173 76.2174 138.173 63.5924C138.173 50.7336 148.694 40.4466 161.319 40.4466C165.528 40.4466 169.502 41.6156 173.009 43.7198C170.905 43.0184 168.567 42.5508 166.463 42.5508C154.773 42.5508 145.421 51.9026 145.421 63.5924C145.421 75.2822 154.773 84.634 166.463 84.634C168.567 84.634 170.905 84.1664 173.009 83.4651Z" fill="#BB8E4D"/>
</svg>
