<svg width="275" height="243" viewBox="0 0 275 243" fill="none" xmlns="http://www.w3.org/2000/svg">
<g clip-path="url(#clip0_10_7941)">
<path d="M187.049 100.42C185.481 102.761 185.836 105.075 186.16 107.748C186.768 113.23 187.727 118.52 189.181 123.88C191.607 132.471 195.978 140.453 201.912 147.122C204.295 149.808 212.634 158.58 216.913 154.526C218.379 153.039 218.224 151.3 217.885 149.433C217.008 145.125 223.996 147.682 225.66 145.516C227.197 143.535 225.3 140.697 228.115 139.383C229.83 138.558 230.928 136.816 230.542 134.861C229.489 130.649 225.988 128.006 224.585 123.986C222.483 118.068 230.035 118.948 231.081 114.613C231.421 112.944 229.894 111.614 228.744 110.762C225.291 108.207 219.488 107.395 215.455 106.069C206.296 102.877 197.368 99.8994 187.615 99.9962C186.362 99.9984 186.525 101.961 187.77 101.736C196.163 99.9893 205.206 104.842 213.047 107.502C217.264 108.955 221.608 110.224 225.824 111.677C228.522 112.024 228.892 113.531 226.894 116.336C226.271 116.449 225.697 116.65 225.219 117.026C224.438 117.681 223.736 118.066 223.371 119.064C222.561 121.332 222.636 123.343 223.526 125.592C224.673 128.726 232.753 135.36 227.683 138.594C226.065 139.594 224.764 139.508 224.256 141.497C224.137 141.904 224.473 142.518 224.578 142.917C226.22 146.122 218.054 145.578 216.977 145.484C216.617 145.452 216.315 145.732 216.235 146.004C216.006 147.042 215.847 147.585 216.064 148.606C216.866 150.903 215.488 152.342 211.882 152.835C210.109 152.096 208.35 150.551 206.872 149.308C202.444 145.805 199.092 141.142 196.45 136.318C193.576 131.279 191.882 125.48 190.507 119.848C189.285 114.702 186.645 106.343 188.511 101.216C189.188 100.161 187.598 99.5493 187.049 100.42Z" fill="#DEDEDE"/>
<path d="M188.511 101.216C197.178 100.802 204.823 100.605 213.2 103.2C220.083 105.359 227.209 109.209 234.177 105.278C234.703 104.99 234.726 104.407 234.35 103.929C233.463 102.933 232.575 101.937 231.815 100.757C231.343 100.103 230.29 100.68 230.762 101.334C231.619 102.689 233.408 103.875 230.752 104.646C227.92 105.513 224.759 104.736 222.092 104.03C217.708 102.897 213.69 100.765 209.307 99.6313C202.751 97.863 194.857 97.3979 188.357 99.4764C187.431 99.869 187.53 101.297 188.511 101.216Z" fill="#DEDEDE"/>
<path d="M230.977 101.102C233.325 101.64 234.657 101.367 236.53 99.9986C237.008 99.6226 237.303 99.1193 236.966 98.5054C235.438 95.9223 237.858 97.2189 239.236 95.7799C241.093 93.965 238.398 91.3361 242.019 90.0368C244.803 89.0822 245.701 86.7662 244.26 84.135C243.347 82.4686 241.524 80.3888 244.33 78.8516C245.295 78.3231 245.638 77.9075 246.235 77.1244C247.174 75.9256 247.3 74.4888 247.289 73.0124C247.362 68.9819 243.287 66.5389 240.117 65.5388C230.423 62.4113 217.511 67.7731 209.332 72.8234C204.564 75.7766 200.373 79.7824 196.725 83.9468C194.965 85.9371 193.524 88.0945 192.083 90.2518C190.014 93.5516 189.192 97.8786 186.427 100.533C185.176 101.788 187.039 103.732 188.29 102.477C191.357 99.5429 192.403 95.2074 194.416 91.5965C196.851 87.2986 199.837 83.3827 203.47 80.0244C210.825 73.2597 219.98 69.1575 229.809 67.5361C232.211 67.1329 234.533 67.0011 236.951 67.0448C242.011 67.1237 250.315 73.7493 242.102 77.9057C240.738 78.5386 240.686 80.7334 241.223 81.9216C241.768 83.3333 244.999 87.1505 241.729 88.2576C240.405 88.7547 239.472 88.9239 238.484 90.035C237.839 90.7305 237.977 92.0231 238.01 92.9169C238.052 94.0342 234.821 95.0055 233.953 95.7094C233.65 95.9892 233.539 96.6199 233.731 96.9707C235.227 98.6601 234.367 99.5873 231.19 99.6168C230.48 99.7777 230.163 100.864 230.977 101.102Z" fill="#DEDEDE"/>
<path d="M216.248 153.522C219.427 159.534 223.082 154.34 228.396 154.051C232.059 153.869 235.008 151.342 234.107 147.617C233.765 148.032 233.335 148.496 233.04 148.999C235.283 149.139 238.292 149.429 240.262 148.236C241.441 147.476 243.885 143.402 244.866 143.32C246.741 143.205 249.527 143.504 251.041 142.104C254.029 139.441 252.722 135.597 255.614 132.759C259.669 128.713 261.316 126.101 260.021 120.197C259.008 115.849 255.506 111.953 261.054 108.344C262.585 107.391 265.264 106.038 265.635 104.01C265.976 102.341 265.917 100.777 264.614 99.4386C263.127 97.9728 261.467 97.8559 261.838 95.8281C261.98 94.8383 261.197 94.2411 261.475 93.2909C262.109 91.119 261.284 89.4045 259.925 87.7548C258.701 86.1448 260.049 81.5295 259.751 79.5269C259.483 77.165 258.107 75.0684 256.651 73.2433C254.819 70.9401 251.561 69.9881 249.26 68.2842C247.374 66.9228 245.657 66.4948 243.688 67.6874C242.636 68.2638 243.452 69.7548 244.553 69.2661C246.666 68.3366 250.279 71.6024 252.061 72.565C255.208 74.1477 256.96 76.7225 257.756 80.0491C258.335 82.3546 256.71 84.3846 257.057 86.4749C257.356 88.4776 259.67 92.9109 259.344 93.7734C259.177 94.093 259.194 94.5399 259.474 94.8427C259.587 95.465 259.612 96.1353 259.725 96.7576C259.47 97.1252 259.623 97.6118 259.99 97.8665C263.233 99.6246 264.51 103.828 261.146 106.013C260.141 106.677 259.089 107.254 258.084 107.918C256.904 108.678 255.965 109.877 255.568 111.234C255.092 112.863 255.558 114.546 256.151 116.046C257.665 119.435 258.956 122.833 258.069 126.625C257.372 129.515 253.768 131.261 252.295 133.778C251.834 134.601 251.788 135.766 251.598 136.668C250.982 140.54 247.8 141.599 244.935 141.572C244.129 141.558 243.059 141.687 242.638 142.374C239.875 146.282 237.538 147.22 233.14 146.892C232.286 146.79 231.697 147.796 232.13 148.586C232.658 149.551 220.684 157.249 218.186 152.688C217.505 151.237 215.576 152.294 216.248 153.522Z" fill="#DEDEDE"/>
<path d="M216.605 152.3C209.323 145.457 203.46 138.293 198.569 129.57C196.223 125.496 194.277 121.318 192.282 117.051C190.191 112.61 187.094 107.579 187.133 102.655C187.196 101.936 186.03 101.891 185.968 102.609C185.926 106.28 187.656 109.438 189.082 112.875C191.43 118.202 193.953 123.433 196.7 128.656C201.512 137.65 207.721 146.905 216.175 152.764C216.495 152.931 216.837 152.515 216.605 152.3Z" fill="#DEDEDE"/>
<path d="M187.068 102.12C193.506 118.661 204.074 133.168 216.665 145.54C216.945 145.843 217.511 145.419 217.183 145.029C204.496 132.481 195.22 117.836 187.77 101.736C187.569 101.162 186.868 101.546 187.068 102.12Z" fill="#DEDEDE"/>
<path d="M224.542 140.77C222.64 138.962 220.299 137.393 218.053 136.001C217.734 135.834 217.391 136.249 217.623 136.464C219.526 138.273 221.74 140.025 223.985 141.417C224.352 141.672 224.87 141.16 224.542 140.77Z" fill="#DEDEDE"/>
<path d="M214.127 131.538C210.328 126.892 206.051 122.622 201.949 118.256C197.567 113.586 191.845 108.967 188.722 103.267C188.386 102.653 187.645 103.173 187.845 103.747C190.04 108.588 194.748 112.394 198.378 116.107C203.455 121.421 208.317 126.967 213.737 131.866C213.929 132.217 214.319 131.889 214.127 131.538Z" fill="#DEDEDE"/>
<path d="M187.996 102.98C192.335 106.532 197.018 109.669 201.573 112.989C206.311 116.436 211.098 119.971 216.712 121.685C216.983 121.765 217.102 121.357 216.918 121.23C206.781 115.837 198.093 108.509 188.465 102.381C188.146 102.214 187.628 102.726 187.996 102.98Z" fill="#DEDEDE"/>
<path d="M218.935 115.337C214.309 112.511 209.5 109.559 204.452 107.421C204.132 107.254 203.886 107.845 204.206 108.012C208.704 111.021 213.76 113.382 218.68 115.704C218.952 115.783 219.119 115.464 218.935 115.337Z" fill="#DEDEDE"/>
<path d="M220.197 125.135C220.525 125.525 221.116 125.772 221.619 126.066C222.123 126.361 222.626 126.655 223.248 126.542C223.472 126.534 223.551 126.262 223.455 126.087C223.255 125.513 222.712 125.354 222.256 125.147C221.753 124.853 221.162 124.607 220.531 124.496C220.124 124.377 220.053 124.872 220.197 125.135Z" fill="#DEDEDE"/>
<path d="M189.284 100.337C191.621 99.3988 193.909 98.3732 196.254 97.6588C198.687 96.8964 201.233 96.7562 203.762 96.1692C204.161 96.0648 204.136 95.3944 203.689 95.4112C198.804 95.2361 193.013 97.1537 189.092 99.9858C188.916 100.082 189.06 100.345 189.284 100.337Z" fill="#DEDEDE"/>
<path d="M207.602 97.1441C216.071 97.4086 223.242 100.094 231.339 102.386C231.746 102.505 231.905 101.962 231.497 101.843C224.19 99.1183 215.58 95.0551 207.625 96.5615C207.178 96.5782 207.243 97.1128 207.602 97.1441Z" fill="#DEDEDE"/>
<path d="M189.029 100.704C193.867 92.4675 201.848 88.096 211.264 87.3852C220.681 86.6744 229.235 90.4264 237.86 93.6835C238.315 93.8902 238.689 93.1154 238.234 92.9087C223.4 85.1852 196.52 80.8666 188.534 100.633C188.271 100.777 188.862 101.024 189.029 100.704Z" fill="#DEDEDE"/>
<path d="M197.801 87.5763C199.459 86.4401 201.069 85.2162 202.447 83.7772C202.575 83.5934 202.382 83.2426 202.119 83.3867C200.326 84.4832 199.035 85.8742 197.569 87.3612C197.482 87.4092 197.674 87.76 197.801 87.5763Z" fill="#DEDEDE"/>
<path d="M207.457 82.5154C218.329 78.8412 231.337 78.4433 242.624 79.9001C243.119 79.971 243.182 79.2526 242.775 79.1336C237.169 77.643 230.746 78.197 225.024 78.3666C218.991 78.5926 213.031 79.5767 207.336 81.6697C206.762 81.8702 206.97 82.6679 207.457 82.5154Z" fill="#DEDEDE"/>
<path d="M214.532 75.448C218.775 74.0359 223.018 72.6239 227.414 71.6984C233.366 70.4909 238.827 71.7183 244.401 73.5681C244.944 73.7268 245.23 73 244.727 72.7056C234.861 67.3917 223.758 70.8508 214.204 75.0575C214.116 75.1056 214.308 75.4564 214.532 75.448Z" fill="#DEDEDE"/>
<path d="M237.73 120.092C237.787 120.404 237.436 120.596 237.173 120.74C237.971 120.531 238.48 119.796 238.271 118.998C238.11 118.288 237.327 117.691 236.529 117.9C235.556 118.205 234.871 119.036 234.865 120.065C234.851 120.872 235.458 121.565 236.265 121.579C237.023 121.506 237.716 120.898 237.73 120.092Z" fill="#DEDEDE"/>
<path d="M241.984 120.157C242.174 119.255 242.237 118.536 242.291 117.594C242.354 116.876 241.754 116.406 241.124 116.296C240.541 116.273 239.8 116.793 239.825 117.463C239.946 118.309 239.979 119.203 240.188 120C240.406 121.021 241.794 121.059 241.984 120.157Z" fill="#DEDEDE"/>
<path d="M238.413 113.22C239.139 113.506 239.914 113.879 240.553 114.214C241.144 114.46 241.902 114.387 242.236 113.748C242.619 113.196 242.41 112.399 241.771 112.065C240.764 111.476 239.415 111.302 238.306 111.568C237.508 111.777 237.598 112.982 238.413 113.22Z" fill="#DEDEDE"/>
<path d="M243.709 111.231C243.901 111.582 244.133 111.797 244.412 112.1C244.692 112.403 245.156 112.833 245.563 112.952C246.889 113.708 247.94 111.878 246.701 111.074C246.102 110.604 245.055 110.151 244.337 110.089C243.89 110.105 243.468 110.793 243.709 111.231Z" fill="#DEDEDE"/>
<path d="M240.916 107.174C240.659 106.288 240.713 105.346 240.281 104.557C239.753 103.592 238.245 103.962 238.151 105.04C238.145 106.069 238.673 107.034 239.193 107.775C239.722 108.74 241.133 108.195 240.916 107.174Z" fill="#DEDEDE"/>
<path d="M244.234 106.154C244.099 106.115 244.051 106.027 244.09 105.891C244.042 105.803 244.13 105.755 244.17 105.62C244.209 105.484 244.17 105.62 244.082 105.668C244.735 105.196 244.973 104.381 244.326 103.824C243.814 103.306 242.833 103.387 242.499 104.026C241.791 105.44 242.248 106.9 243.75 107.56C244.429 107.758 245.009 106.528 244.234 106.154Z" fill="#DEDEDE"/>
<path d="M242.532 100.132L242.484 100.044C242.492 100.267 242.54 100.355 242.549 100.578C242.549 100.578 242.668 100.171 242.54 100.355C242.572 99.9959 242.572 99.9959 242.453 100.403C242.54 100.355 242.58 100.219 242.707 100.036C242.962 99.668 242.849 99.0456 242.569 98.7429C242.106 98.3127 241.523 98.2898 241.093 98.7534C240.702 99.0813 240.592 99.712 240.792 100.286C240.936 100.549 241.033 100.725 241.264 100.94C241.448 101.067 241.807 101.099 241.943 101.138C242.438 101.209 242.772 100.57 242.532 100.132Z" fill="#DEDEDE"/>
<path d="M234.608 114.391C234.591 113.944 234.71 113.537 234.693 113.09C234.668 112.42 234.516 111.933 234.315 111.359C233.826 110.259 232.279 110.764 232.185 111.842C232.114 112.337 232.267 112.823 232.419 113.31C232.476 113.621 232.62 113.884 232.764 114.147C232.86 114.323 233.004 114.586 233.1 114.761C233.309 115.559 234.593 115.197 234.608 114.391Z" fill="#DEDEDE"/>
<path d="M237.529 109.941C237.337 109.59 237.232 109.191 237.088 108.928C236.848 108.49 236.616 108.275 236.161 108.068C235.57 107.822 234.925 108.517 235.125 109.091C235.334 109.889 236.157 110.35 236.796 110.685C237.212 111.027 237.769 110.38 237.529 109.941Z" fill="#DEDEDE"/>
<path d="M234.949 117.511C235.124 117.415 235.435 117.359 235.659 117.351C236.057 117.246 236.321 117.102 236.623 116.822C237.58 116.07 236.132 114.469 235.272 115.396C235.057 115.628 234.93 115.811 234.802 115.995C234.635 116.315 234.556 116.586 234.341 116.818C233.998 117.234 234.51 117.752 234.949 117.511Z" fill="#DEDEDE"/>
<path d="M230.732 120.847C231.211 120.471 231.737 120.183 232.071 119.544C232.572 118.585 231.229 117.382 230.457 118.261C229.987 118.861 229.828 119.404 229.59 120.218C229.392 120.897 230.254 121.223 230.732 120.847Z" fill="#DEDEDE"/>
<path d="M247.396 106.931C247.818 106.244 247.824 105.214 247.44 104.513C247.056 103.811 245.851 103.901 245.7 104.667C245.423 105.618 245.911 106.718 246.774 107.044C246.958 107.171 247.269 107.115 247.396 106.931Z" fill="#DEDEDE"/>
<path d="M246.033 117.141C246.296 116.997 246.695 116.892 246.958 116.748C247.445 116.596 247.844 116.491 248.282 116.251C249.111 115.683 248.886 114.438 247.808 114.344C246.731 114.251 245.687 115.05 244.954 115.794C244.308 116.489 245.108 117.534 246.033 117.141Z" fill="#DEDEDE"/>
<path d="M237.689 101.074C237.641 100.986 237.641 100.986 237.593 100.899C237.192 99.7501 235.684 100.12 235.774 101.325C235.822 101.412 235.822 101.412 235.783 101.548C236.096 102.745 238.178 102.175 237.689 101.074Z" fill="#DEDEDE"/>
<path d="M232.846 147.396C232.422 146.83 231.823 146.36 231.359 145.93C230.847 145.412 230.288 144.806 229.648 144.472C229.193 144.265 228.715 144.641 228.955 145.08C229.291 145.694 230.027 146.203 230.538 146.721C231.05 147.239 231.697 147.797 232.249 148.179C232.8 148.561 233.222 147.874 232.846 147.396Z" fill="#DEDEDE"/>
<path d="M243.212 142.174C242.07 141.545 240.84 140.965 239.649 140.249C239.465 140.121 239.163 140.401 239.394 140.616C240.33 141.7 241.568 142.504 242.966 142.765C243.373 142.884 243.667 142.381 243.212 142.174Z" fill="#DEDEDE"/>
<path d="M236.698 136.734C236.099 136.265 235.412 135.843 234.724 135.421C233.989 134.911 233.294 134.266 232.598 133.621C232.183 133.279 231.665 133.79 231.993 134.181C233.073 135.528 234.783 136.985 236.404 137.238C236.675 137.317 236.794 136.91 236.698 136.734Z" fill="#DEDEDE"/>
<path d="M255.035 130.453C254.642 129.528 253.5 128.9 252.669 128.215C251.838 127.53 250.958 126.757 250 126.256C249.545 126.049 249.114 126.513 249.442 126.903C250.234 127.724 251.153 128.361 252.072 128.998C252.903 129.683 253.83 130.543 254.868 130.773C255.004 130.812 254.995 130.589 255.035 130.453Z" fill="#DEDEDE"/>
<path d="M246.938 123.372C246.627 123.429 246.395 123.214 246.076 123.047C245.756 122.88 245.453 123.159 245.645 123.51C245.798 123.997 246.477 124.195 246.924 124.178C247.458 124.114 247.473 123.308 246.938 123.372Z" fill="#DEDEDE"/>
<path d="M260.341 97.6744C257.457 95.9476 253.704 94.9246 250.384 94.691C250.024 94.6597 249.953 95.1546 250.273 95.3217C251.814 95.8457 253.395 96.234 254.936 96.758C256.701 97.2737 258.338 97.9732 260.095 98.2654C260.406 98.209 260.612 97.7537 260.341 97.6744Z" fill="#DEDEDE"/>
<path d="M244.238 94.2948C245.131 94.2613 246.297 94.3072 247.038 93.7871C247.301 93.643 247.245 93.3318 246.973 93.2525C246.159 93.0145 244.962 93.3278 244.116 93.449C243.63 93.6015 243.703 94.3596 244.238 94.2948Z" fill="#DEDEDE"/>
<path d="M248.545 83.8403C250.946 83.437 253.15 83.7125 255.568 83.7562C255.927 83.7875 255.998 83.2925 255.679 83.1255C253.411 82.3154 250.69 82.5516 248.384 83.1302C247.801 83.1073 248.01 83.905 248.545 83.8403Z" fill="#DEDEDE"/>
<path d="M247.646 76.5791C247.607 76.7149 247.694 76.6668 247.646 76.5791V76.5791Z" fill="#DEDEDE"/>
<path d="M247.663 77.0261C249.753 76.6792 251.765 76.6039 253.776 76.5285C253.999 76.5202 254.118 76.1129 253.847 76.0336C251.723 75.4866 249.584 75.7457 247.454 76.2283C246.968 76.3808 247.129 77.0908 247.663 77.0261Z" fill="#DEDEDE"/>
<path d="M181.361 106.272C175.003 112.149 171.09 119.993 168.99 128.441C167.873 133.271 165.38 145.582 171.075 148.278C171.579 148.572 172.201 148.459 172.583 147.908C174.064 145.615 174.834 143.483 175.229 140.872C174.558 140.897 173.84 140.835 173.169 140.86C173.912 149.917 177.429 157.796 183.761 164.361C184.649 165.357 186.879 167.556 188.345 166.069C190.377 164.158 188.813 159.428 188.409 157.026C187.747 157.275 187.085 157.523 186.423 157.772C187.743 159.557 192.236 168.384 194.493 162.929C197.195 156.205 196.83 144.091 193.109 137.92C192.82 137.394 191.703 137.435 191.776 138.193C192.32 143.141 193.788 147.695 193.797 152.707C193.762 155.349 193.415 158.047 192.885 160.618C192.873 162.677 192.338 162.742 191.465 160.94C190.473 159.545 189.433 158.062 188.441 156.667C187.776 155.663 186.229 156.168 186.455 157.413C186.737 158.969 188.6 165.701 185.442 162.642C183.492 160.746 181.796 158.482 180.411 156.162C177.418 151.531 175.916 146.082 175.356 140.688C175.218 139.396 173.47 139.327 173.297 140.676C172.934 142.927 172.155 144.836 170.881 146.674C171.368 146.521 171.902 146.457 172.389 146.304C167.469 143.982 170.963 129.754 171.986 126.001C173.913 118.903 177.845 112.759 182.56 107.212C183.03 106.612 182.006 105.577 181.361 106.272Z" fill="#DEDEDE"/>
<path d="M184.207 104.599C184.471 104.455 184.734 104.311 185.045 104.255C185.396 104.062 185.786 103.734 186.041 103.367C186.559 102.855 187.244 102.024 186.811 101.235C186.715 101.059 186.531 100.932 186.356 101.028C185.734 101.141 185.535 101.819 185.153 102.371C184.986 102.69 184.731 103.058 184.564 103.377C184.397 103.697 184.23 104.017 184.015 104.248C183.752 104.392 184.032 104.695 184.207 104.599Z" fill="#DEDEDE"/>
<path d="M186.104 162.393C180.928 150.862 181.658 139.289 182.81 127.028C182.881 126.533 182.115 126.383 181.956 126.926C179.349 137.361 179.68 153.37 185.626 162.769C185.858 162.984 186.296 162.744 186.104 162.393Z" fill="#DEDEDE"/>
<path d="M183.338 123.204C183.879 117.321 185.01 111.685 186.181 105.913C186.3 105.506 185.709 105.259 185.502 105.714C184.35 108.398 184.02 111.543 183.459 114.473C182.985 117.355 182.287 120.245 182.755 123.181C182.86 123.58 183.259 123.476 183.338 123.204Z" fill="#DEDEDE"/>
<path d="M170.814 140.098C172.699 131.882 177.476 125.617 182.972 119.414C183.403 118.95 182.659 118.217 182.229 118.681C176.821 124.836 171.118 131.494 170.59 140.106C170.551 140.242 170.774 140.233 170.814 140.098Z" fill="#DEDEDE"/>
<path d="M189.926 134.19C189.443 132.06 188.562 130.035 187.68 128.009C187.135 126.597 186.55 125.321 185.917 123.958C185.284 122.594 184.19 122.053 183.724 120.37C183.668 120.059 183.133 120.124 183.19 120.435C182.994 122.367 184.879 123.728 185.656 125.355C187.018 128.258 187.854 131.448 189.527 134.295C189.671 134.558 189.934 134.414 189.926 134.19Z" fill="#DEDEDE"/>
<path d="M190.892 152.816C189.398 147.591 185.911 142.889 182.702 138.489C182.51 138.138 181.984 138.426 182.176 138.777C185.393 143.4 188.066 147.865 190.23 153.065C190.334 153.463 190.996 153.215 190.892 152.816Z" fill="#DEDEDE"/>
<path d="M178.853 150.403C178.921 148.655 179.262 146.986 179.554 145.23C179.894 143.562 180.122 141.271 181.508 140.055C181.723 139.823 181.491 139.608 181.268 139.617C179.664 139.811 179.485 142.19 179.128 143.411C178.541 145.671 178.314 147.962 178.358 150.332C178.414 150.643 178.773 150.674 178.853 150.403Z" fill="#DEDEDE"/>
<path d="M191.764 94.8733C191.716 94.7856 191.541 94.8817 191.589 94.9694C191.637 95.0571 191.812 94.961 191.764 94.8733Z" fill="#DEDEDE"/>
<path d="M205.672 61.1458C207.2 58.9404 212.536 56.8161 214.472 59.5182C216.264 61.9572 214.118 66.7814 213.316 69.2729C212.831 70.6784 215.003 71.313 215.488 69.9075C216.615 66.5536 219.141 59.9251 215.418 57.2899C211.83 54.6944 206.175 56.6516 203.794 60.0078C202.855 61.2065 204.868 62.3842 205.672 61.1458Z" fill="#DEDEDE"/>
<path d="M184.695 96.1227C180.771 92.9133 177.899 89.1274 175.41 84.7902C174.353 82.8606 173.423 80.7473 172.542 78.7217C172.053 77.6212 171.7 76.5604 171.212 75.4599C170.322 73.2108 172.913 67.1169 174.707 70.8089C175.235 71.7736 176.879 71.4435 176.837 70.3263C176.45 58.7946 180.87 48.9624 187.598 39.8046C189.214 37.5511 191.014 35.4251 193.238 33.8649C198.212 30.4563 202.42 36.4745 203.688 40.4548C205.671 46.7802 203.625 54.2858 203.556 60.8222C203.567 62.2987 205.762 62.3507 205.751 60.8743C205.761 52.7736 208.005 44.5893 204.672 36.8377C202.228 31.3352 196.063 29.239 191.177 32.5995C186.075 36.1919 182.177 43.2298 179.337 48.6618C175.829 55.3719 174.318 62.8127 174.554 70.3223C175.264 70.1615 175.975 70.0006 176.685 69.8397C174.122 64.7444 168.296 69.3037 168.455 73.5493C168.589 77.1245 171.118 81.326 172.624 84.4918C175.139 89.4993 178.579 94.1143 183.054 97.7058C184.117 98.6058 185.758 97.0227 184.695 96.1227Z" fill="#DEDEDE"/>
<path d="M190.367 94.6124C191.173 94.6269 192.471 83.8824 192.517 82.7171C192.859 77.513 192.395 72.2943 191.931 67.0756C191.043 56.5025 191.217 46.8293 196.093 37.2039C196.387 36.7006 195.7 36.2788 195.358 36.6944C189.856 43.9267 189.689 53.8233 190.191 62.4418C190.777 73.2947 192.423 83.7947 189.018 94.4392C188.978 94.5749 188.987 94.7983 189.171 94.9257C189.77 95.3955 189.682 95.4436 190.488 95.4581C190.935 95.4414 190.95 94.6353 190.367 94.6124Z" fill="#DEDEDE"/>
<path d="M190.738 87.7961C186.662 84.1001 183.001 80.7466 179.744 76.259C179.6 75.9959 179.162 76.2361 179.306 76.4992C181.541 81.204 185.524 85.9776 190.269 88.3955C190.588 88.5625 191.066 88.1866 190.738 87.7961Z" fill="#DEDEDE"/>
<path d="M191.058 87.9632C194.631 86.5762 197.266 82.8525 199.807 80.2064C202.221 77.7441 203.86 74.908 204.269 71.4915C204.261 71.268 203.902 71.2367 203.91 71.4602C202.975 75.1649 200.793 77.8424 198.164 80.5365C195.925 82.9028 193.672 86.0751 190.914 87.7001C190.603 87.7565 190.795 88.1073 191.058 87.9632Z" fill="#DEDEDE"/>
<path d="M191.833 65.6473C190.784 63.9413 189.473 62.3793 188.552 60.4895C187.447 58.4722 186.868 56.1668 186.561 53.9406C186.457 53.5418 185.834 53.6546 185.891 53.9657C186.05 58.2113 187.815 63.5155 191.618 65.8792C191.754 65.9188 191.929 65.8228 191.833 65.6473Z" fill="#DEDEDE"/>
<path d="M191.208 64.5072C194.209 59.7852 198.078 54.3594 198.172 48.4933C198.203 48.1341 197.66 47.9755 197.541 48.3827C196.098 54.0756 193.146 58.8852 190.569 64.1731C190.45 64.5803 191.002 64.9624 191.208 64.5072Z" fill="#DEDEDE"/>
<path d="M78.0868 150.866C83.9352 163.626 95.2005 175.242 105.401 184.705C106.792 185.996 110.659 188.894 112.547 186.72C113.917 185.058 114.464 182.934 112.315 181.717C111.356 181.215 110.6 182.542 111.471 183.091C122.826 191.124 136.208 194.739 150.094 193.861C153.174 193.656 161.586 193.61 162.696 189.809C164.204 184.651 156.226 177.162 152.901 174.423C152.567 175.062 152.097 175.661 151.763 176.3C155.388 177.507 159.036 173.343 157.115 169.834C153.608 163.432 145.557 159.974 138.866 158.166C139.067 158.741 139.267 159.315 139.555 159.841C145.607 151.738 129.374 147.289 124.495 146.085C113.07 143.335 100.981 144.37 89.3383 145.388C87.9098 145.486 87.8578 147.681 89.2862 147.583C97.274 146.97 105.262 146.358 113.243 146.775C116.787 147 143.602 150.784 137.59 158.751C137.12 159.351 137.601 160.228 138.279 160.426C141.353 161.251 144.26 162.395 147.136 163.898C148.095 164.399 149.014 165.036 149.885 165.585C150.668 166.183 151.451 166.78 152.234 167.377C154.527 168.857 154.659 171.18 152.446 174.216C151.447 173.851 150.428 175.321 151.308 176.094C153.801 178.148 164.674 188.84 157.311 190.592C152.077 191.863 146.579 192.024 141.287 191.73C131.063 191.173 120.944 187.48 112.499 181.844C112.204 182.347 111.91 182.851 111.655 183.218C110.603 183.795 109.511 184.507 108.458 185.083C107.355 184.319 106.292 183.419 105.405 182.423C104.014 181.132 102.711 179.794 101.32 178.503C98.6254 175.875 96.1464 173.014 93.6673 170.153C88.3332 163.953 84.1309 156.905 79.0119 150.474C78.5002 149.956 77.9824 150.468 78.0868 150.866Z" fill="#DEDEDE"/>
<path d="M65.4979 144.536C79.5334 142.891 92.2882 134.537 101.104 123.779C104.441 119.671 108.709 114.141 109.13 108.665C109.404 105.209 105.108 104.027 103.085 106.162C103.684 106.632 104.283 107.101 104.931 107.659C108.075 103.2 110.813 98.6222 113.047 93.75C114.08 91.4736 115.352 88.3828 114.406 85.8226C111.68 78.7643 102.532 86.6255 99.5999 89.5995C100.247 90.157 100.982 90.6665 101.678 91.3118C103.133 88.3483 116.087 66.2027 107.164 65.7314C103.037 65.4833 99.5481 69.1047 96.7353 71.6715C92.4086 75.6376 89.2014 80.8148 86.8963 86.182C87.7421 86.0608 88.5001 85.9876 89.3459 85.8664C87.4786 81.4164 84.4746 70.5197 78.5653 77.6331C73.771 83.4515 72.7087 92.1286 73.9184 99.3332C74.7558 98.9886 75.5055 98.692 76.3909 98.435C75.6056 96.5848 74.8057 95.5407 73.327 94.2983C72.6796 93.7408 71.6501 93.7346 71.2763 94.5094C62.611 109.289 62.8087 126.512 63.4282 143.047C63.4952 144.834 66.2727 144.909 66.2057 143.122C65.651 127.121 65.2862 110.218 73.5214 95.9021C72.851 95.9272 72.141 96.0881 71.4707 96.1132C72.7572 97.0048 73.6051 98.1366 74.1106 99.684C74.7038 101.183 76.7691 100.166 76.5831 98.7859C75.7202 93.6716 76.2544 88.8183 78.1774 84.0025C78.4634 83.2757 81.7936 75.4087 83.6358 79.1884C84.9413 81.7799 85.8959 84.5636 87.0259 87.2512C87.3705 88.0886 88.943 88.2534 89.3564 87.3429C92.0749 81.0651 95.9525 75.8628 101.204 71.504C102.033 70.936 102.814 70.2802 103.643 69.7121C105.333 68.2167 106.492 69.2921 107.073 72.8505C106.469 74.6632 105.594 76.3966 104.855 78.1697C103.17 82.1711 101.262 86.1808 99.3932 90.0548C98.725 91.3329 100.348 92.8384 101.471 91.767C103.025 90.232 104.499 88.9684 106.42 87.6881C108.46 86.0006 110.233 86.7397 111.835 90.0809C111.399 91.5741 110.779 92.9399 110.159 94.3057C108.219 98.6747 105.688 102.797 102.974 106.792C102.21 107.895 103.824 109.177 104.82 108.29C106.714 109.874 106.869 111.614 105.324 113.373C104.823 114.331 104.322 115.29 103.772 116.161C102.722 117.99 101.536 119.78 100.214 121.53C97.4915 125.302 94.0815 128.652 90.4794 131.651C83.0998 137.745 74.3667 141.16 65.1929 143.563C64.2907 143.373 64.6521 144.657 65.4979 144.536Z" fill="#DEDEDE"/>
<path d="M84.6898 147.934C91.1575 149.75 99.1908 143.184 104.261 139.951C111.906 134.965 119.031 129.238 126.3 123.775C134.222 117.839 142.473 112.294 151.636 108.415C162.075 103.951 173.033 103.765 184.134 103.841C185.659 103.918 185.702 101.5 184.178 101.423C175.039 101.183 166.093 101.295 157.278 103.728C148.727 106.018 140.89 110.652 133.556 115.582C117.757 126.288 103.482 141.859 84.7044 147.128C84.3055 147.232 84.2826 147.815 84.6898 147.934Z" fill="#DEDEDE"/>
<path d="M81.3235 148.865C75.0043 149.818 69.1885 151.065 62.6917 150.861C56.3306 150.697 50.1512 149.407 44.1304 147.574C37.3432 145.59 30.9213 142.609 24.5788 139.356C18.6039 136.357 12.9943 132.361 6.86069 129.905C6.40542 129.699 5.89592 130.434 6.31153 130.776C11.8982 135.356 18.7356 138.68 25.1658 141.885C31.5083 145.138 38.233 147.839 45.0682 149.91C56.2076 153.387 70.8636 155.165 81.7726 150.102C82.3866 149.765 81.9939 148.84 81.3235 148.865Z" fill="#DEDEDE"/>
<path d="M187.277 98.1293C171.021 89.4745 149.576 98.8257 135.729 107.892C116.159 120.664 97.468 143.785 72.0718 143.215C71.3534 143.153 71.3076 144.318 72.026 144.381C93.6548 144.734 110.053 129.709 126.009 117.207C135.533 109.824 145.433 102.919 157.015 99.084C167.312 95.6103 176.651 96.424 186.991 98.856C187.446 99.0627 187.732 98.336 187.277 98.1293Z" fill="#DEDEDE"/>
<path d="M63.3802 142.959C60.3123 141.105 56.0584 141.041 52.5854 140.32C47.9388 139.331 43.3632 137.847 38.9149 136.178C29.2916 132.556 21.8588 126.479 13.0707 121.259C12.3836 120.838 11.7467 121.756 12.1707 122.322C18.0561 128.904 27.3621 133.613 35.2771 137.031C40.189 139.129 45.2199 140.82 50.3698 142.104C54.2104 143.079 59.4167 144.674 63.2612 143.366C63.5723 143.31 63.564 143.087 63.3802 142.959Z" fill="#DEDEDE"/>
<path d="M159.369 185.816C133.263 180.618 108.281 170.814 85.8224 156.663C85.2711 156.281 84.7219 157.152 85.2733 157.534C107.956 171.676 132.849 181.529 159.171 186.495C159.666 186.566 159.864 185.887 159.369 185.816Z" fill="#DEDEDE"/>
<path d="M67.6672 139.129C72.1569 137.126 74.2888 133.108 76.0447 128.611C78.9051 121.344 81.0471 114.014 84.2751 107.001C90.4847 93.566 98.8432 81.3486 108.217 69.9435C108.559 69.5279 107.951 68.8346 107.609 69.2502C98.6634 78.9387 91.3322 89.9092 85.3272 101.636C82.4959 107.291 79.9841 113.114 77.8795 119.055C75.4096 125.995 74.1072 134.233 67.2829 138.427C66.8924 138.755 67.2287 139.369 67.6672 139.129Z" fill="#DEDEDE"/>
<path d="M106.15 179.62C104.068 175.402 102.184 170.505 99.2241 166.767C98.9442 166.464 98.418 166.753 98.6101 167.103C100.166 171.61 103.278 175.834 105.711 179.86C105.904 180.211 106.342 179.971 106.15 179.62Z" fill="#DEDEDE"/>
<path d="M136.584 190.429C134.967 187.894 133.175 185.455 131.296 183.064C130.168 181.629 129 180.331 127.785 178.944C125.354 176.171 123.988 175.551 128.399 173.819C135.194 171.238 142.712 171.224 149.049 167.183C149.576 166.895 149.183 165.97 148.569 166.306C140.579 170.454 131.217 170.223 123.468 174.81C123.117 175.002 123.046 175.497 123.278 175.712C128.098 180.141 132.106 185.585 136.106 190.805C136.465 190.836 136.768 190.557 136.584 190.429Z" fill="#DEDEDE"/>
<path d="M100.099 165.034C105.338 162.734 110.736 159.892 115.495 156.715C115.846 156.523 115.51 155.909 115.159 156.101C109.92 158.401 104.618 161.419 99.8587 164.595C99.6833 164.691 99.8755 165.042 100.099 165.034Z" fill="#DEDEDE"/>
<path d="M75.6877 129.833C80.6494 128.484 86.0308 125.194 89.5597 121.437C89.8625 121.157 89.4866 120.679 89.1357 120.871C86.9911 122.16 85.0784 123.663 82.9818 125.04C80.5344 126.608 77.8949 127.826 75.4475 129.394C75.2721 129.491 75.3765 129.889 75.6877 129.833Z" fill="#DEDEDE"/>
<path d="M74.8084 129.06C75.1734 123.274 71.5246 117.861 70.5489 112.125C70.5406 111.901 70.0456 111.83 69.9663 112.102C68.8432 117.962 73.9601 123.14 73.8666 129.006C73.9794 129.629 74.7855 129.643 74.8084 129.06Z" fill="#DEDEDE"/>
<path d="M83.1851 108.966C90.2831 106.104 97.4582 101.718 102.428 95.8036C102.683 95.436 102.355 95.0455 101.916 95.2857C95.7958 100.348 89.9698 104.908 82.8489 108.352C82.5461 108.632 82.8343 109.158 83.1851 108.966Z" fill="#DEDEDE"/>
<path d="M83.3729 106.811C83.8278 102.229 84.6251 97.2314 84.2739 92.635C84.2572 92.1881 83.5784 91.9898 83.4198 92.5328C82.518 97.1313 82.6625 102.183 82.5668 106.796C82.4959 107.291 83.3019 107.306 83.3729 106.811Z" fill="#DEDEDE"/>
</g>
<defs>
<clipPath id="clip0_10_7941">
<rect width="140.4" height="247.8" fill="white" transform="translate(67.6653 243) rotate(-118.711)"/>
</clipPath>
</defs>
</svg>
