<svg width="186" height="75" viewBox="0 0 186 75" fill="none" xmlns="http://www.w3.org/2000/svg">
<rect width="31.5789" height="31.5789" rx="15.7895" fill="#59B343"/>
<path d="M55.5473 21.479C54.421 21.479 53.3999 21.2369 52.4841 20.7526C51.5788 20.2579 50.8631 19.579 50.3367 18.7158C49.8209 17.8421 49.5631 16.8579 49.5631 15.7632C49.5631 14.6684 49.8209 13.6895 50.3367 12.8263C50.8631 11.9526 51.5788 11.2737 52.4841 10.7895C53.3999 10.2948 54.4262 10.0474 55.5631 10.0474C56.521 10.0474 57.3841 10.2158 58.1525 10.5526C58.9315 10.8895 59.5841 11.3737 60.1104 12.0053L58.4683 13.5211C57.721 12.6579 56.7946 12.2263 55.6894 12.2263C55.0052 12.2263 54.3946 12.379 53.8578 12.6842C53.321 12.979 52.8999 13.3948 52.5946 13.9316C52.2999 14.4684 52.1525 15.079 52.1525 15.7632C52.1525 16.4474 52.2999 17.0579 52.5946 17.5948C52.8999 18.1316 53.321 18.5526 53.8578 18.8579C54.3946 19.1526 55.0052 19.3 55.6894 19.3C56.7946 19.3 57.721 18.8632 58.4683 17.9895L60.1104 19.5053C59.5841 20.1474 58.9315 20.6369 58.1525 20.9737C57.3736 21.3105 56.5052 21.479 55.5473 21.479ZM68.0776 16.8526C69.0776 17.1895 69.5776 17.8632 69.5776 18.8737C69.5776 19.6421 69.2881 20.2369 68.7091 20.6579C68.1302 21.079 67.267 21.2895 66.1197 21.2895H61.5881V12.7948H65.9302C66.9934 12.7948 67.8249 12.9895 68.4249 13.379C69.0249 13.7579 69.3249 14.2948 69.3249 14.9895C69.3249 15.4105 69.2144 15.7842 68.9934 16.1105C68.7828 16.4263 68.4776 16.6737 68.0776 16.8526ZM63.846 16.2842H65.7091C66.5723 16.2842 67.0039 15.979 67.0039 15.3684C67.0039 14.7684 66.5723 14.4684 65.7091 14.4684H63.846V16.2842ZM65.9144 19.6158C66.8197 19.6158 67.2723 19.3053 67.2723 18.6842C67.2723 18.3579 67.167 18.1211 66.9565 17.9737C66.746 17.8158 66.4144 17.7369 65.9618 17.7369H63.846V19.6158H65.9144ZM75.3892 21.4158C74.4945 21.4158 73.6892 21.2316 72.9734 20.8632C72.2682 20.4842 71.7155 19.9632 71.3155 19.3C70.9155 18.6369 70.7155 17.8842 70.7155 17.0421C70.7155 16.2 70.9155 15.4474 71.3155 14.7842C71.7155 14.1211 72.2682 13.6053 72.9734 13.2369C73.6892 12.8579 74.4945 12.6684 75.3892 12.6684C76.2839 12.6684 77.0839 12.8579 77.7892 13.2369C78.4945 13.6053 79.0471 14.1211 79.4471 14.7842C79.8471 15.4474 80.0471 16.2 80.0471 17.0421C80.0471 17.8842 79.8471 18.6369 79.4471 19.3C79.0471 19.9632 78.4945 20.4842 77.7892 20.8632C77.0839 21.2316 76.2839 21.4158 75.3892 21.4158ZM75.3892 19.3948C76.0208 19.3948 76.5366 19.1842 76.9366 18.7632C77.3471 18.3316 77.5524 17.7579 77.5524 17.0421C77.5524 16.3263 77.3471 15.7579 76.9366 15.3369C76.5366 14.9053 76.0208 14.6895 75.3892 14.6895C74.7576 14.6895 74.2366 14.9053 73.826 15.3369C73.4155 15.7579 73.2103 16.3263 73.2103 17.0421C73.2103 17.7579 73.4155 18.3316 73.826 18.7632C74.2366 19.1842 74.7576 19.3948 75.3892 19.3948ZM86.6518 13.379C87.4623 13.379 88.1728 13.5474 88.7834 13.8842C89.3939 14.2105 89.8623 14.6737 90.1886 15.2737C90.5255 15.8737 90.6939 16.5684 90.6939 17.3579C90.6939 18.1684 90.4939 18.8895 90.0939 19.5211C89.7044 20.1421 89.1571 20.6263 88.4518 20.9737C87.7465 21.3105 86.9465 21.479 86.0518 21.479C84.5676 21.479 83.3992 21.0053 82.5465 20.0579C81.7044 19.1 81.2834 17.7 81.2834 15.8579C81.2834 14.1526 81.6518 12.7948 82.3886 11.7842C83.136 10.7632 84.2781 10.0948 85.8149 9.77896L89.8571 8.9737L90.1886 11.0895L86.6202 11.8C85.6518 11.9895 84.9307 12.3053 84.4571 12.7474C83.9939 13.1895 83.7202 13.8158 83.636 14.6263C84.0044 14.2263 84.4465 13.9211 84.9623 13.7105C85.4781 13.4895 86.0413 13.379 86.6518 13.379ZM86.0676 19.5684C86.6992 19.5684 87.2044 19.3632 87.5834 18.9526C87.9728 18.5421 88.1676 18.0211 88.1676 17.3895C88.1676 16.7474 87.9728 16.2369 87.5834 15.8579C87.2044 15.479 86.6992 15.2895 86.0676 15.2895C85.4255 15.2895 84.9097 15.479 84.5202 15.8579C84.1307 16.2369 83.936 16.7474 83.936 17.3895C83.936 18.0316 84.136 18.5579 84.536 18.9684C84.936 19.3684 85.4465 19.5684 86.0676 19.5684ZM96.3442 21.4158C95.4494 21.4158 94.6442 21.2316 93.9284 20.8632C93.2231 20.4842 92.6705 19.9632 92.2705 19.3C91.8705 18.6369 91.6705 17.8842 91.6705 17.0421C91.6705 16.2 91.8705 15.4474 92.2705 14.7842C92.6705 14.1211 93.2231 13.6053 93.9284 13.2369C94.6442 12.8579 95.4494 12.6684 96.3442 12.6684C97.2389 12.6684 98.0389 12.8579 98.7442 13.2369C99.4494 13.6053 100.002 14.1211 100.402 14.7842C100.802 15.4474 101.002 16.2 101.002 17.0421C101.002 17.8842 100.802 18.6369 100.402 19.3C100.002 19.9632 99.4494 20.4842 98.7442 20.8632C98.0389 21.2316 97.2389 21.4158 96.3442 21.4158ZM96.3442 19.3948C96.9758 19.3948 97.4916 19.1842 97.8916 18.7632C98.3021 18.3316 98.5073 17.7579 98.5073 17.0421C98.5073 16.3263 98.3021 15.7579 97.8916 15.3369C97.4916 14.9053 96.9758 14.6895 96.3442 14.6895C95.7126 14.6895 95.1916 14.9053 94.781 15.3369C94.3705 15.7579 94.1652 16.3263 94.1652 17.0421C94.1652 17.7579 94.3705 18.3316 94.781 18.7632C95.1916 19.1842 95.7126 19.3948 96.3442 19.3948ZM112.094 19.2684V23.1211H109.804V21.2895H103.836V23.1211H101.547V19.2684H101.894C102.42 19.2579 102.783 18.9474 102.983 18.3369C103.183 17.7263 103.31 16.8579 103.362 15.7316L103.473 12.7948H110.878V19.2684H112.094ZM105.589 15.9053C105.557 16.7684 105.489 17.4737 105.383 18.0211C105.289 18.5684 105.104 18.9842 104.831 19.2684H108.415V14.8158H105.636L105.589 15.9053ZM113.644 12.7948H116.091V16.1105H119.786V12.7948H122.249V21.2895H119.786V18.1158H116.091V21.2895H113.644V12.7948ZM128.586 21.4158C127.691 21.4158 126.886 21.2316 126.17 20.8632C125.465 20.4842 124.912 19.9632 124.512 19.3C124.112 18.6369 123.912 17.8842 123.912 17.0421C123.912 16.2 124.112 15.4474 124.512 14.7842C124.912 14.1211 125.465 13.6053 126.17 13.2369C126.886 12.8579 127.691 12.6684 128.586 12.6684C129.481 12.6684 130.281 12.8579 130.986 13.2369C131.691 13.6053 132.244 14.1211 132.644 14.7842C133.044 15.4474 133.244 16.2 133.244 17.0421C133.244 17.8842 133.044 18.6369 132.644 19.3C132.244 19.9632 131.691 20.4842 130.986 20.8632C130.281 21.2316 129.481 21.4158 128.586 21.4158ZM128.586 19.3948C129.218 19.3948 129.734 19.1842 130.134 18.7632C130.544 18.3316 130.749 17.7579 130.749 17.0421C130.749 16.3263 130.544 15.7579 130.134 15.3369C129.734 14.9053 129.218 14.6895 128.586 14.6895C127.955 14.6895 127.434 14.9053 127.023 15.3369C126.612 15.7579 126.407 16.3263 126.407 17.0421C126.407 17.7579 126.612 18.3316 127.023 18.7632C127.434 19.1842 127.955 19.3948 128.586 19.3948Z" fill="black"/>
<rect y="43.421" width="31.5789" height="31.5789" rx="15.7895" fill="#FF3D00"/>
<path d="M56.6052 58.9474C57.2473 59.1684 57.7473 59.5158 58.1052 59.9895C58.4736 60.4526 58.6578 60.9947 58.6578 61.6158C58.6578 62.2895 58.4367 62.8737 57.9946 63.3684C57.5525 63.8631 56.9525 64.2421 56.1946 64.5052C55.4473 64.7684 54.6262 64.9 53.7315 64.9C52.9736 64.9 52.2157 64.8052 51.4578 64.6158C50.7104 64.4263 49.9999 64.1368 49.3262 63.7474L50.1157 61.9158C50.5999 62.2105 51.1315 62.4368 51.7104 62.5947C52.2999 62.7421 52.8736 62.8158 53.4315 62.8158C54.1894 62.8158 54.8157 62.6789 55.3104 62.4052C55.8157 62.1316 56.0683 61.7474 56.0683 61.2526C56.0683 60.8421 55.8946 60.5316 55.5473 60.321C55.2104 60.1105 54.7473 60.0052 54.1578 60.0052H51.4578V58.0789H53.9683C54.4841 58.0789 54.8841 57.9737 55.1683 57.7631C55.4631 57.5526 55.6104 57.2631 55.6104 56.8947C55.6104 56.4631 55.3999 56.1263 54.9788 55.8842C54.5683 55.6421 54.0367 55.521 53.3841 55.521C52.8999 55.521 52.3999 55.5895 51.8841 55.7263C51.3683 55.8526 50.8788 56.0474 50.4157 56.3105L49.642 54.321C50.8104 53.721 52.0736 53.421 53.4315 53.421C54.2946 53.421 55.0894 53.5474 55.8157 53.8C56.542 54.0526 57.121 54.421 57.5525 54.9052C57.9841 55.3895 58.1999 55.9526 58.1999 56.5947C58.1999 57.121 58.0578 57.5895 57.7736 58C57.4894 58.4105 57.0999 58.7263 56.6052 58.9474ZM63.7933 56.0895C65.1091 56.0895 66.1196 56.4052 66.8249 57.0368C67.5302 57.6579 67.8828 58.6 67.8828 59.8631V64.7105H65.5775V63.6526C65.1144 64.4421 64.2512 64.8368 62.9881 64.8368C62.3354 64.8368 61.767 64.7263 61.2828 64.5052C60.8091 64.2842 60.446 63.9789 60.1933 63.5895C59.9407 63.2 59.8144 62.7579 59.8144 62.2631C59.8144 61.4737 60.1091 60.8526 60.6986 60.4C61.2986 59.9474 62.2196 59.721 63.4617 59.721H65.4196C65.4196 59.1842 65.2565 58.7737 64.9302 58.4895C64.6038 58.1947 64.1144 58.0474 63.4617 58.0474C63.0091 58.0474 62.5617 58.121 62.1196 58.2684C61.6881 58.4052 61.3196 58.5947 61.0144 58.8368L60.1302 57.1158C60.5933 56.7895 61.146 56.5368 61.7881 56.3579C62.4407 56.1789 63.1091 56.0895 63.7933 56.0895ZM63.6038 63.1789C64.0249 63.1789 64.3986 63.0842 64.7249 62.8947C65.0512 62.6947 65.2828 62.4052 65.4196 62.0263V61.1579H63.7302C62.7196 61.1579 62.2144 61.4895 62.2144 62.1526C62.2144 62.4684 62.3354 62.721 62.5775 62.9105C62.8302 63.0895 63.1723 63.1789 63.6038 63.1789ZM74.933 56.8C75.7436 56.8 76.4541 56.9684 77.0646 57.3052C77.6751 57.6316 78.1436 58.0947 78.4699 58.6947C78.8067 59.2947 78.9751 59.9895 78.9751 60.7789C78.9751 61.5895 78.7751 62.3105 78.3751 62.9421C77.9857 63.5631 77.4383 64.0474 76.733 64.3947C76.0278 64.7316 75.2278 64.9 74.333 64.9C72.8488 64.9 71.6804 64.4263 70.8278 63.4789C69.9857 62.521 69.5646 61.121 69.5646 59.2789C69.5646 57.5737 69.933 56.2158 70.6699 55.2052C71.4173 54.1842 72.5594 53.5158 74.0962 53.2L78.1383 52.3947L78.4699 54.5105L74.9015 55.221C73.933 55.4105 73.212 55.7263 72.7383 56.1684C72.2751 56.6105 72.0015 57.2368 71.9173 58.0474C72.2857 57.6474 72.7278 57.3421 73.2436 57.1316C73.7594 56.9105 74.3225 56.8 74.933 56.8ZM74.3488 62.9895C74.9804 62.9895 75.4857 62.7842 75.8646 62.3737C76.2541 61.9631 76.4488 61.4421 76.4488 60.8105C76.4488 60.1684 76.2541 59.6579 75.8646 59.2789C75.4857 58.9 74.9804 58.7105 74.3488 58.7105C73.7067 58.7105 73.1909 58.9 72.8015 59.2789C72.412 59.6579 72.2173 60.1684 72.2173 60.8105C72.2173 61.4526 72.4173 61.9789 72.8173 62.3895C73.2173 62.7895 73.7278 62.9895 74.3488 62.9895ZM85.6518 56.0895C86.4412 56.0895 87.157 56.2737 87.7991 56.6421C88.4518 57 88.9623 57.5105 89.3307 58.1737C89.6991 58.8263 89.8833 59.5895 89.8833 60.4631C89.8833 61.3368 89.6991 62.1052 89.3307 62.7684C88.9623 63.421 88.4518 63.9316 87.7991 64.3C87.157 64.6579 86.4412 64.8368 85.6518 64.8368C84.5675 64.8368 83.7149 64.4947 83.0939 63.8105V67.7737H80.6307V56.2158H82.9833V57.1947C83.5939 56.4579 84.4833 56.0895 85.6518 56.0895ZM85.2254 62.8158C85.857 62.8158 86.3728 62.6052 86.7728 62.1842C87.1833 61.7526 87.3886 61.1789 87.3886 60.4631C87.3886 59.7474 87.1833 59.1789 86.7728 58.7579C86.3728 58.3263 85.857 58.1105 85.2254 58.1105C84.5939 58.1105 84.0728 58.3263 83.6623 58.7579C83.2623 59.1789 83.0623 59.7474 83.0623 60.4631C83.0623 61.1789 83.2623 61.7526 83.6623 62.1842C84.0728 62.6052 84.5939 62.8158 85.2254 62.8158ZM95.5886 64.8368C94.6939 64.8368 93.8886 64.6526 93.1728 64.2842C92.4676 63.9052 91.9149 63.3842 91.5149 62.721C91.1149 62.0579 90.9149 61.3052 90.9149 60.4631C90.9149 59.621 91.1149 58.8684 91.5149 58.2052C91.9149 57.5421 92.4676 57.0263 93.1728 56.6579C93.8886 56.2789 94.6939 56.0895 95.5886 56.0895C96.4834 56.0895 97.2834 56.2789 97.9886 56.6579C98.6939 57.0263 99.2465 57.5421 99.6465 58.2052C100.047 58.8684 100.247 59.621 100.247 60.4631C100.247 61.3052 100.047 62.0579 99.6465 62.721C99.2465 63.3842 98.6939 63.9052 97.9886 64.2842C97.2834 64.6526 96.4834 64.8368 95.5886 64.8368ZM95.5886 62.8158C96.2202 62.8158 96.736 62.6052 97.136 62.1842C97.5465 61.7526 97.7518 61.1789 97.7518 60.4631C97.7518 59.7474 97.5465 59.1789 97.136 58.7579C96.736 58.3263 96.2202 58.1105 95.5886 58.1105C94.9571 58.1105 94.436 58.3263 94.0255 58.7579C93.615 59.1789 93.4097 59.7474 93.4097 60.4631C93.4097 61.1789 93.615 61.7526 94.0255 62.1842C94.436 62.6052 94.9571 62.8158 95.5886 62.8158ZM101.941 56.2158H104.388V59.5316H108.083V56.2158H110.546V64.7105H108.083V61.5368H104.388V64.7105H101.941V56.2158ZM112.904 56.2158H115.351V61.2684L119.488 56.2158H121.746V64.7105H119.299V59.6579L115.178 64.7105H112.904V56.2158ZM129.119 56.0895C129.909 56.0895 130.624 56.2737 131.266 56.6421C131.919 57 132.43 57.5105 132.798 58.1737C133.166 58.8263 133.351 59.5895 133.351 60.4631C133.351 61.3368 133.166 62.1052 132.798 62.7684C132.43 63.421 131.919 63.9316 131.266 64.3C130.624 64.6579 129.909 64.8368 129.119 64.8368C128.035 64.8368 127.182 64.4947 126.561 63.8105V67.7737H124.098V56.2158H126.451V57.1947C127.061 56.4579 127.951 56.0895 129.119 56.0895ZM128.693 62.8158C129.324 62.8158 129.84 62.6052 130.24 62.1842C130.651 61.7526 130.856 61.1789 130.856 60.4631C130.856 59.7474 130.651 59.1789 130.24 58.7579C129.84 58.3263 129.324 58.1105 128.693 58.1105C128.061 58.1105 127.54 58.3263 127.13 58.7579C126.73 59.1789 126.53 59.7474 126.53 60.4631C126.53 61.1789 126.73 61.7526 127.13 62.1842C127.54 62.6052 128.061 62.8158 128.693 62.8158ZM139.056 64.8368C138.161 64.8368 137.356 64.6526 136.64 64.2842C135.935 63.9052 135.382 63.3842 134.982 62.721C134.582 62.0579 134.382 61.3052 134.382 60.4631C134.382 59.621 134.582 58.8684 134.982 58.2052C135.382 57.5421 135.935 57.0263 136.64 56.6579C137.356 56.2789 138.161 56.0895 139.056 56.0895C139.951 56.0895 140.751 56.2789 141.456 56.6579C142.161 57.0263 142.714 57.5421 143.114 58.2052C143.514 58.8684 143.714 59.621 143.714 60.4631C143.714 61.3052 143.514 62.0579 143.114 62.721C142.714 63.3842 142.161 63.9052 141.456 64.2842C140.751 64.6526 139.951 64.8368 139.056 64.8368ZM139.056 62.8158C139.688 62.8158 140.203 62.6052 140.603 62.1842C141.014 61.7526 141.219 61.1789 141.219 60.4631C141.219 59.7474 141.014 59.1789 140.603 58.7579C140.203 58.3263 139.688 58.1105 139.056 58.1105C138.424 58.1105 137.903 58.3263 137.493 58.7579C137.082 59.1789 136.877 59.7474 136.877 60.4631C136.877 61.1789 137.082 61.7526 137.493 62.1842C137.903 62.6052 138.424 62.8158 139.056 62.8158ZM151.897 60.2737C152.897 60.6105 153.397 61.2842 153.397 62.2947C153.397 63.0631 153.108 63.6579 152.529 64.0789C151.95 64.5 151.087 64.7105 149.94 64.7105H145.408V56.2158H149.75C150.813 56.2158 151.645 56.4105 152.245 56.8C152.845 57.1789 153.145 57.7158 153.145 58.4105C153.145 58.8316 153.034 59.2052 152.813 59.5316C152.603 59.8474 152.297 60.0947 151.897 60.2737ZM147.666 59.7052H149.529C150.392 59.7052 150.824 59.4 150.824 58.7895C150.824 58.1895 150.392 57.8895 149.529 57.8895H147.666V59.7052ZM149.734 63.0368C150.64 63.0368 151.092 62.7263 151.092 62.1052C151.092 61.7789 150.987 61.5421 150.776 61.3947C150.566 61.2368 150.234 61.1579 149.782 61.1579H147.666V63.0368H149.734ZM158.53 56.0895C159.846 56.0895 160.856 56.4052 161.562 57.0368C162.267 57.6579 162.62 58.6 162.62 59.8631V64.7105H160.314V63.6526C159.851 64.4421 158.988 64.8368 157.725 64.8368C157.072 64.8368 156.504 64.7263 156.02 64.5052C155.546 64.2842 155.183 63.9789 154.93 63.5895C154.678 63.2 154.551 62.7579 154.551 62.2631C154.551 61.4737 154.846 60.8526 155.435 60.4C156.035 59.9474 156.956 59.721 158.199 59.721H160.156C160.156 59.1842 159.993 58.7737 159.667 58.4895C159.341 58.1947 158.851 58.0474 158.199 58.0474C157.746 58.0474 157.299 58.121 156.856 58.2684C156.425 58.4052 156.056 58.5947 155.751 58.8368L154.867 57.1158C155.33 56.7895 155.883 56.5368 156.525 56.3579C157.178 56.1789 157.846 56.0895 158.53 56.0895ZM158.341 63.1789C158.762 63.1789 159.135 63.0842 159.462 62.8947C159.788 62.6947 160.02 62.4052 160.156 62.0263V61.1579H158.467C157.456 61.1579 156.951 61.4895 156.951 62.1526C156.951 62.4684 157.072 62.721 157.314 62.9105C157.567 63.0895 157.909 63.1789 158.341 63.1789ZM164.759 56.2158H167.207V59.5316H170.901V56.2158H173.365V64.7105H170.901V61.5368H167.207V64.7105H164.759V56.2158ZM179.702 64.8368C178.807 64.8368 178.002 64.6526 177.286 64.2842C176.58 63.9052 176.028 63.3842 175.628 62.721C175.228 62.0579 175.028 61.3052 175.028 60.4631C175.028 59.621 175.228 58.8684 175.628 58.2052C176.028 57.5421 176.58 57.0263 177.286 56.6579C178.002 56.2789 178.807 56.0895 179.702 56.0895C180.596 56.0895 181.396 56.2789 182.102 56.6579C182.807 57.0263 183.359 57.5421 183.759 58.2052C184.159 58.8684 184.359 59.621 184.359 60.4631C184.359 61.3052 184.159 62.0579 183.759 62.721C183.359 63.3842 182.807 63.9052 182.102 64.2842C181.396 64.6526 180.596 64.8368 179.702 64.8368ZM179.702 62.8158C180.333 62.8158 180.849 62.6052 181.249 62.1842C181.659 61.7526 181.865 61.1789 181.865 60.4631C181.865 59.7474 181.659 59.1789 181.249 58.7579C180.849 58.3263 180.333 58.1105 179.702 58.1105C179.07 58.1105 178.549 58.3263 178.138 58.7579C177.728 59.1789 177.523 59.7474 177.523 60.4631C177.523 61.1789 177.728 61.7526 178.138 62.1842C178.549 62.6052 179.07 62.8158 179.702 62.8158Z" fill="black"/>
</svg>
