<svg width="179" height="208" viewBox="0 0 179 208" fill="none" xmlns="http://www.w3.org/2000/svg">
<path d="M74.6343 208C46.5564 208 20.4374 196.899 0.521721 176.984C0.195234 176.657 0.195234 176.331 0.521721 176.004C0.848208 175.678 1.17465 175.678 1.50114 175.678C26.6406 184.493 72.6754 194.941 100.753 164.577C109.568 155.109 112.18 145.641 111.527 144.335C109.568 139.438 115.772 131.602 117.404 129.643L116.425 127.684C115.119 125.725 116.751 123.44 118.384 122.134C117.078 120.502 117.404 119.196 119.036 116.91C120.016 115.604 119.037 113.319 118.71 112.666C113.486 112.666 110.548 111.687 109.568 109.401C108.262 106.789 115.119 91.7707 119.036 87.8529C122.628 83.935 122.954 80.0171 122.954 79.0377C122.301 78.3847 120.016 76.0994 119.036 73.814C118.383 72.1815 118.384 70.8755 118.71 69.2431C121.648 57.4896 118.383 45.4096 109.895 37.9004C93.897 23.8615 73.3283 16.0258 52.1066 16.0258C33.8233 16.0258 16.5195 21.5761 1.50114 32.0237C1.17465 32.3502 0.521721 32.3502 0.521721 32.0237C0.195234 31.6972 0.195234 31.0443 0.521721 31.0443C21.0904 10.1491 48.5153 -0.624959 77.5726 0.0280151C104.345 0.680989 129.484 11.7815 148.42 31.0443C167.356 50.307 178.131 75.4464 178.457 102.218C178.784 130.296 168.336 156.742 148.42 176.657C128.831 196.9 102.386 208 74.6343 208ZM4.4396 178.29C23.3758 196.247 48.1889 206.041 74.6343 206.041C102.059 206.041 128.178 195.267 147.441 175.678C166.704 156.089 177.151 129.97 176.825 102.545C176.498 76.0993 166.051 51.2863 147.441 32.3501C128.831 13.4139 104.018 2.63991 77.8992 1.66045C52.1067 1.00748 27.9466 9.49602 8.68389 25.8204C22.0699 18.3112 37.0882 14.3933 52.4331 14.3933C73.9813 14.3933 95.2029 22.229 111.201 36.5944C120.016 44.4301 123.607 57.1632 120.342 69.5697C120.016 70.8756 120.016 71.855 120.669 73.161C121.322 75.1199 124.26 77.7319 124.26 77.7319C124.26 77.7319 124.587 78.0584 124.587 78.3849C124.587 78.7114 124.913 83.6085 120.016 88.8323C115.445 93.7296 110.548 107.116 110.874 108.748C111.527 110.381 114.139 111.034 119.036 111.034C119.363 111.034 119.689 111.033 119.689 111.36C119.689 111.686 122.301 115.604 120.016 118.216C118.384 120.175 118.71 120.828 119.689 121.808C120.016 122.134 120.016 122.134 120.016 122.461C120.016 122.787 120.016 122.787 119.689 123.113C119.689 123.113 116.751 125.399 117.404 126.705L118.71 128.99C119.037 129.317 118.71 129.643 118.71 129.97C116.425 132.582 111.201 139.764 112.833 143.356C113.813 145.641 110.548 156.089 101.733 165.557C89.9791 178.616 61.2483 197.226 4.4396 178.29Z" fill="#BB8E4D"/>
<path d="M131.117 94.3827C130.791 94.3827 130.464 94.0562 130.138 93.7297C130.138 93.4032 129.811 91.4444 131.117 90.1385C131.444 89.4855 132.423 89.159 133.729 89.159C135.688 89.159 140.259 87.8531 143.524 86.5472C140.259 85.5677 134.382 83.9352 132.75 83.6087C129.811 82.6293 129.485 78.0584 129.485 78.0584C129.485 77.7319 129.811 77.079 130.138 77.079C130.464 77.079 131.117 77.4055 131.117 77.732C131.117 78.7115 131.77 81.3233 133.403 81.9763C135.688 82.6293 146.462 85.5677 146.462 85.8942C146.789 85.8942 147.115 86.2207 147.115 86.5472C147.115 86.8737 146.789 87.2001 146.462 87.5266C146.136 87.5266 136.994 91.1179 133.403 91.1179C132.75 91.1179 132.423 91.4444 132.097 91.7709C131.444 92.4239 131.444 93.7298 131.444 94.0563C132.097 94.0563 131.77 94.3827 131.117 94.3827Z" fill="#BB8E4D"/>
<path d="M123.933 125.399C121.647 125.399 120.341 124.746 119.362 123.767L118.709 123.114C118.383 122.787 118.383 122.134 119.036 121.808C119.362 121.481 120.015 121.481 120.342 122.134L120.994 122.787C122.3 124.42 126.545 124.093 133.075 122.134C133.401 122.134 134.054 122.134 134.054 122.787C134.054 123.114 134.054 123.767 133.401 123.767C129.483 124.746 126.218 125.399 123.933 125.399Z" fill="#BB8E4D"/>
<path d="M133.077 90.4648C131.444 90.4648 130.138 88.506 130.138 86.2205C130.138 83.6087 131.444 81.9763 133.077 81.9763C134.709 81.9763 136.015 83.9351 136.015 86.2205C136.341 88.506 135.035 90.4648 133.077 90.4648ZM133.077 83.6087C132.424 83.6087 131.771 84.9146 131.771 86.2205C131.771 87.853 132.424 88.8324 133.077 88.8324C133.73 88.8324 134.382 87.5265 134.382 86.2205C134.382 84.5881 133.73 83.6087 133.077 83.6087Z" fill="#BB8E4D"/>
<path d="M124.588 113.645C124.261 113.645 124.261 113.645 124.588 113.645C123.935 113.645 123.608 113.319 123.608 112.666C123.608 112.34 123.935 111.686 124.588 111.686C126.22 111.686 127.526 111.36 128.179 110.381C129.159 109.075 128.506 107.116 128.179 106.463C127.853 106.136 128.179 105.483 128.506 105.483C128.832 105.157 129.485 105.483 129.485 105.81C129.485 105.81 130.791 109.075 129.159 111.36C128.179 112.992 126.547 113.645 124.588 113.645Z" fill="#BB8E4D"/>
<path d="M150.38 75.4464H150.053C149.727 75.4464 149.727 75.12 149.4 75.12C148.421 74.467 146.788 73.4875 142.544 72.1815C133.076 69.2432 129.811 73.161 129.811 73.161C129.485 73.4875 128.832 73.4875 128.505 73.161C128.179 72.8345 128.179 72.1816 128.505 71.8551C128.505 71.5287 132.423 66.9578 142.871 70.2227C147.441 71.5287 149.074 72.508 150.053 73.161C150.38 73.161 150.38 73.4876 150.706 73.4876C151.033 73.8141 151.359 74.1405 151.033 74.467C151.033 75.4465 150.706 75.4464 150.38 75.4464Z" fill="#BB8E4D"/>
<path d="M126.22 122.134C125.893 122.134 125.893 122.134 125.567 121.808C125.567 121.808 124.587 121.155 122.955 120.502C121.649 119.849 120.996 120.502 120.996 120.502C120.67 120.502 120.67 120.828 120.343 120.502C120.017 120.502 120.017 120.175 119.69 120.175L118.384 117.89C118.058 117.563 118.384 116.91 118.711 116.91C119.037 116.584 119.69 116.91 119.69 117.237L120.343 118.869C120.996 118.869 121.976 118.543 122.955 119.196C124.587 119.849 125.893 120.828 125.893 120.828C126.22 121.155 126.22 121.481 126.22 122.134C126.873 121.808 126.546 122.134 126.22 122.134Z" fill="#BB8E4D"/>
<path d="M122.956 130.623C122.629 130.623 122.629 130.623 122.956 130.623C122.303 130.623 121.977 130.296 121.977 129.643C121.977 129.317 122.303 128.664 122.956 128.99C125.241 128.99 129.159 126.378 130.139 125.399C130.465 125.072 131.118 125.072 131.445 125.399C131.771 125.725 131.771 126.378 131.445 126.705C130.792 126.705 126.221 130.623 122.956 130.623Z" fill="#BB8E4D"/>
<path d="M152.011 84.9147C151.684 84.9147 151.684 84.9147 152.011 84.9147C151.684 84.9147 146.461 83.2821 142.869 82.3026C139.604 80.9967 135.36 80.6702 135.36 80.6702C135.033 80.6702 134.707 80.3438 134.707 79.6908C134.707 79.3643 135.033 79.0378 135.686 79.0378C136.013 79.0378 139.931 79.6908 143.522 80.6702C147.113 81.9762 152.337 83.2823 152.337 83.2823C152.664 83.2823 152.99 83.9352 152.99 84.2617C152.664 84.5882 152.337 84.9147 152.011 84.9147Z" fill="#BB8E4D"/>
<path d="M138.628 125.399C137.975 125.399 137.648 124.746 137.648 124.42C138.301 121.481 136.016 118.216 136.016 118.216C135.689 117.89 135.689 117.237 136.342 116.91C136.669 116.584 137.322 116.584 137.648 117.237C137.648 117.237 140.587 121.155 139.607 124.746C139.281 125.072 138.954 125.399 138.628 125.399Z" fill="#BB8E4D"/>
</svg>
