<svg width="150" height="94" viewBox="0 0 150 94" fill="none" xmlns="http://www.w3.org/2000/svg">
<path d="M62.293 -0.00012207L12.7786 39.683L62.642 6.04617L85.5324 21.8916L88.5682 23.6986L99.5597 16.0538L136.652 39.3008L99.3504 9.4863L88.1843 19.5287L62.293 -0.00012207Z" fill="#627692"/>
<path d="M50.7885 29.0123C50.7885 29.7947 50.2395 30.5519 49.1416 31.2838C48.0816 32.0158 46.9647 32.3944 45.7911 32.4196C44.8446 32.4196 44.3714 32.1104 44.3714 31.4921C44.3714 31.1009 44.5922 30.8674 45.0339 30.7917C45.3999 30.7538 45.5829 30.8232 45.5829 30.9999C45.5829 31.0251 45.5829 31.0567 45.5829 31.0945C45.5829 31.1324 45.5703 31.1892 45.545 31.2649C45.5324 31.328 45.5261 31.3911 45.5261 31.4542C45.5261 31.5047 45.5261 31.5425 45.5261 31.5678C45.5639 31.7949 45.8353 31.9148 46.3401 31.9274C47.2487 31.9274 48.0879 31.6561 48.8577 31.1135C49.6275 30.5456 50.0124 29.9714 50.0124 29.3909C50.0124 28.924 49.7474 28.5327 49.2173 28.2173C48.6999 27.927 48.0248 27.7756 47.1919 27.7629C46.3968 27.7629 45.5955 27.8828 44.7878 28.1226C43.9928 28.3498 43.1725 28.7094 42.327 29.2016C40.6991 30.1859 39.8788 31.1387 39.8662 32.06C39.8662 32.489 40.0807 32.9938 40.5098 33.5743C40.7243 33.8393 40.882 34.0665 40.983 34.2558C41.084 34.4325 41.1471 34.5713 41.1723 34.6722C41.1723 35.0634 40.6044 35.543 39.4686 36.1109C38.5853 36.5526 37.8849 36.9122 37.3675 37.1899C36.8501 37.4549 36.503 37.6505 36.3263 37.7767C35.5187 38.3446 34.9697 38.7547 34.6795 39.0071C34.2125 39.5119 33.9665 40.1365 33.9412 40.8811C33.9412 41.6635 34.2378 42.3134 34.8309 42.8309C35.4493 43.323 36.2317 43.5691 37.1782 43.5691C37.9353 43.5691 38.6673 43.506 39.374 43.3798C40.0807 43.2662 40.7748 43.0959 41.4562 42.8687C42.8318 42.3765 44.3588 41.5752 46.0372 40.4647C46.0498 40.4647 46.1066 40.5593 46.2075 40.7486C44.466 41.998 42.857 42.9003 41.3805 43.4555C40.6233 43.7205 39.8535 43.9161 39.0711 44.0423C38.2887 44.1685 37.4684 44.2443 36.6103 44.2695C35.4997 44.2695 34.6164 44.0108 33.9601 43.4934C33.3292 43.0012 33.0074 42.3134 32.9947 41.4301C32.9947 40.471 33.367 39.6191 34.1116 38.8746C34.3135 38.6727 34.6164 38.4329 35.0202 38.1553C35.4366 37.8776 35.9667 37.5621 36.6103 37.2088C37.0141 36.9942 37.4179 36.7797 37.8218 36.5652C38.2382 36.338 38.6547 36.1172 39.0711 35.9026C39.8409 35.461 40.2258 35.1518 40.2258 34.9751C40.2258 34.811 40.0113 34.4198 39.5822 33.8015C39.1405 33.2336 38.9197 32.7603 38.9197 32.3818C38.9197 31.2965 39.9419 30.1544 41.9863 28.9555C43.0085 28.375 44.0117 27.9459 44.9961 27.6683C45.993 27.378 46.9837 27.2203 47.968 27.1951C48.763 27.1951 49.4319 27.3717 49.9745 27.7251C50.5172 28.0784 50.7885 28.5075 50.7885 29.0123ZM57.2946 40.9C57.2946 41.001 57.2694 41.0641 57.2189 41.0893C56.7015 41.5058 56.222 41.8402 55.7803 42.0926C55.3386 42.3324 54.9348 42.5154 54.5688 42.6416C54.2028 42.7678 53.8684 42.8435 53.5655 42.8687C53.2753 42.894 53.0292 42.894 52.8273 42.8687C52.5244 42.8182 52.2846 42.6857 52.1079 42.4712C51.9313 42.244 51.8114 41.8844 51.7483 41.3922C51.4075 41.7456 50.928 42.0737 50.3096 42.3765C50.0572 42.4901 49.8364 42.5785 49.6471 42.6416C49.4704 42.7173 49.3253 42.7425 49.2117 42.7173C48.6438 42.6416 48.3347 42.3639 48.2842 41.8844C48.2842 41.4301 48.3978 41.1083 48.6249 40.919C48.7637 40.8054 48.9278 40.7297 49.1171 40.6918C49.2938 40.6413 49.4073 40.6792 49.4578 40.8054C49.5083 40.919 49.5335 41.0389 49.5335 41.1651C49.5209 41.2913 49.5083 41.4111 49.4957 41.5247C49.483 41.6383 49.4894 41.7456 49.5146 41.8465C49.5398 41.9349 49.6029 41.998 49.7039 42.0358C49.7922 42.0611 49.9121 42.0484 50.0636 41.998C50.2276 41.9475 50.3917 41.8781 50.5557 41.7897C50.7324 41.6888 50.9028 41.5815 51.0668 41.4679C51.2435 41.3543 51.3886 41.2471 51.5022 41.1461C51.641 41.0452 51.8114 40.8748 52.0133 40.635C52.2278 40.3953 52.4802 40.0861 52.7705 39.7075C52.8841 39.5687 53.0039 39.4235 53.1301 39.2721C53.2563 39.108 53.3762 38.9629 53.4898 38.8367C53.616 38.7105 53.7296 38.6033 53.8305 38.5149C53.9315 38.4266 54.0072 38.3824 54.0577 38.3824C54.0955 38.3824 54.1397 38.3824 54.1902 38.3824C54.2533 38.3824 54.3038 38.4013 54.3416 38.4392C54.3921 38.4644 54.4237 38.5149 54.4363 38.5906C54.4615 38.6537 54.4489 38.7547 54.3984 38.8935C54.3353 39.0702 54.1965 39.2279 53.982 39.3667C53.7674 39.5056 53.5403 39.6886 53.3005 39.9157C52.8462 40.3448 52.6127 40.7107 52.6001 41.0136C52.6001 41.3039 52.6632 41.55 52.7894 41.7519C52.9282 41.9412 53.1238 42.0737 53.3762 42.1494C53.717 42.2503 54.0514 42.2756 54.3795 42.2251C54.7076 42.162 55.0294 42.0611 55.3449 41.9222C55.673 41.7708 55.9822 41.5941 56.2724 41.3922C56.5627 41.1903 56.8403 40.9947 57.1053 40.8054C57.2063 40.7297 57.2694 40.7612 57.2946 40.9ZM65.6718 40.8622C65.7223 40.8369 65.7665 40.8117 65.8043 40.7865C65.8548 40.7486 65.8927 40.7675 65.9179 40.8433C65.9558 40.9316 65.9242 41.0136 65.8233 41.0893C65.369 41.4301 64.9083 41.7392 64.4414 42.0169C63.9871 42.2819 63.5454 42.5027 63.1163 42.6794C62.6999 42.8687 62.315 43.0075 61.9616 43.0959C61.6083 43.1842 61.3117 43.2221 61.072 43.2094C60.9205 43.1968 60.7628 43.159 60.5987 43.0959C60.4473 43.0328 60.3085 42.9381 60.1823 42.8119C60.0687 42.6857 59.974 42.5217 59.8983 42.3198C59.8226 42.1178 59.7911 41.8718 59.8037 41.5815C59.6522 41.7456 59.4693 41.9096 59.2547 42.0737C59.0402 42.2377 58.813 42.3829 58.5733 42.5091C58.3335 42.6352 58.1 42.7362 57.8729 42.8119C57.6457 42.8876 57.4438 42.9255 57.2671 42.9255C57.0652 42.9255 56.8759 42.8561 56.6992 42.7173C56.5226 42.5911 56.4342 42.3829 56.4342 42.0926C56.4216 41.6635 56.6109 41.2408 57.0021 40.8243C57.1788 40.635 57.4501 40.4079 57.8161 40.1429C58.1821 39.8652 58.649 39.5434 59.2169 39.1775C59.2926 39.1775 59.3431 39.209 59.3683 39.2721C59.3935 39.3226 59.3872 39.3857 59.3494 39.4614C59.1853 39.5624 59.0213 39.6696 58.8572 39.7832C58.6931 39.8968 58.5228 40.023 58.3461 40.1618C58.0306 40.4268 57.8035 40.6792 57.6646 40.919C57.5132 41.1461 57.4249 41.367 57.3996 41.5815C57.3618 41.9601 57.4817 42.1809 57.7593 42.244C57.9864 42.2945 58.2452 42.2377 58.5354 42.0737C58.8383 41.897 59.179 41.6572 59.5576 41.3543C59.6964 41.2408 59.8668 41.0704 60.0687 40.8433C60.2832 40.6161 60.5356 40.3069 60.8259 39.9157C61.2676 39.3352 61.5894 39.0449 61.7913 39.0449C61.9553 39.0449 62.0437 39.1144 62.0563 39.2532C62.0563 39.392 61.8165 39.6822 61.337 40.1239C60.8827 40.553 60.6555 40.919 60.6555 41.2218C60.6555 41.6509 60.7249 41.9601 60.8637 42.1494C61.0152 42.3387 61.2171 42.4775 61.4695 42.5658C61.8228 42.6794 62.214 42.6668 62.6431 42.528C63.0848 42.3892 63.5707 42.1809 64.1007 41.9033C64.3152 41.7897 64.5676 41.6509 64.8579 41.4869C65.1481 41.3228 65.4194 41.1146 65.6718 40.8622ZM74.0983 40.8054C74.0983 40.8433 74.092 40.8811 74.0794 40.919C74.0667 40.9568 74.0415 40.9884 74.0036 41.0136C73.5493 41.3165 73.1203 41.5752 72.7164 41.7897C72.3252 41.9916 71.9466 42.1683 71.5807 42.3198C71.2147 42.4586 70.8613 42.5848 70.5206 42.6983C70.1799 42.8119 69.8328 42.9318 69.4795 43.058C68.6087 44.1938 67.1448 45.5504 65.0878 47.1279C62.2863 49.2606 60.0652 50.3396 58.4246 50.3648C58.0082 50.3648 57.6611 50.2512 57.3835 50.0241C57.0933 49.8095 56.9481 49.5256 56.9481 49.1722C56.9481 47.6705 58.5887 46.295 61.8698 45.0456C62.5639 44.768 63.8259 44.3515 65.6557 43.7963C67.4351 43.2662 68.4762 42.9381 68.7791 42.8119C68.8674 42.7236 68.9368 42.6037 68.9873 42.4523C69.0504 42.3008 69.082 42.1494 69.082 41.998C69.0946 41.8465 69.0693 41.7014 69.0062 41.5626C68.9431 41.4238 68.8359 41.3165 68.6844 41.2408C68.5835 41.266 68.4636 41.3102 68.3248 41.3733C68.1986 41.4364 68.0724 41.4932 67.9462 41.5436C67.82 41.5815 67.7127 41.5941 67.6244 41.5815C67.536 41.5689 67.4856 41.4932 67.4729 41.3543C67.4729 41.2282 67.5171 41.1335 67.6055 41.0704C67.6938 41.0073 67.8011 40.9631 67.9273 40.9379C68.0661 40.9 68.2112 40.8811 68.3626 40.8811C68.5141 40.8811 68.6466 40.8874 68.7602 40.9C68.9242 40.8496 69.1072 40.7865 69.3091 40.7107C69.5236 40.6224 69.7256 40.5215 69.9149 40.4079C70.1168 40.2943 70.2998 40.1744 70.4638 40.0482C70.6279 39.9094 70.7478 39.7643 70.8235 39.6128C71.0254 39.2469 71.0443 38.944 70.8803 38.7042C70.7162 38.4644 70.4512 38.3446 70.0852 38.3446C69.9464 38.3446 69.795 38.3824 69.6309 38.4581C69.4795 38.5212 69.3154 38.6096 69.1387 38.7231C68.9621 38.8241 68.7791 38.944 68.5898 39.0828C68.4131 39.209 68.2301 39.3352 68.0408 39.4614C67.8894 39.5624 67.7127 39.6822 67.5108 39.8211C67.3215 39.9599 67.1259 40.105 66.924 40.2564C66.7347 40.3953 66.5517 40.5341 66.375 40.6729C66.1984 40.8117 66.0595 40.9253 65.9586 41.0136C65.9207 41.0515 65.8892 41.0767 65.8639 41.0893C65.8008 41.1146 65.7567 41.0893 65.7314 41.0136C65.6936 40.9505 65.6999 40.8937 65.7504 40.8433C65.7756 40.818 65.8008 40.7991 65.8261 40.7865C66.1163 40.5593 66.476 40.2691 66.9051 39.9157C67.3341 39.5497 67.7506 39.2342 68.1544 38.9692C68.6213 38.6537 69.0756 38.3761 69.5173 38.1363C69.959 37.8966 70.325 37.7514 70.6153 37.701C70.8676 37.6505 71.1011 37.6442 71.3156 37.682C71.5302 37.7073 71.7069 37.8019 71.8457 37.966C71.9592 38.1174 72.0287 38.2815 72.0539 38.4581C72.0791 38.6222 72.0665 38.7926 72.016 38.9692C71.9656 39.1333 71.8835 39.2973 71.77 39.4614C71.669 39.6255 71.5491 39.7706 71.4103 39.8968C71.2841 40.0104 71.1263 40.1239 70.9371 40.2375C70.7604 40.3385 70.5774 40.4394 70.3881 40.5404C70.1988 40.6413 70.0095 40.736 69.8202 40.8243C69.6435 40.9127 69.4921 40.9947 69.3659 41.0704C69.53 41.1461 69.6435 41.2345 69.7066 41.3354C69.7697 41.4364 69.8076 41.55 69.8202 41.6762C69.8328 41.7897 69.8265 41.9159 69.8013 42.0547C69.776 42.1936 69.7508 42.345 69.7256 42.5091C69.9401 42.4333 70.1736 42.3639 70.426 42.3008C70.6783 42.2377 70.9686 42.1494 71.2967 42.0358C71.6374 41.9096 72.016 41.7456 72.4325 41.5436C72.8489 41.3291 73.3348 41.0515 73.8901 40.7107C73.9279 40.6981 73.9658 40.6918 74.0036 40.6918C74.0541 40.6918 74.0857 40.7297 74.0983 40.8054ZM68.4573 43.3609C67.8515 43.5249 67.2521 43.689 66.659 43.853C66.0785 44.0171 65.4853 44.1938 64.8796 44.3831C63.8574 44.6733 62.9488 44.9636 62.1538 45.2538C61.3461 45.5567 60.6583 45.8596 60.0904 46.1624C58.5004 46.9827 57.6927 47.8409 57.6675 48.7369C57.6675 49.065 57.8441 49.3426 58.1975 49.5698C58.4877 49.7591 58.8222 49.86 59.2007 49.8726C59.592 49.8726 60.1662 49.7212 60.9233 49.4183C61.6931 49.1028 62.4061 48.7179 63.0624 48.2636C65.662 46.3581 67.4603 44.7238 68.4573 43.3609ZM82.6419 40.8622C82.6671 40.9631 82.6419 41.0325 82.5661 41.0704C81.6954 41.6131 80.8562 42.08 80.0485 42.4712C79.2535 42.8498 78.5594 43.0391 77.9663 43.0391C77.2848 43.0391 76.9251 42.528 76.8873 41.5058C76.7737 41.5689 76.597 41.6698 76.3573 41.8087C76.1301 41.9349 75.884 42.0674 75.619 42.2062C75.3666 42.345 75.1079 42.4649 74.8429 42.5658C74.5905 42.6794 74.3823 42.7425 74.2182 42.7551C73.9784 42.7804 73.7639 42.7488 73.5746 42.6605C73.3727 42.5721 73.2465 42.3892 73.196 42.1115C73.196 41.5563 73.7134 40.8748 74.7482 40.0671C75.2783 39.6759 75.7831 39.3794 76.2626 39.1775C76.7422 38.9755 77.146 38.8746 77.4741 38.8746C77.941 38.862 78.1808 38.9755 78.1934 39.2153C78.1934 39.4425 78.1114 39.6255 77.9473 39.7643C77.8211 39.8778 77.6634 39.9346 77.4741 39.9346C77.4615 39.922 77.4489 39.8968 77.4362 39.8589C77.4236 39.8337 77.411 39.8084 77.3984 39.7832C77.3858 39.7453 77.3668 39.7012 77.3416 39.6507C77.2659 39.4614 77.1144 39.3604 76.8873 39.3478C76.3951 39.3478 75.8209 39.6255 75.1647 40.1807C74.5337 40.7107 74.2182 41.1903 74.2182 41.6194C74.2182 41.7203 74.2371 41.815 74.275 41.9033C74.3129 41.979 74.3823 42.0232 74.4832 42.0358C74.8366 42.0611 75.1836 42.0043 75.5244 41.8654C75.8777 41.7266 76.25 41.5247 76.6412 41.2597C76.8053 41.1461 77.0892 40.8685 77.493 40.4268C77.7454 40.1239 77.9663 39.9788 78.1556 39.9914C78.307 39.9914 78.3827 40.0545 78.3827 40.1807C78.3827 40.2943 78.2754 40.5404 78.0609 40.919C77.859 41.2723 77.758 41.531 77.758 41.6951C77.758 42.162 77.9852 42.4018 78.4395 42.4144C78.8433 42.4144 79.2535 42.3513 79.6699 42.2251C80.0864 42.0989 80.4776 41.9475 80.8436 41.7708C81.2095 41.5941 81.5313 41.4238 81.809 41.2597C82.0992 41.083 82.3074 40.9505 82.4336 40.8622C82.4715 40.8243 82.5094 40.7991 82.5472 40.7865C82.5851 40.7612 82.6166 40.7865 82.6419 40.8622ZM94.6161 29.9966C94.6161 30.5393 94.023 31.4984 92.8367 32.8739C90.6788 35.3979 88.5019 37.2971 86.3061 38.5717C85.9275 38.8241 85.5047 39.0702 85.0378 39.31C84.5708 39.5497 84.0282 39.8084 83.4098 40.0861C83.2584 40.2627 83.1133 40.4394 82.9745 40.6161C82.8609 40.7675 82.7536 40.9442 82.6527 41.1461C82.5517 41.3354 82.4886 41.5184 82.4634 41.6951C82.4381 41.9222 82.476 42.0989 82.5769 42.2251C82.6653 42.3513 82.8041 42.427 82.9934 42.4523C83.1701 42.4649 83.3783 42.4207 83.6181 42.3198C83.8705 42.2188 84.1418 42.0484 84.432 41.8087C84.5961 41.6951 84.8232 41.5121 85.1135 41.2597C85.4164 41.0073 85.6561 40.7044 85.8328 40.3511C85.9085 40.1996 85.9716 40.0482 86.0221 39.8968C86.0852 39.7453 86.1483 39.6128 86.2114 39.4993C86.2871 39.3731 86.3628 39.2721 86.4386 39.1964C86.5269 39.1207 86.6342 39.0828 86.7604 39.0828C86.937 39.0828 87.0443 39.1775 87.0822 39.3667C87.12 39.556 87.0317 39.758 86.8172 39.9725C86.691 40.0987 86.5837 40.187 86.4953 40.2375C86.407 40.2754 86.3376 40.3322 86.2871 40.4079C86.2366 40.471 86.2051 40.5593 86.1925 40.6729C86.1925 40.7738 86.1925 40.9127 86.1925 41.0893C86.1925 41.1777 86.2051 41.2786 86.2303 41.3922C86.2682 41.4932 86.3187 41.5878 86.3818 41.6762C86.4449 41.7645 86.5332 41.8402 86.6468 41.9033C86.7604 41.9538 86.9055 41.9664 87.0822 41.9412C87.2588 41.9285 87.5743 41.8402 88.0286 41.6762C88.483 41.5121 89.0319 41.1651 89.6755 40.635L89.808 40.9C89.6566 41.0136 89.4294 41.1651 89.1266 41.3543C88.8363 41.5436 88.565 41.7077 88.3126 41.8465C87.8709 42.0863 87.4986 42.244 87.1957 42.3198C86.8929 42.3955 86.6342 42.4018 86.4196 42.3387C86.1294 42.263 85.9527 42.0926 85.8896 41.8276C85.8265 41.55 85.8139 41.2471 85.8517 40.919C85.776 41.0452 85.6498 41.2029 85.4732 41.3922C85.2965 41.5815 85.1009 41.7708 84.8863 41.9601C84.6718 42.1494 84.4447 42.3261 84.2049 42.4901C83.9777 42.6668 83.7695 42.793 83.5802 42.8687C83.2899 42.9949 83.0249 43.0832 82.7852 43.1337C82.5328 43.1842 82.293 43.14 82.0658 43.0012C81.9901 42.9507 81.9144 42.8876 81.8387 42.8119C81.763 42.7362 81.7125 42.6289 81.6872 42.4901C81.662 42.3639 81.6746 42.2062 81.7251 42.0169C81.7756 41.815 81.8829 41.5752 82.0469 41.2976C82.3876 40.7171 82.8041 40.0861 83.2963 39.4046C83.801 38.7105 84.3437 38.0038 84.9242 37.2845C85.5047 36.5526 86.1041 35.8206 86.7225 35.0887C87.3535 34.3567 87.9655 33.6563 88.5587 32.9875C89.7323 31.6624 90.7293 30.697 91.5495 30.0913C92.3698 29.4729 92.9945 29.1322 93.4236 29.0691C93.9031 29.006 94.2186 29.0691 94.37 29.2584C94.5341 29.4477 94.6161 29.6938 94.6161 29.9966ZM93.7643 30.2049C93.7643 29.8389 93.5561 29.6559 93.1396 29.6559C92.6222 29.6559 91.8461 30.1228 90.8113 31.0567C90.2182 31.6751 89.2654 32.7414 87.9529 34.2558C87.2841 35.0508 86.7225 35.7197 86.2682 36.2623C85.8139 36.7923 85.4605 37.2151 85.2081 37.5306C84.9936 37.783 84.798 38.0291 84.6213 38.2688C84.4573 38.5086 84.3058 38.7231 84.167 38.9124C84.0156 39.1396 83.8768 39.3478 83.7506 39.5371C84.0408 39.4866 84.4762 39.3037 85.0567 38.9882C85.6372 38.66 86.3439 38.1868 87.1768 37.5684C88.0223 36.9501 88.8048 36.3254 89.5241 35.6944C90.256 35.0634 90.9438 34.4135 91.5874 33.7447C93.026 32.1925 93.7517 31.0125 93.7643 30.2049ZM94.5364 40.8243C94.549 40.9127 94.5301 40.9821 94.4796 41.0325C93.4322 41.714 92.5236 42.2125 91.7538 42.528C90.984 42.8561 90.2457 43.0265 89.539 43.0391C88.6683 43.0391 88.2266 42.5911 88.2139 41.6951C88.2139 41.1398 88.5357 40.4899 89.1794 39.7453C89.8482 39.0386 90.4287 38.679 90.9209 38.6664C91.0344 38.6664 91.1606 38.6979 91.2995 38.761C91.4383 38.8115 91.5203 38.9692 91.5455 39.2342C91.5455 39.3478 91.514 39.4614 91.4509 39.575C91.3878 39.6886 91.2995 39.8084 91.1859 39.9346C91.0849 40.0482 90.965 40.1681 90.8262 40.2943C90.7 40.4079 90.5738 40.5151 90.4476 40.6161C90.2583 40.7928 90.0501 40.9631 89.823 41.1272C89.5958 41.2786 89.3371 41.4301 89.0468 41.5815C89.0216 41.7456 89.0405 41.8654 89.1036 41.9412C89.1667 42.0043 89.2677 42.0863 89.4065 42.1872C89.621 42.3261 89.8545 42.3955 90.1069 42.3955C90.5233 42.3955 91.0912 42.2882 91.8106 42.0737C92.5425 41.8465 93.388 41.4111 94.3471 40.7675C94.385 40.7297 94.4228 40.7171 94.4607 40.7297C94.5112 40.7297 94.5364 40.7612 94.5364 40.8243ZM90.7126 39.4425C90.7126 39.3794 90.6306 39.3289 90.4666 39.291C90.252 39.291 89.9681 39.4866 89.6147 39.8778C89.4381 40.0545 89.3055 40.2438 89.2172 40.4457C89.1289 40.6476 89.0847 40.818 89.0847 40.9568C89.1099 40.9568 89.192 40.9379 89.3308 40.9C89.4696 40.8496 89.5832 40.7928 89.6715 40.7297C89.9996 40.5404 90.2457 40.3258 90.4098 40.0861C90.5864 39.8337 90.6874 39.6191 90.7126 39.4425ZM107.861 41.0515C107.874 41.0893 107.867 41.1335 107.842 41.184C107.829 41.2218 107.804 41.2408 107.766 41.2408C107.135 41.5689 106.599 41.8402 106.157 42.0547C105.716 42.2567 105.331 42.4144 105.003 42.528C104.687 42.6542 104.403 42.7425 104.151 42.793C103.911 42.8561 103.671 42.8876 103.432 42.8876C102.712 42.9129 102.34 42.5595 102.315 41.8276C102.315 41.5752 102.346 41.3291 102.409 41.0893C102.472 40.8496 102.573 40.6035 102.712 40.3511C102.624 40.3511 102.491 40.3953 102.315 40.4836C102.151 40.5719 101.987 40.6603 101.823 40.7486C101.229 41.0136 100.687 41.3165 100.195 41.6572C99.715 41.9853 99.3049 42.2503 98.9641 42.4523C98.371 42.7804 98.0114 42.9444 97.8852 42.9444C97.6328 42.9444 97.5066 42.8309 97.5066 42.6037C97.5066 42.4018 97.6769 42.0737 98.0177 41.6194C98.2322 41.367 98.4404 41.1209 98.6423 40.8811C98.8443 40.6287 99.0588 40.37 99.2859 40.105C97.8347 41.0136 96.7241 41.6951 95.9543 42.1494C95.1845 42.6037 94.7618 42.8372 94.6861 42.8498C94.4842 42.8498 94.3832 42.7678 94.3832 42.6037C94.4589 42.528 94.5473 42.427 94.6482 42.3008C94.7365 42.1999 94.8501 42.08 94.9889 41.9412C95.1151 41.7897 95.2666 41.6194 95.4433 41.4301C95.8092 41.0389 96.0932 40.7107 96.2951 40.4457C96.497 40.1681 96.579 39.9788 96.5412 39.8778C96.5285 39.8274 96.4844 39.8084 96.4087 39.8211C96.3329 39.8211 96.2825 39.8337 96.2572 39.8589C96.2194 39.8715 96.1626 39.8905 96.0869 39.9157C96.0111 39.9283 95.9354 39.9473 95.8597 39.9725C95.784 39.9851 95.7146 39.9914 95.6515 39.9914C95.5884 39.9788 95.5505 39.9473 95.5379 39.8968C95.5127 39.8463 95.5505 39.7769 95.6515 39.6886C95.7524 39.6002 95.8786 39.5119 96.0301 39.4235C96.1815 39.3226 96.3329 39.2406 96.4844 39.1775C96.6484 39.1017 96.7746 39.0576 96.863 39.0449C97.0775 39.0449 97.2479 39.0891 97.3741 39.1775C97.5129 39.2658 97.5444 39.4551 97.4687 39.7453C97.4435 39.9473 97.3173 40.1933 97.0901 40.4836C96.863 40.7738 96.6232 41.0704 96.3708 41.3733C97.2416 40.8433 98.1312 40.3132 99.0399 39.7832C99.4942 39.5182 99.8286 39.3857 100.043 39.3857C100.371 39.3857 100.535 39.5056 100.535 39.7453C100.535 39.922 100.333 40.2375 99.9295 40.6918C99.6898 40.9568 99.4942 41.184 99.3427 41.3733C99.1913 41.5626 99.0777 41.7266 99.002 41.8654C100.857 40.7423 102.037 40.0608 102.542 39.8211C103.211 39.4929 103.703 39.3226 104.018 39.31C104.107 39.31 104.151 39.3857 104.151 39.5371C104.113 39.6002 104.069 39.6696 104.018 39.7453C103.968 39.8084 103.911 39.8905 103.848 39.9914C103.797 40.0924 103.728 40.2123 103.64 40.3511C103.312 40.8685 103.148 41.2913 103.148 41.6194C103.148 42.1115 103.381 42.3639 103.848 42.3765C104.037 42.3765 104.22 42.3639 104.397 42.3387C104.586 42.3008 104.813 42.2314 105.078 42.1305C105.343 42.0295 105.678 41.8907 106.082 41.714C106.485 41.5247 107.009 41.2723 107.653 40.9568C107.678 40.9442 107.71 40.9379 107.747 40.9379C107.798 40.9379 107.836 40.9758 107.861 41.0515ZM116.064 40.8622C116.09 40.9631 116.064 41.0325 115.989 41.0704C115.118 41.6131 114.279 42.08 113.471 42.4712C112.676 42.8498 111.982 43.0391 111.389 43.0391C110.707 43.0391 110.348 42.528 110.31 41.5058C110.196 41.5689 110.019 41.6698 109.78 41.8087C109.553 41.9349 109.306 42.0674 109.041 42.2062C108.789 42.345 108.53 42.4649 108.265 42.5658C108.013 42.6794 107.805 42.7425 107.641 42.7551C107.401 42.7804 107.186 42.7488 106.997 42.6605C106.795 42.5721 106.669 42.3892 106.618 42.1115C106.618 41.5563 107.136 40.8748 108.171 40.0671C108.701 39.6759 109.206 39.3794 109.685 39.1775C110.165 38.9755 110.568 38.8746 110.897 38.8746C111.363 38.862 111.603 38.9755 111.616 39.2153C111.616 39.4425 111.534 39.6255 111.37 39.7643C111.244 39.8778 111.086 39.9346 110.897 39.9346C110.884 39.922 110.871 39.8968 110.859 39.8589C110.846 39.8337 110.833 39.8084 110.821 39.7832C110.808 39.7453 110.789 39.7012 110.764 39.6507C110.688 39.4614 110.537 39.3604 110.31 39.3478C109.818 39.3478 109.243 39.6255 108.587 40.1807C107.956 40.7107 107.641 41.1903 107.641 41.6194C107.641 41.7203 107.66 41.815 107.697 41.9033C107.735 41.979 107.805 42.0232 107.906 42.0358C108.259 42.0611 108.606 42.0043 108.947 41.8654C109.3 41.7266 109.672 41.5247 110.064 41.2597C110.228 41.1461 110.512 40.8685 110.915 40.4268C111.168 40.1239 111.389 39.9788 111.578 39.9914C111.729 39.9914 111.805 40.0545 111.805 40.1807C111.805 40.2943 111.698 40.5404 111.483 40.919C111.281 41.2723 111.18 41.531 111.18 41.6951C111.18 42.162 111.408 42.4018 111.862 42.4144C112.266 42.4144 112.676 42.3513 113.092 42.2251C113.509 42.0989 113.9 41.9475 114.266 41.7708C114.632 41.5941 114.954 41.4238 115.231 41.2597C115.522 41.083 115.73 40.9505 115.856 40.8622C115.894 40.8243 115.932 40.7991 115.97 40.7865C116.008 40.7612 116.039 40.7865 116.064 40.8622Z" fill="#627692"/>
<path d="M13.727 65.4637C14.1044 63.7922 14.6598 60.0394 15.3931 54.2053H15.6681C17.4583 57.8071 18.9734 60.735 20.2136 62.9888C21.5939 60.5409 23.1899 57.613 25.0016 54.2053H25.2119C25.4923 56.9336 25.9183 60.6865 26.4898 65.4637C26.2202 65.4098 25.9776 65.3829 25.7619 65.3829C25.5462 65.3829 25.3036 65.4098 25.034 65.4637C24.7536 61.4413 24.4732 58.7507 24.1928 57.392C22.0792 60.9291 20.6988 63.6143 20.0518 65.4476H19.8253C19.5989 64.6711 19.0866 63.5442 18.2886 62.0668L15.7652 57.4081C15.2583 60.9884 14.9941 63.6736 14.9726 65.4637C14.7569 65.4098 14.5574 65.3829 14.374 65.3829C14.1907 65.3829 13.975 65.4098 13.727 65.4637ZM36.7453 57.1493C36.2493 57.613 34.9714 58.9448 32.9117 61.1448C30.7872 63.4094 29.4824 64.8491 28.9971 65.4637H28.7868C28.8515 64.4501 28.8838 63.0589 28.8838 61.2904V59.9478C28.8838 57.241 28.8515 55.3969 28.7868 54.4156C29.0025 54.4587 29.2451 54.4803 29.5147 54.4803C29.7951 54.4803 30.0485 54.4587 30.275 54.4156C30.2211 55.1273 30.1941 56.1842 30.1941 57.5861V59.9478C30.1941 60.2174 30.1941 60.6325 30.1941 61.1933C30.1833 61.7649 30.1779 62.1854 30.1779 62.455C30.1779 62.5844 30.1833 62.6761 30.1941 62.73C30.6794 62.3202 31.9357 61.0315 33.9631 58.864C36.0552 56.6425 37.3924 55.1597 37.9747 54.4156H38.1688C38.1149 55.1273 38.0879 56.1842 38.0879 57.5861V59.9478C38.0879 60.2821 38.0879 60.7458 38.0879 61.3389C38.0772 61.932 38.0718 62.358 38.0718 62.6168C38.0718 63.8677 38.1041 64.8167 38.1688 65.4637C37.8992 65.4098 37.6566 65.3829 37.4409 65.3829C37.2252 65.3829 36.9718 65.4098 36.6806 65.4637C36.7453 64.4501 36.7777 63.0589 36.7777 61.2904V59.9478C36.7777 58.4164 36.7669 57.4836 36.7453 57.1493ZM41.0643 65.4637C41.1506 64.1589 41.1937 62.1746 41.1937 59.511C41.1937 57.1817 41.156 55.4832 41.0805 54.4156C41.307 54.4587 41.5604 54.4803 41.8408 54.4803C42.1211 54.4803 42.3692 54.4587 42.5849 54.4156C42.5201 54.944 42.4878 56.3136 42.4878 58.5243V59.1551C43.2319 59.1659 44.348 59.1713 45.8362 59.1713C47.3136 59.1713 48.4244 59.1659 49.1685 59.1551V58.5243C49.1685 56.9822 49.1199 55.6126 49.0229 54.4156C49.2493 54.4587 49.5081 54.4803 49.7993 54.4803C50.0905 54.4803 50.3439 54.4587 50.5596 54.4156C50.4841 55.9577 50.4464 57.6562 50.4464 59.511C50.4464 61.1825 50.4895 63.1668 50.5758 65.4637C50.3493 65.4206 50.0851 65.399 49.7831 65.399C49.5028 65.399 49.2547 65.4206 49.039 65.4637C49.1253 64.105 49.1685 62.4928 49.1685 60.6271V59.8669C48.0577 59.8345 46.947 59.8183 45.8362 59.8183C44.7255 59.8183 43.6093 59.8345 42.4878 59.8669V60.6271C42.4878 63.28 42.5148 64.8922 42.5687 65.4637C42.3422 65.4206 42.0834 65.399 41.7922 65.399C41.5226 65.399 41.28 65.4206 41.0643 65.4637ZM53.4389 65.4637C53.5252 64.1373 53.5683 62.2555 53.5683 59.8183C53.5683 57.6184 53.5306 55.8175 53.4551 54.4156C54.0698 54.4479 54.7276 54.4641 55.4285 54.4641C56.1511 54.4641 57.3858 54.4479 59.1328 54.4156C59.1328 54.4587 59.1328 54.5342 59.1328 54.6421C59.122 54.7499 59.1166 54.8308 59.1166 54.8847C59.1166 54.9278 59.122 55.0033 59.1328 55.1112C59.1328 55.219 59.1328 55.2999 59.1328 55.3538C57.9035 55.246 56.6256 55.192 55.2991 55.192H54.9271C54.9055 56.4753 54.8947 57.613 54.8947 58.6052V59.2522H55.1859C56.178 59.2522 57.3481 59.2091 58.6961 59.1228C58.6745 59.3385 58.6637 59.5056 58.6637 59.6242C58.6637 59.7321 58.6745 59.8831 58.6961 60.0772C58.2216 59.9909 57.2025 59.9478 55.6388 59.9478H54.8786V60.7242C54.8786 61.1987 54.8893 62.5143 54.9109 64.6711H55.3153C56.2859 64.6711 57.5799 64.6118 59.1975 64.4932C59.1975 64.5471 59.1975 64.628 59.1975 64.7358C59.1867 64.8437 59.1814 64.9245 59.1814 64.9785C59.1814 65.0324 59.1867 65.1133 59.1975 65.2211C59.1975 65.3289 59.1975 65.4098 59.1975 65.4637C58.6152 65.4422 57.6932 65.4314 56.4314 65.4314C55.1266 65.4314 54.1291 65.4422 53.4389 65.4637ZM61.4298 65.4637C61.4945 63.6844 61.5269 61.8457 61.5269 59.9478C61.5269 57.9743 61.4945 56.1302 61.4298 54.4156C61.7425 54.4479 62.0067 54.4641 62.2224 54.4641C62.4812 54.4641 62.9072 54.4479 63.5003 54.4156C64.1042 54.3725 64.5787 54.3509 64.9238 54.3509C66.0885 54.3509 66.9835 54.5989 67.609 55.095C68.2345 55.591 68.5472 56.2866 68.5472 57.1817C68.5472 58.2169 68.1644 59.0203 67.3987 59.5919C66.6331 60.1527 65.5223 60.433 64.0665 60.433C63.592 60.433 63.1822 60.4222 62.8371 60.4007V62.7138C62.8371 63.5658 62.8641 64.477 62.918 65.4476C62.616 65.4044 62.3896 65.3829 62.2386 65.3829C62.0014 65.3829 61.7318 65.4098 61.4298 65.4637ZM62.8209 59.8183C63.1444 59.8399 63.3871 59.8507 63.5488 59.8507C65.8674 59.8507 67.0267 59.0096 67.0267 57.3273C67.0267 56.4753 66.7786 55.8714 66.2826 55.5156C65.7865 55.1597 64.9939 54.9817 63.9047 54.9817C63.592 54.9817 63.2577 54.9979 62.9018 55.0303C62.8479 56.1949 62.8209 57.3057 62.8209 58.3625V59.8183ZM68.8384 65.4476C70.7471 61.2742 72.4133 57.5268 73.8367 54.2053H74.1441C75.6538 57.9797 77.2175 61.7325 78.8351 65.4637C78.5439 65.4098 78.2797 65.3829 78.0425 65.3829C77.7944 65.3829 77.5195 65.4098 77.2175 65.4637C76.8185 64.2452 76.3602 63.0212 75.8425 61.7918L75.5676 61.1448C75.1254 61.1232 74.4622 61.1124 73.5779 61.1124C72.6828 61.1124 72.0142 61.1232 71.5721 61.1448C71.0653 62.2987 70.5099 63.7383 69.906 65.4637C69.7227 65.4098 69.5447 65.3829 69.3722 65.3829C69.2536 65.3829 69.0756 65.4044 68.8384 65.4476ZM71.8471 60.433C71.9118 60.433 72.0789 60.433 72.3485 60.433C72.6181 60.4438 72.8608 60.4492 73.0765 60.4492C73.2382 60.4492 73.5617 60.4438 74.047 60.433C74.5323 60.433 74.9313 60.433 75.244 60.433L74.969 59.7213C74.8289 59.3546 74.3651 58.2547 73.5779 56.4214L71.8471 60.433ZM84.529 54.4156C86.1574 58.686 87.624 62.3688 88.9289 65.4637C88.6808 65.4206 88.4166 65.399 88.1363 65.399C87.8343 65.399 87.5701 65.4206 87.3436 65.4637C86.2545 62.4442 85.0359 59.2953 83.6879 56.017C82.3614 59.2414 81.1644 62.3903 80.0968 65.4637C79.9351 65.4206 79.7571 65.399 79.563 65.399C79.3581 65.399 79.1748 65.4206 79.013 65.4637C80.5012 61.9266 81.984 58.2439 83.4614 54.4156C83.6555 54.4695 83.8335 54.4965 83.9952 54.4965C84.157 54.4965 84.3349 54.4695 84.529 54.4156ZM91.8244 57.1008V59.1713C92.2773 59.1174 92.714 59.0904 93.1346 59.0904C94.5581 59.0904 95.6419 59.3708 96.386 59.9316C97.1301 60.4816 97.5021 61.2688 97.5021 62.2933C97.5021 63.3177 97.1301 64.1104 96.386 64.6711C95.6419 65.2211 94.5581 65.4961 93.1346 65.4961C92.865 65.4961 92.5199 65.4853 92.0994 65.4637C91.6788 65.4422 91.3876 65.4314 91.2259 65.4314C91.0425 65.4314 90.7568 65.453 90.3685 65.4961C90.4764 64.4608 90.5303 62.9727 90.5303 61.0315C90.5303 57.9905 90.4979 55.7852 90.4332 54.4156C90.8107 54.4695 91.0533 54.4965 91.1611 54.4965C91.3876 54.4965 91.6356 54.4695 91.9052 54.4156C91.8513 55.1489 91.8244 56.044 91.8244 57.1008ZM91.8082 59.9478C91.7866 60.5948 91.7758 61.1286 91.7758 61.5492C91.7758 62.8217 91.8082 63.8947 91.8729 64.7682C92.2827 64.8652 92.6493 64.9138 92.9729 64.9138C93.9218 64.9138 94.6659 64.6819 95.2051 64.2182C95.7551 63.7545 96.0301 63.1128 96.0301 62.2933C96.0301 61.4737 95.7551 60.832 95.2051 60.3683C94.6659 59.9046 93.9218 59.6728 92.9729 59.6728C92.4229 59.6728 92.0346 59.7644 91.8082 59.9478ZM100.026 65.4637C100.112 64.1589 100.155 62.1746 100.155 59.511C100.155 57.1817 100.117 55.4832 100.042 54.4156C100.268 54.4587 100.522 54.4803 100.802 54.4803C101.082 54.4803 101.33 54.4587 101.546 54.4156C101.481 54.944 101.449 56.3136 101.449 58.5243V59.1551C102.193 59.1659 103.309 59.1713 104.797 59.1713C106.275 59.1713 107.386 59.1659 108.13 59.1551V58.5243C108.13 56.9822 108.081 55.6126 107.984 54.4156C108.211 54.4587 108.469 54.4803 108.761 54.4803C109.052 54.4803 109.305 54.4587 109.521 54.4156C109.445 55.9577 109.408 57.6562 109.408 59.511C109.408 61.1825 109.451 63.1668 109.537 65.4637C109.311 65.4206 109.046 65.399 108.744 65.399C108.464 65.399 108.216 65.4206 108 65.4637C108.087 64.105 108.13 62.4928 108.13 60.6271V59.8669C107.019 59.8345 105.908 59.8183 104.797 59.8183C103.687 59.8183 102.571 59.8345 101.449 59.8669V60.6271C101.449 63.28 101.476 64.8922 101.53 65.4637C101.303 65.4206 101.045 65.399 100.753 65.399C100.484 65.399 100.241 65.4206 100.026 65.4637ZM113.856 57.1008V59.1713C114.309 59.1174 114.746 59.0904 115.166 59.0904C116.59 59.0904 117.673 59.3708 118.418 59.9316C119.162 60.4816 119.534 61.2688 119.534 62.2933C119.534 63.3177 119.162 64.1104 118.418 64.6711C117.673 65.2211 116.59 65.4961 115.166 65.4961C114.897 65.4961 114.552 65.4853 114.131 65.4637C113.71 65.4422 113.419 65.4314 113.257 65.4314C113.074 65.4314 112.788 65.453 112.4 65.4961C112.508 64.4608 112.562 62.9727 112.562 61.0315C112.562 57.9905 112.53 55.7852 112.465 54.4156C112.842 54.4695 113.085 54.4965 113.193 54.4965C113.419 54.4965 113.667 54.4695 113.937 54.4156C113.883 55.1489 113.856 56.044 113.856 57.1008ZM113.84 59.9478C113.818 60.5948 113.807 61.1286 113.807 61.5492C113.807 62.8217 113.84 63.8947 113.904 64.7682C114.314 64.8652 114.681 64.9138 115.004 64.9138C115.953 64.9138 116.698 64.6819 117.237 64.2182C117.787 63.7545 118.062 63.1128 118.062 62.2933C118.062 61.4737 117.787 60.832 117.237 60.3683C116.698 59.9046 115.953 59.6728 115.004 59.6728C114.454 59.6728 114.066 59.7644 113.84 59.9478ZM120.698 65.4637C120.763 64.4501 120.795 63.0589 120.795 61.2904V59.9478C120.795 57.241 120.763 55.3969 120.698 54.4156C120.914 54.4587 121.157 54.4803 121.426 54.4803C121.707 54.4803 121.96 54.4587 122.187 54.4156C122.133 55.1273 122.106 56.1842 122.106 57.5861V59.9478C122.106 60.2821 122.106 60.7458 122.106 61.3389C122.095 61.932 122.09 62.358 122.09 62.6168C122.09 63.8677 122.122 64.8167 122.187 65.4637C121.917 65.4098 121.674 65.3829 121.459 65.3829C121.243 65.3829 120.99 65.4098 120.698 65.4637ZM125.017 65.4637C125.104 64.1373 125.147 62.2555 125.147 59.8183C125.147 57.6184 125.109 55.8175 125.034 54.4156C125.648 54.4479 126.306 54.4641 127.007 54.4641C127.73 54.4641 128.964 54.4479 130.711 54.4156C130.711 54.4587 130.711 54.5342 130.711 54.6421C130.7 54.7499 130.695 54.8308 130.695 54.8847C130.695 54.9278 130.7 55.0033 130.711 55.1112C130.711 55.219 130.711 55.2999 130.711 55.3538C129.482 55.246 128.204 55.192 126.878 55.192H126.506C126.484 56.4753 126.473 57.613 126.473 58.6052V59.2522H126.764C127.756 59.2522 128.927 59.2091 130.275 59.1228C130.253 59.3385 130.242 59.5056 130.242 59.6242C130.242 59.7321 130.253 59.8831 130.275 60.0772C129.8 59.9909 128.781 59.9478 127.217 59.9478H126.457V60.7242C126.457 61.1987 126.468 62.5143 126.489 64.6711H126.894C127.864 64.6711 129.158 64.6118 130.776 64.4932C130.776 64.5471 130.776 64.628 130.776 64.7358C130.765 64.8437 130.76 64.9245 130.76 64.9785C130.76 65.0324 130.765 65.1133 130.776 65.2211C130.776 65.3289 130.776 65.4098 130.776 65.4637C130.194 65.4422 129.272 65.4314 128.01 65.4314C126.705 65.4314 125.708 65.4422 125.017 65.4637ZM54.5227 76.9478V78.5492C54.5227 79.9942 54.555 81.0672 54.6197 81.7682C55.0295 81.8652 55.3962 81.9138 55.7197 81.9138C56.6687 81.9138 57.4128 81.6873 57.952 81.2344C58.502 80.7814 58.7769 80.1614 58.7769 79.3741C58.7769 77.7134 57.7363 76.8831 55.655 76.8831C55.4825 76.8831 55.105 76.9046 54.5227 76.9478ZM53.1154 82.4961C53.2232 81.4608 53.2771 79.9727 53.2771 78.0315C53.2771 74.9905 53.2448 72.7852 53.1801 71.4156C53.6546 71.4372 53.9134 71.4479 53.9565 71.4479C54.0644 71.4479 54.334 71.4426 54.7653 71.4318C55.2075 71.4102 55.5903 71.3994 55.9138 71.3994C57.2942 71.3994 58.3078 71.5935 58.9549 71.9817C59.6127 72.37 59.9416 73.0008 59.9416 73.8743C59.9416 75.287 59.0358 76.1713 57.2241 76.5272C59.2407 76.7321 60.249 77.6218 60.249 79.1962C60.249 81.3961 58.7931 82.4961 55.8815 82.4961C55.6119 82.4961 55.2668 82.4853 54.8462 82.4637C54.4256 82.4422 54.1345 82.4314 53.9727 82.4314C53.7894 82.4314 53.5036 82.453 53.1154 82.4961ZM54.5712 76.2684C54.8947 76.3007 55.1967 76.3169 55.4771 76.3169C57.4721 76.3169 58.4696 75.5351 58.4696 73.9714C58.4696 72.6126 57.5799 71.9332 55.8006 71.9332C55.4878 71.9332 55.105 71.9602 54.6521 72.0141C54.5982 72.6072 54.5712 73.3028 54.5712 74.1008V76.2684ZM67.9487 82.6902C66.1046 82.6902 64.6488 82.178 63.5812 81.1535C62.5136 80.129 61.9798 78.7325 61.9798 76.9639C61.9798 75.2169 62.519 73.8258 63.5974 72.7905C64.6866 71.7445 66.137 71.2215 67.9487 71.2215C69.782 71.2215 71.2324 71.7391 72.3 72.7744C73.3676 73.8096 73.9014 75.2061 73.9014 76.9639C73.9014 78.6786 73.3568 80.0643 72.2677 81.1211C71.1785 82.1672 69.7388 82.6902 67.9487 82.6902ZM67.9487 82.0755C69.3398 82.0755 70.4128 81.6334 71.1677 80.7491C71.9226 79.8648 72.3 78.5977 72.3 76.9478C72.3 75.2762 71.928 74.0037 71.1839 73.1302C70.4398 72.2567 69.3614 71.82 67.9487 71.82C66.5576 71.82 65.4846 72.2729 64.7297 73.1788C63.9748 74.0738 63.5974 75.3517 63.5974 77.0125C63.5974 78.6408 63.9694 79.8918 64.7135 80.7653C65.4684 81.6388 66.5468 82.0755 67.9487 82.0755ZM84.7555 82.3343C84.7555 82.5069 84.7717 82.7765 84.804 83.1431H84.6584C84.432 82.8088 84.1192 82.6201 83.7202 82.577C82.7712 82.4691 81.3531 82.4152 79.466 82.4152C77.967 82.4152 76.9964 82.4368 76.5543 82.4799C75.6916 82.5662 75.1038 82.7873 74.7911 83.1431H74.6779C74.7102 82.8843 74.7264 82.6147 74.7264 82.3343C74.7264 82.0108 74.7102 81.7304 74.6779 81.4932C74.7965 81.5255 74.9421 81.5417 75.1146 81.5417C76.7107 78.1771 78.2582 74.7317 79.7571 71.2053H80.0645C81.6497 75.1738 83.1001 78.6193 84.4158 81.5417C84.5991 81.5417 84.7285 81.5255 84.804 81.4932C84.7609 81.8491 84.7447 82.1294 84.7555 82.3343ZM82.8467 81.6226C82.5663 80.7922 82.2051 79.8486 81.7629 78.7918L80.8894 76.7213C80.7061 76.2576 80.2424 75.1576 79.4983 73.4214L77.4925 78.1448C77.1798 78.9212 76.7376 80.0751 76.1661 81.6064C76.8886 81.6496 78.0101 81.6711 79.5307 81.6711C81.1051 81.6711 82.2105 81.6549 82.8467 81.6226ZM87.7804 74.1008V76.1713C88.2333 76.1174 88.6701 76.0904 89.0906 76.0904C90.5141 76.0904 91.5979 76.3708 92.342 76.9316C93.0861 77.4816 93.4581 78.2688 93.4581 79.2933C93.4581 80.3177 93.0861 81.1104 92.342 81.6711C91.5979 82.2211 90.5141 82.4961 89.0906 82.4961C88.821 82.4961 88.4759 82.4853 88.0554 82.4637C87.6348 82.4422 87.3436 82.4314 87.1819 82.4314C86.9985 82.4314 86.7128 82.453 86.3245 82.4961C86.4324 81.4608 86.4863 79.9727 86.4863 78.0315C86.4863 74.9905 86.454 72.7852 86.3892 71.4156C86.7667 71.4695 87.0093 71.4965 87.1172 71.4965C87.3436 71.4965 87.5917 71.4695 87.8613 71.4156C87.8073 72.1489 87.7804 73.044 87.7804 74.1008ZM87.7642 76.9478C87.7426 77.5948 87.7318 78.1286 87.7318 78.5492C87.7318 79.8217 87.7642 80.8947 87.8289 81.7682C88.2387 81.8652 88.6053 81.9138 88.9289 81.9138C89.8779 81.9138 90.6219 81.6819 91.1611 81.2182C91.7111 80.7545 91.9861 80.1128 91.9861 79.2933C91.9861 78.4737 91.7111 77.832 91.1611 77.3683C90.6219 76.9046 89.8779 76.6728 88.9289 76.6728C88.3789 76.6728 87.9907 76.7644 87.7642 76.9478ZM94.6228 82.4637C94.6875 81.4501 94.7198 80.0589 94.7198 78.2904V76.9478C94.7198 74.241 94.6875 72.3969 94.6228 71.4156C94.8385 71.4587 95.0811 71.4803 95.3507 71.4803C95.6311 71.4803 95.8845 71.4587 96.111 71.4156C96.0571 72.1273 96.0301 73.1842 96.0301 74.5861V76.9478C96.0301 77.2821 96.0301 77.7458 96.0301 78.3389C96.0193 78.932 96.0139 79.358 96.0139 79.6168C96.0139 80.8677 96.0463 81.8167 96.111 82.4637C95.8414 82.4098 95.5987 82.3829 95.3831 82.3829C95.1674 82.3829 94.914 82.4098 94.6228 82.4637Z" fill="#627692"/>
<path d="M60.8468 28.6873L61.6178 30.314L63.4032 30.5446L62.0943 31.7805L62.4268 33.5498L60.8468 32.6869L59.2669 33.5498L59.5993 31.7805L58.2905 30.5446L60.0758 30.314L60.8468 28.6873Z" fill="#627692"/>
<path d="M68.1579 28.687L68.9289 30.3138L70.7143 30.5443L69.4054 31.7803L69.7378 33.5495L68.1579 32.6867L66.578 33.5495L66.9104 31.7803L65.6015 30.5443L67.3869 30.3138L68.1579 28.687Z" fill="#627692"/>
<path d="M75.4692 28.6873L76.2402 30.314L78.0256 30.5446L76.7167 31.7805L77.0491 33.5498L75.4692 32.6869L73.8893 33.5498L74.2217 31.7805L72.9128 30.5446L74.6982 30.314L75.4692 28.6873Z" fill="#627692"/>
<path d="M82.7802 28.687L83.5512 30.3138L85.3366 30.5443L84.0278 31.7803L84.3602 33.5495L82.7802 32.6867L81.2003 33.5495L81.5327 31.7803L80.2239 30.5443L82.0092 30.3138L82.7802 28.687Z" fill="#627692"/>
</svg>
