<svg width="401" height="45" viewBox="0 0 401 45" fill="none" xmlns="http://www.w3.org/2000/svg">
<path d="M0.5 42C0.760417 38.0612 0.890625 32.0716 0.890625 24.0312C0.890625 17 0.776693 11.873 0.548828 8.65039C1.23242 8.7806 1.9974 8.8457 2.84375 8.8457C3.6901 8.8457 4.4388 8.7806 5.08984 8.65039C4.89453 10.2454 4.79688 14.3796 4.79688 21.0527V22.957C7.04297 22.9896 10.4121 23.0059 14.9043 23.0059C19.3639 23.0059 22.7168 22.9896 24.9629 22.957V21.0527C24.9629 16.3978 24.8164 12.2637 24.5234 8.65039C25.207 8.7806 25.9883 8.8457 26.8672 8.8457C27.7461 8.8457 28.5111 8.7806 29.1621 8.65039C28.9342 13.3053 28.8203 18.4323 28.8203 24.0312C28.8203 29.0768 28.9505 35.0664 29.2109 42C28.5273 41.8698 27.7298 41.8047 26.8184 41.8047C25.972 41.8047 25.2233 41.8698 24.5723 42C24.8327 37.8984 24.9629 33.0319 24.9629 27.4004V25.1055C21.61 25.0078 18.2572 24.959 14.9043 24.959C11.5514 24.959 8.18229 25.0078 4.79688 25.1055V27.4004C4.79688 35.4082 4.87826 40.2747 5.04102 42C4.35742 41.8698 3.57617 41.8047 2.69727 41.8047C1.88346 41.8047 1.15104 41.8698 0.5 42ZM53.5273 42.6836C47.9609 42.6836 43.5664 41.1374 40.3438 38.0449C37.1211 34.9525 35.5098 30.737 35.5098 25.3984C35.5098 20.125 37.1374 15.9258 40.3926 12.8008C43.6803 9.64323 48.0586 8.06445 53.5273 8.06445C59.0612 8.06445 63.4395 9.62695 66.6621 12.752C69.8848 15.877 71.4961 20.0924 71.4961 25.3984C71.4961 30.5742 69.8522 34.7572 66.5645 37.9473C63.2767 41.1048 58.931 42.6836 53.5273 42.6836ZM53.5273 40.8281C57.7266 40.8281 60.9655 39.4935 63.2441 36.8242C65.5228 34.1549 66.6621 30.3301 66.6621 25.3496C66.6621 20.304 65.5391 16.4629 63.293 13.8262C61.0469 11.1895 57.7917 9.87109 53.5273 9.87109C49.3281 9.87109 46.0892 11.2383 43.8105 13.9727C41.5319 16.6745 40.3926 20.5319 40.3926 25.5449C40.3926 30.4603 41.5156 34.2363 43.7617 36.873C46.0404 39.5098 49.2956 40.8281 53.5273 40.8281ZM82.1406 25.3496V30.1836C82.1406 34.5456 82.2383 37.7845 82.4336 39.9004C83.6706 40.1934 84.7773 40.3398 85.7539 40.3398C88.6185 40.3398 90.8646 39.6562 92.4922 38.2891C94.1523 36.9219 94.9824 35.0501 94.9824 32.6738C94.9824 27.6608 91.8411 25.1543 85.5586 25.1543C85.0378 25.1543 83.8984 25.2194 82.1406 25.3496ZM77.8926 42.0977C78.2181 38.9727 78.3809 34.4805 78.3809 28.6211C78.3809 19.4414 78.2832 12.7845 78.0879 8.65039C79.5202 8.71549 80.3014 8.74805 80.4316 8.74805C80.7572 8.74805 81.571 8.73177 82.873 8.69922C84.2077 8.63411 85.3633 8.60156 86.3398 8.60156C90.5065 8.60156 93.5664 9.1875 95.5195 10.3594C97.5052 11.5312 98.498 13.4355 98.498 16.0723C98.498 20.3366 95.7637 23.0059 90.2949 24.0801C96.3822 24.6986 99.4258 27.3841 99.4258 32.1367C99.4258 38.7773 95.0312 42.0977 86.2422 42.0977C85.4284 42.0977 84.3867 42.0651 83.1172 42C81.8477 41.9349 80.9688 41.9023 80.4805 41.9023C79.9271 41.9023 79.0645 41.9674 77.8926 42.0977ZM82.2871 23.2988C83.2637 23.3965 84.1751 23.4453 85.0215 23.4453C91.0436 23.4453 94.0547 21.0853 94.0547 16.3652C94.0547 12.2637 91.3691 10.2129 85.998 10.2129C85.054 10.2129 83.8984 10.2943 82.5312 10.457C82.3685 12.2474 82.2871 14.347 82.2871 16.7559V23.2988ZM111.389 16.7559V23.0059C112.756 22.8431 114.074 22.7617 115.344 22.7617C119.641 22.7617 122.912 23.6081 125.158 25.3008C127.404 26.9609 128.527 29.3372 128.527 32.4297C128.527 35.5221 127.404 37.9147 125.158 39.6074C122.912 41.2676 119.641 42.0977 115.344 42.0977C114.53 42.0977 113.488 42.0651 112.219 42C110.949 41.9349 110.07 41.9023 109.582 41.9023C109.029 41.9023 108.166 41.9674 106.994 42.0977C107.32 38.9727 107.482 34.4805 107.482 28.6211C107.482 19.4414 107.385 12.7845 107.189 8.65039C108.329 8.81315 109.061 8.89453 109.387 8.89453C110.07 8.89453 110.819 8.81315 111.633 8.65039C111.47 10.8639 111.389 13.5658 111.389 16.7559ZM111.34 25.3496C111.275 27.3027 111.242 28.9141 111.242 30.1836C111.242 34.0247 111.34 37.2637 111.535 39.9004C112.772 40.1934 113.879 40.3398 114.855 40.3398C117.72 40.3398 119.966 39.64 121.594 38.2402C123.254 36.8405 124.084 34.9036 124.084 32.4297C124.084 29.9557 123.254 28.0189 121.594 26.6191C119.966 25.2194 117.72 24.5195 114.855 24.5195C113.195 24.5195 112.023 24.7962 111.34 25.3496ZM132.043 42C132.238 38.9401 132.336 34.7409 132.336 29.4023V25.3496C132.336 17.179 132.238 11.6126 132.043 8.65039C132.694 8.7806 133.426 8.8457 134.24 8.8457C135.087 8.8457 135.852 8.7806 136.535 8.65039C136.372 10.7988 136.291 13.9889 136.291 18.2207V25.3496C136.291 26.3587 136.291 27.7585 136.291 29.5488C136.258 31.3392 136.242 32.625 136.242 33.4062C136.242 37.1823 136.34 40.0469 136.535 42C135.721 41.8372 134.989 41.7559 134.338 41.7559C133.687 41.7559 132.922 41.8372 132.043 42ZM168.664 1.7168C165.767 4.67904 162.691 6.14388 159.436 6.11133C156.441 6.07878 153.365 4.61393 150.207 1.7168C151.021 1.39128 151.59 0.821615 151.916 0.0078125C152.632 1.21224 153.755 2.35156 155.285 3.42578C156.848 4.46745 158.231 4.98828 159.436 4.98828C160.77 4.98828 162.154 4.51628 163.586 3.57227C165.018 2.5957 166.141 1.40755 166.955 0.0078125C167.443 0.919271 168.013 1.48893 168.664 1.7168ZM169.104 16.9023C167.606 18.3021 163.749 22.3223 157.531 28.9629C151.118 35.7988 147.18 40.1445 145.715 42H145.08C145.275 38.9401 145.373 34.7409 145.373 29.4023V25.3496C145.373 17.179 145.275 11.6126 145.08 8.65039C145.731 8.7806 146.464 8.8457 147.277 8.8457C148.124 8.8457 148.889 8.7806 149.572 8.65039C149.41 10.7988 149.328 13.9889 149.328 18.2207V25.3496C149.328 26.1634 149.328 27.4167 149.328 29.1094C149.296 30.8346 149.279 32.1042 149.279 32.918C149.279 33.3086 149.296 33.5853 149.328 33.748C150.793 32.5111 154.585 28.6211 160.705 22.0781C167.02 15.3724 171.057 10.8965 172.814 8.65039H173.4C173.238 10.7988 173.156 13.9889 173.156 18.2207V25.3496C173.156 26.3587 173.156 27.7585 173.156 29.5488C173.124 31.3392 173.107 32.625 173.107 33.4062C173.107 37.1823 173.205 40.0469 173.4 42C172.587 41.8372 171.854 41.7559 171.203 41.7559C170.552 41.7559 169.787 41.8372 168.908 42C169.104 38.9401 169.201 34.7409 169.201 29.4023V25.3496C169.201 20.7272 169.169 17.9115 169.104 16.9023ZM199.865 36.5312C199.865 39.3307 199.93 41.1536 200.061 42C199.312 41.8698 198.498 41.8047 197.619 41.8047C196.838 41.8047 196.138 41.8698 195.52 42C195.78 38.6471 195.91 34.513 195.91 29.5977C195.91 22.6315 195.78 15.6491 195.52 8.65039C197.342 8.74805 199.556 8.79688 202.16 8.79688C204.764 8.79688 208.361 8.74805 212.951 8.65039C212.951 8.81315 212.951 9.07357 212.951 9.43164C212.919 9.78971 212.902 10.0664 212.902 10.2617C212.902 10.4245 212.919 10.6849 212.951 11.043C212.951 11.3685 212.951 11.6289 212.951 11.8242C210.673 11.3359 206.75 11.0918 201.184 11.0918H200.012C199.914 12.8171 199.865 15.2422 199.865 18.3672V36.5312ZM233.166 42.6836C227.6 42.6836 223.205 41.1374 219.982 38.0449C216.76 34.9525 215.148 30.737 215.148 25.3984C215.148 20.125 216.776 15.9258 220.031 12.8008C223.319 9.64323 227.697 8.06445 233.166 8.06445C238.7 8.06445 243.078 9.62695 246.301 12.752C249.523 15.877 251.135 20.0924 251.135 25.3984C251.135 30.5742 249.491 34.7572 246.203 37.9473C242.915 41.1048 238.57 42.6836 233.166 42.6836ZM233.166 40.8281C237.365 40.8281 240.604 39.4935 242.883 36.8242C245.161 34.1549 246.301 30.3301 246.301 25.3496C246.301 20.304 245.178 16.4629 242.932 13.8262C240.686 11.1895 237.43 9.87109 233.166 9.87109C228.967 9.87109 225.728 11.2383 223.449 13.9727C221.171 16.6745 220.031 20.5319 220.031 25.5449C220.031 30.4603 221.154 34.2363 223.4 36.873C225.679 39.5098 228.934 40.8281 233.166 40.8281ZM283.898 41.6094C283.898 42.1302 283.947 42.944 284.045 44.0508H283.605C282.922 43.0417 281.978 42.472 280.773 42.3418C277.909 42.0163 273.628 41.8535 267.932 41.8535C263.407 41.8535 260.477 41.9186 259.143 42.0488C256.538 42.3092 254.764 42.9766 253.82 44.0508H253.479C253.576 43.2695 253.625 42.4557 253.625 41.6094C253.625 40.6328 253.576 39.7865 253.479 39.0703C253.837 39.168 254.276 39.2168 254.797 39.2168C259.615 29.0605 264.286 18.6602 268.811 8.01562H269.738C274.523 19.9948 278.902 30.3952 282.873 39.2168C283.426 39.2168 283.817 39.168 284.045 39.0703C283.915 40.1445 283.866 40.9909 283.898 41.6094ZM278.137 39.4609C277.29 36.9544 276.2 34.1061 274.865 30.916L272.229 24.666C271.675 23.2663 270.275 19.946 268.029 14.7051L261.975 28.9629C261.031 31.3066 259.696 34.7897 257.971 39.4121C260.152 39.5423 263.537 39.6074 268.127 39.6074C272.88 39.6074 276.216 39.5586 278.137 39.4609ZM299.963 42V41.1699C305.692 35.571 309.533 31.4368 311.486 28.7676C314.221 25.0892 315.588 21.6387 315.588 18.416C315.588 16.1699 315.067 14.4121 314.025 13.1426C313.016 11.873 311.633 11.2383 309.875 11.2383C306.88 11.2383 304.797 13.1589 303.625 17C302.974 15.8607 302.323 14.9492 301.672 14.2656C303.788 11.0755 306.799 9.48047 310.705 9.48047C313.602 9.48047 315.848 10.2617 317.443 11.8242C319.071 13.3867 319.885 15.5352 319.885 18.2695C319.885 21.1667 318.615 24.1126 316.076 27.1074C314.058 29.1908 310.428 33.0645 305.188 38.7285C306.359 38.7611 307.971 38.7773 310.021 38.7773C312.593 38.7773 315.995 38.6309 320.227 38.3379C320.161 38.9889 320.129 39.4772 320.129 39.8027C320.129 40.5189 320.178 41.2513 320.275 42C315.848 41.9349 312.495 41.9023 310.217 41.9023C308.003 41.9023 304.585 41.9349 299.963 42ZM330.578 26.082C330.578 31.2904 331.132 35.0827 332.238 37.459C333.378 39.9329 335.266 41.1699 337.902 41.1699C340.702 41.1699 342.639 39.9004 343.713 37.3613C344.689 35.0501 345.178 31.0951 345.178 25.4961C345.178 20.5482 344.592 16.9023 343.42 14.5586C342.281 12.2148 340.441 11.043 337.902 11.043C335.233 11.043 333.329 12.2799 332.189 14.7539C331.115 17.0651 330.578 20.8411 330.578 26.082ZM326.477 26.1309C326.477 15.0306 330.269 9.48047 337.854 9.48047C345.471 9.48047 349.279 15.0306 349.279 26.1309C349.279 37.1986 345.471 42.7324 337.854 42.7324C330.269 42.7324 326.477 37.1986 326.477 26.1309ZM353.576 42V41.1699C359.305 35.571 363.146 31.4368 365.1 28.7676C367.834 25.0892 369.201 21.6387 369.201 18.416C369.201 16.1699 368.68 14.4121 367.639 13.1426C366.63 11.873 365.246 11.2383 363.488 11.2383C360.493 11.2383 358.41 13.1589 357.238 17C356.587 15.8607 355.936 14.9492 355.285 14.2656C357.401 11.0755 360.412 9.48047 364.318 9.48047C367.215 9.48047 369.462 10.2617 371.057 11.8242C372.684 13.3867 373.498 15.5352 373.498 18.2695C373.498 21.1667 372.229 24.1126 369.689 27.1074C367.671 29.1908 364.042 33.0645 358.801 38.7285C359.973 38.7611 361.584 38.7773 363.635 38.7773C366.206 38.7773 369.608 38.6309 373.84 38.3379C373.775 38.9889 373.742 39.4772 373.742 39.8027C373.742 40.5189 373.791 41.2513 373.889 42C369.462 41.9349 366.109 41.9023 363.83 41.9023C361.617 41.9023 358.199 41.9349 353.576 42ZM381.115 41.0234C381.473 39.6562 381.766 38.3053 381.994 36.9707C383.459 39.7051 385.77 41.0723 388.928 41.0723C391.141 41.0723 392.932 40.2747 394.299 38.6797C395.666 37.0846 396.35 34.9199 396.35 32.1855C396.35 29.8743 395.747 28.084 394.543 26.8145C393.371 25.5449 391.727 24.9102 389.611 24.9102C387.691 24.9102 386.014 25.3984 384.582 26.375L383.947 26.2285C384.143 24.5684 384.24 22.7454 384.24 20.7598C384.24 16.7884 384.11 13.2891 383.85 10.2617C385.64 10.4896 387.788 10.6035 390.295 10.6035C392.704 10.6035 395.78 10.4896 399.523 10.2617C399.426 10.9453 399.377 11.5964 399.377 12.2148C399.377 12.6055 399.41 13.0938 399.475 13.6797C398.531 13.5169 396.87 13.4355 394.494 13.4355H386.486C386.258 16.4629 386.145 19.5065 386.145 22.5664V24.1289C387.186 23.3802 389.009 23.0059 391.613 23.0059C394.38 23.0059 396.545 23.8034 398.107 25.3984C399.702 26.9935 400.5 29.1908 400.5 31.9902C400.5 35.2454 399.393 37.8659 397.18 39.8516C394.999 41.8047 392.036 42.7812 388.293 42.7812C385.428 42.7812 383.036 42.1953 381.115 41.0234Z" fill="#627692"/>
</svg>
