<svg width="334" height="26" viewBox="0 0 334 26" fill="none" xmlns="http://www.w3.org/2000/svg">
<path d="M301.401 10.9422C301.401 10.7859 301.558 10.6296 301.714 10.6296C302.339 10.317 303.277 10.1607 304.371 9.84808C307.497 9.22283 309.842 7.03444 310.624 4.06451C310.78 3.43926 310.936 2.81399 311.249 2.18874C311.249 2.03243 311.405 1.8761 311.718 1.8761C311.874 1.8761 312.031 2.03243 312.031 2.18874C312.031 2.18874 312.187 2.81403 312.343 3.59559C312.968 6.72183 315.469 9.22277 318.752 9.69171C319.846 9.84802 320.784 10.1606 321.566 10.4733C321.722 10.4733 321.878 10.6296 321.878 10.7859C321.878 10.9422 321.722 11.0986 321.566 11.0986C320.784 11.4112 319.846 11.5675 318.752 11.8801C315.626 12.5054 313.125 14.85 312.343 17.9762C312.187 18.7578 312.031 19.3831 312.031 19.3831C312.031 19.5394 311.874 19.6957 311.718 19.6957C311.562 19.6957 311.405 19.5394 311.249 19.3831C311.093 18.7578 310.78 18.2889 310.624 17.5073C309.842 14.5374 307.341 12.349 304.371 11.7238C303.277 11.5674 302.495 11.2549 301.714 11.0986C301.558 11.2549 301.401 11.0985 301.401 10.9422ZM311.405 3.90814C311.405 4.06445 311.405 4.22078 311.249 4.22078C310.467 7.50334 307.654 10.0044 304.371 10.6296C303.902 10.786 303.433 10.7859 303.121 10.9422C303.59 11.0985 303.902 11.0985 304.371 11.2548C307.81 11.8801 310.467 14.3811 311.249 17.6637C311.249 17.82 311.249 17.9762 311.405 17.9762C312.187 14.5374 314.844 11.8801 318.439 11.2548C318.908 11.0985 319.534 11.0985 319.846 10.9422C319.377 10.7859 318.908 10.786 318.283 10.6296C315 10.0044 312.187 7.34701 311.405 3.90814Z" fill="#BB8E4D"/>
<path d="M250.6 21.2585C250.6 21.1022 250.6 21.1022 250.756 20.9459L253.882 17.8196C254.039 17.6633 254.351 17.6633 254.508 17.8196C254.664 17.9759 254.664 18.2886 254.508 18.4449L251.381 21.5712C251.225 21.7275 250.912 21.7275 250.756 21.5712C250.6 21.4148 250.6 21.2585 250.6 21.2585Z" fill="#BB8E4D"/>
<path d="M265.137 6.72189C265.137 6.56558 265.137 6.56556 265.293 6.40925L268.419 3.28301C268.576 3.12669 268.888 3.12669 269.045 3.28301C269.201 3.43932 269.201 3.75189 269.045 3.9082L265.918 7.03444C265.762 7.19075 265.449 7.19075 265.293 7.03444C265.137 6.87813 265.137 6.87821 265.137 6.72189Z" fill="#BB8E4D"/>
<path d="M250.6 3.59565C250.6 3.43934 250.6 3.43932 250.756 3.28301C250.912 3.12669 251.225 3.12669 251.381 3.28301L254.508 6.40925C254.664 6.56556 254.664 6.87813 254.508 7.03444C254.351 7.19075 254.039 7.19075 253.882 7.03444L250.756 3.9082C250.6 3.9082 250.6 3.75196 250.6 3.59565Z" fill="#BB8E4D"/>
<path d="M265.137 18.1323C265.137 17.976 265.137 17.9759 265.293 17.8196C265.449 17.6633 265.762 17.6633 265.918 17.8196L269.045 20.9459C269.201 21.1022 269.201 21.4148 269.045 21.5712C268.888 21.7275 268.576 21.7275 268.419 21.5712L265.293 18.4449C265.137 18.4449 265.137 18.2886 265.137 18.1323Z" fill="#BB8E4D"/>
<path d="M245.91 12.505C245.91 12.3487 246.067 12.1924 246.223 12.1924C247.942 11.5672 250.443 11.0982 253.726 10.6293C254.507 10.6293 255.133 10.3167 255.758 9.84775C255.133 9.06619 254.664 8.28459 254.507 7.65934C254.507 7.50302 254.507 7.34673 254.664 7.19042C254.82 7.03411 254.976 7.03405 255.133 7.03405C255.758 7.34667 256.383 7.65937 257.321 8.28462C257.79 7.65937 257.946 7.03405 258.103 6.25249C258.415 3.90781 258.884 1.87577 259.509 0.312643C259.509 0.156331 259.666 -6.03381e-07 259.978 -5.89972e-07C260.135 -5.83268e-07 260.291 0.156331 260.291 0.312643C260.291 0.312643 261.073 3.5952 261.542 6.56513C261.698 7.19038 262.01 7.97196 262.323 8.4409C263.105 7.81565 263.886 7.34667 264.511 7.03405C264.668 7.03405 264.824 7.03411 264.98 7.19042C265.137 7.34673 265.137 7.50302 264.98 7.65934C264.98 7.65934 264.199 8.59719 263.574 9.69138C264.199 10.1603 264.824 10.3166 265.606 10.4729C269.044 10.7856 271.702 11.4108 273.421 12.0361C273.578 12.0361 273.734 12.1924 273.734 12.3487C273.734 12.505 273.578 12.6613 273.421 12.6613C271.702 13.2866 269.044 13.9118 265.606 14.2245C264.98 14.2245 264.355 14.537 263.73 14.8497C264.355 15.7875 264.824 16.4128 265.137 17.0381C265.137 17.1944 265.137 17.3507 264.98 17.507C264.824 17.6633 264.668 17.6634 264.511 17.6634C263.886 17.3507 263.105 16.8818 262.167 16.2565C261.698 16.8818 261.542 17.507 261.385 18.1323C260.916 21.1022 260.135 24.2285 260.135 24.3848C260.135 24.5411 259.978 24.6974 259.822 24.6974C259.666 24.6974 259.509 24.5411 259.353 24.3848C258.728 22.8216 258.259 20.7896 257.946 18.4449C257.79 17.6634 257.477 16.8818 257.008 16.2565C256.071 17.0381 254.976 17.6634 254.976 17.6634C254.82 17.8197 254.664 17.8197 254.507 17.6634C254.351 17.507 254.351 17.3507 254.351 17.1943C254.664 16.5691 255.133 15.7876 255.602 15.1623C254.976 14.6934 254.195 14.5371 253.57 14.3807C250.287 14.0681 247.786 13.4429 246.067 12.8176C246.067 12.8176 245.91 12.6613 245.91 12.505ZM256.696 9.84775C256.696 10.0041 256.696 10.1603 256.54 10.1603C255.758 10.7855 254.82 11.0982 253.726 11.2545C251.225 11.5671 249.037 11.8798 247.473 12.3487C249.037 12.8176 251.069 13.1303 253.726 13.4429C254.82 13.5992 255.758 13.9119 256.54 14.5371C256.696 14.6934 256.696 14.8497 256.54 15.1623C256.383 15.3186 256.227 15.475 256.071 15.7876C256.227 15.6313 256.54 15.475 256.696 15.3187C256.852 15.1624 257.165 15.1624 257.165 15.3187C257.946 16.1002 258.259 17.1944 258.415 18.2885C258.728 20.008 259.041 21.4148 259.353 22.8216C259.666 21.5711 259.978 19.8517 260.291 17.9759C260.447 17.038 260.916 16.1002 261.542 15.4749C261.698 15.3186 261.854 15.3186 262.167 15.4749C262.636 15.7876 263.105 16.1002 263.417 16.4128C263.105 16.1002 262.948 15.6312 262.636 15.1623C262.636 15.006 262.479 15.006 262.636 14.8497C262.636 14.6933 262.636 14.6934 262.792 14.5371C263.574 13.9119 264.511 13.5992 265.449 13.5992C268.107 13.2866 270.295 12.9739 271.858 12.505C270.295 12.036 268.107 11.7235 265.449 11.4109C264.511 11.2546 263.417 10.9419 262.636 10.3167C262.479 10.1604 262.479 10.004 262.479 9.69138C262.636 9.37875 262.792 9.22244 262.948 8.90982C262.636 9.06613 262.479 9.22242 262.167 9.37873C262.01 9.53505 261.698 9.53505 261.542 9.37873C260.916 8.59717 260.447 7.65938 260.291 6.7215C259.978 5.00207 259.666 3.12632 259.353 2.03213C258.884 3.28263 258.572 4.8457 258.415 6.56513C258.259 7.50301 257.946 8.44086 257.165 9.37873C257.008 9.53504 256.852 9.53504 256.54 9.37873C256.071 9.06611 255.758 8.75348 255.445 8.59717C255.602 8.9098 255.914 9.37875 256.227 9.69138C256.696 9.69138 256.696 9.84775 256.696 9.84775Z" fill="#BB8E4D"/>
<path d="M180.259 11.7231C180.259 11.5668 180.416 11.4105 180.572 11.2541L186.668 10.0037L184.636 4.06382C184.636 3.90751 184.636 3.75122 184.792 3.59491C184.949 3.43859 185.105 3.59487 185.261 3.75118L189.482 8.44055L193.702 3.75118C193.858 3.59487 194.015 3.59491 194.171 3.59491C194.327 3.75122 194.484 3.90751 194.327 4.06382L192.295 10.0037L198.391 11.2541C198.548 11.2541 198.704 11.4104 198.704 11.7231C198.704 11.8794 198.548 12.0358 198.391 12.1921L192.295 13.4426L194.327 19.3824C194.327 19.5387 194.327 19.695 194.171 19.8513C194.015 20.0076 193.858 19.8514 193.702 19.695L189.482 15.0057L185.261 19.695C185.105 19.8514 184.949 19.8513 184.792 19.8513C184.636 19.695 184.48 19.5387 184.636 19.3824L186.668 13.4426L180.572 12.1921C180.416 12.0358 180.259 11.8794 180.259 11.7231ZM187.606 10.3163L187.606 10.4726C187.606 10.6289 187.45 10.629 187.293 10.629L182.604 11.5668L187.293 12.5046C187.45 12.5046 187.45 12.661 187.606 12.661C187.606 12.8173 187.606 12.8173 187.606 12.9736L186.043 17.5066L189.169 13.9115C189.169 13.7552 189.325 13.7552 189.482 13.7552C189.638 13.7552 189.638 13.7552 189.794 13.9115L192.921 17.5066L191.357 12.9736C191.357 12.8173 191.357 12.8173 191.357 12.661C191.357 12.5047 191.514 12.5046 191.67 12.5046L196.359 11.5668L191.67 10.629C191.514 10.629 191.514 10.4726 191.357 10.4726C191.357 10.3163 191.357 10.3163 191.357 10.1599L192.921 5.62695L189.794 9.22211C189.794 9.37842 189.638 9.37838 189.482 9.37838C189.325 9.37838 189.325 9.37842 189.169 9.22211L186.043 5.62695L187.606 10.3163Z" fill="#BB8E4D"/>
<path d="M71.7786 11.7231C71.7786 11.5668 71.9348 11.4105 72.0911 11.2541L78.1873 10.0037L76.1553 4.06382C76.1553 3.90751 76.1552 3.75122 76.3116 3.59491C76.4679 3.43859 76.6242 3.59487 76.7805 3.75118L81.0009 8.44055L85.2214 3.75118C85.3777 3.59487 85.534 3.59491 85.6903 3.59491C85.8466 3.75122 86.003 3.90751 85.8467 4.06382L83.8145 10.0037L89.9107 11.2541C90.0671 11.2541 90.2234 11.4104 90.2234 11.7231C90.2234 11.8794 90.0671 12.0358 89.9107 12.1921L83.8145 13.4426L85.8467 19.3824C85.8467 19.5387 85.8466 19.695 85.6903 19.8513C85.534 20.0076 85.3777 19.8514 85.2214 19.695L81.0009 15.0057L76.7805 19.695C76.6242 19.8514 76.4679 19.8513 76.3116 19.8513C76.1552 19.695 75.999 19.5387 76.1553 19.3824L78.1873 13.4426L72.0911 12.1921C71.9348 12.0358 71.7786 11.8794 71.7786 11.7231ZM79.1252 10.3163L79.1252 10.4726C79.1252 10.6289 78.9689 10.629 78.8126 10.629L74.1232 11.5668L78.8126 12.5046C78.9689 12.5046 78.9688 12.661 79.1252 12.661C79.1252 12.8173 79.1252 12.8173 79.1252 12.9736L77.562 17.5066L80.6883 13.9115C80.6883 13.7552 80.8446 13.7552 81.0009 13.7552C81.1572 13.7552 81.1573 13.7552 81.3136 13.9115L84.4398 17.5066L82.8767 12.9736C82.8767 12.8173 82.8767 12.8173 82.8767 12.661C82.8767 12.5047 83.033 12.5046 83.1893 12.5046L87.8787 11.5668L83.1893 10.629C83.033 10.629 83.033 10.4726 82.8767 10.4726C82.8767 10.3163 82.8767 10.3163 82.8767 10.1599L84.4398 5.62695L81.3136 9.22211C81.3136 9.37842 81.1572 9.37838 81.0009 9.37838C80.8446 9.37838 80.8446 9.37842 80.6883 9.22211L77.562 5.62695L79.1252 10.3163Z" fill="#BB8E4D"/>
<path d="M290.615 22.3525C290.615 22.1962 290.772 22.0399 290.928 22.0399C291.084 22.0399 291.397 21.8835 291.553 21.8835C292.179 21.7272 292.648 21.2583 292.804 20.7894C292.804 20.6331 292.96 20.4767 292.96 20.3204C292.96 20.164 293.117 20.0078 293.429 20.0078C293.585 20.0078 293.742 20.164 293.742 20.3204C293.742 20.3204 293.742 20.4767 293.742 20.633C293.898 21.2583 294.367 21.7272 294.992 21.8835C295.305 21.8835 295.461 22.0399 295.774 22.0399C295.93 22.0399 296.086 22.1962 296.086 22.3525C296.086 22.5088 295.93 22.665 295.774 22.665C295.618 22.665 295.305 22.8214 294.992 22.8214C294.367 22.9777 293.898 23.4466 293.742 24.0719C293.742 24.2282 293.742 24.3845 293.742 24.3845C293.742 24.5408 293.585 24.6972 293.429 24.6972C293.273 24.6972 293.116 24.5408 292.96 24.3845C292.96 24.2282 292.804 24.0719 292.804 23.9156C292.648 23.2904 292.179 22.8214 291.553 22.8214C291.241 22.8214 291.084 22.665 290.928 22.665C290.616 22.665 290.615 22.5088 290.615 22.3525ZM293.273 21.5709C293.117 21.8836 292.648 22.1961 292.335 22.5088C292.804 22.6651 293.117 22.9777 293.273 23.4466C293.429 23.134 293.898 22.8214 294.211 22.5088C293.898 22.1961 293.429 21.8836 293.273 21.5709Z" fill="#BB8E4D"/>
<path d="M281.706 7.03395C281.706 6.87764 281.862 6.7214 282.018 6.7214C282.331 6.56509 282.8 6.40876 283.269 6.40876C284.52 6.09613 285.614 5.1582 285.926 3.90771C286.083 3.59508 286.083 3.28249 286.239 2.96987C286.239 2.81356 286.395 2.65723 286.708 2.65723C286.864 2.65723 287.02 2.81356 287.02 2.96987C287.02 2.96987 287.021 3.28253 287.177 3.59516C287.489 5.00197 288.584 5.93976 289.834 6.25239C290.303 6.4087 290.772 6.40872 291.085 6.56503C291.241 6.56503 291.397 6.72136 291.397 6.87768C291.397 7.03399 291.241 7.19032 291.085 7.19032C290.772 7.34663 290.303 7.50296 289.834 7.50296C288.427 7.81559 287.489 8.75338 287.177 10.1602C287.021 10.4728 287.02 10.7855 287.02 10.7855C287.02 10.9418 286.864 11.0981 286.708 11.0981C286.552 11.0981 286.395 10.9418 286.239 10.7855C286.083 10.4729 286.083 10.1603 285.926 9.84765C285.614 8.59715 284.52 7.65922 283.269 7.34659C282.8 7.19028 282.331 7.19026 282.018 7.03395C281.862 7.34657 281.706 7.19026 281.706 7.03395ZM286.552 4.68927C286.083 5.93976 284.988 6.87769 283.738 7.19032C284.988 7.50294 286.083 8.44078 286.552 9.69128C287.02 8.44078 288.115 7.50294 289.365 7.19032C287.958 6.72138 287.02 5.78345 286.552 4.68927Z" fill="#BB8E4D"/>
<path d="M327.974 20.1643L327.974 16.7254C327.974 16.5691 328.131 16.2565 328.443 16.2565C328.6 16.2565 328.912 16.4128 328.912 16.7254L328.912 20.1643C328.912 20.3206 328.756 20.6332 328.443 20.6332C328.131 20.4769 327.974 20.3206 327.974 20.1643Z" fill="#BB8E4D"/>
<path d="M327.974 25.1655L327.974 21.7266C327.974 21.5703 328.131 21.2577 328.443 21.2577C328.6 21.2577 328.912 21.414 328.912 21.7266L328.912 25.1655C328.912 25.3218 328.756 25.6344 328.443 25.6344C328.131 25.6344 327.974 25.3218 327.974 25.1655Z" fill="#BB8E4D"/>
<path d="M329.069 20.945C329.069 20.7887 329.225 20.4761 329.538 20.4761L332.82 20.4761C332.976 20.4761 333.289 20.6324 333.289 20.945C333.289 21.1013 333.133 21.4139 332.82 21.4139L329.538 21.4139C329.225 21.2576 329.069 21.1013 329.069 20.945Z" fill="#BB8E4D"/>
<path d="M323.754 20.945C323.754 20.7887 323.91 20.4761 324.223 20.4761L327.505 20.4761C327.662 20.4761 327.974 20.6324 327.974 20.945C327.974 21.1013 327.818 21.4139 327.505 21.4139L324.223 21.4139C323.91 21.2576 323.754 21.1013 323.754 20.945Z" fill="#BB8E4D"/>
<path d="M325.63 20.9461C325.63 20.7898 325.786 20.4772 326.099 20.4772C328.131 20.4772 328.131 20.4772 328.131 18.7577C328.131 18.6014 328.287 18.2888 328.6 18.2888C328.756 18.2888 329.069 18.4451 329.069 18.7577C329.069 20.4772 329.069 20.4772 331.101 20.4772C331.257 20.4772 331.57 20.6335 331.57 20.9461C331.57 21.1025 331.413 21.4151 331.101 21.4151C329.069 21.4151 329.069 21.4151 329.069 23.1346C329.069 23.2909 328.912 23.6035 328.6 23.6035C328.443 23.6035 328.131 23.4472 328.131 23.1346C328.131 21.4151 328.131 21.4151 326.099 21.4151C325.786 21.2588 325.63 21.1025 325.63 20.9461Z" fill="#BB8E4D"/>
<path d="M145.402 10.9422C145.402 10.7859 145.558 10.6296 145.714 10.6296C146.339 10.317 147.277 10.1607 148.372 9.84808C151.498 9.22283 153.842 7.03444 154.624 4.06451C154.78 3.43926 154.937 2.81399 155.249 2.18874C155.249 2.03243 155.405 1.8761 155.718 1.8761C155.874 1.8761 156.031 2.03243 156.031 2.18874C156.031 2.18874 156.187 2.81403 156.343 3.59559C156.969 6.72183 159.47 9.22277 162.752 9.69171C163.846 9.84802 164.784 10.1606 165.566 10.4733C165.722 10.4733 165.878 10.6296 165.878 10.7859C165.878 10.9422 165.722 11.0986 165.566 11.0986C164.784 11.4112 163.846 11.5675 162.752 11.8801C159.626 12.5054 157.125 14.85 156.343 17.9762C156.187 18.7578 156.031 19.3831 156.031 19.3831C156.031 19.5394 155.874 19.6957 155.718 19.6957C155.562 19.6957 155.406 19.5394 155.249 19.3831C155.093 18.7578 154.78 18.2889 154.624 17.5073C153.842 14.5374 151.498 12.349 148.372 11.7238C147.277 11.5674 146.496 11.2549 145.714 11.0986C145.558 11.2549 145.402 11.0985 145.402 10.9422ZM155.406 3.90814C155.406 4.06445 155.406 4.22078 155.249 4.22078C154.468 7.50334 151.654 10.0044 148.372 10.6296C147.903 10.786 147.434 10.7859 147.121 10.9422C147.59 11.0985 147.903 11.0985 148.372 11.2548C151.81 11.8801 154.468 14.3811 155.249 17.6637C155.249 17.82 155.249 17.9762 155.406 17.9762C156.187 14.5374 158.844 11.8801 162.44 11.2548C162.909 11.0985 163.534 11.0985 163.846 10.9422C163.377 10.7859 162.909 10.786 162.283 10.6296C159.001 10.0044 156.187 7.34701 155.406 3.90814Z" fill="#BB8E4D"/>
<path d="M164.784 22.3525C164.784 22.1962 164.94 22.0399 165.097 22.0399C165.253 22.0399 165.566 21.8835 165.722 21.8835C166.347 21.7272 166.816 21.2583 166.973 20.7894C166.973 20.6331 167.129 20.4767 167.129 20.3204C167.129 20.164 167.285 20.0078 167.598 20.0078C167.754 20.0078 167.91 20.164 167.91 20.3204C167.91 20.3204 167.91 20.4767 167.91 20.633C168.067 21.2583 168.536 21.7272 169.161 21.8835C169.474 21.8835 169.63 22.0399 169.942 22.0399C170.099 22.0399 170.255 22.1962 170.255 22.3525C170.255 22.5088 170.099 22.665 169.942 22.665C169.786 22.665 169.474 22.8214 169.161 22.8214C168.536 22.9777 168.067 23.4466 167.91 24.0719C167.91 24.2282 167.91 24.3845 167.91 24.3845C167.91 24.5408 167.754 24.6972 167.598 24.6972C167.441 24.6972 167.285 24.5408 167.129 24.3845C167.129 24.2282 166.973 24.0719 166.973 23.9156C166.816 23.2904 166.347 22.8214 165.722 22.8214C165.409 22.8214 165.253 22.665 165.097 22.665C164.94 22.665 164.784 22.5088 164.784 22.3525ZM167.598 21.5709C167.441 21.8836 166.972 22.1961 166.66 22.5088C167.129 22.6651 167.441 22.9777 167.598 23.4466C167.754 23.134 168.223 22.8214 168.536 22.5088C168.067 22.1961 167.754 21.8836 167.598 21.5709Z" fill="#BB8E4D"/>
<path d="M125.706 7.03395C125.706 6.87764 125.862 6.7214 126.019 6.7214C126.331 6.56509 126.8 6.40876 127.269 6.40876C128.52 6.09613 129.614 5.1582 129.927 3.90771C130.083 3.59508 130.083 3.28249 130.239 2.96987C130.239 2.81356 130.395 2.65723 130.708 2.65723C130.864 2.65723 131.021 2.81356 131.021 2.96987C131.021 2.96987 131.021 3.28253 131.177 3.59516C131.49 5.00197 132.584 5.93976 133.834 6.25239C134.303 6.4087 134.772 6.40872 135.085 6.56503C135.241 6.56503 135.397 6.72136 135.397 6.87768C135.397 7.03399 135.241 7.19032 135.085 7.19032C134.772 7.34663 134.303 7.50296 133.834 7.50296C132.428 7.81559 131.49 8.75338 131.177 10.1602C131.021 10.4728 131.021 10.7855 131.021 10.7855C131.021 10.9418 130.864 11.0981 130.708 11.0981C130.552 11.0981 130.395 10.9418 130.239 10.7855C130.083 10.4729 130.083 10.1603 129.927 9.84765C129.614 8.59715 128.52 7.65922 127.269 7.34659C126.8 7.19028 126.331 7.19026 126.019 7.03395C125.862 7.34657 125.706 7.19026 125.706 7.03395ZM130.552 4.68927C130.083 5.93976 128.989 6.87769 127.738 7.19032C128.989 7.50294 130.083 8.44078 130.552 9.69128C131.021 8.44078 132.115 7.50294 133.365 7.19032C131.959 6.72138 131.021 5.78345 130.552 4.68927Z" fill="#BB8E4D"/>
<path d="M26.7605 19.6943C26.7605 19.538 26.9168 19.3816 27.0732 19.3816C27.2295 19.3816 27.5421 19.2254 27.6984 19.2254C28.3237 19.0691 28.7926 18.6001 28.9489 18.1312C28.9489 17.9749 29.1052 17.8186 29.1052 17.6623C29.1052 17.5059 29.2616 17.3496 29.5742 17.3496C29.7305 17.3496 29.8868 17.5059 29.8868 17.6623C29.8868 17.6623 29.8868 17.8185 29.8868 17.9748C30.0431 18.6 30.5121 19.0691 31.1373 19.2254C31.45 19.2254 31.6063 19.3816 31.9189 19.3816C32.0752 19.3816 32.2314 19.538 32.2314 19.6943C32.2314 19.8506 32.0752 20.0069 31.9189 20.0069C31.7626 20.0069 31.45 20.1632 31.1373 20.1632C30.5121 20.3195 30.0431 20.7884 29.8868 21.4137C29.8868 21.57 29.8868 21.7263 29.8868 21.7263C29.8868 21.8826 29.7305 22.039 29.5742 22.039C29.4179 22.039 29.2615 21.8826 29.1052 21.7263C29.1052 21.57 28.9489 21.4137 28.9489 21.2574C28.7926 20.6322 28.3237 20.1632 27.6984 20.1632C27.3858 20.1632 27.2295 20.0069 27.0732 20.0069C26.9168 20.0069 26.7605 19.8506 26.7605 19.6943ZM29.5742 18.9127C29.4179 19.2254 28.9489 19.5379 28.6363 19.8506C29.1052 20.0069 29.4179 20.3196 29.5742 20.7885C29.7305 20.4759 30.1994 20.1632 30.512 19.8506C30.0431 19.5379 29.7305 19.2254 29.5742 18.9127Z" fill="#BB8E4D"/>
<path d="M34.8887 8.75343C34.8887 8.59712 35.045 8.44079 35.2013 8.44079C35.514 8.28448 35.9829 8.12814 36.4518 8.12814C37.7023 7.81552 38.7965 6.87769 39.1091 5.62719C39.2655 5.31456 39.2655 5.00188 39.4218 4.68926C39.4218 4.53294 39.5781 4.37671 39.8907 4.37671C40.047 4.37671 40.2034 4.53294 40.2034 4.68926C40.2034 4.68926 40.2033 5.00192 40.3596 5.31454C40.6723 6.72135 41.7665 7.65925 43.017 7.97187C43.4859 8.12818 43.9548 8.1282 44.2674 8.28451C44.4237 8.28451 44.5801 8.44075 44.5801 8.59706C44.5801 8.75337 44.4237 8.90971 44.2674 8.90971C43.9548 9.06602 43.4859 9.22235 43.017 9.22235C41.6101 9.53497 40.6723 10.4729 40.3596 11.8797C40.2033 12.1923 40.2034 12.5049 40.2034 12.5049C40.2034 12.6612 40.047 12.8175 39.8907 12.8175C39.7344 12.8175 39.5781 12.6612 39.4218 12.5049C39.2655 12.1922 39.2655 11.8797 39.1091 11.567C38.7965 10.3165 37.7023 9.3787 36.4518 9.06607C35.9829 8.90976 35.514 8.90974 35.2013 8.75343C35.045 9.06606 34.8887 8.90974 34.8887 8.75343ZM39.7344 6.25238C39.2655 7.50288 38.1712 8.44081 36.9207 8.75343C38.1712 9.06606 39.2655 10.0039 39.7344 11.2544C40.2034 10.0039 41.2975 9.06606 42.548 8.75343C41.2975 8.2845 40.2034 7.50288 39.7344 6.25238Z" fill="#BB8E4D"/>
<path d="M209.021 19.3828C209.021 19.2265 209.177 19.0701 209.333 19.0701C209.49 19.0701 209.802 18.9139 209.959 18.9139C210.584 18.7575 211.053 18.2886 211.209 17.8196C211.209 17.6633 211.365 17.507 211.365 17.3507C211.365 17.1944 211.522 17.0381 211.834 17.0381C211.991 17.0381 212.147 17.1944 212.147 17.3507C212.147 17.3507 212.147 17.5071 212.147 17.6634C212.303 18.2886 212.772 18.7575 213.397 18.9139C213.71 18.9139 213.866 19.0701 214.179 19.0701C214.335 19.0701 214.492 19.2265 214.492 19.3828C214.492 19.5391 214.335 19.6954 214.179 19.6954C214.023 19.6954 213.71 19.8517 213.397 19.8517C212.772 20.008 212.303 20.4769 212.147 21.1022C212.147 21.2585 212.147 21.4148 212.147 21.4148C212.147 21.5711 211.991 21.7275 211.834 21.7275C211.678 21.7275 211.522 21.5711 211.365 21.4148C211.365 21.2585 211.209 21.1022 211.209 20.9459C211.053 20.3206 210.584 19.8517 209.959 19.8517C209.646 19.8517 209.49 19.6954 209.333 19.6954C209.177 19.6954 209.021 19.5391 209.021 19.3828ZM211.834 18.6012C211.678 18.9138 211.209 19.2264 210.896 19.539C211.365 19.6954 211.678 20.008 211.834 20.477C211.991 20.1643 212.46 19.8517 212.772 19.539C212.303 19.2264 211.991 18.9138 211.834 18.6012Z" fill="#BB8E4D"/>
<path d="M213.71 3.1263C213.71 2.96999 213.866 2.81375 214.023 2.81375C214.179 2.81375 214.492 2.65738 214.648 2.65738C215.273 2.50107 215.742 2.03211 215.898 1.56318C215.898 1.40687 216.055 1.25057 216.055 1.09426C216.055 0.937947 216.211 0.781616 216.524 0.781616C216.68 0.781616 216.836 0.937947 216.836 1.09426C216.836 1.09426 216.836 1.25059 216.836 1.4069C216.993 2.03215 217.461 2.50107 218.087 2.65738C218.399 2.65738 218.556 2.81375 218.868 2.81375C219.025 2.81375 219.181 2.96999 219.181 3.1263C219.181 3.28261 219.025 3.43894 218.868 3.43894C218.712 3.43894 218.399 3.59531 218.087 3.59531C217.461 3.75162 216.993 4.22054 216.836 4.84579C216.836 5.0021 216.836 5.15844 216.836 5.15844C216.836 5.31475 216.68 5.47098 216.524 5.47098C216.367 5.47098 216.211 5.31475 216.055 5.15844C216.055 5.00212 215.898 4.84573 215.898 4.68942C215.742 4.06417 215.273 3.59531 214.648 3.59531C214.335 3.59531 214.179 3.43894 214.023 3.43894C213.866 3.43894 213.71 3.43892 213.71 3.1263ZM216.524 2.34474C216.367 2.65736 215.898 2.97004 215.586 3.28267C216.055 3.43898 216.367 3.75157 216.524 4.2205C216.68 3.90788 217.149 3.59529 217.461 3.28267C216.993 2.97004 216.68 2.65736 216.524 2.34474Z" fill="#BB8E4D"/>
<path d="M229.498 11.7229L229.498 8.28408C229.498 8.12776 229.654 7.81506 229.967 7.81506C230.279 7.81506 230.436 7.97145 230.436 8.28408L230.436 11.7229C230.436 11.8792 230.279 12.1919 229.967 12.1919C229.654 12.1919 229.498 11.8792 229.498 11.7229Z" fill="#BB8E4D"/>
<path d="M229.498 16.7259L229.498 13.287C229.498 13.1307 229.654 12.8181 229.967 12.8181C230.279 12.8181 230.436 12.9744 230.436 13.287L230.436 16.7259C230.436 16.8822 230.279 17.1948 229.967 17.1948C229.654 17.1948 229.498 17.0385 229.498 16.7259Z" fill="#BB8E4D"/>
<path d="M230.592 12.5049C230.592 12.3486 230.748 12.036 231.061 12.036L234.343 12.036C234.5 12.036 234.812 12.1923 234.812 12.5049C234.812 12.6612 234.656 12.9739 234.343 12.9739L231.061 12.9739C230.748 12.9739 230.592 12.6612 230.592 12.5049Z" fill="#BB8E4D"/>
<path d="M225.277 12.5049C225.277 12.3486 225.433 12.036 225.746 12.036L229.029 12.036C229.185 12.036 229.498 12.1923 229.498 12.5049C229.498 12.6612 229.341 12.9739 229.029 12.9739L225.746 12.9739C225.433 12.9739 225.277 12.6612 225.277 12.5049Z" fill="#BB8E4D"/>
<path d="M227.153 12.5043C227.153 12.348 227.309 12.0354 227.622 12.0354C229.654 12.0354 229.654 12.0354 229.654 10.316C229.654 10.1597 229.81 9.84705 230.123 9.84705C230.279 9.84705 230.592 10.0033 230.592 10.316C230.592 12.0354 230.592 12.0354 232.624 12.0354C232.78 12.0354 233.093 12.1917 233.093 12.5043C233.093 12.6606 232.936 12.9733 232.624 12.9733C230.592 12.9733 230.592 12.9733 230.592 14.6927C230.592 14.849 230.435 15.1616 230.123 15.1616C229.967 15.1616 229.654 15.0053 229.654 14.6927C229.654 12.9733 229.654 12.9733 227.622 12.9733C227.309 12.9733 227.153 12.6606 227.153 12.5043ZM229.967 12.348C229.81 12.5043 229.81 12.5043 229.967 12.348C229.967 12.5043 229.967 12.5043 229.967 12.348Z" fill="#BB8E4D"/>
<path d="M110.7 5.15805L110.7 1.71916C110.7 1.56285 110.857 1.25024 111.169 1.25024C111.325 1.25024 111.638 1.40654 111.638 1.71916L111.638 5.15805C111.638 5.31436 111.482 5.62697 111.169 5.62697C110.857 5.62697 110.7 5.47067 110.7 5.15805Z" fill="#BB8E4D"/>
<path d="M110.7 10.1596L110.7 6.72084C110.7 6.56453 110.857 6.25183 111.169 6.25183C111.325 6.25183 111.638 6.40822 111.638 6.72084L111.638 10.1596C111.638 10.3159 111.482 10.6286 111.169 10.6286C110.857 10.6286 110.7 10.4723 110.7 10.1596Z" fill="#BB8E4D"/>
<path d="M111.638 5.93972C111.638 5.7834 111.794 5.4707 112.107 5.4707L115.389 5.4707C115.546 5.4707 115.858 5.62709 115.858 5.93972C115.858 6.09603 115.702 6.40863 115.389 6.40863L112.107 6.40863C111.794 6.40863 111.638 6.25234 111.638 5.93972Z" fill="#BB8E4D"/>
<path d="M106.48 5.93972C106.48 5.7834 106.636 5.4707 106.949 5.4707L110.231 5.4707C110.388 5.4707 110.7 5.62709 110.7 5.93972C110.7 6.09603 110.544 6.40863 110.231 6.40863L106.949 6.40863C106.636 6.40863 106.48 6.25234 106.48 5.93972Z" fill="#BB8E4D"/>
<path d="M108.199 5.93906C108.199 5.78275 108.356 5.47005 108.668 5.47005C110.7 5.47005 110.7 5.47009 110.7 3.75066C110.7 3.59434 110.857 3.28174 111.169 3.28174C111.326 3.28174 111.638 3.43803 111.638 3.75066C111.638 5.47009 111.638 5.47005 113.67 5.47005C113.827 5.47005 114.139 5.62644 114.139 5.93907C114.139 6.09538 113.983 6.40798 113.67 6.40798C111.638 6.40798 111.638 6.40794 111.638 8.12738C111.638 8.28369 111.482 8.5963 111.169 8.5963C111.013 8.5963 110.7 8.44 110.7 8.12738C110.7 6.40794 110.7 6.40798 108.668 6.40798C108.356 6.40798 108.199 6.25169 108.199 5.93906ZM111.013 5.93907C111.013 6.09538 111.013 6.09534 111.013 6.09534C111.169 6.09534 111.169 5.93907 111.013 5.93907C111.169 5.93907 111.169 5.93907 111.013 5.93907Z" fill="#BB8E4D"/>
<path d="M18.7886 6.09651C18.7886 5.9402 18.9449 5.78387 19.1012 5.78387C19.2575 5.78387 19.5701 5.6276 19.7264 5.6276C20.3517 5.47128 20.8207 5.00233 20.977 4.53339C20.977 4.37708 21.1333 4.22079 21.1333 4.06447C21.1333 3.90816 21.2896 3.75183 21.6022 3.75183C21.7585 3.75183 21.9148 3.90816 21.9148 4.06447C21.9148 4.06447 21.9148 4.22081 21.9148 4.37712C22.0712 5.00237 22.5401 5.47128 23.1653 5.6276C23.4779 5.6276 23.6343 5.78387 23.9469 5.78387C24.1032 5.78387 24.2595 5.9402 24.2595 6.09651C24.2595 6.25283 24.1032 6.40916 23.9469 6.40916C23.7906 6.40916 23.4779 6.56543 23.1653 6.56543C22.5401 6.72174 22.0711 7.19066 21.9148 7.81591C21.9148 7.97222 21.9148 8.12855 21.9148 8.12855C21.9148 8.28487 21.7585 8.4412 21.6022 8.4412C21.4459 8.4412 21.2896 8.28487 21.1333 8.12855C21.1333 7.97224 20.977 7.81595 20.977 7.65964C20.8207 7.03439 20.3517 6.56543 19.7264 6.56543C19.4138 6.56543 19.2575 6.40916 19.1012 6.40916C18.7886 6.40916 18.7886 6.25283 18.7886 6.09651ZM21.4459 5.31495C21.2896 5.62758 20.8206 5.94016 20.508 6.25279C20.9769 6.4091 21.2896 6.72178 21.4459 7.19072C21.6022 6.87809 22.0711 6.56541 22.3838 6.25279C22.0711 5.94016 21.6022 5.62758 21.4459 5.31495Z" fill="#BB8E4D"/>
<path d="M0.500028 15.9445C0.500028 15.7882 0.656359 15.6318 0.812671 15.6318C1.1253 15.4755 1.59421 15.3193 2.06315 15.3193C3.31365 15.0067 4.40785 14.0687 4.72048 12.8182C4.87679 12.5056 4.87681 12.193 5.03312 11.8804C5.03312 11.7241 5.18941 11.5677 5.50204 11.5677C5.65835 11.5677 5.81468 11.7241 5.81468 11.8804C5.81468 11.8804 5.81464 12.193 5.97096 12.5056C6.28358 13.9124 7.37779 14.8503 8.62828 15.1629C9.09722 15.3192 9.56614 15.3192 9.87876 15.4756C10.0351 15.4756 10.1914 15.6319 10.1914 15.7882C10.1914 15.9445 10.0351 16.1008 9.87876 16.1008C9.56614 16.2572 9.09722 16.4134 8.62828 16.4134C7.22147 16.726 6.28358 17.6639 5.97096 19.0707C5.97096 19.3833 5.81468 19.696 5.81468 19.696C5.81468 19.8523 5.65835 20.0086 5.50204 20.0086C5.34573 20.0086 5.18943 19.8523 5.03312 19.696C4.87681 19.3834 4.87679 19.0707 4.72048 18.7581C4.40785 17.5076 3.31365 16.5697 2.06315 16.2571C1.59421 16.1008 1.1253 16.1008 0.812671 15.9445C0.656359 16.2571 0.500028 16.1008 0.500028 15.9445ZM5.1894 13.4435C4.72046 14.694 3.62629 15.6318 2.37579 15.9445C3.62629 16.2571 4.72046 17.195 5.1894 18.4455C5.65833 17.195 6.7525 16.2571 8.003 15.9445C6.7525 15.6318 5.81464 14.694 5.1894 13.4435Z" fill="#BB8E4D"/>
<path d="M54.8967 2.49996C54.8967 2.34364 55.0531 2.18731 55.2094 2.18731C55.3657 2.18731 55.6784 2.03104 55.8347 2.03104C56.4599 1.87473 56.9288 1.40577 57.0852 0.936834C57.0852 0.780522 57.2414 0.624229 57.2414 0.467917C57.2414 0.311605 57.3978 0.155273 57.7104 0.155273C57.8668 0.155273 58.023 0.311605 58.023 0.467917C58.023 0.467917 58.023 0.624153 58.023 0.780465C58.1793 1.40571 58.6483 1.87473 59.2736 2.03104C59.5862 2.03104 59.7425 2.18731 60.0551 2.18731C60.2114 2.18731 60.3677 2.34364 60.3677 2.49996C60.3677 2.65627 60.2114 2.8126 60.0551 2.8126C59.8988 2.8126 59.5862 2.96887 59.2736 2.96887C58.6483 3.12519 58.1793 3.5941 58.023 4.21935C58.023 4.37567 58.023 4.532 58.023 4.532C58.023 4.68831 57.8668 4.84464 57.7104 4.84464C57.5541 4.84464 57.3977 4.68831 57.2414 4.532C57.2414 4.37568 57.0852 4.21939 57.0852 4.06308C56.9288 3.43783 56.4599 2.96887 55.8347 2.96887C55.5221 2.96887 55.3657 2.8126 55.2094 2.8126C55.0531 2.8126 54.8967 2.65627 54.8967 2.49996ZM57.5541 1.56203C57.3978 1.87465 56.9289 2.18733 56.6162 2.49996C57.0852 2.65627 57.3978 2.96886 57.5541 3.43779C57.7104 3.12517 58.1794 2.81258 58.492 2.49996C58.1794 2.34364 57.8667 2.03096 57.5541 1.56203Z" fill="#BB8E4D"/>
</svg>
