<svg width="179" height="37" viewBox="0 0 179 37" fill="none" xmlns="http://www.w3.org/2000/svg">
<path d="M28.3322 0.999998V1.5H15.3322V36H13.8822H13.5822V1.5H0.582227V0.999998H28.3322ZM33.3713 36L53.3213 1.5L55.0713 0.649999V36H53.3213V19.95H43.3213L33.9713 36H33.3713ZM43.5713 19.45H53.3213V2.7L43.5713 19.45ZM86.9791 0.549997L75.4791 35.1L74.9291 34.95L86.3291 0.549997H86.9791ZM74.2291 36.3L60.1291 2.35L61.7291 0.649999L75.4791 35.1L74.2291 36.3ZM91.9873 36V0.999998H103.187C104.721 0.933332 106.071 1.11667 107.237 1.55C108.437 1.98333 109.437 2.58333 110.237 3.35C111.037 4.11666 111.637 5.01666 112.037 6.05C112.471 7.08333 112.687 8.16667 112.687 9.3C112.687 10.4333 112.437 11.5167 111.937 12.55C111.471 13.5833 110.804 14.4833 109.937 15.25C109.104 15.9833 108.104 16.5667 106.937 17C105.804 17.4 104.554 17.5833 103.187 17.55H100.137H93.7873L93.7373 36H91.9873ZM93.7873 17.05H103.237C104.571 17.05 105.721 16.8167 106.687 16.35C107.654 15.8833 108.454 15.2833 109.087 14.55C109.721 13.7833 110.187 12.95 110.487 12.05C110.821 11.1167 110.987 10.2 110.987 9.3C110.987 8.36666 110.837 7.45 110.537 6.55C110.237 5.61666 109.754 4.78333 109.087 4.05C108.454 3.28333 107.637 2.66666 106.637 2.2C105.637 1.73333 104.471 1.5 103.137 1.5H93.7373L93.7873 17.05ZM102.787 17.45L103.337 17.3L114.937 36H114.337L102.787 17.45ZM119.967 36.1V1.05L121.717 0.399999V35.15L119.967 36.1ZM132.379 15.7L152.679 36H150.679L131.329 17.1L132.379 15.7ZM129.479 19.65V36H127.729V1.65L129.479 0.85V18.8L142.779 0.999998H143.279L129.479 19.65ZM156.76 36L176.71 1.5L178.46 0.649999V36H176.71V19.95H166.71L157.36 36H156.76ZM166.96 19.45H176.71V2.7L166.96 19.45Z" fill="#BB8E4D"/>
</svg>
