<svg width="332" height="32" viewBox="0 0 332 32" fill="none" xmlns="http://www.w3.org/2000/svg">
<rect width="31.5789" height="31.5789" rx="15.7895" fill="#59B343"/>
<path d="M55.5473 21.479C54.421 21.479 53.3999 21.2369 52.4841 20.7527C51.5788 20.258 50.8631 19.579 50.3367 18.7159C49.8209 17.8422 49.5631 16.858 49.5631 15.7632C49.5631 14.6685 49.8209 13.6896 50.3367 12.8264C50.8631 11.9527 51.5788 11.2738 52.4841 10.7895C53.3999 10.2948 54.4262 10.0474 55.5631 10.0474C56.521 10.0474 57.3841 10.2159 58.1525 10.5527C58.9315 10.8896 59.5841 11.3738 60.1104 12.0053L58.4683 13.5211C57.721 12.658 56.7946 12.2264 55.6894 12.2264C55.0052 12.2264 54.3946 12.379 53.8578 12.6843C53.321 12.979 52.8999 13.3948 52.5946 13.9317C52.2999 14.4685 52.1525 15.079 52.1525 15.7632C52.1525 16.4474 52.2999 17.058 52.5946 17.5948C52.8999 18.1317 53.321 18.5527 53.8578 18.858C54.3946 19.1527 55.0052 19.3001 55.6894 19.3001C56.7946 19.3001 57.721 18.8632 58.4683 17.9896L60.1104 19.5053C59.5841 20.1474 58.9315 20.6369 58.1525 20.9738C57.3736 21.3106 56.5052 21.479 55.5473 21.479ZM68.0776 16.8527C69.0776 17.1896 69.5776 17.8632 69.5776 18.8738C69.5776 19.6422 69.2881 20.2369 68.7091 20.658C68.1302 21.079 67.267 21.2896 66.1197 21.2896H61.5881V12.7948H65.9302C66.9934 12.7948 67.8249 12.9895 68.4249 13.379C69.0249 13.758 69.3249 14.2948 69.3249 14.9896C69.3249 15.4106 69.2144 15.7843 68.9934 16.1106C68.7828 16.4264 68.4776 16.6738 68.0776 16.8527ZM63.846 16.2843H65.7091C66.5723 16.2843 67.0039 15.979 67.0039 15.3685C67.0039 14.7685 66.5723 14.4685 65.7091 14.4685H63.846V16.2843ZM65.9144 19.6159C66.8197 19.6159 67.2723 19.3053 67.2723 18.6843C67.2723 18.358 67.167 18.1211 66.9565 17.9738C66.746 17.8159 66.4144 17.7369 65.9618 17.7369H63.846V19.6159H65.9144ZM75.3892 21.4159C74.4945 21.4159 73.6892 21.2317 72.9734 20.8632C72.2682 20.4843 71.7155 19.9632 71.3155 19.3001C70.9155 18.6369 70.7155 17.8843 70.7155 17.0422C70.7155 16.2001 70.9155 15.4474 71.3155 14.7843C71.7155 14.1211 72.2682 13.6053 72.9734 13.2369C73.6892 12.858 74.4945 12.6685 75.3892 12.6685C76.2839 12.6685 77.0839 12.858 77.7892 13.2369C78.4945 13.6053 79.0471 14.1211 79.4471 14.7843C79.8471 15.4474 80.0471 16.2001 80.0471 17.0422C80.0471 17.8843 79.8471 18.6369 79.4471 19.3001C79.0471 19.9632 78.4945 20.4843 77.7892 20.8632C77.0839 21.2317 76.2839 21.4159 75.3892 21.4159ZM75.3892 19.3948C76.0208 19.3948 76.5366 19.1843 76.9366 18.7632C77.3471 18.3317 77.5524 17.758 77.5524 17.0422C77.5524 16.3264 77.3471 15.758 76.9366 15.3369C76.5366 14.9053 76.0208 14.6896 75.3892 14.6896C74.7576 14.6896 74.2366 14.9053 73.826 15.3369C73.4155 15.758 73.2103 16.3264 73.2103 17.0422C73.2103 17.758 73.4155 18.3317 73.826 18.7632C74.2366 19.1843 74.7576 19.3948 75.3892 19.3948ZM86.6518 13.379C87.4623 13.379 88.1728 13.5474 88.7834 13.8843C89.3939 14.2106 89.8623 14.6738 90.1886 15.2738C90.5255 15.8738 90.6939 16.5685 90.6939 17.358C90.6939 18.1685 90.4939 18.8896 90.0939 19.5211C89.7044 20.1422 89.1571 20.6264 88.4518 20.9738C87.7465 21.3106 86.9465 21.479 86.0518 21.479C84.5676 21.479 83.3992 21.0053 82.5465 20.058C81.7044 19.1001 81.2834 17.7001 81.2834 15.858C81.2834 14.1527 81.6518 12.7948 82.3886 11.7843C83.136 10.7632 84.2781 10.0948 85.8149 9.77902L89.8571 8.97376L90.1886 11.0895L86.6202 11.8001C85.6518 11.9896 84.9307 12.3053 84.4571 12.7474C83.9939 13.1896 83.7202 13.8159 83.636 14.6264C84.0044 14.2264 84.4465 13.9211 84.9623 13.7106C85.4781 13.4895 86.0413 13.379 86.6518 13.379ZM86.0676 19.5685C86.6992 19.5685 87.2044 19.3632 87.5834 18.9527C87.9728 18.5422 88.1676 18.0211 88.1676 17.3896C88.1676 16.7474 87.9728 16.2369 87.5834 15.858C87.2044 15.479 86.6992 15.2896 86.0676 15.2896C85.4255 15.2896 84.9097 15.479 84.5202 15.858C84.1307 16.2369 83.936 16.7474 83.936 17.3896C83.936 18.0317 84.136 18.558 84.536 18.9685C84.936 19.3685 85.4465 19.5685 86.0676 19.5685ZM96.3442 21.4159C95.4494 21.4159 94.6442 21.2317 93.9284 20.8632C93.2231 20.4843 92.6705 19.9632 92.2705 19.3001C91.8705 18.6369 91.6705 17.8843 91.6705 17.0422C91.6705 16.2001 91.8705 15.4474 92.2705 14.7843C92.6705 14.1211 93.2231 13.6053 93.9284 13.2369C94.6442 12.858 95.4494 12.6685 96.3442 12.6685C97.2389 12.6685 98.0389 12.858 98.7442 13.2369C99.4494 13.6053 100.002 14.1211 100.402 14.7843C100.802 15.4474 101.002 16.2001 101.002 17.0422C101.002 17.8843 100.802 18.6369 100.402 19.3001C100.002 19.9632 99.4494 20.4843 98.7442 20.8632C98.0389 21.2317 97.2389 21.4159 96.3442 21.4159ZM96.3442 19.3948C96.9758 19.3948 97.4916 19.1843 97.8916 18.7632C98.3021 18.3317 98.5073 17.758 98.5073 17.0422C98.5073 16.3264 98.3021 15.758 97.8916 15.3369C97.4916 14.9053 96.9758 14.6896 96.3442 14.6896C95.7126 14.6896 95.1916 14.9053 94.781 15.3369C94.3705 15.758 94.1652 16.3264 94.1652 17.0422C94.1652 17.758 94.3705 18.3317 94.781 18.7632C95.1916 19.1843 95.7126 19.3948 96.3442 19.3948ZM112.094 19.2685V23.1211H109.804V21.2896H103.836V23.1211H101.547V19.2685H101.894C102.42 19.258 102.783 18.9474 102.983 18.3369C103.183 17.7264 103.31 16.858 103.362 15.7317L103.473 12.7948H110.878V19.2685H112.094ZM105.589 15.9053C105.557 16.7685 105.489 17.4738 105.383 18.0211C105.289 18.5685 105.104 18.9843 104.831 19.2685H108.415V14.8159H105.636L105.589 15.9053ZM113.644 12.7948H116.091V16.1106H119.786V12.7948H122.249V21.2896H119.786V18.1159H116.091V21.2896H113.644V12.7948ZM128.586 21.4159C127.691 21.4159 126.886 21.2317 126.17 20.8632C125.465 20.4843 124.912 19.9632 124.512 19.3001C124.112 18.6369 123.912 17.8843 123.912 17.0422C123.912 16.2001 124.112 15.4474 124.512 14.7843C124.912 14.1211 125.465 13.6053 126.17 13.2369C126.886 12.858 127.691 12.6685 128.586 12.6685C129.481 12.6685 130.281 12.858 130.986 13.2369C131.691 13.6053 132.244 14.1211 132.644 14.7843C133.044 15.4474 133.244 16.2001 133.244 17.0422C133.244 17.8843 133.044 18.6369 132.644 19.3001C132.244 19.9632 131.691 20.4843 130.986 20.8632C130.281 21.2317 129.481 21.4159 128.586 21.4159ZM128.586 19.3948C129.218 19.3948 129.734 19.1843 130.134 18.7632C130.544 18.3317 130.749 17.758 130.749 17.0422C130.749 16.3264 130.544 15.758 130.134 15.3369C129.734 14.9053 129.218 14.6896 128.586 14.6896C127.955 14.6896 127.434 14.9053 127.023 15.3369C126.612 15.758 126.407 16.3264 126.407 17.0422C126.407 17.758 126.612 18.3317 127.023 18.7632C127.434 19.1843 127.955 19.3948 128.586 19.3948Z" fill="black"/>
<rect x="145.79" width="31.5789" height="31.5789" rx="15.7895" fill="#FF3D00"/>
<path d="M202.395 15.5264C203.037 15.7474 203.537 16.0948 203.895 16.5685C204.263 17.0317 204.447 17.5738 204.447 18.1948C204.447 18.8685 204.226 19.4527 203.784 19.9474C203.342 20.4422 202.742 20.8211 201.984 21.0843C201.237 21.3474 200.416 21.479 199.521 21.479C198.763 21.479 198.005 21.3843 197.247 21.1948C196.5 21.0053 195.789 20.7159 195.116 20.3264L195.905 18.4948C196.389 18.7896 196.921 19.0159 197.5 19.1738C198.089 19.3211 198.663 19.3948 199.221 19.3948C199.979 19.3948 200.605 19.258 201.1 18.9843C201.605 18.7106 201.858 18.3264 201.858 17.8317C201.858 17.4211 201.684 17.1106 201.337 16.9001C201 16.6896 200.537 16.5843 199.947 16.5843H197.247V14.658H199.758C200.274 14.658 200.674 14.5527 200.958 14.3422C201.253 14.1317 201.4 13.8422 201.4 13.4738C201.4 13.0422 201.189 12.7053 200.768 12.4632C200.358 12.2211 199.826 12.1001 199.174 12.1001C198.689 12.1001 198.189 12.1685 197.674 12.3053C197.158 12.4317 196.668 12.6264 196.205 12.8896L195.432 10.9001C196.6 10.3001 197.863 10.0001 199.221 10.0001C200.084 10.0001 200.879 10.1264 201.605 10.379C202.332 10.6317 202.911 11.0001 203.342 11.4843C203.774 11.9685 203.989 12.5317 203.989 13.1738C203.989 13.7001 203.847 14.1685 203.563 14.579C203.279 14.9896 202.889 15.3053 202.395 15.5264ZM209.583 12.6685C210.899 12.6685 211.909 12.9843 212.614 13.6159C213.32 14.2369 213.672 15.179 213.672 16.4422V21.2896H211.367V20.2317C210.904 21.0211 210.041 21.4159 208.778 21.4159C208.125 21.4159 207.557 21.3053 207.072 21.0843C206.599 20.8632 206.236 20.558 205.983 20.1685C205.73 19.779 205.604 19.3369 205.604 18.8422C205.604 18.0527 205.899 17.4317 206.488 16.979C207.088 16.5264 208.009 16.3001 209.251 16.3001H211.209C211.209 15.7632 211.046 15.3527 210.72 15.0685C210.393 14.7738 209.904 14.6264 209.251 14.6264C208.799 14.6264 208.351 14.7001 207.909 14.8474C207.478 14.9843 207.109 15.1738 206.804 15.4159L205.92 13.6948C206.383 13.3685 206.936 13.1159 207.578 12.9369C208.23 12.758 208.899 12.6685 209.583 12.6685ZM209.393 19.758C209.814 19.758 210.188 19.6632 210.514 19.4738C210.841 19.2738 211.072 18.9843 211.209 18.6053V17.7369H209.52C208.509 17.7369 208.004 18.0685 208.004 18.7317C208.004 19.0474 208.125 19.3001 208.367 19.4896C208.62 19.6685 208.962 19.758 209.393 19.758ZM220.723 13.379C221.533 13.379 222.244 13.5474 222.854 13.8843C223.465 14.2106 223.933 14.6738 224.259 15.2738C224.596 15.8738 224.765 16.5685 224.765 17.358C224.765 18.1685 224.565 18.8896 224.165 19.5211C223.775 20.1422 223.228 20.6264 222.523 20.9738C221.817 21.3106 221.017 21.479 220.123 21.479C218.638 21.479 217.47 21.0053 216.617 20.058C215.775 19.1001 215.354 17.7001 215.354 15.858C215.354 14.1527 215.723 12.7948 216.459 11.7843C217.207 10.7632 218.349 10.0948 219.886 9.77902L223.928 8.97376L224.259 11.0895L220.691 11.8001C219.723 11.9896 219.002 12.3053 218.528 12.7474C218.065 13.1896 217.791 13.8159 217.707 14.6264C218.075 14.2264 218.517 13.9211 219.033 13.7106C219.549 13.4895 220.112 13.379 220.723 13.379ZM220.138 19.5685C220.77 19.5685 221.275 19.3632 221.654 18.9527C222.044 18.5422 222.238 18.0211 222.238 17.3896C222.238 16.7474 222.044 16.2369 221.654 15.858C221.275 15.479 220.77 15.2896 220.138 15.2896C219.496 15.2896 218.98 15.479 218.591 15.858C218.202 16.2369 218.007 16.7474 218.007 17.3896C218.007 18.0317 218.207 18.558 218.607 18.9685C219.007 19.3685 219.517 19.5685 220.138 19.5685ZM231.441 12.6685C232.231 12.6685 232.947 12.8527 233.589 13.2211C234.241 13.579 234.752 14.0895 235.12 14.7527C235.489 15.4053 235.673 16.1685 235.673 17.0422C235.673 17.9159 235.489 18.6843 235.12 19.3474C234.752 20.0001 234.241 20.5106 233.589 20.879C232.947 21.2369 232.231 21.4159 231.441 21.4159C230.357 21.4159 229.504 21.0738 228.883 20.3896V24.3527H226.42V12.7948H228.773V13.7738C229.383 13.0369 230.273 12.6685 231.441 12.6685ZM231.015 19.3948C231.647 19.3948 232.162 19.1843 232.562 18.7632C232.973 18.3317 233.178 17.758 233.178 17.0422C233.178 16.3264 232.973 15.758 232.562 15.3369C232.162 14.9053 231.647 14.6896 231.015 14.6896C230.383 14.6896 229.862 14.9053 229.452 15.3369C229.052 15.758 228.852 16.3264 228.852 17.0422C228.852 17.758 229.052 18.3317 229.452 18.7632C229.862 19.1843 230.383 19.3948 231.015 19.3948ZM241.378 21.4159C240.483 21.4159 239.678 21.2317 238.962 20.8632C238.257 20.4843 237.705 19.9632 237.305 19.3001C236.905 18.6369 236.705 17.8843 236.705 17.0422C236.705 16.2001 236.905 15.4474 237.305 14.7843C237.705 14.1211 238.257 13.6053 238.962 13.2369C239.678 12.858 240.483 12.6685 241.378 12.6685C242.273 12.6685 243.073 12.858 243.778 13.2369C244.483 13.6053 245.036 14.1211 245.436 14.7843C245.836 15.4474 246.036 16.2001 246.036 17.0422C246.036 17.8843 245.836 18.6369 245.436 19.3001C245.036 19.9632 244.483 20.4843 243.778 20.8632C243.073 21.2317 242.273 21.4159 241.378 21.4159ZM241.378 19.3948C242.01 19.3948 242.526 19.1843 242.926 18.7632C243.336 18.3317 243.541 17.758 243.541 17.0422C243.541 16.3264 243.336 15.758 242.926 15.3369C242.526 14.9053 242.01 14.6896 241.378 14.6896C240.747 14.6896 240.226 14.9053 239.815 15.3369C239.405 15.758 239.199 16.3264 239.199 17.0422C239.199 17.758 239.405 18.3317 239.815 18.7632C240.226 19.1843 240.747 19.3948 241.378 19.3948ZM247.73 12.7948H250.178V16.1106H253.872V12.7948H256.336V21.2896H253.872V18.1159H250.178V21.2896H247.73V12.7948ZM258.693 12.7948H261.141V17.8474L265.278 12.7948H267.536V21.2896H265.088V16.2369L260.967 21.2896H258.693V12.7948ZM274.909 12.6685C275.698 12.6685 276.414 12.8527 277.056 13.2211C277.709 13.579 278.219 14.0895 278.588 14.7527C278.956 15.4053 279.14 16.1685 279.14 17.0422C279.14 17.9159 278.956 18.6843 278.588 19.3474C278.219 20.0001 277.709 20.5106 277.056 20.879C276.414 21.2369 275.698 21.4159 274.909 21.4159C273.824 21.4159 272.972 21.0738 272.351 20.3896V24.3527H269.888V12.7948H272.24V13.7738C272.851 13.0369 273.74 12.6685 274.909 12.6685ZM274.482 19.3948C275.114 19.3948 275.63 19.1843 276.03 18.7632C276.44 18.3317 276.645 17.758 276.645 17.0422C276.645 16.3264 276.44 15.758 276.03 15.3369C275.63 14.9053 275.114 14.6896 274.482 14.6896C273.851 14.6896 273.33 14.9053 272.919 15.3369C272.519 15.758 272.319 16.3264 272.319 17.0422C272.319 17.758 272.519 18.3317 272.919 18.7632C273.33 19.1843 273.851 19.3948 274.482 19.3948ZM284.846 21.4159C283.951 21.4159 283.146 21.2317 282.43 20.8632C281.724 20.4843 281.172 19.9632 280.772 19.3001C280.372 18.6369 280.172 17.8843 280.172 17.0422C280.172 16.2001 280.372 15.4474 280.772 14.7843C281.172 14.1211 281.724 13.6053 282.43 13.2369C283.146 12.858 283.951 12.6685 284.846 12.6685C285.74 12.6685 286.54 12.858 287.246 13.2369C287.951 13.6053 288.503 14.1211 288.903 14.7843C289.303 15.4474 289.503 16.2001 289.503 17.0422C289.503 17.8843 289.303 18.6369 288.903 19.3001C288.503 19.9632 287.951 20.4843 287.246 20.8632C286.54 21.2317 285.74 21.4159 284.846 21.4159ZM284.846 19.3948C285.477 19.3948 285.993 19.1843 286.393 18.7632C286.803 18.3317 287.009 17.758 287.009 17.0422C287.009 16.3264 286.803 15.758 286.393 15.3369C285.993 14.9053 285.477 14.6896 284.846 14.6896C284.214 14.6896 283.693 14.9053 283.282 15.3369C282.872 15.758 282.667 16.3264 282.667 17.0422C282.667 17.758 282.872 18.3317 283.282 18.7632C283.693 19.1843 284.214 19.3948 284.846 19.3948ZM297.687 16.8527C298.687 17.1896 299.187 17.8632 299.187 18.8738C299.187 19.6422 298.898 20.2369 298.319 20.658C297.74 21.079 296.877 21.2896 295.729 21.2896H291.198V12.7948H295.54C296.603 12.7948 297.434 12.9895 298.034 13.379C298.634 13.758 298.934 14.2948 298.934 14.9896C298.934 15.4106 298.824 15.7843 298.603 16.1106C298.392 16.4264 298.087 16.6738 297.687 16.8527ZM293.455 16.2843H295.319C296.182 16.2843 296.613 15.979 296.613 15.3685C296.613 14.7685 296.182 14.4685 295.319 14.4685H293.455V16.2843ZM295.524 19.6159C296.429 19.6159 296.882 19.3053 296.882 18.6843C296.882 18.358 296.777 18.1211 296.566 17.9738C296.355 17.8159 296.024 17.7369 295.571 17.7369H293.455V19.6159H295.524ZM304.32 12.6685C305.636 12.6685 306.646 12.9843 307.351 13.6159C308.057 14.2369 308.409 15.179 308.409 16.4422V21.2896H306.104V20.2317C305.641 21.0211 304.778 21.4159 303.514 21.4159C302.862 21.4159 302.293 21.3053 301.809 21.0843C301.336 20.8632 300.972 20.558 300.72 20.1685C300.467 19.779 300.341 19.3369 300.341 18.8422C300.341 18.0527 300.636 17.4317 301.225 16.979C301.825 16.5264 302.746 16.3001 303.988 16.3001H305.946C305.946 15.7632 305.783 15.3527 305.457 15.0685C305.13 14.7738 304.641 14.6264 303.988 14.6264C303.536 14.6264 303.088 14.7001 302.646 14.8474C302.214 14.9843 301.846 15.1738 301.541 15.4159L300.657 13.6948C301.12 13.3685 301.672 13.1159 302.314 12.9369C302.967 12.758 303.636 12.6685 304.32 12.6685ZM304.13 19.758C304.551 19.758 304.925 19.6632 305.251 19.4738C305.578 19.2738 305.809 18.9843 305.946 18.6053V17.7369H304.257C303.246 17.7369 302.741 18.0685 302.741 18.7317C302.741 19.0474 302.862 19.3001 303.104 19.4896C303.357 19.6685 303.699 19.758 304.13 19.758ZM310.549 12.7948H312.996V16.1106H316.691V12.7948H319.154V21.2896H316.691V18.1159H312.996V21.2896H310.549V12.7948ZM325.491 21.4159C324.596 21.4159 323.791 21.2317 323.075 20.8632C322.37 20.4843 321.817 19.9632 321.417 19.3001C321.017 18.6369 320.817 17.8843 320.817 17.0422C320.817 16.2001 321.017 15.4474 321.417 14.7843C321.817 14.1211 322.37 13.6053 323.075 13.2369C323.791 12.858 324.596 12.6685 325.491 12.6685C326.386 12.6685 327.186 12.858 327.891 13.2369C328.596 13.6053 329.149 14.1211 329.549 14.7843C329.949 15.4474 330.149 16.2001 330.149 17.0422C330.149 17.8843 329.949 18.6369 329.549 19.3001C329.149 19.9632 328.596 20.4843 327.891 20.8632C327.186 21.2317 326.386 21.4159 325.491 21.4159ZM325.491 19.3948C326.123 19.3948 326.638 19.1843 327.038 18.7632C327.449 18.3317 327.654 17.758 327.654 17.0422C327.654 16.3264 327.449 15.758 327.038 15.3369C326.638 14.9053 326.123 14.6896 325.491 14.6896C324.859 14.6896 324.338 14.9053 323.928 15.3369C323.517 15.758 323.312 16.3264 323.312 17.0422C323.312 17.758 323.517 18.3317 323.928 18.7632C324.338 19.1843 324.859 19.3948 325.491 19.3948Z" fill="black"/>
</svg>
