<svg width="302" height="37" viewBox="0 0 302 37" fill="none" xmlns="http://www.w3.org/2000/svg">
<path d="M28.5656 0.999998V1.5H15.5656V36H14.1156H13.8156V1.5H0.815625V0.999998H28.5656ZM31.3809 1.5L33.1309 0.699998V17.35H53.0809V1.5L54.8309 0.699998V36H53.0809V17.8H33.1309V36H31.3809V1.5ZM78.0242 0.999998V1.5H62.5742V17.15H78.0242V17.65H62.5742V35.5H81.2742V36H60.8242V0.999998H78.0242ZM138.318 8.3L142.018 5.05C140.484 3.75 138.918 2.81666 137.318 2.25C135.718 1.65 133.918 1.35 131.918 1.35C129.584 1.35 127.434 1.85 125.468 2.85C123.534 3.85 121.868 5.16667 120.468 6.8C119.068 8.43333 117.984 10.3 117.218 12.4C116.451 14.4667 116.068 16.5833 116.068 18.75C116.068 20.9167 116.451 23.0167 117.218 25.05C118.018 27.0833 119.118 28.8833 120.518 30.45C121.918 32.0167 123.584 33.2667 125.518 34.2C127.484 35.1333 129.618 35.6 131.918 35.6C134.251 35.6 136.384 35.05 138.318 33.95C140.284 32.85 141.968 31.4333 143.368 29.7C144.768 27.9667 145.851 26.0333 146.618 23.9C147.418 21.7333 147.818 19.5833 147.818 17.45C147.384 17.2167 146.884 17.0167 146.318 16.85C145.751 16.6833 145.151 16.6 144.518 16.6C143.918 16.5667 143.318 16.6167 142.718 16.75C142.118 16.85 141.568 17.05 141.068 17.35C140.168 17.95 139.334 18.5333 138.568 19.1C137.834 19.6667 137.068 20.1833 136.268 20.65C135.468 21.0833 134.601 21.45 133.668 21.75C132.768 22.0167 131.734 22.15 130.568 22.15C129.501 22.15 128.484 21.9833 127.518 21.65C126.584 21.2833 125.718 20.7833 124.918 20.15L125.168 19.75C125.868 20.2167 126.601 20.6333 127.368 21C128.134 21.3333 128.951 21.5 129.818 21.5C130.818 21.5 131.701 21.3667 132.468 21.1C133.234 20.8333 133.934 20.5 134.568 20.1C135.234 19.7 135.868 19.2667 136.468 18.8C137.068 18.3 137.701 17.85 138.368 17.45C139.034 17.0167 139.751 16.65 140.518 16.35C141.318 16.0167 142.218 15.8333 143.218 15.8C144.551 15.7333 145.634 15.8333 146.468 16.1C147.334 16.3667 148.201 16.7333 149.068 17.2C149.168 17.4 149.218 17.6167 149.218 17.85C149.218 20.2167 148.784 22.5 147.918 24.7C147.051 26.9 145.851 28.85 144.318 30.55C142.784 32.2167 140.951 33.5667 138.818 34.6C136.718 35.6 134.418 36.1 131.918 36.1C129.518 36.1 127.234 35.65 125.068 34.75C122.934 33.8167 121.068 32.5667 119.468 31C117.868 29.4 116.601 27.55 115.668 25.45C114.734 23.35 114.268 21.1167 114.268 18.75C114.268 16.2833 114.718 13.9667 115.618 11.8C116.518 9.63333 117.751 7.75 119.318 6.15C120.884 4.51667 122.734 3.23333 124.868 2.3C127.034 1.33333 129.384 0.85 131.918 0.85C133.051 0.85 134.084 0.916665 135.018 1.05C135.951 1.15 136.834 1.33333 137.668 1.6C138.534 1.86667 139.368 2.23333 140.168 2.7C140.968 3.16667 141.818 3.73333 142.718 4.4L146.568 0.949998L147.068 1.4L138.818 8.75L138.318 8.3ZM154.232 36V0.999998H165.432C166.966 0.933332 168.316 1.11667 169.482 1.55C170.682 1.98333 171.682 2.58333 172.482 3.35C173.282 4.11666 173.882 5.01666 174.282 6.05C174.716 7.08333 174.932 8.16667 174.932 9.3C174.932 10.4333 174.682 11.5167 174.182 12.55C173.716 13.5833 173.049 14.4833 172.182 15.25C171.349 15.9833 170.349 16.5667 169.182 17C168.049 17.4 166.799 17.5833 165.432 17.55H162.382H156.032L155.982 36H154.232ZM156.032 17.05H165.482C166.816 17.05 167.966 16.8167 168.932 16.35C169.899 15.8833 170.699 15.2833 171.332 14.55C171.966 13.7833 172.432 12.95 172.732 12.05C173.066 11.1167 173.232 10.2 173.232 9.3C173.232 8.36666 173.082 7.45 172.782 6.55C172.482 5.61666 171.999 4.78333 171.332 4.05C170.699 3.28333 169.882 2.66666 168.882 2.2C167.882 1.73333 166.716 1.5 165.382 1.5H155.982L156.032 17.05ZM165.032 17.45L165.582 17.3L177.182 36H176.582L165.032 17.45ZM182.212 36.1V1.05L183.962 0.399999V35.15L182.212 36.1ZM189.975 36V1.65L191.725 0.85V36H190.275H189.975ZM189.975 36V1.65L191.725 0.85V36H190.275H189.975ZM211.675 36H191.175V35.5H211.675V36ZM216.684 36V1.65L218.434 0.85V36H216.984H216.684ZM216.684 36V1.65L218.434 0.85V36H216.984H216.684ZM238.384 36H217.884V35.5H238.384V36ZM260.593 0.999998V1.5H245.143V17.15H260.593V17.65H245.143V35.5H263.843V36H243.393V0.999998H260.593ZM268.882 0.999998H270.632V36L268.882 35.95V0.999998ZM268.882 36V35.5H284.332C286.599 35.5 288.649 34.9833 290.482 33.95C292.349 32.8833 293.932 31.55 295.232 29.95C296.532 28.3167 297.549 26.5167 298.282 24.55C299.015 22.5833 299.399 20.65 299.432 18.75C299.499 16.75 299.165 14.7333 298.432 12.7C297.732 10.6333 296.715 8.78333 295.382 7.15C294.082 5.48333 292.482 4.13333 290.582 3.1C288.682 2.06667 286.582 1.53333 284.282 1.5H268.882V0.999998H284.332C286.799 0.999998 289.065 1.5 291.132 2.5C293.199 3.46667 294.982 4.76667 296.482 6.4C297.982 8.03333 299.149 9.93333 299.982 12.1C300.815 14.2333 301.215 16.45 301.182 18.75C301.149 21.0167 300.699 23.2 299.832 25.3C298.965 27.3667 297.782 29.2 296.282 30.8C294.782 32.3667 292.999 33.6333 290.932 34.6C288.899 35.5333 286.699 36 284.332 36H268.882Z" fill="#BB8E4D"/>
</svg>
