<svg width="261" height="25" viewBox="0 0 261 25" fill="none" xmlns="http://www.w3.org/2000/svg">
<rect x="0.0976562" y="0.153198" width="24.8468" height="24.8468" rx="12.4234" fill="#59B343"/>
<path d="M43.8031 17.2256C42.9169 17.2256 42.1135 17.0351 41.3929 16.6541C40.6807 16.2649 40.1175 15.7307 39.7034 15.0515C39.2975 14.3641 39.0946 13.5897 39.0946 12.7284C39.0946 11.867 39.2975 11.0967 39.7034 10.4176C40.1175 9.73017 40.6807 9.19597 41.3929 8.81498C42.1135 8.42572 42.921 8.23108 43.8155 8.23108C44.5692 8.23108 45.2483 8.3636 45.8529 8.62863C46.4658 8.89366 46.9793 9.27465 47.3934 9.77158L46.1014 10.9642C45.5134 10.2851 44.7845 9.94551 43.9149 9.94551C43.3765 9.94551 42.8962 10.0656 42.4738 10.3058C42.0514 10.5377 41.7201 10.8648 41.4799 11.2872C41.248 11.7096 41.1321 12.19 41.1321 12.7284C41.1321 13.2667 41.248 13.7471 41.4799 14.1695C41.7201 14.5919 42.0514 14.9231 42.4738 15.1633C42.8962 15.3952 43.3765 15.5112 43.9149 15.5112C44.7845 15.5112 45.5134 15.1675 46.1014 14.48L47.3934 15.6727C46.9793 16.1779 46.4658 16.563 45.8529 16.8281C45.2401 17.0931 44.5568 17.2256 43.8031 17.2256ZM53.6621 13.5856C54.4489 13.8506 54.8423 14.3807 54.8423 15.1758C54.8423 15.7804 54.6146 16.2483 54.1591 16.5796C53.7035 16.9109 53.0244 17.0765 52.1216 17.0765H48.5561V10.3928H51.9725C52.809 10.3928 53.4633 10.546 53.9354 10.8524C54.4075 11.1506 54.6436 11.573 54.6436 12.1196C54.6436 12.4509 54.5566 12.7449 54.3827 13.0017C54.217 13.2501 53.9768 13.4448 53.6621 13.5856ZM50.3326 13.1383H51.7986C52.4778 13.1383 52.8173 12.8981 52.8173 12.4178C52.8173 11.9457 52.4778 11.7096 51.7986 11.7096H50.3326V13.1383ZM51.9601 15.7597C52.6724 15.7597 53.0285 15.5153 53.0285 15.0267C53.0285 14.7699 52.9457 14.5836 52.7801 14.4676C52.6144 14.3434 52.3535 14.2813 51.9974 14.2813H50.3326V15.7597H51.9601ZM59.415 17.1759C58.711 17.1759 58.0774 17.031 57.5142 16.7411C56.9593 16.4429 56.5245 16.033 56.2098 15.5112C55.8951 14.9894 55.7377 14.3972 55.7377 13.7346C55.7377 13.0721 55.8951 12.4799 56.2098 11.9581C56.5245 11.4363 56.9593 11.0305 57.5142 10.7406C58.0774 10.4424 58.711 10.2934 59.415 10.2934C60.119 10.2934 60.7485 10.4424 61.3034 10.7406C61.8583 11.0305 62.2931 11.4363 62.6078 11.9581C62.9226 12.4799 63.0799 13.0721 63.0799 13.7346C63.0799 14.3972 62.9226 14.9894 62.6078 15.5112C62.2931 16.033 61.8583 16.4429 61.3034 16.7411C60.7485 17.031 60.119 17.1759 59.415 17.1759ZM59.415 15.5857C59.912 15.5857 60.3178 15.4201 60.6325 15.0888C60.9555 14.7492 61.117 14.2978 61.117 13.7346C61.117 13.1715 60.9555 12.7242 60.6325 12.3929C60.3178 12.0533 59.912 11.8836 59.415 11.8836C58.9181 11.8836 58.5081 12.0533 58.1851 12.3929C57.8621 12.7242 57.7006 13.1715 57.7006 13.7346C57.7006 14.2978 57.8621 14.7492 58.1851 15.0888C58.5081 15.4201 58.9181 15.5857 59.415 15.5857ZM68.2766 10.8524C68.9143 10.8524 69.4734 10.9849 69.9537 11.25C70.4341 11.5067 70.8027 11.8711 71.0594 12.3432C71.3245 12.8153 71.457 13.3619 71.457 13.9831C71.457 14.6208 71.2996 15.1882 70.9849 15.6851C70.6784 16.1738 70.2478 16.5548 69.6929 16.8281C69.1379 17.0931 68.5085 17.2256 67.8045 17.2256C66.6367 17.2256 65.7174 16.8529 65.0465 16.1075C64.3839 15.3538 64.0526 14.2523 64.0526 12.8029C64.0526 11.4612 64.3425 10.3928 64.9223 9.59765C65.5103 8.79428 66.4089 8.26835 67.6181 8.01988L70.7985 7.38629L71.0594 9.05103L68.2517 9.61008C67.4898 9.75916 66.9224 10.0076 66.5497 10.3555C66.1853 10.7033 65.97 11.1961 65.9037 11.8339C66.1936 11.5191 66.5415 11.279 66.9473 11.1133C67.3531 10.9394 67.7962 10.8524 68.2766 10.8524ZM67.8169 15.7224C68.3139 15.7224 68.7114 15.5609 69.0096 15.2379C69.316 14.9149 69.4692 14.5049 69.4692 14.008C69.4692 13.5027 69.316 13.1011 69.0096 12.8029C68.7114 12.5047 68.3139 12.3556 67.8169 12.3556C67.3117 12.3556 66.9059 12.5047 66.5994 12.8029C66.293 13.1011 66.1398 13.5027 66.1398 14.008C66.1398 14.5132 66.2971 14.9273 66.6119 15.2503C66.9266 15.565 67.3283 15.7224 67.8169 15.7224ZM75.9027 17.1759C75.1987 17.1759 74.5651 17.031 74.0019 16.7411C73.447 16.4429 73.0122 16.033 72.6975 15.5112C72.3827 14.9894 72.2254 14.3972 72.2254 13.7346C72.2254 13.0721 72.3827 12.4799 72.6975 11.9581C73.0122 11.4363 73.447 11.0305 74.0019 10.7406C74.5651 10.4424 75.1987 10.2934 75.9027 10.2934C76.6067 10.2934 77.2362 10.4424 77.7911 10.7406C78.346 11.0305 78.7808 11.4363 79.0955 11.9581C79.4102 12.4799 79.5676 13.0721 79.5676 13.7346C79.5676 14.3972 79.4102 14.9894 79.0955 15.5112C78.7808 16.033 78.346 16.4429 77.7911 16.7411C77.2362 17.031 76.6067 17.1759 75.9027 17.1759ZM75.9027 15.5857C76.3996 15.5857 76.8055 15.4201 77.1202 15.0888C77.4432 14.7492 77.6047 14.2978 77.6047 13.7346C77.6047 13.1715 77.4432 12.7242 77.1202 12.3929C76.8055 12.0533 76.3996 11.8836 75.9027 11.8836C75.4058 11.8836 74.9958 12.0533 74.6728 12.3929C74.3498 12.7242 74.1883 13.1715 74.1883 13.7346C74.1883 14.2978 74.3498 14.7492 74.6728 15.0888C74.9958 15.4201 75.4058 15.5857 75.9027 15.5857ZM88.2948 15.4863V18.5177H86.4935V17.0765H81.7974V18.5177H79.996V15.4863H80.2693C80.6834 15.4781 80.9692 15.2337 81.1266 14.7534C81.2839 14.273 81.3833 13.5897 81.4247 12.7035L81.5117 10.3928H87.3382V15.4863H88.2948ZM83.1764 12.8402C83.1516 13.5193 83.0977 14.0742 83.0149 14.5049C82.9404 14.9356 82.7954 15.2627 82.5801 15.4863H85.4002V11.9829H83.2137L83.1764 12.8402ZM89.5145 10.3928H91.4401V13.0017H94.3472V10.3928H96.2852V17.0765H94.3472V14.5794H91.4401V17.0765H89.5145V10.3928ZM101.271 17.1759C100.567 17.1759 99.9336 17.031 99.3704 16.7411C98.8155 16.4429 98.3807 16.033 98.0659 15.5112C97.7512 14.9894 97.5939 14.3972 97.5939 13.7346C97.5939 13.0721 97.7512 12.4799 98.0659 11.9581C98.3807 11.4363 98.8155 11.0305 99.3704 10.7406C99.9336 10.4424 100.567 10.2934 101.271 10.2934C101.975 10.2934 102.605 10.4424 103.16 10.7406C103.714 11.0305 104.149 11.4363 104.464 11.9581C104.779 12.4799 104.936 13.0721 104.936 13.7346C104.936 14.3972 104.779 14.9894 104.464 15.5112C104.149 16.033 103.714 16.4429 103.16 16.7411C102.605 17.031 101.975 17.1759 101.271 17.1759ZM101.271 15.5857C101.768 15.5857 102.174 15.4201 102.489 15.0888C102.812 14.7492 102.973 14.2978 102.973 13.7346C102.973 13.1715 102.812 12.7242 102.489 12.3929C102.174 12.0533 101.768 11.8836 101.271 11.8836C100.774 11.8836 100.364 12.0533 100.041 12.3929C99.7183 12.7242 99.5568 13.1715 99.5568 13.7346C99.5568 14.2978 99.7183 14.7492 100.041 15.0888C100.364 15.4201 100.774 15.5857 101.271 15.5857Z" fill="black"/>
<rect x="114.928" y="0.153198" width="24.8468" height="24.8468" rx="12.4234" fill="#FF3D00"/>
<path d="M159.466 12.542C159.971 12.7159 160.364 12.9892 160.646 13.3619C160.936 13.7264 161.081 14.1529 161.081 14.6416C161.081 15.1716 160.907 15.6313 160.559 16.0205C160.211 16.4098 159.739 16.708 159.143 16.915C158.554 17.1221 157.908 17.2256 157.204 17.2256C156.608 17.2256 156.012 17.1511 155.416 17.002C154.827 16.8529 154.268 16.6252 153.738 16.3187L154.36 14.8776C154.741 15.1095 155.159 15.2876 155.614 15.4118C156.078 15.5278 156.529 15.5857 156.968 15.5857C157.565 15.5857 158.058 15.4781 158.447 15.2627C158.844 15.0474 159.043 14.7451 159.043 14.3558C159.043 14.0328 158.906 13.7885 158.633 13.6228C158.368 13.4572 158.004 13.3744 157.54 13.3744H155.416V11.8587H157.391C157.797 11.8587 158.111 11.7759 158.335 11.6102C158.567 11.4446 158.683 11.2168 158.683 10.927C158.683 10.5874 158.517 10.3224 158.186 10.1319C157.863 9.94137 157.445 9.84612 156.931 9.84612C156.55 9.84612 156.157 9.89996 155.751 10.0076C155.345 10.107 154.96 10.2602 154.596 10.4673L153.987 8.90194C154.906 8.42986 155.9 8.19381 156.968 8.19381C157.648 8.19381 158.273 8.2932 158.844 8.49197C159.416 8.69075 159.871 8.98063 160.211 9.36161C160.551 9.74259 160.72 10.1857 160.72 10.6909C160.72 11.105 160.608 11.4736 160.385 11.7966C160.161 12.1196 159.855 12.3681 159.466 12.542ZM165.121 10.2934C166.157 10.2934 166.952 10.5418 167.507 11.0388C168.061 11.5274 168.339 12.2687 168.339 13.2626V17.0765H166.525V16.2442C166.161 16.8653 165.482 17.1759 164.488 17.1759C163.974 17.1759 163.527 17.089 163.146 16.915C162.773 16.7411 162.488 16.5009 162.289 16.1945C162.09 15.888 161.991 15.5402 161.991 15.1509C161.991 14.5297 162.222 14.0411 162.686 13.685C163.158 13.3288 163.883 13.1507 164.86 13.1507H166.401C166.401 12.7284 166.273 12.4053 166.016 12.1817C165.759 11.9498 165.374 11.8339 164.86 11.8339C164.504 11.8339 164.152 11.8918 163.804 12.0078C163.465 12.1155 163.175 12.2645 162.935 12.455L162.239 11.1009C162.603 10.8441 163.038 10.6454 163.544 10.5046C164.057 10.3638 164.583 10.2934 165.121 10.2934ZM164.972 15.8715C165.303 15.8715 165.598 15.7969 165.854 15.6478C166.111 15.4905 166.293 15.2627 166.401 14.9646V14.2813H165.072C164.276 14.2813 163.879 14.5422 163.879 15.0639C163.879 15.3124 163.974 15.5112 164.165 15.6603C164.363 15.8011 164.633 15.8715 164.972 15.8715ZM173.886 10.8524C174.524 10.8524 175.083 10.9849 175.563 11.25C176.044 11.5067 176.412 11.8711 176.669 12.3432C176.934 12.8153 177.067 13.3619 177.067 13.9831C177.067 14.6208 176.909 15.1882 176.594 15.6851C176.288 16.1738 175.857 16.5548 175.302 16.8281C174.748 17.0931 174.118 17.2256 173.414 17.2256C172.246 17.2256 171.327 16.8529 170.656 16.1075C169.994 15.3538 169.662 14.2523 169.662 12.8029C169.662 11.4612 169.952 10.3928 170.532 9.59765C171.12 8.79428 172.019 8.26835 173.228 8.01988L176.408 7.38629L176.669 9.05103L173.861 9.61008C173.099 9.75916 172.532 10.0076 172.159 10.3555C171.795 10.7033 171.58 11.1961 171.513 11.8339C171.803 11.5191 172.151 11.279 172.557 11.1133C172.963 10.9394 173.406 10.8524 173.886 10.8524ZM173.427 15.7224C173.923 15.7224 174.321 15.5609 174.619 15.2379C174.926 14.9149 175.079 14.5049 175.079 14.008C175.079 13.5027 174.926 13.1011 174.619 12.8029C174.321 12.5047 173.923 12.3556 173.427 12.3556C172.921 12.3556 172.515 12.5047 172.209 12.8029C171.903 13.1011 171.749 13.5027 171.749 14.008C171.749 14.5132 171.907 14.9273 172.221 15.2503C172.536 15.565 172.938 15.7224 173.427 15.7224ZM182.32 10.2934C182.941 10.2934 183.504 10.4383 184.009 10.7282C184.523 11.0098 184.925 11.4115 185.214 11.9333C185.504 12.4468 185.649 13.0472 185.649 13.7346C185.649 14.4221 185.504 15.0267 185.214 15.5485C184.925 16.062 184.523 16.4637 184.009 16.7535C183.504 17.0351 182.941 17.1759 182.32 17.1759C181.467 17.1759 180.796 16.9068 180.307 16.3684V19.4867H178.369V10.3928H180.22V11.163C180.701 10.5832 181.4 10.2934 182.32 10.2934ZM181.984 15.5857C182.481 15.5857 182.887 15.4201 183.202 15.0888C183.525 14.7492 183.686 14.2978 183.686 13.7346C183.686 13.1715 183.525 12.7242 183.202 12.3929C182.887 12.0533 182.481 11.8836 181.984 11.8836C181.487 11.8836 181.077 12.0533 180.754 12.3929C180.44 12.7242 180.282 13.1715 180.282 13.7346C180.282 14.2978 180.44 14.7492 180.754 15.0888C181.077 15.4201 181.487 15.5857 181.984 15.5857ZM190.138 17.1759C189.434 17.1759 188.801 17.031 188.238 16.7411C187.683 16.4429 187.248 16.033 186.933 15.5112C186.618 14.9894 186.461 14.3972 186.461 13.7346C186.461 13.0721 186.618 12.4799 186.933 11.9581C187.248 11.4363 187.683 11.0305 188.238 10.7406C188.801 10.4424 189.434 10.2934 190.138 10.2934C190.842 10.2934 191.472 10.4424 192.027 10.7406C192.582 11.0305 193.016 11.4363 193.331 11.9581C193.646 12.4799 193.803 13.0721 193.803 13.7346C193.803 14.3972 193.646 14.9894 193.331 15.5112C193.016 16.033 192.582 16.4429 192.027 16.7411C191.472 17.031 190.842 17.1759 190.138 17.1759ZM190.138 15.5857C190.635 15.5857 191.041 15.4201 191.356 15.0888C191.679 14.7492 191.84 14.2978 191.84 13.7346C191.84 13.1715 191.679 12.7242 191.356 12.3929C191.041 12.0533 190.635 11.8836 190.138 11.8836C189.641 11.8836 189.231 12.0533 188.908 12.3929C188.585 12.7242 188.424 13.1715 188.424 13.7346C188.424 14.2978 188.585 14.7492 188.908 15.0888C189.231 15.4201 189.641 15.5857 190.138 15.5857ZM195.136 10.3928H197.062V13.0017H199.969V10.3928H201.907V17.0765H199.969V14.5794H197.062V17.0765H195.136V10.3928ZM203.762 10.3928H205.688V14.3682L208.943 10.3928H210.719V17.0765H208.794V13.1011L205.551 17.0765H203.762V10.3928ZM216.521 10.2934C217.142 10.2934 217.705 10.4383 218.21 10.7282C218.724 11.0098 219.125 11.4115 219.415 11.9333C219.705 12.4468 219.85 13.0472 219.85 13.7346C219.85 14.4221 219.705 15.0267 219.415 15.5485C219.125 16.062 218.724 16.4637 218.21 16.7535C217.705 17.0351 217.142 17.1759 216.521 17.1759C215.667 17.1759 214.997 16.9068 214.508 16.3684V19.4867H212.57V10.3928H214.421V11.163C214.901 10.5832 215.601 10.2934 216.521 10.2934ZM216.185 15.5857C216.682 15.5857 217.088 15.4201 217.403 15.0888C217.726 14.7492 217.887 14.2978 217.887 13.7346C217.887 13.1715 217.726 12.7242 217.403 12.3929C217.088 12.0533 216.682 11.8836 216.185 11.8836C215.688 11.8836 215.278 12.0533 214.955 12.3929C214.64 12.7242 214.483 13.1715 214.483 13.7346C214.483 14.2978 214.64 14.7492 214.955 15.0888C215.278 15.4201 215.688 15.5857 216.185 15.5857ZM224.339 17.1759C223.635 17.1759 223.001 17.031 222.438 16.7411C221.883 16.4429 221.449 16.033 221.134 15.5112C220.819 14.9894 220.662 14.3972 220.662 13.7346C220.662 13.0721 220.819 12.4799 221.134 11.9581C221.449 11.4363 221.883 11.0305 222.438 10.7406C223.001 10.4424 223.635 10.2934 224.339 10.2934C225.043 10.2934 225.672 10.4424 226.227 10.7406C226.782 11.0305 227.217 11.4363 227.532 11.9581C227.847 12.4799 228.004 13.0721 228.004 13.7346C228.004 14.3972 227.847 14.9894 227.532 15.5112C227.217 16.033 226.782 16.4429 226.227 16.7411C225.672 17.031 225.043 17.1759 224.339 17.1759ZM224.339 15.5857C224.836 15.5857 225.242 15.4201 225.557 15.0888C225.88 14.7492 226.041 14.2978 226.041 13.7346C226.041 13.1715 225.88 12.7242 225.557 12.3929C225.242 12.0533 224.836 11.8836 224.339 11.8836C223.842 11.8836 223.432 12.0533 223.109 12.3929C222.786 12.7242 222.625 13.1715 222.625 13.7346C222.625 14.2978 222.786 14.7492 223.109 15.0888C223.432 15.4201 223.842 15.5857 224.339 15.5857ZM234.443 13.5856C235.23 13.8506 235.623 14.3807 235.623 15.1758C235.623 15.7804 235.395 16.2483 234.94 16.5796C234.484 16.9109 233.805 17.0765 232.902 17.0765H229.337V10.3928H232.753C233.59 10.3928 234.244 10.546 234.716 10.8524C235.188 11.1506 235.424 11.573 235.424 12.1196C235.424 12.4509 235.337 12.7449 235.164 13.0017C234.998 13.2501 234.758 13.4448 234.443 13.5856ZM231.113 13.1383H232.579C233.259 13.1383 233.598 12.8981 233.598 12.4178C233.598 11.9457 233.259 11.7096 232.579 11.7096H231.113V13.1383ZM232.741 15.7597C233.453 15.7597 233.809 15.5153 233.809 15.0267C233.809 14.7699 233.727 14.5836 233.561 14.4676C233.395 14.3434 233.134 14.2813 232.778 14.2813H231.113V15.7597H232.741ZM239.662 10.2934C240.697 10.2934 241.492 10.5418 242.047 11.0388C242.602 11.5274 242.879 12.2687 242.879 13.2626V17.0765H241.065V16.2442C240.701 16.8653 240.022 17.1759 239.028 17.1759C238.515 17.1759 238.067 17.089 237.686 16.915C237.314 16.7411 237.028 16.5009 236.829 16.1945C236.63 15.888 236.531 15.5402 236.531 15.1509C236.531 14.5297 236.763 14.0411 237.227 13.685C237.699 13.3288 238.423 13.1507 239.401 13.1507H240.941C240.941 12.7284 240.813 12.4053 240.556 12.1817C240.299 11.9498 239.914 11.8339 239.401 11.8339C239.045 11.8339 238.693 11.8918 238.345 12.0078C238.005 12.1155 237.715 12.2645 237.475 12.455L236.779 11.1009C237.144 10.8441 237.579 10.6454 238.084 10.5046C238.597 10.3638 239.123 10.2934 239.662 10.2934ZM239.513 15.8715C239.844 15.8715 240.138 15.7969 240.395 15.6478C240.651 15.4905 240.834 15.2627 240.941 14.9646V14.2813H239.612C238.817 14.2813 238.419 14.5422 238.419 15.0639C238.419 15.3124 238.515 15.5112 238.705 15.6603C238.904 15.8011 239.173 15.8715 239.513 15.8715ZM244.563 10.3928H246.488V13.0017H249.396V10.3928H251.334V17.0765H249.396V14.5794H246.488V17.0765H244.563V10.3928ZM256.32 17.1759C255.616 17.1759 254.982 17.031 254.419 16.7411C253.864 16.4429 253.429 16.033 253.114 15.5112C252.8 14.9894 252.642 14.3972 252.642 13.7346C252.642 13.0721 252.8 12.4799 253.114 11.9581C253.429 11.4363 253.864 11.0305 254.419 10.7406C254.982 10.4424 255.616 10.2934 256.32 10.2934C257.024 10.2934 257.653 10.4424 258.208 10.7406C258.763 11.0305 259.198 11.4363 259.512 11.9581C259.827 12.4799 259.984 13.0721 259.984 13.7346C259.984 14.3972 259.827 14.9894 259.512 15.5112C259.198 16.033 258.763 16.4429 258.208 16.7411C257.653 17.031 257.024 17.1759 256.32 17.1759ZM256.32 15.5857C256.817 15.5857 257.222 15.4201 257.537 15.0888C257.86 14.7492 258.022 14.2978 258.022 13.7346C258.022 13.1715 257.86 12.7242 257.537 12.3929C257.222 12.0533 256.817 11.8836 256.32 11.8836C255.823 11.8836 255.413 12.0533 255.09 12.3929C254.767 12.7242 254.605 13.1715 254.605 13.7346C254.605 14.2978 254.767 14.7492 255.09 15.0888C255.413 15.4201 255.823 15.5857 256.32 15.5857Z" fill="black"/>
</svg>
